<svg width="168" height="56" viewBox="0 0 168 56" fill="none" xmlns="http://www.w3.org/2000/svg">
<rect x="0.65" y="0.65" width="166.7" height="54.7" rx="8.45" fill="white"/>
<rect x="0.65" y="0.65" width="166.7" height="54.7" rx="8.45" stroke="black" stroke-width="1.3"/>
<path d="M34.6772 28.4195C34.7075 26.0661 35.9714 23.8393 37.9764 22.6067C36.7115 20.8002 34.5929 19.6549 32.3887 19.5859C30.0378 19.3391 27.7587 20.9927 26.5607 20.9927C25.3395 20.9927 23.495 19.6104 21.5088 19.6513C18.9198 19.7349 16.5063 21.2068 15.2467 23.4703C12.5391 28.1581 14.5587 35.0475 17.1524 38.8368C18.45 40.6923 19.9666 42.7649 21.951 42.6914C23.8929 42.6109 24.6182 41.4531 26.9622 41.4531C29.2845 41.4531 29.9649 42.6914 31.9896 42.6447C34.0733 42.6109 35.3862 40.7809 36.6383 38.9079C37.5707 37.5858 38.2881 36.1246 38.7641 34.5784C36.3153 33.5427 34.68 31.0783 34.6772 28.4195Z" fill="black"/>
<path d="M30.8528 17.0939C31.989 15.73 32.5487 13.977 32.4132 12.207C30.6774 12.3893 29.074 13.2189 27.9226 14.5305C26.7966 15.8119 26.2106 17.5342 26.3214 19.2364C28.0578 19.2543 29.7648 18.4472 30.8528 17.0939Z" fill="black"/>
<path d="M114.137 26.8805V30.0879H112.127V32.1914H114.137V39.3383C114.137 41.7788 115.241 42.7549 118.019 42.7549C118.507 42.7549 118.972 42.6968 119.378 42.6271V40.5469C119.03 40.5818 118.809 40.605 118.426 40.605C117.182 40.605 116.636 40.024 116.636 38.6992V32.1914H119.378V30.0879H116.636V26.8805H114.137Z" fill="black"/>
<path d="M126.454 42.9293C130.149 42.9293 132.415 40.454 132.415 36.3517C132.415 32.2727 130.138 29.7858 126.454 29.7858C122.758 29.7858 120.481 32.2727 120.481 36.3517C120.481 40.454 122.747 42.9293 126.454 42.9293ZM126.454 40.7096C124.281 40.7096 123.06 39.1175 123.06 36.3517C123.06 33.6091 124.281 32.0054 126.454 32.0054C128.615 32.0054 129.847 33.6091 129.847 36.3517C129.847 39.1059 128.615 40.7096 126.454 40.7096Z" fill="black"/>
<path d="M134.354 42.6852H136.853V35.2128C136.853 33.4348 138.189 32.2378 140.084 32.2378C140.525 32.2378 141.269 32.3192 141.478 32.3889V29.9252C141.211 29.8555 140.734 29.8207 140.362 29.8207C138.712 29.8207 137.306 30.7271 136.946 31.9706H136.76V30.0298H134.354V42.6852Z" fill="black"/>
<path d="M147.682 31.9125C149.53 31.9125 150.738 33.2024 150.796 35.1896H144.405C144.544 33.214 145.834 31.9125 147.682 31.9125ZM150.785 39.2686C150.32 40.2564 149.286 40.8026 147.775 40.8026C145.776 40.8026 144.486 39.3964 144.405 37.1768V37.0374H153.341V36.1658C153.341 32.1914 151.215 29.7858 147.693 29.7858C144.126 29.7858 141.86 32.3541 141.86 36.3982C141.86 40.4423 144.079 42.9293 147.705 42.9293C150.599 42.9293 152.621 41.5347 153.19 39.2686H150.785Z" fill="black"/>
<path d="M97.7523 38.0118C97.945 41.1194 100.535 43.1068 104.389 43.1068C108.508 43.1068 111.086 41.023 111.086 37.6986C111.086 35.0849 109.617 33.6395 106.051 32.8084L104.136 32.3386C101.872 31.8086 100.956 31.098 100.956 29.8574C100.956 28.2915 102.378 27.2677 104.51 27.2677C106.533 27.2677 107.93 28.2674 108.183 29.8694H110.809C110.652 26.9425 108.075 24.8828 104.546 24.8828C100.751 24.8828 98.2221 26.9425 98.2221 30.038C98.2221 32.5916 99.6554 34.1092 102.799 34.844L105.039 35.386C107.34 35.928 108.352 36.723 108.352 38.0479C108.352 39.5897 106.762 40.7098 104.594 40.7098C102.269 40.7098 100.655 39.6619 100.426 38.0118H97.7523Z" fill="black"/>
<path d="M71.87 29.8207C70.1501 29.8207 68.6626 30.6806 67.8956 32.1216H67.7097V30.0298H65.3041V46.892H67.8027V40.7677H68.0002C68.6626 42.1042 70.092 42.8944 71.8933 42.8944C75.0891 42.8944 77.1228 40.3726 77.1228 36.3517C77.1228 32.3308 75.0891 29.8207 71.87 29.8207ZM71.1612 40.6515C69.0694 40.6515 67.7562 39.0013 67.7562 36.3633C67.7562 33.7137 69.0694 32.0635 71.1728 32.0635C73.2878 32.0635 74.5545 33.6789 74.5545 36.3517C74.5545 39.0362 73.2878 40.6515 71.1612 40.6515Z" fill="black"/>
<path d="M85.8656 29.8207C84.1456 29.8207 82.6581 30.6806 81.8911 32.1216H81.7052V30.0298H79.2996V46.892H81.7982V40.7677H81.9957C82.6581 42.1042 84.0875 42.8944 85.8888 42.8944C89.0846 42.8944 91.1183 40.3726 91.1183 36.3517C91.1183 32.3308 89.0846 29.8207 85.8656 29.8207ZM85.1567 40.6515C83.0649 40.6515 81.7517 39.0013 81.7517 36.3633C81.7517 33.7137 83.0649 32.0635 85.1683 32.0635C87.2833 32.0635 88.55 33.6789 88.55 36.3517C88.55 39.0362 87.2833 40.6515 85.1567 40.6515Z" fill="black"/>
<path d="M60.8213 42.6852H63.688L57.4126 25.3044H54.5098L48.2344 42.6852H51.0047L52.6067 38.072H59.2314L60.8213 42.6852ZM55.8227 28.4602H56.0274L58.5448 35.8076H53.2932L55.8227 28.4602Z" fill="black"/>
<path d="M49.9102 12.1938V20.5784H52.9375C55.436 20.5784 56.8828 19.0386 56.8828 16.36C56.8828 13.722 55.4244 12.1938 52.9375 12.1938H49.9102ZM51.2117 13.3792H52.7922C54.5295 13.3792 55.558 14.4832 55.558 16.3774C55.558 18.3007 54.547 19.3931 52.7922 19.3931H51.2117V13.3792Z" fill="black"/>
<path d="M61.3139 20.7004C63.1617 20.7004 64.2947 19.4628 64.2947 17.4117C64.2947 15.3722 63.1559 14.1287 61.3139 14.1287C59.4662 14.1287 58.3273 15.3722 58.3273 17.4117C58.3273 19.4628 59.4604 20.7004 61.3139 20.7004ZM61.3139 19.5906C60.2274 19.5906 59.6173 18.7946 59.6173 17.4117C59.6173 16.0404 60.2274 15.2385 61.3139 15.2385C62.3947 15.2385 63.0106 16.0404 63.0106 17.4117C63.0106 18.7888 62.3947 19.5906 61.3139 19.5906Z" fill="black"/>
<path d="M73.9437 14.2507H72.6945L71.5672 19.0793H71.4684L70.1669 14.2507H68.9699L67.6684 19.0793H67.5754L66.4423 14.2507H65.1756L66.9188 20.5784H68.2029L69.5045 15.9184H69.6033L70.9106 20.5784H72.2064L73.9437 14.2507Z" fill="black"/>
<path d="M75.3824 20.5784H76.6317V16.8771C76.6317 15.8893 77.2186 15.2734 78.1424 15.2734C79.0663 15.2734 79.5079 15.7789 79.5079 16.7958V20.5784H80.7572V16.482C80.7572 14.9771 79.9786 14.1287 78.5666 14.1287C77.6137 14.1287 76.9861 14.5529 76.6782 15.256H76.5852V14.2507H75.3824V20.5784Z" fill="black"/>
<path d="M82.7246 20.5784H83.9739V11.7812H82.7246V20.5784Z" fill="black"/>
<path d="M88.6723 20.7004C90.5201 20.7004 91.6531 19.4628 91.6531 17.4117C91.6531 15.3722 90.5143 14.1287 88.6723 14.1287C86.8246 14.1287 85.6857 15.3722 85.6857 17.4117C85.6857 19.4628 86.8188 20.7004 88.6723 20.7004ZM88.6723 19.5906C87.5857 19.5906 86.9756 18.7946 86.9756 17.4117C86.9756 16.0404 87.5857 15.2385 88.6723 15.2385C89.7531 15.2385 90.369 16.0404 90.369 17.4117C90.369 18.7888 89.7531 19.5906 88.6723 19.5906Z" fill="black"/>
<path d="M95.3754 19.6313C94.6955 19.6313 94.2016 19.3001 94.2016 18.7307C94.2016 18.1729 94.5967 17.8765 95.4683 17.8184L97.0139 17.7196V18.2484C97.0139 19.0328 96.3167 19.6313 95.3754 19.6313ZM95.0558 20.683C95.8867 20.683 96.5781 20.3228 96.9558 19.6894H97.0546V20.5784H98.2574V16.2554C98.2574 14.9189 97.3626 14.1287 95.7763 14.1287C94.3411 14.1287 93.3184 14.826 93.1906 15.9125H94.3992C94.5386 15.4651 95.0209 15.2095 95.7182 15.2095C96.5723 15.2095 97.0139 15.5872 97.0139 16.2554V16.8016L95.2998 16.9003C93.7949 16.9933 92.9466 17.6499 92.9466 18.7888C92.9466 19.9451 93.8356 20.683 95.0558 20.683Z" fill="black"/>
<path d="M102.497 20.683C103.368 20.683 104.106 20.2705 104.484 19.579H104.583V20.5784H105.78V11.7812H104.53V15.256H104.437C104.095 14.5587 103.363 14.1461 102.497 14.1461C100.899 14.1461 99.8704 15.4128 99.8704 17.4117C99.8704 19.4163 100.887 20.683 102.497 20.683ZM102.851 15.2676C103.897 15.2676 104.554 16.0985 104.554 17.4175C104.554 18.7423 103.903 19.5616 102.851 19.5616C101.794 19.5616 101.16 18.7539 101.16 17.4117C101.16 16.0811 101.8 15.2676 102.851 15.2676Z" fill="black"/>
<path d="M113.881 20.7004C115.729 20.7004 116.862 19.4628 116.862 17.4117C116.862 15.3722 115.723 14.1287 113.881 14.1287C112.033 14.1287 110.894 15.3722 110.894 17.4117C110.894 19.4628 112.027 20.7004 113.881 20.7004ZM113.881 19.5906C112.794 19.5906 112.184 18.7946 112.184 17.4117C112.184 16.0404 112.794 15.2385 113.881 15.2385C114.962 15.2385 115.577 16.0404 115.577 17.4117C115.577 18.7888 114.962 19.5906 113.881 19.5906Z" fill="black"/>
<path d="M118.515 20.5784H119.765V16.8771C119.765 15.8893 120.351 15.2734 121.275 15.2734C122.199 15.2734 122.641 15.7789 122.641 16.7958V20.5784H123.89V16.482C123.89 14.9771 123.111 14.1287 121.699 14.1287C120.747 14.1287 120.119 14.5529 119.811 15.256H119.718V14.2507H118.515V20.5784Z" fill="black"/>
<path d="M129.644 12.6761V14.2798H128.638V15.3315H129.644V18.905C129.644 20.1252 130.196 20.6133 131.584 20.6133C131.828 20.6133 132.061 20.5842 132.264 20.5494V19.5093C132.09 19.5267 131.979 19.5383 131.788 19.5383C131.166 19.5383 130.893 19.2478 130.893 18.5854V15.3315H132.264V14.2798H130.893V12.6761H129.644Z" fill="black"/>
<path d="M133.941 20.5784H135.19V16.8829C135.19 15.9242 135.76 15.2792 136.782 15.2792C137.666 15.2792 138.136 15.7905 138.136 16.8016V20.5784H139.386V16.4936C139.386 14.9887 138.555 14.1345 137.207 14.1345C136.254 14.1345 135.586 14.5587 135.278 15.2676H135.179V11.7812H133.941V20.5784Z" fill="black"/>
<path d="M143.892 15.192C144.816 15.192 145.42 15.837 145.449 16.8306H142.254C142.323 15.8428 142.968 15.192 143.892 15.192ZM145.444 18.8701C145.211 19.364 144.694 19.6371 143.939 19.6371C142.939 19.6371 142.294 18.934 142.254 17.8242V17.7545H146.722V17.3187C146.722 15.3315 145.659 14.1287 143.898 14.1287C142.114 14.1287 140.981 15.4128 140.981 17.4349C140.981 19.457 142.091 20.7004 143.904 20.7004C145.351 20.7004 146.362 20.0032 146.646 18.8701H145.444Z" fill="black"/>
</svg>
