<svg width="504" height="266" viewBox="0 0 504 266" fill="none" xmlns="http://www.w3.org/2000/svg">
<path d="M112 115.968H118.242C124.709 116.363 137.534 113.245 137.091 97.6139C136.647 81.9831 136.906 73.9307 137.091 68.602C137.091 63.8654 141.849 52.0238 154.276 52.0241C167.027 52.0243 175.343 52.025 178.115 52.0241H284.556H425.369C430.912 51.7584 442 53.5826 442 63.0041C442 72.4256 442 71.3941 442 73" stroke="url(#paint0_radial_3450_10725)" stroke-width="1.5"
>     
    <animate attributeName="stroke-dasharray" from="0, 1000" to="1000, 0" dur="3s" fill="freeze"/>
  </path>

<path d="M112 136.032H118.242C124.709 135.637 137.534 138.755 137.091 154.386C136.647 170.017 136.906 178.069 137.091 183.398C137.091 188.135 141.849 199.976 154.276 199.976C167.027 199.976 175.343 199.975 178.115 199.976H284.556H425.369C430.912 200.242 442 198.417 442 188.996C442 179.574 442 171.606 442 170" stroke="url(#paint1_radial_3450_10725)" stroke-width="1.5"/>
<g filter="url(#filter0_d_3450_10725)">
<rect x="392" y="74" width="96" height="96" rx="8" fill="white"/>
</g>
<mask id="path-4-outside-1_3450_10725" maskUnits="userSpaceOnUse" x="429.102" y="92.7109" width="10" height="9" fill="black">
<rect fill="white" x="429.102" y="92.7109" width="10" height="9"/>
<path fill-rule="evenodd" clip-rule="evenodd" d="M435.521 98.6707C435.554 98.709 435.596 98.7379 435.645 98.7541C436.72 99.1321 438.125 99.7808 438.314 101.115H437.757C437.61 100.338 436.884 99.7555 435.458 99.2537C435.315 99.2041 435.19 99.1178 435.095 99.0042C435 98.8906 434.938 98.754 434.918 98.6092C434.897 98.466 434.918 98.32 434.977 98.1872C435.036 98.0544 435.132 97.9397 435.253 97.8556C435.554 97.6472 435.859 96.8878 435.859 96.6368V95.917C435.866 95.4927 435.704 95.0821 435.406 94.7704C435.108 94.4587 434.697 94.2701 434.259 94.2437C434.038 94.2371 433.818 94.2735 433.611 94.3507C433.405 94.4279 433.217 94.5443 433.058 94.6932C432.899 94.842 432.773 95.0201 432.687 95.2169C432.601 95.4138 432.557 95.6254 432.557 95.8391V96.6368C432.557 96.8878 432.861 97.6472 433.162 97.8559C433.284 97.9399 433.38 98.0545 433.439 98.1873C433.498 98.3202 433.519 98.4662 433.498 98.6095C433.478 98.7543 433.417 98.8909 433.321 99.0045C433.226 99.1181 433.101 99.2044 432.958 99.254C431.53 99.7556 430.805 100.338 430.659 101.115H430.102C430.29 99.7808 431.695 99.1321 432.769 98.7541C432.818 98.7379 432.861 98.709 432.893 98.6707C432.925 98.6323 432.946 98.5859 432.952 98.5369C432.96 98.4895 432.954 98.4411 432.934 98.3971C432.915 98.3531 432.883 98.3152 432.842 98.2877C432.389 97.9732 432.006 97.05 432.006 96.6368V95.8391C432.006 95.5542 432.065 95.2721 432.18 95.0097C432.295 94.7472 432.463 94.5098 432.675 94.3114C432.887 94.113 433.137 93.9577 433.412 93.8547C433.687 93.7517 433.981 93.7032 434.275 93.7119C434.856 93.7433 435.402 93.9901 435.8 94.4009C436.197 94.8116 436.415 95.3547 436.409 95.917V96.6368C436.409 97.05 436.026 97.9732 435.572 98.2877C435.531 98.3152 435.499 98.3531 435.48 98.3971C435.461 98.4411 435.454 98.4896 435.462 98.5369C435.468 98.5859 435.489 98.6323 435.521 98.6707Z"/>
</mask>
<path fill-rule="evenodd" clip-rule="evenodd" d="M435.521 98.6707C435.554 98.709 435.596 98.7379 435.645 98.7541C436.72 99.1321 438.125 99.7808 438.314 101.115H437.757C437.61 100.338 436.884 99.7555 435.458 99.2537C435.315 99.2041 435.19 99.1178 435.095 99.0042C435 98.8906 434.938 98.754 434.918 98.6092C434.897 98.466 434.918 98.32 434.977 98.1872C435.036 98.0544 435.132 97.9397 435.253 97.8556C435.554 97.6472 435.859 96.8878 435.859 96.6368V95.917C435.866 95.4927 435.704 95.0821 435.406 94.7704C435.108 94.4587 434.697 94.2701 434.259 94.2437C434.038 94.2371 433.818 94.2735 433.611 94.3507C433.405 94.4279 433.217 94.5443 433.058 94.6932C432.899 94.842 432.773 95.0201 432.687 95.2169C432.601 95.4138 432.557 95.6254 432.557 95.8391V96.6368C432.557 96.8878 432.861 97.6472 433.162 97.8559C433.284 97.9399 433.38 98.0545 433.439 98.1873C433.498 98.3202 433.519 98.4662 433.498 98.6095C433.478 98.7543 433.417 98.8909 433.321 99.0045C433.226 99.1181 433.101 99.2044 432.958 99.254C431.53 99.7556 430.805 100.338 430.659 101.115H430.102C430.29 99.7808 431.695 99.1321 432.769 98.7541C432.818 98.7379 432.861 98.709 432.893 98.6707C432.925 98.6323 432.946 98.5859 432.952 98.5369C432.96 98.4895 432.954 98.4411 432.934 98.3971C432.915 98.3531 432.883 98.3152 432.842 98.2877C432.389 97.9732 432.006 97.05 432.006 96.6368V95.8391C432.006 95.5542 432.065 95.2721 432.18 95.0097C432.295 94.7472 432.463 94.5098 432.675 94.3114C432.887 94.113 433.137 93.9577 433.412 93.8547C433.687 93.7517 433.981 93.7032 434.275 93.7119C434.856 93.7433 435.402 93.9901 435.8 94.4009C436.197 94.8116 436.415 95.3547 436.409 95.917V96.6368C436.409 97.05 436.026 97.9732 435.572 98.2877C435.531 98.3152 435.499 98.3531 435.48 98.3971C435.461 98.4411 435.454 98.4896 435.462 98.5369C435.468 98.5859 435.489 98.6323 435.521 98.6707Z" fill="#21366E"/>
<path d="M435.645 98.7541L435.711 98.5654L435.708 98.5644L435.645 98.7541ZM435.521 98.6707L435.368 98.7995L435.368 98.7995L435.521 98.6707ZM438.314 101.115V101.315H438.544L438.512 101.087L438.314 101.115ZM437.757 101.115L437.56 101.152L437.591 101.315H437.757V101.115ZM435.458 99.2537L435.524 99.0651L435.524 99.0649L435.458 99.2537ZM435.095 99.0042L434.941 99.1326L434.941 99.1326L435.095 99.0042ZM434.918 98.6092L435.116 98.581L435.116 98.5808L434.918 98.6092ZM435.253 97.8556L435.367 98.0202L435.367 98.0201L435.253 97.8556ZM435.859 95.917L435.659 95.9135V95.917H435.859ZM435.406 94.7704L435.261 94.9086V94.9086L435.406 94.7704ZM434.259 94.2437L434.271 94.044L434.265 94.0438L434.259 94.2437ZM433.611 94.3507L433.541 94.1634V94.1634L433.611 94.3507ZM433.058 94.6932L433.195 94.8391L433.195 94.8391L433.058 94.6932ZM432.687 95.2169L432.504 95.1368L432.687 95.2169ZM432.557 95.8391H432.757L432.757 95.839L432.557 95.8391ZM433.162 97.8559L433.048 98.0203L433.049 98.0206L433.162 97.8559ZM433.439 98.1873L433.622 98.1058L433.622 98.1058L433.439 98.1873ZM433.498 98.6095L433.3 98.5812L433.3 98.5813L433.498 98.6095ZM433.321 99.0045L433.168 98.876L433.168 98.876L433.321 99.0045ZM432.958 99.254L432.893 99.0651L432.892 99.0653L432.958 99.254ZM430.659 101.115V101.315H430.824L430.855 101.152L430.659 101.115ZM430.102 101.115L429.904 101.087L429.871 101.315H430.102V101.115ZM432.769 98.7541L432.706 98.5644L432.703 98.5654L432.769 98.7541ZM432.952 98.5369L432.755 98.5053L432.754 98.5104L432.952 98.5369ZM432.842 98.2877L432.728 98.4521L432.73 98.4534L432.842 98.2877ZM432.006 95.8391H432.206V95.839L432.006 95.8391ZM432.18 95.0097L432.363 95.0898V95.0898L432.18 95.0097ZM432.675 94.3114L432.538 94.1655L432.538 94.1655L432.675 94.3114ZM433.412 93.8547L433.482 94.042L433.412 93.8547ZM434.275 93.7119L434.286 93.5122L434.281 93.512L434.275 93.7119ZM435.8 94.4009L435.656 94.5399L435.8 94.4009ZM436.409 95.917L436.209 95.9147V95.917H436.409ZM435.572 98.2877L435.684 98.4533L435.686 98.4522L435.572 98.2877ZM435.48 98.3971L435.297 98.3163L435.297 98.3163L435.48 98.3971ZM435.462 98.5369L435.66 98.5104L435.659 98.5054L435.462 98.5369ZM435.708 98.5644C435.694 98.5597 435.682 98.5516 435.674 98.5418L435.368 98.7995C435.425 98.8665 435.499 98.9162 435.581 98.9438L435.708 98.5644ZM438.512 101.087C438.408 100.35 437.967 99.8112 437.431 99.4152C436.897 99.0208 436.254 98.7563 435.711 98.5654L435.578 98.9428C436.111 99.13 436.708 99.3788 437.193 99.7369C437.675 100.093 438.031 100.546 438.116 101.143L438.512 101.087ZM437.757 101.315H438.314V100.915H437.757V101.315ZM435.391 99.4424C436.811 99.9419 437.436 100.492 437.56 101.152L437.953 101.078C437.785 100.185 436.957 99.5692 435.524 99.0651L435.391 99.4424ZM434.941 99.1326C435.06 99.2744 435.216 99.3813 435.392 99.4426L435.524 99.0649C435.415 99.0269 435.32 98.9612 435.248 98.8758L434.941 99.1326ZM434.72 98.6373C434.746 98.8196 434.823 98.9908 434.941 99.1326L435.248 98.8758C435.177 98.7904 435.131 98.6884 435.116 98.581L434.72 98.6373ZM434.794 98.1059C434.72 98.2729 434.694 98.4569 434.72 98.6376L435.116 98.5808C435.101 98.4751 435.116 98.3672 435.16 98.2686L434.794 98.1059ZM435.14 97.6911C434.988 97.7957 434.868 97.9389 434.794 98.1059L435.16 98.2686C435.203 98.1699 435.275 98.0838 435.367 98.0202L435.14 97.6911ZM435.659 96.6368C435.659 96.6691 435.647 96.7406 435.615 96.8458C435.585 96.9461 435.54 97.0625 435.487 97.1786C435.434 97.2949 435.373 97.4071 435.309 97.5003C435.244 97.5962 435.185 97.6595 435.139 97.6912L435.367 98.0201C435.472 97.9475 435.564 97.8377 435.64 97.7248C435.719 97.6092 435.79 97.4767 435.851 97.3457C435.911 97.2145 435.962 97.081 435.998 96.9618C436.032 96.8475 436.059 96.7299 436.059 96.6368H435.659ZM435.659 95.917V96.6368H436.059V95.917H435.659ZM435.261 94.9086C435.524 95.1829 435.665 95.5429 435.659 95.9135L436.059 95.9205C436.067 95.4426 435.884 94.9813 435.55 94.6322L435.261 94.9086ZM434.247 94.4434C434.636 94.4668 434.999 94.6341 435.261 94.9086L435.55 94.6322C435.217 94.2833 434.758 94.0734 434.271 94.0441L434.247 94.4434ZM433.681 94.538C433.863 94.4699 434.058 94.4378 434.253 94.4436L434.265 94.0438C434.018 94.0364 433.772 94.077 433.541 94.1634L433.681 94.538ZM433.195 94.8391C433.334 94.7085 433.5 94.606 433.681 94.538L433.541 94.1634C433.311 94.2497 433.1 94.3801 432.921 94.5472L433.195 94.8391ZM432.87 95.2971C432.945 95.1254 433.056 94.9696 433.195 94.8391L432.921 94.5472C432.743 94.7143 432.601 94.9147 432.504 95.1368L432.87 95.2971ZM432.757 95.839C432.757 95.6531 432.795 95.4688 432.87 95.2971L432.504 95.1368C432.407 95.3588 432.357 95.5977 432.357 95.8392L432.757 95.839ZM432.757 96.6368V95.8391H432.357V96.6368H432.757ZM433.276 97.6916C433.23 97.6598 433.171 97.5964 433.106 97.5004C433.043 97.4072 432.982 97.295 432.928 97.1787C432.875 97.0625 432.831 96.9461 432.8 96.8458C432.769 96.7406 432.757 96.6691 432.757 96.6368H432.357C432.357 96.7299 432.383 96.8475 432.418 96.9618C432.454 97.081 432.504 97.2145 432.565 97.3457C432.625 97.4767 432.696 97.6092 432.775 97.7249C432.852 97.8379 432.943 97.9477 433.048 98.0203L433.276 97.6916ZM433.622 98.1058C433.547 97.9388 433.427 97.7957 433.276 97.6912L433.049 98.0206C433.141 98.0841 433.212 98.1702 433.256 98.2688L433.622 98.1058ZM433.696 98.6377C433.722 98.4569 433.696 98.2729 433.622 98.1058L433.256 98.2688C433.3 98.3674 433.315 98.4754 433.3 98.5812L433.696 98.6377ZM433.475 99.1329C433.593 98.9911 433.67 98.8199 433.696 98.6376L433.3 98.5813C433.285 98.6887 433.24 98.7906 433.168 98.876L433.475 99.1329ZM433.024 99.4428C433.2 99.3815 433.356 99.2746 433.475 99.1329L433.168 98.876C433.096 98.9615 433.001 99.0272 432.893 99.0651L433.024 99.4428ZM430.855 101.152C430.98 100.492 431.603 99.9419 433.025 99.4427L432.892 99.0653C431.457 99.5692 430.63 100.185 430.462 101.078L430.855 101.152ZM430.102 101.315H430.659V100.915H430.102V101.315ZM432.703 98.5654C432.161 98.7563 431.518 99.0208 430.984 99.4152C430.449 99.8112 430.008 100.35 429.904 101.087L430.3 101.143C430.384 100.546 430.74 100.093 431.222 99.7369C431.707 99.3788 432.304 99.13 432.836 98.9428L432.703 98.5654ZM432.74 98.5418C432.732 98.5516 432.72 98.5597 432.706 98.5644L432.833 98.9438C432.915 98.9162 432.989 98.8665 433.046 98.7995L432.74 98.5418ZM432.754 98.5104C432.753 98.5212 432.748 98.5321 432.74 98.5418L433.046 98.7995C433.102 98.7324 433.139 98.6507 433.151 98.5634L432.754 98.5104ZM432.751 98.4779C432.755 98.4868 432.756 98.4962 432.755 98.5053L433.15 98.5684C433.164 98.4829 433.152 98.3954 433.117 98.3163L432.751 98.4779ZM432.73 98.4534C432.74 98.4602 432.747 98.4689 432.751 98.4779L433.117 98.3163C433.082 98.2372 433.026 98.1702 432.954 98.122L432.73 98.4534ZM431.806 96.6368C431.806 96.8869 431.916 97.2526 432.074 97.5848C432.231 97.9168 432.458 98.2647 432.728 98.4521L432.956 98.1234C432.773 97.9962 432.583 97.7252 432.435 97.4137C432.288 97.1023 432.206 96.7999 432.206 96.6368H431.806ZM431.806 95.8391V96.6368H432.206V95.8391H431.806ZM431.997 94.9295C431.871 95.2171 431.806 95.5265 431.806 95.8392L432.206 95.839C432.206 95.5819 432.26 95.3271 432.363 95.0898L431.997 94.9295ZM432.538 94.1655C432.307 94.3822 432.123 94.6419 431.997 94.9295L432.363 95.0898C432.467 94.8526 432.62 94.6374 432.812 94.4573L432.538 94.1655ZM433.342 93.6674C433.043 93.7795 432.769 93.9488 432.538 94.1655L432.812 94.4573C433.004 94.2772 433.232 94.1358 433.482 94.042L433.342 93.6674ZM434.281 93.512C433.961 93.5025 433.641 93.5553 433.342 93.6674L433.482 94.042C433.733 93.9482 434.001 93.9039 434.269 93.9119L434.281 93.512ZM435.944 94.2618C435.51 93.8141 434.917 93.5463 434.286 93.5122L434.265 93.9117C434.796 93.9404 435.294 94.1662 435.656 94.5399L435.944 94.2618ZM436.609 95.9193C436.616 95.3034 436.377 94.7097 435.944 94.2618L435.656 94.5399C436.018 94.9135 436.215 95.406 436.209 95.9147L436.609 95.9193ZM436.609 96.6368V95.917H436.209V96.6368H436.609ZM435.686 98.4522C435.956 98.2648 436.184 97.9169 436.342 97.5849C436.499 97.2527 436.609 96.8869 436.609 96.6368H436.209C436.209 96.7999 436.128 97.1023 435.98 97.4136C435.833 97.7251 435.642 97.9961 435.458 98.1233L435.686 98.4522ZM435.663 98.4779C435.667 98.4689 435.674 98.4601 435.684 98.4533L435.46 98.1221C435.389 98.1702 435.332 98.2373 435.297 98.3163L435.663 98.4779ZM435.659 98.5054C435.658 98.4963 435.659 98.4869 435.663 98.4779L435.297 98.3163C435.262 98.3954 435.251 98.4828 435.264 98.5683L435.659 98.5054ZM435.674 98.5418C435.666 98.5321 435.661 98.5212 435.66 98.5104L435.264 98.5634C435.275 98.6507 435.312 98.7324 435.368 98.7995L435.674 98.5418Z" fill="#21366E" mask="url(#path-4-outside-1_3450_10725)"/>
<path d="M430.375 101.18C433.16 102.877 434.9 102.877 438.033 101.18" stroke="#21366E" stroke-linecap="round"/>
<path fill-rule="evenodd" clip-rule="evenodd" d="M439.605 99.6505C439.22 99.6505 438.991 99.1947 439.166 98.8512C439.502 98.1936 439.69 97.456 439.69 96.681C439.69 93.9854 437.419 91.7422 434.544 91.7422C431.67 91.7422 429.398 93.9854 429.398 96.681C429.398 97.456 429.586 98.1936 429.922 98.8512C430.097 99.1947 429.869 99.6505 429.483 99.6505C429.32 99.6505 429.168 99.5658 429.091 99.4227C428.649 98.6025 428.398 97.67 428.398 96.681C428.398 93.4011 431.15 90.7422 434.544 90.7422C437.938 90.7422 440.69 93.4011 440.69 96.681C440.69 97.67 440.44 98.6025 439.997 99.4227C439.92 99.5658 439.768 99.6505 439.605 99.6505Z" fill="#21366E"/>
<mask id="path-8-outside-2_3450_10725" maskUnits="userSpaceOnUse" x="440.012" y="103.104" width="10" height="9" fill="black">
<rect fill="white" x="440.012" y="103.104" width="10" height="9"/>
<path fill-rule="evenodd" clip-rule="evenodd" d="M446.431 109.063C446.464 109.102 446.507 109.131 446.555 109.147C447.63 109.525 449.035 110.173 449.224 111.508H448.667C448.521 110.731 447.794 110.148 446.368 109.646C446.226 109.597 446.1 109.51 446.005 109.397C445.91 109.283 445.849 109.147 445.828 109.002C445.807 108.859 445.828 108.713 445.887 108.58C445.946 108.447 446.042 108.332 446.163 108.248C446.464 108.04 446.769 107.28 446.769 107.029V106.31C446.776 105.885 446.614 105.475 446.316 105.163C446.018 104.851 445.607 104.663 445.169 104.636C444.948 104.63 444.728 104.666 444.521 104.743C444.315 104.82 444.127 104.937 443.968 105.086C443.81 105.235 443.683 105.413 443.597 105.61C443.511 105.806 443.467 106.018 443.467 106.232V107.029C443.467 107.28 443.771 108.04 444.072 108.248C444.194 108.332 444.29 108.447 444.349 108.58C444.408 108.713 444.429 108.859 444.408 109.002C444.388 109.147 444.327 109.283 444.232 109.397C444.136 109.511 444.011 109.597 443.869 109.647C442.44 110.148 441.715 110.731 441.569 111.508H441.012C441.2 110.173 442.605 109.525 443.68 109.147C443.728 109.131 443.771 109.102 443.803 109.063C443.835 109.025 443.856 108.979 443.863 108.929C443.87 108.882 443.864 108.834 443.844 108.79C443.825 108.746 443.793 108.708 443.752 108.68C443.299 108.366 442.917 107.443 442.917 107.029V106.232C442.916 105.947 442.976 105.665 443.09 105.402C443.205 105.14 443.373 104.902 443.585 104.704C443.797 104.506 444.047 104.35 444.322 104.247C444.597 104.144 444.891 104.096 445.185 104.105C445.767 104.136 446.313 104.383 446.71 104.793C447.107 105.204 447.326 105.747 447.319 106.31V107.029C447.319 107.443 446.937 108.366 446.482 108.68C446.441 108.708 446.41 108.746 446.39 108.79C446.371 108.834 446.364 108.882 446.372 108.929C446.379 108.979 446.399 109.025 446.431 109.063Z"/>
</mask>
<path fill-rule="evenodd" clip-rule="evenodd" d="M446.431 109.063C446.464 109.102 446.507 109.131 446.555 109.147C447.63 109.525 449.035 110.173 449.224 111.508H448.667C448.521 110.731 447.794 110.148 446.368 109.646C446.226 109.597 446.1 109.51 446.005 109.397C445.91 109.283 445.849 109.147 445.828 109.002C445.807 108.859 445.828 108.713 445.887 108.58C445.946 108.447 446.042 108.332 446.163 108.248C446.464 108.04 446.769 107.28 446.769 107.029V106.31C446.776 105.885 446.614 105.475 446.316 105.163C446.018 104.851 445.607 104.663 445.169 104.636C444.948 104.63 444.728 104.666 444.521 104.743C444.315 104.82 444.127 104.937 443.968 105.086C443.81 105.235 443.683 105.413 443.597 105.61C443.511 105.806 443.467 106.018 443.467 106.232V107.029C443.467 107.28 443.771 108.04 444.072 108.248C444.194 108.332 444.29 108.447 444.349 108.58C444.408 108.713 444.429 108.859 444.408 109.002C444.388 109.147 444.327 109.283 444.232 109.397C444.136 109.511 444.011 109.597 443.869 109.647C442.44 110.148 441.715 110.731 441.569 111.508H441.012C441.2 110.173 442.605 109.525 443.68 109.147C443.728 109.131 443.771 109.102 443.803 109.063C443.835 109.025 443.856 108.979 443.863 108.929C443.87 108.882 443.864 108.834 443.844 108.79C443.825 108.746 443.793 108.708 443.752 108.68C443.299 108.366 442.917 107.443 442.917 107.029V106.232C442.916 105.947 442.976 105.665 443.09 105.402C443.205 105.14 443.373 104.902 443.585 104.704C443.797 104.506 444.047 104.35 444.322 104.247C444.597 104.144 444.891 104.096 445.185 104.105C445.767 104.136 446.313 104.383 446.71 104.793C447.107 105.204 447.326 105.747 447.319 106.31V107.029C447.319 107.443 446.937 108.366 446.482 108.68C446.441 108.708 446.41 108.746 446.39 108.79C446.371 108.834 446.364 108.882 446.372 108.929C446.379 108.979 446.399 109.025 446.431 109.063Z" fill="#21366E"/>
<path d="M446.555 109.147L446.621 108.958L446.618 108.957L446.555 109.147ZM446.431 109.063L446.278 109.192L446.278 109.192L446.431 109.063ZM449.224 111.508V111.708H449.454L449.422 111.48L449.224 111.508ZM448.667 111.508L448.47 111.545L448.501 111.708H448.667V111.508ZM446.368 109.646L446.434 109.458L446.434 109.457L446.368 109.646ZM446.005 109.397L445.852 109.525L445.852 109.525L446.005 109.397ZM445.828 109.002L446.026 108.974L446.026 108.973L445.828 109.002ZM446.163 108.248L446.277 108.413L446.277 108.413L446.163 108.248ZM446.769 106.31L446.569 106.306V106.31H446.769ZM446.316 105.163L446.171 105.301V105.301L446.316 105.163ZM445.169 104.636L445.181 104.437L445.175 104.436L445.169 104.636ZM444.521 104.743L444.451 104.556V104.556L444.521 104.743ZM443.968 105.086L444.105 105.232L444.105 105.232L443.968 105.086ZM443.597 105.61L443.414 105.529L443.597 105.61ZM443.467 106.232H443.667L443.667 106.232L443.467 106.232ZM444.072 108.248L443.958 108.413L443.959 108.413L444.072 108.248ZM444.349 108.58L444.532 108.498L444.532 108.498L444.349 108.58ZM444.408 109.002L444.21 108.974L444.21 108.974L444.408 109.002ZM444.232 109.397L444.078 109.269L444.078 109.269L444.232 109.397ZM443.869 109.647L443.803 109.458L443.802 109.458L443.869 109.647ZM441.569 111.508V111.708H441.735L441.765 111.545L441.569 111.508ZM441.012 111.508L440.814 111.48L440.781 111.708H441.012V111.508ZM443.68 109.147L443.616 108.957L443.613 108.958L443.68 109.147ZM443.863 108.929L443.665 108.898L443.664 108.903L443.863 108.929ZM443.752 108.68L443.638 108.845L443.64 108.846L443.752 108.68ZM442.917 106.232H443.117V106.232L442.917 106.232ZM443.09 105.402L443.274 105.482V105.482L443.09 105.402ZM443.585 104.704L443.448 104.558L443.448 104.558L443.585 104.704ZM444.322 104.247L444.392 104.435L444.322 104.247ZM445.185 104.105L445.196 103.905L445.191 103.905L445.185 104.105ZM446.71 104.793L446.566 104.933L446.71 104.793ZM447.319 106.31L447.119 106.307V106.31H447.319ZM446.482 108.68L446.594 108.846L446.596 108.845L446.482 108.68ZM446.39 108.79L446.207 108.709L446.207 108.709L446.39 108.79ZM446.372 108.929L446.57 108.903L446.569 108.898L446.372 108.929ZM446.618 108.957C446.604 108.952 446.593 108.944 446.584 108.934L446.278 109.192C446.335 109.259 446.409 109.309 446.492 109.336L446.618 108.957ZM449.422 111.48C449.318 110.742 448.877 110.204 448.341 109.808C447.807 109.413 447.164 109.149 446.621 108.958L446.489 109.335C447.021 109.523 447.618 109.771 448.103 110.129C448.586 110.486 448.942 110.939 449.026 111.536L449.422 111.48ZM448.667 111.708H449.224V111.308H448.667V111.708ZM446.301 109.835C447.721 110.334 448.346 110.884 448.47 111.545L448.863 111.471C448.695 110.578 447.867 109.962 446.434 109.458L446.301 109.835ZM445.852 109.525C445.97 109.667 446.126 109.774 446.302 109.835L446.434 109.457C446.325 109.42 446.23 109.354 446.158 109.268L445.852 109.525ZM445.63 109.03C445.656 109.212 445.733 109.383 445.852 109.525L446.158 109.268C446.087 109.183 446.041 109.081 446.026 108.974L445.63 109.03ZM445.704 108.498C445.63 108.666 445.604 108.849 445.63 109.03L446.026 108.973C446.011 108.868 446.026 108.76 446.07 108.661L445.704 108.498ZM446.05 108.084C445.898 108.188 445.779 108.331 445.704 108.498L446.07 108.661C446.114 108.562 446.185 108.476 446.277 108.413L446.05 108.084ZM446.569 107.029C446.569 107.062 446.557 107.133 446.525 107.238C446.495 107.339 446.451 107.455 446.397 107.571C446.344 107.687 446.283 107.8 446.219 107.893C446.154 107.989 446.095 108.052 446.05 108.084L446.277 108.413C446.382 108.34 446.474 108.23 446.55 108.117C446.629 108.002 446.7 107.869 446.761 107.738C446.821 107.607 446.872 107.474 446.908 107.354C446.943 107.24 446.969 107.123 446.969 107.029H446.569ZM446.569 106.31V107.029H446.969V106.31H446.569ZM446.171 105.301C446.434 105.575 446.575 105.935 446.569 106.306L446.969 106.313C446.977 105.835 446.794 105.374 446.461 105.025L446.171 105.301ZM445.157 104.836C445.546 104.859 445.909 105.027 446.171 105.301L446.461 105.025C446.127 104.676 445.669 104.466 445.181 104.437L445.157 104.836ZM444.592 104.931C444.773 104.863 444.968 104.83 445.163 104.836L445.175 104.436C444.928 104.429 444.682 104.47 444.451 104.556L444.592 104.931ZM444.105 105.232C444.244 105.101 444.41 104.999 444.592 104.931L444.451 104.556C444.221 104.642 444.01 104.773 443.832 104.94L444.105 105.232ZM443.78 105.69C443.856 105.518 443.966 105.362 444.105 105.232L443.832 104.94C443.653 105.107 443.511 105.307 443.414 105.529L443.78 105.69ZM443.667 106.232C443.667 106.046 443.705 105.861 443.78 105.69L443.414 105.529C443.317 105.751 443.267 105.99 443.267 106.232L443.667 106.232ZM443.667 107.029V106.232H443.267V107.029H443.667ZM444.186 108.084C444.14 108.052 444.081 107.989 444.016 107.893C443.953 107.8 443.892 107.688 443.838 107.571C443.785 107.455 443.741 107.339 443.711 107.238C443.679 107.133 443.667 107.062 443.667 107.029H443.267C443.267 107.123 443.293 107.24 443.328 107.354C443.364 107.474 443.415 107.607 443.475 107.738C443.535 107.869 443.607 108.002 443.685 108.118C443.762 108.23 443.854 108.34 443.958 108.413L444.186 108.084ZM444.532 108.498C444.457 108.331 444.337 108.188 444.186 108.084L443.959 108.413C444.051 108.477 444.122 108.563 444.167 108.661L444.532 108.498ZM444.606 109.03C444.632 108.85 444.606 108.665 444.532 108.498L444.167 108.661C444.21 108.76 444.226 108.868 444.21 108.974L444.606 109.03ZM444.385 109.525C444.504 109.384 444.581 109.212 444.606 109.03L444.21 108.974C444.195 109.081 444.15 109.183 444.078 109.269L444.385 109.525ZM443.934 109.835C444.11 109.774 444.266 109.667 444.385 109.525L444.078 109.269C444.007 109.354 443.912 109.42 443.803 109.458L443.934 109.835ZM441.765 111.545C441.89 110.884 442.513 110.334 443.935 109.835L443.802 109.458C442.367 109.962 441.54 110.578 441.372 111.471L441.765 111.545ZM441.012 111.708H441.569V111.308H441.012V111.708ZM443.613 108.958C443.071 109.149 442.428 109.413 441.895 109.808C441.359 110.204 440.918 110.742 440.814 111.48L441.21 111.536C441.294 110.939 441.65 110.486 442.132 110.129C442.617 109.771 443.214 109.523 443.746 109.335L443.613 108.958ZM443.65 108.934C443.642 108.944 443.63 108.952 443.616 108.957L443.743 109.336C443.826 109.309 443.9 109.259 443.956 109.192L443.65 108.934ZM443.664 108.903C443.663 108.914 443.658 108.925 443.65 108.934L443.956 109.192C444.013 109.125 444.049 109.043 444.061 108.956L443.664 108.903ZM443.661 108.87C443.665 108.879 443.667 108.889 443.665 108.898L444.06 108.961C444.074 108.875 444.062 108.788 444.027 108.709L443.661 108.87ZM443.64 108.846C443.65 108.853 443.657 108.861 443.661 108.87L444.027 108.709C443.992 108.63 443.936 108.563 443.865 108.515L443.64 108.846ZM442.717 107.029C442.717 107.279 442.826 107.645 442.984 107.977C443.141 108.309 443.368 108.657 443.638 108.845L443.866 108.516C443.683 108.389 443.493 108.118 443.345 107.806C443.198 107.495 443.117 107.192 443.117 107.029H442.717ZM442.717 106.232V107.029H443.117V106.232H442.717ZM442.907 105.322C442.781 105.61 442.716 105.919 442.717 106.232L443.117 106.232C443.116 105.974 443.17 105.72 443.274 105.482L442.907 105.322ZM443.448 104.558C443.217 104.775 443.033 105.034 442.907 105.322L443.274 105.482C443.377 105.245 443.53 105.03 443.722 104.85L443.448 104.558ZM444.252 104.06C443.953 104.172 443.679 104.341 443.448 104.558L443.722 104.85C443.914 104.67 444.142 104.528 444.392 104.435L444.252 104.06ZM445.191 103.905C444.871 103.895 444.552 103.948 444.252 104.06L444.392 104.435C444.643 104.341 444.911 104.296 445.18 104.304L445.191 103.905ZM446.854 104.654C446.421 104.207 445.827 103.939 445.196 103.905L445.175 104.304C445.706 104.333 446.205 104.559 446.566 104.933L446.854 104.654ZM447.519 106.312C447.526 105.696 447.287 105.102 446.854 104.654L446.566 104.933C446.928 105.306 447.125 105.799 447.119 106.307L447.519 106.312ZM447.519 107.029V106.31H447.119V107.029H447.519ZM446.596 108.845C446.867 108.657 447.094 108.31 447.252 107.977C447.409 107.645 447.519 107.279 447.519 107.029H447.119C447.119 107.192 447.038 107.495 446.89 107.806C446.743 108.118 446.552 108.389 446.368 108.516L446.596 108.845ZM446.573 108.871C446.577 108.861 446.584 108.853 446.594 108.846L446.37 108.515C446.299 108.563 446.242 108.63 446.207 108.709L446.573 108.871ZM446.569 108.898C446.568 108.889 446.569 108.879 446.573 108.871L446.207 108.709C446.172 108.788 446.161 108.875 446.174 108.961L446.569 108.898ZM446.584 108.934C446.576 108.925 446.572 108.914 446.57 108.903L446.174 108.956C446.185 109.043 446.222 109.125 446.278 109.192L446.584 108.934Z" fill="#21366E" mask="url(#path-8-outside-2_3450_10725)"/>
<path d="M441.289 111.572C444.074 113.27 445.814 113.27 448.947 111.572" stroke="#21366E" stroke-linecap="round"/>
<path fill-rule="evenodd" clip-rule="evenodd" d="M450.52 110.043C450.134 110.043 449.905 109.587 450.08 109.244C450.416 108.586 450.604 107.849 450.604 107.074C450.604 104.378 448.333 102.135 445.458 102.135C442.584 102.135 440.312 104.378 440.312 107.074C440.312 107.849 440.5 108.586 440.836 109.244C441.011 109.587 440.783 110.043 440.397 110.043C440.234 110.043 440.082 109.958 440.005 109.815C439.563 108.995 439.312 108.063 439.312 107.074C439.312 103.794 442.064 101.135 445.458 101.135C448.852 101.135 451.604 103.794 451.604 107.074C451.604 108.063 451.354 108.995 450.911 109.815C450.834 109.958 450.682 110.043 450.52 110.043Z" fill="#21366E"/>
<path d="M432.719 106.717L432.719 106.717L431.795 103.797C431.795 103.797 431.795 103.797 431.795 103.797C431.719 103.558 431.859 103.308 432.102 103.236L432.102 103.236C432.347 103.163 432.609 103.296 432.685 103.536L432.685 103.536L433.609 106.455C433.675 106.661 433.58 106.876 433.397 106.977L432.719 106.717ZM432.719 106.717C432.795 106.957 433.057 107.089 433.301 107.017L432.719 106.717Z" fill="#3FAFE9" stroke="#3FAFE9" stroke-width="0.2"/>
<path d="M430.159 106.128L430.159 106.128C430.189 106.111 430.217 106.091 430.243 106.068L432.556 103.999C432.556 103.999 432.556 103.999 432.556 103.999C432.743 103.831 432.756 103.545 432.58 103.361L432.58 103.361C432.404 103.178 432.11 103.168 431.922 103.336L431.922 103.336L429.61 105.405C429.61 105.405 429.61 105.405 429.61 105.405C429.422 105.573 429.409 105.858 429.586 106.042L429.586 106.042C429.737 106.2 429.976 106.229 430.159 106.128Z" fill="#3FAFE9" stroke="#3FAFE9" stroke-width="0.2"/>
<path d="M431.077 106.094L431.077 106.094C430.728 107.366 430.909 108.695 431.588 109.837C432.997 112.208 436.132 113.03 438.577 111.674C438.798 111.551 438.877 111.276 438.747 111.059C438.618 110.841 438.333 110.769 438.112 110.891C436.11 112.002 433.546 111.327 432.394 109.39C431.839 108.456 431.691 107.369 431.976 106.329C431.976 106.329 431.976 106.329 431.976 106.329L432.651 103.905L432.651 103.905C432.718 103.664 432.57 103.416 432.321 103.351C432.073 103.286 431.818 103.428 431.752 103.667L431.752 103.667L431.077 106.094Z" fill="#3FAFE9" stroke="#3FAFE9" stroke-width="0.2"/>
<path d="M446.706 97.0773L446.706 97.0773L446.133 96.9333L446.092 96.8429C446.092 96.8429 446.092 96.8429 446.092 96.8429C446.06 96.8566 446.029 96.8736 446.002 96.8932C445.831 97.0143 445.763 97.2379 445.851 97.435L447.111 100.235L447.111 100.235C447.214 100.464 447.489 100.568 447.724 100.469L447.724 100.469C447.959 100.371 448.068 100.106 447.965 99.8773C447.965 99.8773 447.965 99.8773 447.965 99.8773L446.706 97.0773Z" fill="#3FAFE9" stroke="#3FAFE9" stroke-width="0.2"/>
<path d="M449.316 97.3842L449.316 97.3842C449.486 97.2632 449.727 97.2662 449.896 97.4064L449.896 97.4064C450.092 97.5695 450.113 97.8542 449.946 98.0419C449.946 98.0419 449.946 98.042 449.946 98.042L447.889 100.35L447.889 100.35C447.722 100.537 447.428 100.559 447.233 100.396L447.233 100.396C447.037 100.233 447.016 99.9485 447.183 99.7608L449.316 97.3842ZM449.316 97.3842C449.288 97.4043 449.262 97.4274 449.239 97.4531C449.239 97.4531 449.239 97.4531 449.239 97.4531L447.183 99.7608L449.316 97.3842Z" fill="#3FAFE9" stroke="#3FAFE9" stroke-width="0.2"/>
<path d="M448.402 97.5172L448.402 97.5169C448.6 96.2152 448.265 94.9138 447.458 93.8535C445.781 91.6518 442.57 91.176 440.299 92.7907C440.093 92.9374 440.047 93.219 440.2 93.4203C440.354 93.6216 440.645 93.6635 440.852 93.5169C442.71 92.1954 445.337 92.5865 446.708 94.3866C447.368 95.254 447.643 96.3179 447.48 97.3823C447.48 97.3824 447.48 97.3824 447.48 97.3825L447.093 99.8651L447.093 99.8651C447.054 100.111 447.23 100.341 447.485 100.379C447.739 100.416 447.976 100.247 448.014 100.001L448.014 100.001L448.402 97.5172Z" fill="#3FAFE9" stroke="#3FAFE9" stroke-width="0.2"/>
<path d="M419.267 126.047H420.545L423.806 134.161L427.06 126.047H428.345L424.298 136H423.3L419.267 126.047ZM418.85 126.047H419.978L420.162 132.117V136H418.85V126.047ZM427.627 126.047H428.755V136H427.442V132.117L427.627 126.047ZM430.546 132.384V132.227C430.546 131.693 430.623 131.199 430.778 130.743C430.933 130.283 431.157 129.884 431.448 129.547C431.74 129.205 432.093 128.941 432.508 128.754C432.923 128.562 433.387 128.467 433.902 128.467C434.422 128.467 434.889 128.562 435.304 128.754C435.723 128.941 436.078 129.205 436.37 129.547C436.666 129.884 436.892 130.283 437.047 130.743C437.202 131.199 437.279 131.693 437.279 132.227V132.384C437.279 132.917 437.202 133.411 437.047 133.867C436.892 134.323 436.666 134.722 436.37 135.063C436.078 135.401 435.725 135.665 435.311 135.856C434.9 136.043 434.436 136.137 433.916 136.137C433.396 136.137 432.929 136.043 432.515 135.856C432.1 135.665 431.744 135.401 431.448 135.063C431.157 134.722 430.933 134.323 430.778 133.867C430.623 133.411 430.546 132.917 430.546 132.384ZM431.811 132.227V132.384C431.811 132.753 431.854 133.102 431.94 133.43C432.027 133.753 432.157 134.04 432.33 134.291C432.508 134.542 432.729 134.74 432.993 134.886C433.257 135.027 433.565 135.098 433.916 135.098C434.262 135.098 434.565 135.027 434.825 134.886C435.09 134.74 435.308 134.542 435.481 134.291C435.655 134.04 435.785 133.753 435.871 133.43C435.962 133.102 436.008 132.753 436.008 132.384V132.227C436.008 131.862 435.962 131.518 435.871 131.194C435.785 130.866 435.652 130.577 435.475 130.326C435.301 130.071 435.083 129.87 434.818 129.725C434.559 129.579 434.253 129.506 433.902 129.506C433.556 129.506 433.251 129.579 432.986 129.725C432.727 129.87 432.508 130.071 432.33 130.326C432.157 130.577 432.027 130.866 431.94 131.194C431.854 131.518 431.811 131.862 431.811 132.227ZM440.13 130.183V136H438.865V128.604H440.062L440.13 130.183ZM439.829 132.021L439.303 132.001C439.307 131.495 439.382 131.028 439.528 130.6C439.674 130.167 439.879 129.791 440.144 129.472C440.408 129.153 440.722 128.907 441.087 128.733C441.456 128.556 441.864 128.467 442.311 128.467C442.675 128.467 443.003 128.517 443.295 128.617C443.587 128.713 443.835 128.868 444.04 129.082C444.25 129.296 444.409 129.574 444.519 129.916C444.628 130.253 444.683 130.666 444.683 131.153V136H443.411V131.14C443.411 130.752 443.354 130.442 443.24 130.21C443.126 129.973 442.96 129.802 442.741 129.697C442.522 129.588 442.254 129.533 441.935 129.533C441.62 129.533 441.333 129.599 441.073 129.731C440.818 129.864 440.597 130.046 440.41 130.278C440.228 130.511 440.084 130.777 439.979 131.078C439.879 131.374 439.829 131.689 439.829 132.021ZM449.7 128.604V129.574H445.701V128.604H449.7ZM447.055 126.806H448.319V134.168C448.319 134.419 448.358 134.608 448.436 134.735C448.513 134.863 448.613 134.947 448.736 134.988C448.859 135.029 448.992 135.05 449.133 135.05C449.238 135.05 449.347 135.041 449.461 135.022C449.579 135 449.668 134.981 449.728 134.968L449.734 136C449.634 136.032 449.502 136.062 449.338 136.089C449.178 136.121 448.985 136.137 448.757 136.137C448.447 136.137 448.162 136.075 447.902 135.952C447.643 135.829 447.435 135.624 447.28 135.337C447.13 135.045 447.055 134.653 447.055 134.161V126.806ZM452.448 129.766V136H451.184V128.604H452.414L452.448 129.766ZM454.759 128.562L454.752 129.738C454.647 129.715 454.547 129.702 454.451 129.697C454.36 129.688 454.255 129.684 454.137 129.684C453.845 129.684 453.588 129.729 453.364 129.82C453.141 129.911 452.952 130.039 452.797 130.203C452.642 130.367 452.519 130.563 452.428 130.791C452.341 131.014 452.284 131.26 452.257 131.529L451.901 131.734C451.901 131.288 451.945 130.868 452.031 130.477C452.122 130.085 452.261 129.738 452.448 129.438C452.635 129.132 452.872 128.895 453.159 128.727C453.451 128.553 453.797 128.467 454.198 128.467C454.289 128.467 454.394 128.478 454.513 128.501C454.631 128.519 454.713 128.54 454.759 128.562ZM460.016 134.735V130.928C460.016 130.636 459.956 130.383 459.838 130.169C459.724 129.95 459.551 129.782 459.318 129.663C459.086 129.545 458.799 129.485 458.457 129.485C458.138 129.485 457.858 129.54 457.616 129.649C457.379 129.759 457.192 129.902 457.056 130.08C456.924 130.258 456.857 130.449 456.857 130.654H455.593C455.593 130.39 455.661 130.128 455.798 129.868C455.935 129.608 456.131 129.374 456.386 129.164C456.646 128.95 456.955 128.781 457.315 128.658C457.68 128.531 458.086 128.467 458.532 128.467C459.07 128.467 459.544 128.558 459.954 128.74C460.369 128.923 460.692 129.198 460.925 129.567C461.162 129.932 461.28 130.39 461.28 130.941V134.387C461.28 134.633 461.301 134.895 461.342 135.173C461.387 135.451 461.453 135.69 461.54 135.891V136H460.221C460.157 135.854 460.107 135.66 460.07 135.419C460.034 135.173 460.016 134.945 460.016 134.735ZM460.234 131.516L460.248 132.404H458.97C458.61 132.404 458.288 132.434 458.006 132.493C457.723 132.548 457.486 132.632 457.295 132.746C457.104 132.86 456.958 133.004 456.857 133.177C456.757 133.345 456.707 133.544 456.707 133.771C456.707 134.004 456.759 134.216 456.864 134.407C456.969 134.599 457.126 134.751 457.336 134.865C457.55 134.975 457.812 135.029 458.122 135.029C458.509 135.029 458.851 134.947 459.147 134.783C459.444 134.619 459.678 134.419 459.852 134.182C460.029 133.945 460.125 133.715 460.139 133.491L460.679 134.1C460.647 134.291 460.56 134.503 460.419 134.735C460.278 134.968 460.089 135.191 459.852 135.405C459.619 135.615 459.341 135.79 459.018 135.932C458.699 136.068 458.339 136.137 457.938 136.137C457.436 136.137 456.996 136.039 456.618 135.843C456.244 135.647 455.953 135.385 455.743 135.057C455.538 134.724 455.436 134.353 455.436 133.942C455.436 133.546 455.513 133.197 455.668 132.896C455.823 132.591 456.046 132.338 456.338 132.138C456.63 131.933 456.98 131.778 457.391 131.673C457.801 131.568 458.259 131.516 458.765 131.516H460.234ZM422.855 144.929L419.561 154H418.214L422.008 144.047H422.876L422.855 144.929ZM425.617 154L422.315 144.929L422.295 144.047H423.163L426.971 154H425.617ZM425.446 150.315V151.396H419.854V150.315H425.446ZM432.904 146.604H434.053V153.843C434.053 154.494 433.921 155.05 433.656 155.511C433.392 155.971 433.023 156.32 432.549 156.557C432.079 156.798 431.537 156.919 430.922 156.919C430.667 156.919 430.366 156.878 430.02 156.796C429.678 156.718 429.34 156.584 429.008 156.393C428.68 156.206 428.404 155.953 428.181 155.634L428.844 154.882C429.154 155.256 429.477 155.515 429.814 155.661C430.156 155.807 430.493 155.88 430.826 155.88C431.227 155.88 431.574 155.805 431.865 155.654C432.157 155.504 432.382 155.281 432.542 154.984C432.706 154.693 432.788 154.333 432.788 153.904V148.23L432.904 146.604ZM427.812 150.384V150.24C427.812 149.675 427.878 149.162 428.01 148.702C428.146 148.237 428.34 147.839 428.591 147.506C428.846 147.173 429.154 146.918 429.514 146.74C429.874 146.558 430.279 146.467 430.73 146.467C431.195 146.467 431.601 146.549 431.947 146.713C432.298 146.872 432.594 147.107 432.836 147.417C433.082 147.722 433.276 148.091 433.417 148.524C433.558 148.957 433.656 149.447 433.711 149.994V150.623C433.661 151.165 433.563 151.653 433.417 152.086C433.276 152.519 433.082 152.888 432.836 153.193C432.594 153.499 432.298 153.733 431.947 153.897C431.596 154.057 431.186 154.137 430.717 154.137C430.275 154.137 429.874 154.043 429.514 153.856C429.158 153.67 428.853 153.408 428.598 153.07C428.342 152.733 428.146 152.337 428.01 151.881C427.878 151.421 427.812 150.922 427.812 150.384ZM429.076 150.24V150.384C429.076 150.753 429.113 151.099 429.186 151.423C429.263 151.746 429.379 152.031 429.534 152.277C429.694 152.523 429.896 152.717 430.143 152.858C430.389 152.995 430.683 153.063 431.024 153.063C431.444 153.063 431.79 152.975 432.063 152.797C432.337 152.619 432.553 152.384 432.713 152.093C432.877 151.801 433.005 151.484 433.096 151.143V149.495C433.046 149.244 432.968 149.003 432.863 148.771C432.763 148.534 432.631 148.324 432.467 148.142C432.307 147.955 432.109 147.807 431.872 147.697C431.635 147.588 431.357 147.533 431.038 147.533C430.692 147.533 430.393 147.606 430.143 147.752C429.896 147.893 429.694 148.089 429.534 148.34C429.379 148.586 429.263 148.873 429.186 149.201C429.113 149.525 429.076 149.871 429.076 150.24ZM439.043 154.137C438.528 154.137 438.061 154.05 437.642 153.877C437.227 153.699 436.869 153.451 436.568 153.132C436.272 152.813 436.044 152.435 435.885 151.997C435.725 151.56 435.646 151.081 435.646 150.562V150.274C435.646 149.673 435.734 149.137 435.912 148.668C436.09 148.194 436.331 147.793 436.637 147.465C436.942 147.137 437.288 146.888 437.676 146.72C438.063 146.551 438.464 146.467 438.879 146.467C439.408 146.467 439.863 146.558 440.246 146.74C440.633 146.923 440.95 147.178 441.196 147.506C441.442 147.829 441.625 148.212 441.743 148.654C441.862 149.092 441.921 149.57 441.921 150.09V150.657H436.397V149.625H440.656V149.529C440.638 149.201 440.57 148.882 440.451 148.572C440.337 148.262 440.155 148.007 439.904 147.807C439.654 147.606 439.312 147.506 438.879 147.506C438.592 147.506 438.327 147.567 438.086 147.69C437.844 147.809 437.637 147.987 437.464 148.224C437.291 148.461 437.156 148.75 437.061 149.092C436.965 149.434 436.917 149.828 436.917 150.274V150.562C436.917 150.912 436.965 151.243 437.061 151.553C437.161 151.858 437.304 152.127 437.491 152.359C437.683 152.592 437.913 152.774 438.182 152.906C438.455 153.038 438.765 153.104 439.111 153.104C439.558 153.104 439.936 153.013 440.246 152.831C440.556 152.649 440.827 152.405 441.06 152.1L441.825 152.708C441.666 152.95 441.463 153.18 441.217 153.398C440.971 153.617 440.668 153.795 440.308 153.932C439.952 154.068 439.531 154.137 439.043 154.137ZM444.662 148.183V154H443.397V146.604H444.594L444.662 148.183ZM444.361 150.021L443.835 150.001C443.84 149.495 443.915 149.028 444.061 148.6C444.206 148.167 444.411 147.791 444.676 147.472C444.94 147.153 445.255 146.907 445.619 146.733C445.988 146.556 446.396 146.467 446.843 146.467C447.207 146.467 447.535 146.517 447.827 146.617C448.119 146.713 448.367 146.868 448.572 147.082C448.782 147.296 448.941 147.574 449.051 147.916C449.16 148.253 449.215 148.666 449.215 149.153V154H447.943V149.14C447.943 148.752 447.886 148.442 447.772 148.21C447.659 147.973 447.492 147.802 447.273 147.697C447.055 147.588 446.786 147.533 446.467 147.533C446.152 147.533 445.865 147.599 445.605 147.731C445.35 147.864 445.129 148.046 444.942 148.278C444.76 148.511 444.617 148.777 444.512 149.078C444.411 149.374 444.361 149.689 444.361 150.021ZM454.232 146.604V147.574H450.233V146.604H454.232ZM451.587 144.806H452.852V152.168C452.852 152.419 452.89 152.608 452.968 152.735C453.045 152.863 453.146 152.947 453.269 152.988C453.392 153.029 453.524 153.05 453.665 153.05C453.77 153.05 453.879 153.041 453.993 153.022C454.112 153 454.201 152.981 454.26 152.968L454.267 154C454.166 154.032 454.034 154.062 453.87 154.089C453.711 154.121 453.517 154.137 453.289 154.137C452.979 154.137 452.694 154.075 452.435 153.952C452.175 153.829 451.967 153.624 451.812 153.337C451.662 153.045 451.587 152.653 451.587 152.161V144.806ZM460.022 152.038C460.022 151.856 459.981 151.687 459.899 151.532C459.822 151.373 459.66 151.229 459.414 151.102C459.173 150.969 458.808 150.855 458.32 150.76C457.91 150.673 457.539 150.571 457.206 150.452C456.878 150.334 456.598 150.19 456.365 150.021C456.137 149.853 455.962 149.655 455.839 149.427C455.716 149.199 455.654 148.932 455.654 148.627C455.654 148.335 455.718 148.06 455.846 147.8C455.978 147.54 456.162 147.31 456.399 147.109C456.641 146.909 456.93 146.752 457.268 146.638C457.605 146.524 457.981 146.467 458.396 146.467C458.988 146.467 459.494 146.572 459.913 146.781C460.332 146.991 460.654 147.271 460.877 147.622C461.1 147.968 461.212 148.354 461.212 148.777H459.947C459.947 148.572 459.886 148.374 459.763 148.183C459.644 147.987 459.469 147.825 459.236 147.697C459.008 147.57 458.728 147.506 458.396 147.506C458.045 147.506 457.76 147.561 457.541 147.67C457.327 147.775 457.17 147.909 457.069 148.073C456.974 148.237 456.926 148.41 456.926 148.593C456.926 148.729 456.949 148.853 456.994 148.962C457.044 149.067 457.131 149.165 457.254 149.256C457.377 149.342 457.55 149.424 457.773 149.502C457.997 149.579 458.282 149.657 458.628 149.734C459.234 149.871 459.733 150.035 460.125 150.227C460.517 150.418 460.809 150.653 461 150.931C461.191 151.209 461.287 151.546 461.287 151.942C461.287 152.266 461.219 152.562 461.082 152.831C460.95 153.1 460.756 153.332 460.501 153.528C460.25 153.72 459.95 153.87 459.599 153.979C459.252 154.084 458.863 154.137 458.43 154.137C457.778 154.137 457.227 154.021 456.775 153.788C456.324 153.556 455.982 153.255 455.75 152.886C455.518 152.517 455.401 152.127 455.401 151.717H456.673C456.691 152.063 456.791 152.339 456.974 152.544C457.156 152.744 457.379 152.888 457.644 152.975C457.908 153.057 458.17 153.098 458.43 153.098C458.776 153.098 459.065 153.052 459.298 152.961C459.535 152.87 459.715 152.744 459.838 152.585C459.961 152.425 460.022 152.243 460.022 152.038Z" fill="#0A2540"/>
<g filter="url(#filter1_d_3450_10725)">
<rect x="204" y="154" width="96" height="96" rx="8" fill="white"/>
</g>
<path fill-rule="evenodd" clip-rule="evenodd" d="M250.928 205.803H244.841C244.068 205.803 243.441 206.43 243.441 207.203V208.418C243.441 208.639 243.62 208.818 243.841 208.818C244.062 208.818 244.241 208.639 244.241 208.418V207.203C244.241 206.871 244.51 206.603 244.841 206.603H250.928V205.803Z" fill="#20336B"/>
<rect x="242.051" y="176.799" width="17.0519" height="32.2243" rx="1.5" stroke="#20336B"/>
<path d="M244.539 178.809H256.832" stroke="#20336B" stroke-width="0.6" stroke-linecap="round"/>
<rect x="244.488" y="181.229" width="11.9206" height="8.9389" rx="0.5" stroke="#20336B"/>
<rect x="243.797" y="193.713" width="3.92991" height="2.60094" rx="0.55" fill="white" stroke="#20336B" stroke-width="0.5"/>
<rect x="248.668" y="193.713" width="3.92991" height="2.60094" rx="0.55" fill="white" stroke="#20336B" stroke-width="0.5"/>
<rect x="253.652" y="193.713" width="3.92991" height="2.60094" rx="0.55" fill="white" stroke="#20336B" stroke-width="0.5"/>
<rect x="243.797" y="197.59" width="3.92991" height="2.60094" rx="0.55" fill="white" stroke="#20336B" stroke-width="0.5"/>
<rect x="248.668" y="197.59" width="3.92991" height="2.60094" rx="0.55" fill="white" stroke="#20336B" stroke-width="0.5"/>
<path d="M253.793 200.108V198.272C253.793 197.941 254.062 197.672 254.393 197.672H256.765C257.097 197.672 257.365 197.941 257.365 198.272V199.001" stroke="#20336B" stroke-width="0.5" stroke-linecap="round"/>
<rect x="243.797" y="201.467" width="3.92991" height="2.60094" rx="0.55" fill="white" stroke="#20336B" stroke-width="0.5"/>
<path d="M252.418 201.547H249.354C249.023 201.547 248.754 201.816 248.754 202.147V203.383C248.754 203.715 249.023 203.983 249.354 203.983L250.415 203.983" stroke="#20336B" stroke-width="0.5" stroke-linecap="round"/>
<rect x="253.652" y="201.467" width="3.92991" height="2.60094" rx="0.75" fill="white" stroke="#20336B" stroke-width="0.5"/>
<path d="M242.104 192.246V192.646H242.504V192.246H242.104ZM242.104 179.621H242.504V179.221H242.104V179.621ZM240.4 180.621C240.4 180.29 240.669 180.021 241 180.021V179.221C240.227 179.221 239.6 179.848 239.6 180.621H240.4ZM240.4 191.246V180.621H239.6V191.246H240.4ZM241 191.846C240.669 191.846 240.4 191.578 240.4 191.246H239.6C239.6 192.02 240.227 192.646 241 192.646V191.846ZM242.104 191.846H241V192.646H242.104V191.846ZM242.504 192.246V179.621H241.704V192.246H242.504ZM241 180.021H242.104V179.221H241V180.021Z" fill="#20336B"/>
<path d="M259.047 192.246V192.646H258.647V192.246H259.047ZM259.047 179.621H258.647V179.221H259.047V179.621ZM260.639 180.621C260.639 180.29 260.37 180.021 260.039 180.021V179.221C260.812 179.221 261.439 179.848 261.439 180.621H260.639ZM260.639 191.246V180.621H261.439V191.246H260.639ZM260.039 191.846C260.37 191.846 260.639 191.578 260.639 191.246H261.439C261.439 192.02 260.812 192.646 260.039 192.646V191.846ZM259.047 191.846H260.039V192.646H259.047V191.846ZM258.647 192.246V179.621H259.447V192.246H258.647ZM260.039 180.021H259.047V179.221H260.039V180.021Z" fill="#20336B"/>
<circle cx="257.607" cy="205.646" r="5.64112" fill="white" stroke="#20336B" stroke-width="0.9"/>
<path d="M257.628 208.71C258.128 208.71 258.534 208.304 258.534 207.804C258.534 207.304 258.128 206.898 257.628 206.898C257.128 206.898 256.723 207.304 256.723 207.804C256.723 208.304 257.128 208.71 257.628 208.71Z" fill="#3FAFE9"/>
<path d="M259.793 205.621C259.779 205.607 259.765 205.595 259.751 205.582L259.71 205.544C259.704 205.537 259.696 205.532 259.688 205.525C259.126 205.013 258.388 204.737 257.628 204.755C256.868 204.773 256.144 205.083 255.607 205.621L255.476 205.752L255.294 205.934C255.188 206.04 255.129 206.185 255.129 206.335C255.129 206.486 255.189 206.63 255.296 206.736C255.348 206.789 255.411 206.831 255.48 206.86C255.548 206.888 255.622 206.903 255.697 206.903C255.771 206.904 255.845 206.889 255.914 206.861C255.983 206.832 256.045 206.79 256.098 206.738L256.411 206.425C256.753 206.084 257.217 205.892 257.7 205.892C258.183 205.892 258.646 206.084 258.988 206.425L259.214 206.643C259.32 206.749 259.463 206.807 259.612 206.807C259.762 206.807 259.905 206.747 260.01 206.642C260.062 206.589 260.104 206.527 260.132 206.459C260.161 206.391 260.175 206.318 260.175 206.244C260.176 206.17 260.161 206.097 260.133 206.029C260.105 205.96 260.064 205.899 260.011 205.847L259.793 205.621Z" fill="#3FAFE9"/>
<path d="M261.336 204.504L261.148 204.316C261.147 204.315 261.147 204.314 261.145 204.313L260.997 204.164C260.971 204.139 260.943 204.116 260.913 204.096C259.004 202.421 256.101 202.472 254.253 204.25C254.244 204.258 254.234 204.264 254.225 204.273L253.885 204.613C253.837 204.661 253.799 204.718 253.773 204.781C253.747 204.844 253.734 204.911 253.734 204.979C253.735 205.047 253.748 205.114 253.774 205.177C253.801 205.239 253.839 205.296 253.887 205.344C253.935 205.392 253.992 205.431 254.055 205.457C254.117 205.483 254.184 205.496 254.252 205.497C254.32 205.497 254.388 205.484 254.45 205.458C254.513 205.432 254.57 205.394 254.618 205.346L254.958 205.007C254.96 205.004 254.962 205.001 254.965 204.999C256.459 203.556 258.829 203.547 260.336 204.97L260.603 205.237C260.7 205.334 260.832 205.388 260.969 205.388C261.106 205.387 261.238 205.333 261.335 205.235C261.432 205.138 261.486 205.007 261.487 204.87C261.487 204.733 261.433 204.601 261.336 204.504Z" fill="#3FAFE9"/>
<path d="M250.41 206.203H245.98" stroke="#20336B" stroke-width="0.8" stroke-linecap="round"/>
<path d="M243.435 230.097H240.775V229.023H243.435C243.95 229.023 244.367 228.941 244.686 228.777C245.005 228.613 245.237 228.385 245.383 228.094C245.533 227.802 245.608 227.469 245.608 227.096C245.608 226.754 245.533 226.433 245.383 226.132C245.237 225.831 245.005 225.59 244.686 225.407C244.367 225.22 243.95 225.127 243.435 225.127H241.083V234H239.764V224.047H243.435C244.187 224.047 244.822 224.177 245.342 224.437C245.861 224.696 246.256 225.056 246.524 225.517C246.793 225.972 246.928 226.494 246.928 227.082C246.928 227.72 246.793 228.265 246.524 228.716C246.256 229.167 245.861 229.511 245.342 229.748C244.822 229.98 244.187 230.097 243.435 230.097ZM256.259 228.709V229.338C256.259 230.085 256.165 230.755 255.979 231.348C255.792 231.94 255.523 232.444 255.172 232.858C254.821 233.273 254.399 233.59 253.907 233.809C253.42 234.027 252.873 234.137 252.267 234.137C251.679 234.137 251.139 234.027 250.646 233.809C250.159 233.59 249.735 233.273 249.375 232.858C249.02 232.444 248.744 231.94 248.548 231.348C248.352 230.755 248.254 230.085 248.254 229.338V228.709C248.254 227.962 248.35 227.294 248.541 226.706C248.737 226.114 249.013 225.61 249.368 225.195C249.724 224.776 250.145 224.457 250.633 224.238C251.125 224.02 251.665 223.91 252.253 223.91C252.859 223.91 253.406 224.02 253.894 224.238C254.386 224.457 254.807 224.776 255.158 225.195C255.514 225.61 255.785 226.114 255.972 226.706C256.163 227.294 256.259 227.962 256.259 228.709ZM254.953 229.338V228.695C254.953 228.103 254.892 227.579 254.769 227.123C254.65 226.667 254.475 226.285 254.242 225.975C254.01 225.665 253.725 225.43 253.388 225.271C253.055 225.111 252.677 225.031 252.253 225.031C251.843 225.031 251.471 225.111 251.139 225.271C250.811 225.43 250.528 225.665 250.291 225.975C250.059 226.285 249.879 226.667 249.751 227.123C249.623 227.579 249.56 228.103 249.56 228.695V229.338C249.56 229.935 249.623 230.464 249.751 230.924C249.879 231.38 250.061 231.765 250.298 232.079C250.539 232.389 250.824 232.624 251.152 232.783C251.485 232.943 251.856 233.022 252.267 233.022C252.695 233.022 253.076 232.943 253.408 232.783C253.741 232.624 254.021 232.389 254.249 232.079C254.481 231.765 254.657 231.38 254.775 230.924C254.894 230.464 254.953 229.935 254.953 229.338ZM263.539 231.484C263.539 231.252 263.503 231.047 263.43 230.869C263.361 230.687 263.238 230.523 263.061 230.377C262.887 230.231 262.646 230.092 262.336 229.96C262.031 229.828 261.643 229.693 261.174 229.557C260.682 229.411 260.237 229.249 259.841 229.071C259.444 228.889 259.105 228.682 258.822 228.449C258.54 228.217 258.323 227.95 258.173 227.649C258.022 227.349 257.947 227.005 257.947 226.617C257.947 226.23 258.027 225.872 258.187 225.544C258.346 225.216 258.574 224.931 258.87 224.689C259.171 224.443 259.529 224.252 259.943 224.115C260.358 223.979 260.821 223.91 261.331 223.91C262.078 223.91 262.712 224.054 263.231 224.341C263.756 224.623 264.154 224.995 264.428 225.455C264.701 225.911 264.838 226.398 264.838 226.918H263.525C263.525 226.544 263.446 226.214 263.286 225.927C263.127 225.635 262.885 225.407 262.562 225.243C262.238 225.075 261.828 224.99 261.331 224.99C260.862 224.99 260.474 225.061 260.169 225.202C259.864 225.343 259.636 225.535 259.485 225.776C259.34 226.018 259.267 226.294 259.267 226.604C259.267 226.813 259.31 227.005 259.396 227.178C259.488 227.346 259.627 227.504 259.813 227.649C260.005 227.795 260.246 227.93 260.538 228.053C260.834 228.176 261.188 228.294 261.598 228.408C262.163 228.568 262.65 228.745 263.061 228.941C263.471 229.137 263.808 229.358 264.072 229.604C264.341 229.846 264.539 230.122 264.667 230.432C264.799 230.737 264.865 231.083 264.865 231.471C264.865 231.876 264.783 232.243 264.619 232.571C264.455 232.899 264.22 233.18 263.915 233.412C263.61 233.645 263.243 233.825 262.814 233.952C262.391 234.075 261.917 234.137 261.393 234.137C260.932 234.137 260.479 234.073 260.032 233.945C259.59 233.818 259.187 233.626 258.822 233.371C258.462 233.116 258.173 232.801 257.954 232.428C257.74 232.049 257.633 231.612 257.633 231.115H258.945C258.945 231.457 259.011 231.751 259.144 231.997C259.276 232.239 259.456 232.439 259.684 232.599C259.916 232.758 260.178 232.877 260.47 232.954C260.766 233.027 261.074 233.063 261.393 233.063C261.853 233.063 262.243 233 262.562 232.872C262.881 232.744 263.122 232.562 263.286 232.325C263.455 232.088 263.539 231.808 263.539 231.484Z" fill="#0A2540"/>
<g filter="url(#filter2_d_3450_10725)">
<rect x="204" y="10" width="96" height="96" rx="8" fill="white"/>
</g>
<rect x="255.522" y="49.4571" width="6.03971" height="8.77857" rx="0.55" transform="rotate(-45.6192 255.522 49.4571)" stroke="#20336B" stroke-width="0.5"/>
<path d="M267.052 59.5703C267.007 60.8355 269.066 61.3202 271.866 62.2787" stroke="#20336B" stroke-width="0.5" stroke-linecap="round"/>
<path d="M263.743 58.0664C263.442 59.872 267.354 60.7748 267.655 58.3673" stroke="#20336B" stroke-width="0.5" stroke-linecap="round"/>
<path d="M267.349 57.767C264.34 58.9708 263.738 57.767 263.738 57.767C263.738 57.767 261.932 55.9614 262.233 55.0586" stroke="#20336B" stroke-width="0.5" stroke-linecap="round"/>
<path d="M268.856 54.1545C268.856 54.1545 262.537 50.8442 261.935 50.5432C261.333 50.2423 261.032 51.446 261.333 52.3488C261.634 53.2517 264.041 54.9068 265.245 54.9068C266.449 54.9068 268.254 59.2704 268.254 59.2704" stroke="#20336B" stroke-width="0.5" stroke-linecap="round"/>
<path d="M265.844 50.5449C269.154 50.244 270.057 51.4477 274.571 59.2721" stroke="#20336B" stroke-width="0.5" stroke-linecap="round"/>
<path d="M265.848 50.543H265.246" stroke="#20336B" stroke-width="0.5" stroke-linecap="round"/>
<path d="M262.84 54.4531C264.044 55.6569 263.743 56.8606 266.752 56.5597" stroke="#20336B" stroke-width="0.5" stroke-linecap="round"/>
<path fill-rule="evenodd" clip-rule="evenodd" d="M262.025 59.1921C262.61 58.7903 263.154 58.3635 263.654 57.9147L263.991 58.2838C260.471 61.4442 254.927 63.4824 248.69 63.4824C238.053 63.4824 229.43 57.5541 229.43 50.2412C229.43 42.9283 238.053 37 248.69 37C259.327 37 267.95 42.9283 267.95 50.2412C267.95 50.2951 267.949 50.349 267.948 50.4028L267.449 50.3099C267.449 50.287 267.45 50.2641 267.45 50.2412C267.45 46.7968 265.419 43.6237 262.025 41.2903C258.633 38.9584 253.92 37.5 248.69 37.5C243.459 37.5 238.746 38.9584 235.354 41.2903C231.96 43.6237 229.93 46.7968 229.93 50.2412C229.93 53.6856 231.96 56.8587 235.354 59.1921C238.746 61.5241 243.459 62.9824 248.69 62.9824C253.92 62.9824 258.633 61.5241 262.025 59.1921Z" fill="#20336B"/>
<path d="M251.05 60.3907C250.734 60.2974 250.409 59.9199 250.34 59.5587C250.295 59.3233 250.348 59.1609 250.685 58.5075C252.049 55.8693 252.641 53.4423 252.641 50.4997C252.641 47.6546 252.118 45.4386 250.815 42.7842C250.535 42.216 250.308 41.6843 250.308 41.6072C250.308 41.3231 250.543 40.9131 250.799 40.7548C251.148 40.5357 251.736 40.5763 252.02 40.8401C252.13 40.9415 252.41 41.4042 252.645 41.8669C253.579 43.6974 254.216 45.7064 254.533 47.7966C254.727 49.0914 254.768 51.5428 254.61 52.7279C254.322 54.9115 253.745 56.8637 252.82 58.7713C252.26 59.924 251.911 60.3988 251.619 60.3988C251.562 60.3988 251.464 60.4151 251.407 60.4313C251.351 60.4475 251.188 60.4313 251.05 60.3907ZM247.255 58.406C246.768 58.264 246.415 57.6633 246.557 57.2168C246.59 57.1072 246.821 56.608 247.069 56.1047C248.112 53.9739 248.546 51.693 248.335 49.4526C248.161 47.6099 247.832 46.4492 247 44.7526C246.444 43.6122 246.415 43.4376 246.74 42.9749C247.048 42.5366 247.82 42.4676 248.221 42.8369C248.501 43.0926 249.374 44.915 249.711 45.9459C250.823 49.3552 250.653 53.0202 249.228 56.3686C248.493 58.0854 247.978 58.6171 247.255 58.406ZM243.343 56.3929C243.043 56.259 242.783 55.9383 242.71 55.6177C242.665 55.4229 242.742 55.2037 243.099 54.4813C244.414 51.8188 244.427 49.2578 243.144 46.6562C242.58 45.5157 242.568 45.2884 243.043 44.8379C243.278 44.6146 243.379 44.5781 243.708 44.5781C244.264 44.5781 244.552 44.8582 245.048 45.8769C245.811 47.4435 246.123 48.8032 246.119 50.5444C246.115 52.3342 245.823 53.564 245.011 55.2159C244.544 56.1616 244.313 56.4132 243.846 56.4741C243.704 56.4863 243.477 56.4538 243.343 56.3929ZM239.69 54.5178C239.451 54.4204 239.179 54.0957 239.098 53.8116C239.008 53.495 239.081 53.2434 239.438 52.6549C239.901 51.8959 240.007 51.49 240.007 50.4997C240.007 49.5094 239.901 49.0995 239.438 48.3446C239.28 48.0889 239.126 47.7804 239.089 47.6586C238.939 47.1594 239.357 46.5466 239.917 46.441C240.392 46.3518 240.717 46.5628 241.155 47.2447C242.418 49.2172 242.418 51.8472 241.155 53.8035C240.709 54.4894 240.214 54.7329 239.69 54.5178Z" fill="#3FAFE9"/>
<path d="M226.037 75.5293V85.4824H224.738V75.5293H226.037ZM229.236 75.5293V76.6094H221.546V75.5293H229.236ZM234.104 84.2178V80.4102C234.104 80.1185 234.044 79.8656 233.926 79.6514C233.812 79.4326 233.639 79.264 233.406 79.1455C233.174 79.027 232.887 78.9678 232.545 78.9678C232.226 78.9678 231.946 79.0225 231.704 79.1318C231.467 79.2412 231.28 79.3848 231.144 79.5625C231.011 79.7402 230.945 79.9316 230.945 80.1367H229.681C229.681 79.8724 229.749 79.6104 229.886 79.3506C230.022 79.0908 230.218 78.8561 230.474 78.6465C230.733 78.4323 231.043 78.2637 231.403 78.1406C231.768 78.013 232.174 77.9492 232.62 77.9492C233.158 77.9492 233.632 78.0404 234.042 78.2227C234.457 78.4049 234.78 78.6807 235.013 79.0498C235.25 79.4144 235.368 79.8724 235.368 80.4238V83.8691C235.368 84.1152 235.389 84.3773 235.43 84.6553C235.475 84.9333 235.541 85.1725 235.628 85.373V85.4824H234.309C234.245 85.3366 234.195 85.1429 234.158 84.9014C234.122 84.6553 234.104 84.4274 234.104 84.2178ZM234.322 80.998L234.336 81.8867H233.058C232.698 81.8867 232.376 81.9163 232.094 81.9756C231.811 82.0303 231.574 82.1146 231.383 82.2285C231.191 82.3424 231.046 82.486 230.945 82.6592C230.845 82.8278 230.795 83.026 230.795 83.2539C230.795 83.4863 230.847 83.6982 230.952 83.8896C231.057 84.0811 231.214 84.2337 231.424 84.3477C231.638 84.457 231.9 84.5117 232.21 84.5117C232.597 84.5117 232.939 84.4297 233.235 84.2656C233.532 84.1016 233.766 83.901 233.939 83.6641C234.117 83.4271 234.213 83.1969 234.227 82.9736L234.767 83.582C234.735 83.7734 234.648 83.9854 234.507 84.2178C234.366 84.4502 234.176 84.6735 233.939 84.8877C233.707 85.0973 233.429 85.2728 233.105 85.4141C232.786 85.5508 232.426 85.6191 232.025 85.6191C231.524 85.6191 231.084 85.5212 230.706 85.3252C230.332 85.1292 230.041 84.8672 229.831 84.5391C229.626 84.2064 229.523 83.835 229.523 83.4248C229.523 83.0283 229.601 82.6797 229.756 82.3789C229.911 82.0736 230.134 81.8206 230.426 81.6201C230.717 81.415 231.068 81.2601 231.479 81.1553C231.889 81.0505 232.347 80.998 232.853 80.998H234.322ZM238.622 79.5078V88.3262H237.351V78.0859H238.513L238.622 79.5078ZM243.605 81.7227V81.8662C243.605 82.404 243.542 82.903 243.414 83.3633C243.286 83.819 243.1 84.2155 242.854 84.5527C242.612 84.89 242.313 85.152 241.958 85.3389C241.603 85.5257 241.195 85.6191 240.734 85.6191C240.265 85.6191 239.85 85.5417 239.49 85.3867C239.13 85.2318 238.825 85.0062 238.574 84.71C238.324 84.4137 238.123 84.0583 237.973 83.6436C237.827 83.2288 237.727 82.7617 237.672 82.2422V81.4766C237.727 80.9297 237.829 80.4398 237.979 80.0068C238.13 79.5739 238.328 79.2048 238.574 78.8994C238.825 78.5895 239.128 78.3548 239.483 78.1953C239.839 78.0312 240.249 77.9492 240.714 77.9492C241.179 77.9492 241.591 78.0404 241.951 78.2227C242.311 78.4004 242.614 78.6556 242.86 78.9883C243.106 79.321 243.291 79.7197 243.414 80.1846C243.542 80.6449 243.605 81.1576 243.605 81.7227ZM242.334 81.8662V81.7227C242.334 81.3535 242.295 81.0072 242.218 80.6836C242.14 80.3555 242.02 80.0684 241.855 79.8223C241.696 79.5716 241.491 79.3757 241.24 79.2344C240.99 79.0885 240.691 79.0156 240.345 79.0156C240.026 79.0156 239.748 79.0703 239.511 79.1797C239.278 79.2891 239.08 79.4372 238.916 79.624C238.752 79.8063 238.618 80.016 238.513 80.2529C238.412 80.4854 238.337 80.7269 238.287 80.9775V82.748C238.378 83.0671 238.506 83.3678 238.67 83.6504C238.834 83.9284 239.053 84.154 239.326 84.3271C239.6 84.4958 239.944 84.5801 240.358 84.5801C240.7 84.5801 240.994 84.5094 241.24 84.3682C241.491 84.2223 241.696 84.0241 241.855 83.7734C242.02 83.5228 242.14 83.2357 242.218 82.9121C242.295 82.584 242.334 82.2354 242.334 81.8662ZM250.53 79.959L252.021 78.8994C252.308 78.7035 252.529 78.5075 252.684 78.3115C252.843 78.111 252.923 77.8376 252.923 77.4912C252.923 77.2223 252.818 76.9785 252.608 76.7598C252.399 76.5365 252.103 76.4248 251.72 76.4248C251.455 76.4248 251.232 76.4863 251.05 76.6094C250.868 76.7324 250.731 76.8965 250.64 77.1016C250.549 77.3021 250.503 77.5231 250.503 77.7646C250.503 77.9697 250.553 78.1816 250.653 78.4004C250.754 78.6191 250.893 78.847 251.07 79.084C251.248 79.321 251.451 79.5716 251.679 79.8359L256.389 85.4824H254.871L251.009 80.8613C250.667 80.4603 250.362 80.0934 250.093 79.7607C249.824 79.4235 249.612 79.0977 249.457 78.7832C249.307 78.4688 249.231 78.1429 249.231 77.8057C249.231 77.2861 249.334 76.8486 249.539 76.4932C249.749 76.1331 250.04 75.8597 250.414 75.6729C250.788 75.486 251.225 75.3926 251.727 75.3926C252.214 75.3926 252.633 75.4906 252.984 75.6865C253.34 75.8779 253.613 76.1331 253.805 76.4521C253.996 76.7666 254.092 77.113 254.092 77.4912C254.092 77.8102 254.035 78.0973 253.921 78.3525C253.807 78.6032 253.647 78.8333 253.442 79.043C253.242 79.2526 253.007 79.4577 252.738 79.6582L250.763 81.1279C250.435 81.3695 250.195 81.5996 250.045 81.8184C249.895 82.0371 249.797 82.2308 249.751 82.3994C249.71 82.568 249.689 82.7025 249.689 82.8027C249.689 83.1263 249.76 83.4225 249.901 83.6914C250.043 83.9603 250.257 84.1768 250.544 84.3408C250.836 84.5003 251.2 84.5801 251.638 84.5801C252.021 84.5801 252.392 84.4935 252.752 84.3203C253.117 84.1426 253.442 83.8919 253.729 83.5684C254.017 83.2402 254.244 82.8506 254.413 82.3994C254.586 81.9437 254.673 81.4401 254.673 80.8887H255.808C255.808 81.3398 255.764 81.766 255.678 82.167C255.591 82.568 255.457 82.9417 255.274 83.2881C255.097 83.6299 254.869 83.9421 254.591 84.2246C254.55 84.2656 254.518 84.3135 254.495 84.3682C254.472 84.4229 254.44 84.4707 254.399 84.5117C254.058 84.8809 253.636 85.1589 253.135 85.3457C252.638 85.528 252.139 85.6191 251.638 85.6191C250.977 85.6191 250.405 85.4984 249.922 85.2568C249.443 85.0153 249.074 84.6826 248.814 84.2588C248.555 83.835 248.425 83.3496 248.425 82.8027C248.425 82.3835 248.514 82.0143 248.691 81.6953C248.874 81.3763 249.122 81.0778 249.437 80.7998C249.756 80.5218 250.12 80.2415 250.53 79.959ZM264.735 81.5791H262.076V80.5059H264.735C265.25 80.5059 265.667 80.4238 265.986 80.2598C266.305 80.0957 266.538 79.8678 266.684 79.5762C266.834 79.2845 266.909 78.9518 266.909 78.5781C266.909 78.2363 266.834 77.915 266.684 77.6143C266.538 77.3135 266.305 77.0719 265.986 76.8896C265.667 76.7028 265.25 76.6094 264.735 76.6094H262.384V85.4824H261.064V75.5293H264.735C265.487 75.5293 266.123 75.6592 266.643 75.9189C267.162 76.1787 267.556 76.5387 267.825 76.999C268.094 77.4548 268.229 77.9766 268.229 78.5645C268.229 79.2025 268.094 79.7471 267.825 80.1982C267.556 80.6494 267.162 80.9935 266.643 81.2305C266.123 81.4629 265.487 81.5791 264.735 81.5791ZM273.984 84.2178V80.4102C273.984 80.1185 273.925 79.8656 273.807 79.6514C273.693 79.4326 273.52 79.264 273.287 79.1455C273.055 79.027 272.768 78.9678 272.426 78.9678C272.107 78.9678 271.826 79.0225 271.585 79.1318C271.348 79.2412 271.161 79.3848 271.024 79.5625C270.892 79.7402 270.826 79.9316 270.826 80.1367H269.562C269.562 79.8724 269.63 79.6104 269.767 79.3506C269.903 79.0908 270.099 78.8561 270.354 78.6465C270.614 78.4323 270.924 78.2637 271.284 78.1406C271.649 78.013 272.054 77.9492 272.501 77.9492C273.039 77.9492 273.513 78.0404 273.923 78.2227C274.338 78.4049 274.661 78.6807 274.894 79.0498C275.131 79.4144 275.249 79.8724 275.249 80.4238V83.8691C275.249 84.1152 275.27 84.3773 275.311 84.6553C275.356 84.9333 275.422 85.1725 275.509 85.373V85.4824H274.189C274.126 85.3366 274.076 85.1429 274.039 84.9014C274.003 84.6553 273.984 84.4274 273.984 84.2178ZM274.203 80.998L274.217 81.8867H272.938C272.578 81.8867 272.257 81.9163 271.975 81.9756C271.692 82.0303 271.455 82.1146 271.264 82.2285C271.072 82.3424 270.926 82.486 270.826 82.6592C270.726 82.8278 270.676 83.026 270.676 83.2539C270.676 83.4863 270.728 83.6982 270.833 83.8896C270.938 84.0811 271.095 84.2337 271.305 84.3477C271.519 84.457 271.781 84.5117 272.091 84.5117C272.478 84.5117 272.82 84.4297 273.116 84.2656C273.412 84.1016 273.647 83.901 273.82 83.6641C273.998 83.4271 274.094 83.1969 274.107 82.9736L274.647 83.582C274.616 83.7734 274.529 83.9854 274.388 84.2178C274.246 84.4502 274.057 84.6735 273.82 84.8877C273.588 85.0973 273.31 85.2728 272.986 85.4141C272.667 85.5508 272.307 85.6191 271.906 85.6191C271.405 85.6191 270.965 85.5212 270.587 85.3252C270.213 85.1292 269.922 84.8672 269.712 84.5391C269.507 84.2064 269.404 83.835 269.404 83.4248C269.404 83.0283 269.482 82.6797 269.637 82.3789C269.792 82.0736 270.015 81.8206 270.307 81.6201C270.598 81.415 270.949 81.2601 271.359 81.1553C271.77 81.0505 272.228 80.998 272.733 80.998H274.203ZM279.207 84.7168L281.265 78.0859H282.618L279.651 86.624C279.583 86.8063 279.492 87.0023 279.378 87.2119C279.269 87.4261 279.127 87.6289 278.954 87.8203C278.781 88.0117 278.571 88.1667 278.325 88.2852C278.084 88.4082 277.794 88.4697 277.457 88.4697C277.357 88.4697 277.229 88.4561 277.074 88.4287C276.919 88.4014 276.81 88.3786 276.746 88.3604L276.739 87.335C276.776 87.3395 276.833 87.3441 276.91 87.3486C276.992 87.3577 277.049 87.3623 277.081 87.3623C277.368 87.3623 277.612 87.3236 277.812 87.2461C278.013 87.1732 278.182 87.0479 278.318 86.8701C278.46 86.6969 278.58 86.4577 278.681 86.1523L279.207 84.7168ZM277.696 78.0859L279.617 83.8281L279.945 85.1611L279.036 85.626L276.315 78.0859H277.696Z" fill="#0A2540"/>
<g filter="url(#filter3_d_3450_10725)">
<rect x="16" y="82" width="96" height="96" rx="8" fill="white"/>
</g>
<rect x="52.2812" y="105.5" width="23.4375" height="16" rx="1.5" stroke="#223872"/>
<circle cx="56.35" cy="117.537" r="1.94375" stroke="#223872"/>
<circle cx="58.3031" cy="117.537" r="1.94375" stroke="#223872"/>
<line x1="51.7812" y1="108.75" x2="75.1562" y2="108.75" stroke="#223872"/>
<line x1="51.7812" y1="111.938" x2="75.1562" y2="111.938" stroke="#223872"/>
<rect x="62.4062" y="117.219" width="3.1875" height="1.0625" rx="0.53125" fill="#3FAFE9"/>
<rect x="66.6562" y="117.219" width="3.1875" height="1.0625" rx="0.53125" fill="#3FAFE9"/>
<rect x="70.9062" y="117.219" width="3.1875" height="1.0625" rx="0.53125" fill="#3FAFE9"/>
<path d="M31.0234 134.929L27.7285 144H26.3818L30.1758 134.047H31.0439L31.0234 134.929ZM33.7852 144L30.4834 134.929L30.4629 134.047H31.3311L35.1387 144H33.7852ZM33.6143 140.315V141.396H28.0225V140.315H33.6143ZM37.5449 138.183V144H36.2803V136.604H37.4766L37.5449 138.183ZM37.2441 140.021L36.7178 140.001C36.7223 139.495 36.7975 139.028 36.9434 138.6C37.0892 138.167 37.2943 137.791 37.5586 137.472C37.8229 137.153 38.1374 136.907 38.502 136.733C38.8711 136.556 39.279 136.467 39.7256 136.467C40.0902 136.467 40.4183 136.517 40.71 136.617C41.0016 136.713 41.25 136.868 41.4551 137.082C41.6647 137.296 41.8242 137.574 41.9336 137.916C42.043 138.253 42.0977 138.666 42.0977 139.153V144H40.8262V139.14C40.8262 138.752 40.7692 138.442 40.6553 138.21C40.5413 137.973 40.375 137.802 40.1562 137.697C39.9375 137.588 39.6686 137.533 39.3496 137.533C39.0352 137.533 38.748 137.599 38.4883 137.731C38.2331 137.864 38.012 138.046 37.8252 138.278C37.6429 138.511 37.4993 138.777 37.3945 139.078C37.2943 139.374 37.2441 139.689 37.2441 140.021ZM46.0967 143.234L48.1543 136.604H49.5078L46.541 145.142C46.4727 145.324 46.3815 145.52 46.2676 145.729C46.1582 145.944 46.0169 146.146 45.8438 146.338C45.6706 146.529 45.4609 146.684 45.2148 146.803C44.9733 146.926 44.6839 146.987 44.3467 146.987C44.2464 146.987 44.1188 146.974 43.9639 146.946C43.8089 146.919 43.6995 146.896 43.6357 146.878L43.6289 145.853C43.6654 145.857 43.7223 145.862 43.7998 145.866C43.8818 145.875 43.9388 145.88 43.9707 145.88C44.2578 145.88 44.5016 145.841 44.7021 145.764C44.9027 145.691 45.0713 145.565 45.208 145.388C45.3493 145.215 45.4701 144.975 45.5703 144.67L46.0967 143.234ZM44.5859 136.604L46.5068 142.346L46.835 143.679L45.9258 144.144L43.2051 136.604H44.5859ZM57.0068 144H54.9287L54.9424 142.927H57.0068C57.7178 142.927 58.3102 142.779 58.7842 142.482C59.2581 142.182 59.6136 141.762 59.8506 141.225C60.0921 140.682 60.2129 140.049 60.2129 139.324V138.716C60.2129 138.146 60.1445 137.64 60.0078 137.198C59.8711 136.752 59.6706 136.376 59.4062 136.07C59.1419 135.76 58.8184 135.526 58.4355 135.366C58.0573 135.207 57.6221 135.127 57.1299 135.127H54.8877V134.047H57.1299C57.7816 134.047 58.3763 134.156 58.9141 134.375C59.4518 134.589 59.9144 134.901 60.3018 135.312C60.6937 135.717 60.9945 136.209 61.2041 136.788C61.4137 137.362 61.5186 138.009 61.5186 138.729V139.324C61.5186 140.044 61.4137 140.694 61.2041 141.272C60.9945 141.847 60.6914 142.337 60.2949 142.742C59.903 143.148 59.429 143.46 58.873 143.679C58.3216 143.893 57.6995 144 57.0068 144ZM55.6328 134.047V144H54.3135V134.047H55.6328ZM66.3789 144.137C65.8639 144.137 65.3968 144.05 64.9775 143.877C64.5628 143.699 64.2051 143.451 63.9043 143.132C63.6081 142.813 63.3802 142.435 63.2207 141.997C63.0612 141.56 62.9814 141.081 62.9814 140.562V140.274C62.9814 139.673 63.0703 139.137 63.248 138.668C63.4258 138.194 63.6673 137.793 63.9727 137.465C64.278 137.137 64.6243 136.888 65.0117 136.72C65.3991 136.551 65.8001 136.467 66.2148 136.467C66.7435 136.467 67.1992 136.558 67.582 136.74C67.9694 136.923 68.2861 137.178 68.5322 137.506C68.7783 137.829 68.9606 138.212 69.0791 138.654C69.1976 139.092 69.2568 139.57 69.2568 140.09V140.657H63.7334V139.625H67.9922V139.529C67.974 139.201 67.9056 138.882 67.7871 138.572C67.6732 138.262 67.4909 138.007 67.2402 137.807C66.9896 137.606 66.6478 137.506 66.2148 137.506C65.9277 137.506 65.6634 137.567 65.4219 137.69C65.1803 137.809 64.973 137.987 64.7998 138.224C64.6266 138.461 64.4922 138.75 64.3965 139.092C64.3008 139.434 64.2529 139.828 64.2529 140.274V140.562C64.2529 140.912 64.3008 141.243 64.3965 141.553C64.4967 141.858 64.6403 142.127 64.8271 142.359C65.0186 142.592 65.2487 142.774 65.5176 142.906C65.791 143.038 66.1009 143.104 66.4473 143.104C66.8939 143.104 67.2721 143.013 67.582 142.831C67.8919 142.649 68.1631 142.405 68.3955 142.1L69.1611 142.708C69.0016 142.95 68.7988 143.18 68.5527 143.398C68.3066 143.617 68.0036 143.795 67.6436 143.932C67.2881 144.068 66.8665 144.137 66.3789 144.137ZM70.7266 133.5H71.998V142.564L71.8887 144H70.7266V133.5ZM76.9951 140.24V140.384C76.9951 140.922 76.9313 141.421 76.8037 141.881C76.6761 142.337 76.4893 142.733 76.2432 143.07C75.9971 143.408 75.6963 143.67 75.3408 143.856C74.9854 144.043 74.5775 144.137 74.1172 144.137C73.6478 144.137 73.2354 144.057 72.8799 143.897C72.529 143.733 72.2327 143.499 71.9912 143.193C71.7497 142.888 71.556 142.519 71.4102 142.086C71.2689 141.653 71.1709 141.165 71.1162 140.623V139.994C71.1709 139.447 71.2689 138.957 71.4102 138.524C71.556 138.091 71.7497 137.722 71.9912 137.417C72.2327 137.107 72.529 136.872 72.8799 136.713C73.2308 136.549 73.6387 136.467 74.1035 136.467C74.5684 136.467 74.9808 136.558 75.3408 136.74C75.7008 136.918 76.0016 137.173 76.2432 137.506C76.4893 137.839 76.6761 138.237 76.8037 138.702C76.9313 139.162 76.9951 139.675 76.9951 140.24ZM75.7236 140.384V140.24C75.7236 139.871 75.6895 139.525 75.6211 139.201C75.5527 138.873 75.4434 138.586 75.293 138.34C75.1426 138.089 74.9443 137.893 74.6982 137.752C74.4521 137.606 74.1491 137.533 73.7891 137.533C73.4701 137.533 73.1921 137.588 72.9551 137.697C72.7227 137.807 72.5244 137.955 72.3604 138.142C72.1963 138.324 72.0618 138.534 71.957 138.771C71.8568 139.003 71.7816 139.244 71.7314 139.495V141.143C71.8044 141.462 71.9229 141.769 72.0869 142.065C72.2555 142.357 72.4788 142.596 72.7568 142.783C73.0394 142.97 73.388 143.063 73.8027 143.063C74.1445 143.063 74.4362 142.995 74.6777 142.858C74.9238 142.717 75.1221 142.523 75.2725 142.277C75.4274 142.031 75.5413 141.746 75.6143 141.423C75.6872 141.099 75.7236 140.753 75.7236 140.384ZM79.9688 136.604V144H78.6973V136.604H79.9688ZM78.6016 134.642C78.6016 134.437 78.6631 134.263 78.7861 134.122C78.9137 133.981 79.1006 133.91 79.3467 133.91C79.5882 133.91 79.7728 133.981 79.9004 134.122C80.0326 134.263 80.0986 134.437 80.0986 134.642C80.0986 134.838 80.0326 135.006 79.9004 135.147C79.7728 135.284 79.5882 135.353 79.3467 135.353C79.1006 135.353 78.9137 135.284 78.7861 135.147C78.6631 135.006 78.6016 134.838 78.6016 134.642ZM85.0957 136.604V137.574H81.0967V136.604H85.0957ZM82.4502 134.806H83.7148V142.168C83.7148 142.419 83.7536 142.608 83.8311 142.735C83.9085 142.863 84.0088 142.947 84.1318 142.988C84.2549 143.029 84.387 143.05 84.5283 143.05C84.6331 143.05 84.7425 143.041 84.8564 143.022C84.9749 143 85.0638 142.981 85.123 142.968L85.1299 144C85.0296 144.032 84.8975 144.062 84.7334 144.089C84.5739 144.121 84.3802 144.137 84.1523 144.137C83.8424 144.137 83.5576 144.075 83.2979 143.952C83.0381 143.829 82.8307 143.624 82.6758 143.337C82.5254 143.045 82.4502 142.653 82.4502 142.161V134.806ZM89.7168 140.384V140.227C89.7168 139.693 89.7943 139.199 89.9492 138.743C90.1042 138.283 90.3275 137.884 90.6191 137.547C90.9108 137.205 91.264 136.941 91.6787 136.754C92.0934 136.562 92.5583 136.467 93.0732 136.467C93.5928 136.467 94.0599 136.562 94.4746 136.754C94.8939 136.941 95.2493 137.205 95.541 137.547C95.8372 137.884 96.0628 138.283 96.2178 138.743C96.3727 139.199 96.4502 139.693 96.4502 140.227V140.384C96.4502 140.917 96.3727 141.411 96.2178 141.867C96.0628 142.323 95.8372 142.722 95.541 143.063C95.2493 143.401 94.8962 143.665 94.4814 143.856C94.0713 144.043 93.6064 144.137 93.0869 144.137C92.5674 144.137 92.1003 144.043 91.6855 143.856C91.2708 143.665 90.9154 143.401 90.6191 143.063C90.3275 142.722 90.1042 142.323 89.9492 141.867C89.7943 141.411 89.7168 140.917 89.7168 140.384ZM90.9814 140.227V140.384C90.9814 140.753 91.0247 141.102 91.1113 141.43C91.1979 141.753 91.3278 142.04 91.501 142.291C91.6787 142.542 91.8997 142.74 92.1641 142.886C92.4284 143.027 92.736 143.098 93.0869 143.098C93.4333 143.098 93.7363 143.027 93.9961 142.886C94.2604 142.74 94.4792 142.542 94.6523 142.291C94.8255 142.04 94.9554 141.753 95.042 141.43C95.1331 141.102 95.1787 140.753 95.1787 140.384V140.227C95.1787 139.862 95.1331 139.518 95.042 139.194C94.9554 138.866 94.8232 138.577 94.6455 138.326C94.4723 138.071 94.2536 137.87 93.9893 137.725C93.7295 137.579 93.4242 137.506 93.0732 137.506C92.7269 137.506 92.4215 137.579 92.1572 137.725C91.8975 137.87 91.6787 138.071 91.501 138.326C91.3278 138.577 91.1979 138.866 91.1113 139.194C91.0247 139.518 90.9814 139.862 90.9814 140.227ZM99.3008 137.766V144H98.0361V136.604H99.2666L99.3008 137.766ZM101.611 136.562L101.604 137.738C101.5 137.715 101.399 137.702 101.304 137.697C101.213 137.688 101.108 137.684 100.989 137.684C100.698 137.684 100.44 137.729 100.217 137.82C99.9935 137.911 99.8044 138.039 99.6494 138.203C99.4945 138.367 99.3714 138.563 99.2803 138.791C99.1937 139.014 99.1367 139.26 99.1094 139.529L98.7539 139.734C98.7539 139.288 98.7972 138.868 98.8838 138.477C98.9749 138.085 99.1139 137.738 99.3008 137.438C99.4876 137.132 99.7246 136.895 100.012 136.727C100.303 136.553 100.65 136.467 101.051 136.467C101.142 136.467 101.247 136.478 101.365 136.501C101.484 136.519 101.566 136.54 101.611 136.562ZM36.2871 158.835H37.5996C37.5312 159.464 37.3512 160.027 37.0596 160.523C36.7679 161.02 36.3555 161.414 35.8223 161.706C35.2891 161.993 34.6237 162.137 33.8262 162.137C33.2428 162.137 32.7119 162.027 32.2334 161.809C31.7594 161.59 31.3516 161.28 31.0098 160.879C30.668 160.473 30.4036 159.988 30.2168 159.423C30.0345 158.853 29.9434 158.22 29.9434 157.522V156.531C29.9434 155.834 30.0345 155.203 30.2168 154.638C30.4036 154.068 30.6702 153.58 31.0166 153.175C31.3675 152.769 31.7891 152.457 32.2812 152.238C32.7734 152.02 33.3271 151.91 33.9424 151.91C34.6943 151.91 35.3301 152.051 35.8496 152.334C36.3691 152.617 36.7725 153.008 37.0596 153.51C37.3512 154.007 37.5312 154.583 37.5996 155.239H36.2871C36.2233 154.774 36.1048 154.376 35.9316 154.043C35.7585 153.706 35.5124 153.446 35.1934 153.264C34.8743 153.081 34.4574 152.99 33.9424 152.99C33.5003 152.99 33.1107 153.075 32.7734 153.243C32.4408 153.412 32.1605 153.651 31.9326 153.961C31.7093 154.271 31.5407 154.642 31.4268 155.075C31.3128 155.508 31.2559 155.989 31.2559 156.518V157.522C31.2559 158.01 31.306 158.468 31.4062 158.896C31.5111 159.325 31.6683 159.701 31.8779 160.024C32.0876 160.348 32.3542 160.603 32.6777 160.79C33.0013 160.972 33.3841 161.063 33.8262 161.063C34.3867 161.063 34.8333 160.975 35.166 160.797C35.4987 160.619 35.7493 160.364 35.918 160.031C36.0911 159.699 36.2142 159.3 36.2871 158.835ZM40.4707 155.766V162H39.2061V154.604H40.4365L40.4707 155.766ZM42.7812 154.562L42.7744 155.738C42.6696 155.715 42.5693 155.702 42.4736 155.697C42.3825 155.688 42.2777 155.684 42.1592 155.684C41.8675 155.684 41.61 155.729 41.3867 155.82C41.1634 155.911 40.9743 156.039 40.8193 156.203C40.6644 156.367 40.5413 156.563 40.4502 156.791C40.3636 157.014 40.3066 157.26 40.2793 157.529L39.9238 157.734C39.9238 157.288 39.9671 156.868 40.0537 156.477C40.1449 156.085 40.2839 155.738 40.4707 155.438C40.6576 155.132 40.8945 154.895 41.1816 154.727C41.4733 154.553 41.8197 154.467 42.2207 154.467C42.3118 154.467 42.4167 154.478 42.5352 154.501C42.6536 154.519 42.7357 154.54 42.7812 154.562ZM46.8828 162.137C46.3678 162.137 45.9007 162.05 45.4814 161.877C45.0667 161.699 44.709 161.451 44.4082 161.132C44.112 160.813 43.8841 160.435 43.7246 159.997C43.5651 159.56 43.4854 159.081 43.4854 158.562V158.274C43.4854 157.673 43.5742 157.137 43.752 156.668C43.9297 156.194 44.1712 155.793 44.4766 155.465C44.7819 155.137 45.1283 154.888 45.5156 154.72C45.903 154.551 46.304 154.467 46.7188 154.467C47.2474 154.467 47.7031 154.558 48.0859 154.74C48.4733 154.923 48.79 155.178 49.0361 155.506C49.2822 155.829 49.4645 156.212 49.583 156.654C49.7015 157.092 49.7607 157.57 49.7607 158.09V158.657H44.2373V157.625H48.4961V157.529C48.4779 157.201 48.4095 156.882 48.291 156.572C48.1771 156.262 47.9948 156.007 47.7441 155.807C47.4935 155.606 47.1517 155.506 46.7188 155.506C46.4316 155.506 46.1673 155.567 45.9258 155.69C45.6842 155.809 45.4769 155.987 45.3037 156.224C45.1305 156.461 44.9961 156.75 44.9004 157.092C44.8047 157.434 44.7568 157.828 44.7568 158.274V158.562C44.7568 158.912 44.8047 159.243 44.9004 159.553C45.0007 159.858 45.1442 160.127 45.3311 160.359C45.5225 160.592 45.7526 160.774 46.0215 160.906C46.2949 161.038 46.6048 161.104 46.9512 161.104C47.3978 161.104 47.776 161.013 48.0859 160.831C48.3958 160.649 48.667 160.405 48.8994 160.1L49.665 160.708C49.5055 160.95 49.3027 161.18 49.0566 161.398C48.8105 161.617 48.5075 161.795 48.1475 161.932C47.792 162.068 47.3704 162.137 46.8828 162.137ZM55.8994 160.564V151.5H57.1709V162H56.0088L55.8994 160.564ZM50.9229 158.384V158.24C50.9229 157.675 50.9912 157.162 51.1279 156.702C51.2692 156.237 51.4674 155.839 51.7227 155.506C51.9824 155.173 52.29 154.918 52.6455 154.74C53.0055 154.558 53.4066 154.467 53.8486 154.467C54.3135 154.467 54.7191 154.549 55.0654 154.713C55.4163 154.872 55.7126 155.107 55.9541 155.417C56.2002 155.722 56.3939 156.091 56.5352 156.524C56.6764 156.957 56.7744 157.447 56.8291 157.994V158.623C56.779 159.165 56.681 159.653 56.5352 160.086C56.3939 160.519 56.2002 160.888 55.9541 161.193C55.7126 161.499 55.4163 161.733 55.0654 161.897C54.7145 162.057 54.3044 162.137 53.835 162.137C53.402 162.137 53.0055 162.043 52.6455 161.856C52.29 161.67 51.9824 161.408 51.7227 161.07C51.4674 160.733 51.2692 160.337 51.1279 159.881C50.9912 159.421 50.9229 158.922 50.9229 158.384ZM52.1943 158.24V158.384C52.1943 158.753 52.2308 159.099 52.3037 159.423C52.3812 159.746 52.4997 160.031 52.6592 160.277C52.8187 160.523 53.0215 160.717 53.2676 160.858C53.5137 160.995 53.8076 161.063 54.1494 161.063C54.5687 161.063 54.9128 160.975 55.1816 160.797C55.4551 160.619 55.6738 160.384 55.8379 160.093C56.002 159.801 56.1296 159.484 56.2207 159.143V157.495C56.166 157.244 56.0863 157.003 55.9814 156.771C55.8812 156.534 55.749 156.324 55.585 156.142C55.4255 155.955 55.2272 155.807 54.9902 155.697C54.7578 155.588 54.4821 155.533 54.1631 155.533C53.8167 155.533 53.5182 155.606 53.2676 155.752C53.0215 155.893 52.8187 156.089 52.6592 156.34C52.4997 156.586 52.3812 156.873 52.3037 157.201C52.2308 157.525 52.1943 157.871 52.1943 158.24ZM60.5137 154.604V162H59.2422V154.604H60.5137ZM59.1465 152.642C59.1465 152.437 59.208 152.263 59.3311 152.122C59.4587 151.981 59.6455 151.91 59.8916 151.91C60.1331 151.91 60.3177 151.981 60.4453 152.122C60.5775 152.263 60.6436 152.437 60.6436 152.642C60.6436 152.838 60.5775 153.006 60.4453 153.147C60.3177 153.284 60.1331 153.353 59.8916 153.353C59.6455 153.353 59.4587 153.284 59.3311 153.147C59.208 153.006 59.1465 152.838 59.1465 152.642ZM65.6406 154.604V155.574H61.6416V154.604H65.6406ZM62.9951 152.806H64.2598V160.168C64.2598 160.419 64.2985 160.608 64.376 160.735C64.4535 160.863 64.5537 160.947 64.6768 160.988C64.7998 161.029 64.932 161.05 65.0732 161.05C65.1781 161.05 65.2874 161.041 65.4014 161.022C65.5199 161 65.6087 160.981 65.668 160.968L65.6748 162C65.5745 162.032 65.4424 162.062 65.2783 162.089C65.1188 162.121 64.9251 162.137 64.6973 162.137C64.3874 162.137 64.1025 162.075 63.8428 161.952C63.583 161.829 63.3757 161.624 63.2207 161.337C63.0703 161.045 62.9951 160.653 62.9951 160.161V152.806ZM76.7969 158.835H78.1094C78.041 159.464 77.861 160.027 77.5693 160.523C77.2777 161.02 76.8652 161.414 76.332 161.706C75.7988 161.993 75.1335 162.137 74.3359 162.137C73.7526 162.137 73.2217 162.027 72.7432 161.809C72.2692 161.59 71.8613 161.28 71.5195 160.879C71.1777 160.473 70.9134 159.988 70.7266 159.423C70.5443 158.853 70.4531 158.22 70.4531 157.522V156.531C70.4531 155.834 70.5443 155.203 70.7266 154.638C70.9134 154.068 71.18 153.58 71.5264 153.175C71.8773 152.769 72.2988 152.457 72.791 152.238C73.2832 152.02 73.8369 151.91 74.4521 151.91C75.2041 151.91 75.8398 152.051 76.3594 152.334C76.8789 152.617 77.2822 153.008 77.5693 153.51C77.861 154.007 78.041 154.583 78.1094 155.239H76.7969C76.7331 154.774 76.6146 154.376 76.4414 154.043C76.2682 153.706 76.0221 153.446 75.7031 153.264C75.3841 153.081 74.9671 152.99 74.4521 152.99C74.0101 152.99 73.6204 153.075 73.2832 153.243C72.9505 153.412 72.6702 153.651 72.4424 153.961C72.2191 154.271 72.0505 154.642 71.9365 155.075C71.8226 155.508 71.7656 155.989 71.7656 156.518V157.522C71.7656 158.01 71.8158 158.468 71.916 158.896C72.0208 159.325 72.1781 159.701 72.3877 160.024C72.5973 160.348 72.8639 160.603 73.1875 160.79C73.5111 160.972 73.8939 161.063 74.3359 161.063C74.8965 161.063 75.3431 160.975 75.6758 160.797C76.0085 160.619 76.2591 160.364 76.4277 160.031C76.6009 159.699 76.724 159.3 76.7969 158.835ZM84.0771 160.735V156.928C84.0771 156.636 84.0179 156.383 83.8994 156.169C83.7855 155.95 83.6123 155.782 83.3799 155.663C83.1475 155.545 82.8604 155.485 82.5186 155.485C82.1995 155.485 81.9193 155.54 81.6777 155.649C81.4408 155.759 81.2539 155.902 81.1172 156.08C80.985 156.258 80.9189 156.449 80.9189 156.654H79.6543C79.6543 156.39 79.7227 156.128 79.8594 155.868C79.9961 155.608 80.1921 155.374 80.4473 155.164C80.707 154.95 81.0169 154.781 81.377 154.658C81.7415 154.531 82.1471 154.467 82.5938 154.467C83.1315 154.467 83.6055 154.558 84.0156 154.74C84.4303 154.923 84.7539 155.198 84.9863 155.567C85.2233 155.932 85.3418 156.39 85.3418 156.941V160.387C85.3418 160.633 85.3623 160.895 85.4033 161.173C85.4489 161.451 85.515 161.69 85.6016 161.891V162H84.2822C84.2184 161.854 84.1683 161.66 84.1318 161.419C84.0954 161.173 84.0771 160.945 84.0771 160.735ZM84.2959 157.516L84.3096 158.404H83.0312C82.6712 158.404 82.3499 158.434 82.0674 158.493C81.7848 158.548 81.5479 158.632 81.3564 158.746C81.165 158.86 81.0192 159.004 80.9189 159.177C80.8187 159.345 80.7686 159.544 80.7686 159.771C80.7686 160.004 80.821 160.216 80.9258 160.407C81.0306 160.599 81.1878 160.751 81.3975 160.865C81.6117 160.975 81.8737 161.029 82.1836 161.029C82.571 161.029 82.9128 160.947 83.209 160.783C83.5052 160.619 83.7399 160.419 83.9131 160.182C84.0908 159.945 84.1865 159.715 84.2002 159.491L84.7402 160.1C84.7083 160.291 84.6217 160.503 84.4805 160.735C84.3392 160.968 84.1501 161.191 83.9131 161.405C83.6807 161.615 83.4027 161.79 83.0791 161.932C82.7601 162.068 82.4001 162.137 81.999 162.137C81.4977 162.137 81.0579 162.039 80.6797 161.843C80.306 161.647 80.0143 161.385 79.8047 161.057C79.5996 160.724 79.4971 160.353 79.4971 159.942C79.4971 159.546 79.5745 159.197 79.7295 158.896C79.8844 158.591 80.1077 158.338 80.3994 158.138C80.6911 157.933 81.042 157.778 81.4521 157.673C81.8623 157.568 82.3203 157.516 82.8262 157.516H84.2959ZM88.5957 155.766V162H87.3311V154.604H88.5615L88.5957 155.766ZM90.9062 154.562L90.8994 155.738C90.7946 155.715 90.6943 155.702 90.5986 155.697C90.5075 155.688 90.4027 155.684 90.2842 155.684C89.9925 155.684 89.735 155.729 89.5117 155.82C89.2884 155.911 89.0993 156.039 88.9443 156.203C88.7894 156.367 88.6663 156.563 88.5752 156.791C88.4886 157.014 88.4316 157.26 88.4043 157.529L88.0488 157.734C88.0488 157.288 88.0921 156.868 88.1787 156.477C88.2699 156.085 88.4089 155.738 88.5957 155.438C88.7826 155.132 89.0195 154.895 89.3066 154.727C89.5983 154.553 89.9447 154.467 90.3457 154.467C90.4368 154.467 90.5417 154.478 90.6602 154.501C90.7786 154.519 90.8607 154.54 90.9062 154.562ZM96.6006 160.564V151.5H97.8721V162H96.71L96.6006 160.564ZM91.624 158.384V158.24C91.624 157.675 91.6924 157.162 91.8291 156.702C91.9704 156.237 92.1686 155.839 92.4238 155.506C92.6836 155.173 92.9912 154.918 93.3467 154.74C93.7067 154.558 94.1077 154.467 94.5498 154.467C95.0146 154.467 95.4202 154.549 95.7666 154.713C96.1175 154.872 96.4137 155.107 96.6553 155.417C96.9014 155.722 97.0951 156.091 97.2363 156.524C97.3776 156.957 97.4756 157.447 97.5303 157.994V158.623C97.4801 159.165 97.3822 159.653 97.2363 160.086C97.0951 160.519 96.9014 160.888 96.6553 161.193C96.4137 161.499 96.1175 161.733 95.7666 161.897C95.4157 162.057 95.0055 162.137 94.5361 162.137C94.1032 162.137 93.7067 162.043 93.3467 161.856C92.9912 161.67 92.6836 161.408 92.4238 161.07C92.1686 160.733 91.9704 160.337 91.8291 159.881C91.6924 159.421 91.624 158.922 91.624 158.384ZM92.8955 158.24V158.384C92.8955 158.753 92.932 159.099 93.0049 159.423C93.0824 159.746 93.2008 160.031 93.3604 160.277C93.5199 160.523 93.7227 160.717 93.9688 160.858C94.2148 160.995 94.5088 161.063 94.8506 161.063C95.2699 161.063 95.6139 160.975 95.8828 160.797C96.1562 160.619 96.375 160.384 96.5391 160.093C96.7031 159.801 96.8307 159.484 96.9219 159.143V157.495C96.8672 157.244 96.7874 157.003 96.6826 156.771C96.5824 156.534 96.4502 156.324 96.2861 156.142C96.1266 155.955 95.9284 155.807 95.6914 155.697C95.459 155.588 95.1833 155.533 94.8643 155.533C94.5179 155.533 94.2194 155.606 93.9688 155.752C93.7227 155.893 93.5199 156.089 93.3604 156.34C93.2008 156.586 93.0824 156.873 93.0049 157.201C92.932 157.525 92.8955 157.871 92.8955 158.24Z" fill="#0A2540"/>
<defs>
<filter id="filter0_d_3450_10725" x="350" y="64" width="180" height="180" filterUnits="userSpaceOnUse" color-interpolation-filters="sRGB">
<feFlood flood-opacity="0" result="BackgroundImageFix"/>
<feColorMatrix in="SourceAlpha" type="matrix" values="0 0 0 0 0 0 0 0 0 0 0 0 0 0 0 0 0 0 127 0" result="hardAlpha"/>
<feMorphology radius="12" operator="erode" in="SourceAlpha" result="effect1_dropShadow_3450_10725"/>
<feOffset dy="32"/>
<feGaussianBlur stdDeviation="27"/>
<feColorMatrix type="matrix" values="0 0 0 0 0.0627451 0 0 0 0 0.0980392 0 0 0 0 0.156863 0 0 0 0.18 0"/>
<feBlend mode="normal" in2="BackgroundImageFix" result="effect1_dropShadow_3450_10725"/>
<feBlend mode="normal" in="SourceGraphic" in2="effect1_dropShadow_3450_10725" result="shape"/>
</filter>
<filter id="filter1_d_3450_10725" x="162" y="144" width="180" height="180" filterUnits="userSpaceOnUse" color-interpolation-filters="sRGB">
<feFlood flood-opacity="0" result="BackgroundImageFix"/>
<feColorMatrix in="SourceAlpha" type="matrix" values="0 0 0 0 0 0 0 0 0 0 0 0 0 0 0 0 0 0 127 0" result="hardAlpha"/>
<feMorphology radius="12" operator="erode" in="SourceAlpha" result="effect1_dropShadow_3450_10725"/>
<feOffset dy="32"/>
<feGaussianBlur stdDeviation="27"/>
<feColorMatrix type="matrix" values="0 0 0 0 0.0627451 0 0 0 0 0.0980392 0 0 0 0 0.156863 0 0 0 0.18 0"/>
<feBlend mode="normal" in2="BackgroundImageFix" result="effect1_dropShadow_3450_10725"/>
<feBlend mode="normal" in="SourceGraphic" in2="effect1_dropShadow_3450_10725" result="shape"/>
</filter>
<filter id="filter2_d_3450_10725" x="162" y="0" width="180" height="180" filterUnits="userSpaceOnUse" color-interpolation-filters="sRGB">
<feFlood flood-opacity="0" result="BackgroundImageFix"/>
<feColorMatrix in="SourceAlpha" type="matrix" values="0 0 0 0 0 0 0 0 0 0 0 0 0 0 0 0 0 0 127 0" result="hardAlpha"/>
<feMorphology radius="12" operator="erode" in="SourceAlpha" result="effect1_dropShadow_3450_10725"/>
<feOffset dy="32"/>
<feGaussianBlur stdDeviation="27"/>
<feColorMatrix type="matrix" values="0 0 0 0 0.0627451 0 0 0 0 0.0980392 0 0 0 0 0.156863 0 0 0 0.18 0"/>
<feBlend mode="normal" in2="BackgroundImageFix" result="effect1_dropShadow_3450_10725"/>
<feBlend mode="normal" in="SourceGraphic" in2="effect1_dropShadow_3450_10725" result="shape"/>
</filter>
<filter id="filter3_d_3450_10725" x="-26" y="72" width="180" height="180" filterUnits="userSpaceOnUse" color-interpolation-filters="sRGB">
<feFlood flood-opacity="0" result="BackgroundImageFix"/>
<feColorMatrix in="SourceAlpha" type="matrix" values="0 0 0 0 0 0 0 0 0 0 0 0 0 0 0 0 0 0 127 0" result="hardAlpha"/>
<feMorphology radius="12" operator="erode" in="SourceAlpha" result="effect1_dropShadow_3450_10725"/>
<feOffset dy="32"/>
<feGaussianBlur stdDeviation="27"/>
<feColorMatrix type="matrix" values="0 0 0 0 0.0627451 0 0 0 0 0.0980392 0 0 0 0 0.156863 0 0 0 0.18 0"/>
<feBlend mode="normal" in2="BackgroundImageFix" result="effect1_dropShadow_3450_10725"/>
<feBlend mode="normal" in="SourceGraphic" in2="effect1_dropShadow_3450_10725" result="shape"/>
</filter>
<radialGradient id="paint0_radial_3450_10725" cx="0" cy="0" r="1" gradientUnits="userSpaceOnUse" gradientTransform="translate(127.112 83.8824) rotate(90) scale(32.1187 51.003)">
<stop stop-color="#9966FF"/>
<stop offset="1" stop-color="#13EAE2"/>
</radialGradient>
<radialGradient id="paint1_radial_3450_10725" cx="0" cy="0" r="1" gradientUnits="userSpaceOnUse" gradientTransform="translate(127.112 168.118) rotate(-90) scale(32.1187 51.003)">
<stop stop-color="#9966FF"/>
<stop offset="1" stop-color="#13EAE2"/>
</radialGradient>
</defs>
</svg>
