<svg width="504" height="490" viewBox="0 0 504 490" fill="none" xmlns="http://www.w3.org/2000/svg">
<path d="M112 344.761H139.5C149.5 344.761 160.5 340.773 160.5 328.81C160.5 316.847 160.5 301.229 160.5 294.915C160.833 289.931 164.5 280.061 176.5 280.46C188.5 280.859 333.667 281.124 400.5 280.958C416 280.92 428 267.998 428 256.035C428 244.073 428 154.683 428 106M112 359.714H139.5C146.5 359.548 160.5 363.104 160.5 378.656C160.5 394.208 160.5 408.065 160.5 413.049C161.167 418.366 165.3 429 176.5 429C187.7 429 346.5 425.677 424.5 424.015C434.5 424.015 447 413.049 447 402.582C447 392.605 445.167 203.365 445 106" stroke="url(#paint0_radial_3452_10975)" stroke-width="1.5"
>     
    <animate attributeName="stroke-dasharray" from="0, 1000" to="1000, 0" dur="3s" fill="freeze"/>
  </path>

<g filter="url(#filter0_d_3452_10975)">
<rect x="16" y="306" width="96" height="96" rx="8" fill="white"/>
</g>
<path fill-rule="evenodd" clip-rule="evenodd" d="M64.0932 333.191C63.1492 333.191 62.298 332.622 61.9367 331.75C61.5754 330.877 61.775 329.873 62.4425 329.205C63.1099 328.538 64.1138 328.338 64.9859 328.699C65.8581 329.061 66.4268 329.912 66.4268 330.856C66.4257 332.145 65.3815 333.189 64.0932 333.191ZM64.0933 329.195C63.4213 329.195 62.8154 329.599 62.5583 330.22C62.301 330.841 62.4432 331.556 62.9184 332.031C63.3935 332.507 64.108 332.649 64.7288 332.391C65.3496 332.134 65.7543 331.528 65.7542 330.856C65.7532 329.939 65.0101 329.196 64.0933 329.195ZM67.8188 338.191H60.3676L60.0312 337.854C60.0312 336.403 60.8055 335.061 62.0622 334.335C63.319 333.61 64.8673 333.61 66.1242 334.335C67.381 335.061 68.1551 336.403 68.1551 337.854L67.8188 338.191ZM60.72 337.518H67.4666C67.2961 335.782 65.8369 334.459 64.0933 334.459C62.3496 334.459 60.8904 335.782 60.72 337.518Z" fill="#4ABCEB"/>
<path d="M69.8483 321C70.5408 321 71.1019 321.561 71.1019 322.254V344.746C71.1019 345.439 70.5408 346 69.8483 346H58.1521C57.4596 346 56.8984 345.439 56.8984 344.746V322.254C56.8984 321.561 57.4596 321 58.1521 321H69.8483Z" stroke="#20336B" stroke-linecap="round" stroke-linejoin="round"/>
<path d="M57.5234 325.439H70.0603" stroke="#20336B" stroke-linecap="square"/>
<path d="M58.1523 341.111H70.6892" stroke="#20336B" stroke-linecap="square"/>
<path d="M66.3017 322.682C66.648 322.682 66.9286 322.962 66.9286 323.308C66.9286 323.655 66.648 323.935 66.3017 323.935H61.287C60.9408 323.935 60.6602 323.655 60.6602 323.308C60.6602 322.962 60.9408 322.682 61.287 322.682H66.3017Z" fill="#20336B"/>
<g filter="url(#filter1_d_3452_10975)">
<path fill-rule="evenodd" clip-rule="evenodd" d="M63.168 343.619C63.168 342.927 63.7293 342.365 64.4217 342.365C65.114 342.365 65.6753 342.927 65.6753 343.619C65.6753 344.311 65.114 344.873 64.4217 344.873C63.7293 344.873 63.168 344.311 63.168 343.619Z" stroke="#20336B" stroke-width="0.6"/>
</g>
<path d="M34.2021 358.929L30.9072 368H29.5605L33.3545 358.047H34.2227L34.2021 358.929ZM36.9639 368L33.6621 358.929L33.6416 358.047H34.5098L38.3174 368H36.9639ZM36.793 364.315V365.396H31.2012V364.315H36.793ZM40.7236 362.183V368H39.459V360.604H40.6553L40.7236 362.183ZM40.4229 364.021L39.8965 364.001C39.901 363.495 39.9762 363.028 40.1221 362.6C40.2679 362.167 40.473 361.791 40.7373 361.472C41.0016 361.153 41.3161 360.907 41.6807 360.733C42.0498 360.556 42.4577 360.467 42.9043 360.467C43.2689 360.467 43.597 360.517 43.8887 360.617C44.1803 360.713 44.4287 360.868 44.6338 361.082C44.8434 361.296 45.0029 361.574 45.1123 361.916C45.2217 362.253 45.2764 362.666 45.2764 363.153V368H44.0049V363.14C44.0049 362.752 43.9479 362.442 43.834 362.21C43.7201 361.973 43.5537 361.802 43.335 361.697C43.1162 361.588 42.8473 361.533 42.5283 361.533C42.2139 361.533 41.9268 361.599 41.667 361.731C41.4118 361.864 41.1908 362.046 41.0039 362.278C40.8216 362.511 40.6781 362.777 40.5732 363.078C40.473 363.374 40.4229 363.689 40.4229 364.021ZM49.2754 367.234L51.333 360.604H52.6865L49.7197 369.142C49.6514 369.324 49.5602 369.52 49.4463 369.729C49.3369 369.944 49.1956 370.146 49.0225 370.338C48.8493 370.529 48.6396 370.684 48.3936 370.803C48.152 370.926 47.8626 370.987 47.5254 370.987C47.4251 370.987 47.2975 370.974 47.1426 370.946C46.9876 370.919 46.8783 370.896 46.8145 370.878L46.8076 369.853C46.8441 369.857 46.901 369.862 46.9785 369.866C47.0605 369.875 47.1175 369.88 47.1494 369.88C47.4365 369.88 47.6803 369.841 47.8809 369.764C48.0814 369.691 48.25 369.565 48.3867 369.388C48.528 369.215 48.6488 368.975 48.749 368.67L49.2754 367.234ZM47.7646 360.604L49.6855 366.346L50.0137 367.679L49.1045 368.144L46.3838 360.604H47.7646ZM57.9092 358.047H59.1875L62.4482 366.161L65.7021 358.047H66.9873L62.9404 368H61.9424L57.9092 358.047ZM57.4922 358.047H58.6201L58.8047 364.117V368H57.4922V358.047ZM66.2695 358.047H67.3975V368H66.085V364.117L66.2695 358.047ZM69.1885 364.384V364.227C69.1885 363.693 69.266 363.199 69.4209 362.743C69.5758 362.283 69.7992 361.884 70.0908 361.547C70.3825 361.205 70.7357 360.941 71.1504 360.754C71.5651 360.562 72.0299 360.467 72.5449 360.467C73.0645 360.467 73.5316 360.562 73.9463 360.754C74.3656 360.941 74.721 361.205 75.0127 361.547C75.3089 361.884 75.5345 362.283 75.6895 362.743C75.8444 363.199 75.9219 363.693 75.9219 364.227V364.384C75.9219 364.917 75.8444 365.411 75.6895 365.867C75.5345 366.323 75.3089 366.722 75.0127 367.063C74.721 367.401 74.3678 367.665 73.9531 367.856C73.543 368.043 73.0781 368.137 72.5586 368.137C72.0391 368.137 71.5719 368.043 71.1572 367.856C70.7425 367.665 70.387 367.401 70.0908 367.063C69.7992 366.722 69.5758 366.323 69.4209 365.867C69.266 365.411 69.1885 364.917 69.1885 364.384ZM70.4531 364.227V364.384C70.4531 364.753 70.4964 365.102 70.583 365.43C70.6696 365.753 70.7995 366.04 70.9727 366.291C71.1504 366.542 71.3714 366.74 71.6357 366.886C71.9001 367.027 72.2077 367.098 72.5586 367.098C72.9049 367.098 73.208 367.027 73.4678 366.886C73.7321 366.74 73.9508 366.542 74.124 366.291C74.2972 366.04 74.4271 365.753 74.5137 365.43C74.6048 365.102 74.6504 364.753 74.6504 364.384V364.227C74.6504 363.862 74.6048 363.518 74.5137 363.194C74.4271 362.866 74.2949 362.577 74.1172 362.326C73.944 362.071 73.7253 361.87 73.4609 361.725C73.2012 361.579 72.8958 361.506 72.5449 361.506C72.1986 361.506 71.8932 361.579 71.6289 361.725C71.3691 361.87 71.1504 362.071 70.9727 362.326C70.7995 362.577 70.6696 362.866 70.583 363.194C70.4964 363.518 70.4531 363.862 70.4531 364.227ZM77.501 357.5H78.7725V366.564L78.6631 368H77.501V357.5ZM83.7695 364.24V364.384C83.7695 364.922 83.7057 365.421 83.5781 365.881C83.4505 366.337 83.2637 366.733 83.0176 367.07C82.7715 367.408 82.4707 367.67 82.1152 367.856C81.7598 368.043 81.3519 368.137 80.8916 368.137C80.4222 368.137 80.0098 368.057 79.6543 367.897C79.3034 367.733 79.0072 367.499 78.7656 367.193C78.5241 366.888 78.3304 366.519 78.1846 366.086C78.0433 365.653 77.9453 365.165 77.8906 364.623V363.994C77.9453 363.447 78.0433 362.957 78.1846 362.524C78.3304 362.091 78.5241 361.722 78.7656 361.417C79.0072 361.107 79.3034 360.872 79.6543 360.713C80.0052 360.549 80.4131 360.467 80.8779 360.467C81.3428 360.467 81.7552 360.558 82.1152 360.74C82.4753 360.918 82.776 361.173 83.0176 361.506C83.2637 361.839 83.4505 362.237 83.5781 362.702C83.7057 363.162 83.7695 363.675 83.7695 364.24ZM82.498 364.384V364.24C82.498 363.871 82.4639 363.525 82.3955 363.201C82.3271 362.873 82.2178 362.586 82.0674 362.34C81.917 362.089 81.7188 361.893 81.4727 361.752C81.2266 361.606 80.9235 361.533 80.5635 361.533C80.2445 361.533 79.9665 361.588 79.7295 361.697C79.4971 361.807 79.2988 361.955 79.1348 362.142C78.9707 362.324 78.8363 362.534 78.7314 362.771C78.6312 363.003 78.556 363.244 78.5059 363.495V365.143C78.5788 365.462 78.6973 365.769 78.8613 366.065C79.0299 366.357 79.2533 366.596 79.5312 366.783C79.8138 366.97 80.1624 367.063 80.5771 367.063C80.9189 367.063 81.2106 366.995 81.4521 366.858C81.6982 366.717 81.8965 366.523 82.0469 366.277C82.2018 366.031 82.3158 365.746 82.3887 365.423C82.4616 365.099 82.498 364.753 82.498 364.384ZM86.7432 360.604V368H85.4717V360.604H86.7432ZM85.376 358.642C85.376 358.437 85.4375 358.263 85.5605 358.122C85.6882 357.981 85.875 357.91 86.1211 357.91C86.3626 357.91 86.5472 357.981 86.6748 358.122C86.807 358.263 86.873 358.437 86.873 358.642C86.873 358.838 86.807 359.006 86.6748 359.147C86.5472 359.284 86.3626 359.353 86.1211 359.353C85.875 359.353 85.6882 359.284 85.5605 359.147C85.4375 359.006 85.376 358.838 85.376 358.642ZM90.1475 357.5V368H88.876V357.5H90.1475ZM95.2471 368.137C94.7321 368.137 94.265 368.05 93.8457 367.877C93.431 367.699 93.0732 367.451 92.7725 367.132C92.4762 366.813 92.2484 366.435 92.0889 365.997C91.9294 365.56 91.8496 365.081 91.8496 364.562V364.274C91.8496 363.673 91.9385 363.137 92.1162 362.668C92.2939 362.194 92.5355 361.793 92.8408 361.465C93.1462 361.137 93.4925 360.888 93.8799 360.72C94.2673 360.551 94.6683 360.467 95.083 360.467C95.6117 360.467 96.0674 360.558 96.4502 360.74C96.8376 360.923 97.1543 361.178 97.4004 361.506C97.6465 361.829 97.8288 362.212 97.9473 362.654C98.0658 363.092 98.125 363.57 98.125 364.09V364.657H92.6016V363.625H96.8604V363.529C96.8421 363.201 96.7738 362.882 96.6553 362.572C96.5413 362.262 96.359 362.007 96.1084 361.807C95.8577 361.606 95.516 361.506 95.083 361.506C94.7959 361.506 94.5316 361.567 94.29 361.69C94.0485 361.809 93.8411 361.987 93.668 362.224C93.4948 362.461 93.3604 362.75 93.2646 363.092C93.1689 363.434 93.1211 363.828 93.1211 364.274V364.562C93.1211 364.912 93.1689 365.243 93.2646 365.553C93.3649 365.858 93.5085 366.127 93.6953 366.359C93.8867 366.592 94.1169 366.774 94.3857 366.906C94.6592 367.038 94.9691 367.104 95.3154 367.104C95.762 367.104 96.1403 367.013 96.4502 366.831C96.7601 366.649 97.0312 366.405 97.2637 366.1L98.0293 366.708C97.8698 366.95 97.667 367.18 97.4209 367.398C97.1748 367.617 96.8717 367.795 96.5117 367.932C96.1562 368.068 95.7347 368.137 95.2471 368.137ZM29.4512 381.345H26.9287L26.915 380.285H29.2051C29.5833 380.285 29.9137 380.221 30.1963 380.094C30.4788 379.966 30.6976 379.784 30.8525 379.547C31.012 379.305 31.0918 379.018 31.0918 378.686C31.0918 378.321 31.0212 378.025 30.8799 377.797C30.7432 377.564 30.5312 377.396 30.2441 377.291C29.9616 377.182 29.6016 377.127 29.1641 377.127H27.2227V386H25.9033V376.047H29.1641C29.6745 376.047 30.1302 376.099 30.5312 376.204C30.9323 376.304 31.2718 376.464 31.5498 376.683C31.8324 376.897 32.0465 377.17 32.1924 377.503C32.3382 377.836 32.4111 378.234 32.4111 378.699C32.4111 379.109 32.3063 379.481 32.0967 379.813C31.887 380.142 31.5954 380.41 31.2217 380.62C30.8525 380.83 30.4196 380.964 29.9229 381.023L29.4512 381.345ZM29.3896 386H26.4092L27.1543 384.927H29.3896C29.8089 384.927 30.1644 384.854 30.4561 384.708C30.7523 384.562 30.9779 384.357 31.1328 384.093C31.2878 383.824 31.3652 383.507 31.3652 383.143C31.3652 382.773 31.2992 382.454 31.167 382.186C31.0348 381.917 30.8275 381.709 30.5449 381.563C30.2624 381.418 29.8978 381.345 29.4512 381.345H27.5713L27.585 380.285H30.1553L30.4355 380.668C30.9141 380.709 31.3197 380.846 31.6523 381.078C31.985 381.306 32.238 381.598 32.4111 381.953C32.5889 382.309 32.6777 382.701 32.6777 383.129C32.6777 383.749 32.541 384.273 32.2676 384.701C31.9987 385.125 31.6182 385.449 31.126 385.672C30.6338 385.891 30.055 386 29.3896 386ZM38.7959 384.735V380.928C38.7959 380.636 38.7367 380.383 38.6182 380.169C38.5042 379.95 38.3311 379.782 38.0986 379.663C37.8662 379.545 37.5791 379.485 37.2373 379.485C36.9183 379.485 36.638 379.54 36.3965 379.649C36.1595 379.759 35.9727 379.902 35.8359 380.08C35.7038 380.258 35.6377 380.449 35.6377 380.654H34.373C34.373 380.39 34.4414 380.128 34.5781 379.868C34.7148 379.608 34.9108 379.374 35.166 379.164C35.4258 378.95 35.7357 378.781 36.0957 378.658C36.4603 378.531 36.8659 378.467 37.3125 378.467C37.8503 378.467 38.3242 378.558 38.7344 378.74C39.1491 378.923 39.4727 379.198 39.7051 379.567C39.9421 379.932 40.0605 380.39 40.0605 380.941V384.387C40.0605 384.633 40.0811 384.895 40.1221 385.173C40.1676 385.451 40.2337 385.69 40.3203 385.891V386H39.001C38.9372 385.854 38.887 385.66 38.8506 385.419C38.8141 385.173 38.7959 384.945 38.7959 384.735ZM39.0146 381.516L39.0283 382.404H37.75C37.39 382.404 37.0687 382.434 36.7861 382.493C36.5036 382.548 36.2666 382.632 36.0752 382.746C35.8838 382.86 35.738 383.004 35.6377 383.177C35.5374 383.345 35.4873 383.544 35.4873 383.771C35.4873 384.004 35.5397 384.216 35.6445 384.407C35.7493 384.599 35.9066 384.751 36.1162 384.865C36.3304 384.975 36.5924 385.029 36.9023 385.029C37.2897 385.029 37.6315 384.947 37.9277 384.783C38.224 384.619 38.4587 384.419 38.6318 384.182C38.8096 383.945 38.9053 383.715 38.9189 383.491L39.459 384.1C39.4271 384.291 39.3405 384.503 39.1992 384.735C39.0579 384.968 38.8688 385.191 38.6318 385.405C38.3994 385.615 38.1214 385.79 37.7979 385.932C37.4788 386.068 37.1188 386.137 36.7178 386.137C36.2165 386.137 35.7767 386.039 35.3984 385.843C35.0247 385.647 34.7331 385.385 34.5234 385.057C34.3184 384.724 34.2158 384.353 34.2158 383.942C34.2158 383.546 34.2933 383.197 34.4482 382.896C34.6032 382.591 34.8265 382.338 35.1182 382.138C35.4098 381.933 35.7607 381.778 36.1709 381.673C36.5811 381.568 37.0391 381.516 37.5449 381.516H39.0146ZM43.3145 380.183V386H42.0498V378.604H43.2461L43.3145 380.183ZM43.0137 382.021L42.4873 382.001C42.4919 381.495 42.5671 381.028 42.7129 380.6C42.8587 380.167 43.0638 379.791 43.3281 379.472C43.5924 379.153 43.9069 378.907 44.2715 378.733C44.6406 378.556 45.0485 378.467 45.4951 378.467C45.8597 378.467 46.1878 378.517 46.4795 378.617C46.7712 378.713 47.0195 378.868 47.2246 379.082C47.4342 379.296 47.5938 379.574 47.7031 379.916C47.8125 380.253 47.8672 380.666 47.8672 381.153V386H46.5957V381.14C46.5957 380.752 46.5387 380.442 46.4248 380.21C46.3109 379.973 46.1445 379.802 45.9258 379.697C45.707 379.588 45.4382 379.533 45.1191 379.533C44.8047 379.533 44.5176 379.599 44.2578 379.731C44.0026 379.864 43.7816 380.046 43.5947 380.278C43.4124 380.511 43.2689 380.777 43.1641 381.078C43.0638 381.374 43.0137 381.689 43.0137 382.021ZM51.0596 375.5V386H49.7881V375.5H51.0596ZM55.5781 378.604L52.3516 382.056L50.5469 383.929L50.4443 382.582L51.7363 381.037L54.0332 378.604H55.5781ZM54.4229 386L51.7842 382.473L52.4404 381.345L55.9131 386H54.4229ZM58.2578 378.604V386H56.9863V378.604H58.2578ZM56.8906 376.642C56.8906 376.437 56.9521 376.263 57.0752 376.122C57.2028 375.981 57.3896 375.91 57.6357 375.91C57.8773 375.91 58.0618 375.981 58.1895 376.122C58.3216 376.263 58.3877 376.437 58.3877 376.642C58.3877 376.838 58.3216 377.006 58.1895 377.147C58.0618 377.284 57.8773 377.353 57.6357 377.353C57.3896 377.353 57.2028 377.284 57.0752 377.147C56.9521 377.006 56.8906 376.838 56.8906 376.642ZM61.5527 380.183V386H60.2881V378.604H61.4844L61.5527 380.183ZM61.252 382.021L60.7256 382.001C60.7301 381.495 60.8053 381.028 60.9512 380.6C61.097 380.167 61.3021 379.791 61.5664 379.472C61.8307 379.153 62.1452 378.907 62.5098 378.733C62.8789 378.556 63.2868 378.467 63.7334 378.467C64.098 378.467 64.4261 378.517 64.7178 378.617C65.0094 378.713 65.2578 378.868 65.4629 379.082C65.6725 379.296 65.832 379.574 65.9414 379.916C66.0508 380.253 66.1055 380.666 66.1055 381.153V386H64.834V381.14C64.834 380.752 64.777 380.442 64.6631 380.21C64.5492 379.973 64.3828 379.802 64.1641 379.697C63.9453 379.588 63.6764 379.533 63.3574 379.533C63.043 379.533 62.7559 379.599 62.4961 379.731C62.2409 379.864 62.0199 380.046 61.833 380.278C61.6507 380.511 61.5072 380.777 61.4023 381.078C61.3021 381.374 61.252 381.689 61.252 382.021ZM72.8184 378.604H73.9668V385.843C73.9668 386.494 73.8346 387.05 73.5703 387.511C73.306 387.971 72.9368 388.32 72.4629 388.557C71.9935 388.798 71.4512 388.919 70.8359 388.919C70.5807 388.919 70.2799 388.878 69.9336 388.796C69.5918 388.718 69.2546 388.584 68.9219 388.393C68.5938 388.206 68.318 387.953 68.0947 387.634L68.7578 386.882C69.0677 387.256 69.3913 387.515 69.7285 387.661C70.0703 387.807 70.4076 387.88 70.7402 387.88C71.1413 387.88 71.4876 387.805 71.7793 387.654C72.071 387.504 72.2965 387.281 72.4561 386.984C72.6201 386.693 72.7021 386.333 72.7021 385.904V380.23L72.8184 378.604ZM67.7256 382.384V382.24C67.7256 381.675 67.7917 381.162 67.9238 380.702C68.0605 380.237 68.2542 379.839 68.5049 379.506C68.7601 379.173 69.0677 378.918 69.4277 378.74C69.7878 378.558 70.1934 378.467 70.6445 378.467C71.1094 378.467 71.515 378.549 71.8613 378.713C72.2122 378.872 72.5085 379.107 72.75 379.417C72.9961 379.722 73.1898 380.091 73.3311 380.524C73.4723 380.957 73.5703 381.447 73.625 381.994V382.623C73.5749 383.165 73.4769 383.653 73.3311 384.086C73.1898 384.519 72.9961 384.888 72.75 385.193C72.5085 385.499 72.2122 385.733 71.8613 385.897C71.5104 386.057 71.1003 386.137 70.6309 386.137C70.1888 386.137 69.7878 386.043 69.4277 385.856C69.0723 385.67 68.7669 385.408 68.5117 385.07C68.2565 384.733 68.0605 384.337 67.9238 383.881C67.7917 383.421 67.7256 382.922 67.7256 382.384ZM68.9902 382.24V382.384C68.9902 382.753 69.0267 383.099 69.0996 383.423C69.1771 383.746 69.2933 384.031 69.4482 384.277C69.6077 384.523 69.8105 384.717 70.0566 384.858C70.3027 384.995 70.5967 385.063 70.9385 385.063C71.3577 385.063 71.7041 384.975 71.9775 384.797C72.251 384.619 72.4674 384.384 72.627 384.093C72.791 383.801 72.9186 383.484 73.0098 383.143V381.495C72.9596 381.244 72.8822 381.003 72.7773 380.771C72.6771 380.534 72.5449 380.324 72.3809 380.142C72.2214 379.955 72.0231 379.807 71.7861 379.697C71.5492 379.588 71.2712 379.533 70.9521 379.533C70.6058 379.533 70.3073 379.606 70.0566 379.752C69.8105 379.893 69.6077 380.089 69.4482 380.34C69.2933 380.586 69.1771 380.873 69.0996 381.201C69.0267 381.525 68.9902 381.871 68.9902 382.24ZM83.2363 376.929L79.9414 386H78.5947L82.3887 376.047H83.2568L83.2363 376.929ZM85.998 386L82.6963 376.929L82.6758 376.047H83.5439L87.3516 386H85.998ZM85.8271 382.315V383.396H80.2354V382.315H85.8271ZM89.7578 380.025V388.844H88.4863V378.604H89.6484L89.7578 380.025ZM94.7412 382.24V382.384C94.7412 382.922 94.6774 383.421 94.5498 383.881C94.4222 384.337 94.2354 384.733 93.9893 385.07C93.7477 385.408 93.4492 385.67 93.0938 385.856C92.7383 386.043 92.3304 386.137 91.8701 386.137C91.4007 386.137 90.986 386.059 90.626 385.904C90.266 385.749 89.9606 385.524 89.71 385.228C89.4593 384.931 89.2588 384.576 89.1084 384.161C88.9626 383.746 88.8623 383.279 88.8076 382.76V381.994C88.8623 381.447 88.9648 380.957 89.1152 380.524C89.2656 380.091 89.4639 379.722 89.71 379.417C89.9606 379.107 90.2637 378.872 90.6191 378.713C90.9746 378.549 91.3848 378.467 91.8496 378.467C92.3145 378.467 92.7269 378.558 93.0869 378.74C93.4469 378.918 93.75 379.173 93.9961 379.506C94.2422 379.839 94.4268 380.237 94.5498 380.702C94.6774 381.162 94.7412 381.675 94.7412 382.24ZM93.4697 382.384V382.24C93.4697 381.871 93.431 381.525 93.3535 381.201C93.276 380.873 93.1553 380.586 92.9912 380.34C92.8317 380.089 92.6266 379.893 92.376 379.752C92.1253 379.606 91.8268 379.533 91.4805 379.533C91.1615 379.533 90.8835 379.588 90.6465 379.697C90.4141 379.807 90.2158 379.955 90.0518 380.142C89.8877 380.324 89.7533 380.534 89.6484 380.771C89.5482 381.003 89.473 381.244 89.4229 381.495V383.266C89.514 383.585 89.6416 383.885 89.8057 384.168C89.9697 384.446 90.1885 384.672 90.4619 384.845C90.7354 385.013 91.0794 385.098 91.4941 385.098C91.8359 385.098 92.1299 385.027 92.376 384.886C92.6266 384.74 92.8317 384.542 92.9912 384.291C93.1553 384.04 93.276 383.753 93.3535 383.43C93.431 383.102 93.4697 382.753 93.4697 382.384ZM97.6191 380.025V388.844H96.3477V378.604H97.5098L97.6191 380.025ZM102.603 382.24V382.384C102.603 382.922 102.539 383.421 102.411 383.881C102.284 384.337 102.097 384.733 101.851 385.07C101.609 385.408 101.311 385.67 100.955 385.856C100.6 386.043 100.192 386.137 99.7314 386.137C99.262 386.137 98.8473 386.059 98.4873 385.904C98.1273 385.749 97.8219 385.524 97.5713 385.228C97.3206 384.931 97.1201 384.576 96.9697 384.161C96.8239 383.746 96.7236 383.279 96.6689 382.76V381.994C96.7236 381.447 96.8262 380.957 96.9766 380.524C97.127 380.091 97.3252 379.722 97.5713 379.417C97.8219 379.107 98.125 378.872 98.4805 378.713C98.8359 378.549 99.2461 378.467 99.7109 378.467C100.176 378.467 100.588 378.558 100.948 378.74C101.308 378.918 101.611 379.173 101.857 379.506C102.104 379.839 102.288 380.237 102.411 380.702C102.539 381.162 102.603 381.675 102.603 382.24ZM101.331 382.384V382.24C101.331 381.871 101.292 381.525 101.215 381.201C101.137 380.873 101.017 380.586 100.853 380.34C100.693 380.089 100.488 379.893 100.237 379.752C99.9867 379.606 99.6882 379.533 99.3418 379.533C99.0228 379.533 98.7448 379.588 98.5078 379.697C98.2754 379.807 98.0771 379.955 97.9131 380.142C97.749 380.324 97.6146 380.534 97.5098 380.771C97.4095 381.003 97.3343 381.244 97.2842 381.495V383.266C97.3753 383.585 97.5029 383.885 97.667 384.168C97.8311 384.446 98.0498 384.672 98.3232 384.845C98.5967 385.013 98.9408 385.098 99.3555 385.098C99.6973 385.098 99.9912 385.027 100.237 384.886C100.488 384.74 100.693 384.542 100.853 384.291C101.017 384.04 101.137 383.753 101.215 383.43C101.292 383.102 101.331 382.753 101.331 382.384Z" fill="#0A2540"/>
<g filter="url(#filter2_d_3452_10975)">
<rect x="204" y="378" width="96" height="96" rx="8" fill="white"/>
</g>
<path d="M241.598 417.016L242.188 415.313C242.234 415.182 242.361 415.094 242.504 415.094H254.691C254.834 415.094 254.962 415.182 255.007 415.313L255.598 417.014" stroke="#223872" stroke-linecap="round" stroke-linejoin="round"/>
<path fill-rule="evenodd" clip-rule="evenodd" d="M242.93 408.057H254.263V415.097H242.93V408.057Z" stroke="#223872" stroke-linecap="round" stroke-linejoin="round"/>
<path d="M256.263 417.016H240.93" stroke="#223872" stroke-linecap="round" stroke-linejoin="round"/>
<path d="M244.93 408.057V415.097" stroke="#223872" stroke-linecap="round" stroke-linejoin="round"/>
<path d="M246.93 408.057V415.097" stroke="#223872" stroke-linecap="round" stroke-linejoin="round"/>
<path d="M250.266 408.057V415.097" stroke="#223872" stroke-linecap="round" stroke-linejoin="round"/>
<path d="M252.266 408.057V415.097" stroke="#223872" stroke-linecap="round" stroke-linejoin="round"/>
<path fill-rule="evenodd" clip-rule="evenodd" d="M255.509 406.385C255.559 406.241 255.496 406.082 255.359 406.006L248.761 402.385C248.658 402.328 248.531 402.328 248.428 402.385L241.828 406.004C241.69 406.08 241.627 406.238 241.677 406.383L242.187 407.837C242.232 407.968 242.359 408.056 242.503 408.056H254.689C254.833 408.056 254.96 407.968 255.005 407.837L255.509 406.385Z" stroke="#223872" stroke-linecap="round" stroke-linejoin="round"/>
<path d="M255.484 406.137H241.703" stroke="#223872" stroke-linecap="round" stroke-linejoin="round"/>
<path fill-rule="evenodd" clip-rule="evenodd" d="M253.562 399.911C253.562 397.199 255.761 395 258.473 395C261.185 395 263.384 397.199 263.384 399.911C263.384 402.623 261.185 404.821 258.473 404.821C255.761 404.821 253.562 402.623 253.562 399.911Z" stroke="#223872"/>
<path d="M255.562 399.355H261.623" stroke="#00BAF2" stroke-linecap="square"/>
<path d="M255.562 400.416H261.623" stroke="#00BAF2" stroke-linecap="square"/>
<path d="M260.409 402.008H259.803L257.378 397.766H256.734V402.008" stroke="#00BAF2" stroke-linecap="square"/>
<path d="M260.449 402.008V397.766" stroke="#00BAF2" stroke-linecap="square"/>
<path d="M258.719 405V410.862C258.719 411.414 258.271 411.862 257.719 411.862H254.602" stroke="#223872"/>
<path d="M253.656 411.829L255.76 410.306L255.666 413.474L253.656 411.829Z" fill="#223872"/>
<path d="M241.117 435.345H238.595L238.581 434.285H240.871C241.249 434.285 241.58 434.221 241.862 434.094C242.145 433.966 242.364 433.784 242.519 433.547C242.678 433.305 242.758 433.018 242.758 432.686C242.758 432.321 242.687 432.025 242.546 431.797C242.409 431.564 242.197 431.396 241.91 431.291C241.628 431.182 241.268 431.127 240.83 431.127H238.889V440H237.569V430.047H240.83C241.34 430.047 241.796 430.099 242.197 430.204C242.598 430.304 242.938 430.464 243.216 430.683C243.498 430.897 243.713 431.17 243.858 431.503C244.004 431.836 244.077 432.234 244.077 432.699C244.077 433.109 243.972 433.481 243.763 433.813C243.553 434.142 243.261 434.41 242.888 434.62C242.519 434.83 242.086 434.964 241.589 435.023L241.117 435.345ZM241.056 440H238.075L238.82 438.927H241.056C241.475 438.927 241.83 438.854 242.122 438.708C242.418 438.562 242.644 438.357 242.799 438.093C242.954 437.824 243.031 437.507 243.031 437.143C243.031 436.773 242.965 436.454 242.833 436.186C242.701 435.917 242.493 435.709 242.211 435.563C241.928 435.418 241.564 435.345 241.117 435.345H239.237L239.251 434.285H241.821L242.102 434.668C242.58 434.709 242.986 434.846 243.318 435.078C243.651 435.306 243.904 435.598 244.077 435.953C244.255 436.309 244.344 436.701 244.344 437.129C244.344 437.749 244.207 438.273 243.934 438.701C243.665 439.125 243.284 439.449 242.792 439.672C242.3 439.891 241.721 440 241.056 440ZM250.462 438.735V434.928C250.462 434.636 250.403 434.383 250.284 434.169C250.17 433.95 249.997 433.782 249.765 433.663C249.532 433.545 249.245 433.485 248.903 433.485C248.584 433.485 248.304 433.54 248.062 433.649C247.826 433.759 247.639 433.902 247.502 434.08C247.37 434.258 247.304 434.449 247.304 434.654H246.039C246.039 434.39 246.107 434.128 246.244 433.868C246.381 433.608 246.577 433.374 246.832 433.164C247.092 432.95 247.402 432.781 247.762 432.658C248.126 432.531 248.532 432.467 248.979 432.467C249.516 432.467 249.99 432.558 250.4 432.74C250.815 432.923 251.139 433.198 251.371 433.567C251.608 433.932 251.727 434.39 251.727 434.941V438.387C251.727 438.633 251.747 438.895 251.788 439.173C251.834 439.451 251.9 439.69 251.986 439.891V440H250.667C250.603 439.854 250.553 439.66 250.517 439.419C250.48 439.173 250.462 438.945 250.462 438.735ZM250.681 435.516L250.694 436.404H249.416C249.056 436.404 248.735 436.434 248.452 436.493C248.17 436.548 247.933 436.632 247.741 436.746C247.55 436.86 247.404 437.004 247.304 437.177C247.203 437.345 247.153 437.544 247.153 437.771C247.153 438.004 247.206 438.216 247.311 438.407C247.415 438.599 247.573 438.751 247.782 438.865C247.996 438.975 248.258 439.029 248.568 439.029C248.956 439.029 249.298 438.947 249.594 438.783C249.89 438.619 250.125 438.419 250.298 438.182C250.476 437.945 250.571 437.715 250.585 437.491L251.125 438.1C251.093 438.291 251.007 438.503 250.865 438.735C250.724 438.968 250.535 439.191 250.298 439.405C250.065 439.615 249.787 439.79 249.464 439.932C249.145 440.068 248.785 440.137 248.384 440.137C247.882 440.137 247.443 440.039 247.064 439.843C246.691 439.647 246.399 439.385 246.189 439.057C245.984 438.724 245.882 438.353 245.882 437.942C245.882 437.546 245.959 437.197 246.114 436.896C246.269 436.591 246.493 436.338 246.784 436.138C247.076 435.933 247.427 435.778 247.837 435.673C248.247 435.568 248.705 435.516 249.211 435.516H250.681ZM254.98 434.183V440H253.716V432.604H254.912L254.98 434.183ZM254.68 436.021L254.153 436.001C254.158 435.495 254.233 435.028 254.379 434.6C254.525 434.167 254.73 433.791 254.994 433.472C255.258 433.153 255.573 432.907 255.938 432.733C256.307 432.556 256.715 432.467 257.161 432.467C257.526 432.467 257.854 432.517 258.146 432.617C258.437 432.713 258.686 432.868 258.891 433.082C259.1 433.296 259.26 433.574 259.369 433.916C259.479 434.253 259.533 434.666 259.533 435.153V440H258.262V435.14C258.262 434.752 258.205 434.442 258.091 434.21C257.977 433.973 257.811 433.802 257.592 433.697C257.373 433.588 257.104 433.533 256.785 433.533C256.471 433.533 256.184 433.599 255.924 433.731C255.669 433.864 255.448 434.046 255.261 434.278C255.078 434.511 254.935 434.777 254.83 435.078C254.73 435.374 254.68 435.689 254.68 436.021ZM262.726 429.5V440H261.454V429.5H262.726ZM267.244 432.604L264.018 436.056L262.213 437.929L262.11 436.582L263.402 435.037L265.699 432.604H267.244ZM266.089 440L263.45 436.473L264.106 435.345L267.579 440H266.089ZM230.952 448.047V458H229.653V448.047H230.952ZM234.151 448.047V449.127H226.461V448.047H234.151ZM236.182 451.766V458H234.917V450.604H236.147L236.182 451.766ZM238.492 450.562L238.485 451.738C238.381 451.715 238.28 451.702 238.185 451.697C238.093 451.688 237.989 451.684 237.87 451.684C237.578 451.684 237.321 451.729 237.098 451.82C236.874 451.911 236.685 452.039 236.53 452.203C236.375 452.367 236.252 452.563 236.161 452.791C236.075 453.014 236.018 453.26 235.99 453.529L235.635 453.734C235.635 453.288 235.678 452.868 235.765 452.477C235.856 452.085 235.995 451.738 236.182 451.438C236.368 451.132 236.605 450.895 236.893 450.727C237.184 450.553 237.531 450.467 237.932 450.467C238.023 450.467 238.128 450.478 238.246 450.501C238.365 450.519 238.447 450.54 238.492 450.562ZM243.749 456.735V452.928C243.749 452.636 243.69 452.383 243.571 452.169C243.457 451.95 243.284 451.782 243.052 451.663C242.819 451.545 242.532 451.485 242.19 451.485C241.871 451.485 241.591 451.54 241.35 451.649C241.113 451.759 240.926 451.902 240.789 452.08C240.657 452.258 240.591 452.449 240.591 452.654H239.326C239.326 452.39 239.395 452.128 239.531 451.868C239.668 451.608 239.864 451.374 240.119 451.164C240.379 450.95 240.689 450.781 241.049 450.658C241.413 450.531 241.819 450.467 242.266 450.467C242.803 450.467 243.277 450.558 243.688 450.74C244.102 450.923 244.426 451.198 244.658 451.567C244.895 451.932 245.014 452.39 245.014 452.941V456.387C245.014 456.633 245.034 456.895 245.075 457.173C245.121 457.451 245.187 457.69 245.273 457.891V458H243.954C243.89 457.854 243.84 457.66 243.804 457.419C243.767 457.173 243.749 456.945 243.749 456.735ZM243.968 453.516L243.981 454.404H242.703C242.343 454.404 242.022 454.434 241.739 454.493C241.457 454.548 241.22 454.632 241.028 454.746C240.837 454.86 240.691 455.004 240.591 455.177C240.491 455.345 240.44 455.544 240.44 455.771C240.44 456.004 240.493 456.216 240.598 456.407C240.702 456.599 240.86 456.751 241.069 456.865C241.284 456.975 241.546 457.029 241.855 457.029C242.243 457.029 242.585 456.947 242.881 456.783C243.177 456.619 243.412 456.419 243.585 456.182C243.763 455.945 243.858 455.715 243.872 455.491L244.412 456.1C244.38 456.291 244.294 456.503 244.152 456.735C244.011 456.968 243.822 457.191 243.585 457.405C243.353 457.615 243.075 457.79 242.751 457.932C242.432 458.068 242.072 458.137 241.671 458.137C241.17 458.137 240.73 458.039 240.352 457.843C239.978 457.647 239.686 457.385 239.477 457.057C239.271 456.724 239.169 456.353 239.169 455.942C239.169 455.546 239.246 455.197 239.401 454.896C239.556 454.591 239.78 454.338 240.071 454.138C240.363 453.933 240.714 453.778 241.124 453.673C241.534 453.568 241.992 453.516 242.498 453.516H243.968ZM248.268 452.183V458H247.003V450.604H248.199L248.268 452.183ZM247.967 454.021L247.44 454.001C247.445 453.495 247.52 453.028 247.666 452.6C247.812 452.167 248.017 451.791 248.281 451.472C248.546 451.153 248.86 450.907 249.225 450.733C249.594 450.556 250.002 450.467 250.448 450.467C250.813 450.467 251.141 450.517 251.433 450.617C251.724 450.713 251.973 450.868 252.178 451.082C252.387 451.296 252.547 451.574 252.656 451.916C252.766 452.253 252.82 452.666 252.82 453.153V458H251.549V453.14C251.549 452.752 251.492 452.442 251.378 452.21C251.264 451.973 251.098 451.802 250.879 451.697C250.66 451.588 250.391 451.533 250.072 451.533C249.758 451.533 249.471 451.599 249.211 451.731C248.956 451.864 248.735 452.046 248.548 452.278C248.366 452.511 248.222 452.777 248.117 453.078C248.017 453.374 247.967 453.689 247.967 454.021ZM259.048 456.038C259.048 455.856 259.007 455.687 258.925 455.532C258.847 455.373 258.686 455.229 258.439 455.102C258.198 454.969 257.833 454.855 257.346 454.76C256.936 454.673 256.564 454.571 256.231 454.452C255.903 454.334 255.623 454.19 255.391 454.021C255.163 453.853 254.987 453.655 254.864 453.427C254.741 453.199 254.68 452.932 254.68 452.627C254.68 452.335 254.743 452.06 254.871 451.8C255.003 451.54 255.188 451.31 255.425 451.109C255.666 450.909 255.956 450.752 256.293 450.638C256.63 450.524 257.006 450.467 257.421 450.467C258.013 450.467 258.519 450.572 258.938 450.781C259.358 450.991 259.679 451.271 259.902 451.622C260.126 451.968 260.237 452.354 260.237 452.777H258.973C258.973 452.572 258.911 452.374 258.788 452.183C258.67 451.987 258.494 451.825 258.262 451.697C258.034 451.57 257.754 451.506 257.421 451.506C257.07 451.506 256.785 451.561 256.566 451.67C256.352 451.775 256.195 451.909 256.095 452.073C255.999 452.237 255.951 452.41 255.951 452.593C255.951 452.729 255.974 452.853 256.02 452.962C256.07 453.067 256.156 453.165 256.279 453.256C256.402 453.342 256.576 453.424 256.799 453.502C257.022 453.579 257.307 453.657 257.653 453.734C258.259 453.871 258.758 454.035 259.15 454.227C259.542 454.418 259.834 454.653 260.025 454.931C260.217 455.209 260.312 455.546 260.312 455.942C260.312 456.266 260.244 456.562 260.107 456.831C259.975 457.1 259.782 457.332 259.526 457.528C259.276 457.72 258.975 457.87 258.624 457.979C258.278 458.084 257.888 458.137 257.455 458.137C256.803 458.137 256.252 458.021 255.801 457.788C255.35 457.556 255.008 457.255 254.775 456.886C254.543 456.517 254.427 456.127 254.427 455.717H255.698C255.716 456.063 255.817 456.339 255.999 456.544C256.181 456.744 256.405 456.888 256.669 456.975C256.933 457.057 257.195 457.098 257.455 457.098C257.801 457.098 258.091 457.052 258.323 456.961C258.56 456.87 258.74 456.744 258.863 456.585C258.986 456.425 259.048 456.243 259.048 456.038ZM263.86 458H262.596V449.824C262.596 449.291 262.691 448.842 262.883 448.478C263.079 448.108 263.359 447.83 263.724 447.644C264.088 447.452 264.521 447.356 265.022 447.356C265.168 447.356 265.314 447.366 265.46 447.384C265.61 447.402 265.756 447.429 265.897 447.466L265.829 448.498C265.733 448.475 265.624 448.459 265.501 448.45C265.382 448.441 265.264 448.437 265.146 448.437C264.877 448.437 264.644 448.491 264.448 448.601C264.257 448.705 264.111 448.86 264.011 449.065C263.91 449.271 263.86 449.523 263.86 449.824V458ZM265.433 450.604V451.574H261.427V450.604H265.433ZM269.746 458.137C269.231 458.137 268.764 458.05 268.345 457.877C267.93 457.699 267.572 457.451 267.271 457.132C266.975 456.813 266.747 456.435 266.588 455.997C266.428 455.56 266.349 455.081 266.349 454.562V454.274C266.349 453.673 266.438 453.137 266.615 452.668C266.793 452.194 267.035 451.793 267.34 451.465C267.645 451.137 267.992 450.888 268.379 450.72C268.766 450.551 269.167 450.467 269.582 450.467C270.111 450.467 270.566 450.558 270.949 450.74C271.337 450.923 271.653 451.178 271.899 451.506C272.146 451.829 272.328 452.212 272.446 452.654C272.565 453.092 272.624 453.57 272.624 454.09V454.657H267.101V453.625H271.359V453.529C271.341 453.201 271.273 452.882 271.154 452.572C271.04 452.262 270.858 452.007 270.607 451.807C270.357 451.606 270.015 451.506 269.582 451.506C269.295 451.506 269.031 451.567 268.789 451.69C268.548 451.809 268.34 451.987 268.167 452.224C267.994 452.461 267.859 452.75 267.764 453.092C267.668 453.434 267.62 453.828 267.62 454.274V454.562C267.62 454.912 267.668 455.243 267.764 455.553C267.864 455.858 268.007 456.127 268.194 456.359C268.386 456.592 268.616 456.774 268.885 456.906C269.158 457.038 269.468 457.104 269.814 457.104C270.261 457.104 270.639 457.013 270.949 456.831C271.259 456.649 271.53 456.405 271.763 456.1L272.528 456.708C272.369 456.95 272.166 457.18 271.92 457.398C271.674 457.617 271.371 457.795 271.011 457.932C270.655 458.068 270.234 458.137 269.746 458.137ZM275.365 451.766V458H274.101V450.604H275.331L275.365 451.766ZM277.676 450.562L277.669 451.738C277.564 451.715 277.464 451.702 277.368 451.697C277.277 451.688 277.172 451.684 277.054 451.684C276.762 451.684 276.505 451.729 276.281 451.82C276.058 451.911 275.869 452.039 275.714 452.203C275.559 452.367 275.436 452.563 275.345 452.791C275.258 453.014 275.201 453.26 275.174 453.529L274.818 453.734C274.818 453.288 274.862 452.868 274.948 452.477C275.039 452.085 275.178 451.738 275.365 451.438C275.552 451.132 275.789 450.895 276.076 450.727C276.368 450.553 276.714 450.467 277.115 450.467C277.206 450.467 277.311 450.478 277.43 450.501C277.548 450.519 277.63 450.54 277.676 450.562Z" fill="#0A2540"/>
<g filter="url(#filter3_d_3452_10975)">
<rect x="204" y="234" width="96" height="96" rx="6" fill="white"/>
</g>
<path d="M252.249 282.801H236.445V258.801H260.445V275.194" stroke="#21366E" stroke-linecap="square"/>
<path d="M263.5 280L260.354 284.873C260.212 285.091 259.996 285.228 259.761 285.248C259.525 285.267 259.294 285.168 259.127 284.975L257.5 283.088" stroke="#3FAFE9" stroke-linecap="round" stroke-linejoin="round"/>
<path fill-rule="evenodd" clip-rule="evenodd" d="M253 283C253 278.858 256.358 275.5 260.5 275.5C264.642 275.5 268 278.858 268 283C268 287.142 264.642 290.5 260.5 290.5C256.358 290.5 253 287.142 253 283Z" stroke="#21366E" stroke-linecap="round" stroke-linejoin="round"/>
<path d="M241.305 276.832V278.063C241.305 278.408 241.585 278.688 241.93 278.688H243.16" stroke="#21366E" stroke-linecap="round" stroke-linejoin="round"/>
<path d="M243.16 263.812H241.93C241.585 263.812 241.305 264.092 241.305 264.438V265.668" stroke="#21366E" stroke-linecap="round" stroke-linejoin="round"/>
<path d="M255.684 265.668V264.438C255.684 264.092 255.404 263.812 255.059 263.812H253.828" stroke="#21366E" stroke-linecap="round" stroke-linejoin="round"/>
<path fill-rule="evenodd" clip-rule="evenodd" d="M244.43 267.188H247.805V270.563H244.43V267.188Z" stroke="#21366E" stroke-linecap="round" stroke-linejoin="round"/>
<path fill-rule="evenodd" clip-rule="evenodd" d="M250.68 267.188H254.055V270.563H250.68V267.188Z" stroke="#21366E" stroke-linecap="round" stroke-linejoin="round"/>
<path fill-rule="evenodd" clip-rule="evenodd" d="M244.43 273.438H247.805V276.812H244.43V273.438Z" stroke="#21366E" stroke-linecap="round" stroke-linejoin="round"/>
<path d="M250.746 273.25V274" stroke="#21366E" stroke-linecap="square"/>
<path d="M250.746 276.25V277" stroke="#21366E" stroke-linecap="square"/>
<path d="M253.746 276.25V277" stroke="#21366E" stroke-linecap="square"/>
<path d="M253.746 273.25V274" stroke="#21366E" stroke-linecap="square"/>
<path d="M252.246 274.75V275.5" stroke="#21366E" stroke-linecap="square"/>
<path d="M231.262 312.858L233.791 314.861L232.902 315.682L230.414 313.706L231.262 312.858ZM233.757 308.709V309.338C233.757 310.085 233.663 310.755 233.477 311.348C233.29 311.94 233.021 312.444 232.67 312.858C232.319 313.273 231.897 313.59 231.405 313.809C230.918 314.027 230.371 314.137 229.765 314.137C229.177 314.137 228.637 314.027 228.145 313.809C227.657 313.59 227.233 313.273 226.873 312.858C226.518 312.444 226.242 311.94 226.046 311.348C225.85 310.755 225.752 310.085 225.752 309.338V308.709C225.752 307.962 225.848 307.294 226.039 306.706C226.235 306.114 226.511 305.61 226.866 305.195C227.222 304.776 227.643 304.457 228.131 304.238C228.623 304.02 229.163 303.91 229.751 303.91C230.357 303.91 230.906 304.02 231.398 304.238C231.891 304.457 232.312 304.776 232.663 305.195C233.014 305.61 233.283 306.114 233.47 306.706C233.661 307.294 233.757 307.962 233.757 308.709ZM232.451 309.338V308.695C232.451 308.103 232.39 307.579 232.267 307.123C232.148 306.667 231.973 306.285 231.74 305.975C231.508 305.665 231.225 305.43 230.893 305.271C230.56 305.111 230.179 305.031 229.751 305.031C229.345 305.031 228.976 305.111 228.644 305.271C228.315 305.43 228.033 305.665 227.796 305.975C227.559 306.285 227.377 306.667 227.249 307.123C227.121 307.579 227.058 308.103 227.058 308.695V309.338C227.058 309.935 227.121 310.464 227.249 310.924C227.377 311.38 227.559 311.765 227.796 312.079C228.037 312.389 228.325 312.624 228.657 312.783C228.99 312.943 229.359 313.022 229.765 313.022C230.193 313.022 230.574 312.943 230.906 312.783C231.239 312.624 231.519 312.389 231.747 312.079C231.979 311.765 232.155 311.38 232.273 310.924C232.392 310.464 232.451 309.935 232.451 309.338ZM235.794 304.047H239.089C239.836 304.047 240.467 304.161 240.982 304.389C241.502 304.617 241.896 304.954 242.165 305.4C242.438 305.842 242.575 306.387 242.575 307.034C242.575 307.49 242.482 307.907 242.295 308.285C242.113 308.659 241.848 308.978 241.502 309.242C241.16 309.502 240.75 309.696 240.271 309.823L239.902 309.967H236.806L236.792 308.894H239.13C239.604 308.894 239.998 308.812 240.312 308.647C240.627 308.479 240.864 308.253 241.023 307.971C241.183 307.688 241.263 307.376 241.263 307.034C241.263 306.651 241.188 306.316 241.037 306.029C240.887 305.742 240.65 305.521 240.326 305.366C240.007 305.207 239.595 305.127 239.089 305.127H237.113V314H235.794V304.047ZM241.611 314L239.191 309.488L240.565 309.481L243.02 313.918V314H241.611ZM253.198 311.484C253.198 311.252 253.162 311.047 253.089 310.869C253.021 310.687 252.897 310.523 252.72 310.377C252.547 310.231 252.305 310.092 251.995 309.96C251.69 309.828 251.302 309.693 250.833 309.557C250.341 309.411 249.896 309.249 249.5 309.071C249.104 308.889 248.764 308.682 248.481 308.449C248.199 308.217 247.982 307.95 247.832 307.649C247.682 307.349 247.606 307.005 247.606 306.617C247.606 306.23 247.686 305.872 247.846 305.544C248.005 305.216 248.233 304.931 248.529 304.689C248.83 304.443 249.188 304.252 249.603 304.115C250.017 303.979 250.48 303.91 250.99 303.91C251.738 303.91 252.371 304.054 252.891 304.341C253.415 304.623 253.813 304.995 254.087 305.455C254.36 305.911 254.497 306.398 254.497 306.918H253.185C253.185 306.544 253.105 306.214 252.945 305.927C252.786 305.635 252.544 305.407 252.221 305.243C251.897 305.075 251.487 304.99 250.99 304.99C250.521 304.99 250.133 305.061 249.828 305.202C249.523 305.343 249.295 305.535 249.145 305.776C248.999 306.018 248.926 306.294 248.926 306.604C248.926 306.813 248.969 307.005 249.056 307.178C249.147 307.346 249.286 307.504 249.473 307.649C249.664 307.795 249.906 307.93 250.197 308.053C250.493 308.176 250.847 308.294 251.257 308.408C251.822 308.568 252.31 308.745 252.72 308.941C253.13 309.137 253.467 309.358 253.731 309.604C254 309.846 254.199 310.122 254.326 310.432C254.458 310.737 254.524 311.083 254.524 311.471C254.524 311.876 254.442 312.243 254.278 312.571C254.114 312.899 253.88 313.18 253.574 313.412C253.269 313.645 252.902 313.825 252.474 313.952C252.05 314.075 251.576 314.137 251.052 314.137C250.591 314.137 250.138 314.073 249.691 313.945C249.249 313.818 248.846 313.626 248.481 313.371C248.121 313.116 247.832 312.801 247.613 312.428C247.399 312.049 247.292 311.612 247.292 311.115H248.604C248.604 311.457 248.671 311.751 248.803 311.997C248.935 312.239 249.115 312.439 249.343 312.599C249.575 312.758 249.837 312.877 250.129 312.954C250.425 313.027 250.733 313.063 251.052 313.063C251.512 313.063 251.902 313 252.221 312.872C252.54 312.744 252.781 312.562 252.945 312.325C253.114 312.088 253.198 311.808 253.198 311.484ZM258.975 313.098C259.275 313.098 259.553 313.036 259.809 312.913C260.064 312.79 260.273 312.621 260.438 312.407C260.602 312.188 260.695 311.94 260.718 311.662H261.921C261.898 312.1 261.75 312.507 261.477 312.886C261.208 313.259 260.854 313.562 260.417 313.795C259.979 314.023 259.499 314.137 258.975 314.137C258.419 314.137 257.933 314.039 257.519 313.843C257.108 313.647 256.767 313.378 256.493 313.036C256.224 312.694 256.021 312.302 255.885 311.86C255.753 311.414 255.687 310.942 255.687 310.445V310.158C255.687 309.661 255.753 309.192 255.885 308.75C256.021 308.303 256.224 307.909 256.493 307.567C256.767 307.226 257.108 306.957 257.519 306.761C257.933 306.565 258.419 306.467 258.975 306.467C259.553 306.467 260.059 306.585 260.492 306.822C260.925 307.055 261.265 307.374 261.511 307.779C261.761 308.18 261.898 308.636 261.921 309.146H260.718C260.695 308.841 260.608 308.565 260.458 308.319C260.312 308.073 260.112 307.877 259.856 307.731C259.606 307.581 259.312 307.506 258.975 307.506C258.587 307.506 258.261 307.583 257.997 307.738C257.737 307.889 257.53 308.094 257.375 308.354C257.225 308.609 257.115 308.894 257.047 309.208C256.983 309.518 256.951 309.835 256.951 310.158V310.445C256.951 310.769 256.983 311.088 257.047 311.402C257.111 311.717 257.218 312.002 257.368 312.257C257.523 312.512 257.73 312.717 257.99 312.872C258.255 313.022 258.583 313.098 258.975 313.098ZM267.704 312.735V308.928C267.704 308.636 267.645 308.383 267.526 308.169C267.412 307.95 267.239 307.782 267.007 307.663C266.774 307.545 266.487 307.485 266.146 307.485C265.826 307.485 265.546 307.54 265.305 307.649C265.068 307.759 264.881 307.902 264.744 308.08C264.612 308.258 264.546 308.449 264.546 308.654H263.281C263.281 308.39 263.35 308.128 263.486 307.868C263.623 307.608 263.819 307.374 264.074 307.164C264.334 306.95 264.644 306.781 265.004 306.658C265.368 306.531 265.774 306.467 266.221 306.467C266.758 306.467 267.232 306.558 267.643 306.74C268.057 306.923 268.381 307.198 268.613 307.567C268.85 307.932 268.969 308.39 268.969 308.941V312.387C268.969 312.633 268.989 312.895 269.03 313.173C269.076 313.451 269.142 313.69 269.229 313.891V314H267.909C267.845 313.854 267.795 313.66 267.759 313.419C267.722 313.173 267.704 312.945 267.704 312.735ZM267.923 309.516L267.937 310.404H266.658C266.298 310.404 265.977 310.434 265.694 310.493C265.412 310.548 265.175 310.632 264.983 310.746C264.792 310.86 264.646 311.004 264.546 311.177C264.446 311.345 264.396 311.544 264.396 311.771C264.396 312.004 264.448 312.216 264.553 312.407C264.658 312.599 264.815 312.751 265.024 312.865C265.239 312.975 265.501 313.029 265.811 313.029C266.198 313.029 266.54 312.947 266.836 312.783C267.132 312.619 267.367 312.419 267.54 312.182C267.718 311.945 267.813 311.715 267.827 311.491L268.367 312.1C268.335 312.291 268.249 312.503 268.107 312.735C267.966 312.968 267.777 313.191 267.54 313.405C267.308 313.615 267.03 313.79 266.706 313.932C266.387 314.068 266.027 314.137 265.626 314.137C265.125 314.137 264.685 314.039 264.307 313.843C263.933 313.647 263.641 313.385 263.432 313.057C263.227 312.724 263.124 312.353 263.124 311.942C263.124 311.546 263.201 311.197 263.356 310.896C263.511 310.591 263.735 310.338 264.026 310.138C264.318 309.933 264.669 309.778 265.079 309.673C265.489 309.568 265.947 309.516 266.453 309.516H267.923ZM272.223 308.183V314H270.958V306.604H272.154L272.223 308.183ZM271.922 310.021L271.396 310.001C271.4 309.495 271.475 309.028 271.621 308.6C271.767 308.167 271.972 307.791 272.236 307.472C272.501 307.153 272.815 306.907 273.18 306.733C273.549 306.556 273.957 306.467 274.403 306.467C274.768 306.467 275.096 306.517 275.388 306.617C275.679 306.713 275.928 306.868 276.133 307.082C276.342 307.296 276.502 307.574 276.611 307.916C276.721 308.253 276.775 308.666 276.775 309.153V314H275.504V309.14C275.504 308.752 275.447 308.442 275.333 308.21C275.219 307.973 275.053 307.802 274.834 307.697C274.615 307.588 274.346 307.533 274.027 307.533C273.713 307.533 273.426 307.599 273.166 307.731C272.911 307.864 272.69 308.046 272.503 308.278C272.321 308.511 272.177 308.777 272.072 309.078C271.972 309.374 271.922 309.689 271.922 310.021Z" fill="#0A2540"/>
<g filter="url(#filter4_d_3452_10975)">
<rect x="392" y="10" width="96" height="96" rx="8" fill="white"/>
</g>
<mask id="path-45-outside-1_3452_10975" maskUnits="userSpaceOnUse" x="429.102" y="28.7109" width="10" height="9" fill="black">
<rect fill="white" x="429.102" y="28.7109" width="10" height="9"/>
<path fill-rule="evenodd" clip-rule="evenodd" d="M435.521 34.6707C435.554 34.709 435.596 34.7379 435.645 34.7541C436.72 35.1321 438.125 35.7808 438.314 37.1152H437.757C437.61 36.3385 436.884 35.7555 435.458 35.2537C435.315 35.2041 435.19 35.1178 435.095 35.0042C435 34.8906 434.938 34.754 434.918 34.6092C434.897 34.466 434.918 34.32 434.977 34.1872C435.036 34.0544 435.132 33.9397 435.253 33.8556C435.554 33.6472 435.859 32.8878 435.859 32.6368V31.917C435.866 31.4927 435.704 31.0821 435.406 30.7704C435.108 30.4587 434.697 30.2701 434.259 30.2437C434.038 30.2371 433.818 30.2735 433.611 30.3507C433.405 30.4279 433.217 30.5443 433.058 30.6932C432.899 30.842 432.773 31.0201 432.687 31.2169C432.601 31.4138 432.557 31.6254 432.557 31.8391V32.6368C432.557 32.8878 432.861 33.6472 433.162 33.8559C433.284 33.9399 433.38 34.0545 433.439 34.1873C433.498 34.3202 433.519 34.4662 433.498 34.6095C433.478 34.7543 433.417 34.8909 433.321 35.0045C433.226 35.1181 433.101 35.2044 432.958 35.254C431.53 35.7556 430.805 36.3385 430.659 37.1152H430.102C430.29 35.7808 431.695 35.1321 432.769 34.7541C432.818 34.7379 432.861 34.709 432.893 34.6707C432.925 34.6323 432.946 34.5859 432.952 34.5369C432.96 34.4895 432.954 34.4411 432.934 34.3971C432.915 34.3531 432.883 34.3152 432.842 34.2877C432.389 33.9732 432.006 33.05 432.006 32.6368V31.8391C432.006 31.5542 432.065 31.2721 432.18 31.0097C432.295 30.7472 432.463 30.5098 432.675 30.3114C432.887 30.113 433.137 29.9577 433.412 29.8547C433.687 29.7517 433.981 29.7032 434.275 29.7119C434.856 29.7433 435.402 29.9901 435.8 30.4009C436.197 30.8116 436.415 31.3547 436.409 31.917V32.6368C436.409 33.05 436.026 33.9732 435.572 34.2877C435.531 34.3152 435.499 34.3531 435.48 34.3971C435.461 34.4411 435.454 34.4896 435.462 34.5369C435.468 34.5859 435.489 34.6323 435.521 34.6707Z"/>
</mask>
<path fill-rule="evenodd" clip-rule="evenodd" d="M435.521 34.6707C435.554 34.709 435.596 34.7379 435.645 34.7541C436.72 35.1321 438.125 35.7808 438.314 37.1152H437.757C437.61 36.3385 436.884 35.7555 435.458 35.2537C435.315 35.2041 435.19 35.1178 435.095 35.0042C435 34.8906 434.938 34.754 434.918 34.6092C434.897 34.466 434.918 34.32 434.977 34.1872C435.036 34.0544 435.132 33.9397 435.253 33.8556C435.554 33.6472 435.859 32.8878 435.859 32.6368V31.917C435.866 31.4927 435.704 31.0821 435.406 30.7704C435.108 30.4587 434.697 30.2701 434.259 30.2437C434.038 30.2371 433.818 30.2735 433.611 30.3507C433.405 30.4279 433.217 30.5443 433.058 30.6932C432.899 30.842 432.773 31.0201 432.687 31.2169C432.601 31.4138 432.557 31.6254 432.557 31.8391V32.6368C432.557 32.8878 432.861 33.6472 433.162 33.8559C433.284 33.9399 433.38 34.0545 433.439 34.1873C433.498 34.3202 433.519 34.4662 433.498 34.6095C433.478 34.7543 433.417 34.8909 433.321 35.0045C433.226 35.1181 433.101 35.2044 432.958 35.254C431.53 35.7556 430.805 36.3385 430.659 37.1152H430.102C430.29 35.7808 431.695 35.1321 432.769 34.7541C432.818 34.7379 432.861 34.709 432.893 34.6707C432.925 34.6323 432.946 34.5859 432.952 34.5369C432.96 34.4895 432.954 34.4411 432.934 34.3971C432.915 34.3531 432.883 34.3152 432.842 34.2877C432.389 33.9732 432.006 33.05 432.006 32.6368V31.8391C432.006 31.5542 432.065 31.2721 432.18 31.0097C432.295 30.7472 432.463 30.5098 432.675 30.3114C432.887 30.113 433.137 29.9577 433.412 29.8547C433.687 29.7517 433.981 29.7032 434.275 29.7119C434.856 29.7433 435.402 29.9901 435.8 30.4009C436.197 30.8116 436.415 31.3547 436.409 31.917V32.6368C436.409 33.05 436.026 33.9732 435.572 34.2877C435.531 34.3152 435.499 34.3531 435.48 34.3971C435.461 34.4411 435.454 34.4896 435.462 34.5369C435.468 34.5859 435.489 34.6323 435.521 34.6707Z" fill="#21366E"/>
<path d="M435.645 34.7541L435.711 34.5654L435.708 34.5644L435.645 34.7541ZM435.521 34.6707L435.368 34.7995L435.368 34.7995L435.521 34.6707ZM438.314 37.1152V37.3152H438.544L438.512 37.0872L438.314 37.1152ZM437.757 37.1152L437.56 37.1523L437.591 37.3152H437.757V37.1152ZM435.458 35.2537L435.524 35.0651L435.524 35.0649L435.458 35.2537ZM435.095 35.0042L434.941 35.1326L434.941 35.1326L435.095 35.0042ZM434.918 34.6092L435.116 34.581L435.116 34.5808L434.918 34.6092ZM435.253 33.8556L435.367 34.0202L435.367 34.0201L435.253 33.8556ZM435.859 31.917L435.659 31.9135V31.917H435.859ZM435.406 30.7704L435.261 30.9086V30.9086L435.406 30.7704ZM434.259 30.2437L434.271 30.044L434.265 30.0438L434.259 30.2437ZM433.611 30.3507L433.541 30.1634V30.1634L433.611 30.3507ZM433.058 30.6932L433.195 30.8391L433.195 30.8391L433.058 30.6932ZM432.687 31.2169L432.504 31.1368L432.687 31.2169ZM432.557 31.8391H432.757L432.757 31.839L432.557 31.8391ZM433.162 33.8559L433.048 34.0203L433.049 34.0206L433.162 33.8559ZM433.439 34.1873L433.622 34.1058L433.622 34.1058L433.439 34.1873ZM433.498 34.6095L433.3 34.5812L433.3 34.5813L433.498 34.6095ZM433.321 35.0045L433.168 34.876L433.168 34.876L433.321 35.0045ZM432.958 35.254L432.893 35.0651L432.892 35.0653L432.958 35.254ZM430.659 37.1152V37.3152H430.824L430.855 37.1522L430.659 37.1152ZM430.102 37.1152L429.904 37.0872L429.871 37.3152H430.102V37.1152ZM432.769 34.7541L432.706 34.5644L432.703 34.5654L432.769 34.7541ZM432.952 34.5369L432.755 34.5053L432.754 34.5104L432.952 34.5369ZM432.842 34.2877L432.728 34.4521L432.73 34.4534L432.842 34.2877ZM432.006 31.8391H432.206V31.839L432.006 31.8391ZM432.18 31.0097L432.363 31.0898V31.0898L432.18 31.0097ZM432.675 30.3114L432.538 30.1655L432.538 30.1655L432.675 30.3114ZM433.412 29.8547L433.482 30.042L433.412 29.8547ZM434.275 29.7119L434.286 29.5122L434.281 29.512L434.275 29.7119ZM435.8 30.4009L435.656 30.5399L435.8 30.4009ZM436.409 31.917L436.209 31.9147V31.917H436.409ZM435.572 34.2877L435.684 34.4533L435.686 34.4522L435.572 34.2877ZM435.48 34.3971L435.297 34.3163L435.297 34.3163L435.48 34.3971ZM435.462 34.5369L435.66 34.5104L435.659 34.5054L435.462 34.5369ZM435.708 34.5644C435.694 34.5597 435.682 34.5516 435.674 34.5418L435.368 34.7995C435.425 34.8665 435.499 34.9162 435.581 34.9438L435.708 34.5644ZM438.512 37.0872C438.408 36.3497 437.967 35.8112 437.431 35.4152C436.897 35.0208 436.254 34.7563 435.711 34.5654L435.578 34.9428C436.111 35.13 436.708 35.3788 437.193 35.7369C437.675 36.0933 438.031 36.5463 438.116 37.1432L438.512 37.0872ZM437.757 37.3152H438.314V36.9152H437.757V37.3152ZM435.391 35.4424C436.811 35.9419 437.436 36.4917 437.56 37.1523L437.953 37.0782C437.785 36.1852 436.957 35.5692 435.524 35.0651L435.391 35.4424ZM434.941 35.1326C435.06 35.2744 435.216 35.3813 435.392 35.4426L435.524 35.0649C435.415 35.0269 435.32 34.9612 435.248 34.8758L434.941 35.1326ZM434.72 34.6373C434.746 34.8196 434.823 34.9908 434.941 35.1326L435.248 34.8758C435.177 34.7904 435.131 34.6884 435.116 34.581L434.72 34.6373ZM434.794 34.1059C434.72 34.2729 434.694 34.4569 434.72 34.6376L435.116 34.5808C435.101 34.4751 435.116 34.3672 435.16 34.2686L434.794 34.1059ZM435.14 33.6911C434.988 33.7957 434.868 33.9389 434.794 34.1059L435.16 34.2686C435.203 34.1699 435.275 34.0838 435.367 34.0202L435.14 33.6911ZM435.659 32.6368C435.659 32.6691 435.647 32.7406 435.615 32.8458C435.585 32.9461 435.54 33.0625 435.487 33.1786C435.434 33.2949 435.373 33.4071 435.309 33.5003C435.244 33.5962 435.185 33.6595 435.139 33.6912L435.367 34.0201C435.472 33.9475 435.564 33.8377 435.64 33.7248C435.719 33.6092 435.79 33.4767 435.851 33.3457C435.911 33.2145 435.962 33.081 435.998 32.9618C436.032 32.8475 436.059 32.7299 436.059 32.6368H435.659ZM435.659 31.917V32.6368H436.059V31.917H435.659ZM435.261 30.9086C435.524 31.1829 435.665 31.5429 435.659 31.9135L436.059 31.9205C436.067 31.4426 435.884 30.9813 435.55 30.6322L435.261 30.9086ZM434.247 30.4434C434.636 30.4668 434.999 30.6341 435.261 30.9086L435.55 30.6322C435.217 30.2833 434.758 30.0734 434.271 30.0441L434.247 30.4434ZM433.681 30.538C433.863 30.4699 434.058 30.4378 434.253 30.4436L434.265 30.0438C434.018 30.0364 433.772 30.077 433.541 30.1634L433.681 30.538ZM433.195 30.8391C433.334 30.7085 433.5 30.606 433.681 30.538L433.541 30.1634C433.311 30.2497 433.1 30.3801 432.921 30.5472L433.195 30.8391ZM432.87 31.2971C432.945 31.1254 433.056 30.9696 433.195 30.8391L432.921 30.5472C432.743 30.7143 432.601 30.9147 432.504 31.1368L432.87 31.2971ZM432.757 31.839C432.757 31.6531 432.795 31.4688 432.87 31.2971L432.504 31.1368C432.407 31.3588 432.357 31.5977 432.357 31.8392L432.757 31.839ZM432.757 32.6368V31.8391H432.357V32.6368H432.757ZM433.276 33.6916C433.23 33.6598 433.171 33.5964 433.106 33.5004C433.043 33.4072 432.982 33.295 432.928 33.1787C432.875 33.0625 432.831 32.9461 432.8 32.8458C432.769 32.7406 432.757 32.6691 432.757 32.6368H432.357C432.357 32.7299 432.383 32.8475 432.418 32.9618C432.454 33.081 432.504 33.2145 432.565 33.3457C432.625 33.4767 432.696 33.6092 432.775 33.7249C432.852 33.8379 432.943 33.9477 433.048 34.0203L433.276 33.6916ZM433.622 34.1058C433.547 33.9388 433.427 33.7957 433.276 33.6912L433.049 34.0206C433.141 34.0841 433.212 34.1702 433.256 34.2688L433.622 34.1058ZM433.696 34.6377C433.722 34.4569 433.696 34.2729 433.622 34.1058L433.256 34.2688C433.3 34.3674 433.315 34.4754 433.3 34.5812L433.696 34.6377ZM433.475 35.1329C433.593 34.9911 433.67 34.8199 433.696 34.6376L433.3 34.5813C433.285 34.6887 433.24 34.7906 433.168 34.876L433.475 35.1329ZM433.024 35.4428C433.2 35.3815 433.356 35.2746 433.475 35.1329L433.168 34.876C433.096 34.9615 433.001 35.0272 432.893 35.0651L433.024 35.4428ZM430.855 37.1522C430.98 36.4917 431.603 35.9419 433.025 35.4427L432.892 35.0653C431.457 35.5692 430.63 36.1852 430.462 37.0782L430.855 37.1522ZM430.102 37.3152H430.659V36.9152H430.102V37.3152ZM432.703 34.5654C432.161 34.7563 431.518 35.0208 430.984 35.4152C430.449 35.8112 430.008 36.3497 429.904 37.0872L430.3 37.1432C430.384 36.5463 430.74 36.0933 431.222 35.7369C431.707 35.3788 432.304 35.13 432.836 34.9428L432.703 34.5654ZM432.74 34.5418C432.732 34.5516 432.72 34.5597 432.706 34.5644L432.833 34.9438C432.915 34.9162 432.989 34.8665 433.046 34.7995L432.74 34.5418ZM432.754 34.5104C432.753 34.5212 432.748 34.5321 432.74 34.5418L433.046 34.7995C433.102 34.7324 433.139 34.6507 433.151 34.5634L432.754 34.5104ZM432.751 34.4779C432.755 34.4868 432.756 34.4962 432.755 34.5053L433.15 34.5684C433.164 34.4829 433.152 34.3954 433.117 34.3163L432.751 34.4779ZM432.73 34.4534C432.74 34.4602 432.747 34.4689 432.751 34.4779L433.117 34.3163C433.082 34.2372 433.026 34.1702 432.954 34.122L432.73 34.4534ZM431.806 32.6368C431.806 32.8869 431.916 33.2526 432.074 33.5848C432.231 33.9168 432.458 34.2647 432.728 34.4521L432.956 34.1234C432.773 33.9962 432.583 33.7252 432.435 33.4137C432.288 33.1023 432.206 32.7999 432.206 32.6368H431.806ZM431.806 31.8391V32.6368H432.206V31.8391H431.806ZM431.997 30.9295C431.871 31.2171 431.806 31.5265 431.806 31.8392L432.206 31.839C432.206 31.5819 432.26 31.3271 432.363 31.0898L431.997 30.9295ZM432.538 30.1655C432.307 30.3822 432.123 30.6419 431.997 30.9295L432.363 31.0898C432.467 30.8526 432.62 30.6374 432.812 30.4573L432.538 30.1655ZM433.342 29.6674C433.043 29.7795 432.769 29.9488 432.538 30.1655L432.812 30.4573C433.004 30.2772 433.232 30.1358 433.482 30.042L433.342 29.6674ZM434.281 29.512C433.961 29.5025 433.641 29.5553 433.342 29.6674L433.482 30.042C433.733 29.9482 434.001 29.9039 434.269 29.9119L434.281 29.512ZM435.944 30.2618C435.51 29.8141 434.917 29.5463 434.286 29.5122L434.265 29.9117C434.796 29.9404 435.294 30.1662 435.656 30.5399L435.944 30.2618ZM436.609 31.9193C436.616 31.3034 436.377 30.7097 435.944 30.2618L435.656 30.5399C436.018 30.9135 436.215 31.406 436.209 31.9147L436.609 31.9193ZM436.609 32.6368V31.917H436.209V32.6368H436.609ZM435.686 34.4522C435.956 34.2648 436.184 33.9169 436.342 33.5849C436.499 33.2527 436.609 32.8869 436.609 32.6368H436.209C436.209 32.7999 436.128 33.1023 435.98 33.4136C435.833 33.7251 435.642 33.9961 435.458 34.1233L435.686 34.4522ZM435.663 34.4779C435.667 34.4689 435.674 34.4601 435.684 34.4533L435.46 34.1221C435.389 34.1702 435.332 34.2373 435.297 34.3163L435.663 34.4779ZM435.659 34.5054C435.658 34.4963 435.659 34.4869 435.663 34.4779L435.297 34.3163C435.262 34.3954 435.251 34.4828 435.264 34.5683L435.659 34.5054ZM435.674 34.5418C435.666 34.5321 435.661 34.5212 435.66 34.5104L435.264 34.5634C435.275 34.6507 435.312 34.7324 435.368 34.7995L435.674 34.5418Z" fill="#21366E" mask="url(#path-45-outside-1_3452_10975)"/>
<path d="M430.375 37.1797C433.16 38.8769 434.9 38.8769 438.033 37.1797" stroke="#21366E" stroke-linecap="round"/>
<path fill-rule="evenodd" clip-rule="evenodd" d="M439.605 35.6505C439.22 35.6505 438.991 35.1947 439.166 34.8512C439.502 34.1936 439.69 33.456 439.69 32.681C439.69 29.9854 437.419 27.7422 434.544 27.7422C431.67 27.7422 429.398 29.9854 429.398 32.681C429.398 33.456 429.586 34.1936 429.922 34.8512C430.097 35.1947 429.869 35.6505 429.483 35.6505C429.32 35.6505 429.168 35.5658 429.091 35.4227C428.649 34.6025 428.398 33.67 428.398 32.681C428.398 29.4011 431.15 26.7422 434.544 26.7422C437.938 26.7422 440.69 29.4011 440.69 32.681C440.69 33.67 440.44 34.6025 439.997 35.4227C439.92 35.5658 439.768 35.6505 439.605 35.6505Z" fill="#21366E"/>
<mask id="path-49-outside-2_3452_10975" maskUnits="userSpaceOnUse" x="440.012" y="39.1035" width="10" height="9" fill="black">
<rect fill="white" x="440.012" y="39.1035" width="10" height="9"/>
<path fill-rule="evenodd" clip-rule="evenodd" d="M446.431 45.0632C446.464 45.1016 446.507 45.1305 446.555 45.1467C447.63 45.5247 449.035 46.1734 449.224 47.5078H448.667C448.521 46.7311 447.794 46.1481 446.368 45.6463C446.226 45.5967 446.1 45.5104 446.005 45.3968C445.91 45.2832 445.849 45.1466 445.828 45.0018C445.807 44.8585 445.828 44.7126 445.887 44.5798C445.946 44.447 446.042 44.3323 446.163 44.2482C446.464 44.0398 446.769 43.2804 446.769 43.0294V42.3096C446.776 41.8853 446.614 41.4746 446.316 41.163C446.018 40.8513 445.607 40.6627 445.169 40.6363C444.948 40.6297 444.728 40.6661 444.521 40.7433C444.315 40.8205 444.127 40.9369 443.968 41.0857C443.81 41.2345 443.683 41.4127 443.597 41.6095C443.511 41.8064 443.467 42.0179 443.467 42.2317V43.0294C443.467 43.2804 443.771 44.0398 444.072 44.2485C444.194 44.3325 444.29 44.4471 444.349 44.5799C444.408 44.7128 444.429 44.8587 444.408 45.002C444.388 45.1468 444.327 45.2834 444.232 45.397C444.136 45.5107 444.011 45.5969 443.869 45.6466C442.44 46.1481 441.715 46.7311 441.569 47.5078H441.012C441.2 46.1734 442.605 45.5247 443.68 45.1467C443.728 45.1305 443.771 45.1016 443.803 45.0632C443.835 45.0249 443.856 44.9785 443.863 44.9294C443.87 44.8821 443.864 44.8337 443.844 44.7897C443.825 44.7456 443.793 44.7078 443.752 44.6803C443.299 44.3657 442.917 43.4426 442.917 43.0294V42.2317C442.916 41.9467 442.976 41.6647 443.09 41.4023C443.205 41.1398 443.373 40.9023 443.585 40.7039C443.797 40.5055 444.047 40.3502 444.322 40.2473C444.597 40.1443 444.891 40.0958 445.185 40.1045C445.767 40.1359 446.313 40.3827 446.71 40.7934C447.107 41.2042 447.326 41.7473 447.319 42.3096V43.0294C447.319 43.4426 446.937 44.3657 446.482 44.6803C446.441 44.7078 446.41 44.7457 446.39 44.7897C446.371 44.8337 446.364 44.8821 446.372 44.9294C446.379 44.9785 446.399 45.0249 446.431 45.0632Z"/>
</mask>
<path fill-rule="evenodd" clip-rule="evenodd" d="M446.431 45.0632C446.464 45.1016 446.507 45.1305 446.555 45.1467C447.63 45.5247 449.035 46.1734 449.224 47.5078H448.667C448.521 46.7311 447.794 46.1481 446.368 45.6463C446.226 45.5967 446.1 45.5104 446.005 45.3968C445.91 45.2832 445.849 45.1466 445.828 45.0018C445.807 44.8585 445.828 44.7126 445.887 44.5798C445.946 44.447 446.042 44.3323 446.163 44.2482C446.464 44.0398 446.769 43.2804 446.769 43.0294V42.3096C446.776 41.8853 446.614 41.4746 446.316 41.163C446.018 40.8513 445.607 40.6627 445.169 40.6363C444.948 40.6297 444.728 40.6661 444.521 40.7433C444.315 40.8205 444.127 40.9369 443.968 41.0857C443.81 41.2345 443.683 41.4127 443.597 41.6095C443.511 41.8064 443.467 42.0179 443.467 42.2317V43.0294C443.467 43.2804 443.771 44.0398 444.072 44.2485C444.194 44.3325 444.29 44.4471 444.349 44.5799C444.408 44.7128 444.429 44.8587 444.408 45.002C444.388 45.1468 444.327 45.2834 444.232 45.397C444.136 45.5107 444.011 45.5969 443.869 45.6466C442.44 46.1481 441.715 46.7311 441.569 47.5078H441.012C441.2 46.1734 442.605 45.5247 443.68 45.1467C443.728 45.1305 443.771 45.1016 443.803 45.0632C443.835 45.0249 443.856 44.9785 443.863 44.9294C443.87 44.8821 443.864 44.8337 443.844 44.7897C443.825 44.7456 443.793 44.7078 443.752 44.6803C443.299 44.3657 442.917 43.4426 442.917 43.0294V42.2317C442.916 41.9467 442.976 41.6647 443.09 41.4023C443.205 41.1398 443.373 40.9023 443.585 40.7039C443.797 40.5055 444.047 40.3502 444.322 40.2473C444.597 40.1443 444.891 40.0958 445.185 40.1045C445.767 40.1359 446.313 40.3827 446.71 40.7934C447.107 41.2042 447.326 41.7473 447.319 42.3096V43.0294C447.319 43.4426 446.937 44.3657 446.482 44.6803C446.441 44.7078 446.41 44.7457 446.39 44.7897C446.371 44.8337 446.364 44.8821 446.372 44.9294C446.379 44.9785 446.399 45.0249 446.431 45.0632Z" fill="#21366E"/>
<path d="M446.555 45.1467L446.621 44.958L446.618 44.957L446.555 45.1467ZM446.431 45.0632L446.278 45.1921L446.278 45.1921L446.431 45.0632ZM449.224 47.5078V47.7078H449.454L449.422 47.4798L449.224 47.5078ZM448.667 47.5078L448.47 47.5448L448.501 47.7078H448.667V47.5078ZM446.368 45.6463L446.434 45.4576L446.434 45.4575L446.368 45.6463ZM446.005 45.3968L445.852 45.5252L445.852 45.5252L446.005 45.3968ZM445.828 45.0018L446.026 44.9736L446.026 44.9734L445.828 45.0018ZM446.163 44.2482L446.277 44.4128L446.277 44.4126L446.163 44.2482ZM446.769 42.3096L446.569 42.3061V42.3096H446.769ZM446.316 41.163L446.171 41.3012V41.3012L446.316 41.163ZM445.169 40.6363L445.181 40.4366L445.175 40.4364L445.169 40.6363ZM444.521 40.7433L444.451 40.5559V40.5559L444.521 40.7433ZM443.968 41.0857L444.105 41.2317L444.105 41.2317L443.968 41.0857ZM443.597 41.6095L443.414 41.5293L443.597 41.6095ZM443.467 42.2317H443.667L443.667 42.2316L443.467 42.2317ZM444.072 44.2485L443.958 44.4128L443.959 44.4132L444.072 44.2485ZM444.349 44.5799L444.532 44.4984L444.532 44.4984L444.349 44.5799ZM444.408 45.002L444.21 44.9737L444.21 44.9739L444.408 45.002ZM444.232 45.397L444.078 45.2686L444.078 45.2686L444.232 45.397ZM443.869 45.6466L443.803 45.4577L443.802 45.4579L443.869 45.6466ZM441.569 47.5078V47.7078H441.735L441.765 47.5448L441.569 47.5078ZM441.012 47.5078L440.814 47.4798L440.781 47.7078H441.012V47.5078ZM443.68 45.1467L443.616 44.957L443.613 44.958L443.68 45.1467ZM443.863 44.9294L443.665 44.8979L443.664 44.9029L443.863 44.9294ZM443.752 44.6803L443.638 44.8446L443.64 44.846L443.752 44.6803ZM442.917 42.2317H443.117V42.2316L442.917 42.2317ZM443.09 41.4023L443.274 41.4824V41.4824L443.09 41.4023ZM443.585 40.7039L443.448 40.558L443.448 40.558L443.585 40.7039ZM444.322 40.2473L444.392 40.4346L444.322 40.2473ZM445.185 40.1045L445.196 39.9048L445.191 39.9046L445.185 40.1045ZM446.71 40.7934L446.566 40.9325L446.71 40.7934ZM447.319 42.3096L447.119 42.3072V42.3096H447.319ZM446.482 44.6803L446.594 44.8459L446.596 44.8448L446.482 44.6803ZM446.39 44.7897L446.207 44.7089L446.207 44.7089L446.39 44.7897ZM446.372 44.9294L446.57 44.9029L446.569 44.898L446.372 44.9294ZM446.618 44.957C446.604 44.9523 446.593 44.9441 446.584 44.9344L446.278 45.1921C446.335 45.2591 446.409 45.3088 446.492 45.3364L446.618 44.957ZM449.422 47.4798C449.318 46.7423 448.877 46.2038 448.341 45.8077C447.807 45.4134 447.164 45.1488 446.621 44.958L446.489 45.3354C447.021 45.5226 447.618 45.7714 448.103 46.1295C448.586 46.4859 448.942 46.9389 449.026 47.5358L449.422 47.4798ZM448.667 47.7078H449.224V47.3078H448.667V47.7078ZM446.301 45.835C447.721 46.3345 448.346 46.8843 448.47 47.5448L448.863 47.4708C448.695 46.5778 447.867 45.9618 446.434 45.4576L446.301 45.835ZM445.852 45.5252C445.97 45.6669 446.126 45.7738 446.302 45.8351L446.434 45.4575C446.325 45.4195 446.23 45.3538 446.158 45.2684L445.852 45.5252ZM445.63 45.0299C445.656 45.2122 445.733 45.3834 445.852 45.5252L446.158 45.2684C446.087 45.1829 446.041 45.081 446.026 44.9736L445.63 45.0299ZM445.704 44.4985C445.63 44.6655 445.604 44.8495 445.63 45.0301L446.026 44.9734C446.011 44.8676 446.026 44.7597 446.07 44.6611L445.704 44.4985ZM446.05 44.0837C445.898 44.1883 445.779 44.3315 445.704 44.4985L446.07 44.6611C446.114 44.5625 446.185 44.4764 446.277 44.4128L446.05 44.0837ZM446.569 43.0294C446.569 43.0617 446.557 43.1332 446.525 43.2384C446.495 43.3387 446.451 43.4551 446.397 43.5712C446.344 43.6875 446.283 43.7997 446.219 43.8928C446.154 43.9888 446.095 44.0521 446.05 44.0838L446.277 44.4126C446.382 44.3401 446.474 44.2303 446.55 44.1174C446.629 44.0017 446.7 43.8693 446.761 43.7383C446.821 43.6071 446.872 43.4736 446.908 43.3544C446.943 43.2401 446.969 43.1225 446.969 43.0294H446.569ZM446.569 42.3096V43.0294H446.969V42.3096H446.569ZM446.171 41.3012C446.434 41.5754 446.575 41.9355 446.569 42.3061L446.969 42.3131C446.977 41.8352 446.794 41.3738 446.461 41.0248L446.171 41.3012ZM445.157 40.836C445.546 40.8593 445.909 41.0267 446.171 41.3012L446.461 41.0248C446.127 40.6759 445.669 40.466 445.181 40.4367L445.157 40.836ZM444.592 40.9306C444.773 40.8625 444.968 40.8304 445.163 40.8362L445.175 40.4364C444.928 40.429 444.682 40.4696 444.451 40.5559L444.592 40.9306ZM444.105 41.2317C444.244 41.1011 444.41 40.9986 444.592 40.9306L444.451 40.5559C444.221 40.6423 444.01 40.7727 443.832 40.9398L444.105 41.2317ZM443.78 41.6897C443.856 41.518 443.966 41.3622 444.105 41.2317L443.832 40.9398C443.653 41.1069 443.511 41.3073 443.414 41.5293L443.78 41.6897ZM443.667 42.2316C443.667 42.0456 443.705 41.8614 443.78 41.6897L443.414 41.5293C443.317 41.7514 443.267 41.9903 443.267 42.2318L443.667 42.2316ZM443.667 43.0294V42.2317H443.267V43.0294H443.667ZM444.186 44.0841C444.14 44.0524 444.081 43.989 444.016 43.893C443.953 43.7998 443.892 43.6876 443.838 43.5712C443.785 43.4551 443.741 43.3387 443.711 43.2384C443.679 43.1332 443.667 43.0617 443.667 43.0294H443.267C443.267 43.1225 443.293 43.2401 443.328 43.3544C443.364 43.4736 443.415 43.6071 443.475 43.7383C443.535 43.8693 443.607 44.0018 443.685 44.1175C443.762 44.2304 443.854 44.3403 443.958 44.4128L444.186 44.0841ZM444.532 44.4984C444.457 44.3314 444.337 44.1882 444.186 44.0838L443.959 44.4132C444.051 44.4767 444.122 44.5628 444.167 44.6614L444.532 44.4984ZM444.606 45.0303C444.632 44.8495 444.606 44.6655 444.532 44.4984L444.167 44.6614C444.21 44.76 444.226 44.8679 444.21 44.9737L444.606 45.0303ZM444.385 45.5255C444.504 45.3837 444.581 45.2124 444.606 45.0302L444.21 44.9739C444.195 45.0812 444.15 45.1832 444.078 45.2686L444.385 45.5255ZM443.934 45.8354C444.11 45.7741 444.266 45.6672 444.385 45.5255L444.078 45.2686C444.007 45.3541 443.912 45.4198 443.803 45.4577L443.934 45.8354ZM441.765 47.5448C441.89 46.8843 442.513 46.3345 443.935 45.8353L443.802 45.4579C442.367 45.9618 441.54 46.5778 441.372 47.4708L441.765 47.5448ZM441.012 47.7078H441.569V47.3078H441.012V47.7078ZM443.613 44.958C443.071 45.1488 442.428 45.4134 441.895 45.8078C441.359 46.2038 440.918 46.7423 440.814 47.4798L441.21 47.5358C441.294 46.9389 441.65 46.4859 442.132 46.1295C442.617 45.7714 443.214 45.5226 443.746 45.3353L443.613 44.958ZM443.65 44.9344C443.642 44.9441 443.63 44.9523 443.616 44.957L443.743 45.3364C443.826 45.3088 443.9 45.2591 443.956 45.1921L443.65 44.9344ZM443.664 44.9029C443.663 44.9138 443.658 44.9247 443.65 44.9344L443.956 45.1921C444.013 45.125 444.049 45.0433 444.061 44.9559L443.664 44.9029ZM443.661 44.8705C443.665 44.8794 443.667 44.8888 443.665 44.8979L444.06 44.961C444.074 44.8754 444.062 44.788 444.027 44.7089L443.661 44.8705ZM443.64 44.846C443.65 44.8528 443.657 44.8615 443.661 44.8705L444.027 44.7089C443.992 44.6298 443.936 44.5627 443.865 44.5146L443.64 44.846ZM442.717 43.0294C442.717 43.2795 442.826 43.6452 442.984 43.9774C443.141 44.3094 443.368 44.6572 443.638 44.8446L443.866 44.516C443.683 44.3888 443.493 44.1178 443.345 43.8063C443.198 43.4949 443.117 43.1925 443.117 43.0294H442.717ZM442.717 42.2317V43.0294H443.117V42.2317H442.717ZM442.907 41.3221C442.781 41.6097 442.716 41.9191 442.717 42.2318L443.117 42.2316C443.116 41.9744 443.17 41.7197 443.274 41.4824L442.907 41.3221ZM443.448 40.558C443.217 40.7747 443.033 41.0345 442.907 41.3221L443.274 41.4824C443.377 41.2451 443.53 41.03 443.722 40.8499L443.448 40.558ZM444.252 40.06C443.953 40.1721 443.679 40.3414 443.448 40.558L443.722 40.8499C443.914 40.6697 444.142 40.5284 444.392 40.4346L444.252 40.06ZM445.191 39.9046C444.871 39.8951 444.552 39.9479 444.252 40.06L444.392 40.4346C444.643 40.3407 444.911 40.2964 445.18 40.3044L445.191 39.9046ZM446.854 40.6544C446.421 40.2066 445.827 39.9389 445.196 39.9048L445.175 40.3042C445.706 40.333 446.205 40.5587 446.566 40.9325L446.854 40.6544ZM447.519 42.3119C447.526 41.696 447.287 41.1023 446.854 40.6544L446.566 40.9325C446.928 41.3061 447.125 41.7986 447.119 42.3072L447.519 42.3119ZM447.519 43.0294V42.3096H447.119V43.0294H447.519ZM446.596 44.8448C446.867 44.6574 447.094 44.3095 447.252 43.9775C447.409 43.6452 447.519 43.2795 447.519 43.0294H447.119C447.119 43.1924 447.038 43.4949 446.89 43.8062C446.743 44.1177 446.552 44.3887 446.368 44.5158L446.596 44.8448ZM446.573 44.8705C446.577 44.8615 446.584 44.8527 446.594 44.8459L446.37 44.5147C446.299 44.5628 446.242 44.6299 446.207 44.7089L446.573 44.8705ZM446.569 44.898C446.568 44.8889 446.569 44.8795 446.573 44.8705L446.207 44.7089C446.172 44.788 446.161 44.8753 446.174 44.9609L446.569 44.898ZM446.584 44.9344C446.576 44.9247 446.572 44.9138 446.57 44.9029L446.174 44.9559C446.185 45.0433 446.222 45.125 446.278 45.1921L446.584 44.9344Z" fill="#21366E" mask="url(#path-49-outside-2_3452_10975)"/>
<path d="M441.289 47.5723C444.074 49.2695 445.814 49.2695 448.947 47.5723" stroke="#21366E" stroke-linecap="round"/>
<path fill-rule="evenodd" clip-rule="evenodd" d="M450.52 46.0431C450.134 46.0431 449.905 45.5872 450.08 45.2437C450.416 44.5861 450.604 43.8486 450.604 43.0736C450.604 40.378 448.333 38.1348 445.458 38.1348C442.584 38.1348 440.312 40.378 440.312 43.0736C440.312 43.8486 440.5 44.5861 440.836 45.2437C441.011 45.5872 440.783 46.0431 440.397 46.0431C440.234 46.0431 440.082 45.9583 440.005 45.8152C439.563 44.995 439.312 44.0626 439.312 43.0736C439.312 39.7937 442.064 37.1348 445.458 37.1348C448.852 37.1348 451.604 39.7937 451.604 43.0736C451.604 44.0626 451.354 44.995 450.911 45.8152C450.834 45.9583 450.682 46.0431 450.52 46.0431Z" fill="#21366E"/>
<path d="M432.719 42.7168L432.719 42.7168L431.795 39.7974C431.795 39.7974 431.795 39.7974 431.795 39.7974C431.719 39.5581 431.859 39.3077 432.102 39.2355L432.102 39.2355C432.347 39.1632 432.609 39.2959 432.685 39.5358L432.685 39.5358L433.609 42.4552C433.675 42.6612 433.58 42.8756 433.397 42.9771L432.719 42.7168ZM432.719 42.7168C432.795 42.9566 433.057 43.0893 433.301 43.0171L432.719 42.7168Z" fill="#3FAFE9" stroke="#3FAFE9" stroke-width="0.2"/>
<path d="M430.159 42.1276L430.159 42.1276C430.189 42.1108 430.217 42.0907 430.243 42.0677L432.556 39.9987C432.556 39.9987 432.556 39.9987 432.556 39.9987C432.743 39.8309 432.756 39.5454 432.58 39.3613L432.58 39.3613C432.404 39.1777 432.11 39.1684 431.922 39.3358L431.922 39.3358L429.61 41.4048C429.61 41.4048 429.61 41.4048 429.61 41.4048C429.422 41.5726 429.409 41.8581 429.586 42.0422L429.586 42.0422C429.737 42.2002 429.976 42.229 430.159 42.1276Z" fill="#3FAFE9" stroke="#3FAFE9" stroke-width="0.2"/>
<path d="M431.077 42.0935L431.077 42.0939C430.728 43.3656 430.909 44.6955 431.588 45.8373C432.997 48.2083 436.132 49.0302 438.577 47.6737C438.798 47.5509 438.877 47.2761 438.747 47.0587C438.618 46.8412 438.333 46.7685 438.112 46.8913C436.11 48.0023 433.546 47.3268 432.394 45.3896C431.839 44.4561 431.691 43.3692 431.976 42.3293C431.976 42.3293 431.976 42.3292 431.976 42.3292L432.651 39.9046L432.651 39.9046C432.718 39.6638 432.57 39.4155 432.321 39.3508C432.073 39.2864 431.818 39.428 431.752 39.6675L431.752 39.6675L431.077 42.0935Z" fill="#3FAFE9" stroke="#3FAFE9" stroke-width="0.2"/>
<path d="M446.706 33.0773L446.706 33.0773L446.133 32.9333L446.092 32.8429C446.092 32.8429 446.092 32.8429 446.092 32.8429C446.06 32.8566 446.029 32.8736 446.002 32.8932C445.831 33.0143 445.763 33.2379 445.851 33.435L447.111 36.2351L447.111 36.2351C447.214 36.4643 447.489 36.5681 447.724 36.4694L447.724 36.4694C447.959 36.3707 448.068 36.1062 447.965 35.8773C447.965 35.8773 447.965 35.8773 447.965 35.8773L446.706 33.0773Z" fill="#3FAFE9" stroke="#3FAFE9" stroke-width="0.2"/>
<path d="M449.316 33.3842L449.316 33.3842C449.486 33.2632 449.727 33.2662 449.896 33.4064L449.896 33.4064C450.092 33.5695 450.113 33.8542 449.946 34.0419C449.946 34.0419 449.946 34.042 449.946 34.042L447.889 36.3497L447.889 36.3497C447.722 36.5371 447.428 36.5592 447.233 36.3964L447.233 36.3964C447.037 36.2333 447.016 35.9485 447.183 35.7608L449.316 33.3842ZM449.316 33.3842C449.288 33.4043 449.262 33.4274 449.239 33.4531C449.239 33.4531 449.239 33.4531 449.239 33.4531L447.183 35.7608L449.316 33.3842Z" fill="#3FAFE9" stroke="#3FAFE9" stroke-width="0.2"/>
<path d="M448.402 33.5172L448.402 33.5169C448.6 32.2152 448.265 30.9138 447.458 29.8535C445.781 27.6518 442.57 27.176 440.299 28.7907C440.093 28.9374 440.047 29.219 440.2 29.4203C440.354 29.6216 440.645 29.6635 440.852 29.5169C442.71 28.1954 445.337 28.5865 446.708 30.3866C447.368 31.254 447.643 32.3179 447.48 33.3823C447.48 33.3824 447.48 33.3824 447.48 33.3825L447.093 35.8651L447.093 35.8651C447.054 36.1114 447.23 36.3415 447.485 36.3786C447.739 36.4156 447.976 36.2468 448.014 36.0014L448.014 36.0014L448.402 33.5172Z" fill="#3FAFE9" stroke="#3FAFE9" stroke-width="0.2"/>
<path d="M419.267 62.0469H420.545L423.806 70.1611L427.06 62.0469H428.345L424.298 72H423.3L419.267 62.0469ZM418.85 62.0469H419.978L420.162 68.1172V72H418.85V62.0469ZM427.627 62.0469H428.755V72H427.442V68.1172L427.627 62.0469ZM430.546 68.3838V68.2266C430.546 67.6934 430.623 67.1989 430.778 66.7432C430.933 66.2829 431.157 65.8841 431.448 65.5469C431.74 65.2051 432.093 64.9408 432.508 64.7539C432.923 64.5625 433.387 64.4668 433.902 64.4668C434.422 64.4668 434.889 64.5625 435.304 64.7539C435.723 64.9408 436.078 65.2051 436.37 65.5469C436.666 65.8841 436.892 66.2829 437.047 66.7432C437.202 67.1989 437.279 67.6934 437.279 68.2266V68.3838C437.279 68.917 437.202 69.4115 437.047 69.8672C436.892 70.3229 436.666 70.7217 436.37 71.0635C436.078 71.4007 435.725 71.665 435.311 71.8564C434.9 72.0433 434.436 72.1367 433.916 72.1367C433.396 72.1367 432.929 72.0433 432.515 71.8564C432.1 71.665 431.744 71.4007 431.448 71.0635C431.157 70.7217 430.933 70.3229 430.778 69.8672C430.623 69.4115 430.546 68.917 430.546 68.3838ZM431.811 68.2266V68.3838C431.811 68.7529 431.854 69.1016 431.94 69.4297C432.027 69.7533 432.157 70.0404 432.33 70.291C432.508 70.5417 432.729 70.7399 432.993 70.8857C433.257 71.027 433.565 71.0977 433.916 71.0977C434.262 71.0977 434.565 71.027 434.825 70.8857C435.09 70.7399 435.308 70.5417 435.481 70.291C435.655 70.0404 435.785 69.7533 435.871 69.4297C435.962 69.1016 436.008 68.7529 436.008 68.3838V68.2266C436.008 67.862 435.962 67.5179 435.871 67.1943C435.785 66.8662 435.652 66.5768 435.475 66.3262C435.301 66.071 435.083 65.8704 434.818 65.7246C434.559 65.5788 434.253 65.5059 433.902 65.5059C433.556 65.5059 433.251 65.5788 432.986 65.7246C432.727 65.8704 432.508 66.071 432.33 66.3262C432.157 66.5768 432.027 66.8662 431.94 67.1943C431.854 67.5179 431.811 67.862 431.811 68.2266ZM440.13 66.1826V72H438.865V64.6035H440.062L440.13 66.1826ZM439.829 68.0215L439.303 68.001C439.307 67.4951 439.382 67.028 439.528 66.5996C439.674 66.1667 439.879 65.7907 440.144 65.4717C440.408 65.1527 440.722 64.9066 441.087 64.7334C441.456 64.5557 441.864 64.4668 442.311 64.4668C442.675 64.4668 443.003 64.5169 443.295 64.6172C443.587 64.7129 443.835 64.8678 444.04 65.082C444.25 65.2962 444.409 65.5742 444.519 65.916C444.628 66.2533 444.683 66.6657 444.683 67.1533V72H443.411V67.1396C443.411 66.7523 443.354 66.4424 443.24 66.21C443.126 65.973 442.96 65.8021 442.741 65.6973C442.522 65.5879 442.254 65.5332 441.935 65.5332C441.62 65.5332 441.333 65.5993 441.073 65.7314C440.818 65.8636 440.597 66.0459 440.41 66.2783C440.228 66.5107 440.084 66.7773 439.979 67.0781C439.879 67.3743 439.829 67.6888 439.829 68.0215ZM449.7 64.6035V65.5742H445.701V64.6035H449.7ZM447.055 62.8057H448.319V70.168C448.319 70.4186 448.358 70.6077 448.436 70.7354C448.513 70.863 448.613 70.9473 448.736 70.9883C448.859 71.0293 448.992 71.0498 449.133 71.0498C449.238 71.0498 449.347 71.0407 449.461 71.0225C449.579 70.9997 449.668 70.9814 449.728 70.9678L449.734 72C449.634 72.0319 449.502 72.0615 449.338 72.0889C449.178 72.1208 448.985 72.1367 448.757 72.1367C448.447 72.1367 448.162 72.0752 447.902 71.9521C447.643 71.8291 447.435 71.624 447.28 71.3369C447.13 71.0452 447.055 70.6533 447.055 70.1611V62.8057ZM452.448 65.7656V72H451.184V64.6035H452.414L452.448 65.7656ZM454.759 64.5625L454.752 65.7383C454.647 65.7155 454.547 65.7018 454.451 65.6973C454.36 65.6882 454.255 65.6836 454.137 65.6836C453.845 65.6836 453.588 65.7292 453.364 65.8203C453.141 65.9115 452.952 66.0391 452.797 66.2031C452.642 66.3672 452.519 66.5632 452.428 66.791C452.341 67.0143 452.284 67.2604 452.257 67.5293L451.901 67.7344C451.901 67.2878 451.945 66.8685 452.031 66.4766C452.122 66.0846 452.261 65.7383 452.448 65.4375C452.635 65.1322 452.872 64.8952 453.159 64.7266C453.451 64.5534 453.797 64.4668 454.198 64.4668C454.289 64.4668 454.394 64.4782 454.513 64.501C454.631 64.5192 454.713 64.5397 454.759 64.5625ZM460.016 70.7354V66.9277C460.016 66.6361 459.956 66.3831 459.838 66.1689C459.724 65.9502 459.551 65.7816 459.318 65.6631C459.086 65.5446 458.799 65.4854 458.457 65.4854C458.138 65.4854 457.858 65.54 457.616 65.6494C457.379 65.7588 457.192 65.9023 457.056 66.0801C456.924 66.2578 456.857 66.4492 456.857 66.6543H455.593C455.593 66.39 455.661 66.1279 455.798 65.8682C455.935 65.6084 456.131 65.3737 456.386 65.1641C456.646 64.9499 456.955 64.7812 457.315 64.6582C457.68 64.5306 458.086 64.4668 458.532 64.4668C459.07 64.4668 459.544 64.5579 459.954 64.7402C460.369 64.9225 460.692 65.1982 460.925 65.5674C461.162 65.932 461.28 66.39 461.28 66.9414V70.3867C461.28 70.6328 461.301 70.8949 461.342 71.1729C461.387 71.4508 461.453 71.6901 461.54 71.8906V72H460.221C460.157 71.8542 460.107 71.6605 460.07 71.4189C460.034 71.1729 460.016 70.945 460.016 70.7354ZM460.234 67.5156L460.248 68.4043H458.97C458.61 68.4043 458.288 68.4339 458.006 68.4932C457.723 68.5479 457.486 68.6322 457.295 68.7461C457.104 68.86 456.958 69.0036 456.857 69.1768C456.757 69.3454 456.707 69.5436 456.707 69.7715C456.707 70.0039 456.759 70.2158 456.864 70.4072C456.969 70.5986 457.126 70.7513 457.336 70.8652C457.55 70.9746 457.812 71.0293 458.122 71.0293C458.509 71.0293 458.851 70.9473 459.147 70.7832C459.444 70.6191 459.678 70.4186 459.852 70.1816C460.029 69.9447 460.125 69.7145 460.139 69.4912L460.679 70.0996C460.647 70.291 460.56 70.5029 460.419 70.7354C460.278 70.9678 460.089 71.1911 459.852 71.4053C459.619 71.6149 459.341 71.7904 459.018 71.9316C458.699 72.0684 458.339 72.1367 457.938 72.1367C457.436 72.1367 456.996 72.0387 456.618 71.8428C456.244 71.6468 455.953 71.3848 455.743 71.0566C455.538 70.724 455.436 70.3525 455.436 69.9424C455.436 69.5459 455.513 69.1973 455.668 68.8965C455.823 68.5911 456.046 68.3382 456.338 68.1377C456.63 67.9326 456.98 67.7777 457.391 67.6729C457.801 67.568 458.259 67.5156 458.765 67.5156H460.234ZM408.343 80.0469H409.621L412.882 88.1611L416.136 80.0469H417.421L413.374 90H412.376L408.343 80.0469ZM407.926 80.0469H409.054L409.238 86.1172V90H407.926V80.0469ZM416.703 80.0469H417.831V90H416.519V86.1172L416.703 80.0469ZM423.026 90.1367C422.511 90.1367 422.044 90.0501 421.625 89.877C421.21 89.6992 420.853 89.4508 420.552 89.1318C420.256 88.8128 420.028 88.4346 419.868 87.9971C419.709 87.5596 419.629 87.0811 419.629 86.5615V86.2744C419.629 85.6729 419.718 85.1374 419.896 84.668C420.073 84.194 420.315 83.793 420.62 83.4648C420.925 83.1367 421.272 82.8883 421.659 82.7197C422.047 82.5511 422.448 82.4668 422.862 82.4668C423.391 82.4668 423.847 82.5579 424.229 82.7402C424.617 82.9225 424.934 83.1777 425.18 83.5059C425.426 83.8294 425.608 84.2122 425.727 84.6543C425.845 85.0918 425.904 85.5703 425.904 86.0898V86.6572H420.381V85.625H424.64V85.5293C424.621 85.2012 424.553 84.8822 424.435 84.5723C424.321 84.2624 424.138 84.0072 423.888 83.8066C423.637 83.6061 423.295 83.5059 422.862 83.5059C422.575 83.5059 422.311 83.5674 422.069 83.6904C421.828 83.8089 421.62 83.9867 421.447 84.2236C421.274 84.4606 421.14 84.75 421.044 85.0918C420.948 85.4336 420.9 85.8278 420.9 86.2744V86.5615C420.9 86.9124 420.948 87.2428 421.044 87.5527C421.144 87.8581 421.288 88.127 421.475 88.3594C421.666 88.5918 421.896 88.7741 422.165 88.9062C422.438 89.0384 422.748 89.1045 423.095 89.1045C423.541 89.1045 423.92 89.0133 424.229 88.8311C424.539 88.6488 424.811 88.4049 425.043 88.0996L425.809 88.708C425.649 88.9495 425.446 89.1797 425.2 89.3984C424.954 89.6172 424.651 89.7949 424.291 89.9316C423.936 90.0684 423.514 90.1367 423.026 90.1367ZM428.646 83.7656V90H427.381V82.6035H428.611L428.646 83.7656ZM430.956 82.5625L430.949 83.7383C430.844 83.7155 430.744 83.7018 430.648 83.6973C430.557 83.6882 430.452 83.6836 430.334 83.6836C430.042 83.6836 429.785 83.7292 429.562 83.8203C429.338 83.9115 429.149 84.0391 428.994 84.2031C428.839 84.3672 428.716 84.5632 428.625 84.791C428.538 85.0143 428.481 85.2604 428.454 85.5293L428.099 85.7344C428.099 85.2878 428.142 84.8685 428.229 84.4766C428.32 84.0846 428.459 83.7383 428.646 83.4375C428.832 83.1322 429.069 82.8952 429.356 82.7266C429.648 82.5534 429.994 82.4668 430.396 82.4668C430.487 82.4668 430.591 82.4782 430.71 82.501C430.828 82.5192 430.91 82.5397 430.956 82.5625ZM434.948 89.0977C435.249 89.0977 435.527 89.0361 435.782 88.9131C436.037 88.79 436.247 88.6214 436.411 88.4072C436.575 88.1885 436.669 87.9401 436.691 87.6621H437.895C437.872 88.0996 437.724 88.5075 437.45 88.8857C437.181 89.2594 436.828 89.5625 436.391 89.7949C435.953 90.0228 435.472 90.1367 434.948 90.1367C434.392 90.1367 433.907 90.0387 433.492 89.8428C433.082 89.6468 432.74 89.3779 432.467 89.0361C432.198 88.6943 431.995 88.3024 431.858 87.8604C431.726 87.4137 431.66 86.9421 431.66 86.4453V86.1582C431.66 85.6615 431.726 85.1921 431.858 84.75C431.995 84.3034 432.198 83.9092 432.467 83.5674C432.74 83.2256 433.082 82.9567 433.492 82.7607C433.907 82.5648 434.392 82.4668 434.948 82.4668C435.527 82.4668 436.033 82.5853 436.466 82.8223C436.899 83.0547 437.238 83.3737 437.484 83.7793C437.735 84.1803 437.872 84.6361 437.895 85.1465H436.691C436.669 84.8411 436.582 84.5654 436.432 84.3193C436.286 84.0732 436.085 83.8773 435.83 83.7314C435.579 83.5811 435.285 83.5059 434.948 83.5059C434.561 83.5059 434.235 83.5833 433.971 83.7383C433.711 83.8887 433.504 84.0938 433.349 84.3535C433.198 84.6087 433.089 84.8936 433.021 85.208C432.957 85.5179 432.925 85.8346 432.925 86.1582V86.4453C432.925 86.7689 432.957 87.0879 433.021 87.4023C433.084 87.7168 433.191 88.0016 433.342 88.2568C433.497 88.512 433.704 88.7171 433.964 88.8721C434.228 89.0225 434.556 89.0977 434.948 89.0977ZM440.581 79.5V90H439.316V79.5H440.581ZM440.28 86.0215L439.754 86.001C439.758 85.4951 439.834 85.028 439.979 84.5996C440.125 84.1667 440.33 83.7907 440.595 83.4717C440.859 83.1527 441.174 82.9066 441.538 82.7334C441.907 82.5557 442.315 82.4668 442.762 82.4668C443.126 82.4668 443.454 82.5169 443.746 82.6172C444.038 82.7129 444.286 82.8678 444.491 83.082C444.701 83.2962 444.86 83.5742 444.97 83.916C445.079 84.2533 445.134 84.6657 445.134 85.1533V90H443.862V85.1396C443.862 84.7523 443.805 84.4424 443.691 84.21C443.577 83.973 443.411 83.8021 443.192 83.6973C442.974 83.5879 442.705 83.5332 442.386 83.5332C442.071 83.5332 441.784 83.5993 441.524 83.7314C441.269 83.8636 441.048 84.0459 440.861 84.2783C440.679 84.5107 440.535 84.7773 440.431 85.0781C440.33 85.3743 440.28 85.6888 440.28 86.0215ZM451.389 88.7354V84.9277C451.389 84.6361 451.329 84.3831 451.211 84.1689C451.097 83.9502 450.924 83.7816 450.691 83.6631C450.459 83.5446 450.172 83.4854 449.83 83.4854C449.511 83.4854 449.231 83.54 448.989 83.6494C448.752 83.7588 448.565 83.9023 448.429 84.0801C448.297 84.2578 448.23 84.4492 448.23 84.6543H446.966C446.966 84.39 447.034 84.1279 447.171 83.8682C447.308 83.6084 447.504 83.3737 447.759 83.1641C448.019 82.9499 448.328 82.7812 448.688 82.6582C449.053 82.5306 449.459 82.4668 449.905 82.4668C450.443 82.4668 450.917 82.5579 451.327 82.7402C451.742 82.9225 452.065 83.1982 452.298 83.5674C452.535 83.932 452.653 84.39 452.653 84.9414V88.3867C452.653 88.6328 452.674 88.8949 452.715 89.1729C452.76 89.4508 452.826 89.6901 452.913 89.8906V90H451.594C451.53 89.8542 451.48 89.6605 451.443 89.4189C451.407 89.1729 451.389 88.945 451.389 88.7354ZM451.607 85.5156L451.621 86.4043H450.343C449.983 86.4043 449.661 86.4339 449.379 86.4932C449.096 86.5479 448.859 86.6322 448.668 86.7461C448.477 86.86 448.331 87.0036 448.23 87.1768C448.13 87.3454 448.08 87.5436 448.08 87.7715C448.08 88.0039 448.132 88.2158 448.237 88.4072C448.342 88.5986 448.499 88.7513 448.709 88.8652C448.923 88.9746 449.185 89.0293 449.495 89.0293C449.882 89.0293 450.224 88.9473 450.521 88.7832C450.817 88.6191 451.051 88.4186 451.225 88.1816C451.402 87.9447 451.498 87.7145 451.512 87.4912L452.052 88.0996C452.02 88.291 451.933 88.5029 451.792 88.7354C451.651 88.9678 451.462 89.1911 451.225 89.4053C450.992 89.6149 450.714 89.7904 450.391 89.9316C450.072 90.0684 449.712 90.1367 449.311 90.1367C448.809 90.1367 448.369 90.0387 447.991 89.8428C447.618 89.6468 447.326 89.3848 447.116 89.0566C446.911 88.724 446.809 88.3525 446.809 87.9424C446.809 87.5459 446.886 87.1973 447.041 86.8965C447.196 86.5911 447.419 86.3382 447.711 86.1377C448.003 85.9326 448.354 85.7777 448.764 85.6729C449.174 85.568 449.632 85.5156 450.138 85.5156H451.607ZM455.907 84.1826V90H454.643V82.6035H455.839L455.907 84.1826ZM455.606 86.0215L455.08 86.001C455.085 85.4951 455.16 85.028 455.306 84.5996C455.451 84.1667 455.657 83.7907 455.921 83.4717C456.185 83.1527 456.5 82.9066 456.864 82.7334C457.233 82.5557 457.641 82.4668 458.088 82.4668C458.452 82.4668 458.781 82.5169 459.072 82.6172C459.364 82.7129 459.612 82.8678 459.817 83.082C460.027 83.2962 460.187 83.5742 460.296 83.916C460.405 84.2533 460.46 84.6657 460.46 85.1533V90H459.188V85.1396C459.188 84.7523 459.132 84.4424 459.018 84.21C458.904 83.973 458.737 83.8021 458.519 83.6973C458.3 83.5879 458.031 83.5332 457.712 83.5332C457.397 83.5332 457.11 83.5993 456.851 83.7314C456.595 83.8636 456.374 84.0459 456.188 84.2783C456.005 84.5107 455.862 84.7773 455.757 85.0781C455.657 85.3743 455.606 85.6888 455.606 86.0215ZM465.478 82.6035V83.5742H461.479V82.6035H465.478ZM462.832 80.8057H464.097V88.168C464.097 88.4186 464.135 88.6077 464.213 88.7354C464.29 88.863 464.391 88.9473 464.514 88.9883C464.637 89.0293 464.769 89.0498 464.91 89.0498C465.015 89.0498 465.124 89.0407 465.238 89.0225C465.357 88.9997 465.446 88.9814 465.505 88.9678L465.512 90C465.411 90.0319 465.279 90.0615 465.115 90.0889C464.956 90.1208 464.762 90.1367 464.534 90.1367C464.224 90.1367 463.939 90.0752 463.68 89.9521C463.42 89.8291 463.213 89.624 463.058 89.3369C462.907 89.0452 462.832 88.6533 462.832 88.1611V80.8057ZM471.268 88.0381C471.268 87.8558 471.227 87.6872 471.145 87.5322C471.067 87.3727 470.905 87.2292 470.659 87.1016C470.418 86.9694 470.053 86.8555 469.565 86.7598C469.155 86.6732 468.784 86.5706 468.451 86.4521C468.123 86.3337 467.843 86.1901 467.61 86.0215C467.382 85.8529 467.207 85.6546 467.084 85.4268C466.961 85.1989 466.899 84.9323 466.899 84.627C466.899 84.3353 466.963 84.0596 467.091 83.7998C467.223 83.54 467.408 83.3099 467.645 83.1094C467.886 82.9089 468.175 82.7516 468.513 82.6377C468.85 82.5238 469.226 82.4668 469.641 82.4668C470.233 82.4668 470.739 82.5716 471.158 82.7812C471.577 82.9909 471.899 83.2712 472.122 83.6221C472.345 83.9684 472.457 84.3535 472.457 84.7773H471.192C471.192 84.5723 471.131 84.374 471.008 84.1826C470.889 83.9867 470.714 83.8249 470.481 83.6973C470.254 83.5697 469.973 83.5059 469.641 83.5059C469.29 83.5059 469.005 83.5605 468.786 83.6699C468.572 83.7747 468.415 83.9092 468.314 84.0732C468.219 84.2373 468.171 84.4105 468.171 84.5928C468.171 84.7295 468.194 84.8525 468.239 84.9619C468.289 85.0667 468.376 85.1647 468.499 85.2559C468.622 85.3424 468.795 85.4245 469.019 85.502C469.242 85.5794 469.527 85.6569 469.873 85.7344C470.479 85.8711 470.978 86.0352 471.37 86.2266C471.762 86.418 472.054 86.6527 472.245 86.9307C472.437 87.2087 472.532 87.5459 472.532 87.9424C472.532 88.266 472.464 88.5622 472.327 88.8311C472.195 89.0999 472.001 89.3324 471.746 89.5283C471.495 89.7197 471.195 89.8701 470.844 89.9795C470.497 90.0843 470.108 90.1367 469.675 90.1367C469.023 90.1367 468.472 90.0205 468.021 89.7881C467.569 89.5557 467.228 89.2549 466.995 88.8857C466.763 88.5166 466.646 88.127 466.646 87.7168H467.918C467.936 88.0632 468.036 88.3389 468.219 88.5439C468.401 88.7445 468.624 88.888 468.889 88.9746C469.153 89.0566 469.415 89.0977 469.675 89.0977C470.021 89.0977 470.311 89.0521 470.543 88.9609C470.78 88.8698 470.96 88.7445 471.083 88.585C471.206 88.4255 471.268 88.2432 471.268 88.0381Z" fill="#0A2540"/>
<defs>
<filter id="filter0_d_3452_10975" x="-26" y="296" width="180" height="180" filterUnits="userSpaceOnUse" color-interpolation-filters="sRGB">
<feFlood flood-opacity="0" result="BackgroundImageFix"/>
<feColorMatrix in="SourceAlpha" type="matrix" values="0 0 0 0 0 0 0 0 0 0 0 0 0 0 0 0 0 0 127 0" result="hardAlpha"/>
<feMorphology radius="12" operator="erode" in="SourceAlpha" result="effect1_dropShadow_3452_10975"/>
<feOffset dy="32"/>
<feGaussianBlur stdDeviation="27"/>
<feColorMatrix type="matrix" values="0 0 0 0 0.0627451 0 0 0 0 0.0980392 0 0 0 0 0.156863 0 0 0 0.18 0"/>
<feBlend mode="normal" in2="BackgroundImageFix" result="effect1_dropShadow_3452_10975"/>
<feBlend mode="normal" in="SourceGraphic" in2="effect1_dropShadow_3452_10975" result="shape"/>
</filter>
<filter id="filter1_d_3452_10975" x="58.8672" y="340.064" width="11.1094" height="11.1074" filterUnits="userSpaceOnUse" color-interpolation-filters="sRGB">
<feFlood flood-opacity="0" result="BackgroundImageFix"/>
<feColorMatrix in="SourceAlpha" type="matrix" values="0 0 0 0 0 0 0 0 0 0 0 0 0 0 0 0 0 0 127 0" result="hardAlpha"/>
<feOffset dy="2"/>
<feGaussianBlur stdDeviation="2"/>
<feColorMatrix type="matrix" values="0 0 0 0 0.392157 0 0 0 0 0.392157 0 0 0 0 0.392157 0 0 0 0.498039 0"/>
<feBlend mode="normal" in2="BackgroundImageFix" result="effect1_dropShadow_3452_10975"/>
<feBlend mode="normal" in="SourceGraphic" in2="effect1_dropShadow_3452_10975" result="shape"/>
</filter>
<filter id="filter2_d_3452_10975" x="162" y="368" width="180" height="180" filterUnits="userSpaceOnUse" color-interpolation-filters="sRGB">
<feFlood flood-opacity="0" result="BackgroundImageFix"/>
<feColorMatrix in="SourceAlpha" type="matrix" values="0 0 0 0 0 0 0 0 0 0 0 0 0 0 0 0 0 0 127 0" result="hardAlpha"/>
<feMorphology radius="12" operator="erode" in="SourceAlpha" result="effect1_dropShadow_3452_10975"/>
<feOffset dy="32"/>
<feGaussianBlur stdDeviation="27"/>
<feColorMatrix type="matrix" values="0 0 0 0 0.0627451 0 0 0 0 0.0980392 0 0 0 0 0.156863 0 0 0 0.18 0"/>
<feBlend mode="normal" in2="BackgroundImageFix" result="effect1_dropShadow_3452_10975"/>
<feBlend mode="normal" in="SourceGraphic" in2="effect1_dropShadow_3452_10975" result="shape"/>
</filter>
<filter id="filter3_d_3452_10975" x="162" y="224" width="180" height="180" filterUnits="userSpaceOnUse" color-interpolation-filters="sRGB">
<feFlood flood-opacity="0" result="BackgroundImageFix"/>
<feColorMatrix in="SourceAlpha" type="matrix" values="0 0 0 0 0 0 0 0 0 0 0 0 0 0 0 0 0 0 127 0" result="hardAlpha"/>
<feMorphology radius="12" operator="erode" in="SourceAlpha" result="effect1_dropShadow_3452_10975"/>
<feOffset dy="32"/>
<feGaussianBlur stdDeviation="27"/>
<feColorMatrix type="matrix" values="0 0 0 0 0.0627451 0 0 0 0 0.0980392 0 0 0 0 0.156863 0 0 0 0.18 0"/>
<feBlend mode="normal" in2="BackgroundImageFix" result="effect1_dropShadow_3452_10975"/>
<feBlend mode="normal" in="SourceGraphic" in2="effect1_dropShadow_3452_10975" result="shape"/>
</filter>
<filter id="filter4_d_3452_10975" x="350" y="0" width="180" height="180" filterUnits="userSpaceOnUse" color-interpolation-filters="sRGB">
<feFlood flood-opacity="0" result="BackgroundImageFix"/>
<feColorMatrix in="SourceAlpha" type="matrix" values="0 0 0 0 0 0 0 0 0 0 0 0 0 0 0 0 0 0 127 0" result="hardAlpha"/>
<feMorphology radius="12" operator="erode" in="SourceAlpha" result="effect1_dropShadow_3452_10975"/>
<feOffset dy="32"/>
<feGaussianBlur stdDeviation="27"/>
<feColorMatrix type="matrix" values="0 0 0 0 0.0627451 0 0 0 0 0.0980392 0 0 0 0 0.156863 0 0 0 0.18 0"/>
<feBlend mode="normal" in2="BackgroundImageFix" result="effect1_dropShadow_3452_10975"/>
<feBlend mode="normal" in="SourceGraphic" in2="effect1_dropShadow_3452_10975" result="shape"/>
</filter>
<radialGradient id="paint0_radial_3452_10975" cx="0" cy="0" r="1" gradientUnits="userSpaceOnUse" gradientTransform="translate(132.614 266.907) rotate(90) scale(162.099 20.6135)">
<stop stop-color="#0048E5"/>
<stop offset="1" stop-color="#7A73FF"/>
</radialGradient>
</defs>
</svg>
