<svg width="504" height="330" viewBox="0 0 504 330" fill="none" xmlns="http://www.w3.org/2000/svg">
<path d="M441 218V148.25V78.5C440.5 71.6667 434.8 58 416 58C397.2 58 330.833 58 300 58H204H112" stroke="url(#paint0_radial_3450_10411)" stroke-width="1.5"
>     
    <animate attributeName="stroke-dasharray" from="0, 1000" to="1000, 0" dur="3s" fill="freeze"/>
  </path>

<g filter="url(#filter0_d_3450_10411)">
<rect x="204" y="10" width="96" height="96" rx="6" fill="white"/>
</g>
<path d="M252.249 58.8008H236.445V34.8008H260.445V51.1945" stroke="#21366E" stroke-linecap="square"/>
<path d="M263.5 56L260.354 60.8729C260.212 61.0914 259.996 61.228 259.761 61.2476C259.525 61.2671 259.294 61.1677 259.127 60.9748L257.5 59.0876" stroke="#3FAFE9" stroke-linecap="round" stroke-linejoin="round"/>
<path fill-rule="evenodd" clip-rule="evenodd" d="M253 59C253 54.8579 256.358 51.5 260.5 51.5C264.642 51.5 268 54.8579 268 59C268 63.1421 264.642 66.5 260.5 66.5C256.358 66.5 253 63.1421 253 59Z" stroke="#21366E" stroke-linecap="round" stroke-linejoin="round"/>
<path d="M241.305 52.832V54.0626C241.305 54.4078 241.585 54.6877 241.93 54.6877H243.16" stroke="#21366E" stroke-linecap="round" stroke-linejoin="round"/>
<path d="M243.16 39.8125H241.93C241.585 39.8125 241.305 40.0923 241.305 40.4375V41.6681" stroke="#21366E" stroke-linecap="round" stroke-linejoin="round"/>
<path d="M255.684 41.6681V40.4375C255.684 40.0923 255.404 39.8125 255.059 39.8125H253.828" stroke="#21366E" stroke-linecap="round" stroke-linejoin="round"/>
<path fill-rule="evenodd" clip-rule="evenodd" d="M244.43 43.1875H247.805V46.5625H244.43V43.1875Z" stroke="#21366E" stroke-linecap="round" stroke-linejoin="round"/>
<path fill-rule="evenodd" clip-rule="evenodd" d="M250.68 43.1875H254.055V46.5625H250.68V43.1875Z" stroke="#21366E" stroke-linecap="round" stroke-linejoin="round"/>
<path fill-rule="evenodd" clip-rule="evenodd" d="M244.43 49.4375H247.805V52.8125H244.43V49.4375Z" stroke="#21366E" stroke-linecap="round" stroke-linejoin="round"/>
<path d="M250.746 49.25V50" stroke="#21366E" stroke-linecap="square"/>
<path d="M250.746 52.25V53" stroke="#21366E" stroke-linecap="square"/>
<path d="M253.746 52.25V53" stroke="#21366E" stroke-linecap="square"/>
<path d="M253.746 49.25V50" stroke="#21366E" stroke-linecap="square"/>
<path d="M252.246 50.75V51.5" stroke="#21366E" stroke-linecap="square"/>
<path d="M231.262 88.8584L233.791 90.8613L232.902 91.6816L230.414 89.7061L231.262 88.8584ZM233.757 84.709V85.3379C233.757 86.0853 233.663 86.7552 233.477 87.3477C233.29 87.9401 233.021 88.4437 232.67 88.8584C232.319 89.2731 231.897 89.5898 231.405 89.8086C230.918 90.0273 230.371 90.1367 229.765 90.1367C229.177 90.1367 228.637 90.0273 228.145 89.8086C227.657 89.5898 227.233 89.2731 226.873 88.8584C226.518 88.4437 226.242 87.9401 226.046 87.3477C225.85 86.7552 225.752 86.0853 225.752 85.3379V84.709C225.752 83.9616 225.848 83.2939 226.039 82.7061C226.235 82.1136 226.511 81.61 226.866 81.1953C227.222 80.776 227.643 80.457 228.131 80.2383C228.623 80.0195 229.163 79.9102 229.751 79.9102C230.357 79.9102 230.906 80.0195 231.398 80.2383C231.891 80.457 232.312 80.776 232.663 81.1953C233.014 81.61 233.283 82.1136 233.47 82.7061C233.661 83.2939 233.757 83.9616 233.757 84.709ZM232.451 85.3379V84.6953C232.451 84.1029 232.39 83.5788 232.267 83.123C232.148 82.6673 231.973 82.2845 231.74 81.9746C231.508 81.6647 231.225 81.43 230.893 81.2705C230.56 81.111 230.179 81.0312 229.751 81.0312C229.345 81.0312 228.976 81.111 228.644 81.2705C228.315 81.43 228.033 81.6647 227.796 81.9746C227.559 82.2845 227.377 82.6673 227.249 83.123C227.121 83.5788 227.058 84.1029 227.058 84.6953V85.3379C227.058 85.9349 227.121 86.4635 227.249 86.9238C227.377 87.3796 227.559 87.7646 227.796 88.0791C228.037 88.389 228.325 88.6237 228.657 88.7832C228.99 88.9427 229.359 89.0225 229.765 89.0225C230.193 89.0225 230.574 88.9427 230.906 88.7832C231.239 88.6237 231.519 88.389 231.747 88.0791C231.979 87.7646 232.155 87.3796 232.273 86.9238C232.392 86.4635 232.451 85.9349 232.451 85.3379ZM235.794 80.0469H239.089C239.836 80.0469 240.467 80.1608 240.982 80.3887C241.502 80.6165 241.896 80.9538 242.165 81.4004C242.438 81.8424 242.575 82.387 242.575 83.0342C242.575 83.4899 242.482 83.9069 242.295 84.2852C242.113 84.6589 241.848 84.9779 241.502 85.2422C241.16 85.502 240.75 85.6956 240.271 85.8232L239.902 85.9668H236.806L236.792 84.8936H239.13C239.604 84.8936 239.998 84.8115 240.312 84.6475C240.627 84.4788 240.864 84.2533 241.023 83.9707C241.183 83.6882 241.263 83.376 241.263 83.0342C241.263 82.6514 241.188 82.3164 241.037 82.0293C240.887 81.7422 240.65 81.5212 240.326 81.3662C240.007 81.2067 239.595 81.127 239.089 81.127H237.113V90H235.794V80.0469ZM241.611 90L239.191 85.4883L240.565 85.4814L243.02 89.918V90H241.611ZM253.198 87.4844C253.198 87.252 253.162 87.0469 253.089 86.8691C253.021 86.6868 252.897 86.5228 252.72 86.377C252.547 86.2311 252.305 86.0921 251.995 85.96C251.69 85.8278 251.302 85.6934 250.833 85.5566C250.341 85.4108 249.896 85.249 249.5 85.0713C249.104 84.889 248.764 84.6816 248.481 84.4492C248.199 84.2168 247.982 83.9502 247.832 83.6494C247.682 83.3486 247.606 83.0046 247.606 82.6172C247.606 82.2298 247.686 81.8721 247.846 81.5439C248.005 81.2158 248.233 80.931 248.529 80.6895C248.83 80.4434 249.188 80.252 249.603 80.1152C250.017 79.9785 250.48 79.9102 250.99 79.9102C251.738 79.9102 252.371 80.0537 252.891 80.3408C253.415 80.6234 253.813 80.9948 254.087 81.4551C254.36 81.9108 254.497 82.3984 254.497 82.918H253.185C253.185 82.5443 253.105 82.2139 252.945 81.9268C252.786 81.6351 252.544 81.4072 252.221 81.2432C251.897 81.0745 251.487 80.9902 250.99 80.9902C250.521 80.9902 250.133 81.0609 249.828 81.2021C249.523 81.3434 249.295 81.5348 249.145 81.7764C248.999 82.0179 248.926 82.2936 248.926 82.6035C248.926 82.8132 248.969 83.0046 249.056 83.1777C249.147 83.3464 249.286 83.5036 249.473 83.6494C249.664 83.7952 249.906 83.9297 250.197 84.0527C250.493 84.1758 250.847 84.2943 251.257 84.4082C251.822 84.5677 252.31 84.7454 252.72 84.9414C253.13 85.1374 253.467 85.3584 253.731 85.6045C254 85.846 254.199 86.1217 254.326 86.4316C254.458 86.737 254.524 87.0833 254.524 87.4707C254.524 87.8763 254.442 88.2432 254.278 88.5713C254.114 88.8994 253.88 89.1797 253.574 89.4121C253.269 89.6445 252.902 89.8245 252.474 89.9521C252.05 90.0752 251.576 90.1367 251.052 90.1367C250.591 90.1367 250.138 90.0729 249.691 89.9453C249.249 89.8177 248.846 89.6263 248.481 89.3711C248.121 89.1159 247.832 88.8014 247.613 88.4277C247.399 88.0495 247.292 87.612 247.292 87.1152H248.604C248.604 87.457 248.671 87.751 248.803 87.9971C248.935 88.2386 249.115 88.4391 249.343 88.5986C249.575 88.7581 249.837 88.8766 250.129 88.9541C250.425 89.027 250.733 89.0635 251.052 89.0635C251.512 89.0635 251.902 88.9997 252.221 88.8721C252.54 88.7445 252.781 88.5622 252.945 88.3252C253.114 88.0882 253.198 87.8079 253.198 87.4844ZM258.975 89.0977C259.275 89.0977 259.553 89.0361 259.809 88.9131C260.064 88.79 260.273 88.6214 260.438 88.4072C260.602 88.1885 260.695 87.9401 260.718 87.6621H261.921C261.898 88.0996 261.75 88.5075 261.477 88.8857C261.208 89.2594 260.854 89.5625 260.417 89.7949C259.979 90.0228 259.499 90.1367 258.975 90.1367C258.419 90.1367 257.933 90.0387 257.519 89.8428C257.108 89.6468 256.767 89.3779 256.493 89.0361C256.224 88.6943 256.021 88.3024 255.885 87.8604C255.753 87.4137 255.687 86.9421 255.687 86.4453V86.1582C255.687 85.6615 255.753 85.1921 255.885 84.75C256.021 84.3034 256.224 83.9092 256.493 83.5674C256.767 83.2256 257.108 82.9567 257.519 82.7607C257.933 82.5648 258.419 82.4668 258.975 82.4668C259.553 82.4668 260.059 82.5853 260.492 82.8223C260.925 83.0547 261.265 83.3737 261.511 83.7793C261.761 84.1803 261.898 84.6361 261.921 85.1465H260.718C260.695 84.8411 260.608 84.5654 260.458 84.3193C260.312 84.0732 260.112 83.8773 259.856 83.7314C259.606 83.5811 259.312 83.5059 258.975 83.5059C258.587 83.5059 258.261 83.5833 257.997 83.7383C257.737 83.8887 257.53 84.0938 257.375 84.3535C257.225 84.6087 257.115 84.8936 257.047 85.208C256.983 85.5179 256.951 85.8346 256.951 86.1582V86.4453C256.951 86.7689 256.983 87.0879 257.047 87.4023C257.111 87.7168 257.218 88.0016 257.368 88.2568C257.523 88.512 257.73 88.7171 257.99 88.8721C258.255 89.0225 258.583 89.0977 258.975 89.0977ZM267.704 88.7354V84.9277C267.704 84.6361 267.645 84.3831 267.526 84.1689C267.412 83.9502 267.239 83.7816 267.007 83.6631C266.774 83.5446 266.487 83.4854 266.146 83.4854C265.826 83.4854 265.546 83.54 265.305 83.6494C265.068 83.7588 264.881 83.9023 264.744 84.0801C264.612 84.2578 264.546 84.4492 264.546 84.6543H263.281C263.281 84.39 263.35 84.1279 263.486 83.8682C263.623 83.6084 263.819 83.3737 264.074 83.1641C264.334 82.9499 264.644 82.7812 265.004 82.6582C265.368 82.5306 265.774 82.4668 266.221 82.4668C266.758 82.4668 267.232 82.5579 267.643 82.7402C268.057 82.9225 268.381 83.1982 268.613 83.5674C268.85 83.932 268.969 84.39 268.969 84.9414V88.3867C268.969 88.6328 268.989 88.8949 269.03 89.1729C269.076 89.4508 269.142 89.6901 269.229 89.8906V90H267.909C267.845 89.8542 267.795 89.6605 267.759 89.4189C267.722 89.1729 267.704 88.945 267.704 88.7354ZM267.923 85.5156L267.937 86.4043H266.658C266.298 86.4043 265.977 86.4339 265.694 86.4932C265.412 86.5479 265.175 86.6322 264.983 86.7461C264.792 86.86 264.646 87.0036 264.546 87.1768C264.446 87.3454 264.396 87.5436 264.396 87.7715C264.396 88.0039 264.448 88.2158 264.553 88.4072C264.658 88.5986 264.815 88.7513 265.024 88.8652C265.239 88.9746 265.501 89.0293 265.811 89.0293C266.198 89.0293 266.54 88.9473 266.836 88.7832C267.132 88.6191 267.367 88.4186 267.54 88.1816C267.718 87.9447 267.813 87.7145 267.827 87.4912L268.367 88.0996C268.335 88.291 268.249 88.5029 268.107 88.7354C267.966 88.9678 267.777 89.1911 267.54 89.4053C267.308 89.6149 267.03 89.7904 266.706 89.9316C266.387 90.0684 266.027 90.1367 265.626 90.1367C265.125 90.1367 264.685 90.0387 264.307 89.8428C263.933 89.6468 263.641 89.3848 263.432 89.0566C263.227 88.724 263.124 88.3525 263.124 87.9424C263.124 87.5459 263.201 87.1973 263.356 86.8965C263.511 86.5911 263.735 86.3382 264.026 86.1377C264.318 85.9326 264.669 85.7777 265.079 85.6729C265.489 85.568 265.947 85.5156 266.453 85.5156H267.923ZM272.223 84.1826V90H270.958V82.6035H272.154L272.223 84.1826ZM271.922 86.0215L271.396 86.001C271.4 85.4951 271.475 85.028 271.621 84.5996C271.767 84.1667 271.972 83.7907 272.236 83.4717C272.501 83.1527 272.815 82.9066 273.18 82.7334C273.549 82.5557 273.957 82.4668 274.403 82.4668C274.768 82.4668 275.096 82.5169 275.388 82.6172C275.679 82.7129 275.928 82.8678 276.133 83.082C276.342 83.2962 276.502 83.5742 276.611 83.916C276.721 84.2533 276.775 84.6657 276.775 85.1533V90H275.504V85.1396C275.504 84.7523 275.447 84.4424 275.333 84.21C275.219 83.973 275.053 83.8021 274.834 83.6973C274.615 83.5879 274.346 83.5332 274.027 83.5332C273.713 83.5332 273.426 83.5993 273.166 83.7314C272.911 83.8636 272.69 84.0459 272.503 84.2783C272.321 84.5107 272.177 84.7773 272.072 85.0781C271.972 85.3743 271.922 85.6888 271.922 86.0215Z" fill="#0A2540"/>
<g filter="url(#filter1_d_3450_10411)">
<!-- <rect x="392" y="218" width="96" height="96" rx="8" fill="white"/> -->
</g>
<!-- <mask id="path-19-outside-1_3450_10411" maskUnits="userSpaceOnUse" x="429.102" y="236.711" width="10" height="9" fill="black">
<rect fill="white" x="429.102" y="236.711" width="10" height="9"/>
<path fill-rule="evenodd" clip-rule="evenodd" d="M435.521 242.671C435.554 242.709 435.596 242.738 435.645 242.754C436.72 243.132 438.125 243.781 438.314 245.115H437.757C437.61 244.338 436.884 243.756 435.458 243.254C435.315 243.204 435.19 243.118 435.095 243.004C435 242.891 434.938 242.754 434.918 242.609C434.897 242.466 434.918 242.32 434.977 242.187C435.036 242.054 435.132 241.94 435.253 241.856C435.554 241.647 435.859 240.888 435.859 240.637V239.917C435.866 239.493 435.704 239.082 435.406 238.77C435.108 238.459 434.697 238.27 434.259 238.244C434.038 238.237 433.818 238.273 433.611 238.351C433.405 238.428 433.217 238.544 433.058 238.693C432.899 238.842 432.773 239.02 432.687 239.217C432.601 239.414 432.557 239.625 432.557 239.839V240.637C432.557 240.888 432.861 241.647 433.162 241.856C433.284 241.94 433.38 242.055 433.439 242.187C433.498 242.32 433.519 242.466 433.498 242.609C433.478 242.754 433.417 242.891 433.321 243.004C433.226 243.118 433.101 243.204 432.958 243.254C431.53 243.756 430.805 244.338 430.659 245.115H430.102C430.29 243.781 431.695 243.132 432.769 242.754C432.818 242.738 432.861 242.709 432.893 242.671C432.925 242.632 432.946 242.586 432.952 242.537C432.96 242.49 432.954 242.441 432.934 242.397C432.915 242.353 432.883 242.315 432.842 242.288C432.389 241.973 432.006 241.05 432.006 240.637V239.839C432.006 239.554 432.065 239.272 432.18 239.01C432.295 238.747 432.463 238.51 432.675 238.311C432.887 238.113 433.137 237.958 433.412 237.855C433.687 237.752 433.981 237.703 434.275 237.712C434.856 237.743 435.402 237.99 435.8 238.401C436.197 238.812 436.415 239.355 436.409 239.917V240.637C436.409 241.05 436.026 241.973 435.572 242.288C435.531 242.315 435.499 242.353 435.48 242.397C435.461 242.441 435.454 242.49 435.462 242.537C435.468 242.586 435.489 242.632 435.521 242.671Z"/>
</mask> -->
<!-- <path fill-rule="evenodd" clip-rule="evenodd" d="M435.521 242.671C435.554 242.709 435.596 242.738 435.645 242.754C436.72 243.132 438.125 243.781 438.314 245.115H437.757C437.61 244.338 436.884 243.756 435.458 243.254C435.315 243.204 435.19 243.118 435.095 243.004C435 242.891 434.938 242.754 434.918 242.609C434.897 242.466 434.918 242.32 434.977 242.187C435.036 242.054 435.132 241.94 435.253 241.856C435.554 241.647 435.859 240.888 435.859 240.637V239.917C435.866 239.493 435.704 239.082 435.406 238.77C435.108 238.459 434.697 238.27 434.259 238.244C434.038 238.237 433.818 238.273 433.611 238.351C433.405 238.428 433.217 238.544 433.058 238.693C432.899 238.842 432.773 239.02 432.687 239.217C432.601 239.414 432.557 239.625 432.557 239.839V240.637C432.557 240.888 432.861 241.647 433.162 241.856C433.284 241.94 433.38 242.055 433.439 242.187C433.498 242.32 433.519 242.466 433.498 242.609C433.478 242.754 433.417 242.891 433.321 243.004C433.226 243.118 433.101 243.204 432.958 243.254C431.53 243.756 430.805 244.338 430.659 245.115H430.102C430.29 243.781 431.695 243.132 432.769 242.754C432.818 242.738 432.861 242.709 432.893 242.671C432.925 242.632 432.946 242.586 432.952 242.537C432.96 242.49 432.954 242.441 432.934 242.397C432.915 242.353 432.883 242.315 432.842 242.288C432.389 241.973 432.006 241.05 432.006 240.637V239.839C432.006 239.554 432.065 239.272 432.18 239.01C432.295 238.747 432.463 238.51 432.675 238.311C432.887 238.113 433.137 237.958 433.412 237.855C433.687 237.752 433.981 237.703 434.275 237.712C434.856 237.743 435.402 237.99 435.8 238.401C436.197 238.812 436.415 239.355 436.409 239.917V240.637C436.409 241.05 436.026 241.973 435.572 242.288C435.531 242.315 435.499 242.353 435.48 242.397C435.461 242.441 435.454 242.49 435.462 242.537C435.468 242.586 435.489 242.632 435.521 242.671Z" fill="#21366E"/> -->
<!-- <path d="M435.645 242.754L435.711 242.565L435.708 242.564L435.645 242.754ZM435.521 242.671L435.368 242.799L435.368 242.799L435.521 242.671ZM438.314 245.115V245.315H438.544L438.512 245.087L438.314 245.115ZM437.757 245.115L437.56 245.152L437.591 245.315H437.757V245.115ZM435.458 243.254L435.524 243.065L435.524 243.065L435.458 243.254ZM435.095 243.004L434.941 243.133L434.941 243.133L435.095 243.004ZM434.918 242.609L435.116 242.581L435.116 242.581L434.918 242.609ZM435.253 241.856L435.367 242.02L435.367 242.02L435.253 241.856ZM435.859 239.917L435.659 239.914V239.917H435.859ZM435.406 238.77L435.261 238.909V238.909L435.406 238.77ZM434.259 238.244L434.271 238.044L434.265 238.044L434.259 238.244ZM433.611 238.351L433.541 238.163V238.163L433.611 238.351ZM433.058 238.693L433.195 238.839L433.195 238.839L433.058 238.693ZM432.687 239.217L432.504 239.137L432.687 239.217ZM432.557 239.839H432.757L432.757 239.839L432.557 239.839ZM433.162 241.856L433.048 242.02L433.049 242.021L433.162 241.856ZM433.439 242.187L433.622 242.106L433.622 242.106L433.439 242.187ZM433.498 242.609L433.3 242.581L433.3 242.581L433.498 242.609ZM433.321 243.004L433.168 242.876L433.168 242.876L433.321 243.004ZM432.958 243.254L432.893 243.065L432.892 243.065L432.958 243.254ZM430.659 245.115V245.315H430.824L430.855 245.152L430.659 245.115ZM430.102 245.115L429.904 245.087L429.871 245.315H430.102V245.115ZM432.769 242.754L432.706 242.564L432.703 242.565L432.769 242.754ZM432.952 242.537L432.755 242.505L432.754 242.51L432.952 242.537ZM432.842 242.288L432.728 242.452L432.73 242.453L432.842 242.288ZM432.006 239.839H432.206V239.839L432.006 239.839ZM432.18 239.01L432.363 239.09V239.09L432.18 239.01ZM432.675 238.311L432.538 238.165L432.538 238.165L432.675 238.311ZM433.412 237.855L433.482 238.042L433.412 237.855ZM434.275 237.712L434.286 237.512L434.281 237.512L434.275 237.712ZM435.8 238.401L435.656 238.54L435.8 238.401ZM436.409 239.917L436.209 239.915V239.917H436.409ZM435.572 242.288L435.684 242.453L435.686 242.452L435.572 242.288ZM435.48 242.397L435.297 242.316L435.297 242.316L435.48 242.397ZM435.462 242.537L435.66 242.51L435.659 242.505L435.462 242.537ZM435.708 242.564C435.694 242.56 435.682 242.552 435.674 242.542L435.368 242.799C435.425 242.867 435.499 242.916 435.581 242.944L435.708 242.564ZM438.512 245.087C438.408 244.35 437.967 243.811 437.431 243.415C436.897 243.021 436.254 242.756 435.711 242.565L435.578 242.943C436.111 243.13 436.708 243.379 437.193 243.737C437.675 244.093 438.031 244.546 438.116 245.143L438.512 245.087ZM437.757 245.315H438.314V244.915H437.757V245.315ZM435.391 243.442C436.811 243.942 437.436 244.492 437.56 245.152L437.953 245.078C437.785 244.185 436.957 243.569 435.524 243.065L435.391 243.442ZM434.941 243.133C435.06 243.274 435.216 243.381 435.392 243.443L435.524 243.065C435.415 243.027 435.32 242.961 435.248 242.876L434.941 243.133ZM434.72 242.637C434.746 242.82 434.823 242.991 434.941 243.133L435.248 242.876C435.177 242.79 435.131 242.688 435.116 242.581L434.72 242.637ZM434.794 242.106C434.72 242.273 434.694 242.457 434.72 242.638L435.116 242.581C435.101 242.475 435.116 242.367 435.16 242.269L434.794 242.106ZM435.14 241.691C434.988 241.796 434.868 241.939 434.794 242.106L435.16 242.269C435.203 242.17 435.275 242.084 435.367 242.02L435.14 241.691ZM435.659 240.637C435.659 240.669 435.647 240.741 435.615 240.846C435.585 240.946 435.54 241.063 435.487 241.179C435.434 241.295 435.373 241.407 435.309 241.5C435.244 241.596 435.185 241.66 435.139 241.691L435.367 242.02C435.472 241.948 435.564 241.838 435.64 241.725C435.719 241.609 435.79 241.477 435.851 241.346C435.911 241.215 435.962 241.081 435.998 240.962C436.032 240.847 436.059 240.73 436.059 240.637H435.659ZM435.659 239.917V240.637H436.059V239.917H435.659ZM435.261 238.909C435.524 239.183 435.665 239.543 435.659 239.914L436.059 239.921C436.067 239.443 435.884 238.981 435.55 238.632L435.261 238.909ZM434.247 238.443C434.636 238.467 434.999 238.634 435.261 238.909L435.55 238.632C435.217 238.283 434.758 238.073 434.271 238.044L434.247 238.443ZM433.681 238.538C433.863 238.47 434.058 238.438 434.253 238.444L434.265 238.044C434.018 238.036 433.772 238.077 433.541 238.163L433.681 238.538ZM433.195 238.839C433.334 238.709 433.5 238.606 433.681 238.538L433.541 238.163C433.311 238.25 433.1 238.38 432.921 238.547L433.195 238.839ZM432.87 239.297C432.945 239.125 433.056 238.97 433.195 238.839L432.921 238.547C432.743 238.714 432.601 238.915 432.504 239.137L432.87 239.297ZM432.757 239.839C432.757 239.653 432.795 239.469 432.87 239.297L432.504 239.137C432.407 239.359 432.357 239.598 432.357 239.839L432.757 239.839ZM432.757 240.637V239.839H432.357V240.637H432.757ZM433.276 241.692C433.23 241.66 433.171 241.596 433.106 241.5C433.043 241.407 432.982 241.295 432.928 241.179C432.875 241.063 432.831 240.946 432.8 240.846C432.769 240.741 432.757 240.669 432.757 240.637H432.357C432.357 240.73 432.383 240.847 432.418 240.962C432.454 241.081 432.504 241.215 432.565 241.346C432.625 241.477 432.696 241.609 432.775 241.725C432.852 241.838 432.943 241.948 433.048 242.02L433.276 241.692ZM433.622 242.106C433.547 241.939 433.427 241.796 433.276 241.691L433.049 242.021C433.141 242.084 433.212 242.17 433.256 242.269L433.622 242.106ZM433.696 242.638C433.722 242.457 433.696 242.273 433.622 242.106L433.256 242.269C433.3 242.367 433.315 242.475 433.3 242.581L433.696 242.638ZM433.475 243.133C433.593 242.991 433.67 242.82 433.696 242.638L433.3 242.581C433.285 242.689 433.24 242.791 433.168 242.876L433.475 243.133ZM433.024 243.443C433.2 243.382 433.356 243.275 433.475 243.133L433.168 242.876C433.096 242.962 433.001 243.027 432.893 243.065L433.024 243.443ZM430.855 245.152C430.98 244.492 431.603 243.942 433.025 243.443L432.892 243.065C431.457 243.569 430.63 244.185 430.462 245.078L430.855 245.152ZM430.102 245.315H430.659V244.915H430.102V245.315ZM432.703 242.565C432.161 242.756 431.518 243.021 430.984 243.415C430.449 243.811 430.008 244.35 429.904 245.087L430.3 245.143C430.384 244.546 430.74 244.093 431.222 243.737C431.707 243.379 432.304 243.13 432.836 242.943L432.703 242.565ZM432.74 242.542C432.732 242.552 432.72 242.56 432.706 242.564L432.833 242.944C432.915 242.916 432.989 242.867 433.046 242.799L432.74 242.542ZM432.754 242.51C432.753 242.521 432.748 242.532 432.74 242.542L433.046 242.799C433.102 242.732 433.139 242.651 433.151 242.563L432.754 242.51ZM432.751 242.478C432.755 242.487 432.756 242.496 432.755 242.505L433.15 242.568C433.164 242.483 433.152 242.395 433.117 242.316L432.751 242.478ZM432.73 242.453C432.74 242.46 432.747 242.469 432.751 242.478L433.117 242.316C433.082 242.237 433.026 242.17 432.954 242.122L432.73 242.453ZM431.806 240.637C431.806 240.887 431.916 241.253 432.074 241.585C432.231 241.917 432.458 242.265 432.728 242.452L432.956 242.123C432.773 241.996 432.583 241.725 432.435 241.414C432.288 241.102 432.206 240.8 432.206 240.637H431.806ZM431.806 239.839V240.637H432.206V239.839H431.806ZM431.997 238.93C431.871 239.217 431.806 239.526 431.806 239.839L432.206 239.839C432.206 239.582 432.26 239.327 432.363 239.09L431.997 238.93ZM432.538 238.165C432.307 238.382 432.123 238.642 431.997 238.93L432.363 239.09C432.467 238.853 432.62 238.637 432.812 238.457L432.538 238.165ZM433.342 237.667C433.043 237.78 432.769 237.949 432.538 238.165L432.812 238.457C433.004 238.277 433.232 238.136 433.482 238.042L433.342 237.667ZM434.281 237.512C433.961 237.503 433.641 237.555 433.342 237.667L433.482 238.042C433.733 237.948 434.001 237.904 434.269 237.912L434.281 237.512ZM435.944 238.262C435.51 237.814 434.917 237.546 434.286 237.512L434.265 237.912C434.796 237.94 435.294 238.166 435.656 238.54L435.944 238.262ZM436.609 239.919C436.616 239.303 436.377 238.71 435.944 238.262L435.656 238.54C436.018 238.914 436.215 239.406 436.209 239.915L436.609 239.919ZM436.609 240.637V239.917H436.209V240.637H436.609ZM435.686 242.452C435.956 242.265 436.184 241.917 436.342 241.585C436.499 241.253 436.609 240.887 436.609 240.637H436.209C436.209 240.8 436.128 241.102 435.98 241.414C435.833 241.725 435.642 241.996 435.458 242.123L435.686 242.452ZM435.663 242.478C435.667 242.469 435.674 242.46 435.684 242.453L435.46 242.122C435.389 242.17 435.332 242.237 435.297 242.316L435.663 242.478ZM435.659 242.505C435.658 242.496 435.659 242.487 435.663 242.478L435.297 242.316C435.262 242.395 435.251 242.483 435.264 242.568L435.659 242.505ZM435.674 242.542C435.666 242.532 435.661 242.521 435.66 242.51L435.264 242.563C435.275 242.651 435.312 242.732 435.368 242.799L435.674 242.542Z" fill="#21366E" mask="url(#path-19-outside-1_3450_10411)"/> -->
<!-- <path d="M430.375 245.18C433.16 246.877 434.9 246.877 438.033 245.18" stroke="#21366E" stroke-linecap="round"/> -->
<!-- <path fill-rule="evenodd" clip-rule="evenodd" d="M439.605 243.651C439.22 243.651 438.991 243.195 439.166 242.851C439.502 242.194 439.69 241.456 439.69 240.681C439.69 237.985 437.419 235.742 434.544 235.742C431.67 235.742 429.398 237.985 429.398 240.681C429.398 241.456 429.586 242.194 429.922 242.851C430.097 243.195 429.869 243.651 429.483 243.651C429.32 243.651 429.168 243.566 429.091 243.423C428.649 242.602 428.398 241.67 428.398 240.681C428.398 237.401 431.15 234.742 434.544 234.742C437.938 234.742 440.69 237.401 440.69 240.681C440.69 241.67 440.44 242.602 439.997 243.423C439.92 243.566 439.768 243.651 439.605 243.651Z" fill="#21366E"/> -->
<mask id="path-23-outside-2_3450_10411" maskUnits="userSpaceOnUse" x="440.012" y="247.104" width="10" height="9" fill="black">
<!-- <rect fill="white" x="440.012" y="247.104" width="10" height="9"/> -->
<!-- <path fill-rule="evenodd" clip-rule="evenodd" d="M446.431 253.063C446.464 253.102 446.507 253.131 446.555 253.147C447.63 253.525 449.035 254.173 449.224 255.508H448.667C448.521 254.731 447.794 254.148 446.368 253.646C446.226 253.597 446.1 253.51 446.005 253.397C445.91 253.283 445.849 253.147 445.828 253.002C445.807 252.859 445.828 252.713 445.887 252.58C445.946 252.447 446.042 252.332 446.163 252.248C446.464 252.04 446.769 251.28 446.769 251.029V250.31C446.776 249.885 446.614 249.475 446.316 249.163C446.018 248.851 445.607 248.663 445.169 248.636C444.948 248.63 444.728 248.666 444.521 248.743C444.315 248.82 444.127 248.937 443.968 249.086C443.81 249.235 443.683 249.413 443.597 249.61C443.511 249.806 443.467 250.018 443.467 250.232V251.029C443.467 251.28 443.771 252.04 444.072 252.248C444.194 252.332 444.29 252.447 444.349 252.58C444.408 252.713 444.429 252.859 444.408 253.002C444.388 253.147 444.327 253.283 444.232 253.397C444.136 253.511 444.011 253.597 443.869 253.647C442.44 254.148 441.715 254.731 441.569 255.508H441.012C441.2 254.173 442.605 253.525 443.68 253.147C443.728 253.131 443.771 253.102 443.803 253.063C443.835 253.025 443.856 252.979 443.863 252.929C443.87 252.882 443.864 252.834 443.844 252.79C443.825 252.746 443.793 252.708 443.752 252.68C443.299 252.366 442.917 251.443 442.917 251.029V250.232C442.916 249.947 442.976 249.665 443.09 249.402C443.205 249.14 443.373 248.902 443.585 248.704C443.797 248.506 444.047 248.35 444.322 248.247C444.597 248.144 444.891 248.096 445.185 248.105C445.767 248.136 446.313 248.383 446.71 248.793C447.107 249.204 447.326 249.747 447.319 250.31V251.029C447.319 251.443 446.937 252.366 446.482 252.68C446.441 252.708 446.41 252.746 446.39 252.79C446.371 252.834 446.364 252.882 446.372 252.929C446.379 252.979 446.399 253.025 446.431 253.063Z"/> -->
</mask>
<!-- <path fill-rule="evenodd" clip-rule="evenodd" d="M446.431 253.063C446.464 253.102 446.507 253.131 446.555 253.147C447.63 253.525 449.035 254.173 449.224 255.508H448.667C448.521 254.731 447.794 254.148 446.368 253.646C446.226 253.597 446.1 253.51 446.005 253.397C445.91 253.283 445.849 253.147 445.828 253.002C445.807 252.859 445.828 252.713 445.887 252.58C445.946 252.447 446.042 252.332 446.163 252.248C446.464 252.04 446.769 251.28 446.769 251.029V250.31C446.776 249.885 446.614 249.475 446.316 249.163C446.018 248.851 445.607 248.663 445.169 248.636C444.948 248.63 444.728 248.666 444.521 248.743C444.315 248.82 444.127 248.937 443.968 249.086C443.81 249.235 443.683 249.413 443.597 249.61C443.511 249.806 443.467 250.018 443.467 250.232V251.029C443.467 251.28 443.771 252.04 444.072 252.248C444.194 252.332 444.29 252.447 444.349 252.58C444.408 252.713 444.429 252.859 444.408 253.002C444.388 253.147 444.327 253.283 444.232 253.397C444.136 253.511 444.011 253.597 443.869 253.647C442.44 254.148 441.715 254.731 441.569 255.508H441.012C441.2 254.173 442.605 253.525 443.68 253.147C443.728 253.131 443.771 253.102 443.803 253.063C443.835 253.025 443.856 252.979 443.863 252.929C443.87 252.882 443.864 252.834 443.844 252.79C443.825 252.746 443.793 252.708 443.752 252.68C443.299 252.366 442.917 251.443 442.917 251.029V250.232C442.916 249.947 442.976 249.665 443.09 249.402C443.205 249.14 443.373 248.902 443.585 248.704C443.797 248.506 444.047 248.35 444.322 248.247C444.597 248.144 444.891 248.096 445.185 248.105C445.767 248.136 446.313 248.383 446.71 248.793C447.107 249.204 447.326 249.747 447.319 250.31V251.029C447.319 251.443 446.937 252.366 446.482 252.68C446.441 252.708 446.41 252.746 446.39 252.79C446.371 252.834 446.364 252.882 446.372 252.929C446.379 252.979 446.399 253.025 446.431 253.063Z" fill="#21366E"/> -->
<!-- <path d="M446.555 253.147L446.621 252.958L446.618 252.957L446.555 253.147ZM446.431 253.063L446.278 253.192L446.278 253.192L446.431 253.063ZM449.224 255.508V255.708H449.454L449.422 255.48L449.224 255.508ZM448.667 255.508L448.47 255.545L448.501 255.708H448.667V255.508ZM446.368 253.646L446.434 253.458L446.434 253.457L446.368 253.646ZM446.005 253.397L445.852 253.525L445.852 253.525L446.005 253.397ZM445.828 253.002L446.026 252.974L446.026 252.973L445.828 253.002ZM446.163 252.248L446.277 252.413L446.277 252.413L446.163 252.248ZM446.769 250.31L446.569 250.306V250.31H446.769ZM446.316 249.163L446.171 249.301V249.301L446.316 249.163ZM445.169 248.636L445.181 248.437L445.175 248.436L445.169 248.636ZM444.521 248.743L444.451 248.556V248.556L444.521 248.743ZM443.968 249.086L444.105 249.232L444.105 249.232L443.968 249.086ZM443.597 249.61L443.414 249.529L443.597 249.61ZM443.467 250.232H443.667L443.667 250.232L443.467 250.232ZM444.072 252.248L443.958 252.413L443.959 252.413L444.072 252.248ZM444.349 252.58L444.532 252.498L444.532 252.498L444.349 252.58ZM444.408 253.002L444.21 252.974L444.21 252.974L444.408 253.002ZM444.232 253.397L444.078 253.269L444.078 253.269L444.232 253.397ZM443.869 253.647L443.803 253.458L443.802 253.458L443.869 253.647ZM441.569 255.508V255.708H441.735L441.765 255.545L441.569 255.508ZM441.012 255.508L440.814 255.48L440.781 255.708H441.012V255.508ZM443.68 253.147L443.616 252.957L443.613 252.958L443.68 253.147ZM443.863 252.929L443.665 252.898L443.664 252.903L443.863 252.929ZM443.752 252.68L443.638 252.845L443.64 252.846L443.752 252.68ZM442.917 250.232H443.117V250.232L442.917 250.232ZM443.09 249.402L443.274 249.482V249.482L443.09 249.402ZM443.585 248.704L443.448 248.558L443.448 248.558L443.585 248.704ZM444.322 248.247L444.392 248.435L444.322 248.247ZM445.185 248.105L445.196 247.905L445.191 247.905L445.185 248.105ZM446.71 248.793L446.566 248.933L446.71 248.793ZM447.319 250.31L447.119 250.307V250.31H447.319ZM446.482 252.68L446.594 252.846L446.596 252.845L446.482 252.68ZM446.39 252.79L446.207 252.709L446.207 252.709L446.39 252.79ZM446.372 252.929L446.57 252.903L446.569 252.898L446.372 252.929ZM446.618 252.957C446.604 252.952 446.593 252.944 446.584 252.934L446.278 253.192C446.335 253.259 446.409 253.309 446.492 253.336L446.618 252.957ZM449.422 255.48C449.318 254.742 448.877 254.204 448.341 253.808C447.807 253.413 447.164 253.149 446.621 252.958L446.489 253.335C447.021 253.523 447.618 253.771 448.103 254.129C448.586 254.486 448.942 254.939 449.026 255.536L449.422 255.48ZM448.667 255.708H449.224V255.308H448.667V255.708ZM446.301 253.835C447.721 254.334 448.346 254.884 448.47 255.545L448.863 255.471C448.695 254.578 447.867 253.962 446.434 253.458L446.301 253.835ZM445.852 253.525C445.97 253.667 446.126 253.774 446.302 253.835L446.434 253.457C446.325 253.42 446.23 253.354 446.158 253.268L445.852 253.525ZM445.63 253.03C445.656 253.212 445.733 253.383 445.852 253.525L446.158 253.268C446.087 253.183 446.041 253.081 446.026 252.974L445.63 253.03ZM445.704 252.498C445.63 252.666 445.604 252.849 445.63 253.03L446.026 252.973C446.011 252.868 446.026 252.76 446.07 252.661L445.704 252.498ZM446.05 252.084C445.898 252.188 445.779 252.331 445.704 252.498L446.07 252.661C446.114 252.562 446.185 252.476 446.277 252.413L446.05 252.084ZM446.569 251.029C446.569 251.062 446.557 251.133 446.525 251.238C446.495 251.339 446.451 251.455 446.397 251.571C446.344 251.687 446.283 251.8 446.219 251.893C446.154 251.989 446.095 252.052 446.05 252.084L446.277 252.413C446.382 252.34 446.474 252.23 446.55 252.117C446.629 252.002 446.7 251.869 446.761 251.738C446.821 251.607 446.872 251.474 446.908 251.354C446.943 251.24 446.969 251.123 446.969 251.029H446.569ZM446.569 250.31V251.029H446.969V250.31H446.569ZM446.171 249.301C446.434 249.575 446.575 249.935 446.569 250.306L446.969 250.313C446.977 249.835 446.794 249.374 446.461 249.025L446.171 249.301ZM445.157 248.836C445.546 248.859 445.909 249.027 446.171 249.301L446.461 249.025C446.127 248.676 445.669 248.466 445.181 248.437L445.157 248.836ZM444.592 248.931C444.773 248.863 444.968 248.83 445.163 248.836L445.175 248.436C444.928 248.429 444.682 248.47 444.451 248.556L444.592 248.931ZM444.105 249.232C444.244 249.101 444.41 248.999 444.592 248.931L444.451 248.556C444.221 248.642 444.01 248.773 443.832 248.94L444.105 249.232ZM443.78 249.69C443.856 249.518 443.966 249.362 444.105 249.232L443.832 248.94C443.653 249.107 443.511 249.307 443.414 249.529L443.78 249.69ZM443.667 250.232C443.667 250.046 443.705 249.861 443.78 249.69L443.414 249.529C443.317 249.751 443.267 249.99 443.267 250.232L443.667 250.232ZM443.667 251.029V250.232H443.267V251.029H443.667ZM444.186 252.084C444.14 252.052 444.081 251.989 444.016 251.893C443.953 251.8 443.892 251.688 443.838 251.571C443.785 251.455 443.741 251.339 443.711 251.238C443.679 251.133 443.667 251.062 443.667 251.029H443.267C443.267 251.123 443.293 251.24 443.328 251.354C443.364 251.474 443.415 251.607 443.475 251.738C443.535 251.869 443.607 252.002 443.685 252.118C443.762 252.23 443.854 252.34 443.958 252.413L444.186 252.084ZM444.532 252.498C444.457 252.331 444.337 252.188 444.186 252.084L443.959 252.413C444.051 252.477 444.122 252.563 444.167 252.661L444.532 252.498ZM444.606 253.03C444.632 252.85 444.606 252.665 444.532 252.498L444.167 252.661C444.21 252.76 444.226 252.868 444.21 252.974L444.606 253.03ZM444.385 253.525C444.504 253.384 444.581 253.212 444.606 253.03L444.21 252.974C444.195 253.081 444.15 253.183 444.078 253.269L444.385 253.525ZM443.934 253.835C444.11 253.774 444.266 253.667 444.385 253.525L444.078 253.269C444.007 253.354 443.912 253.42 443.803 253.458L443.934 253.835ZM441.765 255.545C441.89 254.884 442.513 254.334 443.935 253.835L443.802 253.458C442.367 253.962 441.54 254.578 441.372 255.471L441.765 255.545ZM441.012 255.708H441.569V255.308H441.012V255.708ZM443.613 252.958C443.071 253.149 442.428 253.413 441.895 253.808C441.359 254.204 440.918 254.742 440.814 255.48L441.21 255.536C441.294 254.939 441.65 254.486 442.132 254.129C442.617 253.771 443.214 253.523 443.746 253.335L443.613 252.958ZM443.65 252.934C443.642 252.944 443.63 252.952 443.616 252.957L443.743 253.336C443.826 253.309 443.9 253.259 443.956 253.192L443.65 252.934ZM443.664 252.903C443.663 252.914 443.658 252.925 443.65 252.934L443.956 253.192C444.013 253.125 444.049 253.043 444.061 252.956L443.664 252.903ZM443.661 252.87C443.665 252.879 443.667 252.889 443.665 252.898L444.06 252.961C444.074 252.875 444.062 252.788 444.027 252.709L443.661 252.87ZM443.64 252.846C443.65 252.853 443.657 252.861 443.661 252.87L444.027 252.709C443.992 252.63 443.936 252.563 443.865 252.515L443.64 252.846ZM442.717 251.029C442.717 251.279 442.826 251.645 442.984 251.977C443.141 252.309 443.368 252.657 443.638 252.845L443.866 252.516C443.683 252.389 443.493 252.118 443.345 251.806C443.198 251.495 443.117 251.192 443.117 251.029H442.717ZM442.717 250.232V251.029H443.117V250.232H442.717ZM442.907 249.322C442.781 249.61 442.716 249.919 442.717 250.232L443.117 250.232C443.116 249.974 443.17 249.72 443.274 249.482L442.907 249.322ZM443.448 248.558C443.217 248.775 443.033 249.034 442.907 249.322L443.274 249.482C443.377 249.245 443.53 249.03 443.722 248.85L443.448 248.558ZM444.252 248.06C443.953 248.172 443.679 248.341 443.448 248.558L443.722 248.85C443.914 248.67 444.142 248.528 444.392 248.435L444.252 248.06ZM445.191 247.905C444.871 247.895 444.552 247.948 444.252 248.06L444.392 248.435C444.643 248.341 444.911 248.296 445.18 248.304L445.191 247.905ZM446.854 248.654C446.421 248.207 445.827 247.939 445.196 247.905L445.175 248.304C445.706 248.333 446.205 248.559 446.566 248.933L446.854 248.654ZM447.519 250.312C447.526 249.696 447.287 249.102 446.854 248.654L446.566 248.933C446.928 249.306 447.125 249.799 447.119 250.307L447.519 250.312ZM447.519 251.029V250.31H447.119V251.029H447.519ZM446.596 252.845C446.867 252.657 447.094 252.31 447.252 251.977C447.409 251.645 447.519 251.279 447.519 251.029H447.119C447.119 251.192 447.038 251.495 446.89 251.806C446.743 252.118 446.552 252.389 446.368 252.516L446.596 252.845ZM446.573 252.871C446.577 252.861 446.584 252.853 446.594 252.846L446.37 252.515C446.299 252.563 446.242 252.63 446.207 252.709L446.573 252.871ZM446.569 252.898C446.568 252.889 446.569 252.879 446.573 252.871L446.207 252.709C446.172 252.788 446.161 252.875 446.174 252.961L446.569 252.898ZM446.584 252.934C446.576 252.925 446.572 252.914 446.57 252.903L446.174 252.956C446.185 253.043 446.222 253.125 446.278 253.192L446.584 252.934Z" fill="#21366E" mask="url(#path-23-outside-2_3450_10411)"/> -->
<!-- <path d="M441.289 255.572C444.074 257.27 445.814 257.27 448.947 255.572" stroke="#21366E" stroke-linecap="round"/> -->
<!-- <path fill-rule="evenodd" clip-rule="evenodd" d="M450.52 254.043C450.134 254.043 449.905 253.587 450.08 253.244C450.416 252.586 450.604 251.849 450.604 251.074C450.604 248.378 448.333 246.135 445.458 246.135C442.584 246.135 440.312 248.378 440.312 251.074C440.312 251.849 440.5 252.586 440.836 253.244C441.011 253.587 440.783 254.043 440.397 254.043C440.234 254.043 440.082 253.958 440.005 253.815C439.563 252.995 439.312 252.063 439.312 251.074C439.312 247.794 442.064 245.135 445.458 245.135C448.852 245.135 451.604 247.794 451.604 251.074C451.604 252.063 451.354 252.995 450.911 253.815C450.834 253.958 450.682 254.043 450.52 254.043Z" fill="#21366E"/> -->
<!-- <path d="M432.719 250.717L432.719 250.717L431.795 247.797C431.795 247.797 431.795 247.797 431.795 247.797C431.719 247.558 431.859 247.308 432.102 247.236L432.102 247.236C432.347 247.163 432.609 247.296 432.685 247.536L432.685 247.536L433.609 250.455C433.675 250.661 433.58 250.876 433.397 250.977L432.719 250.717ZM432.719 250.717C432.795 250.957 433.057 251.089 433.301 251.017L432.719 250.717Z" fill="#3FAFE9" stroke="#3FAFE9" stroke-width="0.2"/>
<path d="M430.159 250.128L430.159 250.128C430.189 250.111 430.217 250.091 430.243 250.068L432.556 247.999C432.556 247.999 432.556 247.999 432.556 247.999C432.743 247.831 432.756 247.545 432.58 247.361L432.58 247.361C432.404 247.178 432.11 247.168 431.922 247.336L431.922 247.336L429.61 249.405C429.61 249.405 429.61 249.405 429.61 249.405C429.422 249.573 429.409 249.858 429.586 250.042L429.586 250.042C429.737 250.2 429.976 250.229 430.159 250.128Z" fill="#3FAFE9" stroke="#3FAFE9" stroke-width="0.2"/>
<path d="M431.077 250.094L431.077 250.094C430.728 251.366 430.909 252.695 431.588 253.837C432.997 256.208 436.132 257.03 438.577 255.674C438.798 255.551 438.877 255.276 438.747 255.059C438.618 254.841 438.333 254.769 438.112 254.891C436.11 256.002 433.546 255.327 432.394 253.39C431.839 252.456 431.691 251.369 431.976 250.329C431.976 250.329 431.976 250.329 431.976 250.329L432.651 247.905L432.651 247.905C432.718 247.664 432.57 247.416 432.321 247.351C432.073 247.286 431.818 247.428 431.752 247.667L431.752 247.667L431.077 250.094Z" fill="#3FAFE9" stroke="#3FAFE9" stroke-width="0.2"/>
<path d="M446.706 241.077L446.706 241.077L446.133 240.933L446.092 240.843C446.092 240.843 446.092 240.843 446.092 240.843C446.06 240.857 446.029 240.874 446.002 240.893C445.831 241.014 445.763 241.238 445.851 241.435L447.111 244.235L447.111 244.235C447.214 244.464 447.489 244.568 447.724 244.469L447.724 244.469C447.959 244.371 448.068 244.106 447.965 243.877C447.965 243.877 447.965 243.877 447.965 243.877L446.706 241.077Z" fill="#3FAFE9" stroke="#3FAFE9" stroke-width="0.2"/>
<path d="M449.316 241.384L449.316 241.384C449.486 241.263 449.727 241.266 449.896 241.406L449.896 241.406C450.092 241.569 450.113 241.854 449.946 242.042C449.946 242.042 449.946 242.042 449.946 242.042L447.889 244.35L447.889 244.35C447.722 244.537 447.428 244.559 447.233 244.396L447.233 244.396C447.037 244.233 447.016 243.949 447.183 243.761L449.316 241.384ZM449.316 241.384C449.288 241.404 449.262 241.427 449.239 241.453C449.239 241.453 449.239 241.453 449.239 241.453L447.183 243.761L449.316 241.384Z" fill="#3FAFE9" stroke="#3FAFE9" stroke-width="0.2"/>
<path d="M448.402 241.517L448.402 241.517C448.6 240.215 448.265 238.914 447.458 237.853C445.781 235.652 442.57 235.176 440.299 236.791C440.093 236.937 440.047 237.219 440.2 237.42C440.354 237.622 440.645 237.664 440.852 237.517C442.71 236.195 445.337 236.587 446.708 238.387C447.368 239.254 447.643 240.318 447.48 241.382C447.48 241.382 447.48 241.382 447.48 241.382L447.093 243.865L447.093 243.865C447.054 244.111 447.23 244.341 447.485 244.379C447.739 244.416 447.976 244.247 448.014 244.001L448.014 244.001L448.402 241.517Z" fill="#3FAFE9" stroke="#3FAFE9" stroke-width="0.2"/>
<path d="M419.267 270.047H420.545L423.806 278.161L427.06 270.047H428.345L424.298 280H423.3L419.267 270.047ZM418.85 270.047H419.978L420.162 276.117V280H418.85V270.047ZM427.627 270.047H428.755V280H427.442V276.117L427.627 270.047ZM430.546 276.384V276.227C430.546 275.693 430.623 275.199 430.778 274.743C430.933 274.283 431.157 273.884 431.448 273.547C431.74 273.205 432.093 272.941 432.508 272.754C432.923 272.562 433.387 272.467 433.902 272.467C434.422 272.467 434.889 272.562 435.304 272.754C435.723 272.941 436.078 273.205 436.37 273.547C436.666 273.884 436.892 274.283 437.047 274.743C437.202 275.199 437.279 275.693 437.279 276.227V276.384C437.279 276.917 437.202 277.411 437.047 277.867C436.892 278.323 436.666 278.722 436.37 279.063C436.078 279.401 435.725 279.665 435.311 279.856C434.9 280.043 434.436 280.137 433.916 280.137C433.396 280.137 432.929 280.043 432.515 279.856C432.1 279.665 431.744 279.401 431.448 279.063C431.157 278.722 430.933 278.323 430.778 277.867C430.623 277.411 430.546 276.917 430.546 276.384ZM431.811 276.227V276.384C431.811 276.753 431.854 277.102 431.94 277.43C432.027 277.753 432.157 278.04 432.33 278.291C432.508 278.542 432.729 278.74 432.993 278.886C433.257 279.027 433.565 279.098 433.916 279.098C434.262 279.098 434.565 279.027 434.825 278.886C435.09 278.74 435.308 278.542 435.481 278.291C435.655 278.04 435.785 277.753 435.871 277.43C435.962 277.102 436.008 276.753 436.008 276.384V276.227C436.008 275.862 435.962 275.518 435.871 275.194C435.785 274.866 435.652 274.577 435.475 274.326C435.301 274.071 435.083 273.87 434.818 273.725C434.559 273.579 434.253 273.506 433.902 273.506C433.556 273.506 433.251 273.579 432.986 273.725C432.727 273.87 432.508 274.071 432.33 274.326C432.157 274.577 432.027 274.866 431.94 275.194C431.854 275.518 431.811 275.862 431.811 276.227ZM440.13 274.183V280H438.865V272.604H440.062L440.13 274.183ZM439.829 276.021L439.303 276.001C439.307 275.495 439.382 275.028 439.528 274.6C439.674 274.167 439.879 273.791 440.144 273.472C440.408 273.153 440.722 272.907 441.087 272.733C441.456 272.556 441.864 272.467 442.311 272.467C442.675 272.467 443.003 272.517 443.295 272.617C443.587 272.713 443.835 272.868 444.04 273.082C444.25 273.296 444.409 273.574 444.519 273.916C444.628 274.253 444.683 274.666 444.683 275.153V280H443.411V275.14C443.411 274.752 443.354 274.442 443.24 274.21C443.126 273.973 442.96 273.802 442.741 273.697C442.522 273.588 442.254 273.533 441.935 273.533C441.62 273.533 441.333 273.599 441.073 273.731C440.818 273.864 440.597 274.046 440.41 274.278C440.228 274.511 440.084 274.777 439.979 275.078C439.879 275.374 439.829 275.689 439.829 276.021ZM449.7 272.604V273.574H445.701V272.604H449.7ZM447.055 270.806H448.319V278.168C448.319 278.419 448.358 278.608 448.436 278.735C448.513 278.863 448.613 278.947 448.736 278.988C448.859 279.029 448.992 279.05 449.133 279.05C449.238 279.05 449.347 279.041 449.461 279.022C449.579 279 449.668 278.981 449.728 278.968L449.734 280C449.634 280.032 449.502 280.062 449.338 280.089C449.178 280.121 448.985 280.137 448.757 280.137C448.447 280.137 448.162 280.075 447.902 279.952C447.643 279.829 447.435 279.624 447.28 279.337C447.13 279.045 447.055 278.653 447.055 278.161V270.806ZM452.448 273.766V280H451.184V272.604H452.414L452.448 273.766ZM454.759 272.562L454.752 273.738C454.647 273.715 454.547 273.702 454.451 273.697C454.36 273.688 454.255 273.684 454.137 273.684C453.845 273.684 453.588 273.729 453.364 273.82C453.141 273.911 452.952 274.039 452.797 274.203C452.642 274.367 452.519 274.563 452.428 274.791C452.341 275.014 452.284 275.26 452.257 275.529L451.901 275.734C451.901 275.288 451.945 274.868 452.031 274.477C452.122 274.085 452.261 273.738 452.448 273.438C452.635 273.132 452.872 272.895 453.159 272.727C453.451 272.553 453.797 272.467 454.198 272.467C454.289 272.467 454.394 272.478 454.513 272.501C454.631 272.519 454.713 272.54 454.759 272.562ZM460.016 278.735V274.928C460.016 274.636 459.956 274.383 459.838 274.169C459.724 273.95 459.551 273.782 459.318 273.663C459.086 273.545 458.799 273.485 458.457 273.485C458.138 273.485 457.858 273.54 457.616 273.649C457.379 273.759 457.192 273.902 457.056 274.08C456.924 274.258 456.857 274.449 456.857 274.654H455.593C455.593 274.39 455.661 274.128 455.798 273.868C455.935 273.608 456.131 273.374 456.386 273.164C456.646 272.95 456.955 272.781 457.315 272.658C457.68 272.531 458.086 272.467 458.532 272.467C459.07 272.467 459.544 272.558 459.954 272.74C460.369 272.923 460.692 273.198 460.925 273.567C461.162 273.932 461.28 274.39 461.28 274.941V278.387C461.28 278.633 461.301 278.895 461.342 279.173C461.387 279.451 461.453 279.69 461.54 279.891V280H460.221C460.157 279.854 460.107 279.66 460.07 279.419C460.034 279.173 460.016 278.945 460.016 278.735ZM460.234 275.516L460.248 276.404H458.97C458.61 276.404 458.288 276.434 458.006 276.493C457.723 276.548 457.486 276.632 457.295 276.746C457.104 276.86 456.958 277.004 456.857 277.177C456.757 277.345 456.707 277.544 456.707 277.771C456.707 278.004 456.759 278.216 456.864 278.407C456.969 278.599 457.126 278.751 457.336 278.865C457.55 278.975 457.812 279.029 458.122 279.029C458.509 279.029 458.851 278.947 459.147 278.783C459.444 278.619 459.678 278.419 459.852 278.182C460.029 277.945 460.125 277.715 460.139 277.491L460.679 278.1C460.647 278.291 460.56 278.503 460.419 278.735C460.278 278.968 460.089 279.191 459.852 279.405C459.619 279.615 459.341 279.79 459.018 279.932C458.699 280.068 458.339 280.137 457.938 280.137C457.436 280.137 456.996 280.039 456.618 279.843C456.244 279.647 455.953 279.385 455.743 279.057C455.538 278.724 455.436 278.353 455.436 277.942C455.436 277.546 455.513 277.197 455.668 276.896C455.823 276.591 456.046 276.338 456.338 276.138C456.63 275.933 456.98 275.778 457.391 275.673C457.801 275.568 458.259 275.516 458.765 275.516H460.234ZM422.855 288.929L419.561 298H418.214L422.008 288.047H422.876L422.855 288.929ZM425.617 298L422.315 288.929L422.295 288.047H423.163L426.971 298H425.617ZM425.446 294.315V295.396H419.854V294.315H425.446ZM432.904 290.604H434.053V297.843C434.053 298.494 433.921 299.05 433.656 299.511C433.392 299.971 433.023 300.32 432.549 300.557C432.079 300.798 431.537 300.919 430.922 300.919C430.667 300.919 430.366 300.878 430.02 300.796C429.678 300.718 429.34 300.584 429.008 300.393C428.68 300.206 428.404 299.953 428.181 299.634L428.844 298.882C429.154 299.256 429.477 299.515 429.814 299.661C430.156 299.807 430.493 299.88 430.826 299.88C431.227 299.88 431.574 299.805 431.865 299.654C432.157 299.504 432.382 299.281 432.542 298.984C432.706 298.693 432.788 298.333 432.788 297.904V292.23L432.904 290.604ZM427.812 294.384V294.24C427.812 293.675 427.878 293.162 428.01 292.702C428.146 292.237 428.34 291.839 428.591 291.506C428.846 291.173 429.154 290.918 429.514 290.74C429.874 290.558 430.279 290.467 430.73 290.467C431.195 290.467 431.601 290.549 431.947 290.713C432.298 290.872 432.594 291.107 432.836 291.417C433.082 291.722 433.276 292.091 433.417 292.524C433.558 292.957 433.656 293.447 433.711 293.994V294.623C433.661 295.165 433.563 295.653 433.417 296.086C433.276 296.519 433.082 296.888 432.836 297.193C432.594 297.499 432.298 297.733 431.947 297.897C431.596 298.057 431.186 298.137 430.717 298.137C430.275 298.137 429.874 298.043 429.514 297.856C429.158 297.67 428.853 297.408 428.598 297.07C428.342 296.733 428.146 296.337 428.01 295.881C427.878 295.421 427.812 294.922 427.812 294.384ZM429.076 294.24V294.384C429.076 294.753 429.113 295.099 429.186 295.423C429.263 295.746 429.379 296.031 429.534 296.277C429.694 296.523 429.896 296.717 430.143 296.858C430.389 296.995 430.683 297.063 431.024 297.063C431.444 297.063 431.79 296.975 432.063 296.797C432.337 296.619 432.553 296.384 432.713 296.093C432.877 295.801 433.005 295.484 433.096 295.143V293.495C433.046 293.244 432.968 293.003 432.863 292.771C432.763 292.534 432.631 292.324 432.467 292.142C432.307 291.955 432.109 291.807 431.872 291.697C431.635 291.588 431.357 291.533 431.038 291.533C430.692 291.533 430.393 291.606 430.143 291.752C429.896 291.893 429.694 292.089 429.534 292.34C429.379 292.586 429.263 292.873 429.186 293.201C429.113 293.525 429.076 293.871 429.076 294.24ZM439.043 298.137C438.528 298.137 438.061 298.05 437.642 297.877C437.227 297.699 436.869 297.451 436.568 297.132C436.272 296.813 436.044 296.435 435.885 295.997C435.725 295.56 435.646 295.081 435.646 294.562V294.274C435.646 293.673 435.734 293.137 435.912 292.668C436.09 292.194 436.331 291.793 436.637 291.465C436.942 291.137 437.288 290.888 437.676 290.72C438.063 290.551 438.464 290.467 438.879 290.467C439.408 290.467 439.863 290.558 440.246 290.74C440.633 290.923 440.95 291.178 441.196 291.506C441.442 291.829 441.625 292.212 441.743 292.654C441.862 293.092 441.921 293.57 441.921 294.09V294.657H436.397V293.625H440.656V293.529C440.638 293.201 440.57 292.882 440.451 292.572C440.337 292.262 440.155 292.007 439.904 291.807C439.654 291.606 439.312 291.506 438.879 291.506C438.592 291.506 438.327 291.567 438.086 291.69C437.844 291.809 437.637 291.987 437.464 292.224C437.291 292.461 437.156 292.75 437.061 293.092C436.965 293.434 436.917 293.828 436.917 294.274V294.562C436.917 294.912 436.965 295.243 437.061 295.553C437.161 295.858 437.304 296.127 437.491 296.359C437.683 296.592 437.913 296.774 438.182 296.906C438.455 297.038 438.765 297.104 439.111 297.104C439.558 297.104 439.936 297.013 440.246 296.831C440.556 296.649 440.827 296.405 441.06 296.1L441.825 296.708C441.666 296.95 441.463 297.18 441.217 297.398C440.971 297.617 440.668 297.795 440.308 297.932C439.952 298.068 439.531 298.137 439.043 298.137ZM444.662 292.183V298H443.397V290.604H444.594L444.662 292.183ZM444.361 294.021L443.835 294.001C443.84 293.495 443.915 293.028 444.061 292.6C444.206 292.167 444.411 291.791 444.676 291.472C444.94 291.153 445.255 290.907 445.619 290.733C445.988 290.556 446.396 290.467 446.843 290.467C447.207 290.467 447.535 290.517 447.827 290.617C448.119 290.713 448.367 290.868 448.572 291.082C448.782 291.296 448.941 291.574 449.051 291.916C449.16 292.253 449.215 292.666 449.215 293.153V298H447.943V293.14C447.943 292.752 447.886 292.442 447.772 292.21C447.659 291.973 447.492 291.802 447.273 291.697C447.055 291.588 446.786 291.533 446.467 291.533C446.152 291.533 445.865 291.599 445.605 291.731C445.35 291.864 445.129 292.046 444.942 292.278C444.76 292.511 444.617 292.777 444.512 293.078C444.411 293.374 444.361 293.689 444.361 294.021ZM454.232 290.604V291.574H450.233V290.604H454.232ZM451.587 288.806H452.852V296.168C452.852 296.419 452.89 296.608 452.968 296.735C453.045 296.863 453.146 296.947 453.269 296.988C453.392 297.029 453.524 297.05 453.665 297.05C453.77 297.05 453.879 297.041 453.993 297.022C454.112 297 454.201 296.981 454.26 296.968L454.267 298C454.166 298.032 454.034 298.062 453.87 298.089C453.711 298.121 453.517 298.137 453.289 298.137C452.979 298.137 452.694 298.075 452.435 297.952C452.175 297.829 451.967 297.624 451.812 297.337C451.662 297.045 451.587 296.653 451.587 296.161V288.806ZM460.022 296.038C460.022 295.856 459.981 295.687 459.899 295.532C459.822 295.373 459.66 295.229 459.414 295.102C459.173 294.969 458.808 294.855 458.32 294.76C457.91 294.673 457.539 294.571 457.206 294.452C456.878 294.334 456.598 294.19 456.365 294.021C456.137 293.853 455.962 293.655 455.839 293.427C455.716 293.199 455.654 292.932 455.654 292.627C455.654 292.335 455.718 292.06 455.846 291.8C455.978 291.54 456.162 291.31 456.399 291.109C456.641 290.909 456.93 290.752 457.268 290.638C457.605 290.524 457.981 290.467 458.396 290.467C458.988 290.467 459.494 290.572 459.913 290.781C460.332 290.991 460.654 291.271 460.877 291.622C461.1 291.968 461.212 292.354 461.212 292.777H459.947C459.947 292.572 459.886 292.374 459.763 292.183C459.644 291.987 459.469 291.825 459.236 291.697C459.008 291.57 458.728 291.506 458.396 291.506C458.045 291.506 457.76 291.561 457.541 291.67C457.327 291.775 457.17 291.909 457.069 292.073C456.974 292.237 456.926 292.41 456.926 292.593C456.926 292.729 456.949 292.853 456.994 292.962C457.044 293.067 457.131 293.165 457.254 293.256C457.377 293.342 457.55 293.424 457.773 293.502C457.997 293.579 458.282 293.657 458.628 293.734C459.234 293.871 459.733 294.035 460.125 294.227C460.517 294.418 460.809 294.653 461 294.931C461.191 295.209 461.287 295.546 461.287 295.942C461.287 296.266 461.219 296.562 461.082 296.831C460.95 297.1 460.756 297.332 460.501 297.528C460.25 297.72 459.95 297.87 459.599 297.979C459.252 298.084 458.863 298.137 458.43 298.137C457.778 298.137 457.227 298.021 456.775 297.788C456.324 297.556 455.982 297.255 455.75 296.886C455.518 296.517 455.401 296.127 455.401 295.717H456.673C456.691 296.063 456.791 296.339 456.974 296.544C457.156 296.744 457.379 296.888 457.644 296.975C457.908 297.057 458.17 297.098 458.43 297.098C458.776 297.098 459.065 297.052 459.298 296.961C459.535 296.87 459.715 296.744 459.838 296.585C459.961 296.425 460.022 296.243 460.022 296.038Z" fill="#0A2540"/> -->
<g filter="url(#filter2_d_3450_10411)">
<rect x="16" y="10" width="96" height="96" rx="8" fill="white"/>
</g>
<path fill-rule="evenodd" clip-rule="evenodd" d="M63.5553 27.7613C61.8138 27.7613 60.402 29.1731 60.402 30.9147C60.402 32.6562 61.8138 34.068 63.5553 34.068C65.2969 34.068 66.7087 32.6562 66.7087 30.9147C66.7087 29.1731 65.2969 27.7613 63.5553 27.7613ZM59.1406 30.9147C59.1406 28.4765 61.1172 26.5 63.5553 26.5C65.9935 26.5 67.97 28.4765 67.97 30.9147C67.97 33.3529 65.9935 35.3294 63.5553 35.3294C61.1172 35.3294 59.1406 33.3529 59.1406 30.9147Z" fill="#223872"/>
<path fill-rule="evenodd" clip-rule="evenodd" d="M60.4158 35.9043C60.0675 35.9043 59.7852 36.1867 59.7852 36.535C59.7852 36.8833 60.0675 37.1656 60.4158 37.1656H65.0027C68.2884 37.1656 71.1237 39.4709 71.7941 42.6877L72.079 44.0552C72.4872 46.0134 70.9924 47.852 68.992 47.852H60.1599V49.1133H68.992C71.7924 49.1133 73.8853 46.5394 73.3139 43.7979L73.0288 42.4303C72.2366 38.6287 68.8859 35.9043 65.0027 35.9043H60.4158Z" fill="#223872"/>
<path d="M55.9981 39.4062C52.2509 46.4842 55.9981 48.566 59.0749 48.4871" stroke="#3FAFE9" stroke-width="1.5"/>
<path d="M56 39.4069L56.4164 38.5742" stroke="#3FAFE9" stroke-width="1.5"/>
<path d="M54.5437 36.9223L58.6508 36.8745L58.3105 40.5895L54.5437 36.9223Z" fill="#3FAFE9" stroke="#3FAFE9"/>
<path d="M42.7666 62.0469H44.0449L47.3057 70.1611L50.5596 62.0469H51.8447L47.7979 72H46.7998L42.7666 62.0469ZM42.3496 62.0469H43.4775L43.6621 68.1172V72H42.3496V62.0469ZM51.127 62.0469H52.2549V72H50.9424V68.1172L51.127 62.0469ZM54.0459 68.3838V68.2266C54.0459 67.6934 54.1234 67.1989 54.2783 66.7432C54.4333 66.2829 54.6566 65.8841 54.9482 65.5469C55.2399 65.2051 55.5931 64.9408 56.0078 64.7539C56.4225 64.5625 56.8874 64.4668 57.4023 64.4668C57.9219 64.4668 58.389 64.5625 58.8037 64.7539C59.223 64.9408 59.5785 65.2051 59.8701 65.5469C60.1663 65.8841 60.3919 66.2829 60.5469 66.7432C60.7018 67.1989 60.7793 67.6934 60.7793 68.2266V68.3838C60.7793 68.917 60.7018 69.4115 60.5469 69.8672C60.3919 70.3229 60.1663 70.7217 59.8701 71.0635C59.5785 71.4007 59.2253 71.665 58.8105 71.8564C58.4004 72.0433 57.9355 72.1367 57.416 72.1367C56.8965 72.1367 56.4294 72.0433 56.0146 71.8564C55.5999 71.665 55.2445 71.4007 54.9482 71.0635C54.6566 70.7217 54.4333 70.3229 54.2783 69.8672C54.1234 69.4115 54.0459 68.917 54.0459 68.3838ZM55.3105 68.2266V68.3838C55.3105 68.7529 55.3538 69.1016 55.4404 69.4297C55.527 69.7533 55.6569 70.0404 55.8301 70.291C56.0078 70.5417 56.2288 70.7399 56.4932 70.8857C56.7575 71.027 57.0651 71.0977 57.416 71.0977C57.7624 71.0977 58.0654 71.027 58.3252 70.8857C58.5895 70.7399 58.8083 70.5417 58.9814 70.291C59.1546 70.0404 59.2845 69.7533 59.3711 69.4297C59.4622 69.1016 59.5078 68.7529 59.5078 68.3838V68.2266C59.5078 67.862 59.4622 67.5179 59.3711 67.1943C59.2845 66.8662 59.1523 66.5768 58.9746 66.3262C58.8014 66.071 58.5827 65.8704 58.3184 65.7246C58.0586 65.5788 57.7533 65.5059 57.4023 65.5059C57.056 65.5059 56.7507 65.5788 56.4863 65.7246C56.2266 65.8704 56.0078 66.071 55.8301 66.3262C55.6569 66.5768 55.527 66.8662 55.4404 67.1943C55.3538 67.5179 55.3105 67.862 55.3105 68.2266ZM63.6299 66.1826V72H62.3652V64.6035H63.5615L63.6299 66.1826ZM63.3291 68.0215L62.8027 68.001C62.8073 67.4951 62.8825 67.028 63.0283 66.5996C63.1742 66.1667 63.3792 65.7907 63.6436 65.4717C63.9079 65.1527 64.2223 64.9066 64.5869 64.7334C64.9561 64.5557 65.3639 64.4668 65.8105 64.4668C66.1751 64.4668 66.5033 64.5169 66.7949 64.6172C67.0866 64.7129 67.335 64.8678 67.54 65.082C67.7497 65.2962 67.9092 65.5742 68.0186 65.916C68.1279 66.2533 68.1826 66.6657 68.1826 67.1533V72H66.9111V67.1396C66.9111 66.7523 66.8542 66.4424 66.7402 66.21C66.6263 65.973 66.46 65.8021 66.2412 65.6973C66.0225 65.5879 65.7536 65.5332 65.4346 65.5332C65.1201 65.5332 64.833 65.5993 64.5732 65.7314C64.318 65.8636 64.097 66.0459 63.9102 66.2783C63.7279 66.5107 63.5843 66.7773 63.4795 67.0781C63.3792 67.3743 63.3291 67.6888 63.3291 68.0215ZM73.2002 64.6035V65.5742H69.2012V64.6035H73.2002ZM70.5547 62.8057H71.8193V70.168C71.8193 70.4186 71.8581 70.6077 71.9355 70.7354C72.013 70.863 72.1133 70.9473 72.2363 70.9883C72.3594 71.0293 72.4915 71.0498 72.6328 71.0498C72.7376 71.0498 72.847 71.0407 72.9609 71.0225C73.0794 70.9997 73.1683 70.9814 73.2275 70.9678L73.2344 72C73.1341 72.0319 73.002 72.0615 72.8379 72.0889C72.6784 72.1208 72.4847 72.1367 72.2568 72.1367C71.9469 72.1367 71.6621 72.0752 71.4023 71.9521C71.1426 71.8291 70.9352 71.624 70.7803 71.3369C70.6299 71.0452 70.5547 70.6533 70.5547 70.1611V62.8057ZM75.9482 65.7656V72H74.6836V64.6035H75.9141L75.9482 65.7656ZM78.2588 64.5625L78.252 65.7383C78.1471 65.7155 78.0469 65.7018 77.9512 65.6973C77.86 65.6882 77.7552 65.6836 77.6367 65.6836C77.3451 65.6836 77.0876 65.7292 76.8643 65.8203C76.641 65.9115 76.4518 66.0391 76.2969 66.2031C76.1419 66.3672 76.0189 66.5632 75.9277 66.791C75.8411 67.0143 75.7842 67.2604 75.7568 67.5293L75.4014 67.7344C75.4014 67.2878 75.4447 66.8685 75.5312 66.4766C75.6224 66.0846 75.7614 65.7383 75.9482 65.4375C76.1351 65.1322 76.3721 64.8952 76.6592 64.7266C76.9508 64.5534 77.2972 64.4668 77.6982 64.4668C77.7894 64.4668 77.8942 64.4782 78.0127 64.501C78.1312 64.5192 78.2132 64.5397 78.2588 64.5625ZM83.5156 70.7354V66.9277C83.5156 66.6361 83.4564 66.3831 83.3379 66.1689C83.224 65.9502 83.0508 65.7816 82.8184 65.6631C82.5859 65.5446 82.2988 65.4854 81.957 65.4854C81.638 65.4854 81.3577 65.54 81.1162 65.6494C80.8792 65.7588 80.6924 65.9023 80.5557 66.0801C80.4235 66.2578 80.3574 66.4492 80.3574 66.6543H79.0928C79.0928 66.39 79.1611 66.1279 79.2979 65.8682C79.4346 65.6084 79.6305 65.3737 79.8857 65.1641C80.1455 64.9499 80.4554 64.7812 80.8154 64.6582C81.18 64.5306 81.5856 64.4668 82.0322 64.4668C82.57 64.4668 83.0439 64.5579 83.4541 64.7402C83.8688 64.9225 84.1924 65.1982 84.4248 65.5674C84.6618 65.932 84.7803 66.39 84.7803 66.9414V70.3867C84.7803 70.6328 84.8008 70.8949 84.8418 71.1729C84.8874 71.4508 84.9535 71.6901 85.04 71.8906V72H83.7207C83.6569 71.8542 83.6068 71.6605 83.5703 71.4189C83.5339 71.1729 83.5156 70.945 83.5156 70.7354ZM83.7344 67.5156L83.748 68.4043H82.4697C82.1097 68.4043 81.7884 68.4339 81.5059 68.4932C81.2233 68.5479 80.9863 68.6322 80.7949 68.7461C80.6035 68.86 80.4577 69.0036 80.3574 69.1768C80.2572 69.3454 80.207 69.5436 80.207 69.7715C80.207 70.0039 80.2594 70.2158 80.3643 70.4072C80.4691 70.5986 80.6263 70.7513 80.8359 70.8652C81.0501 70.9746 81.3122 71.0293 81.6221 71.0293C82.0094 71.0293 82.3512 70.9473 82.6475 70.7832C82.9437 70.6191 83.1784 70.4186 83.3516 70.1816C83.5293 69.9447 83.625 69.7145 83.6387 69.4912L84.1787 70.0996C84.1468 70.291 84.0602 70.5029 83.9189 70.7354C83.7777 70.9678 83.5885 71.1911 83.3516 71.4053C83.1191 71.6149 82.8411 71.7904 82.5176 71.9316C82.1986 72.0684 81.8385 72.1367 81.4375 72.1367C80.9362 72.1367 80.4964 72.0387 80.1182 71.8428C79.7445 71.6468 79.4528 71.3848 79.2432 71.0566C79.0381 70.724 78.9355 70.3525 78.9355 69.9424C78.9355 69.5459 79.013 69.1973 79.168 68.8965C79.3229 68.5911 79.5462 68.3382 79.8379 68.1377C80.1296 67.9326 80.4805 67.7777 80.8906 67.6729C81.3008 67.568 81.7588 67.5156 82.2646 67.5156H83.7344ZM36.5732 86.835H37.8857C37.8174 87.4639 37.6374 88.0267 37.3457 88.5234C37.054 89.0202 36.6416 89.4144 36.1084 89.7061C35.5752 89.9932 34.9098 90.1367 34.1123 90.1367C33.529 90.1367 32.998 90.0273 32.5195 89.8086C32.0456 89.5898 31.6377 89.2799 31.2959 88.8789C30.9541 88.4733 30.6898 87.988 30.5029 87.4229C30.3206 86.8532 30.2295 86.2197 30.2295 85.5225V84.5312C30.2295 83.834 30.3206 83.2028 30.5029 82.6377C30.6898 82.068 30.9564 81.5804 31.3027 81.1748C31.6536 80.7692 32.0752 80.457 32.5674 80.2383C33.0596 80.0195 33.6133 79.9102 34.2285 79.9102C34.9805 79.9102 35.6162 80.0514 36.1357 80.334C36.6553 80.6165 37.0586 81.0085 37.3457 81.5098C37.6374 82.0065 37.8174 82.583 37.8857 83.2393H36.5732C36.5094 82.7744 36.391 82.3757 36.2178 82.043C36.0446 81.7057 35.7985 81.446 35.4795 81.2637C35.1605 81.0814 34.7435 80.9902 34.2285 80.9902C33.7865 80.9902 33.3968 81.0745 33.0596 81.2432C32.7269 81.4118 32.4466 81.651 32.2188 81.9609C31.9954 82.2708 31.8268 82.6423 31.7129 83.0752C31.599 83.5081 31.542 83.9889 31.542 84.5176V85.5225C31.542 86.0101 31.5921 86.4681 31.6924 86.8965C31.7972 87.3249 31.9544 87.7008 32.1641 88.0244C32.3737 88.348 32.6403 88.6032 32.9639 88.79C33.2874 88.9723 33.6702 89.0635 34.1123 89.0635C34.6729 89.0635 35.1195 88.9746 35.4521 88.7969C35.7848 88.6191 36.0355 88.3639 36.2041 88.0312C36.3773 87.6986 36.5003 87.2998 36.5732 86.835ZM44.0176 88.291V82.6035H45.2891V90H44.0791L44.0176 88.291ZM44.2568 86.7324L44.7832 86.7188C44.7832 87.2109 44.7308 87.6667 44.626 88.0859C44.5257 88.5007 44.3617 88.8607 44.1338 89.166C43.9059 89.4714 43.6074 89.7106 43.2383 89.8838C42.8691 90.0524 42.4202 90.1367 41.8916 90.1367C41.5316 90.1367 41.2012 90.0843 40.9004 89.9795C40.6042 89.8747 40.349 89.7129 40.1348 89.4941C39.9206 89.2754 39.7542 88.9906 39.6357 88.6396C39.5218 88.2887 39.4648 87.8672 39.4648 87.375V82.6035H40.7295V87.3887C40.7295 87.7214 40.766 87.9971 40.8389 88.2158C40.9163 88.43 41.0189 88.6009 41.1465 88.7285C41.2786 88.8516 41.4245 88.9382 41.584 88.9883C41.748 89.0384 41.9167 89.0635 42.0898 89.0635C42.6276 89.0635 43.0537 88.9609 43.3682 88.7559C43.6826 88.5462 43.9082 88.266 44.0449 87.915C44.1862 87.5596 44.2568 87.1654 44.2568 86.7324ZM51.5234 88.0381C51.5234 87.8558 51.4824 87.6872 51.4004 87.5322C51.3229 87.3727 51.1611 87.2292 50.915 87.1016C50.6735 86.9694 50.3089 86.8555 49.8213 86.7598C49.4111 86.6732 49.0397 86.5706 48.707 86.4521C48.3789 86.3337 48.0986 86.1901 47.8662 86.0215C47.6383 85.8529 47.4629 85.6546 47.3398 85.4268C47.2168 85.1989 47.1553 84.9323 47.1553 84.627C47.1553 84.3353 47.2191 84.0596 47.3467 83.7998C47.4788 83.54 47.6634 83.3099 47.9004 83.1094C48.1419 82.9089 48.4313 82.7516 48.7686 82.6377C49.1058 82.5238 49.4818 82.4668 49.8965 82.4668C50.4889 82.4668 50.9948 82.5716 51.4141 82.7812C51.8333 82.9909 52.1546 83.2712 52.3779 83.6221C52.6012 83.9684 52.7129 84.3535 52.7129 84.7773H51.4482C51.4482 84.5723 51.3867 84.374 51.2637 84.1826C51.1452 83.9867 50.9697 83.8249 50.7373 83.6973C50.5094 83.5697 50.2292 83.5059 49.8965 83.5059C49.5456 83.5059 49.2607 83.5605 49.042 83.6699C48.8278 83.7747 48.6706 83.9092 48.5703 84.0732C48.4746 84.2373 48.4268 84.4105 48.4268 84.5928C48.4268 84.7295 48.4495 84.8525 48.4951 84.9619C48.5452 85.0667 48.6318 85.1647 48.7549 85.2559C48.8779 85.3424 49.0511 85.4245 49.2744 85.502C49.4977 85.5794 49.7826 85.6569 50.1289 85.7344C50.735 85.8711 51.234 86.0352 51.626 86.2266C52.0179 86.418 52.3096 86.6527 52.501 86.9307C52.6924 87.2087 52.7881 87.5459 52.7881 87.9424C52.7881 88.266 52.7197 88.5622 52.583 88.8311C52.4508 89.0999 52.2572 89.3324 52.002 89.5283C51.7513 89.7197 51.4505 89.8701 51.0996 89.9795C50.7533 90.0843 50.3636 90.1367 49.9307 90.1367C49.279 90.1367 48.7275 90.0205 48.2764 89.7881C47.8252 89.5557 47.4834 89.2549 47.251 88.8857C47.0186 88.5166 46.9023 88.127 46.9023 87.7168H48.1738C48.1921 88.0632 48.2923 88.3389 48.4746 88.5439C48.6569 88.7445 48.8802 88.888 49.1445 88.9746C49.4089 89.0566 49.6709 89.0977 49.9307 89.0977C50.277 89.0977 50.5664 89.0521 50.7988 88.9609C51.0358 88.8698 51.2158 88.7445 51.3389 88.585C51.4619 88.4255 51.5234 88.2432 51.5234 88.0381ZM57.5459 82.6035V83.5742H53.5469V82.6035H57.5459ZM54.9004 80.8057H56.165V88.168C56.165 88.4186 56.2038 88.6077 56.2812 88.7354C56.3587 88.863 56.459 88.9473 56.582 88.9883C56.7051 89.0293 56.8372 89.0498 56.9785 89.0498C57.0833 89.0498 57.1927 89.0407 57.3066 89.0225C57.4251 88.9997 57.514 88.9814 57.5732 88.9678L57.5801 90C57.4798 90.0319 57.3477 90.0615 57.1836 90.0889C57.0241 90.1208 56.8304 90.1367 56.6025 90.1367C56.2926 90.1367 56.0078 90.0752 55.748 89.9521C55.4883 89.8291 55.2809 89.624 55.126 89.3369C54.9756 89.0452 54.9004 88.6533 54.9004 88.1611V80.8057ZM58.5576 86.3838V86.2266C58.5576 85.6934 58.6351 85.1989 58.79 84.7432C58.945 84.2829 59.1683 83.8841 59.46 83.5469C59.7516 83.2051 60.1048 82.9408 60.5195 82.7539C60.9342 82.5625 61.3991 82.4668 61.9141 82.4668C62.4336 82.4668 62.9007 82.5625 63.3154 82.7539C63.7347 82.9408 64.0902 83.2051 64.3818 83.5469C64.6781 83.8841 64.9036 84.2829 65.0586 84.7432C65.2135 85.1989 65.291 85.6934 65.291 86.2266V86.3838C65.291 86.917 65.2135 87.4115 65.0586 87.8672C64.9036 88.3229 64.6781 88.7217 64.3818 89.0635C64.0902 89.4007 63.737 89.665 63.3223 89.8564C62.9121 90.0433 62.4473 90.1367 61.9277 90.1367C61.4082 90.1367 60.9411 90.0433 60.5264 89.8564C60.1117 89.665 59.7562 89.4007 59.46 89.0635C59.1683 88.7217 58.945 88.3229 58.79 87.8672C58.6351 87.4115 58.5576 86.917 58.5576 86.3838ZM59.8223 86.2266V86.3838C59.8223 86.7529 59.8656 87.1016 59.9521 87.4297C60.0387 87.7533 60.1686 88.0404 60.3418 88.291C60.5195 88.5417 60.7406 88.7399 61.0049 88.8857C61.2692 89.027 61.5768 89.0977 61.9277 89.0977C62.2741 89.0977 62.5771 89.027 62.8369 88.8857C63.1012 88.7399 63.32 88.5417 63.4932 88.291C63.6663 88.0404 63.7962 87.7533 63.8828 87.4297C63.974 87.1016 64.0195 86.7529 64.0195 86.3838V86.2266C64.0195 85.862 63.974 85.5179 63.8828 85.1943C63.7962 84.8662 63.6641 84.5768 63.4863 84.3262C63.3132 84.071 63.0944 83.8704 62.8301 83.7246C62.5703 83.5788 62.265 83.5059 61.9141 83.5059C61.5677 83.5059 61.2624 83.5788 60.998 83.7246C60.7383 83.8704 60.5195 84.071 60.3418 84.3262C60.1686 84.5768 60.0387 84.8662 59.9521 85.1943C59.8656 85.5179 59.8223 85.862 59.8223 86.2266ZM68.1348 84.0732V90H66.8633V82.6035H68.0664L68.1348 84.0732ZM67.875 86.0215L67.2871 86.001C67.2917 85.4951 67.3577 85.028 67.4854 84.5996C67.613 84.1667 67.8021 83.7907 68.0527 83.4717C68.3034 83.1527 68.6156 82.9066 68.9893 82.7334C69.363 82.5557 69.7959 82.4668 70.2881 82.4668C70.6344 82.4668 70.9535 82.5169 71.2451 82.6172C71.5368 82.7129 71.7897 82.8656 72.0039 83.0752C72.2181 83.2848 72.3844 83.5537 72.5029 83.8818C72.6214 84.21 72.6807 84.6064 72.6807 85.0713V90H71.416V85.1328C71.416 84.7454 71.3499 84.4355 71.2178 84.2031C71.0902 83.9707 70.9079 83.8021 70.6709 83.6973C70.4339 83.5879 70.1559 83.5332 69.8369 83.5332C69.4632 83.5332 69.151 83.5993 68.9004 83.7314C68.6497 83.8636 68.4492 84.0459 68.2988 84.2783C68.1484 84.5107 68.0391 84.7773 67.9707 85.0781C67.9069 85.3743 67.875 85.6888 67.875 86.0215ZM72.667 85.3242L71.8193 85.584C71.8239 85.1784 71.89 84.7887 72.0176 84.415C72.1497 84.0413 72.3389 83.7087 72.585 83.417C72.8356 83.1253 73.1432 82.8952 73.5078 82.7266C73.8724 82.5534 74.2894 82.4668 74.7588 82.4668C75.1553 82.4668 75.5062 82.5192 75.8115 82.624C76.1214 82.7288 76.3812 82.8906 76.5908 83.1094C76.805 83.3236 76.9668 83.5993 77.0762 83.9365C77.1855 84.2738 77.2402 84.6748 77.2402 85.1396V90H75.9688V85.126C75.9688 84.7113 75.9027 84.39 75.7705 84.1621C75.6429 83.9297 75.4606 83.7679 75.2236 83.6768C74.9912 83.5811 74.7132 83.5332 74.3896 83.5332C74.1117 83.5332 73.8656 83.5811 73.6514 83.6768C73.4372 83.7725 73.2572 83.9046 73.1113 84.0732C72.9655 84.2373 72.8538 84.4264 72.7764 84.6406C72.7035 84.8548 72.667 85.0827 72.667 85.3242ZM82.2236 90.1367C81.7087 90.1367 81.2415 90.0501 80.8223 89.877C80.4076 89.6992 80.0498 89.4508 79.749 89.1318C79.4528 88.8128 79.2249 88.4346 79.0654 87.9971C78.9059 87.5596 78.8262 87.0811 78.8262 86.5615V86.2744C78.8262 85.6729 78.915 85.1374 79.0928 84.668C79.2705 84.194 79.512 83.793 79.8174 83.4648C80.1227 83.1367 80.4691 82.8883 80.8564 82.7197C81.2438 82.5511 81.6449 82.4668 82.0596 82.4668C82.5882 82.4668 83.0439 82.5579 83.4268 82.7402C83.8141 82.9225 84.1309 83.1777 84.377 83.5059C84.623 83.8294 84.8053 84.2122 84.9238 84.6543C85.0423 85.0918 85.1016 85.5703 85.1016 86.0898V86.6572H79.5781V85.625H83.8369V85.5293C83.8187 85.2012 83.7503 84.8822 83.6318 84.5723C83.5179 84.2624 83.3356 84.0072 83.085 83.8066C82.8343 83.6061 82.4925 83.5059 82.0596 83.5059C81.7725 83.5059 81.5081 83.5674 81.2666 83.6904C81.0251 83.8089 80.8177 83.9867 80.6445 84.2236C80.4714 84.4606 80.3369 84.75 80.2412 85.0918C80.1455 85.4336 80.0977 85.8278 80.0977 86.2744V86.5615C80.0977 86.9124 80.1455 87.2428 80.2412 87.5527C80.3415 87.8581 80.485 88.127 80.6719 88.3594C80.8633 88.5918 81.0934 88.7741 81.3623 88.9062C81.6357 89.0384 81.9456 89.1045 82.292 89.1045C82.7386 89.1045 83.1169 89.0133 83.4268 88.8311C83.7367 88.6488 84.0078 88.4049 84.2402 88.0996L85.0059 88.708C84.8464 88.9495 84.6436 89.1797 84.3975 89.3984C84.1514 89.6172 83.8483 89.7949 83.4883 89.9316C83.1328 90.0684 82.7113 90.1367 82.2236 90.1367ZM87.8428 83.7656V90H86.5781V82.6035H87.8086L87.8428 83.7656ZM90.1533 82.5625L90.1465 83.7383C90.0417 83.7155 89.9414 83.7018 89.8457 83.6973C89.7546 83.6882 89.6497 83.6836 89.5312 83.6836C89.2396 83.6836 88.9821 83.7292 88.7588 83.8203C88.5355 83.9115 88.3464 84.0391 88.1914 84.2031C88.0365 84.3672 87.9134 84.5632 87.8223 84.791C87.7357 85.0143 87.6787 85.2604 87.6514 85.5293L87.2959 85.7344C87.2959 85.2878 87.3392 84.8685 87.4258 84.4766C87.5169 84.0846 87.6559 83.7383 87.8428 83.4375C88.0296 83.1322 88.2666 82.8952 88.5537 82.7266C88.8454 82.5534 89.1917 82.4668 89.5928 82.4668C89.6839 82.4668 89.7887 82.4782 89.9072 82.501C90.0257 82.5192 90.1077 82.5397 90.1533 82.5625ZM95.6289 88.0381C95.6289 87.8558 95.5879 87.6872 95.5059 87.5322C95.4284 87.3727 95.2666 87.2292 95.0205 87.1016C94.779 86.9694 94.4144 86.8555 93.9268 86.7598C93.5166 86.6732 93.1452 86.5706 92.8125 86.4521C92.4844 86.3337 92.2041 86.1901 91.9717 86.0215C91.7438 85.8529 91.5684 85.6546 91.4453 85.4268C91.3223 85.1989 91.2607 84.9323 91.2607 84.627C91.2607 84.3353 91.3245 84.0596 91.4521 83.7998C91.5843 83.54 91.7689 83.3099 92.0059 83.1094C92.2474 82.9089 92.5368 82.7516 92.874 82.6377C93.2113 82.5238 93.5872 82.4668 94.002 82.4668C94.5944 82.4668 95.1003 82.5716 95.5195 82.7812C95.9388 82.9909 96.2601 83.2712 96.4834 83.6221C96.7067 83.9684 96.8184 84.3535 96.8184 84.7773H95.5537C95.5537 84.5723 95.4922 84.374 95.3691 84.1826C95.2507 83.9867 95.0752 83.8249 94.8428 83.6973C94.6149 83.5697 94.3346 83.5059 94.002 83.5059C93.651 83.5059 93.3662 83.5605 93.1475 83.6699C92.9333 83.7747 92.776 83.9092 92.6758 84.0732C92.5801 84.2373 92.5322 84.4105 92.5322 84.5928C92.5322 84.7295 92.555 84.8525 92.6006 84.9619C92.6507 85.0667 92.7373 85.1647 92.8604 85.2559C92.9834 85.3424 93.1566 85.4245 93.3799 85.502C93.6032 85.5794 93.888 85.6569 94.2344 85.7344C94.8405 85.8711 95.3395 86.0352 95.7314 86.2266C96.1234 86.418 96.415 86.6527 96.6064 86.9307C96.7979 87.2087 96.8936 87.5459 96.8936 87.9424C96.8936 88.266 96.8252 88.5622 96.6885 88.8311C96.5563 89.0999 96.3626 89.3324 96.1074 89.5283C95.8568 89.7197 95.556 89.8701 95.2051 89.9795C94.8587 90.0843 94.4691 90.1367 94.0361 90.1367C93.3844 90.1367 92.833 90.0205 92.3818 89.7881C91.9307 89.5557 91.5889 89.2549 91.3564 88.8857C91.124 88.5166 91.0078 88.127 91.0078 87.7168H92.2793C92.2975 88.0632 92.3978 88.3389 92.5801 88.5439C92.7624 88.7445 92.9857 88.888 93.25 88.9746C93.5143 89.0566 93.7764 89.0977 94.0361 89.0977C94.3825 89.0977 94.6719 89.0521 94.9043 88.9609C95.1413 88.8698 95.3213 88.7445 95.4443 88.585C95.5674 88.4255 95.6289 88.2432 95.6289 88.0381Z" fill="#0A2540"/>
<defs>
<filter id="filter0_d_3450_10411" x="162" y="0" width="180" height="180" filterUnits="userSpaceOnUse" color-interpolation-filters="sRGB">
<feFlood flood-opacity="0" result="BackgroundImageFix"/>
<feColorMatrix in="SourceAlpha" type="matrix" values="0 0 0 0 0 0 0 0 0 0 0 0 0 0 0 0 0 0 127 0" result="hardAlpha"/>
<feMorphology radius="12" operator="erode" in="SourceAlpha" result="effect1_dropShadow_3450_10411"/>
<feOffset dy="32"/>
<feGaussianBlur stdDeviation="27"/>
<feColorMatrix type="matrix" values="0 0 0 0 0.0627451 0 0 0 0 0.0980392 0 0 0 0 0.156863 0 0 0 0.18 0"/>
<feBlend mode="normal" in2="BackgroundImageFix" result="effect1_dropShadow_3450_10411"/>
<feBlend mode="normal" in="SourceGraphic" in2="effect1_dropShadow_3450_10411" result="shape"/>
</filter>
<filter id="filter1_d_3450_10411" x="350" y="208" width="180" height="180" filterUnits="userSpaceOnUse" color-interpolation-filters="sRGB">
<feFlood flood-opacity="0" result="BackgroundImageFix"/>
<feColorMatrix in="SourceAlpha" type="matrix" values="0 0 0 0 0 0 0 0 0 0 0 0 0 0 0 0 0 0 127 0" result="hardAlpha"/>
<feMorphology radius="12" operator="erode" in="SourceAlpha" result="effect1_dropShadow_3450_10411"/>
<feOffset dy="32"/>
<feGaussianBlur stdDeviation="27"/>
<feColorMatrix type="matrix" values="0 0 0 0 0.0627451 0 0 0 0 0.0980392 0 0 0 0 0.156863 0 0 0 0.18 0"/>
<feBlend mode="normal" in2="BackgroundImageFix" result="effect1_dropShadow_3450_10411"/>
<feBlend mode="normal" in="SourceGraphic" in2="effect1_dropShadow_3450_10411" result="shape"/>
</filter>
<filter id="filter2_d_3450_10411" x="-26" y="0" width="180" height="180" filterUnits="userSpaceOnUse" color-interpolation-filters="sRGB">
<feFlood flood-opacity="0" result="BackgroundImageFix"/>
<feColorMatrix in="SourceAlpha" type="matrix" values="0 0 0 0 0 0 0 0 0 0 0 0 0 0 0 0 0 0 127 0" result="hardAlpha"/>
<feMorphology radius="12" operator="erode" in="SourceAlpha" result="effect1_dropShadow_3450_10411"/>
<feOffset dy="32"/>
<feGaussianBlur stdDeviation="27"/>
<feColorMatrix type="matrix" values="0 0 0 0 0.0627451 0 0 0 0 0.0980392 0 0 0 0 0.156863 0 0 0 0.18 0"/>
<feBlend mode="normal" in2="BackgroundImageFix" result="effect1_dropShadow_3450_10411"/>
<feBlend mode="normal" in="SourceGraphic" in2="effect1_dropShadow_3450_10411" result="shape"/>
</filter>
<radialGradient id="paint0_radial_3450_10411" cx="0" cy="0" r="1" gradientUnits="userSpaceOnUse" gradientTransform="translate(276.5 138) rotate(-42.7094) scale(159.226 327.409)">
<stop stop-color="#FF7600"/>
<stop offset="1" stop-color="#635BFF"/>
</radialGradient>
</defs>
</svg>
