<svg width="21" height="24" viewBox="0 0 21 24" fill="none" xmlns="http://www.w3.org/2000/svg">
<path fill-rule="evenodd" clip-rule="evenodd" d="M10.5553 1.76134C8.81381 1.76134 7.40196 3.17313 7.40196 4.91469C7.40196 6.65624 8.81381 8.06804 10.5553 8.06804C12.2969 8.06804 13.7087 6.65624 13.7087 4.91469C13.7087 3.17313 12.2969 1.76134 10.5553 1.76134ZM6.14062 4.91469C6.14062 2.47652 8.11717 0.5 10.5553 0.5C12.9935 0.5 14.97 2.47652 14.97 4.91469C14.97 7.35285 12.9935 9.32938 10.5553 9.32938C8.11717 9.32938 6.14062 7.35285 6.14062 4.91469Z" fill="#223872"/>
<path fill-rule="evenodd" clip-rule="evenodd" d="M7.41582 9.9043C7.06752 9.9043 6.78516 10.1867 6.78516 10.535C6.78516 10.8833 7.06752 11.1656 7.41582 11.1656H12.0027C15.2884 11.1656 18.1237 13.4709 18.7941 16.6877L19.079 18.0552C19.4872 20.0134 17.9924 21.852 15.992 21.852H7.15992V23.1133H15.992C18.7924 23.1133 20.8853 20.5394 20.3139 17.7979L20.0288 16.4303C19.2366 12.6287 15.8859 9.9043 12.0027 9.9043H7.41582Z" fill="#223872"/>
<path d="M2.99808 13.4062C-0.749089 20.4842 2.99808 22.566 6.07489 22.4871" stroke="#3FAFE9" stroke-width="1.5"/>
<path d="M3 13.4069L3.41635 12.5742" stroke="#3FAFE9" stroke-width="1.5"/>
<path d="M1.54375 10.9223L5.65076 10.8745L5.31045 14.5895L1.54375 10.9223Z" fill="#3FAFE9" stroke="#3FAFE9"/>
</svg>
