
<svg width="481" height="366" viewBox="0 0 481 366" fill="none" xmlns="http://www.w3.org/2000/svg">
  <path d="M0.5 192.5H93M93 192.5L145 196H164.5C174 196 175.5 205.6 175.5 218C175.5 230.4 175.5 238 175.5 239.5C175.5 242 176.9 249.5 184.5 249.5C192.1 249.5 193.333 249.5 193 249.5H289H301.5C306 249.5 312.5 248 312.5 238C312.5 228 312.5 211.833 312.5 205C312.667 202 315.1 196 323.5 196C333.9 196 336.833 196 337 196M93 192.5L145 174H156C158.667 173.833 163.5 171.3 163.5 164.5C163.5 157.7 162 61.1667 162 13.5C162 8 167.8 1.5 177 1.5C186.2 1.5 191.5 1.5 193 1.5H289H366.5C374 1.5 385.5 7.1 385.5 17.5C385.5 27.9 385.5 106.833 385.5 145V189.5H444.5H456H480.5M93 192.5L145 185H163.5C168.5 185 175 181.4 175 171C175 160.6 175.5 139.167 175.5 129C175.5 122 178.9 119.5 186.5 119.5C194.1 119.5 194 119.5 193 119.5H289H301.5C305.5 119.5 312.5 121.2 312.5 134C312.5 146.8 312.5 160.833 312.5 171C312.667 175.667 315.1 185 323.5 185C331.9 185 336 185 337 185M93 192.5L145 207H156C158.5 206.833 163.5 208.8 163.5 218C163.5 227.2 163.5 309.167 163.5 349C163.333 354.167 166.2 364.5 179 364.5C191.8 364.5 193.667 364.5 193 364.5H289H362C369.833 363.833 385.5 359 385.5 345C385.5 331 385.5 269.833 385.5 241" 
        stroke="url(#paint0_radial_3288_8323)" 
        stroke-width="1.5" 
        stroke-dasharray="1000" 
        stroke-dashoffset="1000">
    <animate attributeName="stroke-dashoffset" from="1000" to="0" dur="4s" fill="freeze"/>
  </path>
  <defs>
    <radialGradient id="paint0_radial_3288_8323" cx="0" cy="0" r="1" gradientUnits="userSpaceOnUse" gradientTransform="translate(241 183) rotate(90) scale(181.5 240)">
      <stop stop-color="#B38DFF"/>
      <stop offset="1" stop-color="#FD7FAE"/>
    </radialGradient>
  </defs>
</svg>


