<svg width="431" height="186" viewBox="0 0 431 186" fill="none" xmlns="http://www.w3.org/2000/svg">
<path d="M3.948 4.948H5.978L9.786 15H7.98L7.112 12.704H2.772L1.918 15H0.14L3.948 4.948ZM4.928 6.936L3.36 11.136H6.524L4.928 6.936ZM11.6703 11.332C11.6703 12.83 12.4543 13.698 13.6023 13.698C14.4983 13.698 15.0443 13.11 15.2543 12.298L16.6963 13.026C16.3183 14.216 15.1983 15.154 13.6023 15.154C11.5023 15.154 9.99031 13.6 9.99031 11.332C9.99031 9.064 11.5023 7.51 13.6023 7.51C15.1843 7.51 16.2763 8.406 16.6683 9.582L15.2543 10.352C15.0443 9.554 14.4983 8.952 13.6023 8.952C12.4543 8.952 11.6703 9.834 11.6703 11.332ZM18.9301 11.332C18.9301 12.83 19.7141 13.698 20.8621 13.698C21.7581 13.698 22.3041 13.11 22.5141 12.298L23.9561 13.026C23.5781 14.216 22.4581 15.154 20.8621 15.154C18.7621 15.154 17.2501 13.6 17.2501 11.332C17.2501 9.064 18.7621 7.51 20.8621 7.51C22.4441 7.51 23.5361 8.406 23.9281 9.582L22.5141 10.352C22.3041 9.554 21.7581 8.952 20.8621 8.952C19.7141 8.952 18.9301 9.834 18.9301 11.332ZM28.0798 15.154C25.9798 15.154 24.5098 13.6 24.5098 11.332C24.5098 9.176 25.9658 7.51 28.0098 7.51C30.1378 7.51 31.2718 9.12 31.2718 11.136V11.696H26.1198C26.2458 12.956 27.0018 13.726 28.0798 13.726C28.9058 13.726 29.5638 13.306 29.7878 12.55L31.2298 13.096C30.7118 14.384 29.5498 15.154 28.0798 15.154ZM27.9958 8.924C27.1278 8.924 26.4558 9.442 26.2038 10.436H29.5778C29.5638 9.624 29.0598 8.924 27.9958 8.924ZM36.3264 15.154C35.3744 15.154 34.6744 14.776 34.2124 14.23V17.52H32.5324V7.65H34.2124V8.434C34.6744 7.888 35.3744 7.51 36.3264 7.51C38.3844 7.51 39.5604 9.246 39.5604 11.332C39.5604 13.418 38.3844 15.154 36.3264 15.154ZM34.1704 11.122V11.556C34.1704 12.914 34.9544 13.684 35.9904 13.684C37.2084 13.684 37.8664 12.732 37.8664 11.332C37.8664 9.932 37.2084 8.98 35.9904 8.98C34.9544 8.98 34.1704 9.736 34.1704 11.122ZM41.0126 13.152V9.078H39.9906V7.65H41.0126V5.494H42.6646V7.65H44.2046V9.078H42.6646V12.886C42.6646 13.544 43.0426 13.614 43.6446 13.614C43.9246 13.614 44.0786 13.6 44.3306 13.572V14.986C44.0226 15.042 43.6026 15.084 43.1686 15.084C41.7686 15.084 41.0126 14.65 41.0126 13.152ZM2.744 29.108V33H0.952V22.948H4.97C7.21 22.948 8.61 23.998 8.61 26.028C8.61 28.03 7.21 29.108 4.97 29.108H2.744ZM2.744 27.568H4.872C6.16 27.568 6.846 27.008 6.846 26.028C6.846 25.034 6.16 24.488 4.872 24.488H2.744V27.568ZM11.4003 33.126C10.0003 33.126 8.92227 32.272 8.92227 30.956C8.92227 29.556 9.97227 28.94 11.3863 28.646L13.4163 28.226V28.1C13.4163 27.4 13.0523 26.966 12.1563 26.966C11.3583 26.966 10.9383 27.33 10.7423 28.044L9.16027 27.68C9.52427 26.462 10.6023 25.51 12.2263 25.51C13.9903 25.51 15.0543 26.35 15.0543 28.044V31.208C15.0543 31.628 15.2363 31.754 15.6983 31.698V33C14.4803 33.14 13.8363 32.902 13.5843 32.3C13.1223 32.818 12.3523 33.126 11.4003 33.126ZM13.4163 30.41V29.514L11.8343 29.85C11.1203 30.004 10.5883 30.228 10.5883 30.886C10.5883 31.46 11.0083 31.782 11.6523 31.782C12.5483 31.782 13.4163 31.306 13.4163 30.41ZM19.947 33.686C19.527 34.806 18.883 35.576 17.357 35.576C17.007 35.576 16.909 35.562 16.671 35.534V34.12C16.895 34.148 17.021 34.162 17.231 34.162C17.791 34.162 18.057 34.008 18.295 33.42L18.575 32.734L15.901 25.65H17.665L19.471 30.802L21.235 25.65H22.971L19.947 33.686ZM25.5581 28.688V33H23.8781V25.65H25.5581V26.434C25.9641 25.944 26.5941 25.51 27.5741 25.51C28.4561 25.51 29.1141 25.902 29.5201 26.532C29.9681 26.056 30.6681 25.51 31.8021 25.51C33.3141 25.51 34.2941 26.574 34.2941 28.156V33H32.6141V28.646C32.6141 27.736 32.2781 27.078 31.3821 27.078C30.6681 27.078 29.9261 27.638 29.9261 28.688V33H28.2461V28.646C28.2461 27.736 27.9101 27.078 27.0141 27.078C26.3001 27.078 25.5581 27.638 25.5581 28.688ZM39.113 33.154C37.013 33.154 35.543 31.6 35.543 29.332C35.543 27.176 36.999 25.51 39.043 25.51C41.171 25.51 42.305 27.12 42.305 29.136V29.696H37.153C37.279 30.956 38.035 31.726 39.113 31.726C39.939 31.726 40.597 31.306 40.821 30.55L42.263 31.096C41.745 32.384 40.583 33.154 39.113 33.154ZM39.029 26.924C38.161 26.924 37.489 27.442 37.237 28.436H40.611C40.597 27.624 40.093 26.924 39.029 26.924ZM43.5656 33V25.65H45.2456V26.434C45.6656 25.944 46.3236 25.51 47.2756 25.51C48.8156 25.51 49.7396 26.574 49.7396 28.156V33H48.0596V28.646C48.0596 27.736 47.6956 27.078 46.7716 27.078C46.0156 27.078 45.2456 27.638 45.2456 28.688V33H43.5656ZM51.6083 31.152V27.078H50.5863V25.65H51.6083V23.494H53.2603V25.65H54.8003V27.078H53.2603V30.886C53.2603 31.544 53.6383 31.614 54.2403 31.614C54.5203 31.614 54.6743 31.6 54.9263 31.572V32.986C54.6183 33.042 54.1983 33.084 53.7643 33.084C52.3643 33.084 51.6083 32.65 51.6083 31.152ZM55.4147 31.6L56.6747 30.592C57.1087 31.306 57.9487 31.782 58.8027 31.782C59.5167 31.782 60.1747 31.53 60.1747 30.872C60.1747 30.242 59.5587 30.172 58.3967 29.934C57.2347 29.696 55.9047 29.402 55.9047 27.834C55.9047 26.49 57.0807 25.51 58.7747 25.51C60.0627 25.51 61.2107 26.084 61.7427 26.896L60.6087 27.918C60.1887 27.26 59.4887 26.882 58.6767 26.882C57.9907 26.882 57.5427 27.19 57.5427 27.68C57.5427 28.212 58.0747 28.31 58.9987 28.506C60.2447 28.772 61.8127 29.038 61.8127 30.718C61.8127 32.202 60.4547 33.154 58.7887 33.154C57.4307 33.154 56.0727 32.608 55.4147 31.6ZM69.9495 33.14C67.5555 33.14 65.9035 31.782 65.9035 29.01V22.948H67.6955V28.954C67.6955 30.788 68.6055 31.558 69.9495 31.558C71.3075 31.558 72.2175 30.788 72.2175 28.954V22.948H74.0095V29.01C74.0095 31.782 72.3575 33.14 69.9495 33.14ZM74.9245 31.6L76.1845 30.592C76.6185 31.306 77.4585 31.782 78.3125 31.782C79.0265 31.782 79.6845 31.53 79.6845 30.872C79.6845 30.242 79.0685 30.172 77.9065 29.934C76.7445 29.696 75.4145 29.402 75.4145 27.834C75.4145 26.49 76.5905 25.51 78.2845 25.51C79.5725 25.51 80.7205 26.084 81.2525 26.896L80.1185 27.918C79.6985 27.26 78.9985 26.882 78.1865 26.882C77.5005 26.882 77.0525 27.19 77.0525 27.68C77.0525 28.212 77.5845 28.31 78.5085 28.506C79.7545 28.772 81.3225 29.038 81.3225 30.718C81.3225 32.202 79.9645 33.154 78.2985 33.154C76.9405 33.154 75.5825 32.608 74.9245 31.6ZM82.5845 24.67V22.948H84.3205V24.67H82.5845ZM84.2925 25.65V33H82.6125V25.65H84.2925ZM86.0578 33V25.65H87.7378V26.434C88.1578 25.944 88.8158 25.51 89.7678 25.51C91.3078 25.51 92.2318 26.574 92.2318 28.156V33H90.5518V28.646C90.5518 27.736 90.1878 27.078 89.2638 27.078C88.5078 27.078 87.7378 27.638 87.7378 28.688V33H86.0578ZM100.484 32.258C100.484 34.428 99.0005 35.674 96.9005 35.674C95.2065 35.674 94.0165 34.96 93.5545 33.532L95.1225 32.972C95.3465 33.798 95.9765 34.316 96.9005 34.316C98.0345 34.316 98.8045 33.756 98.8045 32.412V31.894C98.4125 32.412 97.6705 32.818 96.7325 32.818C94.7165 32.818 93.5125 31.18 93.5125 29.164C93.5125 27.148 94.7165 25.51 96.7325 25.51C97.6565 25.51 98.4125 25.916 98.8045 26.434V25.65H100.484V32.258ZM98.8325 29.094C98.8325 27.75 98.1045 26.98 97.0545 26.98C95.8925 26.98 95.2065 27.792 95.2065 29.164C95.2065 30.522 95.8925 31.348 97.0545 31.348C98.1045 31.348 98.8325 30.578 98.8325 29.262V29.094Z" fill="white"/>
<path d="M40 80L42.8868 75L37.1132 75L40 80ZM39.5 44L39.5 75.5L40.5 75.5L40.5 44L39.5 44Z" fill="#C5CFD8"/>
<path d="M111 115L106 112.113V117.887L111 115ZM75 115.5H106.5V114.5H75V115.5Z" fill="#C5CFD8"/>
<path d="M223 115L218 112.113V117.887L223 115ZM187 115.5H218.5V114.5H187V115.5Z" fill="#C5CFD8"/>
<path d="M344 115L339 112.113V117.887L344 115ZM308 115.5H339.5V114.5H308V115.5Z" fill="#C5CFD8"/>
<circle cx="264" cy="114" r="27.5" stroke="#C5CFD8"/>
<path d="M259.703 107.492V113.252" stroke="#C5CFD8"/>
<path d="M261.906 107.492V112.38C261.906 112.491 261.996 112.58 262.106 112.58H264.078" stroke="#C5CFD8"/>
<path d="M265.461 107.492V112.38C265.461 112.491 265.55 112.58 265.661 112.58H267.633" stroke="#C5CFD8"/>
<path d="M269.78 112.794V103.481C269.78 103.3 269.56 103.212 269.435 103.343L267.59 105.282C267.511 105.364 267.379 105.364 267.3 105.282L265.272 103.15C265.187 103.061 265.042 103.069 264.968 103.167L263.384 105.247C263.309 105.345 263.165 105.353 263.08 105.264L261.068 103.15C260.983 103.061 260.839 103.069 260.764 103.167L259.197 105.225C259.117 105.33 258.959 105.33 258.879 105.225L257.312 103.167C257.238 103.069 257.093 103.061 257.008 103.15L254.98 105.282C254.901 105.364 254.769 105.364 254.69 105.282L252.845 103.343C252.72 103.212 252.5 103.3 252.5 103.481V124.486C252.5 124.676 252.739 124.759 252.857 124.611L254.678 122.314C254.759 122.213 254.912 122.213 254.992 122.314L256.995 124.84C257.081 124.948 257.247 124.939 257.321 124.823L258.87 122.383C258.948 122.259 259.129 122.259 259.207 122.383L260.769 124.844C260.839 124.954 260.993 124.969 261.083 124.875L263.709 122.116" stroke="#C5CFD8" stroke-linecap="round"/>
<mask id="path-11-inside-1_3183_3792" fill="white">
<path fill-rule="evenodd" clip-rule="evenodd" d="M254.703 108.292C254.703 107.85 255.061 107.492 255.503 107.492H257.503C257.945 107.492 258.303 107.85 258.303 108.292V112.548C258.303 112.99 257.945 113.348 257.503 113.348H255.503C255.061 113.348 254.703 112.99 254.703 112.548V108.292ZM255.594 108.301H257.394V110.101H255.594V108.301ZM257.394 110.801H255.594V112.601H257.394V110.801Z"/>
</mask>
<path fill-rule="evenodd" clip-rule="evenodd" d="M254.703 108.292C254.703 107.85 255.061 107.492 255.503 107.492H257.503C257.945 107.492 258.303 107.85 258.303 108.292V112.548C258.303 112.99 257.945 113.348 257.503 113.348H255.503C255.061 113.348 254.703 112.99 254.703 112.548V108.292ZM255.594 108.301H257.394V110.101H255.594V108.301ZM257.394 110.801H255.594V112.601H257.394V110.801Z" fill="#C5CFD8"/>
<path d="M257.394 108.301H258.394V107.301H257.394V108.301ZM255.594 108.301V107.301H254.594V108.301H255.594ZM257.394 110.101V111.101H258.394V110.101H257.394ZM255.594 110.101H254.594V111.101H255.594V110.101ZM255.594 110.801V109.801H254.594V110.801H255.594ZM257.394 110.801H258.394V109.801H257.394V110.801ZM255.594 112.601H254.594V113.601H255.594V112.601ZM257.394 112.601V113.601H258.394V112.601H257.394ZM255.503 106.492C254.509 106.492 253.703 107.298 253.703 108.292H255.703C255.703 108.403 255.614 108.492 255.503 108.492V106.492ZM257.503 106.492H255.503V108.492H257.503V106.492ZM259.303 108.292C259.303 107.298 258.497 106.492 257.503 106.492V108.492C257.393 108.492 257.303 108.403 257.303 108.292H259.303ZM259.303 112.548V108.292H257.303V112.548H259.303ZM257.503 114.348C258.497 114.348 259.303 113.542 259.303 112.548H257.303C257.303 112.438 257.393 112.348 257.503 112.348V114.348ZM255.503 114.348H257.503V112.348H255.503V114.348ZM253.703 112.548C253.703 113.542 254.509 114.348 255.503 114.348V112.348C255.614 112.348 255.703 112.438 255.703 112.548H253.703ZM253.703 108.292V112.548H255.703V108.292H253.703ZM257.394 107.301H255.594V109.301H257.394V107.301ZM258.394 110.101V108.301H256.394V110.101H258.394ZM255.594 111.101H257.394V109.101H255.594V111.101ZM254.594 108.301V110.101H256.594V108.301H254.594ZM255.594 111.801H257.394V109.801H255.594V111.801ZM256.594 112.601V110.801H254.594V112.601H256.594ZM257.394 111.601H255.594V113.601H257.394V111.601ZM256.394 110.801V112.601H258.394V110.801H256.394Z" fill="#C5CFD8" mask="url(#path-11-inside-1_3183_3792)"/>
<path d="M255.477 115.461H261.237" stroke="#C5CFD8" stroke-linecap="round"/>
<path d="M255.477 118.34H261.237" stroke="#C5CFD8" stroke-linecap="round"/>
<circle cx="268.338" cy="119.26" r="5.26" stroke="#C5CFD8"/>
<path d="M265.75 119.877L267.529 121.656C267.607 121.734 267.733 121.734 267.811 121.656L271.03 118.438" stroke="#00BAF2" stroke-linecap="round"/>
<path d="M230.131 161.108V165H228.339V154.948H232.357C234.597 154.948 235.997 155.998 235.997 158.028C235.997 159.61 235.129 160.618 233.659 160.968L236.249 165H234.205L231.755 161.108H230.131ZM230.131 159.568H232.259C233.547 159.568 234.233 159.008 234.233 158.028C234.233 157.034 233.547 156.488 232.259 156.488H230.131V159.568ZM240.386 165.154C238.286 165.154 236.816 163.6 236.816 161.332C236.816 159.176 238.272 157.51 240.316 157.51C242.444 157.51 243.578 159.12 243.578 161.136V161.696H238.426C238.552 162.956 239.308 163.726 240.386 163.726C241.212 163.726 241.87 163.306 242.094 162.55L243.536 163.096C243.018 164.384 241.856 165.154 240.386 165.154ZM240.302 158.924C239.434 158.924 238.762 159.442 238.51 160.436H241.884C241.87 159.624 241.366 158.924 240.302 158.924ZM246.057 161.332C246.057 162.83 246.841 163.698 247.989 163.698C248.885 163.698 249.431 163.11 249.641 162.298L251.083 163.026C250.705 164.216 249.585 165.154 247.989 165.154C245.889 165.154 244.377 163.6 244.377 161.332C244.377 159.064 245.889 157.51 247.989 157.51C249.571 157.51 250.663 158.406 251.055 159.582L249.641 160.352C249.431 159.554 248.885 158.952 247.989 158.952C246.841 158.952 246.057 159.834 246.057 161.332ZM252.099 165V154.948H253.779V158.434C254.199 157.944 254.857 157.51 255.809 157.51C257.349 157.51 258.273 158.574 258.273 160.156V165H256.593V160.646C256.593 159.736 256.229 159.078 255.305 159.078C254.549 159.078 253.779 159.638 253.779 160.688V165H252.099ZM261.933 165.126C260.533 165.126 259.455 164.272 259.455 162.956C259.455 161.556 260.505 160.94 261.919 160.646L263.949 160.226V160.1C263.949 159.4 263.585 158.966 262.689 158.966C261.891 158.966 261.471 159.33 261.275 160.044L259.693 159.68C260.057 158.462 261.135 157.51 262.759 157.51C264.523 157.51 265.587 158.35 265.587 160.044V163.208C265.587 163.628 265.769 163.754 266.231 163.698V165C265.013 165.14 264.369 164.902 264.117 164.3C263.655 164.818 262.885 165.126 261.933 165.126ZM263.949 162.41V161.514L262.367 161.85C261.653 162.004 261.121 162.228 261.121 162.886C261.121 163.46 261.541 163.782 262.185 163.782C263.081 163.782 263.949 163.306 263.949 162.41ZM271.597 157.636V159.316C271.387 159.288 271.219 159.274 270.981 159.274C269.917 159.274 269.105 159.96 269.105 161.136V165H267.425V157.65H269.105V158.742C269.427 158.056 270.183 157.608 271.121 157.608C271.317 157.608 271.471 157.622 271.597 157.636ZM279.022 164.258C279.022 166.428 277.538 167.674 275.438 167.674C273.744 167.674 272.554 166.96 272.092 165.532L273.66 164.972C273.884 165.798 274.514 166.316 275.438 166.316C276.572 166.316 277.342 165.756 277.342 164.412V163.894C276.95 164.412 276.208 164.818 275.27 164.818C273.254 164.818 272.05 163.18 272.05 161.164C272.05 159.148 273.254 157.51 275.27 157.51C276.194 157.51 276.95 157.916 277.342 158.434V157.65H279.022V164.258ZM277.37 161.094C277.37 159.75 276.642 158.98 275.592 158.98C274.43 158.98 273.744 159.792 273.744 161.164C273.744 162.522 274.43 163.348 275.592 163.348C276.642 163.348 277.37 162.578 277.37 161.262V161.094ZM283.904 165.154C281.804 165.154 280.334 163.6 280.334 161.332C280.334 159.176 281.79 157.51 283.834 157.51C285.962 157.51 287.096 159.12 287.096 161.136V161.696H281.944C282.07 162.956 282.826 163.726 283.904 163.726C284.73 163.726 285.388 163.306 285.612 162.55L287.054 163.096C286.536 164.384 285.374 165.154 283.904 165.154ZM283.82 158.924C282.952 158.924 282.28 159.442 282.028 160.436H285.402C285.388 159.624 284.884 158.924 283.82 158.924ZM294.615 154.85C295.119 154.85 295.549 154.939 295.903 155.116C296.267 155.284 296.547 155.527 296.743 155.844C296.939 156.161 297.037 156.549 297.037 157.006C297.037 157.594 296.846 158.093 296.463 158.504C296.09 158.915 295.614 159.288 295.035 159.624L297.737 162.228C297.98 161.939 298.176 161.607 298.325 161.234C298.484 160.851 298.615 160.441 298.717 160.002H299.963C299.814 160.599 299.627 161.155 299.403 161.668C299.179 162.181 298.89 162.629 298.535 163.012L300.579 165H298.913L297.695 163.824C297.471 164.02 297.238 164.202 296.995 164.37C296.762 164.529 296.505 164.664 296.225 164.776C295.945 164.888 295.642 164.977 295.315 165.042C294.998 165.107 294.643 165.14 294.251 165.14C293.607 165.14 293.047 165.037 292.571 164.832C292.105 164.617 291.741 164.305 291.479 163.894C291.227 163.483 291.101 162.984 291.101 162.396C291.101 161.92 291.185 161.509 291.353 161.164C291.531 160.819 291.783 160.511 292.109 160.24C292.436 159.969 292.819 159.708 293.257 159.456C293.061 159.232 292.87 158.999 292.683 158.756C292.497 158.513 292.343 158.252 292.221 157.972C292.1 157.683 292.039 157.37 292.039 157.034C292.039 156.577 292.142 156.185 292.347 155.858C292.553 155.531 292.847 155.284 293.229 155.116C293.621 154.939 294.083 154.85 294.615 154.85ZM293.999 160.226C293.663 160.422 293.374 160.623 293.131 160.828C292.898 161.024 292.716 161.243 292.585 161.486C292.455 161.729 292.389 162.018 292.389 162.354C292.389 162.867 292.562 163.278 292.907 163.586C293.253 163.894 293.715 164.048 294.293 164.048C294.891 164.048 295.404 163.95 295.833 163.754C296.263 163.558 296.622 163.325 296.911 163.054L293.999 160.226ZM294.573 155.858C294.181 155.858 293.859 155.961 293.607 156.166C293.365 156.371 293.243 156.656 293.243 157.02C293.243 157.356 293.332 157.669 293.509 157.958C293.687 158.238 293.943 158.551 294.279 158.896C294.83 158.579 295.222 158.28 295.455 158C295.698 157.711 295.819 157.379 295.819 157.006C295.819 156.67 295.707 156.395 295.483 156.18C295.259 155.965 294.956 155.858 294.573 155.858ZM222.761 183V172.948H226.751C228.907 172.948 230.055 173.886 230.055 175.594C230.055 176.84 229.327 177.484 228.627 177.764C229.677 178.1 230.377 178.968 230.377 180.2C230.377 181.964 229.075 183 227.003 183H222.761ZM224.483 177.106H226.583C227.731 177.106 228.361 176.658 228.361 175.776C228.361 174.894 227.731 174.46 226.583 174.46H224.483V177.106ZM224.483 178.618V181.488H226.905C228.039 181.488 228.655 180.9 228.655 180.046C228.655 179.206 228.039 178.618 226.905 178.618H224.483ZM231.604 174.67V172.948H233.34V174.67H231.604ZM233.312 175.65V183H231.632V175.65H233.312ZM236.757 172.948V183H235.077V172.948H236.757ZM240.203 172.948V183H238.523V172.948H240.203ZM246.715 179.108V183H244.923V172.948H248.941C251.181 172.948 252.581 173.998 252.581 176.028C252.581 178.03 251.181 179.108 248.941 179.108H246.715ZM246.715 177.568H248.843C250.131 177.568 250.817 177.008 250.817 176.028C250.817 175.034 250.131 174.488 248.843 174.488H246.715V177.568ZM255.371 183.126C253.971 183.126 252.893 182.272 252.893 180.956C252.893 179.556 253.943 178.94 255.357 178.646L257.387 178.226V178.1C257.387 177.4 257.023 176.966 256.127 176.966C255.329 176.966 254.909 177.33 254.713 178.044L253.131 177.68C253.495 176.462 254.573 175.51 256.197 175.51C257.961 175.51 259.025 176.35 259.025 178.044V181.208C259.025 181.628 259.207 181.754 259.669 181.698V183C258.451 183.14 257.807 182.902 257.555 182.3C257.093 182.818 256.323 183.126 255.371 183.126ZM257.387 180.41V179.514L255.805 179.85C255.091 180.004 254.559 180.228 254.559 180.886C254.559 181.46 254.979 181.782 255.623 181.782C256.519 181.782 257.387 181.306 257.387 180.41ZM263.918 183.686C263.498 184.806 262.854 185.576 261.328 185.576C260.978 185.576 260.88 185.562 260.642 185.534V184.12C260.866 184.148 260.992 184.162 261.202 184.162C261.762 184.162 262.028 184.008 262.266 183.42L262.546 182.734L259.872 175.65H261.636L263.442 180.802L265.206 175.65H266.942L263.918 183.686ZM269.529 178.688V183H267.849V175.65H269.529V176.434C269.935 175.944 270.565 175.51 271.545 175.51C272.427 175.51 273.085 175.902 273.491 176.532C273.939 176.056 274.639 175.51 275.773 175.51C277.285 175.51 278.265 176.574 278.265 178.156V183H276.585V178.646C276.585 177.736 276.249 177.078 275.353 177.078C274.639 177.078 273.897 177.638 273.897 178.688V183H272.217V178.646C272.217 177.736 271.881 177.078 270.985 177.078C270.271 177.078 269.529 177.638 269.529 178.688ZM283.084 183.154C280.984 183.154 279.514 181.6 279.514 179.332C279.514 177.176 280.97 175.51 283.014 175.51C285.142 175.51 286.276 177.12 286.276 179.136V179.696H281.124C281.25 180.956 282.006 181.726 283.084 181.726C283.91 181.726 284.568 181.306 284.792 180.55L286.234 181.096C285.716 182.384 284.554 183.154 283.084 183.154ZM283 176.924C282.132 176.924 281.46 177.442 281.208 178.436H284.582C284.568 177.624 284.064 176.924 283 176.924ZM287.536 183V175.65H289.216V176.434C289.636 175.944 290.294 175.51 291.246 175.51C292.786 175.51 293.71 176.574 293.71 178.156V183H292.03V178.646C292.03 177.736 291.666 177.078 290.742 177.078C289.986 177.078 289.216 177.638 289.216 178.688V183H287.536ZM295.579 181.152V177.078H294.557V175.65H295.579V173.494H297.231V175.65H298.771V177.078H297.231V180.886C297.231 181.544 297.609 181.614 298.211 181.614C298.491 181.614 298.645 181.6 298.897 181.572V182.986C298.589 183.042 298.169 183.084 297.735 183.084C296.335 183.084 295.579 182.65 295.579 181.152ZM299.385 181.6L300.645 180.592C301.079 181.306 301.919 181.782 302.773 181.782C303.487 181.782 304.145 181.53 304.145 180.872C304.145 180.242 303.529 180.172 302.367 179.934C301.205 179.696 299.875 179.402 299.875 177.834C299.875 176.49 301.051 175.51 302.745 175.51C304.033 175.51 305.181 176.084 305.713 176.896L304.579 177.918C304.159 177.26 303.459 176.882 302.647 176.882C301.961 176.882 301.513 177.19 301.513 177.68C301.513 178.212 302.045 178.31 302.969 178.506C304.215 178.772 305.783 179.038 305.783 180.718C305.783 182.202 304.425 183.154 302.759 183.154C301.401 183.154 300.043 182.608 299.385 181.6Z" fill="white"/>
<path d="M26.435 159.974C26.435 162.144 27.611 163.572 29.263 163.572C30.439 163.572 31.293 162.858 31.601 161.682L33.281 162.256C32.693 164.034 31.293 165.154 29.263 165.154C26.589 165.154 24.643 163.026 24.643 159.974C24.643 156.922 26.589 154.794 29.263 154.794C31.293 154.794 32.693 155.914 33.281 157.692L31.601 158.266C31.293 157.09 30.439 156.376 29.263 156.376C27.611 156.376 26.435 157.804 26.435 159.974ZM36.3749 165.126C34.9749 165.126 33.8969 164.272 33.8969 162.956C33.8969 161.556 34.9469 160.94 36.3609 160.646L38.3909 160.226V160.1C38.3909 159.4 38.0269 158.966 37.1309 158.966C36.3329 158.966 35.9129 159.33 35.7169 160.044L34.1349 159.68C34.4989 158.462 35.5769 157.51 37.2009 157.51C38.9649 157.51 40.0289 158.35 40.0289 160.044V163.208C40.0289 163.628 40.2109 163.754 40.6729 163.698V165C39.4549 165.14 38.8109 164.902 38.5589 164.3C38.0969 164.818 37.3269 165.126 36.3749 165.126ZM38.3909 162.41V161.514L36.8089 161.85C36.0949 162.004 35.5629 162.228 35.5629 162.886C35.5629 163.46 35.9829 163.782 36.6269 163.782C37.5229 163.782 38.3909 163.306 38.3909 162.41ZM41.0964 163.6L42.3564 162.592C42.7904 163.306 43.6304 163.782 44.4844 163.782C45.1984 163.782 45.8564 163.53 45.8564 162.872C45.8564 162.242 45.2404 162.172 44.0784 161.934C42.9164 161.696 41.5864 161.402 41.5864 159.834C41.5864 158.49 42.7624 157.51 44.4564 157.51C45.7444 157.51 46.8924 158.084 47.4244 158.896L46.2904 159.918C45.8704 159.26 45.1704 158.882 44.3584 158.882C43.6724 158.882 43.2244 159.19 43.2244 159.68C43.2244 160.212 43.7564 160.31 44.6804 160.506C45.9264 160.772 47.4944 161.038 47.4944 162.718C47.4944 164.202 46.1364 165.154 44.4704 165.154C43.1124 165.154 41.7544 164.608 41.0964 163.6ZM48.7843 165V154.948H50.4643V158.434C50.8843 157.944 51.5423 157.51 52.4943 157.51C54.0343 157.51 54.9583 158.574 54.9583 160.156V165H53.2783V160.646C53.2783 159.736 52.9143 159.078 51.9903 159.078C51.2343 159.078 50.4643 159.638 50.4643 160.688V165H48.7843ZM16.5887 183V172.948H19.9487C23.0707 172.948 25.0027 174.908 25.0027 177.974C25.0027 181.04 23.0707 183 19.9487 183H16.5887ZM18.3387 181.46H19.9487C22.0207 181.46 23.2387 180.088 23.2387 177.974C23.2387 175.846 22.0207 174.488 19.9347 174.488H18.3387V181.46ZM29.4431 183.154C27.3431 183.154 25.8731 181.6 25.8731 179.332C25.8731 177.176 27.3291 175.51 29.3731 175.51C31.5011 175.51 32.6351 177.12 32.6351 179.136V179.696H27.4831C27.6091 180.956 28.3651 181.726 29.4431 181.726C30.2691 181.726 30.9271 181.306 31.1511 180.55L32.5931 181.096C32.0751 182.384 30.9131 183.154 29.4431 183.154ZM29.3591 176.924C28.4911 176.924 27.8191 177.442 27.5671 178.436H30.9411C30.9271 177.624 30.4231 176.924 29.3591 176.924ZM37.6897 183.154C36.7377 183.154 36.0377 182.776 35.5757 182.23V185.52H33.8957V175.65H35.5757V176.434C36.0377 175.888 36.7377 175.51 37.6897 175.51C39.7477 175.51 40.9237 177.246 40.9237 179.332C40.9237 181.418 39.7477 183.154 37.6897 183.154ZM35.5337 179.122V179.556C35.5337 180.914 36.3177 181.684 37.3537 181.684C38.5717 181.684 39.2297 180.732 39.2297 179.332C39.2297 177.932 38.5717 176.98 37.3537 176.98C36.3177 176.98 35.5337 177.736 35.5337 179.122ZM48.8438 179.332C48.8438 181.614 47.3738 183.154 45.3018 183.154C43.2298 183.154 41.7598 181.614 41.7598 179.332C41.7598 177.05 43.2298 175.51 45.3018 175.51C47.3738 175.51 48.8438 177.05 48.8438 179.332ZM43.4538 179.332C43.4538 180.83 44.1678 181.74 45.3018 181.74C46.4358 181.74 47.1498 180.83 47.1498 179.332C47.1498 177.834 46.4358 176.924 45.3018 176.924C44.1678 176.924 43.4538 177.834 43.4538 179.332ZM49.3815 181.6L50.6415 180.592C51.0755 181.306 51.9155 181.782 52.7695 181.782C53.4835 181.782 54.1415 181.53 54.1415 180.872C54.1415 180.242 53.5255 180.172 52.3635 179.934C51.2015 179.696 49.8715 179.402 49.8715 177.834C49.8715 176.49 51.0475 175.51 52.7415 175.51C54.0295 175.51 55.1775 176.084 55.7095 176.896L54.5755 177.918C54.1555 177.26 53.4555 176.882 52.6435 176.882C51.9575 176.882 51.5095 177.19 51.5095 177.68C51.5095 178.212 52.0415 178.31 52.9655 178.506C54.2115 178.772 55.7795 179.038 55.7795 180.718C55.7795 182.202 54.4215 183.154 52.7555 183.154C51.3975 183.154 50.0395 182.608 49.3815 181.6ZM57.0415 174.67V172.948H58.7775V174.67H57.0415ZM58.7495 175.65V183H57.0695V175.65H58.7495ZM60.6688 181.152V177.078H59.6468V175.65H60.6688V173.494H62.3208V175.65H63.8608V177.078H62.3208V180.886C62.3208 181.544 62.6988 181.614 63.3008 181.614C63.5808 181.614 63.7348 181.6 63.9868 181.572V182.986C63.6788 183.042 63.2588 183.084 62.8248 183.084C61.4248 183.084 60.6688 182.65 60.6688 181.152Z" fill="white"/>
<circle cx="145" cy="114" r="27.5" stroke="#C5CFD8"/>
<path d="M140.172 111.092H145.828" stroke="#00BAF2" stroke-linecap="square"/>
<path d="M140.172 112.223H145.828" stroke="#00BAF2" stroke-linecap="square"/>
<path d="M144.703 113.92H144.137L141.874 109.395H141.273V113.92" stroke="#00BAF2" stroke-linecap="square"/>
<path d="M144.734 113.92V109.395" stroke="#00BAF2" stroke-linecap="square"/>
<path d="M153.635 107.782C154.388 107.782 155 107.256 155 106.61V103.172C155 102.526 154.388 102 153.635 102H151.054C150.828 102 150.645 102.157 150.645 102.352C150.645 102.546 150.828 102.703 151.054 102.703H153.635C153.936 102.703 154.181 102.913 154.181 103.172V106.61C154.181 106.868 153.936 107.078 153.635 107.078H149.782V105.617H151.747C152.247 105.617 152.654 105.268 152.654 104.839V104.271C152.654 103.841 152.247 103.492 151.747 103.492H134.253C133.753 103.492 133.346 103.841 133.346 104.271V104.839C133.346 105.268 133.753 105.617 134.253 105.617H136.57V107.078H132.365C132.064 107.078 131.819 106.868 131.819 106.61V103.172C131.819 102.913 132.064 102.703 132.365 102.703H149.418C149.644 102.703 149.827 102.546 149.827 102.352C149.827 102.157 149.644 102 149.418 102H132.365C131.612 102 131 102.526 131 103.172V106.61C131 107.256 131.612 107.782 132.365 107.782H136.57V113.297C136.57 113.491 136.753 113.649 136.979 113.649C137.205 113.649 137.388 113.491 137.388 113.297V105.617H138.107V116.915C138.107 117.109 138.29 117.266 138.516 117.266C139.544 117.266 140.381 117.985 140.381 118.868C140.381 119.062 140.564 119.219 140.79 119.219H145.561C145.787 119.219 145.971 119.062 145.971 118.868C145.971 118.204 146.453 117.61 147.162 117.374L147.308 117.615C147.325 117.645 147.331 117.671 147.305 117.698C146.732 118.295 146.494 119.083 146.637 119.836H137.502C137.44 119.836 137.388 119.792 137.388 119.738V114.703C137.388 114.509 137.205 114.351 136.979 114.351C136.753 114.351 136.57 114.509 136.57 114.703V119.738C136.57 120.18 136.988 120.539 137.502 120.539H146.854C146.897 120.699 146.921 120.861 146.925 121.025L146.966 122.7H146.578C146.078 122.7 145.686 123.1 145.686 123.612V125.088C145.686 125.599 146.078 126 146.578 126H148.554C148.78 126 148.963 125.843 148.963 125.649C148.963 125.454 148.78 125.297 148.554 125.297H146.589C146.56 125.279 146.505 125.204 146.505 125.088V123.612C146.505 123.496 146.56 123.42 146.589 123.403H152.592C152.62 123.42 152.676 123.496 152.676 123.612V125.088C152.676 125.204 152.62 125.279 152.592 125.297H150.191C149.964 125.297 149.781 125.454 149.781 125.649C149.781 125.843 149.964 126 150.191 126H152.603C153.103 126 153.495 125.599 153.495 125.088V123.612C153.495 123.1 153.103 122.7 152.603 122.7H151.99V121.19C151.99 120.904 152.089 120.629 152.276 120.393L154.221 117.949C155.182 116.742 154.993 115.127 153.772 114.109L149.781 110.778V107.782H153.635ZM148.963 114.262L148.245 113.62V105.617H148.963V114.262ZM134.253 104.914C134.205 104.914 134.165 104.88 134.165 104.839V104.271C134.165 104.229 134.205 104.195 134.253 104.195H151.747C151.796 104.195 151.835 104.229 151.835 104.271V104.839C151.835 104.88 151.795 104.914 151.747 104.914C149.189 104.914 134.815 104.914 134.253 104.914ZM145.183 118.516H141.168C140.991 117.526 140.078 116.742 138.925 116.59V105.617H147.426V112.918C146.892 112.587 146.14 112.622 145.651 113.033C145.212 113.401 145.107 113.962 145.389 114.43L146.785 116.747C145.934 117.059 145.325 117.733 145.183 118.516ZM153.202 114.613C154.136 115.393 154.28 116.629 153.545 117.552L151.6 119.996C151.319 120.349 151.171 120.762 151.171 121.19V122.7H147.785L147.744 121.01C147.735 120.683 147.667 120.361 147.542 120.053C147.278 119.405 147.43 118.674 147.937 118.144C148.171 117.901 148.208 117.565 148.033 117.289L146.116 114.106C146.001 113.915 146.044 113.686 146.223 113.536C146.452 113.344 146.811 113.355 147.026 113.546L150.605 116.742C150.762 116.882 151.021 116.886 151.183 116.751C151.346 116.617 151.351 116.394 151.195 116.254L149.781 114.993V111.759L153.202 114.613Z" fill="#C5CFD8"/>
<path d="M139.494 118C139.712 118 139.889 117.801 139.889 117.556C139.889 117.31 139.712 117.111 139.494 117.111H139.395C139.177 117.111 139 117.31 139 117.556C139 117.801 139.177 118 139.395 118H139.494Z" fill="#C5CFD8"/>
<path d="M131.435 159.974C131.435 162.144 132.611 163.572 134.263 163.572C135.439 163.572 136.293 162.858 136.601 161.682L138.281 162.256C137.693 164.034 136.293 165.154 134.263 165.154C131.589 165.154 129.643 163.026 129.643 159.974C129.643 156.922 131.589 154.794 134.263 154.794C136.293 154.794 137.693 155.914 138.281 157.692L136.601 158.266C136.293 157.09 135.439 156.376 134.263 156.376C132.611 156.376 131.435 157.804 131.435 159.974ZM141.375 165.126C139.975 165.126 138.897 164.272 138.897 162.956C138.897 161.556 139.947 160.94 141.361 160.646L143.391 160.226V160.1C143.391 159.4 143.027 158.966 142.131 158.966C141.333 158.966 140.913 159.33 140.717 160.044L139.135 159.68C139.499 158.462 140.577 157.51 142.201 157.51C143.965 157.51 145.029 158.35 145.029 160.044V163.208C145.029 163.628 145.211 163.754 145.673 163.698V165C144.455 165.14 143.811 164.902 143.559 164.3C143.097 164.818 142.327 165.126 141.375 165.126ZM143.391 162.41V161.514L141.809 161.85C141.095 162.004 140.563 162.228 140.563 162.886C140.563 163.46 140.983 163.782 141.627 163.782C142.523 163.782 143.391 163.306 143.391 162.41ZM146.096 163.6L147.356 162.592C147.79 163.306 148.63 163.782 149.484 163.782C150.198 163.782 150.856 163.53 150.856 162.872C150.856 162.242 150.24 162.172 149.078 161.934C147.916 161.696 146.586 161.402 146.586 159.834C146.586 158.49 147.762 157.51 149.456 157.51C150.744 157.51 151.892 158.084 152.424 158.896L151.29 159.918C150.87 159.26 150.17 158.882 149.358 158.882C148.672 158.882 148.224 159.19 148.224 159.68C148.224 160.212 148.756 160.31 149.68 160.506C150.926 160.772 152.494 161.038 152.494 162.718C152.494 164.202 151.136 165.154 149.47 165.154C148.112 165.154 146.754 164.608 146.096 163.6ZM153.784 165V154.948H155.464V158.434C155.884 157.944 156.542 157.51 157.494 157.51C159.034 157.51 159.958 158.574 159.958 160.156V165H158.278V160.646C158.278 159.736 157.914 159.078 156.99 159.078C156.234 159.078 155.464 159.638 155.464 160.688V165H153.784ZM115.481 172.948H117.063L118.939 180.326L120.843 172.948H122.635L119.919 183H118.155L116.251 175.916L114.361 183H112.597L109.867 172.948H111.715L113.619 180.326L115.481 172.948ZM123.555 174.67V172.948H125.291V174.67H123.555ZM125.263 175.65V183H123.583V175.65H125.263ZM127.182 181.152V177.078H126.16V175.65H127.182V173.494H128.834V175.65H130.374V177.078H128.834V180.886C128.834 181.544 129.212 181.614 129.814 181.614C130.094 181.614 130.248 181.6 130.5 181.572V182.986C130.192 183.042 129.772 183.084 129.338 183.084C127.938 183.084 127.182 182.65 127.182 181.152ZM131.759 183V172.948H133.439V176.434C133.859 175.944 134.517 175.51 135.469 175.51C137.009 175.51 137.933 176.574 137.933 178.156V183H136.253V178.646C136.253 177.736 135.889 177.078 134.965 177.078C134.209 177.078 133.439 177.638 133.439 178.688V183H131.759ZM142.42 183.154C140.362 183.154 139.186 181.418 139.186 179.332C139.186 177.246 140.362 175.51 142.42 175.51C143.372 175.51 144.072 175.888 144.534 176.434V172.948H146.214V183H144.534V182.23C144.072 182.776 143.372 183.154 142.42 183.154ZM144.576 179.122C144.576 177.736 143.792 176.98 142.756 176.98C141.538 176.98 140.88 177.932 140.88 179.332C140.88 180.732 141.538 181.684 142.756 181.684C143.792 181.684 144.576 180.914 144.576 179.556V179.122ZM152.146 175.636V177.316C151.936 177.288 151.768 177.274 151.53 177.274C150.466 177.274 149.654 177.96 149.654 179.136V183H147.974V175.65H149.654V176.742C149.976 176.056 150.732 175.608 151.67 175.608C151.866 175.608 152.02 175.622 152.146 175.636ZM155.047 183.126C153.647 183.126 152.569 182.272 152.569 180.956C152.569 179.556 153.619 178.94 155.033 178.646L157.063 178.226V178.1C157.063 177.4 156.699 176.966 155.803 176.966C155.005 176.966 154.585 177.33 154.389 178.044L152.807 177.68C153.171 176.462 154.249 175.51 155.873 175.51C157.637 175.51 158.701 176.35 158.701 178.044V181.208C158.701 181.628 158.883 181.754 159.345 181.698V183C158.127 183.14 157.483 182.902 157.231 182.3C156.769 182.818 155.999 183.126 155.047 183.126ZM157.063 180.41V179.514L155.481 179.85C154.767 180.004 154.235 180.228 154.235 180.886C154.235 181.46 154.655 181.782 155.299 181.782C156.195 181.782 157.063 181.306 157.063 180.41ZM163.902 175.65H165.288L166.604 180.522L167.906 175.65H169.572L167.36 183H165.904L164.56 178.184L163.216 183H161.76L159.548 175.65H161.27L162.6 180.522L163.902 175.65ZM172.219 183.126C170.819 183.126 169.741 182.272 169.741 180.956C169.741 179.556 170.791 178.94 172.205 178.646L174.235 178.226V178.1C174.235 177.4 173.871 176.966 172.975 176.966C172.177 176.966 171.757 177.33 171.561 178.044L169.979 177.68C170.343 176.462 171.421 175.51 173.045 175.51C174.809 175.51 175.873 176.35 175.873 178.044V181.208C175.873 181.628 176.055 181.754 176.517 181.698V183C175.299 183.14 174.655 182.902 174.403 182.3C173.941 182.818 173.171 183.126 172.219 183.126ZM174.235 180.41V179.514L172.653 179.85C171.939 180.004 171.407 180.228 171.407 180.886C171.407 181.46 171.827 181.782 172.471 181.782C173.367 181.782 174.235 181.306 174.235 180.41ZM179.39 172.948V183H177.71V172.948H179.39Z" fill="white"/>
<circle cx="386" cy="114" r="27.5" stroke="#C5CFD8"/>
<path d="M376.594 123.016L377.184 121.313C377.23 121.182 377.357 121.094 377.5 121.094H389.687C389.83 121.094 389.958 121.182 390.003 121.313L390.594 123.014" stroke="#C5CFD8" stroke-linecap="round" stroke-linejoin="round"/>
<path fill-rule="evenodd" clip-rule="evenodd" d="M377.93 114.057H389.263V121.097H377.93V114.057Z" stroke="#C5CFD8" stroke-linecap="round" stroke-linejoin="round"/>
<path d="M391.263 123.016H375.93" stroke="#C5CFD8" stroke-linecap="round" stroke-linejoin="round"/>
<path d="M379.93 114.057V121.097" stroke="#C5CFD8" stroke-linecap="round" stroke-linejoin="round"/>
<path d="M381.93 114.057V121.097" stroke="#C5CFD8" stroke-linecap="round" stroke-linejoin="round"/>
<path d="M385.266 114.057V121.097" stroke="#C5CFD8" stroke-linecap="round" stroke-linejoin="round"/>
<path d="M387.266 114.057V121.097" stroke="#C5CFD8" stroke-linecap="round" stroke-linejoin="round"/>
<path fill-rule="evenodd" clip-rule="evenodd" d="M390.505 112.385C390.556 112.241 390.493 112.082 390.355 112.006L383.757 108.385C383.654 108.328 383.527 108.328 383.424 108.385L376.824 112.004C376.686 112.08 376.623 112.238 376.673 112.383L377.183 113.837C377.228 113.968 377.355 114.056 377.499 114.056H389.685C389.829 114.056 389.956 113.968 390.001 113.837L390.505 112.385Z" stroke="#C5CFD8" stroke-linecap="round" stroke-linejoin="round"/>
<path d="M390.484 112.137H376.703" stroke="#C5CFD8" stroke-linecap="round" stroke-linejoin="round"/>
<path fill-rule="evenodd" clip-rule="evenodd" d="M388.562 105.911C388.562 103.199 390.761 101 393.473 101C396.185 101 398.384 103.199 398.384 105.911C398.384 108.623 396.185 110.821 393.473 110.821C390.761 110.821 388.562 108.623 388.562 105.911Z" stroke="#C5CFD8"/>
<path d="M390.562 105.355H396.623" stroke="#00BAF2" stroke-linecap="square"/>
<path d="M390.562 106.416H396.623" stroke="#00BAF2" stroke-linecap="square"/>
<path d="M395.409 108.008H394.803L392.378 103.766H391.734V108.008" stroke="#00BAF2" stroke-linecap="square"/>
<path d="M395.453 108.008V103.766" stroke="#00BAF2" stroke-linecap="square"/>
<path d="M393.719 111V116.862C393.719 117.414 393.271 117.862 392.719 117.862H389.602" stroke="#C5CFD8"/>
<path d="M388.656 117.829L390.76 116.306L390.666 119.474L388.656 117.829Z" fill="#C5CFD8"/>
<path d="M343.612 164V153.948H347.602C349.758 153.948 350.906 154.886 350.906 156.594C350.906 157.84 350.178 158.484 349.478 158.764C350.528 159.1 351.228 159.968 351.228 161.2C351.228 162.964 349.926 164 347.854 164H343.612ZM345.334 158.106H347.434C348.582 158.106 349.212 157.658 349.212 156.776C349.212 155.894 348.582 155.46 347.434 155.46H345.334V158.106ZM345.334 159.618V162.488H347.756C348.89 162.488 349.506 161.9 349.506 161.046C349.506 160.206 348.89 159.618 347.756 159.618H345.334ZM354.43 164.126C353.03 164.126 351.952 163.272 351.952 161.956C351.952 160.556 353.002 159.94 354.416 159.646L356.446 159.226V159.1C356.446 158.4 356.082 157.966 355.186 157.966C354.388 157.966 353.968 158.33 353.772 159.044L352.19 158.68C352.554 157.462 353.632 156.51 355.256 156.51C357.02 156.51 358.084 157.35 358.084 159.044V162.208C358.084 162.628 358.266 162.754 358.728 162.698V164C357.51 164.14 356.866 163.902 356.614 163.3C356.152 163.818 355.382 164.126 354.43 164.126ZM356.446 161.41V160.514L354.864 160.85C354.15 161.004 353.618 161.228 353.618 161.886C353.618 162.46 354.038 162.782 354.682 162.782C355.578 162.782 356.446 162.306 356.446 161.41ZM359.921 164V156.65H361.601V157.434C362.021 156.944 362.679 156.51 363.631 156.51C365.171 156.51 366.095 157.574 366.095 159.156V164H364.415V159.646C364.415 158.736 364.051 158.078 363.127 158.078C362.371 158.078 361.601 158.638 361.601 159.688V164H359.921ZM369.49 153.948V159.744L372.318 156.65H374.376L371.604 159.506L374.6 164H372.654L370.456 160.682L369.49 161.662V164H367.81V153.948H369.49ZM385.925 155.516H382.691V164H380.899V155.516H377.665V153.948H385.925V155.516ZM389.865 156.636V158.316C389.655 158.288 389.487 158.274 389.249 158.274C388.185 158.274 387.373 158.96 387.373 160.136V164H385.693V156.65H387.373V157.742C387.695 157.056 388.451 156.608 389.389 156.608C389.585 156.608 389.739 156.622 389.865 156.636ZM392.766 164.126C391.366 164.126 390.288 163.272 390.288 161.956C390.288 160.556 391.338 159.94 392.752 159.646L394.782 159.226V159.1C394.782 158.4 394.418 157.966 393.522 157.966C392.724 157.966 392.304 158.33 392.108 159.044L390.526 158.68C390.89 157.462 391.968 156.51 393.592 156.51C395.356 156.51 396.42 157.35 396.42 159.044V162.208C396.42 162.628 396.602 162.754 397.064 162.698V164C395.846 164.14 395.202 163.902 394.95 163.3C394.488 163.818 393.718 164.126 392.766 164.126ZM394.782 161.41V160.514L393.2 160.85C392.486 161.004 391.954 161.228 391.954 161.886C391.954 162.46 392.374 162.782 393.018 162.782C393.914 162.782 394.782 162.306 394.782 161.41ZM398.257 164V156.65H399.937V157.434C400.357 156.944 401.015 156.51 401.967 156.51C403.507 156.51 404.431 157.574 404.431 159.156V164H402.751V159.646C402.751 158.736 402.387 158.078 401.463 158.078C400.707 158.078 399.937 158.638 399.937 159.688V164H398.257ZM405.376 162.6L406.636 161.592C407.07 162.306 407.91 162.782 408.764 162.782C409.478 162.782 410.136 162.53 410.136 161.872C410.136 161.242 409.52 161.172 408.358 160.934C407.196 160.696 405.866 160.402 405.866 158.834C405.866 157.49 407.042 156.51 408.736 156.51C410.024 156.51 411.172 157.084 411.704 157.896L410.57 158.918C410.15 158.26 409.45 157.882 408.638 157.882C407.952 157.882 407.504 158.19 407.504 158.68C407.504 159.212 408.036 159.31 408.96 159.506C410.206 159.772 411.774 160.038 411.774 161.718C411.774 163.202 410.416 164.154 408.75 164.154C407.392 164.154 406.034 163.608 405.376 162.6ZM416.466 153.808V155.278C416.27 155.264 416.172 155.264 415.962 155.264C415.304 155.264 414.94 155.46 414.94 156.3V156.65H416.438V158.078H414.94V164H413.26V158.078H412.238V156.65H413.26V156.174C413.26 154.648 414.114 153.794 415.766 153.794C416.032 153.794 416.158 153.794 416.466 153.808ZM420.437 164.154C418.337 164.154 416.867 162.6 416.867 160.332C416.867 158.176 418.323 156.51 420.367 156.51C422.495 156.51 423.629 158.12 423.629 160.136V160.696H418.477C418.603 161.956 419.359 162.726 420.437 162.726C421.263 162.726 421.921 162.306 422.145 161.55L423.587 162.096C423.069 163.384 421.907 164.154 420.437 164.154ZM420.353 157.924C419.485 157.924 418.813 158.442 418.561 159.436H421.935C421.921 158.624 421.417 157.924 420.353 157.924ZM429.062 156.636V158.316C428.852 158.288 428.684 158.274 428.446 158.274C427.382 158.274 426.57 158.96 426.57 160.136V164H424.89V156.65H426.57V157.742C426.892 157.056 427.648 156.608 428.586 156.608C428.782 156.608 428.936 156.622 429.062 156.636Z" fill="white"/>
<circle cx="40" cy="114" r="27.5" stroke="#C5CFD8"/>
<path d="M48.9591 115.475V124.457H30.9942V115.475H28V116.972H29.4971V125.954H50.4561V116.972H51.9532V115.475H48.9591Z" fill="#C5CFD8"/>
<path d="M38 116.704C38.4033 116.815 38.8151 116.892 39.2312 116.934V120.405L37.889 119.063L36.8306 120.122L39.9797 123.271L43.1288 120.122L42.0704 119.063L40.7282 120.405V116.934C44.8445 116.518 47.8436 112.843 47.4269 108.727C47.4046 108.507 47.3727 108.288 47.3311 108.071L45.861 108.353C46.4823 111.597 44.3561 114.731 41.112 115.352C37.8678 115.974 34.7342 113.847 34.1129 110.603C33.4915 107.359 35.6178 104.225 38.8619 103.604C39.7628 103.432 40.6913 103.469 41.5756 103.712L41.9746 102.271C37.9888 101.173 33.868 103.514 32.7705 107.5C31.673 111.486 34.0143 115.607 38 116.704Z" fill="#C5CFD8"/>
<path d="M44.8781 103.83C44.4593 103.466 44.0011 103.151 43.512 102.889L42.8047 104.207C43.1956 104.417 43.5621 104.67 43.8975 104.961L44.8781 103.83Z" fill="#C5CFD8"/>
<path d="M45.4616 107.087L46.833 106.488C46.6099 105.98 46.3313 105.498 46.0021 105.051L44.7969 105.939C45.0605 106.295 45.2834 106.681 45.4616 107.087Z" fill="#C5CFD8"/>
<path d="M35.4863 121.464H33.9893V119.967H32.4922V122.961H35.4863V121.464Z" fill="#00BAF2"/>
<path d="M44.4688 121.464V122.961H47.4629V119.967H45.9658V121.464H44.4688Z" fill="#00BAF2"/>
<path d="M36.875 109.035H43.2386" stroke="#00BAF2" stroke-linecap="square"/>
<path d="M36.875 110.307H43.2386" stroke="#00BAF2" stroke-linecap="square"/>
<path d="M41.9673 112.216H41.331L38.7855 107.125H38.1094V112.216" stroke="#00BAF2" stroke-linecap="square"/>
<path d="M42 112.216V107.125" stroke="#00BAF2" stroke-linecap="square"/>
</svg>
