<svg width="672" height="456" viewBox="0 0 672 456" fill="none" xmlns="http://www.w3.org/2000/svg">
<rect x="432.5" y="190.5" width="95" height="95" rx="7.5" stroke="#C8D0DB"/>
<path d="M499.561 235.675L495.117 231.211L492.538 235.893" stroke="#C8D0DB" stroke-linecap="round" stroke-linejoin="round"/>
<path d="M459.891 239.64L464.905 244.797L467.403 240.082" stroke="#C8D0DB" stroke-linecap="round" stroke-linejoin="round"/>
<path d="M495.099 231.204C498.416 238.56 495.948 247.236 489.255 251.744C482.563 256.252 473.595 255.279 468.025 249.44" stroke="#C8D0DB" stroke-linecap="round" stroke-linejoin="round"/>
<path d="M464.903 244.797C461.587 237.446 464.049 228.777 470.732 224.265C477.415 219.754 486.376 220.712 491.954 226.536" stroke="#C8D0DB" stroke-linecap="round" stroke-linejoin="round"/>
<path d="M470.863 236.168H489.122" stroke="#C8D0DB" stroke-linecap="square"/>
<path d="M470.863 239.82H489.122" stroke="#C8D0DB" stroke-linecap="square"/>
<path d="M485.472 245.299H483.646L476.342 230.691H474.402V245.299" stroke="#C8D0DB" stroke-linecap="square"/>
<path d="M485.582 245.299V230.691" stroke="#C8D0DB" stroke-linecap="square"/>
<rect x="576.5" y="190.5" width="95" height="95" rx="7.5" stroke="#C8D0DB"/>
<mask id="path-11-outside-1_3699_12295" maskUnits="userSpaceOnUse" x="604.012" y="220.359" width="17" height="16" fill="black">
<rect fill="white" x="604.012" y="220.359" width="17" height="16"/>
<path fill-rule="evenodd" clip-rule="evenodd" d="M615.4 231.197C615.462 231.273 615.544 231.33 615.636 231.362C617.698 232.112 620.392 233.399 620.752 236.047H619.685C619.405 234.505 618.013 233.349 615.278 232.353C615.005 232.255 614.765 232.083 614.582 231.858C614.4 231.633 614.283 231.362 614.243 231.075C614.204 230.791 614.243 230.501 614.356 230.238C614.469 229.974 614.653 229.747 614.886 229.58C615.463 229.167 616.046 227.66 616.046 227.163V225.735C616.06 224.893 615.75 224.079 615.179 223.461C614.607 222.843 613.82 222.468 612.98 222.416C612.556 222.403 612.134 222.475 611.739 222.628C611.344 222.781 610.983 223.012 610.679 223.308C610.375 223.603 610.133 223.956 609.968 224.346C609.802 224.737 609.717 225.156 609.718 225.58V227.163C609.718 227.66 610.301 229.167 610.878 229.581C611.112 229.747 611.295 229.975 611.409 230.238C611.522 230.501 611.562 230.791 611.522 231.075C611.483 231.362 611.366 231.633 611.183 231.859C611.001 232.084 610.76 232.255 610.488 232.354C607.748 233.349 606.359 234.505 606.079 236.047H605.012C605.372 233.399 608.066 232.112 610.125 231.362C610.218 231.33 610.3 231.273 610.362 231.197C610.424 231.12 610.463 231.029 610.476 230.931C610.491 230.837 610.478 230.741 610.441 230.654C610.404 230.567 610.343 230.492 610.265 230.437C609.396 229.813 608.663 227.982 608.663 227.163V225.58C608.663 225.015 608.776 224.456 608.996 223.935C609.216 223.415 609.539 222.944 609.944 222.55C610.35 222.157 610.83 221.849 611.357 221.645C611.884 221.44 612.447 221.344 613.012 221.361C614.125 221.424 615.172 221.913 615.934 222.728C616.695 223.542 617.114 224.62 617.101 225.735V227.163C617.101 227.982 616.368 229.813 615.497 230.437C615.419 230.492 615.358 230.567 615.321 230.654C615.283 230.741 615.271 230.837 615.286 230.931C615.298 231.029 615.338 231.12 615.4 231.197Z"/>
</mask>
<path fill-rule="evenodd" clip-rule="evenodd" d="M615.4 231.197C615.462 231.273 615.544 231.33 615.636 231.362C617.698 232.112 620.392 233.399 620.752 236.047H619.685C619.405 234.505 618.013 233.349 615.278 232.353C615.005 232.255 614.765 232.083 614.582 231.858C614.4 231.633 614.283 231.362 614.243 231.075C614.204 230.791 614.243 230.501 614.356 230.238C614.469 229.974 614.653 229.747 614.886 229.58C615.463 229.167 616.046 227.66 616.046 227.163V225.735C616.06 224.893 615.75 224.079 615.179 223.461C614.607 222.843 613.82 222.468 612.98 222.416C612.556 222.403 612.134 222.475 611.739 222.628C611.344 222.781 610.983 223.012 610.679 223.308C610.375 223.603 610.133 223.956 609.968 224.346C609.802 224.737 609.717 225.156 609.718 225.58V227.163C609.718 227.66 610.301 229.167 610.878 229.581C611.112 229.747 611.295 229.975 611.409 230.238C611.522 230.501 611.562 230.791 611.522 231.075C611.483 231.362 611.366 231.633 611.183 231.859C611.001 232.084 610.76 232.255 610.488 232.354C607.748 233.349 606.359 234.505 606.079 236.047H605.012C605.372 233.399 608.066 232.112 610.125 231.362C610.218 231.33 610.3 231.273 610.362 231.197C610.424 231.12 610.463 231.029 610.476 230.931C610.491 230.837 610.478 230.741 610.441 230.654C610.404 230.567 610.343 230.492 610.265 230.437C609.396 229.813 608.663 227.982 608.663 227.163V225.58C608.663 225.015 608.776 224.456 608.996 223.935C609.216 223.415 609.539 222.944 609.944 222.55C610.35 222.157 610.83 221.849 611.357 221.645C611.884 221.44 612.447 221.344 613.012 221.361C614.125 221.424 615.172 221.913 615.934 222.728C616.695 223.542 617.114 224.62 617.101 225.735V227.163C617.101 227.982 616.368 229.813 615.497 230.437C615.419 230.492 615.358 230.567 615.321 230.654C615.283 230.741 615.271 230.837 615.286 230.931C615.298 231.029 615.338 231.12 615.4 231.197Z" fill="#C8D0DB"/>
<path d="M615.636 231.362L615.705 231.174L615.702 231.173L615.636 231.362ZM615.4 231.197L615.555 231.07L615.555 231.07L615.4 231.197ZM620.752 236.047V236.247H620.981L620.95 236.02L620.752 236.047ZM619.685 236.047L619.488 236.083L619.518 236.247H619.685V236.047ZM615.278 232.353L615.346 232.165L615.346 232.165L615.278 232.353ZM614.582 231.858L614.427 231.984L614.582 231.858ZM614.243 231.075L614.441 231.047L614.441 231.047L614.243 231.075ZM614.356 230.238L614.54 230.317L614.356 230.238ZM614.886 229.58L615.002 229.743L615.002 229.743L614.886 229.58ZM616.046 225.735L615.846 225.732V225.735H616.046ZM615.179 223.461L615.032 223.596L615.179 223.461ZM612.98 222.416L612.992 222.216L612.986 222.216L612.98 222.416ZM611.739 222.628L611.667 222.442V222.442L611.739 222.628ZM610.679 223.308L610.818 223.451L610.818 223.451L610.679 223.308ZM609.718 225.58H609.918L609.918 225.58L609.718 225.58ZM610.878 229.581L610.761 229.743L610.762 229.743L610.878 229.581ZM611.409 230.238L611.592 230.159L611.409 230.238ZM611.522 231.075L611.324 231.048L611.324 231.048L611.522 231.075ZM611.183 231.859L611.339 231.984L611.183 231.859ZM610.488 232.354L610.42 232.165L610.419 232.166L610.488 232.354ZM606.079 236.047V236.247H606.246L606.276 236.083L606.079 236.047ZM605.012 236.047L604.814 236.02L604.783 236.247H605.012V236.047ZM610.125 231.362L610.06 231.173L610.057 231.174L610.125 231.362ZM610.362 231.197L610.207 231.07L610.207 231.07L610.362 231.197ZM610.476 230.931L610.278 230.901L610.278 230.906L610.476 230.931ZM610.441 230.654L610.625 230.575L610.625 230.575L610.441 230.654ZM610.265 230.437L610.148 230.6L610.15 230.601L610.265 230.437ZM608.663 225.58H608.863V225.58L608.663 225.58ZM609.944 222.55L610.083 222.694L609.944 222.55ZM611.357 221.645L611.285 221.458V221.458L611.357 221.645ZM613.012 221.361L613.023 221.162L613.018 221.161L613.012 221.361ZM615.934 222.728L616.08 222.591V222.591L615.934 222.728ZM617.101 225.735L616.901 225.733V225.735H617.101ZM615.497 230.437L615.611 230.601L615.613 230.6L615.497 230.437ZM615.321 230.654L615.137 230.576V230.576L615.321 230.654ZM615.286 230.931L615.484 230.906L615.483 230.901L615.286 230.931ZM615.702 231.173C615.644 231.153 615.593 231.118 615.555 231.07L615.245 231.323C615.33 231.428 615.443 231.507 615.571 231.551L615.702 231.173ZM620.95 236.02C620.761 234.628 619.957 233.601 618.954 232.834C617.953 232.069 616.741 231.551 615.705 231.174L615.568 231.55C616.593 231.923 617.759 232.424 618.711 233.152C619.66 233.877 620.383 234.818 620.554 236.074L620.95 236.02ZM619.685 236.247H620.752V235.847H619.685V236.247ZM615.209 232.541C617.935 233.533 619.229 234.655 619.488 236.083L619.881 236.011C619.581 234.355 618.091 233.164 615.346 232.165L615.209 232.541ZM614.427 231.984C614.632 232.238 614.903 232.43 615.21 232.541L615.346 232.165C615.107 232.079 614.897 231.929 614.738 231.732L614.427 231.984ZM614.045 231.102C614.089 231.425 614.221 231.73 614.427 231.984L614.738 231.732C614.578 231.535 614.476 231.298 614.441 231.047L614.045 231.102ZM614.172 230.159C614.045 230.456 614.001 230.782 614.045 231.102L614.441 231.047C614.407 230.799 614.441 230.547 614.54 230.317L614.172 230.159ZM614.77 229.417C614.507 229.605 614.3 229.862 614.172 230.159L614.54 230.317C614.639 230.087 614.799 229.888 615.002 229.743L614.77 229.417ZM615.846 227.163C615.846 227.258 615.817 227.423 615.754 227.636C615.693 227.844 615.605 228.084 615.5 228.322C615.394 228.56 615.272 228.792 615.143 228.988C615.013 229.187 614.884 229.335 614.769 229.418L615.002 229.743C615.176 229.618 615.337 229.423 615.478 229.208C615.621 228.989 615.753 228.737 615.865 228.484C615.978 228.232 616.072 227.975 616.138 227.748C616.203 227.526 616.246 227.316 616.246 227.163H615.846ZM615.846 225.735V227.163H616.246V225.735H615.846ZM615.032 223.596C615.568 224.177 615.86 224.942 615.846 225.732L616.246 225.738C616.261 224.845 615.932 223.981 615.326 223.325L615.032 223.596ZM612.968 222.616C613.756 222.665 614.496 223.016 615.032 223.596L615.326 223.325C614.719 222.669 613.884 222.272 612.992 222.217L612.968 222.616ZM611.811 222.815C612.182 222.671 612.577 222.604 612.974 222.616L612.986 222.216C612.536 222.202 612.087 222.279 611.667 222.442L611.811 222.815ZM610.818 223.451C611.103 223.175 611.441 222.958 611.811 222.815L611.667 222.442C611.246 222.605 610.863 222.85 610.54 223.164L610.818 223.451ZM610.152 224.424C610.306 224.059 610.533 223.728 610.818 223.451L610.54 223.164C610.216 223.478 609.959 223.853 609.783 224.269L610.152 224.424ZM609.918 225.58C609.917 225.183 609.997 224.79 610.152 224.424L609.783 224.269C609.608 224.684 609.517 225.13 609.518 225.581L609.918 225.58ZM609.918 227.163V225.58H609.518V227.163H609.918ZM610.995 229.418C610.88 229.336 610.751 229.187 610.62 228.988C610.492 228.792 610.37 228.56 610.264 228.322C610.159 228.084 610.071 227.844 610.01 227.636C609.947 227.423 609.918 227.258 609.918 227.163H609.518C609.518 227.316 609.561 227.526 609.626 227.748C609.692 227.975 609.786 228.232 609.899 228.484C610.011 228.737 610.143 228.989 610.286 229.208C610.427 229.423 610.588 229.619 610.761 229.743L610.995 229.418ZM611.592 230.159C611.464 229.862 611.257 229.606 610.994 229.418L610.762 229.743C610.966 229.889 611.126 230.087 611.225 230.317L611.592 230.159ZM611.72 231.103C611.765 230.782 611.72 230.456 611.592 230.159L611.225 230.317C611.324 230.547 611.358 230.8 611.324 231.048L611.72 231.103ZM611.339 231.984C611.544 231.731 611.676 231.426 611.721 231.102L611.324 231.048C611.29 231.299 611.187 231.536 611.028 231.733L611.339 231.984ZM610.556 232.542C610.863 232.431 611.133 232.238 611.339 231.984L611.028 231.733C610.868 231.93 610.658 232.079 610.42 232.165L610.556 232.542ZM606.276 236.083C606.535 234.655 607.826 233.533 610.556 232.542L610.419 232.166C607.671 233.164 606.183 234.355 605.882 236.011L606.276 236.083ZM605.012 236.247H606.079V235.847H605.012V236.247ZM610.057 231.174C609.022 231.551 607.81 232.069 606.81 232.834C605.807 233.601 605.003 234.628 604.814 236.02L605.21 236.074C605.381 234.818 606.104 233.877 607.053 233.152C608.004 232.424 609.169 231.923 610.194 231.55L610.057 231.174ZM610.207 231.07C610.168 231.118 610.118 231.153 610.06 231.173L610.191 231.551C610.319 231.507 610.432 231.428 610.517 231.323L610.207 231.07ZM610.278 230.906C610.27 230.966 610.245 231.023 610.207 231.07L610.517 231.323C610.603 231.218 610.657 231.091 610.674 230.957L610.278 230.906ZM610.257 230.733C610.28 230.785 610.287 230.844 610.278 230.901L610.674 230.962C610.694 230.831 610.677 230.697 610.625 230.575L610.257 230.733ZM610.15 230.601C610.198 230.634 610.235 230.68 610.257 230.733L610.625 230.575C610.573 230.454 610.488 230.349 610.38 230.273L610.15 230.601ZM608.463 227.163C608.463 227.614 608.66 228.308 608.956 228.956C609.252 229.604 609.671 230.257 610.148 230.6L610.382 230.275C609.99 229.994 609.607 229.419 609.32 228.79C609.033 228.162 608.863 227.53 608.863 227.163H608.463ZM608.463 225.58V227.163H608.863V225.58H608.463ZM608.812 223.857C608.581 224.403 608.463 224.989 608.463 225.581L608.863 225.58C608.863 225.042 608.971 224.509 609.18 224.013L608.812 223.857ZM609.805 222.407C609.38 222.819 609.042 223.312 608.812 223.857L609.18 224.013C609.39 223.517 609.697 223.069 610.083 222.694L609.805 222.407ZM611.285 221.458C610.733 221.672 610.23 221.995 609.805 222.407L610.083 222.694C610.47 222.319 610.928 222.026 611.43 221.831L611.285 221.458ZM613.018 221.161C612.426 221.143 611.837 221.244 611.285 221.458L611.43 221.831C611.932 221.636 612.467 221.545 613.006 221.561L613.018 221.161ZM616.08 222.591C615.283 221.739 614.188 221.227 613.023 221.162L613.001 221.561C614.063 221.62 615.061 222.087 615.788 222.864L616.08 222.591ZM617.301 225.737C617.314 224.57 616.877 223.444 616.08 222.591L615.788 222.864C616.514 223.641 616.913 224.669 616.901 225.733L617.301 225.737ZM617.301 227.163V225.735H616.901V227.163H617.301ZM615.613 230.6C616.092 230.257 616.511 229.604 616.807 228.956C617.104 228.308 617.301 227.614 617.301 227.163H616.901C616.901 227.53 616.731 228.162 616.444 228.79C616.156 229.418 615.773 229.993 615.38 230.274L615.613 230.6ZM615.505 230.733C615.527 230.68 615.564 230.634 615.611 230.601L615.382 230.273C615.274 230.349 615.189 230.454 615.137 230.576L615.505 230.733ZM615.483 230.901C615.475 230.844 615.482 230.786 615.505 230.733L615.137 230.576C615.085 230.697 615.068 230.831 615.088 230.962L615.483 230.901ZM615.555 231.07C615.516 231.023 615.492 230.966 615.484 230.906L615.087 230.957C615.105 231.091 615.159 231.218 615.245 231.323L615.555 231.07Z" fill="#C8D0DB" mask="url(#path-11-outside-1_3699_12295)"/>
<path d="M605.543 236.172C610.88 239.538 614.216 239.538 620.22 236.172" stroke="#C8D0DB" stroke-linecap="round"/>
<path fill-rule="evenodd" clip-rule="evenodd" d="M623.462 233.141C623.077 233.141 622.842 232.711 623.025 232.372C623.849 230.849 624.316 229.105 624.316 227.252C624.316 221.299 619.49 216.473 613.537 216.473C607.584 216.473 602.758 221.299 602.758 227.252C602.758 229.105 603.225 230.849 604.049 232.372C604.232 232.711 603.997 233.141 603.612 233.141C603.44 233.141 603.279 233.049 603.196 232.897C602.279 231.221 601.758 229.297 601.758 227.252C601.758 220.746 607.032 215.473 613.537 215.473C620.043 215.473 625.316 220.746 625.316 227.252C625.316 229.297 624.795 231.221 623.878 232.897C623.795 233.049 623.635 233.141 623.462 233.141Z" fill="#C8D0DB"/>
<mask id="path-15-outside-2_3699_12295" maskUnits="userSpaceOnUse" x="624.93" y="240.977" width="17" height="16" fill="black">
<rect fill="white" x="624.93" y="240.977" width="17" height="16"/>
<path fill-rule="evenodd" clip-rule="evenodd" d="M636.318 251.814C636.38 251.89 636.462 251.947 636.554 251.979C638.616 252.729 641.31 254.016 641.67 256.664H640.603C640.323 255.123 638.931 253.966 636.196 252.97C635.923 252.872 635.683 252.701 635.5 252.475C635.318 252.25 635.201 251.979 635.161 251.692C635.122 251.408 635.161 251.118 635.274 250.855C635.387 250.591 635.571 250.364 635.804 250.197C636.381 249.784 636.964 248.278 636.964 247.78V246.352C636.978 245.511 636.668 244.696 636.097 244.078C635.525 243.46 634.738 243.086 633.898 243.033C633.474 243.02 633.052 243.092 632.657 243.245C632.262 243.399 631.901 243.63 631.597 243.925C631.293 244.22 631.051 244.573 630.886 244.964C630.72 245.354 630.635 245.774 630.636 246.198V247.78C630.636 248.278 631.219 249.784 631.796 250.198C632.029 250.364 632.213 250.592 632.327 250.855C632.44 251.119 632.48 251.408 632.44 251.692C632.401 251.98 632.284 252.251 632.101 252.476C631.919 252.701 631.678 252.872 631.406 252.971C628.666 253.966 627.277 255.123 626.997 256.664H625.93C626.29 254.016 628.984 252.729 631.043 251.979C631.136 251.947 631.218 251.89 631.28 251.814C631.342 251.738 631.381 251.646 631.394 251.548C631.409 251.455 631.396 251.359 631.359 251.271C631.322 251.184 631.261 251.109 631.183 251.054C630.314 250.43 629.581 248.599 629.581 247.78V246.198C629.581 245.632 629.694 245.073 629.914 244.553C630.134 244.032 630.456 243.561 630.862 243.167C631.268 242.774 631.748 242.466 632.275 242.262C632.802 242.057 633.365 241.961 633.93 241.979C635.043 242.041 636.09 242.53 636.852 243.345C637.613 244.16 638.032 245.237 638.019 246.352V247.78C638.019 248.599 637.286 250.43 636.415 251.054C636.337 251.109 636.276 251.184 636.239 251.271C636.201 251.359 636.189 251.455 636.204 251.548C636.216 251.646 636.256 251.738 636.318 251.814Z"/>
</mask>
<path fill-rule="evenodd" clip-rule="evenodd" d="M636.318 251.814C636.38 251.89 636.462 251.947 636.554 251.979C638.616 252.729 641.31 254.016 641.67 256.664H640.603C640.323 255.123 638.931 253.966 636.196 252.97C635.923 252.872 635.683 252.701 635.5 252.475C635.318 252.25 635.201 251.979 635.161 251.692C635.122 251.408 635.161 251.118 635.274 250.855C635.387 250.591 635.571 250.364 635.804 250.197C636.381 249.784 636.964 248.278 636.964 247.78V246.352C636.978 245.511 636.668 244.696 636.097 244.078C635.525 243.46 634.738 243.086 633.898 243.033C633.474 243.02 633.052 243.092 632.657 243.245C632.262 243.399 631.901 243.63 631.597 243.925C631.293 244.22 631.051 244.573 630.886 244.964C630.72 245.354 630.635 245.774 630.636 246.198V247.78C630.636 248.278 631.219 249.784 631.796 250.198C632.029 250.364 632.213 250.592 632.327 250.855C632.44 251.119 632.48 251.408 632.44 251.692C632.401 251.98 632.284 252.251 632.101 252.476C631.919 252.701 631.678 252.872 631.406 252.971C628.666 253.966 627.277 255.123 626.997 256.664H625.93C626.29 254.016 628.984 252.729 631.043 251.979C631.136 251.947 631.218 251.89 631.28 251.814C631.342 251.738 631.381 251.646 631.394 251.548C631.409 251.455 631.396 251.359 631.359 251.271C631.322 251.184 631.261 251.109 631.183 251.054C630.314 250.43 629.581 248.599 629.581 247.78V246.198C629.581 245.632 629.694 245.073 629.914 244.553C630.134 244.032 630.456 243.561 630.862 243.167C631.268 242.774 631.748 242.466 632.275 242.262C632.802 242.057 633.365 241.961 633.93 241.979C635.043 242.041 636.09 242.53 636.852 243.345C637.613 244.16 638.032 245.237 638.019 246.352V247.78C638.019 248.599 637.286 250.43 636.415 251.054C636.337 251.109 636.276 251.184 636.239 251.271C636.201 251.359 636.189 251.455 636.204 251.548C636.216 251.646 636.256 251.738 636.318 251.814Z" fill="#C8D0DB"/>
<path d="M636.554 251.979L636.623 251.791L636.62 251.79L636.554 251.979ZM636.318 251.814L636.473 251.688L636.473 251.688L636.318 251.814ZM641.67 256.664V256.864H641.899L641.868 256.637L641.67 256.664ZM640.603 256.664L640.406 256.7L640.436 256.864H640.603V256.664ZM636.196 252.97L636.264 252.782L636.264 252.782L636.196 252.97ZM635.5 252.475L635.345 252.601L635.5 252.475ZM635.161 251.692L635.359 251.665L635.359 251.664L635.161 251.692ZM635.274 250.855L635.458 250.934L635.274 250.855ZM635.804 250.197L635.92 250.36L635.92 250.36L635.804 250.197ZM636.964 246.352L636.764 246.349V246.352H636.964ZM636.097 244.078L635.95 244.214L636.097 244.078ZM633.898 243.033L633.91 242.834L633.904 242.833L633.898 243.033ZM632.657 243.245L632.585 243.059V243.059L632.657 243.245ZM631.597 243.925L631.736 244.068L631.736 244.068L631.597 243.925ZM630.636 246.198H630.836L630.836 246.198L630.636 246.198ZM631.796 250.198L631.679 250.36L631.68 250.361L631.796 250.198ZM632.327 250.855L632.51 250.776L632.327 250.855ZM632.44 251.692L632.242 251.665L632.242 251.665L632.44 251.692ZM632.101 252.476L632.257 252.602L632.101 252.476ZM631.406 252.971L631.338 252.783L631.337 252.783L631.406 252.971ZM626.997 256.664V256.864H627.164L627.194 256.7L626.997 256.664ZM625.93 256.664L625.732 256.637L625.701 256.864H625.93V256.664ZM631.043 251.979L630.978 251.79L630.975 251.791L631.043 251.979ZM631.28 251.814L631.125 251.688L631.125 251.688L631.28 251.814ZM631.394 251.548L631.196 251.518L631.196 251.523L631.394 251.548ZM631.359 251.271L631.543 251.193L631.543 251.193L631.359 251.271ZM631.183 251.054L631.066 251.217L631.068 251.218L631.183 251.054ZM629.581 246.198H629.781V246.198L629.581 246.198ZM630.862 243.167L631.001 243.311L630.862 243.167ZM632.275 242.262L632.203 242.075V242.075L632.275 242.262ZM633.93 241.979L633.941 241.779L633.936 241.779L633.93 241.979ZM636.852 243.345L636.998 243.208V243.208L636.852 243.345ZM638.019 246.352L637.819 246.35V246.352H638.019ZM636.415 251.054L636.529 251.218L636.531 251.217L636.415 251.054ZM636.239 251.271L636.055 251.193V251.193L636.239 251.271ZM636.204 251.548L636.402 251.523L636.401 251.518L636.204 251.548ZM636.62 251.79C636.562 251.77 636.511 251.735 636.473 251.688L636.163 251.94C636.248 252.045 636.361 252.124 636.489 252.168L636.62 251.79ZM641.868 256.637C641.679 255.245 640.875 254.218 639.872 253.451C638.871 252.686 637.659 252.168 636.623 251.791L636.486 252.167C637.511 252.54 638.677 253.041 639.629 253.769C640.578 254.494 641.301 255.435 641.472 256.691L641.868 256.637ZM640.603 256.864H641.67V256.464H640.603V256.864ZM636.127 253.158C638.853 254.15 640.147 255.273 640.406 256.7L640.799 256.628C640.499 254.973 639.009 253.781 636.264 252.782L636.127 253.158ZM635.345 252.601C635.55 252.855 635.821 253.048 636.128 253.158L636.264 252.782C636.025 252.696 635.815 252.546 635.656 252.349L635.345 252.601ZM634.963 251.719C635.007 252.042 635.139 252.347 635.345 252.601L635.656 252.349C635.496 252.153 635.394 251.916 635.359 251.665L634.963 251.719ZM635.09 250.776C634.963 251.073 634.919 251.399 634.963 251.719L635.359 251.664C635.325 251.416 635.359 251.164 635.458 250.934L635.09 250.776ZM635.688 250.035C635.425 250.223 635.218 250.479 635.09 250.776L635.458 250.934C635.557 250.704 635.717 250.506 635.92 250.36L635.688 250.035ZM636.764 247.78C636.764 247.875 636.734 248.04 636.672 248.253C636.611 248.462 636.523 248.701 636.418 248.939C636.312 249.177 636.19 249.41 636.061 249.605C635.931 249.804 635.802 249.952 635.687 250.035L635.92 250.36C636.094 250.235 636.255 250.04 636.396 249.825C636.539 249.606 636.671 249.354 636.783 249.101C636.895 248.849 636.99 248.592 637.056 248.366C637.121 248.143 637.164 247.934 637.164 247.78H636.764ZM636.764 246.352V247.78H637.164V246.352H636.764ZM635.95 244.214C636.486 244.794 636.778 245.559 636.764 246.349L637.164 246.356C637.179 245.463 636.85 244.598 636.243 243.942L635.95 244.214ZM633.886 243.233C634.674 243.282 635.413 243.633 635.95 244.214L636.243 243.942C635.637 243.286 634.802 242.889 633.91 242.834L633.886 243.233ZM632.729 243.432C633.1 243.288 633.495 243.221 633.892 243.233L633.904 242.833C633.454 242.819 633.005 242.896 632.585 243.059L632.729 243.432ZM631.736 244.068C632.021 243.792 632.359 243.575 632.729 243.432L632.585 243.059C632.164 243.222 631.781 243.467 631.458 243.781L631.736 244.068ZM631.07 245.041C631.224 244.676 631.451 244.345 631.736 244.068L631.458 243.781C631.134 244.095 630.877 244.471 630.701 244.886L631.07 245.041ZM630.836 246.198C630.835 245.8 630.915 245.407 631.07 245.041L630.701 244.886C630.526 245.301 630.435 245.747 630.436 246.198L630.836 246.198ZM630.836 247.78V246.198H630.436V247.78H630.836ZM631.912 250.035C631.797 249.953 631.669 249.805 631.538 249.606C631.41 249.41 631.288 249.177 631.182 248.939C631.076 248.701 630.989 248.462 630.928 248.253C630.865 248.04 630.836 247.875 630.836 247.78H630.436C630.436 247.934 630.479 248.143 630.544 248.366C630.61 248.592 630.704 248.849 630.817 249.101C630.929 249.354 631.061 249.607 631.204 249.825C631.345 250.04 631.506 250.236 631.679 250.36L631.912 250.035ZM632.51 250.776C632.382 250.479 632.175 250.223 631.912 250.035L631.68 250.361C631.884 250.506 632.044 250.704 632.143 250.934L632.51 250.776ZM632.638 251.72C632.683 251.399 632.638 251.073 632.51 250.776L632.143 250.934C632.242 251.164 632.276 251.417 632.242 251.665L632.638 251.72ZM632.257 252.602C632.462 252.348 632.594 252.043 632.638 251.72L632.242 251.665C632.208 251.916 632.105 252.153 631.946 252.35L632.257 252.602ZM631.474 253.159C631.781 253.048 632.051 252.855 632.257 252.602L631.946 252.35C631.786 252.547 631.576 252.697 631.338 252.783L631.474 253.159ZM627.194 256.7C627.453 255.273 628.744 254.15 631.474 253.159L631.337 252.783C628.588 253.781 627.101 254.973 626.8 256.628L627.194 256.7ZM625.93 256.864H626.997V256.464H625.93V256.864ZM630.975 251.791C629.94 252.168 628.728 252.686 627.728 253.451C626.725 254.218 625.921 255.245 625.732 256.637L626.128 256.691C626.299 255.435 627.022 254.494 627.971 253.769C628.922 253.041 630.087 252.54 631.112 252.167L630.975 251.791ZM631.125 251.688C631.086 251.735 631.036 251.77 630.978 251.79L631.109 252.168C631.237 252.124 631.35 252.045 631.435 251.94L631.125 251.688ZM631.196 251.523C631.188 251.583 631.163 251.64 631.125 251.688L631.435 251.94C631.521 251.835 631.575 251.708 631.592 251.574L631.196 251.523ZM631.175 251.35C631.198 251.403 631.205 251.461 631.196 251.518L631.592 251.579C631.612 251.448 631.595 251.314 631.543 251.193L631.175 251.35ZM631.068 251.218C631.116 251.251 631.153 251.297 631.175 251.35L631.543 251.193C631.491 251.071 631.406 250.966 631.298 250.89L631.068 251.218ZM629.381 247.78C629.381 248.232 629.578 248.925 629.874 249.574C630.17 250.221 630.589 250.874 631.066 251.217L631.3 250.892C630.908 250.611 630.525 250.036 630.238 249.407C629.951 248.779 629.781 248.147 629.781 247.78H629.381ZM629.381 246.198V247.78H629.781V246.198H629.381ZM629.73 244.475C629.499 245.02 629.381 245.606 629.381 246.198L629.781 246.198C629.781 245.659 629.889 245.126 630.098 244.63L629.73 244.475ZM630.723 243.024C630.298 243.436 629.96 243.929 629.73 244.475L630.098 244.63C630.308 244.135 630.615 243.686 631.001 243.311L630.723 243.024ZM632.203 242.075C631.651 242.289 631.148 242.612 630.723 243.024L631.001 243.311C631.388 242.936 631.846 242.643 632.348 242.448L632.203 242.075ZM633.936 241.779C633.344 241.76 632.755 241.861 632.203 242.075L632.348 242.448C632.849 242.254 633.385 242.162 633.924 242.178L633.936 241.779ZM636.998 243.208C636.201 242.356 635.106 241.844 633.941 241.779L633.918 242.178C634.981 242.238 635.979 242.704 636.706 243.482L636.998 243.208ZM638.219 246.354C638.232 245.188 637.795 244.061 636.998 243.208L636.706 243.482C637.432 244.259 637.831 245.286 637.819 246.35L638.219 246.354ZM638.219 247.78V246.352H637.819V247.78H638.219ZM636.531 251.217C637.01 250.874 637.429 250.221 637.725 249.574C638.022 248.925 638.219 248.232 638.219 247.78H637.819C637.819 248.147 637.649 248.779 637.362 249.407C637.074 250.036 636.691 250.611 636.298 250.892L636.531 251.217ZM636.423 251.35C636.445 251.297 636.482 251.251 636.529 251.218L636.3 250.89C636.192 250.966 636.107 251.071 636.055 251.193L636.423 251.35ZM636.401 251.518C636.393 251.461 636.4 251.403 636.423 251.35L636.055 251.193C636.003 251.314 635.986 251.448 636.006 251.579L636.401 251.518ZM636.473 251.688C636.434 251.64 636.41 251.583 636.402 251.523L636.005 251.574C636.023 251.708 636.077 251.835 636.163 251.94L636.473 251.688Z" fill="#C8D0DB" mask="url(#path-15-outside-2_3699_12295)"/>
<path d="M626.461 256.789C631.798 260.155 635.134 260.155 641.138 256.789" stroke="#C8D0DB" stroke-linecap="round"/>
<path fill-rule="evenodd" clip-rule="evenodd" d="M644.384 253.754C643.999 253.754 643.764 253.324 643.947 252.986C644.771 251.462 645.238 249.718 645.238 247.865C645.238 241.912 640.412 237.086 634.459 237.086C628.506 237.086 623.68 241.912 623.68 247.865C623.68 249.718 624.147 251.462 624.971 252.986C625.154 253.324 624.919 253.754 624.534 253.754C624.361 253.754 624.201 253.662 624.118 253.511C623.201 251.834 622.68 249.911 622.68 247.865C622.68 241.36 627.953 236.086 634.459 236.086C640.964 236.086 646.238 241.36 646.238 247.865C646.238 249.911 645.717 251.834 644.8 253.511C644.717 253.662 644.556 253.754 644.384 253.754Z" fill="#C8D0DB"/>
<path d="M610.119 247.134L610.119 247.134L608.347 241.344L610.119 247.134ZM610.119 247.134C610.248 247.555 610.694 247.793 611.115 247.664L610.119 247.134ZM608.876 240.347L608.876 240.347C609.298 240.218 609.744 240.455 609.873 240.877L609.873 240.877L611.645 246.667C611.756 247.03 611.596 247.411 611.28 247.592L608.876 240.347ZM608.876 240.347C608.455 240.476 608.218 240.922 608.347 241.344L608.876 240.347Z" fill="#C8D0DB" stroke="#C8D0DB" stroke-width="0.2"/>
<path d="M605.074 245.907L605.074 245.907C604.759 246.088 604.349 246.035 604.091 245.757L604.091 245.757C603.792 245.433 603.811 244.928 604.135 244.629M605.074 245.907L609.651 241.696C609.975 241.397 609.994 240.892 609.695 240.569L609.695 240.569C609.395 240.245 608.89 240.226 608.567 240.525L608.567 240.525L604.135 244.629M605.074 245.907C605.126 245.877 605.175 245.841 605.219 245.8C605.219 245.8 605.219 245.8 605.219 245.8L609.651 241.696L605.074 245.907ZM604.135 244.629L604.203 244.702M604.135 244.629L604.135 244.629L604.203 244.702M604.203 244.702C603.92 244.964 603.903 245.406 604.165 245.689L604.203 244.702Z" fill="#C8D0DB" stroke="#C8D0DB" stroke-width="0.2"/>
<path d="M606.981 245.95L606.98 245.95C606.318 248.449 606.662 251.059 607.95 253.301C610.623 257.955 616.574 259.572 621.216 256.906C621.598 256.687 621.73 256.199 621.511 255.817C621.291 255.434 620.803 255.302 620.421 255.522C616.543 257.75 611.569 256.397 609.334 252.506C608.257 250.631 607.969 248.449 608.523 246.362L609.816 241.553L609.816 241.553C609.93 241.127 609.678 240.689 609.252 240.575C608.827 240.46 608.389 240.712 608.274 241.138L608.274 241.138L606.981 245.95Z" fill="#C8D0DB" stroke="#C8D0DB" stroke-width="0.2"/>
<path d="M636.777 228.055L636.777 228.055L639.19 233.609L636.777 228.055ZM636.777 228.055C636.601 227.651 636.131 227.466 635.727 227.642L636.777 228.055ZM638.776 234.659L638.776 234.659C638.372 234.835 637.902 234.65 637.726 234.245L637.726 234.245L635.313 228.692C635.161 228.344 635.278 227.947 635.571 227.731L638.776 234.659ZM638.776 234.659C639.18 234.483 639.366 234.013 639.19 233.609L638.776 234.659Z" fill="#C8D0DB" stroke="#C8D0DB" stroke-width="0.2"/>
<path d="M641.926 228.706L641.926 228.706C641.878 228.742 641.833 228.783 641.794 228.828L637.853 233.405C637.853 233.405 637.853 233.405 637.853 233.405C637.565 233.739 637.603 234.243 637.937 234.531L637.937 234.531C638.271 234.819 638.775 234.781 639.062 234.447L639.062 234.447L643.004 229.87C643.004 229.87 643.004 229.87 643.004 229.87C643.291 229.536 643.254 229.032 642.92 228.744L642.92 228.744C642.632 228.497 642.219 228.49 641.926 228.706Z" fill="#C8D0DB" stroke="#C8D0DB" stroke-width="0.2"/>
<path d="M640.021 228.877L640.021 228.877C640.397 226.32 639.761 223.764 638.229 221.682C635.048 217.359 628.953 216.423 624.64 219.596C624.285 219.857 624.209 220.357 624.47 220.712C624.732 221.067 625.231 221.143 625.586 220.881C629.189 218.231 634.284 219.014 636.943 222.628C638.224 224.369 638.756 226.506 638.442 228.642L637.699 233.566L637.699 233.566C637.633 234.002 637.933 234.409 638.369 234.474C638.805 234.54 639.212 234.24 639.278 233.804L639.278 233.804L640.021 228.877Z" fill="#C8D0DB" stroke="#C8D0DB" stroke-width="0.2"/>
<rect x="288.5" y="0.5" width="95" height="95" rx="7.5" stroke="#C8D0DB"/>
<rect x="319.254" y="38.4688" width="31.3438" height="24.875" rx="1.5" stroke="#C8D0DB"/>
<path d="M328.102 38.6875L339.135 31.7914C339.385 31.6352 339.716 31.7281 339.847 31.9918L341.039 34.375" stroke="#C8D0DB"/>
<path d="M332.414 38.6875L344.142 33.1684C344.406 33.044 344.721 33.1717 344.823 33.4452L346.789 38.6875" stroke="#C8D0DB"/>
<mask id="path-29-inside-3_3699_12295" fill="white">
<path d="M338.883 48.5938C338.883 47.4892 339.778 46.5938 340.883 46.5938H352.758C353.034 46.5938 353.258 46.8176 353.258 47.0938V54.7188C353.258 54.9949 353.034 55.2188 352.758 55.2188H340.883C339.778 55.2188 338.883 54.3233 338.883 53.2188V48.5938Z"/>
</mask>
<path d="M338.883 48.5938C338.883 47.4892 339.778 46.5938 340.883 46.5938H352.758C353.034 46.5938 353.258 46.8176 353.258 47.0938V54.7188C353.258 54.9949 353.034 55.2188 352.758 55.2188H340.883C339.778 55.2188 338.883 54.3233 338.883 53.2188V48.5938Z" stroke="#C8D0DB" stroke-width="2" mask="url(#path-29-inside-3_3699_12295)"/>
<circle cx="343.547" cy="50.8359" r="1.44687" stroke="#C8D0DB" stroke-width="0.7"/>
<rect x="341.465" y="35.668" width="2.875" height="1.4375" rx="0.3" fill="#C8D0DB"/>
<path d="M350.375 44.4375H352.231C352.397 44.4375 352.531 44.5718 352.531 44.7375V47.3125" stroke="#C8D0DB"/>
<path d="M329.177 53.8267L329.337 53.1011L330.371 52.9481L330.18 53.8267H329.177Z" fill="#C8D0DB" stroke="#C8D0DB"/>
<path d="M334.706 53.8137L335.014 52.3093L336.024 52.1897L335.647 53.8137H334.706Z" fill="#C8D0DB" stroke="#C8D0DB"/>
<mask id="path-35-inside-4_3699_12295" fill="white">
<path d="M323.082 54.2532L325.265 53.5156L325.106 54.3146H323.082V54.2532Z"/>
</mask>
<path d="M323.082 54.2532L325.265 53.5156L325.106 54.3146H323.082V54.2532Z" fill="#C8D0DB"/>
<path d="M323.082 54.2532L322.762 53.3058L322.082 53.5355V54.2532H323.082ZM325.265 53.5156L326.246 53.7113L326.584 52.0144L324.945 52.5682L325.265 53.5156ZM325.106 54.3146V55.3146H325.926L326.086 54.5103L325.106 54.3146ZM323.082 54.3146H322.082V55.3146H323.082V54.3146ZM323.402 55.2006L325.585 54.463L324.945 52.5682L322.762 53.3058L323.402 55.2006ZM324.284 53.3199L324.125 54.1189L326.086 54.5103L326.246 53.7113L324.284 53.3199ZM325.106 53.3146H323.082V55.3146H325.106V53.3146ZM324.082 54.3146V54.2532H322.082V54.3146H324.082Z" fill="#C8D0DB" mask="url(#path-35-inside-4_3699_12295)"/>
<mask id="mask0_3699_12295" style="mask-type:luminance" maskUnits="userSpaceOnUse" x="323" y="45" width="15" height="10">
<path d="M336.664 51.633C335.959 51.7076 335.269 51.7858 334.594 51.8678L335.241 48.8251C335.31 48.5251 335.344 48.2539 335.344 48.0117C335.344 47.147 334.822 46.7147 333.776 46.7147H332.207L331.005 52.3598C330.278 52.4735 329.58 52.5928 328.911 52.7176L330.188 46.7147H327.222C326.867 46.7147 326.654 46.8875 326.585 47.2332L325.249 53.5521C324.426 53.784 323.696 54.0328 323.074 54.297L324.689 46.7147C324.803 46.1724 324.998 45.7768 325.274 45.528C325.55 45.2802 325.981 45.1562 326.567 45.1562H334.31C335.264 45.1562 336.026 45.3468 336.595 45.7279C337.165 46.1081 337.449 46.6965 337.449 47.4932C337.449 47.8277 337.426 48.0927 337.379 48.2884L336.664 51.633Z" fill="white"/>
<path d="M336.664 51.633C335.959 51.7076 335.269 51.7858 334.594 51.8678L335.241 48.8251C335.31 48.5251 335.344 48.2539 335.344 48.0117C335.344 47.147 334.822 46.7147 333.776 46.7147H332.207L331.005 52.3598C330.278 52.4735 329.58 52.5928 328.911 52.7176L330.188 46.7147H327.222C326.867 46.7147 326.654 46.8875 326.585 47.2332L325.249 53.5521C324.426 53.784 323.696 54.0328 323.074 54.297L324.689 46.7147C324.803 46.1724 324.998 45.7768 325.274 45.528C325.55 45.2802 325.981 45.1562 326.567 45.1562H334.31C335.264 45.1562 336.026 45.3468 336.595 45.7279C337.165 46.1081 337.449 46.6965 337.449 47.4932C337.449 47.8277 337.426 48.0927 337.379 48.2884L336.664 51.633Z" stroke="white"/>
</mask>
<g mask="url(#mask0_3699_12295)">
<path d="M383.903 60.486H320.98V42.9453H383.903V60.486Z" fill="#C8D0DB"/>
<path d="M383.903 60.486H320.98V42.9453H383.903V60.486Z" stroke="#C8D0DB"/>
</g>
<rect x="288.5" y="120.5" width="95" height="95" rx="7.5" stroke="#C8D0DB"/>
<path d="M323.478 171.094C323.911 171.094 324.261 171.444 324.261 171.876V182.833C324.261 183.265 323.911 183.615 323.478 183.615H318.783C318.35 183.615 318 183.265 318 182.833V171.876C318 171.444 318.35 171.094 318.783 171.094H323.478Z" stroke="#C8D0DB"/>
<path d="M324.262 181.368C340.697 186.846 335.218 186.846 354.001 177.455C352.92 175.999 351.044 175.373 349.305 175.89L342.55 178.03" stroke="#C8D0DB"/>
<path d="M324.262 172.656H328.957C332.64 172.656 335.218 175.787 336.001 175.787H341.479C343.044 175.787 343.044 178.917 341.479 178.917H332.87" stroke="#C8D0DB"/>
<path d="M345.155 160.916H343.612V159.434H345.155C345.386 159.434 345.574 159.246 345.574 159.014C345.574 158.782 345.386 158.595 345.155 158.595H343.612V156.537C343.612 156.237 343.553 156.017 343.436 155.882C343.324 155.755 343.178 155.695 342.976 155.695C342.783 155.695 342.642 155.754 342.533 155.881C342.417 156.016 342.359 156.236 342.359 156.538V158.595H339.457L338.223 156.728C338.123 156.57 338.023 156.412 337.922 156.255C337.835 156.12 337.75 156.011 337.67 155.929C337.6 155.856 337.519 155.8 337.425 155.757C337.336 155.716 337.222 155.695 337.088 155.695C336.918 155.695 336.763 155.742 336.614 155.838C336.467 155.933 336.366 156.051 336.304 156.198C336.249 156.337 336.22 156.551 336.22 156.827V158.595H334.693C334.461 158.595 334.273 158.783 334.273 159.014C334.273 159.246 334.461 159.434 334.693 159.434H336.22V160.917H334.693C334.461 160.917 334.273 161.105 334.273 161.336C334.273 161.568 334.461 161.756 334.693 161.756H336.22V164.105C336.22 164.396 336.282 164.614 336.403 164.753C336.518 164.885 336.664 164.946 336.863 164.946C337.055 164.946 337.2 164.885 337.32 164.752C337.443 164.617 337.506 164.399 337.506 164.105V161.756H340.131L341.552 163.935C341.652 164.08 341.753 164.224 341.855 164.367C341.947 164.495 342.047 164.607 342.152 164.702C342.248 164.787 342.35 164.849 342.456 164.887C342.565 164.927 342.692 164.947 342.834 164.947C343.218 164.947 343.612 164.829 343.612 163.957V161.756H345.155C345.386 161.756 345.574 161.568 345.574 161.336C345.574 161.104 345.386 160.916 345.155 160.916ZM342.359 159.434V160.916H340.991L340.012 159.434H342.359ZM337.506 157.73L338.069 158.595H337.506V157.73ZM337.506 160.916V159.434H338.617L339.584 160.916H337.506ZM342.359 162.986L341.546 161.756H342.359V162.986Z" fill="#C8D0DB"/>
<circle cx="339.915" cy="160.391" r="8.8913" stroke="#C8D0DB"/>
<rect x="288.5" y="240.5" width="95" height="95" rx="7.5" stroke="#C8D0DB"/>
<path fill-rule="evenodd" clip-rule="evenodd" d="M324.32 275H352C352.553 275 353 275.448 353 276V295.04C353 295.592 352.553 296.04 352 296.04H335.056C334.983 296.381 334.892 296.715 334.784 297.04H352C353.105 297.04 354 296.145 354 295.04V276C354 274.895 353.105 274 352 274H324.32C323.216 274 322.32 274.895 322.32 276V285.98C322.641 285.783 322.975 285.606 323.32 285.453V276C323.32 275.448 323.768 275 324.32 275Z" fill="#C8D0DB"/>
<rect x="326.641" y="278.32" width="17.28" height="1.44" rx="0.72" fill="#C8D0DB"/>
<rect x="326.641" y="281.199" width="17.28" height="1.44" rx="0.72" fill="#C8D0DB"/>
<circle cx="326.64" cy="294.16" r="8.14" stroke="#C8D0DB"/>
<mask id="path-50-inside-5_3699_12295" fill="white">
<path fill-rule="evenodd" clip-rule="evenodd" d="M325.019 292.071L326.492 290.408C327.042 289.788 327.99 289.73 328.61 290.28L330.174 291.665C330.794 292.215 330.851 293.163 330.302 293.783L328.909 295.355L329.673 296L331.05 294.446C331.966 293.412 331.87 291.832 330.837 290.917L329.273 289.531C328.239 288.616 326.659 288.711 325.744 289.744L324.254 291.425L325.019 292.071ZM324.005 293.215L323.24 292.57L322.008 293.961C321.092 294.995 321.188 296.575 322.221 297.49L323.785 298.876C324.818 299.792 326.398 299.696 327.314 298.663L328.659 297.145L327.895 296.499L326.565 297.999C326.016 298.619 325.068 298.677 324.448 298.127L322.884 296.742C322.264 296.193 322.207 295.245 322.756 294.624L324.005 293.215Z"/>
</mask>
<path d="M326.492 290.408L327.241 291.071L326.492 290.408ZM325.019 292.071L324.374 292.835L325.12 293.465L325.767 292.734L325.019 292.071ZM328.61 290.28L327.947 291.028H327.947L328.61 290.28ZM330.174 291.665L329.51 292.414L330.174 291.665ZM330.302 293.783L329.553 293.119L330.302 293.783ZM328.909 295.355L328.16 294.691L327.481 295.458L328.264 296.119L328.909 295.355ZM329.673 296L329.028 296.764L329.774 297.394L330.422 296.663L329.673 296ZM331.05 294.446L331.798 295.109L331.798 295.109L331.05 294.446ZM330.837 290.917L331.5 290.168L331.5 290.168L330.837 290.917ZM329.273 289.531L328.61 290.28L328.61 290.28L329.273 289.531ZM325.744 289.744L326.492 290.408V290.408L325.744 289.744ZM324.254 291.425L323.506 290.762L322.827 291.529L323.609 292.19L324.254 291.425ZM324.005 293.215L324.753 293.879L325.432 293.112L324.65 292.451L324.005 293.215ZM323.24 292.57L323.885 291.806L323.139 291.176L322.492 291.907L323.24 292.57ZM322.008 293.961L321.259 293.298H321.259L322.008 293.961ZM322.221 297.49L321.558 298.239H321.558L322.221 297.49ZM323.785 298.876L324.448 298.127H324.448L323.785 298.876ZM327.314 298.663L328.062 299.326L327.314 298.663ZM328.659 297.145L329.407 297.808L330.087 297.041L329.304 296.38L328.659 297.145ZM327.895 296.499L328.54 295.735L327.794 295.105L327.146 295.836L327.895 296.499ZM326.565 297.999L325.817 297.336H325.817L326.565 297.999ZM324.448 298.127L323.785 298.876H323.785L324.448 298.127ZM322.884 296.742L323.547 295.993L322.884 296.742ZM322.756 294.624L323.505 295.288L322.756 294.624ZM325.744 289.744L324.27 291.408L325.767 292.734L327.241 291.071L325.744 289.744ZM329.273 289.531C328.239 288.616 326.659 288.711 325.744 289.744L327.241 291.071C327.424 290.864 327.74 290.845 327.947 291.028L329.273 289.531ZM330.837 290.917L329.273 289.531L327.947 291.028L329.51 292.414L330.837 290.917ZM331.05 294.446C331.966 293.412 331.87 291.832 330.837 290.917L329.51 292.414C329.717 292.597 329.736 292.913 329.553 293.119L331.05 294.446ZM329.657 296.018L331.05 294.446L329.553 293.119L328.16 294.691L329.657 296.018ZM328.264 296.119L329.028 296.764L330.318 295.236L329.554 294.59L328.264 296.119ZM330.422 296.663L331.798 295.109L330.302 293.783L328.925 295.337L330.422 296.663ZM331.798 295.109C333.08 293.662 332.947 291.45 331.5 290.168L330.174 291.665C330.794 292.215 330.851 293.163 330.302 293.783L331.798 295.109ZM331.5 290.168L329.936 288.783L328.61 290.28L330.174 291.665L331.5 290.168ZM329.936 288.783C328.489 287.501 326.277 287.635 324.995 289.081L326.492 290.408C327.042 289.788 327.99 289.73 328.61 290.28L329.936 288.783ZM324.995 289.081L323.506 290.762L325.003 292.089L326.492 290.408L324.995 289.081ZM323.609 292.19L324.374 292.835L325.664 291.307L324.9 290.661L323.609 292.19ZM324.65 292.451L323.885 291.806L322.595 293.334L323.36 293.98L324.65 292.451ZM322.492 291.907L321.259 293.298L322.756 294.624L323.989 293.233L322.492 291.907ZM321.259 293.298C319.977 294.745 320.111 296.957 321.558 298.239L322.884 296.742C322.264 296.193 322.207 295.245 322.756 294.624L321.259 293.298ZM321.558 298.239L323.122 299.624L324.448 298.127L322.884 296.742L321.558 298.239ZM323.122 299.624C324.568 300.906 326.78 300.773 328.062 299.326L326.565 297.999C326.016 298.619 325.068 298.677 324.448 298.127L323.122 299.624ZM328.062 299.326L329.407 297.808L327.91 296.481L326.565 297.999L328.062 299.326ZM329.304 296.38L328.54 295.735L327.249 297.263L328.014 297.909L329.304 296.38ZM327.314 298.663L328.643 297.162L327.146 295.836L325.817 297.336L327.314 298.663ZM323.785 298.876C324.818 299.792 326.398 299.696 327.314 298.663L325.817 297.336C325.634 297.543 325.318 297.562 325.111 297.379L323.785 298.876ZM322.221 297.49L323.785 298.876L325.111 297.379L323.547 295.993L322.221 297.49ZM322.008 293.961C321.092 294.995 321.188 296.575 322.221 297.49L323.547 295.993C323.341 295.81 323.322 295.494 323.505 295.288L322.008 293.961ZM323.256 292.552L322.008 293.961L323.505 295.288L324.753 293.879L323.256 292.552Z" fill="#C8D0DB" mask="url(#path-50-inside-5_3699_12295)"/>
<rect x="328.035" y="291.863" width="1.32923" height="5.31692" rx="0.5" transform="rotate(43.9974 328.035 291.863)" fill="#C8D0DB"/>
<circle cx="343.202" cy="290.561" r="3.1" stroke="#C8D0DB"/>
<circle cx="346.08" cy="290.561" r="3.1" stroke="#C8D0DB"/>
<rect x="288.5" y="360.5" width="95" height="95" rx="7.5" stroke="#C8D0DB"/>
<path d="M319.281 423.747L320.248 420.957L320.944 419.628C320.997 419.526 321.147 419.457 321.316 419.457H335.679C335.848 419.457 337.498 419.463 337.498 419.463" stroke="#C8D0DB" stroke-linecap="round" stroke-linejoin="round"/>
<path fill-rule="evenodd" clip-rule="evenodd" d="M323.25 403.625H332.25V419.465H323.25V403.625Z" stroke="#C8D0DB" stroke-linecap="round" stroke-linejoin="round"/>
<path d="M341.25 423.781H318.75" stroke="#C8D0DB" stroke-linecap="round" stroke-linejoin="round"/>
<path d="M327.758 403.625V419.465" stroke="#C8D0DB" stroke-linecap="round" stroke-linejoin="round"/>
<path d="M332.258 403.625V419.465" stroke="#C8D0DB" stroke-linecap="round" stroke-linejoin="round"/>
<path d="M339.758 403.625V411.125" stroke="#C8D0DB" stroke-linecap="round" stroke-linejoin="round"/>
<path d="M344.258 403.625V408.75" stroke="#C8D0DB" stroke-linecap="round" stroke-linejoin="round"/>
<path d="M348 404.559V409.809" stroke="#C8D0DB" stroke-linecap="round" stroke-linejoin="round"/>
<path fill-rule="evenodd" clip-rule="evenodd" d="M351.559 399.864C351.672 399.538 351.53 399.181 351.22 399.011L336.376 390.862C336.144 390.733 335.858 390.733 335.626 390.862L320.776 399.005C320.466 399.176 320.324 399.532 320.437 399.858L321.583 403.131C321.685 403.425 321.971 403.623 322.294 403.623H349.714C350.037 403.623 350.323 403.425 350.425 403.131L351.559 399.864Z" stroke="#C8D0DB" stroke-linecap="round" stroke-linejoin="round"/>
<path d="M351.499 399.305H320.492" stroke="#C8D0DB" stroke-linecap="round" stroke-linejoin="round"/>
<path fill-rule="evenodd" clip-rule="evenodd" d="M346.445 416.734L346.48 416.769C346.788 417.077 347.287 417.077 347.594 416.769L349.156 415.207C349.615 414.745 349.615 413.999 349.156 413.537L348.463 412.845C348.001 412.385 347.255 412.385 346.793 412.845L345.231 414.406C344.923 414.713 344.923 415.212 345.231 415.519L345.266 415.554L346.445 416.734Z" stroke="#C8D0DB" stroke-linecap="round" stroke-linejoin="round"/>
<path fill-rule="evenodd" clip-rule="evenodd" d="M343.555 417.266L343.52 417.231C343.213 416.923 342.714 416.923 342.406 417.231L340.845 418.793C340.385 419.255 340.385 420.001 340.845 420.463L341.537 421.155C341.999 421.615 342.746 421.615 343.208 421.155L344.769 419.594C344.917 419.447 345 419.246 345 419.037C345 418.829 344.917 418.628 344.769 418.481L344.734 418.446L343.555 417.266Z" stroke="#C8D0DB" stroke-linecap="round" stroke-linejoin="round"/>
<path d="M343.5 418.5L346.5 415.5" stroke="#C8D0DB" stroke-linecap="round" stroke-linejoin="round"/>
<path fill-rule="evenodd" clip-rule="evenodd" d="M337.5 417C337.5 412.858 340.858 409.5 345 409.5C349.142 409.5 352.5 412.858 352.5 417C352.5 421.142 349.142 424.5 345 424.5C340.858 424.5 337.5 421.142 337.5 417Z" stroke="#C8D0DB" stroke-linecap="round" stroke-linejoin="round"/>
<rect x="0.5" y="190.5" width="95" height="95" rx="7.5" stroke="#C8D0DB"/>
<path fill-rule="evenodd" clip-rule="evenodd" d="M48.083 222.642C45.4707 222.642 43.3529 224.76 43.3529 227.372C43.3529 229.984 45.4707 232.102 48.083 232.102C50.6953 232.102 52.813 229.984 52.813 227.372C52.813 224.76 50.6953 222.642 48.083 222.642ZM41.4609 227.372C41.4609 223.715 44.4258 220.75 48.083 220.75C51.7403 220.75 54.705 223.715 54.705 227.372C54.705 231.029 51.7403 233.994 48.083 233.994C44.4258 233.994 41.4609 231.029 41.4609 227.372Z" fill="#C8D0DB"/>
<path fill-rule="evenodd" clip-rule="evenodd" d="M43.3796 234.859C42.8571 234.859 42.4336 235.283 42.4336 235.805C42.4336 236.328 42.8571 236.751 43.3796 236.751H50.2598C55.1885 236.751 59.4414 240.209 60.447 245.034L60.8744 247.086C61.4866 250.023 59.2444 252.781 56.2439 252.781H42.9954V254.673H56.2439C60.4445 254.673 63.5837 250.812 62.7267 246.7L62.2991 244.648C61.1107 238.946 56.0848 234.859 50.2598 234.859H43.3796Z" fill="#C8D0DB"/>
<path d="M36.7452 240.109C31.1244 250.726 36.7452 253.849 41.3604 253.731" stroke="#C8D0DB" stroke-width="1.5"/>
<path d="M36.7461 240.108L37.3706 238.859" stroke="#C8D0DB" stroke-width="1.5"/>
<path d="M34.5676 236.384L40.7281 236.313L40.2176 241.885L34.5676 236.384Z" fill="#C8D0DB" stroke="#C8D0DB"/>
<rect x="144.5" y="190.5" width="95" height="95" rx="7.5" stroke="#C8D0DB"/>
<path fill-rule="evenodd" clip-rule="evenodd" d="M190.727 244.946H169H173.024L173.147 220H190.479L190.727 245.751V244.946Z" stroke="#C8D0DB" stroke-linecap="square"/>
<path fill-rule="evenodd" clip-rule="evenodd" d="M176.109 226.602H178.74V229.232H176.109V226.602Z" stroke="#C8D0DB" stroke-linecap="round" stroke-linejoin="round"/>
<path fill-rule="evenodd" clip-rule="evenodd" d="M184.875 226.602H187.506V229.232H184.875V226.602Z" stroke="#C8D0DB" stroke-linecap="round" stroke-linejoin="round"/>
<path fill-rule="evenodd" clip-rule="evenodd" d="M176.109 235.371H178.74V238.002H176.109V235.371Z" stroke="#C8D0DB" stroke-linecap="round" stroke-linejoin="round"/>
<path d="M184.875 235.371V238.002H187.506V235.371H186.629" stroke="#C8D0DB" stroke-linecap="round" stroke-linejoin="round"/>
<path d="M180.492 228.794V226.602H183.123" stroke="#C8D0DB" stroke-linecap="round" stroke-linejoin="round"/>
<path d="M183.125 228.355V231.425" stroke="#C8D0DB" stroke-linecap="round" stroke-linejoin="round"/>
<path d="M176.109 233.614H180.494V231.422" stroke="#C8D0DB" stroke-linecap="round" stroke-linejoin="round"/>
<path d="M180.492 235.371V238.002H183.123" stroke="#C8D0DB" stroke-linecap="round" stroke-linejoin="round"/>
<path d="M182.25 235.371H183.127" stroke="#C8D0DB" stroke-linecap="round" stroke-linejoin="round"/>
<path d="M176.109 230.984H178.74" stroke="#C8D0DB" stroke-linecap="round" stroke-linejoin="round"/>
<path d="M187.506 230.984H184.875V231.861" stroke="#C8D0DB" stroke-linecap="round" stroke-linejoin="round"/>
<path d="M182.25 233.617H187.512" stroke="#C8D0DB" stroke-linecap="round" stroke-linejoin="round"/>
<path d="M214.133 256.002L210.817 251.359V245.39C210.873 243.032 208.057 240.929 205.512 238.758" stroke="#C8D0DB" stroke-linecap="round" stroke-linejoin="round"/>
<path d="M205.916 248.043L202.348 244.371C201.539 243.824 200.479 243.824 199.671 244.371C199.406 244.635 199.258 244.993 199.258 245.366C199.258 245.74 199.406 246.097 199.671 246.361L203.901 250.696V252.685C203.901 253.96 205.971 256.002 205.971 256.002" stroke="#C8D0DB" stroke-linecap="round" stroke-linejoin="round"/>
<path d="M200.772 249.368H191.357C190.957 249.368 190.633 249.071 190.633 248.705V226.155C190.633 225.789 190.957 225.492 191.357 225.492H204.393C204.793 225.492 205.117 225.789 205.117 226.155V242.736" stroke="#C8D0DB" stroke-linecap="round" stroke-linejoin="round"/>
<path fill-rule="evenodd" clip-rule="evenodd" d="M193.863 232.836H195.652V234.624H193.863V232.836Z" stroke="#C8D0DB" stroke-linecap="round" stroke-linejoin="round"/>
<path fill-rule="evenodd" clip-rule="evenodd" d="M193.863 239.094H195.652V240.882H193.863V239.094Z" stroke="#C8D0DB" stroke-linecap="round" stroke-linejoin="round"/>
<path fill-rule="evenodd" clip-rule="evenodd" d="M200.121 232.836H201.909V234.624H200.121V232.836Z" stroke="#C8D0DB" stroke-linecap="round" stroke-linejoin="round"/>
<path d="M193.863 237.309H197.44V238.203" stroke="#C8D0DB" stroke-linecap="round" stroke-linejoin="round"/>
<path d="M199.223 238.203V240.885H201.905V238.203H201.011" stroke="#C8D0DB" stroke-linecap="round" stroke-linejoin="round"/>
<path d="M197.445 239.988V240.882" stroke="#C8D0DB" stroke-linecap="round" stroke-linejoin="round"/>
<path d="M197.445 232.836V235.518H198.339" stroke="#C8D0DB" stroke-linecap="round" stroke-linejoin="round"/>
<path d="M200.121 236.414H201.909" stroke="#C8D0DB" stroke-linecap="round" stroke-linejoin="round"/>
<rect x="0.5" y="190.5" width="95" height="95" rx="7.5" stroke="#C8D0DB"/>
<path fill-rule="evenodd" clip-rule="evenodd" d="M48.083 222.642C45.4707 222.642 43.3529 224.76 43.3529 227.372C43.3529 229.984 45.4707 232.102 48.083 232.102C50.6953 232.102 52.813 229.984 52.813 227.372C52.813 224.76 50.6953 222.642 48.083 222.642ZM41.4609 227.372C41.4609 223.715 44.4258 220.75 48.083 220.75C51.7403 220.75 54.705 223.715 54.705 227.372C54.705 231.029 51.7403 233.994 48.083 233.994C44.4258 233.994 41.4609 231.029 41.4609 227.372Z" fill="#C8D0DB"/>
<path fill-rule="evenodd" clip-rule="evenodd" d="M43.3796 234.859C42.8571 234.859 42.4336 235.283 42.4336 235.805C42.4336 236.328 42.8571 236.751 43.3796 236.751H50.2598C55.1885 236.751 59.4414 240.209 60.447 245.034L60.8744 247.086C61.4866 250.023 59.2444 252.781 56.2439 252.781H42.9954V254.673H56.2439C60.4445 254.673 63.5837 250.812 62.7267 246.7L62.2991 244.648C61.1107 238.946 56.0848 234.859 50.2598 234.859H43.3796Z" fill="#C8D0DB"/>
<path d="M36.7452 240.109C31.1244 250.726 36.7452 253.849 41.3604 253.731" stroke="#C8D0DB" stroke-width="1.5"/>
<path d="M36.7461 240.108L37.3706 238.859" stroke="#C8D0DB" stroke-width="1.5"/>
<path d="M34.5676 236.384L40.7281 236.313L40.2176 241.885L34.5676 236.384Z" fill="#C8D0DB" stroke="#C8D0DB"/>
<rect x="144.5" y="70.5" width="95" height="95" rx="7.5" stroke="#C8D0DB"/>
<path fill-rule="evenodd" clip-rule="evenodd" d="M192.244 117.431C190.506 117.431 188.94 116.385 188.276 114.78C187.611 113.175 187.978 111.327 189.206 110.098C190.434 108.87 192.281 108.502 193.886 109.167C195.491 109.832 196.537 111.398 196.537 113.136C196.535 115.507 194.614 117.428 192.244 117.431ZM192.244 110.079C191.007 110.079 189.892 110.823 189.419 111.966C188.946 113.108 189.208 114.424 190.082 115.298C190.956 116.173 192.271 116.434 193.413 115.961C194.555 115.487 195.3 114.372 195.3 113.136C195.298 111.448 193.931 110.081 192.244 110.079ZM199.099 126.631H185.388L184.77 126.012C184.77 123.341 186.194 120.873 188.507 119.537C190.819 118.202 193.668 118.202 195.98 119.537C198.293 120.873 199.717 123.341 199.717 126.012L199.099 126.631ZM186.037 125.393H198.451C198.137 122.199 195.452 119.764 192.244 119.764C189.035 119.764 186.35 122.199 186.037 125.393Z" fill="#C8D0DB"/>
<path d="M202.828 95C204.102 95 205.134 96.0326 205.134 97.3068V138.693C205.134 139.967 204.102 141 202.828 141H181.307C180.033 141 179 139.967 179 138.693V97.3068C179 96.0326 180.033 95 181.307 95H202.828Z" stroke="#C8D0DB" stroke-linecap="round" stroke-linejoin="round"/>
<path d="M180.156 103.168H203.224" stroke="#C8D0DB" stroke-linecap="square"/>
<path d="M181.305 132.004H204.373" stroke="#C8D0DB" stroke-linecap="square"/>
<path d="M196.298 98.0938C196.936 98.0938 197.452 98.6101 197.452 99.2471C197.452 99.8842 196.936 100.401 196.298 100.401H187.071C186.434 100.401 185.918 99.8842 185.918 99.2471C185.918 98.6101 186.434 98.0938 187.071 98.0938H196.298Z" fill="#C8D0DB"/>
<g filter="url(#filter0_d_3699_12295)">
<path fill-rule="evenodd" clip-rule="evenodd" d="M190.535 136.619C190.535 135.345 191.568 134.312 192.842 134.312C194.116 134.312 195.149 135.345 195.149 136.619C195.149 137.893 194.116 138.926 192.842 138.926C191.568 138.926 190.535 137.893 190.535 136.619Z" stroke="#C8D0DB" stroke-width="0.6"/>
</g>
<rect x="288.5" y="0.5" width="95" height="95" rx="7.5" stroke="#C8D0DB"/>
<rect x="319.254" y="38.4688" width="31.3438" height="24.875" rx="1.5" stroke="#C8D0DB"/>
<path d="M328.102 38.6875L339.135 31.7914C339.385 31.6352 339.716 31.7281 339.847 31.9918L341.039 34.375" stroke="#C8D0DB"/>
<path d="M332.414 38.6875L344.142 33.1684C344.406 33.044 344.721 33.1717 344.823 33.4452L346.789 38.6875" stroke="#C8D0DB"/>
<mask id="path-118-inside-6_3699_12295" fill="white">
<path d="M338.883 48.5938C338.883 47.4892 339.778 46.5938 340.883 46.5938H352.758C353.034 46.5938 353.258 46.8176 353.258 47.0938V54.7188C353.258 54.9949 353.034 55.2188 352.758 55.2188H340.883C339.778 55.2188 338.883 54.3233 338.883 53.2188V48.5938Z"/>
</mask>
<path d="M338.883 48.5938C338.883 47.4892 339.778 46.5938 340.883 46.5938H352.758C353.034 46.5938 353.258 46.8176 353.258 47.0938V54.7188C353.258 54.9949 353.034 55.2188 352.758 55.2188H340.883C339.778 55.2188 338.883 54.3233 338.883 53.2188V48.5938Z" stroke="#C8D0DB" stroke-width="2" mask="url(#path-118-inside-6_3699_12295)"/>
<circle cx="343.547" cy="50.8359" r="1.44687" stroke="#C8D0DB" stroke-width="0.7"/>
<rect x="341.465" y="35.668" width="2.875" height="1.4375" rx="0.3" fill="#C8D0DB"/>
<path d="M350.375 44.4375H352.231C352.397 44.4375 352.531 44.5718 352.531 44.7375V47.3125" stroke="#C8D0DB"/>
<path d="M329.177 53.8267L329.337 53.1011L330.371 52.9481L330.18 53.8267H329.177Z" fill="#C8D0DB" stroke="#C8D0DB"/>
<path d="M334.706 53.8137L335.014 52.3093L336.024 52.1897L335.647 53.8137H334.706Z" fill="#C8D0DB" stroke="#C8D0DB"/>
<mask id="path-124-inside-7_3699_12295" fill="white">
<path d="M323.082 54.2532L325.265 53.5156L325.106 54.3146H323.082V54.2532Z"/>
</mask>
<path d="M323.082 54.2532L325.265 53.5156L325.106 54.3146H323.082V54.2532Z" fill="#C8D0DB"/>
<path d="M323.082 54.2532L322.762 53.3058L322.082 53.5355V54.2532H323.082ZM325.265 53.5156L326.246 53.7113L326.584 52.0144L324.945 52.5682L325.265 53.5156ZM325.106 54.3146V55.3146H325.926L326.086 54.5103L325.106 54.3146ZM323.082 54.3146H322.082V55.3146H323.082V54.3146ZM323.402 55.2006L325.585 54.463L324.945 52.5682L322.762 53.3058L323.402 55.2006ZM324.284 53.3199L324.125 54.1189L326.086 54.5103L326.246 53.7113L324.284 53.3199ZM325.106 53.3146H323.082V55.3146H325.106V53.3146ZM324.082 54.3146V54.2532H322.082V54.3146H324.082Z" fill="#C8D0DB" mask="url(#path-124-inside-7_3699_12295)"/>
<mask id="mask1_3699_12295" style="mask-type:luminance" maskUnits="userSpaceOnUse" x="323" y="45" width="15" height="10">
<path d="M336.664 51.633C335.959 51.7076 335.269 51.7858 334.594 51.8678L335.241 48.8251C335.31 48.5251 335.344 48.2539 335.344 48.0117C335.344 47.147 334.822 46.7147 333.776 46.7147H332.207L331.005 52.3598C330.278 52.4735 329.58 52.5928 328.911 52.7176L330.188 46.7147H327.222C326.867 46.7147 326.654 46.8875 326.585 47.2332L325.249 53.5521C324.426 53.784 323.696 54.0328 323.074 54.297L324.689 46.7147C324.803 46.1724 324.998 45.7768 325.274 45.528C325.55 45.2802 325.981 45.1562 326.567 45.1562H334.31C335.264 45.1562 336.026 45.3468 336.595 45.7279C337.165 46.1081 337.449 46.6965 337.449 47.4932C337.449 47.8277 337.426 48.0927 337.379 48.2884L336.664 51.633Z" fill="white"/>
<path d="M336.664 51.633C335.959 51.7076 335.269 51.7858 334.594 51.8678L335.241 48.8251C335.31 48.5251 335.344 48.2539 335.344 48.0117C335.344 47.147 334.822 46.7147 333.776 46.7147H332.207L331.005 52.3598C330.278 52.4735 329.58 52.5928 328.911 52.7176L330.188 46.7147H327.222C326.867 46.7147 326.654 46.8875 326.585 47.2332L325.249 53.5521C324.426 53.784 323.696 54.0328 323.074 54.297L324.689 46.7147C324.803 46.1724 324.998 45.7768 325.274 45.528C325.55 45.2802 325.981 45.1562 326.567 45.1562H334.31C335.264 45.1562 336.026 45.3468 336.595 45.7279C337.165 46.1081 337.449 46.6965 337.449 47.4932C337.449 47.8277 337.426 48.0927 337.379 48.2884L336.664 51.633Z" stroke="white"/>
</mask>
<g mask="url(#mask1_3699_12295)">
<path d="M383.903 60.486H320.98V42.9453H383.903V60.486Z" fill="#C8D0DB"/>
<path d="M383.903 60.486H320.98V42.9453H383.903V60.486Z" stroke="#C8D0DB"/>
</g>
<rect x="432.5" y="190.5" width="95" height="95" rx="7.5" stroke="#C8D0DB"/>
<path d="M499.561 235.675L495.117 231.211L492.538 235.893" stroke="#C8D0DB" stroke-linecap="round" stroke-linejoin="round"/>
<path d="M459.891 239.64L464.905 244.797L467.403 240.082" stroke="#C8D0DB" stroke-linecap="round" stroke-linejoin="round"/>
<path d="M495.099 231.204C498.416 238.56 495.948 247.236 489.255 251.744C482.563 256.252 473.595 255.279 468.025 249.44" stroke="#C8D0DB" stroke-linecap="round" stroke-linejoin="round"/>
<path d="M464.903 244.797C461.587 237.446 464.049 228.777 470.732 224.265C477.415 219.754 486.376 220.712 491.954 226.536" stroke="#C8D0DB" stroke-linecap="round" stroke-linejoin="round"/>
<path d="M470.863 236.168H489.122" stroke="#C8D0DB" stroke-linecap="square"/>
<path d="M470.863 239.82H489.122" stroke="#C8D0DB" stroke-linecap="square"/>
<path d="M485.472 245.299H483.646L476.342 230.691H474.402V245.299" stroke="#C8D0DB" stroke-linecap="square"/>
<path d="M485.582 245.299V230.691" stroke="#C8D0DB" stroke-linecap="square"/>
<rect x="576.5" y="70.5" width="95" height="95" rx="7.5" stroke="#C8D0DB"/>
<path fill-rule="evenodd" clip-rule="evenodd" d="M624.083 102.642C621.471 102.642 619.353 104.76 619.353 107.372C619.353 109.984 621.471 112.102 624.083 112.102C626.695 112.102 628.813 109.984 628.813 107.372C628.813 104.76 626.695 102.642 624.083 102.642ZM617.461 107.372C617.461 103.715 620.426 100.75 624.083 100.75C627.74 100.75 630.705 103.715 630.705 107.372C630.705 111.029 627.74 113.994 624.083 113.994C620.426 113.994 617.461 111.029 617.461 107.372Z" fill="#C8D0DB"/>
<path fill-rule="evenodd" clip-rule="evenodd" d="M619.38 114.859C618.857 114.859 618.434 115.283 618.434 115.805C618.434 116.328 618.857 116.751 619.38 116.751H626.26C631.189 116.751 635.441 120.209 636.447 125.034L636.874 127.086C637.487 130.023 635.244 132.781 632.244 132.781H618.995V134.673H632.244C636.445 134.673 639.584 130.812 638.727 126.7L638.299 124.648C637.111 118.946 632.085 114.859 626.26 114.859H619.38Z" fill="#C8D0DB"/>
<path d="M612.745 120.109C607.124 130.726 612.745 133.849 617.36 133.731" stroke="#C8D0DB" stroke-width="1.5"/>
<path d="M612.746 120.108L613.371 118.859" stroke="#C8D0DB" stroke-width="1.5"/>
<path d="M610.568 116.384L616.728 116.313L616.218 121.885L610.568 116.384Z" fill="#C8D0DB" stroke="#C8D0DB"/>
<rect x="432.5" y="190.5" width="95" height="95" rx="7.5" stroke="#C8D0DB"/>
<path d="M499.561 235.675L495.117 231.211L492.538 235.893" stroke="#C8D0DB" stroke-linecap="round" stroke-linejoin="round"/>
<path d="M459.891 239.64L464.905 244.797L467.403 240.082" stroke="#C8D0DB" stroke-linecap="round" stroke-linejoin="round"/>
<path d="M495.099 231.204C498.416 238.56 495.948 247.236 489.255 251.744C482.563 256.252 473.595 255.279 468.025 249.44" stroke="#C8D0DB" stroke-linecap="round" stroke-linejoin="round"/>
<path d="M464.903 244.797C461.587 237.446 464.049 228.777 470.732 224.265C477.415 219.754 486.376 220.712 491.954 226.536" stroke="#C8D0DB" stroke-linecap="round" stroke-linejoin="round"/>
<path d="M470.863 236.168H489.122" stroke="#C8D0DB" stroke-linecap="square"/>
<path d="M470.863 239.82H489.122" stroke="#C8D0DB" stroke-linecap="square"/>
<path d="M485.472 245.299H483.646L476.342 230.691H474.402V245.299" stroke="#C8D0DB" stroke-linecap="square"/>
<path d="M485.582 245.299V230.691" stroke="#C8D0DB" stroke-linecap="square"/>
<rect x="576.5" y="310.5" width="95" height="95" rx="7.5" stroke="#C8D0DB"/>
<path d="M612.137 352.555C614.706 354.413 616.327 354.786 619.548 354.217C619.977 356.389 620.366 357.162 621.195 358.135C619.416 358.701 618.469 359.338 616.842 360.865C615.439 359.329 614.616 358.424 612.96 356.591C611.074 358.516 609.885 359.769 607.549 362.29C607.252 356.775 608.243 354.632 612.137 352.555Z" stroke="#C8D0DB"/>
<circle cx="627.913" cy="352.866" r="6.925" stroke="#C8D0DB"/>
<mask id="path-155-inside-8_3699_12295" fill="white">
<path fill-rule="evenodd" clip-rule="evenodd" d="M622.392 346.308C620.689 347.742 619.592 349.883 619.547 352.282C618.691 352.771 617.697 353.05 616.637 353.05C613.414 353.05 610.801 350.464 610.801 347.275C610.801 344.086 613.414 341.5 616.637 341.5C619.528 341.5 621.927 343.579 622.392 346.308Z"/>
</mask>
<path d="M619.547 352.282L620.043 353.151L620.536 352.869L620.547 352.301L619.547 352.282ZM622.392 346.308L623.036 347.073L623.474 346.704L623.378 346.14L622.392 346.308ZM620.547 352.301C620.586 350.201 621.545 348.329 623.036 347.073L621.748 345.543C619.832 347.156 618.598 349.565 618.547 352.263L620.547 352.301ZM619.052 351.413C618.343 351.818 617.519 352.05 616.637 352.05V354.05C617.875 354.05 619.039 353.723 620.043 353.151L619.052 351.413ZM616.637 352.05C613.956 352.05 611.801 349.902 611.801 347.275H609.801C609.801 351.027 612.872 354.05 616.637 354.05V352.05ZM611.801 347.275C611.801 344.648 613.956 342.5 616.637 342.5V340.5C612.872 340.5 609.801 343.523 609.801 347.275H611.801ZM616.637 342.5C619.04 342.5 621.023 344.227 621.406 346.476L623.378 346.14C622.831 342.931 620.016 340.5 616.637 340.5V342.5Z" fill="#C8D0DB" mask="url(#path-155-inside-8_3699_12295)"/>
<path d="M634.423 359.156C628.968 362.953 626.014 362.871 620.913 359.156C619.332 360.04 618.562 360.589 617.595 361.749C618.692 363.076 619.188 363.602 619.965 364.342C618.301 364.271 617.422 364.274 615.936 364.342C615.1 369.292 617.139 370.508 620.913 372.592C628.16 371.374 631.915 371.707 638.097 374.006C639.176 373.792 639.713 373.522 640.467 372.592C640.74 365.31 639.363 362.409 634.423 359.156Z" stroke="#C8D0DB"/>
<path d="M608.16 362.95L613.11 358L617.235 362.95H614.76C614.195 369.211 616.482 370.925 620.535 373.675C614.59 372.121 611.52 371.223 610.635 362.95H608.16Z" fill="#C8D0DB" stroke="#C8D0DB" stroke-width="0.2"/>
<rect x="288.5" y="0.5" width="95" height="95" rx="7.5" stroke="#C8D0DB"/>
<rect x="319.254" y="38.4688" width="31.3438" height="24.875" rx="1.5" stroke="#C8D0DB"/>
<path d="M328.102 38.6875L339.135 31.7914C339.385 31.6352 339.716 31.7281 339.847 31.9918L341.039 34.375" stroke="#C8D0DB"/>
<path d="M332.414 38.6875L344.142 33.1684C344.406 33.044 344.721 33.1717 344.823 33.4452L346.789 38.6875" stroke="#C8D0DB"/>
<mask id="path-163-inside-9_3699_12295" fill="white">
<path d="M338.883 48.5938C338.883 47.4892 339.778 46.5938 340.883 46.5938H352.758C353.034 46.5938 353.258 46.8176 353.258 47.0938V54.7188C353.258 54.9949 353.034 55.2188 352.758 55.2188H340.883C339.778 55.2188 338.883 54.3233 338.883 53.2188V48.5938Z"/>
</mask>
<path d="M338.883 48.5938C338.883 47.4892 339.778 46.5938 340.883 46.5938H352.758C353.034 46.5938 353.258 46.8176 353.258 47.0938V54.7188C353.258 54.9949 353.034 55.2188 352.758 55.2188H340.883C339.778 55.2188 338.883 54.3233 338.883 53.2188V48.5938Z" stroke="#C8D0DB" stroke-width="2" mask="url(#path-163-inside-9_3699_12295)"/>
<circle cx="343.547" cy="50.8359" r="1.44687" stroke="#C8D0DB" stroke-width="0.7"/>
<rect x="341.465" y="35.668" width="2.875" height="1.4375" rx="0.3" fill="#C8D0DB"/>
<path d="M350.375 44.4375H352.231C352.397 44.4375 352.531 44.5718 352.531 44.7375V47.3125" stroke="#C8D0DB"/>
<path d="M329.177 53.8267L329.337 53.1011L330.371 52.9481L330.18 53.8267H329.177Z" fill="#C8D0DB" stroke="#C8D0DB"/>
<path d="M334.706 53.8137L335.014 52.3093L336.024 52.1897L335.647 53.8137H334.706Z" fill="#C8D0DB" stroke="#C8D0DB"/>
<mask id="path-169-inside-10_3699_12295" fill="white">
<path d="M323.082 54.2532L325.265 53.5156L325.106 54.3146H323.082V54.2532Z"/>
</mask>
<path d="M323.082 54.2532L325.265 53.5156L325.106 54.3146H323.082V54.2532Z" fill="#C8D0DB"/>
<path d="M323.082 54.2532L322.762 53.3058L322.082 53.5355V54.2532H323.082ZM325.265 53.5156L326.246 53.7113L326.584 52.0144L324.945 52.5682L325.265 53.5156ZM325.106 54.3146V55.3146H325.926L326.086 54.5103L325.106 54.3146ZM323.082 54.3146H322.082V55.3146H323.082V54.3146ZM323.402 55.2006L325.585 54.463L324.945 52.5682L322.762 53.3058L323.402 55.2006ZM324.284 53.3199L324.125 54.1189L326.086 54.5103L326.246 53.7113L324.284 53.3199ZM325.106 53.3146H323.082V55.3146H325.106V53.3146ZM324.082 54.3146V54.2532H322.082V54.3146H324.082Z" fill="#C8D0DB" mask="url(#path-169-inside-10_3699_12295)"/>
<mask id="mask2_3699_12295" style="mask-type:luminance" maskUnits="userSpaceOnUse" x="323" y="45" width="15" height="10">
<path d="M336.664 51.633C335.959 51.7076 335.269 51.7858 334.594 51.8678L335.241 48.8251C335.31 48.5251 335.344 48.2539 335.344 48.0117C335.344 47.147 334.822 46.7147 333.776 46.7147H332.207L331.005 52.3598C330.278 52.4735 329.58 52.5928 328.911 52.7176L330.188 46.7147H327.222C326.867 46.7147 326.654 46.8875 326.585 47.2332L325.249 53.5521C324.426 53.784 323.696 54.0328 323.074 54.297L324.689 46.7147C324.803 46.1724 324.998 45.7768 325.274 45.528C325.55 45.2802 325.981 45.1562 326.567 45.1562H334.31C335.264 45.1562 336.026 45.3468 336.595 45.7279C337.165 46.1081 337.449 46.6965 337.449 47.4932C337.449 47.8277 337.426 48.0927 337.379 48.2884L336.664 51.633Z" fill="white"/>
<path d="M336.664 51.633C335.959 51.7076 335.269 51.7858 334.594 51.8678L335.241 48.8251C335.31 48.5251 335.344 48.2539 335.344 48.0117C335.344 47.147 334.822 46.7147 333.776 46.7147H332.207L331.005 52.3598C330.278 52.4735 329.58 52.5928 328.911 52.7176L330.188 46.7147H327.222C326.867 46.7147 326.654 46.8875 326.585 47.2332L325.249 53.5521C324.426 53.784 323.696 54.0328 323.074 54.297L324.689 46.7147C324.803 46.1724 324.998 45.7768 325.274 45.528C325.55 45.2802 325.981 45.1562 326.567 45.1562H334.31C335.264 45.1562 336.026 45.3468 336.595 45.7279C337.165 46.1081 337.449 46.6965 337.449 47.4932C337.449 47.8277 337.426 48.0927 337.379 48.2884L336.664 51.633Z" stroke="white"/>
</mask>
<g mask="url(#mask2_3699_12295)">
<path d="M383.903 60.486H320.98V42.9453H383.903V60.486Z" fill="#C8D0DB"/>
<path d="M383.903 60.486H320.98V42.9453H383.903V60.486Z" stroke="#C8D0DB"/>
</g>
<rect x="288.5" y="360.5" width="95" height="95" rx="7.5" stroke="#C8D0DB"/>
<path d="M319.281 423.747L320.248 420.957L320.944 419.628C320.997 419.526 321.147 419.457 321.316 419.457H335.679C335.848 419.457 337.498 419.463 337.498 419.463" stroke="#C8D0DB" stroke-linecap="round" stroke-linejoin="round"/>
<path fill-rule="evenodd" clip-rule="evenodd" d="M323.25 403.625H332.25V419.465H323.25V403.625Z" stroke="#C8D0DB" stroke-linecap="round" stroke-linejoin="round"/>
<path d="M341.25 423.781H318.75" stroke="#C8D0DB" stroke-linecap="round" stroke-linejoin="round"/>
<path d="M327.758 403.625V419.465" stroke="#C8D0DB" stroke-linecap="round" stroke-linejoin="round"/>
<path d="M332.258 403.625V419.465" stroke="#C8D0DB" stroke-linecap="round" stroke-linejoin="round"/>
<path d="M339.758 403.625V411.125" stroke="#C8D0DB" stroke-linecap="round" stroke-linejoin="round"/>
<path d="M344.258 403.625V408.75" stroke="#C8D0DB" stroke-linecap="round" stroke-linejoin="round"/>
<path d="M348 404.559V409.809" stroke="#C8D0DB" stroke-linecap="round" stroke-linejoin="round"/>
<path fill-rule="evenodd" clip-rule="evenodd" d="M351.559 399.864C351.672 399.538 351.53 399.181 351.22 399.011L336.376 390.862C336.144 390.733 335.858 390.733 335.626 390.862L320.776 399.005C320.466 399.176 320.324 399.532 320.437 399.858L321.583 403.131C321.685 403.425 321.971 403.623 322.294 403.623H349.714C350.037 403.623 350.323 403.425 350.425 403.131L351.559 399.864Z" stroke="#C8D0DB" stroke-linecap="round" stroke-linejoin="round"/>
<path d="M351.499 399.305H320.492" stroke="#C8D0DB" stroke-linecap="round" stroke-linejoin="round"/>
<path fill-rule="evenodd" clip-rule="evenodd" d="M346.445 416.734L346.48 416.769C346.788 417.077 347.287 417.077 347.594 416.769L349.156 415.207C349.615 414.745 349.615 413.999 349.156 413.537L348.463 412.845C348.001 412.385 347.255 412.385 346.793 412.845L345.231 414.406C344.923 414.713 344.923 415.212 345.231 415.519L345.266 415.554L346.445 416.734Z" stroke="#C8D0DB" stroke-linecap="round" stroke-linejoin="round"/>
<path fill-rule="evenodd" clip-rule="evenodd" d="M343.555 417.266L343.52 417.231C343.213 416.923 342.714 416.923 342.406 417.231L340.845 418.793C340.385 419.255 340.385 420.001 340.845 420.463L341.537 421.155C341.999 421.615 342.746 421.615 343.208 421.155L344.769 419.594C344.917 419.447 345 419.246 345 419.037C345 418.829 344.917 418.628 344.769 418.481L344.734 418.446L343.555 417.266Z" stroke="#C8D0DB" stroke-linecap="round" stroke-linejoin="round"/>
<path d="M343.5 418.5L346.5 415.5" stroke="#C8D0DB" stroke-linecap="round" stroke-linejoin="round"/>
<path fill-rule="evenodd" clip-rule="evenodd" d="M337.5 417C337.5 412.858 340.858 409.5 345 409.5C349.142 409.5 352.5 412.858 352.5 417C352.5 421.142 349.142 424.5 345 424.5C340.858 424.5 337.5 421.142 337.5 417Z" stroke="#C8D0DB" stroke-linecap="round" stroke-linejoin="round"/>
<rect x="0.5" y="190.5" width="95" height="95" rx="7.5" stroke="#C8D0DB"/>
<path fill-rule="evenodd" clip-rule="evenodd" d="M48.083 222.642C45.4707 222.642 43.3529 224.76 43.3529 227.372C43.3529 229.984 45.4707 232.102 48.083 232.102C50.6953 232.102 52.813 229.984 52.813 227.372C52.813 224.76 50.6953 222.642 48.083 222.642ZM41.4609 227.372C41.4609 223.715 44.4258 220.75 48.083 220.75C51.7403 220.75 54.705 223.715 54.705 227.372C54.705 231.029 51.7403 233.994 48.083 233.994C44.4258 233.994 41.4609 231.029 41.4609 227.372Z" fill="#C8D0DB"/>
<path fill-rule="evenodd" clip-rule="evenodd" d="M43.3796 234.859C42.8571 234.859 42.4336 235.283 42.4336 235.805C42.4336 236.328 42.8571 236.751 43.3796 236.751H50.2598C55.1885 236.751 59.4414 240.209 60.447 245.034L60.8744 247.086C61.4866 250.023 59.2444 252.781 56.2439 252.781H42.9954V254.673H56.2439C60.4445 254.673 63.5837 250.812 62.7267 246.7L62.2991 244.648C61.1107 238.946 56.0848 234.859 50.2598 234.859H43.3796Z" fill="#C8D0DB"/>
<path d="M36.7452 240.109C31.1244 250.726 36.7452 253.849 41.3604 253.731" stroke="#C8D0DB" stroke-width="1.5"/>
<path d="M36.7461 240.108L37.3706 238.859" stroke="#C8D0DB" stroke-width="1.5"/>
<path d="M34.5676 236.384L40.7281 236.313L40.2176 241.885L34.5676 236.384Z" fill="#C8D0DB" stroke="#C8D0DB"/>
<rect x="144.5" y="310.5" width="95" height="95" rx="7.5" stroke="#C8D0DB"/>
<path d="M171.199 380.029L172.381 376.621C172.471 376.36 172.726 376.184 173.013 376.184H197.386C197.673 376.184 197.927 376.36 198.018 376.621L199.199 380.024" stroke="#C8D0DB" stroke-linecap="round" stroke-linejoin="round"/>
<path fill-rule="evenodd" clip-rule="evenodd" d="M173.859 362.109H196.526V376.189H173.859V362.109Z" stroke="#C8D0DB" stroke-linecap="round" stroke-linejoin="round"/>
<path d="M200.526 380.031H169.859" stroke="#C8D0DB" stroke-linecap="round" stroke-linejoin="round"/>
<path d="M177.859 362.109V376.189" stroke="#C8D0DB" stroke-linecap="round" stroke-linejoin="round"/>
<path d="M181.859 362.109V376.189" stroke="#C8D0DB" stroke-linecap="round" stroke-linejoin="round"/>
<path d="M188.531 362.109V376.189" stroke="#C8D0DB" stroke-linecap="round" stroke-linejoin="round"/>
<path d="M192.531 362.109V376.189" stroke="#C8D0DB" stroke-linecap="round" stroke-linejoin="round"/>
<path fill-rule="evenodd" clip-rule="evenodd" d="M199.022 358.767C199.123 358.477 198.997 358.16 198.721 358.009L185.526 350.765C185.32 350.651 185.066 350.651 184.86 350.765L171.66 358.004C171.384 358.155 171.258 358.472 171.358 358.762L172.377 361.671C172.468 361.932 172.722 362.109 173.009 362.109H197.382C197.669 362.109 197.924 361.932 198.014 361.671L199.022 358.767Z" stroke="#C8D0DB" stroke-linecap="round" stroke-linejoin="round"/>
<path d="M198.968 358.27H171.406" stroke="#C8D0DB" stroke-linecap="round" stroke-linejoin="round"/>
<path fill-rule="evenodd" clip-rule="evenodd" d="M195.125 345.821C195.125 340.397 199.522 336 204.946 336C210.37 336 214.768 340.397 214.768 345.821C214.768 351.245 210.37 355.643 204.946 355.643C199.522 355.643 195.125 351.245 195.125 345.821Z" stroke="#C8D0DB"/>
<path d="M199.125 344.711H211.246" stroke="#C8D0DB" stroke-linecap="square"/>
<path d="M199.125 346.836H211.246" stroke="#C8D0DB" stroke-linecap="square"/>
<path d="M208.817 350.016H207.605L202.757 341.531H201.469V350.016" stroke="#C8D0DB" stroke-linecap="square"/>
<path d="M208.895 350.016V341.531" stroke="#C8D0DB" stroke-linecap="square"/>
<path d="M205.438 356V368.724C205.438 369.276 204.99 369.724 204.437 369.724H197.203" stroke="#C8D0DB"/>
<path d="M195.311 369.658L199.52 366.612L199.333 372.948L195.311 369.658Z" fill="#C8D0DB"/>
<defs>
<filter id="filter0_d_3699_12295" x="186.234" y="132.012" width="13.2148" height="13.2148" filterUnits="userSpaceOnUse" color-interpolation-filters="sRGB">
<feFlood flood-opacity="0" result="BackgroundImageFix"/>
<feColorMatrix in="SourceAlpha" type="matrix" values="0 0 0 0 0 0 0 0 0 0 0 0 0 0 0 0 0 0 127 0" result="hardAlpha"/>
<feOffset dy="2"/>
<feGaussianBlur stdDeviation="2"/>
<feColorMatrix type="matrix" values="0 0 0 0 0.392157 0 0 0 0 0.392157 0 0 0 0 0.392157 0 0 0 0.498039 0"/>
<feBlend mode="normal" in2="BackgroundImageFix" result="effect1_dropShadow_3699_12295"/>
<feBlend mode="normal" in="SourceGraphic" in2="effect1_dropShadow_3699_12295" result="shape"/>
</filter>
</defs>
</svg>
