<svg width="189" height="56" viewBox="0 0 189 56" fill="none" xmlns="http://www.w3.org/2000/svg">
<rect x="0.65" y="0.65" width="187.7" height="54.7" rx="5.85" fill="black"/>
<rect x="0.65" y="0.65" width="187.7" height="54.7" rx="5.85" stroke="#A6A6A6" stroke-width="1.3"/>
<g filter="url(#filter0_ii_3183_2701)">
<path d="M14.6091 10.5514C14.2017 10.9826 13.9609 11.6518 13.9609 12.5184V43.4808C13.9609 44.3488 14.2017 45.0166 14.6091 45.4478L14.7127 45.5486L32.0573 28.204V27.9996V27.7952L14.7127 10.4492L14.6091 10.5514Z" fill="url(#paint0_linear_3183_2701)"/>
<path d="M37.8392 33.9898L32.0586 28.2064V28.002V27.7976L37.8406 22.0156L37.9708 22.0898L44.821 25.9818C46.7768 27.0934 46.7768 28.912 44.821 30.025L37.9708 33.917L37.8392 33.9898Z" fill="url(#paint1_linear_3183_2701)"/>
<g filter="url(#filter1_i_3183_2701)">
<path d="M37.9698 33.9136L32.0562 28L14.6094 45.4482C15.2534 46.1314 16.3188 46.2154 17.5186 45.535L37.9698 33.9136Z" fill="url(#paint2_linear_3183_2701)"/>
</g>
<path d="M37.9698 22.0866L17.5186 10.4666C16.3188 9.7848 15.2534 9.8702 14.6094 10.5534L32.0576 28.0016L37.9698 22.0866Z" fill="url(#paint3_linear_3183_2701)"/>
</g>
<path d="M95.3886 30.4528C92.0958 30.4528 89.412 32.9574 89.412 36.407C89.412 39.8356 92.0958 42.3612 95.3886 42.3612C98.6828 42.3612 101.367 39.8356 101.367 36.407C101.365 32.9574 98.6814 30.4528 95.3886 30.4528ZM95.3886 40.0176C93.584 40.0176 92.0286 38.5294 92.0286 36.4084C92.0286 34.265 93.5854 32.7992 95.3886 32.7992C97.1932 32.7992 98.7486 34.265 98.7486 36.4084C98.7486 38.528 97.1932 40.0176 95.3886 40.0176ZM82.349 30.4528C79.0562 30.4528 76.3724 32.9574 76.3724 36.407C76.3724 39.8356 79.0562 42.3612 82.349 42.3612C85.6432 42.3612 88.327 39.8356 88.327 36.407C88.327 32.9574 85.6432 30.4528 82.349 30.4528ZM82.349 40.0176C80.5444 40.0176 78.989 38.5294 78.989 36.4084C78.989 34.265 80.5458 32.7992 82.349 32.7992C84.1536 32.7992 85.709 34.265 85.709 36.4084C85.7104 38.528 84.1536 40.0176 82.349 40.0176ZM66.8398 32.2812V34.8068H72.885C72.7044 36.2278 72.2312 37.2652 71.5088 37.9862C70.6296 38.8654 69.2534 39.8356 66.8398 39.8356C63.1186 39.8356 60.2094 36.8354 60.2094 33.1142C60.2094 29.393 63.1186 26.3928 66.8398 26.3928C68.8474 26.3928 70.3132 27.1824 71.3954 28.1974L73.1776 26.4152C71.6656 24.9718 69.6594 23.8672 66.8398 23.8672C61.7424 23.8672 57.457 28.0168 57.457 33.1142C57.457 38.2116 61.7424 42.3612 66.8398 42.3612C69.5908 42.3612 71.667 41.4582 73.2896 39.767C74.9584 38.0982 75.4778 35.7518 75.4778 33.8576C75.4778 33.2724 75.433 32.7306 75.342 32.2798H66.8398V32.2812ZM130.271 34.2426C129.775 32.9126 128.263 30.4528 125.174 30.4528C122.106 30.4528 119.557 32.8664 119.557 36.407C119.557 39.7446 122.084 42.3612 125.466 42.3612C128.195 42.3612 129.774 40.6924 130.429 39.7222L128.399 38.3684C127.723 39.361 126.798 40.0148 125.466 40.0148C124.136 40.0148 123.188 39.4058 122.579 38.2102L130.541 34.9174L130.271 34.2426ZM122.151 36.2278C122.084 33.9262 123.933 32.7544 125.265 32.7544C126.302 32.7544 127.181 33.2738 127.475 34.0172L122.151 36.2278ZM115.679 42.0014H118.294V24.5H115.679V42.0014ZM111.392 31.7842H111.302C110.716 31.0842 109.587 30.4528 108.168 30.4528C105.19 30.4528 102.461 33.0694 102.461 36.4308C102.461 39.7684 105.19 42.3626 108.168 42.3626C109.589 42.3626 110.716 41.7312 111.302 41.0102H111.392V41.867C111.392 44.1448 110.174 45.3628 108.213 45.3628C106.611 45.3628 105.618 44.2134 105.212 43.2432L102.935 44.191C103.588 45.7688 105.324 47.7092 108.213 47.7092C111.28 47.7092 113.874 45.9046 113.874 41.5058V30.8154H111.393V31.7842H111.392ZM108.393 40.0176C106.589 40.0176 105.078 38.5056 105.078 36.4308C105.078 34.3322 106.589 32.7992 108.393 32.7992C110.174 32.7992 111.573 34.3322 111.573 36.4308C111.573 38.5056 110.174 40.0176 108.393 40.0176ZM142.527 24.5H136.267V42.0014H138.878V35.371H142.525C145.42 35.371 148.268 33.2752 148.268 29.9362C148.268 26.5972 145.422 24.5 142.527 24.5ZM142.594 32.935H138.878V26.936H142.594C144.547 26.936 145.656 28.553 145.656 29.9362C145.656 31.2914 144.547 32.935 142.594 32.935ZM158.739 30.422C156.847 30.422 154.889 31.255 154.078 33.1016L156.396 34.069C156.892 33.1016 157.816 32.7852 158.783 32.7852C160.134 32.7852 161.508 33.5958 161.53 35.0364V35.217C161.057 34.9468 160.043 34.5422 158.806 34.5422C156.307 34.5422 153.762 35.9156 153.762 38.4818C153.762 40.824 155.811 42.3318 158.107 42.3318C159.863 42.3318 160.832 41.5436 161.439 40.6196H161.529V41.9706H164.052V35.2604C164.053 32.1552 161.732 30.422 158.739 30.422ZM158.422 40.0134C157.568 40.0134 156.374 39.585 156.374 38.5266C156.374 37.1756 157.861 36.6576 159.145 36.6576C160.291 36.6576 160.833 36.9054 161.53 37.2428C161.327 38.8654 159.931 40.0134 158.422 40.0134ZM173.238 30.8042L170.244 38.3922H170.154L167.046 30.8042H164.232L168.893 41.4092L166.236 47.3088H168.96L176.143 30.8042H173.238ZM149.71 42.0014H152.321V24.5H149.71V42.0014Z" fill="white"/>
<path d="M66.3869 14.3385C66.3869 15.5117 66.0397 16.4455 65.3439 17.1427C64.5543 17.9715 63.5239 18.3859 62.2583 18.3859C61.0459 18.3859 60.0141 17.9659 59.1671 17.1259C58.3187 16.2845 57.8945 15.2429 57.8945 13.9997C57.8945 12.7551 58.3187 11.7135 59.1671 10.8735C60.0141 10.0321 61.0459 9.61211 62.2583 9.61211C62.8603 9.61211 63.4357 9.72971 63.9817 9.96351C64.5291 10.1987 64.9673 10.5109 65.2949 10.9015L64.5571 11.6407C64.0013 10.9757 63.2355 10.6439 62.2569 10.6439C61.3721 10.6439 60.6077 10.9547 59.9623 11.5763C59.3169 12.1979 58.9949 13.0057 58.9949 13.9983C58.9949 14.9909 59.3169 15.7987 59.9623 16.4203C60.6077 17.0419 61.3721 17.3527 62.2569 17.3527C63.1949 17.3527 63.9775 17.0405 64.6033 16.4147C65.0093 16.0073 65.2445 15.4403 65.3075 14.7137H62.2569V13.7043H66.3267C66.3687 13.9241 66.3869 14.1355 66.3869 14.3385Z" fill="white"/>
<path d="M72.8411 10.8302H69.0163V13.493H72.4659V14.5024H69.0163V17.1652H72.8411V18.1984H67.9369V9.79839H72.8411V10.8302Z" fill="white"/>
<path d="M77.3923 18.1984H76.3129V10.8302H73.9665V9.79839H79.7387V10.8302H77.3923V18.1984Z" fill="white"/>
<path d="M83.9148 18.1984V9.79839H84.9942V18.1984H83.9148Z" fill="white"/>
<path d="M89.7811 18.1984H88.7017V10.8302H86.3553V9.79839H92.1275V10.8302H89.7811V18.1984Z" fill="white"/>
<path d="M103.054 17.1134C102.228 17.9618 101.202 18.386 99.9741 18.386C98.7463 18.386 97.7202 17.9618 96.8956 17.1134C96.0696 16.265 95.6579 15.2262 95.6579 13.9984C95.6579 12.7706 96.0696 11.7318 96.8956 10.8834C97.7202 10.035 98.7463 9.60938 99.9741 9.60938C101.195 9.60938 102.22 10.0364 103.049 10.889C103.877 11.7416 104.292 12.7776 104.292 13.9984C104.292 15.2262 103.879 16.265 103.054 17.1134ZM97.6922 16.4092C98.3138 17.0392 99.0739 17.3528 99.9741 17.3528C100.874 17.3528 101.636 17.0378 102.256 16.4092C102.878 15.7792 103.19 14.9756 103.19 13.9984C103.19 13.0212 102.878 12.2176 102.256 11.5876C101.636 10.9576 100.874 10.644 99.9741 10.644C99.0739 10.644 98.3138 10.959 97.6922 11.5876C97.072 12.2176 96.7598 13.0212 96.7598 13.9984C96.7598 14.9756 97.072 15.7792 97.6922 16.4092Z" fill="white"/>
<path d="M105.807 18.1984V9.79839H107.12L111.202 16.3322H111.248L111.202 14.7138V9.79839H112.282V18.1984H111.155L106.883 11.3468H106.837L106.883 12.9652V18.1984H105.807Z" fill="white"/>
<path d="M66.3869 14.3385C66.3869 15.5117 66.0397 16.4455 65.3439 17.1427C64.5543 17.9715 63.5239 18.3859 62.2583 18.3859C61.0459 18.3859 60.0141 17.9659 59.1671 17.1259C58.3187 16.2845 57.8945 15.2429 57.8945 13.9997C57.8945 12.7551 58.3187 11.7135 59.1671 10.8735C60.0141 10.0321 61.0459 9.61211 62.2583 9.61211C62.8603 9.61211 63.4357 9.72971 63.9817 9.96351C64.5291 10.1987 64.9673 10.5109 65.2949 10.9015L64.5571 11.6407C64.0013 10.9757 63.2355 10.6439 62.2569 10.6439C61.3721 10.6439 60.6077 10.9547 59.9623 11.5763C59.3169 12.1979 58.9949 13.0057 58.9949 13.9983C58.9949 14.9909 59.3169 15.7987 59.9623 16.4203C60.6077 17.0419 61.3721 17.3527 62.2569 17.3527C63.1949 17.3527 63.9775 17.0405 64.6033 16.4147C65.0093 16.0073 65.2445 15.4403 65.3075 14.7137H62.2569V13.7043H66.3267C66.3687 13.9241 66.3869 14.1355 66.3869 14.3385Z" stroke="white" stroke-width="0.26" stroke-miterlimit="10"/>
<path d="M72.8411 10.8302H69.0163V13.493H72.4659V14.5024H69.0163V17.1652H72.8411V18.1984H67.9369V9.79839H72.8411V10.8302Z" stroke="white" stroke-width="0.26" stroke-miterlimit="10"/>
<path d="M77.3923 18.1984H76.3129V10.8302H73.9665V9.79839H79.7387V10.8302H77.3923V18.1984Z" stroke="white" stroke-width="0.26" stroke-miterlimit="10"/>
<path d="M83.9148 18.1984V9.79839H84.9942V18.1984H83.9148Z" stroke="white" stroke-width="0.26" stroke-miterlimit="10"/>
<path d="M89.7811 18.1984H88.7017V10.8302H86.3553V9.79839H92.1275V10.8302H89.7811V18.1984Z" stroke="white" stroke-width="0.26" stroke-miterlimit="10"/>
<path d="M103.054 17.1134C102.228 17.9618 101.202 18.386 99.9741 18.386C98.7463 18.386 97.7202 17.9618 96.8956 17.1134C96.0696 16.265 95.6579 15.2262 95.6579 13.9984C95.6579 12.7706 96.0696 11.7318 96.8956 10.8834C97.7202 10.035 98.7463 9.60938 99.9741 9.60938C101.195 9.60938 102.22 10.0364 103.049 10.889C103.877 11.7416 104.292 12.7776 104.292 13.9984C104.292 15.2262 103.879 16.265 103.054 17.1134ZM97.6922 16.4092C98.3138 17.0392 99.0739 17.3528 99.9741 17.3528C100.874 17.3528 101.636 17.0378 102.256 16.4092C102.878 15.7792 103.19 14.9756 103.19 13.9984C103.19 13.0212 102.878 12.2176 102.256 11.5876C101.636 10.9576 100.874 10.644 99.9741 10.644C99.0739 10.644 98.3138 10.959 97.6922 11.5876C97.072 12.2176 96.7598 13.0212 96.7598 13.9984C96.7598 14.9756 97.072 15.7792 97.6922 16.4092Z" stroke="white" stroke-width="0.26" stroke-miterlimit="10"/>
<path d="M105.807 18.1984V9.79839H107.12L111.202 16.3322H111.248L111.202 14.7138V9.79839H112.282V18.1984H111.155L106.883 11.3468H106.837L106.883 12.9652V18.1984H105.807Z" stroke="white" stroke-width="0.26" stroke-miterlimit="10"/>
<defs>
<filter id="filter0_ii_3183_2701" x="13.9609" y="9.99609" width="32.3281" height="36.0078" filterUnits="userSpaceOnUse" color-interpolation-filters="sRGB">
<feFlood flood-opacity="0" result="BackgroundImageFix"/>
<feBlend mode="normal" in="SourceGraphic" in2="BackgroundImageFix" result="shape"/>
<feColorMatrix in="SourceAlpha" type="matrix" values="0 0 0 0 0 0 0 0 0 0 0 0 0 0 0 0 0 0 127 0" result="hardAlpha"/>
<feOffset dy="-0.195"/>
<feComposite in2="hardAlpha" operator="arithmetic" k2="-1" k3="1"/>
<feColorMatrix type="matrix" values="0 0 0 0 0 0 0 0 0 0 0 0 0 0 0 0 0 0 0.12 0"/>
<feBlend mode="normal" in2="shape" result="effect1_innerShadow_3183_2701"/>
<feColorMatrix in="SourceAlpha" type="matrix" values="0 0 0 0 0 0 0 0 0 0 0 0 0 0 0 0 0 0 127 0" result="hardAlpha"/>
<feOffset dy="0.195"/>
<feComposite in2="hardAlpha" operator="arithmetic" k2="-1" k3="1"/>
<feColorMatrix type="matrix" values="0 0 0 0 1 0 0 0 0 1 0 0 0 0 1 0 0 0 0.25 0"/>
<feBlend mode="normal" in2="effect1_innerShadow_3183_2701" result="effect2_innerShadow_3183_2701"/>
</filter>
<filter id="filter1_i_3183_2701" x="14.6094" y="28" width="23.3594" height="18.0039" filterUnits="userSpaceOnUse" color-interpolation-filters="sRGB">
<feFlood flood-opacity="0" result="BackgroundImageFix"/>
<feBlend mode="normal" in="SourceGraphic" in2="BackgroundImageFix" result="shape"/>
<feColorMatrix in="SourceAlpha" type="matrix" values="0 0 0 0 0 0 0 0 0 0 0 0 0 0 0 0 0 0 127 0" result="hardAlpha"/>
<feOffset dy="-0.195"/>
<feComposite in2="hardAlpha" operator="arithmetic" k2="-1" k3="1"/>
<feColorMatrix type="matrix" values="0 0 0 0 0 0 0 0 0 0 0 0 0 0 0 0 0 0 0.08 0"/>
<feBlend mode="normal" in2="shape" result="effect1_innerShadow_3183_2701"/>
</filter>
<linearGradient id="paint0_linear_3183_2701" x1="30.5199" y1="12.1908" x2="7.02506" y2="35.6856" gradientUnits="userSpaceOnUse">
<stop stop-color="#00A0FF"/>
<stop offset="0.0066" stop-color="#00A1FF"/>
<stop offset="0.2601" stop-color="#00BEFF"/>
<stop offset="0.5122" stop-color="#00D2FF"/>
<stop offset="0.7604" stop-color="#00DFFF"/>
<stop offset="1" stop-color="#00E3FF"/>
</linearGradient>
<linearGradient id="paint1_linear_3183_2701" x1="47.3669" y1="28.002" x2="13.4926" y2="28.002" gradientUnits="userSpaceOnUse">
<stop stop-color="#FFE000"/>
<stop offset="0.4087" stop-color="#FFBD00"/>
<stop offset="0.7754" stop-color="#FFA500"/>
<stop offset="1" stop-color="#FF9C00"/>
</linearGradient>
<linearGradient id="paint2_linear_3183_2701" x1="34.7583" y1="31.2115" x2="2.89643" y2="63.0734" gradientUnits="userSpaceOnUse">
<stop stop-color="#FF3A44"/>
<stop offset="1" stop-color="#C31162"/>
</linearGradient>
<linearGradient id="paint3_linear_3183_2701" x1="10.2153" y1="0.246319" x2="24.4426" y2="14.4735" gradientUnits="userSpaceOnUse">
<stop stop-color="#32A071"/>
<stop offset="0.0685" stop-color="#2DA771"/>
<stop offset="0.4762" stop-color="#15CF74"/>
<stop offset="0.8009" stop-color="#06E775"/>
<stop offset="1" stop-color="#00F076"/>
</linearGradient>
</defs>
</svg>
