<svg width="422" height="186" viewBox="0 0 422 186" fill="none" xmlns="http://www.w3.org/2000/svg">
<path d="M9.7187 15H8.2627L5.6307 7.23V15H3.9647V4.948H6.4287L9.0187 12.648L11.6087 4.948H14.0167V15H12.3507V7.23L9.7187 15ZM22.4659 11.332C22.4659 13.614 20.9959 15.154 18.9239 15.154C16.8519 15.154 15.3819 13.614 15.3819 11.332C15.3819 9.05 16.8519 7.51 18.9239 7.51C20.9959 7.51 22.4659 9.05 22.4659 11.332ZM17.0759 11.332C17.0759 12.83 17.7899 13.74 18.9239 13.74C20.0579 13.74 20.7719 12.83 20.7719 11.332C20.7719 9.834 20.0579 8.924 18.9239 8.924C17.7899 8.924 17.0759 9.834 17.0759 11.332ZM23.7736 15V7.65H25.4536V8.434C25.8736 7.944 26.5316 7.51 27.4836 7.51C29.0236 7.51 29.9476 8.574 29.9476 10.156V15H28.2676V10.646C28.2676 9.736 27.9036 9.078 26.9796 9.078C26.2236 9.078 25.4536 9.638 25.4536 10.688V15H23.7736ZM34.7703 15.154C32.6703 15.154 31.2003 13.6 31.2003 11.332C31.2003 9.176 32.6563 7.51 34.7003 7.51C36.8283 7.51 37.9623 9.12 37.9623 11.136V11.696H32.8103C32.9363 12.956 33.6923 13.726 34.7703 13.726C35.5963 13.726 36.2543 13.306 36.4783 12.55L37.9203 13.096C37.4023 14.384 36.2403 15.154 34.7703 15.154ZM34.6863 8.924C33.8183 8.924 33.1463 9.442 32.8943 10.436H36.2683C36.2543 9.624 35.7503 8.924 34.6863 8.924ZM42.2781 15.686C41.8581 16.806 41.2141 17.576 39.6881 17.576C39.3381 17.576 39.2401 17.562 39.0021 17.534V16.12C39.2261 16.148 39.3521 16.162 39.5621 16.162C40.1221 16.162 40.3881 16.008 40.6261 15.42L40.9061 14.734L38.2321 7.65H39.9961L41.8021 12.802L43.5661 7.65H45.3021L42.2781 15.686ZM46.2791 15V4.948H48.0711V13.432H52.8031V15H46.2791ZM53.8647 6.67V4.948H55.6007V6.67H53.8647ZM55.5727 7.65V15H53.8927V7.65H55.5727ZM57.3381 15V7.65H59.0181V8.434C59.4381 7.944 60.0961 7.51 61.0481 7.51C62.5881 7.51 63.5121 8.574 63.5121 10.156V15H61.8321V10.646C61.8321 9.736 61.4681 9.078 60.5441 9.078C59.7881 9.078 59.0181 9.638 59.0181 10.688V15H57.3381ZM66.9067 4.948V10.744L69.7347 7.65H71.7927L69.0207 10.506L72.0167 15H70.0707L67.8727 11.682L66.9067 12.662V15H65.2267V4.948H66.9067ZM9.86509 29.108V33H8.07309V22.948H12.0911C14.3311 22.948 15.7311 23.998 15.7311 26.028C15.7311 28.03 14.3311 29.108 12.0911 29.108H9.86509ZM9.86509 27.568H11.9931C13.2811 27.568 13.9671 27.008 13.9671 26.028C13.9671 25.034 13.2811 24.488 11.9931 24.488H9.86509V27.568ZM18.3921 22.948V33H16.7121V22.948H18.3921ZM22.1034 33.126C20.7034 33.126 19.6254 32.272 19.6254 30.956C19.6254 29.556 20.6754 28.94 22.0894 28.646L24.1194 28.226V28.1C24.1194 27.4 23.7554 26.966 22.8594 26.966C22.0614 26.966 21.6414 27.33 21.4454 28.044L19.8634 27.68C20.2274 26.462 21.3054 25.51 22.9294 25.51C24.6934 25.51 25.7574 26.35 25.7574 28.044V31.208C25.7574 31.628 25.9394 31.754 26.4014 31.698V33C25.1834 33.14 24.5394 32.902 24.2874 32.3C23.8254 32.818 23.0554 33.126 22.1034 33.126ZM24.1194 30.41V29.514L22.5374 29.85C21.8234 30.004 21.2914 30.228 21.2914 30.886C21.2914 31.46 21.7114 31.782 22.3554 31.782C23.2514 31.782 24.1194 31.306 24.1194 30.41ZM27.7489 31.152V27.078H26.7269V25.65H27.7489V23.494H29.4009V25.65H30.9409V27.078H29.4009V30.886C29.4009 31.544 29.7789 31.614 30.3809 31.614C30.6609 31.614 30.8149 31.6 31.0669 31.572V32.986C30.7589 33.042 30.3389 33.084 29.9049 33.084C28.5049 33.084 27.7489 32.65 27.7489 31.152ZM35.5906 22.808V24.278C35.3946 24.264 35.2966 24.264 35.0866 24.264C34.4286 24.264 34.0646 24.46 34.0646 25.3V25.65H35.5626V27.078H34.0646V33H32.3846V27.078H31.3626V25.65H32.3846V25.174C32.3846 23.648 33.2386 22.794 34.8906 22.794C35.1566 22.794 35.2826 22.794 35.5906 22.808ZM43.0763 29.332C43.0763 31.614 41.6063 33.154 39.5343 33.154C37.4623 33.154 35.9923 31.614 35.9923 29.332C35.9923 27.05 37.4623 25.51 39.5343 25.51C41.6063 25.51 43.0763 27.05 43.0763 29.332ZM37.6863 29.332C37.6863 30.83 38.4003 31.74 39.5343 31.74C40.6683 31.74 41.3823 30.83 41.3823 29.332C41.3823 27.834 40.6683 26.924 39.5343 26.924C38.4003 26.924 37.6863 27.834 37.6863 29.332ZM48.556 25.636V27.316C48.346 27.288 48.178 27.274 47.94 27.274C46.876 27.274 46.064 27.96 46.064 29.136V33H44.384V25.65H46.064V26.742C46.386 26.056 47.142 25.608 48.08 25.608C48.276 25.608 48.43 25.622 48.556 25.636ZM51.396 28.688V33H49.716V25.65H51.396V26.434C51.802 25.944 52.432 25.51 53.412 25.51C54.294 25.51 54.952 25.902 55.358 26.532C55.806 26.056 56.506 25.51 57.64 25.51C59.152 25.51 60.132 26.574 60.132 28.156V33H58.452V28.646C58.452 27.736 58.116 27.078 57.22 27.078C56.506 27.078 55.764 27.638 55.764 28.688V33H54.084V28.646C54.084 27.736 53.748 27.078 52.852 27.078C52.138 27.078 51.396 27.638 51.396 28.688ZM61.0729 31.6L62.3329 30.592C62.7669 31.306 63.6069 31.782 64.4609 31.782C65.1749 31.782 65.8329 31.53 65.8329 30.872C65.8329 30.242 65.2169 30.172 64.0549 29.934C62.8929 29.696 61.5629 29.402 61.5629 27.834C61.5629 26.49 62.7389 25.51 64.4329 25.51C65.7209 25.51 66.8689 26.084 67.4009 26.896L66.2669 27.918C65.8469 27.26 65.1469 26.882 64.3349 26.882C63.6489 26.882 63.2009 27.19 63.2009 27.68C63.2009 28.212 63.7329 28.31 64.6569 28.506C65.9029 28.772 67.4709 29.038 67.4709 30.718C67.4709 32.202 66.1129 33.154 64.4469 33.154C63.0889 33.154 61.7309 32.608 61.0729 31.6Z" fill="#4D148C"/>
<path d="M31 80L33.8868 75L28.1132 75L31 80ZM30.5 44L30.5 75.5L31.5 75.5L31.5 44L30.5 44Z" fill="#4D148C"/>
<path d="M102 115L97 112.113V117.887L102 115ZM66 115.5H97.5V114.5H66V115.5Z" fill="#4D148C"/>
<path d="M214 115L209 112.113V117.887L214 115ZM178 115.5H209.5V114.5H178V115.5Z" fill="#4D148C"/>
<path d="M335 115L330 112.113V117.887L335 115ZM299 115.5H330.5V114.5H299V115.5Z" fill="#4D148C"/>
<circle cx="255" cy="114" r="27.5" stroke="#4D148C"/>
<path d="M255.44 112.68C255.742 112.804 256.056 112.889 256.373 112.935L256.474 113.731C256.838 113.768 257.204 113.763 257.567 113.717C257.93 113.671 258.287 113.584 258.63 113.458L258.529 112.662C258.828 112.537 259.11 112.376 259.369 112.183L260.003 112.674C260.571 112.21 261.027 111.623 261.335 110.957L260.701 110.465C260.824 110.166 260.909 109.853 260.956 109.532L261.748 109.432C261.82 108.702 261.725 107.965 261.47 107.276L260.684 107.376C260.558 107.077 260.397 106.795 260.204 106.536L260.694 105.904C260.464 105.619 260.202 105.362 259.913 105.138C259.623 104.914 259.31 104.724 258.978 104.571L258.487 105.204C258.187 105.082 257.874 104.996 257.554 104.949L257.453 104.154C257.089 104.117 256.722 104.121 256.359 104.167C255.997 104.213 255.64 104.3 255.297 104.426L255.397 105.222C255.099 105.347 254.817 105.508 254.557 105.701L253.923 105.21C253.355 105.674 252.899 106.261 252.591 106.927L253.225 107.419C253.101 107.722 253.016 108.035 252.97 108.352L252.179 108.452C252.107 109.182 252.202 109.92 252.457 110.608L253.243 110.508C253.368 110.807 253.529 111.089 253.722 111.349L253.233 111.98C253.463 112.265 253.725 112.522 254.014 112.746C254.307 112.973 254.621 113.162 254.949 113.314L255.44 112.68ZM255.631 110.66C255.185 110.304 254.897 109.786 254.829 109.219C254.762 108.652 254.92 108.081 255.27 107.629C255.62 107.178 256.133 106.882 256.699 106.807C257.265 106.731 257.839 106.881 258.295 107.224C258.751 107.577 259.047 108.097 259.12 108.669C259.192 109.241 259.034 109.818 258.681 110.274C258.328 110.73 257.808 111.026 257.236 111.099C256.664 111.171 256.087 111.013 255.631 110.66ZM259.981 118.286C260.12 118.328 260.26 118.355 260.4 118.371L260.548 119.002C261.074 119.021 261.596 118.899 262.06 118.648L261.911 118.016C262.152 117.862 262.361 117.664 262.53 117.434L263.151 117.622C263.292 117.4 263.401 117.16 263.478 116.909C263.556 116.652 263.593 116.392 263.6 116.135L262.978 115.948C262.965 115.663 262.9 115.382 262.785 115.121L263.258 114.676C263.011 114.211 262.644 113.82 262.195 113.545L261.722 113.989C261.597 113.925 261.466 113.869 261.327 113.827C261.188 113.785 261.048 113.759 260.908 113.743L260.76 113.112C260.234 113.093 259.712 113.215 259.249 113.465L259.397 114.098C259.157 114.252 258.947 114.449 258.778 114.68L258.157 114.492C258.02 114.71 257.908 114.947 257.83 115.204C257.752 115.462 257.715 115.722 257.708 115.978L258.33 116.166C258.343 116.451 258.408 116.732 258.523 116.993L258.05 117.438C258.297 117.903 258.664 118.293 259.113 118.568L259.586 118.125C259.713 118.191 259.845 118.245 259.981 118.286ZM259.613 115.743C259.697 115.467 259.886 115.236 260.14 115.099C260.394 114.963 260.692 114.933 260.968 115.016C261.244 115.1 261.476 115.289 261.612 115.543C261.748 115.797 261.778 116.095 261.695 116.371C261.654 116.508 261.586 116.635 261.496 116.745C261.405 116.856 261.294 116.947 261.168 117.015C261.042 117.082 260.904 117.124 260.762 117.139C260.62 117.153 260.477 117.139 260.34 117.098C260.204 117.057 260.076 116.989 259.966 116.898C259.855 116.808 259.764 116.697 259.696 116.571C259.629 116.445 259.587 116.307 259.573 116.165C259.558 116.023 259.572 115.88 259.613 115.743Z" fill="#4D148C"/>
<path fill-rule="evenodd" clip-rule="evenodd" d="M249.572 122.455H249.563C247.854 122.443 246.194 122.415 245.725 122.407C243.454 122.367 242.575 121.204 242.236 120.235C241.755 118.858 242.015 116.911 242.967 114.755C243.831 112.798 245.149 110.968 246.492 109.861C246.568 109.799 246.665 109.769 246.762 109.779C246.86 109.788 246.949 109.836 247.012 109.911C247.114 110.036 250.672 110.128 252.057 110.227C252.033 110.119 252.057 110.003 252.133 109.911C252.195 109.836 252.284 109.788 252.382 109.779C252.479 109.769 252.576 109.799 252.651 109.861C253.995 110.968 255.313 112.798 256.176 114.755C257.129 116.912 257.389 118.858 256.907 120.235C256.569 121.204 255.689 122.367 253.418 122.407C252.452 122.423 250.936 122.445 249.575 122.455H249.572ZM246.964 108.082C246.801 108.082 246.653 107.974 246.609 107.809L245.475 103.58C245.445 103.469 245.469 103.351 245.538 103.26C245.608 103.168 245.716 103.115 245.831 103.115C246.271 103.115 246.639 103.405 246.995 103.685C247.24 103.878 247.518 104.097 247.701 104.097C247.886 104.097 248.163 103.878 248.409 103.685C248.765 103.405 249.133 103.115 249.572 103.115C250.012 103.115 250.38 103.405 250.735 103.685C250.98 103.878 251.258 104.097 251.442 104.097C251.626 104.097 251.904 103.878 252.149 103.685C252.505 103.405 252.873 103.115 253.313 103.115C253.427 103.115 253.535 103.168 253.605 103.26C253.675 103.351 253.699 103.469 253.669 103.58L252.535 107.809C252.523 107.856 252.501 107.9 252.472 107.938C252.442 107.977 252.406 108.009 252.364 108.033C252.322 108.057 252.275 108.073 252.227 108.079C252.179 108.085 252.131 108.082 252.084 108.07C251.888 108.017 251.77 108.481 251.823 108.284L251.897 108.01H247.247L247.321 108.284C247.373 108.481 247.257 108.017 247.06 108.07C247.028 108.079 246.995 108.082 246.964 108.082Z" fill="#FF5B02"/>
<path fill-rule="evenodd" clip-rule="evenodd" d="M252.486 110.513H246.647C245.773 110.513 245.062 109.802 245.062 108.929C245.062 108.054 245.773 107.344 246.647 107.344H252.486C253.36 107.344 254.07 108.054 254.07 108.929C254.07 109.802 253.359 110.513 252.486 110.513Z" fill="#DC5206"/>
<path d="M253.022 116.925H252.006V115.948H253.022C253.175 115.948 253.299 115.824 253.299 115.672C253.299 115.519 253.175 115.395 253.022 115.395H252.006V114.039C252.006 113.841 251.967 113.696 251.889 113.608C251.816 113.524 251.72 113.484 251.586 113.484C251.459 113.484 251.366 113.523 251.295 113.607C251.218 113.695 251.18 113.841 251.18 114.039V115.395H249.267L248.454 114.165C248.389 114.061 248.322 113.957 248.256 113.853C248.199 113.765 248.143 113.692 248.09 113.638C248.043 113.59 247.99 113.553 247.928 113.525C247.869 113.498 247.795 113.484 247.707 113.484C247.594 113.484 247.492 113.515 247.394 113.579C247.297 113.641 247.23 113.719 247.189 113.816C247.154 113.907 247.135 114.048 247.135 114.23V115.395H246.128C245.975 115.395 245.852 115.519 245.852 115.672C245.852 115.824 245.975 115.948 246.128 115.948H247.135V116.925H246.128C245.975 116.925 245.852 117.049 245.852 117.202C245.852 117.355 245.975 117.478 246.128 117.478H247.135V119.026C247.135 119.218 247.175 119.362 247.255 119.453C247.331 119.54 247.427 119.581 247.558 119.581C247.684 119.581 247.78 119.54 247.859 119.453C247.94 119.363 247.982 119.22 247.982 119.026V117.478H249.712L250.648 118.914C250.714 119.01 250.78 119.105 250.848 119.199C250.908 119.283 250.974 119.357 251.044 119.42C251.107 119.476 251.174 119.517 251.244 119.542C251.316 119.568 251.4 119.581 251.493 119.581C251.746 119.581 252.006 119.503 252.006 118.929V117.478H253.022C253.175 117.478 253.299 117.354 253.299 117.202C253.299 117.049 253.175 116.925 253.022 116.925ZM251.18 115.948V116.925H250.279L249.633 115.948H251.18ZM247.982 114.825L248.353 115.395H247.982V114.825ZM247.982 116.925V115.948H248.714L249.351 116.925H247.982ZM251.18 118.289L250.644 117.478H251.18V118.289Z" fill="#4D148C"/>
<path d="M240.551 165V154.948H242.343V163.432H247.075V165H240.551ZM254.65 161.332C254.65 163.614 253.18 165.154 251.108 165.154C249.036 165.154 247.566 163.614 247.566 161.332C247.566 159.05 249.036 157.51 251.108 157.51C253.18 157.51 254.65 159.05 254.65 161.332ZM249.26 161.332C249.26 162.83 249.974 163.74 251.108 163.74C252.242 163.74 252.956 162.83 252.956 161.332C252.956 159.834 252.242 158.924 251.108 158.924C249.974 158.924 249.26 159.834 249.26 161.332ZM257.903 165.126C256.503 165.126 255.425 164.272 255.425 162.956C255.425 161.556 256.475 160.94 257.889 160.646L259.919 160.226V160.1C259.919 159.4 259.555 158.966 258.659 158.966C257.861 158.966 257.441 159.33 257.245 160.044L255.663 159.68C256.027 158.462 257.105 157.51 258.729 157.51C260.493 157.51 261.557 158.35 261.557 160.044V163.208C261.557 163.628 261.739 163.754 262.201 163.698V165C260.983 165.14 260.339 164.902 260.087 164.3C259.625 164.818 258.855 165.126 257.903 165.126ZM259.919 162.41V161.514L258.337 161.85C257.623 162.004 257.091 162.228 257.091 162.886C257.091 163.46 257.511 163.782 258.155 163.782C259.051 163.782 259.919 163.306 259.919 162.41ZM263.395 165V157.65H265.075V158.434C265.495 157.944 266.153 157.51 267.105 157.51C268.645 157.51 269.569 158.574 269.569 160.156V165H267.889V160.646C267.889 159.736 267.525 159.078 266.601 159.078C265.845 159.078 265.075 159.638 265.075 160.688V165H263.395ZM220.26 183H218.804L216.172 175.23V183H214.506V172.948H216.97L219.56 180.648L222.15 172.948H224.558V183H222.892V175.23L220.26 183ZM228.331 183.126C226.931 183.126 225.853 182.272 225.853 180.956C225.853 179.556 226.903 178.94 228.317 178.646L230.347 178.226V178.1C230.347 177.4 229.983 176.966 229.087 176.966C228.289 176.966 227.869 177.33 227.673 178.044L226.091 177.68C226.455 176.462 227.533 175.51 229.157 175.51C230.921 175.51 231.985 176.35 231.985 178.044V181.208C231.985 181.628 232.167 181.754 232.629 181.698V183C231.411 183.14 230.767 182.902 230.515 182.3C230.053 182.818 229.283 183.126 228.331 183.126ZM230.347 180.41V179.514L228.765 179.85C228.051 180.004 227.519 180.228 227.519 180.886C227.519 181.46 227.939 181.782 228.583 181.782C229.479 181.782 230.347 181.306 230.347 180.41ZM233.822 183V175.65H235.502V176.434C235.922 175.944 236.58 175.51 237.532 175.51C239.072 175.51 239.996 176.574 239.996 178.156V183H238.316V178.646C238.316 177.736 237.952 177.078 237.028 177.078C236.272 177.078 235.502 177.638 235.502 178.688V183H233.822ZM243.657 183.126C242.257 183.126 241.179 182.272 241.179 180.956C241.179 179.556 242.229 178.94 243.643 178.646L245.673 178.226V178.1C245.673 177.4 245.309 176.966 244.413 176.966C243.615 176.966 243.195 177.33 242.999 178.044L241.417 177.68C241.781 176.462 242.859 175.51 244.483 175.51C246.247 175.51 247.311 176.35 247.311 178.044V181.208C247.311 181.628 247.493 181.754 247.955 181.698V183C246.737 183.14 246.093 182.902 245.841 182.3C245.379 182.818 244.609 183.126 243.657 183.126ZM245.673 180.41V179.514L244.091 179.85C243.377 180.004 242.845 180.228 242.845 180.886C242.845 181.46 243.265 181.782 243.909 181.782C244.805 181.782 245.673 181.306 245.673 180.41ZM255.687 182.258C255.687 184.428 254.203 185.674 252.103 185.674C250.409 185.674 249.219 184.96 248.757 183.532L250.325 182.972C250.549 183.798 251.179 184.316 252.103 184.316C253.237 184.316 254.007 183.756 254.007 182.412V181.894C253.615 182.412 252.873 182.818 251.935 182.818C249.919 182.818 248.715 181.18 248.715 179.164C248.715 177.148 249.919 175.51 251.935 175.51C252.859 175.51 253.615 175.916 254.007 176.434V175.65H255.687V182.258ZM254.035 179.094C254.035 177.75 253.307 176.98 252.257 176.98C251.095 176.98 250.409 177.792 250.409 179.164C250.409 180.522 251.095 181.348 252.257 181.348C253.307 181.348 254.035 180.578 254.035 179.262V179.094ZM260.569 183.154C258.469 183.154 256.999 181.6 256.999 179.332C256.999 177.176 258.455 175.51 260.499 175.51C262.627 175.51 263.761 177.12 263.761 179.136V179.696H258.609C258.735 180.956 259.491 181.726 260.569 181.726C261.395 181.726 262.053 181.306 262.277 180.55L263.719 181.096C263.201 182.384 262.039 183.154 260.569 183.154ZM260.485 176.924C259.617 176.924 258.945 177.442 258.693 178.436H262.067C262.053 177.624 261.549 176.924 260.485 176.924ZM266.702 178.688V183H265.022V175.65H266.702V176.434C267.108 175.944 267.738 175.51 268.718 175.51C269.6 175.51 270.258 175.902 270.664 176.532C271.112 176.056 271.812 175.51 272.946 175.51C274.458 175.51 275.438 176.574 275.438 178.156V183H273.758V178.646C273.758 177.736 273.422 177.078 272.526 177.078C271.812 177.078 271.07 177.638 271.07 178.688V183H269.39V178.646C269.39 177.736 269.054 177.078 268.158 177.078C267.444 177.078 266.702 177.638 266.702 178.688ZM280.257 183.154C278.157 183.154 276.687 181.6 276.687 179.332C276.687 177.176 278.143 175.51 280.187 175.51C282.315 175.51 283.449 177.12 283.449 179.136V179.696H278.297C278.423 180.956 279.179 181.726 280.257 181.726C281.083 181.726 281.741 181.306 281.965 180.55L283.407 181.096C282.889 182.384 281.727 183.154 280.257 183.154ZM280.173 176.924C279.305 176.924 278.633 177.442 278.381 178.436H281.755C281.741 177.624 281.237 176.924 280.173 176.924ZM284.709 183V175.65H286.389V176.434C286.809 175.944 287.467 175.51 288.419 175.51C289.959 175.51 290.883 176.574 290.883 178.156V183H289.203V178.646C289.203 177.736 288.839 177.078 287.915 177.078C287.159 177.078 286.389 177.638 286.389 178.688V183H284.709ZM292.752 181.152V177.078H291.73V175.65H292.752V173.494H294.404V175.65H295.944V177.078H294.404V180.886C294.404 181.544 294.782 181.614 295.384 181.614C295.664 181.614 295.818 181.6 296.07 181.572V182.986C295.762 183.042 295.342 183.084 294.908 183.084C293.508 183.084 292.752 182.65 292.752 181.152Z" fill="#4D148C"/>
<path d="M18.1459 159.974C18.1459 162.144 19.3219 163.572 20.9739 163.572C22.1499 163.572 23.0039 162.858 23.3119 161.682L24.9919 162.256C24.4039 164.034 23.0039 165.154 20.9739 165.154C18.2999 165.154 16.3539 163.026 16.3539 159.974C16.3539 156.922 18.2999 154.794 20.9739 154.794C23.0039 154.794 24.4039 155.914 24.9919 157.692L23.3119 158.266C23.0039 157.09 22.1499 156.376 20.9739 156.376C19.3219 156.376 18.1459 157.804 18.1459 159.974ZM28.0858 165.126C26.6858 165.126 25.6078 164.272 25.6078 162.956C25.6078 161.556 26.6578 160.94 28.0718 160.646L30.1018 160.226V160.1C30.1018 159.4 29.7378 158.966 28.8418 158.966C28.0438 158.966 27.6238 159.33 27.4278 160.044L25.8458 159.68C26.2098 158.462 27.2878 157.51 28.9118 157.51C30.6758 157.51 31.7398 158.35 31.7398 160.044V163.208C31.7398 163.628 31.9218 163.754 32.3838 163.698V165C31.1658 165.14 30.5218 164.902 30.2698 164.3C29.8078 164.818 29.0378 165.126 28.0858 165.126ZM30.1018 162.41V161.514L28.5198 161.85C27.8058 162.004 27.2738 162.228 27.2738 162.886C27.2738 163.46 27.6938 163.782 28.3378 163.782C29.2338 163.782 30.1018 163.306 30.1018 162.41ZM37.7493 157.636V159.316C37.5393 159.288 37.3713 159.274 37.1333 159.274C36.0693 159.274 35.2573 159.96 35.2573 161.136V165H33.5773V157.65H35.2573V158.742C35.5793 158.056 36.3353 157.608 37.2733 157.608C37.4693 157.608 37.6233 157.622 37.7493 157.636ZM41.4079 165.154C39.3499 165.154 38.1739 163.418 38.1739 161.332C38.1739 159.246 39.3499 157.51 41.4079 157.51C42.3599 157.51 43.0599 157.888 43.5219 158.434V154.948H45.2019V165H43.5219V164.23C43.0599 164.776 42.3599 165.154 41.4079 165.154ZM43.5639 161.122C43.5639 159.736 42.7799 158.98 41.7439 158.98C40.5259 158.98 39.8679 159.932 39.8679 161.332C39.8679 162.732 40.5259 163.684 41.7439 163.684C42.7799 163.684 43.5639 162.914 43.5639 161.556V161.122ZM11.2128 172.948V183H9.42075V172.948H11.2128ZM12.2722 181.6L13.5322 180.592C13.9662 181.306 14.8062 181.782 15.6602 181.782C16.3742 181.782 17.0322 181.53 17.0322 180.872C17.0322 180.242 16.4162 180.172 15.2542 179.934C14.0922 179.696 12.7622 179.402 12.7622 177.834C12.7622 176.49 13.9382 175.51 15.6322 175.51C16.9202 175.51 18.0682 176.084 18.6002 176.896L17.4662 177.918C17.0462 177.26 16.3462 176.882 15.5342 176.882C14.8482 176.882 14.4002 177.19 14.4002 177.68C14.4002 178.212 14.9322 178.31 15.8562 178.506C17.1022 178.772 18.6702 179.038 18.6702 180.718C18.6702 182.202 17.3122 183.154 15.6462 183.154C14.2882 183.154 12.9302 182.608 12.2722 181.6ZM19.1901 181.6L20.4501 180.592C20.8841 181.306 21.7241 181.782 22.5781 181.782C23.2921 181.782 23.9501 181.53 23.9501 180.872C23.9501 180.242 23.3341 180.172 22.1721 179.934C21.0101 179.696 19.6801 179.402 19.6801 177.834C19.6801 176.49 20.8561 175.51 22.5501 175.51C23.8381 175.51 24.9861 176.084 25.5181 176.896L24.3841 177.918C23.9641 177.26 23.2641 176.882 22.4521 176.882C21.7661 176.882 21.3181 177.19 21.3181 177.68C21.3181 178.212 21.8501 178.31 22.7741 178.506C24.0201 178.772 25.5881 179.038 25.5881 180.718C25.5881 182.202 24.2301 183.154 22.5641 183.154C21.2061 183.154 19.8481 182.608 19.1901 181.6ZM32.9961 175.65V183H31.3161V182.216C30.8961 182.706 30.2661 183.154 29.3141 183.154C27.7741 183.154 26.8221 182.104 26.8221 180.522V175.65H28.5021V180.158C28.5021 181.054 28.8941 181.628 29.8041 181.628C30.5601 181.628 31.3161 181.068 31.3161 180.018V175.65H32.9961ZM34.7388 174.67V172.948H36.4748V174.67H34.7388ZM36.4468 175.65V183H34.7668V175.65H36.4468ZM38.2121 183V175.65H39.8921V176.434C40.3121 175.944 40.9701 175.51 41.9221 175.51C43.4621 175.51 44.3861 176.574 44.3861 178.156V183H42.7061V178.646C42.7061 177.736 42.3421 177.078 41.4181 177.078C40.6621 177.078 39.8921 177.638 39.8921 178.688V183H38.2121ZM52.6388 182.258C52.6388 184.428 51.1548 185.674 49.0548 185.674C47.3608 185.674 46.1708 184.96 45.7088 183.532L47.2767 182.972C47.5008 183.798 48.1308 184.316 49.0548 184.316C50.1888 184.316 50.9588 183.756 50.9588 182.412V181.894C50.5668 182.412 49.8248 182.818 48.8868 182.818C46.8708 182.818 45.6668 181.18 45.6668 179.164C45.6668 177.148 46.8708 175.51 48.8868 175.51C49.8108 175.51 50.5668 175.916 50.9588 176.434V175.65H52.6388V182.258ZM50.9868 179.094C50.9868 177.75 50.2588 176.98 49.2088 176.98C48.0468 176.98 47.3608 177.792 47.3608 179.164C47.3608 180.522 48.0468 181.348 49.2088 181.348C50.2588 181.348 50.9868 180.578 50.9868 179.262V179.094Z" fill="#4D148C"/>
<circle cx="136" cy="114" r="27.5" stroke="#4D148C"/>
<path d="M125 124.685V125.365C125 125.648 125 125.658 125.992 125.658H133.5H140.5C141 125.658 141.151 125.648 141.179 125.365V124.685C141.179 121.341 138.969 118.423 135.767 117.488C136.759 116.949 137.553 116.099 138.034 115.107C138.459 115.447 138.941 115.702 139.423 115.872V116.496C139.423 117.204 139.989 117.799 140.726 117.799H141.86C142.568 117.799 143.163 117.233 143.163 116.496V115.872C143.73 115.674 144.24 115.362 144.721 114.994L145.26 115.306C145.883 115.646 146.677 115.447 147.017 114.824L147.583 113.861C147.952 113.237 147.725 112.444 147.102 112.076L146.563 111.764C146.62 111.481 146.648 111.169 146.648 110.885C146.648 110.602 146.62 110.29 146.563 110.007L147.102 109.695C147.725 109.355 147.952 108.562 147.583 107.939C147.555 107.91 147.47 107.769 147.017 106.975C146.648 106.352 145.883 106.153 145.26 106.493L144.721 106.805C144.268 106.437 143.73 106.125 143.163 105.927V105.303C143.163 104.595 142.596 104 141.86 104H140.726C140.018 104 139.423 104.567 139.423 105.303V105.927C138.856 106.125 138.346 106.437 137.864 106.805L137.326 106.494C136.702 106.154 135.909 106.352 135.569 106.975L135.172 107.655C134.521 107.372 133.812 107.259 133.104 107.259C130.1 107.259 127.635 109.667 127.635 112.671C127.635 114.654 128.712 116.496 130.44 117.459C127.21 118.394 125 121.341 125 124.685ZM136.391 107.485C136.476 107.344 136.646 107.287 136.816 107.372L137.666 107.854C137.864 107.967 138.091 107.939 138.261 107.797C138.771 107.315 139.366 106.975 140.046 106.777C140.244 106.72 140.414 106.522 140.414 106.295V105.332C140.414 105.162 140.556 105.02 140.726 105.02H141.86C142.03 105.02 142.171 105.162 142.171 105.332V106.295C142.171 106.522 142.313 106.72 142.54 106.777C143.191 106.975 143.815 107.315 144.325 107.797C144.495 107.939 144.721 107.967 144.92 107.854L145.77 107.372C145.912 107.287 146.11 107.344 146.195 107.485L146.762 108.449C146.847 108.59 146.79 108.789 146.648 108.845L145.798 109.327C145.6 109.44 145.515 109.667 145.571 109.865C145.741 110.545 145.741 111.226 145.571 111.906C145.515 112.132 145.628 112.359 145.798 112.444L146.648 112.926C146.79 113.011 146.846 113.181 146.762 113.351L146.195 114.314C146.11 114.456 145.94 114.512 145.798 114.427L144.948 113.946C144.75 113.832 144.523 113.861 144.353 114.002C143.843 114.484 143.248 114.824 142.568 115.022C142.341 115.079 142.2 115.277 142.2 115.504V116.467C142.2 116.637 142.058 116.779 141.888 116.779H140.754C140.584 116.779 140.443 116.638 140.443 116.467V115.504C140.443 115.277 140.301 115.079 140.074 115.022C139.451 114.852 138.884 114.541 138.402 114.116C138.516 113.662 138.572 113.124 138.572 112.727C138.572 110.8 137.552 109.1 136.051 108.137L136.391 107.485ZM128.599 112.699C128.599 110.234 130.61 108.25 133.076 108.25C135.541 108.25 137.553 110.262 137.553 112.699C137.553 115.022 135.796 117.176 133.047 117.176C130.61 117.176 128.599 115.164 128.599 112.699ZM132.509 118.168H133.642C137.241 118.168 140.159 121.086 140.159 124.685H125.992C125.992 121.086 128.91 118.168 132.509 118.168Z" fill="#4D148C"/>
<path d="M141.261 113.686C142.791 113.686 144.01 112.439 144.01 110.909C144.01 109.379 142.763 108.16 141.233 108.16C139.703 108.16 138.484 109.407 138.484 110.937C138.484 112.439 139.731 113.686 141.261 113.686ZM141.261 109.152C142.253 109.152 143.018 109.974 143.018 110.937C143.018 111.929 142.196 112.694 141.233 112.694C140.269 112.694 139.476 111.9 139.476 110.909C139.476 109.917 140.269 109.123 141.261 109.152Z" fill="#FF5B02"/>
<circle cx="141.3" cy="110.765" r="2.8" fill="#FF5B02"/>
<path d="M113.684 154.948H115.714L119.522 165H117.716L116.848 162.704H112.508L111.654 165H109.876L113.684 154.948ZM114.664 156.936L113.096 161.136H116.26L114.664 156.936ZM121.407 161.332C121.407 162.83 122.191 163.698 123.339 163.698C124.235 163.698 124.781 163.11 124.991 162.298L126.433 163.026C126.055 164.216 124.935 165.154 123.339 165.154C121.239 165.154 119.727 163.6 119.727 161.332C119.727 159.064 121.239 157.51 123.339 157.51C124.921 157.51 126.013 158.406 126.405 159.582L124.991 160.352C124.781 159.554 124.235 158.952 123.339 158.952C122.191 158.952 121.407 159.834 121.407 161.332ZM128.666 161.332C128.666 162.83 129.45 163.698 130.598 163.698C131.494 163.698 132.04 163.11 132.25 162.298L133.692 163.026C133.314 164.216 132.194 165.154 130.598 165.154C128.498 165.154 126.986 163.6 126.986 161.332C126.986 159.064 128.498 157.51 130.598 157.51C132.18 157.51 133.272 158.406 133.664 159.582L132.25 160.352C132.04 159.554 131.494 158.952 130.598 158.952C129.45 158.952 128.666 159.834 128.666 161.332ZM141.33 161.332C141.33 163.614 139.86 165.154 137.788 165.154C135.716 165.154 134.246 163.614 134.246 161.332C134.246 159.05 135.716 157.51 137.788 157.51C139.86 157.51 141.33 159.05 141.33 161.332ZM135.94 161.332C135.94 162.83 136.654 163.74 137.788 163.74C138.922 163.74 139.636 162.83 139.636 161.332C139.636 159.834 138.922 158.924 137.788 158.924C136.654 158.924 135.94 159.834 135.94 161.332ZM148.756 157.65V165H147.076V164.216C146.656 164.706 146.026 165.154 145.074 165.154C143.534 165.154 142.582 164.104 142.582 162.522V157.65H144.262V162.158C144.262 163.054 144.654 163.628 145.564 163.628C146.32 163.628 147.076 163.068 147.076 162.018V157.65H148.756ZM150.527 165V157.65H152.207V158.434C152.627 157.944 153.285 157.51 154.237 157.51C155.777 157.51 156.701 158.574 156.701 160.156V165H155.021V160.646C155.021 159.736 154.657 159.078 153.733 159.078C152.977 159.078 152.207 159.638 152.207 160.688V165H150.527ZM158.569 163.152V159.078H157.547V157.65H158.569V155.494H160.221V157.65H161.761V159.078H160.221V162.886C160.221 163.544 160.599 163.614 161.201 163.614C161.481 163.614 161.635 163.6 161.887 163.572V164.986C161.579 165.042 161.159 165.084 160.725 165.084C159.325 165.084 158.569 164.65 158.569 163.152ZM101.26 183H99.8037L97.1717 175.23V183H95.5057V172.948H97.9697L100.56 180.648L103.15 172.948H105.558V183H103.892V175.23L101.26 183ZM109.331 183.126C107.931 183.126 106.853 182.272 106.853 180.956C106.853 179.556 107.903 178.94 109.317 178.646L111.347 178.226V178.1C111.347 177.4 110.983 176.966 110.087 176.966C109.289 176.966 108.869 177.33 108.673 178.044L107.091 177.68C107.455 176.462 108.533 175.51 110.157 175.51C111.921 175.51 112.985 176.35 112.985 178.044V181.208C112.985 181.628 113.167 181.754 113.629 181.698V183C112.411 183.14 111.767 182.902 111.515 182.3C111.053 182.818 110.283 183.126 109.331 183.126ZM111.347 180.41V179.514L109.765 179.85C109.051 180.004 108.519 180.228 108.519 180.886C108.519 181.46 108.939 181.782 109.583 181.782C110.479 181.782 111.347 181.306 111.347 180.41ZM114.822 183V175.65H116.502V176.434C116.922 175.944 117.58 175.51 118.532 175.51C120.072 175.51 120.996 176.574 120.996 178.156V183H119.316V178.646C119.316 177.736 118.952 177.078 118.028 177.078C117.272 177.078 116.502 177.638 116.502 178.688V183H114.822ZM124.657 183.126C123.257 183.126 122.179 182.272 122.179 180.956C122.179 179.556 123.229 178.94 124.643 178.646L126.673 178.226V178.1C126.673 177.4 126.309 176.966 125.413 176.966C124.615 176.966 124.195 177.33 123.999 178.044L122.417 177.68C122.781 176.462 123.859 175.51 125.483 175.51C127.247 175.51 128.311 176.35 128.311 178.044V181.208C128.311 181.628 128.493 181.754 128.955 181.698V183C127.737 183.14 127.093 182.902 126.841 182.3C126.379 182.818 125.609 183.126 124.657 183.126ZM126.673 180.41V179.514L125.091 179.85C124.377 180.004 123.845 180.228 123.845 180.886C123.845 181.46 124.265 181.782 124.909 181.782C125.805 181.782 126.673 181.306 126.673 180.41ZM136.687 182.258C136.687 184.428 135.203 185.674 133.103 185.674C131.409 185.674 130.219 184.96 129.757 183.532L131.325 182.972C131.549 183.798 132.179 184.316 133.103 184.316C134.237 184.316 135.007 183.756 135.007 182.412V181.894C134.615 182.412 133.873 182.818 132.935 182.818C130.919 182.818 129.715 181.18 129.715 179.164C129.715 177.148 130.919 175.51 132.935 175.51C133.859 175.51 134.615 175.916 135.007 176.434V175.65H136.687V182.258ZM135.035 179.094C135.035 177.75 134.307 176.98 133.257 176.98C132.095 176.98 131.409 177.792 131.409 179.164C131.409 180.522 132.095 181.348 133.257 181.348C134.307 181.348 135.035 180.578 135.035 179.262V179.094ZM141.569 183.154C139.469 183.154 137.999 181.6 137.999 179.332C137.999 177.176 139.455 175.51 141.499 175.51C143.627 175.51 144.761 177.12 144.761 179.136V179.696H139.609C139.735 180.956 140.491 181.726 141.569 181.726C142.395 181.726 143.053 181.306 143.277 180.55L144.719 181.096C144.201 182.384 143.039 183.154 141.569 183.154ZM141.485 176.924C140.617 176.924 139.945 177.442 139.693 178.436H143.067C143.053 177.624 142.549 176.924 141.485 176.924ZM147.702 178.688V183H146.022V175.65H147.702V176.434C148.108 175.944 148.738 175.51 149.718 175.51C150.6 175.51 151.258 175.902 151.664 176.532C152.112 176.056 152.812 175.51 153.946 175.51C155.458 175.51 156.438 176.574 156.438 178.156V183H154.758V178.646C154.758 177.736 154.422 177.078 153.526 177.078C152.812 177.078 152.07 177.638 152.07 178.688V183H150.39V178.646C150.39 177.736 150.054 177.078 149.158 177.078C148.444 177.078 147.702 177.638 147.702 178.688ZM161.257 183.154C159.157 183.154 157.687 181.6 157.687 179.332C157.687 177.176 159.143 175.51 161.187 175.51C163.315 175.51 164.449 177.12 164.449 179.136V179.696H159.297C159.423 180.956 160.179 181.726 161.257 181.726C162.083 181.726 162.741 181.306 162.965 180.55L164.407 181.096C163.889 182.384 162.727 183.154 161.257 183.154ZM161.173 176.924C160.305 176.924 159.633 177.442 159.381 178.436H162.755C162.741 177.624 162.237 176.924 161.173 176.924ZM165.709 183V175.65H167.389V176.434C167.809 175.944 168.467 175.51 169.419 175.51C170.959 175.51 171.883 176.574 171.883 178.156V183H170.203V178.646C170.203 177.736 169.839 177.078 168.915 177.078C168.159 177.078 167.389 177.638 167.389 178.688V183H165.709ZM173.752 181.152V177.078H172.73V175.65H173.752V173.494H175.404V175.65H176.944V177.078H175.404V180.886C175.404 181.544 175.782 181.614 176.384 181.614C176.664 181.614 176.818 181.6 177.07 181.572V182.986C176.762 183.042 176.342 183.084 175.908 183.084C174.508 183.084 173.752 182.65 173.752 181.152Z" fill="#4D148C"/>
<circle cx="377" cy="114" r="27.5" stroke="#4D148C"/>
<path d="M380.591 128.279L386.931 124.714L388.131 126.724L381.54 130.388L380.591 128.279Z" fill="#4D148C" stroke="#4D148C"/>
<mask id="path-20-inside-1_3183_3386" fill="white">
<path fill-rule="evenodd" clip-rule="evenodd" d="M368.102 100.789H366.5C365.672 100.789 365 101.461 365 102.289V111.003C365 111.831 365.672 112.503 366.5 112.503H376.936C377.765 112.503 378.436 111.831 378.436 111.003V102.289C378.436 101.461 377.765 100.789 376.936 100.789H374.647V102.512H368.102V100.789Z"/>
</mask>
<path fill-rule="evenodd" clip-rule="evenodd" d="M368.102 100.789H366.5C365.672 100.789 365 101.461 365 102.289V111.003C365 111.831 365.672 112.503 366.5 112.503H376.936C377.765 112.503 378.436 111.831 378.436 111.003V102.289C378.436 101.461 377.765 100.789 376.936 100.789H374.647V102.512H368.102V100.789Z" fill="#4D148C"/>
<path d="M368.102 100.789H369.102V99.7891H368.102V100.789ZM374.647 100.789V99.7891H373.647V100.789H374.647ZM374.647 102.512V103.512H375.647V102.512H374.647ZM368.102 102.512H367.102V103.512H368.102V102.512ZM366.5 101.789H368.102V99.7891H366.5V101.789ZM366 102.289C366 102.013 366.224 101.789 366.5 101.789V99.7891C365.119 99.7891 364 100.908 364 102.289H366ZM366 111.003V102.289H364V111.003H366ZM366.5 111.503C366.224 111.503 366 111.279 366 111.003H364C364 112.383 365.119 113.503 366.5 113.503V111.503ZM376.936 111.503H366.5V113.503H376.936V111.503ZM377.436 111.003C377.436 111.279 377.212 111.503 376.936 111.503V113.503C378.317 113.503 379.436 112.383 379.436 111.003H377.436ZM377.436 102.289V111.003H379.436V102.289H377.436ZM376.936 101.789C377.212 101.789 377.436 102.013 377.436 102.289H379.436C379.436 100.908 378.317 99.7891 376.936 99.7891V101.789ZM374.647 101.789H376.936V99.7891H374.647V101.789ZM373.647 100.789V102.512H375.647V100.789H373.647ZM374.647 101.512H368.102V103.512H374.647V101.512ZM369.102 102.512V100.789H367.102V102.512H369.102Z" fill="#4D148C" mask="url(#path-20-inside-1_3183_3386)"/>
<rect x="366.719" y="103.545" width="9.99104" height="5.5123" rx="0.5" fill="#FFD5BE"/>
<rect x="368.102" y="100.789" width="1.37807" height="1.03356" fill="#FFD5BE"/>
<rect x="373.609" y="100.789" width="1.03356" height="1.03356" fill="#FFD5BE"/>
<path d="M365.344 112.848H378.091V120.994C378.091 121.823 377.419 122.494 376.591 122.494H366.844C366.015 122.494 365.344 121.823 365.344 120.994V112.848Z" fill="#4D148C"/>
<rect x="367.506" y="122.594" width="5.3123" height="1.17807" rx="0.4" fill="#4D148C" stroke="#FFD5BE" stroke-width="0.2"/>
<rect x="366.375" y="110.092" width="2.41163" height="1.37807" fill="#FF5900"/>
<rect x="367.234" y="110.438" width="0.689037" height="0.689037" rx="0.1" fill="#4D148C"/>
<rect x="366.375" y="114.227" width="2.41163" height="1.37807" fill="#FF5900"/>
<rect x="367.234" y="114.57" width="0.689037" height="0.689037" rx="0.1" fill="#4D148C"/>
<rect x="370.164" y="114.227" width="2.41163" height="1.37807" fill="#FF5900"/>
<rect x="371.023" y="114.57" width="0.689037" height="0.689037" rx="0.1" fill="#4D148C"/>
<rect x="370.164" y="116.637" width="2.41163" height="1.37807" fill="#FF5900"/>
<rect x="371.023" y="116.98" width="0.689037" height="0.689037" rx="0.1" fill="#4D148C"/>
<rect x="370.164" y="119.049" width="2.41163" height="1.37807" fill="#FF5900"/>
<rect x="371.023" y="119.395" width="0.689037" height="0.689037" rx="0.1" fill="#4D148C"/>
<rect x="366.375" y="116.637" width="2.41163" height="1.37807" fill="#FF5900"/>
<rect x="367.234" y="116.98" width="0.689037" height="0.689037" rx="0.1" fill="#4D148C"/>
<rect x="366.375" y="119.049" width="2.41163" height="1.37807" fill="#FF5900"/>
<rect x="367.234" y="119.395" width="0.689037" height="0.689037" rx="0.1" fill="#4D148C"/>
<rect x="370.164" y="110.092" width="2.41163" height="1.37807" fill="#FF5900"/>
<rect x="371.023" y="110.438" width="0.689037" height="0.689037" rx="0.1" fill="#4D148C"/>
<mask id="path-43-inside-2_3183_3386" fill="white">
<rect x="368.789" y="97.3438" width="5.16778" height="4.47874" rx="0.5"/>
</mask>
<rect x="368.789" y="97.3438" width="5.16778" height="4.47874" rx="0.5" fill="#4D148C" stroke="#4D148C" stroke-width="2" mask="url(#path-43-inside-2_3183_3386)"/>
<path d="M379.465 127.146L374.125 123.528C378.18 123.785 380.326 123.528 382.049 122.667C382.404 118.31 382.566 114.915 382.049 112.848C381.996 110.646 383.599 109.92 383.772 110.436C383.944 110.953 384.461 114.571 385.494 116.638C386.528 118.705 386.011 123.528 386.011 123.528L379.465 127.146Z" fill="#4D148C" stroke="#4D148C"/>
<rect x="372.391" y="107.146" width="8.99104" height="15.8814" rx="0.5" fill="#FF5900" stroke="#FF5900"/>
<rect x="373.266" y="109.402" width="7.23489" height="11.7136" fill="#FFD5BE"/>
<rect x="375.68" y="107.68" width="2.41163" height="0.689037" fill="#FFD5BE"/>
<rect x="376.023" y="121.461" width="1.37807" height="0.689037" fill="#FFD5BE"/>
<rect x="385.672" y="126.4" width="1.37807" height="1.03356" transform="rotate(-35.7336 385.672 126.4)" fill="#FFD5BE"/>
<path d="M376.893 117.08C377.226 117.08 377.497 116.81 377.497 116.477C377.497 116.143 377.226 115.873 376.893 115.873C376.559 115.873 376.289 116.143 376.289 116.477C376.289 116.81 376.559 117.08 376.893 117.08Z" fill="#FF5900"/>
<path d="M378.335 115.022C378.326 115.012 378.317 115.004 378.308 114.996L378.281 114.97C378.276 114.965 378.271 114.962 378.265 114.957C377.891 114.616 377.399 114.432 376.892 114.444C376.386 114.456 375.903 114.663 375.545 115.021L375.458 115.109L375.337 115.23C375.266 115.301 375.226 115.397 375.227 115.498C375.227 115.598 375.267 115.694 375.338 115.765C375.373 115.8 375.414 115.828 375.46 115.847C375.506 115.866 375.555 115.876 375.605 115.876C375.655 115.876 375.704 115.867 375.75 115.848C375.796 115.829 375.838 115.801 375.873 115.766L376.081 115.557C376.309 115.33 376.618 115.202 376.94 115.202C377.262 115.202 377.571 115.33 377.799 115.557L377.95 115.703C378.02 115.773 378.116 115.812 378.215 115.812C378.315 115.812 378.41 115.772 378.48 115.702C378.515 115.667 378.543 115.626 378.562 115.58C378.581 115.535 378.591 115.486 378.59 115.436C378.591 115.387 378.581 115.339 378.563 115.293C378.544 115.248 378.516 115.206 378.481 115.172L378.335 115.022Z" fill="#FF5900"/>
<path d="M379.364 114.276L379.239 114.15C379.238 114.15 379.238 114.149 379.237 114.149L379.138 114.049C379.121 114.033 379.102 114.017 379.082 114.004C377.81 112.887 375.874 112.922 374.642 114.107C374.636 114.112 374.63 114.116 374.624 114.122L374.397 114.348C374.365 114.381 374.34 114.419 374.323 114.461C374.306 114.502 374.297 114.547 374.297 114.593C374.297 114.638 374.306 114.683 374.324 114.724C374.341 114.766 374.367 114.804 374.399 114.836C374.431 114.868 374.469 114.894 374.51 114.911C374.552 114.929 374.597 114.938 374.642 114.938C374.687 114.938 374.732 114.929 374.774 114.912C374.816 114.895 374.854 114.869 374.886 114.837L375.113 114.611C375.114 114.609 375.115 114.607 375.117 114.606C376.113 113.644 377.693 113.638 378.697 114.586L378.876 114.765C378.94 114.829 379.028 114.865 379.12 114.865C379.211 114.865 379.299 114.828 379.363 114.764C379.428 114.699 379.464 114.611 379.465 114.52C379.465 114.428 379.429 114.341 379.364 114.276Z" fill="#FF5900"/>
<rect x="367.406" y="101.824" width="7.92393" height="0.689037" fill="#FFD5BE"/>
<rect x="368.789" y="97" width="1.03356" height="1.03356" rx="0.2" fill="#4D148C"/>
<rect x="370.859" y="97" width="1.03356" height="1.03356" rx="0.2" fill="#4D148C"/>
<rect x="372.922" y="97" width="1.03356" height="1.03356" rx="0.2" fill="#4D148C"/>
<path d="M369.5 98.1992H373" stroke="#FFD5BE" stroke-width="0.4"/>
<path d="M369.5 99H373" stroke="#FFD5BE" stroke-width="0.4"/>
<path d="M369.5 99.7988H373" stroke="#FFD5BE" stroke-width="0.4"/>
<path d="M369.5 100.699H371.3" stroke="#FFD5BE" stroke-width="0.4"/>
<path d="M366.045 160.108V164H364.253V153.948H368.271C370.511 153.948 371.911 154.998 371.911 157.028C371.911 159.03 370.511 160.108 368.271 160.108H366.045ZM366.045 158.568H368.173C369.461 158.568 370.147 158.008 370.147 157.028C370.147 156.034 369.461 155.488 368.173 155.488H366.045V158.568ZM372.649 158.974C372.649 155.922 374.609 153.794 377.325 153.794C380.041 153.794 382.001 155.922 382.001 158.974C382.001 162.026 380.041 164.154 377.325 164.154C374.609 164.154 372.649 162.026 372.649 158.974ZM380.209 158.974C380.209 156.79 379.019 155.376 377.325 155.376C375.631 155.376 374.441 156.79 374.441 158.974C374.441 161.158 375.631 162.572 377.325 162.572C379.019 162.572 380.209 161.158 380.209 158.974ZM382.371 162.04L383.743 160.906C384.443 161.998 385.493 162.628 386.641 162.628C387.775 162.628 388.629 162.11 388.629 161.144C388.629 160.122 387.579 159.982 386.081 159.618C384.569 159.254 382.945 158.806 382.945 156.846C382.945 154.984 384.541 153.794 386.571 153.794C388.293 153.794 389.637 154.606 390.309 155.656L388.993 156.79C388.433 155.922 387.691 155.32 386.515 155.32C385.437 155.32 384.695 155.866 384.695 156.664C384.695 157.546 385.465 157.728 386.823 158.036C388.447 158.4 390.393 158.778 390.393 160.962C390.393 162.936 388.657 164.154 386.585 164.154C384.863 164.154 383.155 163.328 382.371 162.04ZM350.214 169.948H352.244L356.052 180H354.246L353.378 177.704H349.038L348.184 180H346.406L350.214 169.948ZM351.194 171.936L349.626 176.136H352.79L351.194 171.936ZM357.936 176.332C357.936 177.83 358.72 178.698 359.868 178.698C360.764 178.698 361.31 178.11 361.52 177.298L362.962 178.026C362.584 179.216 361.464 180.154 359.868 180.154C357.768 180.154 356.256 178.6 356.256 176.332C356.256 174.064 357.768 172.51 359.868 172.51C361.45 172.51 362.542 173.406 362.934 174.582L361.52 175.352C361.31 174.554 360.764 173.952 359.868 173.952C358.72 173.952 357.936 174.834 357.936 176.332ZM366.75 180.154C364.692 180.154 363.516 178.418 363.516 176.332C363.516 174.246 364.692 172.51 366.75 172.51C367.702 172.51 368.402 172.888 368.864 173.434V172.65H370.544V182.52H368.864V179.23C368.402 179.776 367.702 180.154 366.75 180.154ZM368.906 176.122C368.906 174.736 368.122 173.98 367.086 173.98C365.868 173.98 365.21 174.932 365.21 176.332C365.21 177.732 365.868 178.684 367.086 178.684C368.122 178.684 368.906 177.914 368.906 176.556V176.122ZM378.422 172.65V180H376.742V179.216C376.322 179.706 375.692 180.154 374.74 180.154C373.2 180.154 372.248 179.104 372.248 177.522V172.65H373.928V177.158C373.928 178.054 374.32 178.628 375.23 178.628C375.986 178.628 376.742 178.068 376.742 177.018V172.65H378.422ZM380.165 171.67V169.948H381.901V171.67H380.165ZM381.873 172.65V180H380.193V172.65H381.873ZM387.81 172.636V174.316C387.6 174.288 387.432 174.274 387.194 174.274C386.13 174.274 385.318 174.96 385.318 176.136V180H383.638V172.65H385.318V173.742C385.64 173.056 386.396 172.608 387.334 172.608C387.53 172.608 387.684 172.622 387.81 172.636ZM388.942 171.67V169.948H390.678V171.67H388.942ZM390.65 172.65V180H388.97V172.65H390.65ZM392.415 180V172.65H394.095V173.434C394.515 172.944 395.173 172.51 396.125 172.51C397.665 172.51 398.589 173.574 398.589 175.156V180H396.909V175.646C396.909 174.736 396.545 174.078 395.621 174.078C394.865 174.078 394.095 174.638 394.095 175.688V180H392.415ZM406.842 179.258C406.842 181.428 405.358 182.674 403.258 182.674C401.564 182.674 400.374 181.96 399.912 180.532L401.48 179.972C401.704 180.798 402.334 181.316 403.258 181.316C404.392 181.316 405.162 180.756 405.162 179.412V178.894C404.77 179.412 404.028 179.818 403.09 179.818C401.074 179.818 399.87 178.18 399.87 176.164C399.87 174.148 401.074 172.51 403.09 172.51C404.014 172.51 404.77 172.916 405.162 173.434V172.65H406.842V179.258ZM405.19 176.094C405.19 174.75 404.462 173.98 403.412 173.98C402.25 173.98 401.564 174.792 401.564 176.164C401.564 177.522 402.25 178.348 403.412 178.348C404.462 178.348 405.19 177.578 405.19 176.262V176.094Z" fill="#4D148C"/>
<circle cx="31" cy="114" r="27.5" stroke="#4D148C"/>
<path d="M31.7902 117.596H38.1882C38.4281 117.596 38.5881 117.436 38.5881 117.196V113.597C38.5881 113.357 38.4281 113.197 38.1882 113.197H31.7902C31.5503 113.197 31.3904 113.357 31.3904 113.597V117.196C31.3903 117.436 31.5503 117.596 31.7902 117.596ZM32.1901 113.997H37.7884V116.796H32.1901V113.997ZM20.9936 112.397H24.1926C24.4326 112.397 24.5925 112.237 24.5925 111.998C24.5925 111.758 24.4326 111.598 24.1926 111.598H20.9936C20.7537 111.598 20.5938 111.758 20.5938 111.998C20.5938 112.237 20.7537 112.397 20.9936 112.397ZM25.7921 112.397H28.9911C29.2311 112.397 29.391 112.237 29.391 111.998C29.391 111.758 29.2311 111.598 28.9911 111.598H25.7921C25.5522 111.598 25.3923 111.758 25.3923 111.998C25.3923 112.237 25.5522 112.397 25.7921 112.397ZM20.9936 113.997H26.192C26.4319 113.997 26.5918 113.837 26.5918 113.597C26.5918 113.357 26.4319 113.197 26.192 113.197H20.9936C20.7537 113.197 20.5938 113.357 20.5938 113.597C20.5938 113.837 20.7537 113.997 20.9936 113.997ZM28.9911 113.197H27.7915C27.5515 113.197 27.3916 113.357 27.3916 113.597C27.3916 113.837 27.5515 113.997 27.7915 113.997H28.9911C29.231 113.997 29.3909 113.837 29.3909 113.597C29.3909 113.357 29.231 113.197 28.9911 113.197Z" fill="#FF5B02"/>
<path d="M42.6326 108.239C42.3527 107.879 41.9928 107.679 41.553 107.639L40.5933 107.523V105.599C40.5933 104.72 39.8735 104 38.9938 104H20.5995C19.7198 104 19 104.72 19 105.599V118.396C19 119.118 19.4853 119.732 20.1459 119.929C20.1257 120.738 20.7378 121.44 21.5592 121.515L40.0335 123.594H40.1934C40.9932 123.594 41.7129 122.994 41.7929 122.234L42.9925 109.398C43.0325 108.998 42.9125 108.559 42.6326 108.239ZM19.7998 106.799H39.7935V109.198H19.7998V106.799ZM20.5995 104.8H38.9937C39.4336 104.8 39.7935 105.16 39.7935 105.599V105.999H19.7998V105.599C19.7998 105.16 20.1597 104.8 20.5995 104.8ZM19.7998 118.395V109.998H39.7935V118.395C39.7935 118.835 39.4336 119.195 38.9938 119.195H20.5995C20.1597 119.195 19.7998 118.835 19.7998 118.395ZM42.1927 109.238L40.9931 122.074C40.9531 122.514 40.5532 122.834 40.1134 122.794L21.6791 120.715C21.2793 120.675 20.9993 120.355 20.9594 119.995H38.9937C39.8734 119.995 40.5932 119.275 40.5932 118.396V108.279L41.5129 108.359C41.7129 108.359 41.9128 108.479 42.0328 108.639C42.1528 108.798 42.2328 109.038 42.1927 109.238Z" fill="#4D148C"/>
</svg>
