<svg width="428" height="168" viewBox="0 0 428 168" fill="none" xmlns="http://www.w3.org/2000/svg">
<path d="M3.948 4.948H5.978L9.786 15H7.98L7.112 12.704H2.772L1.918 15H0.14L3.948 4.948ZM4.928 6.936L3.36 11.136H6.524L4.928 6.936ZM11.6703 11.332C11.6703 12.83 12.4543 13.698 13.6023 13.698C14.4983 13.698 15.0443 13.11 15.2543 12.298L16.6963 13.026C16.3183 14.216 15.1983 15.154 13.6023 15.154C11.5023 15.154 9.99031 13.6 9.99031 11.332C9.99031 9.064 11.5023 7.51 13.6023 7.51C15.1843 7.51 16.2763 8.406 16.6683 9.582L15.2543 10.352C15.0443 9.554 14.4983 8.952 13.6023 8.952C12.4543 8.952 11.6703 9.834 11.6703 11.332ZM18.9301 11.332C18.9301 12.83 19.7141 13.698 20.8621 13.698C21.7581 13.698 22.3041 13.11 22.5141 12.298L23.9561 13.026C23.5781 14.216 22.4581 15.154 20.8621 15.154C18.7621 15.154 17.2501 13.6 17.2501 11.332C17.2501 9.064 18.7621 7.51 20.8621 7.51C22.4441 7.51 23.5361 8.406 23.9281 9.582L22.5141 10.352C22.3041 9.554 21.7581 8.952 20.8621 8.952C19.7141 8.952 18.9301 9.834 18.9301 11.332ZM28.0798 15.154C25.9798 15.154 24.5098 13.6 24.5098 11.332C24.5098 9.176 25.9658 7.51 28.0098 7.51C30.1378 7.51 31.2718 9.12 31.2718 11.136V11.696H26.1198C26.2458 12.956 27.0018 13.726 28.0798 13.726C28.9058 13.726 29.5638 13.306 29.7878 12.55L31.2298 13.096C30.7118 14.384 29.5498 15.154 28.0798 15.154ZM27.9958 8.924C27.1278 8.924 26.4558 9.442 26.2038 10.436H29.5778C29.5638 9.624 29.0598 8.924 27.9958 8.924ZM36.3264 15.154C35.3744 15.154 34.6744 14.776 34.2124 14.23V17.52H32.5324V7.65H34.2124V8.434C34.6744 7.888 35.3744 7.51 36.3264 7.51C38.3844 7.51 39.5604 9.246 39.5604 11.332C39.5604 13.418 38.3844 15.154 36.3264 15.154ZM34.1704 11.122V11.556C34.1704 12.914 34.9544 13.684 35.9904 13.684C37.2084 13.684 37.8664 12.732 37.8664 11.332C37.8664 9.932 37.2084 8.98 35.9904 8.98C34.9544 8.98 34.1704 9.736 34.1704 11.122ZM41.0126 13.152V9.078H39.9906V7.65H41.0126V5.494H42.6646V7.65H44.2046V9.078H42.6646V12.886C42.6646 13.544 43.0426 13.614 43.6446 13.614C43.9246 13.614 44.0786 13.6 44.3306 13.572V14.986C44.0226 15.042 43.6026 15.084 43.1686 15.084C41.7686 15.084 41.0126 14.65 41.0126 13.152ZM2.744 29.108V33H0.952V22.948H4.97C7.21 22.948 8.61 23.998 8.61 26.028C8.61 28.03 7.21 29.108 4.97 29.108H2.744ZM2.744 27.568H4.872C6.16 27.568 6.846 27.008 6.846 26.028C6.846 25.034 6.16 24.488 4.872 24.488H2.744V27.568ZM11.4003 33.126C10.0003 33.126 8.92227 32.272 8.92227 30.956C8.92227 29.556 9.97227 28.94 11.3863 28.646L13.4163 28.226V28.1C13.4163 27.4 13.0523 26.966 12.1563 26.966C11.3583 26.966 10.9383 27.33 10.7423 28.044L9.16027 27.68C9.52427 26.462 10.6023 25.51 12.2263 25.51C13.9903 25.51 15.0543 26.35 15.0543 28.044V31.208C15.0543 31.628 15.2363 31.754 15.6983 31.698V33C14.4803 33.14 13.8363 32.902 13.5843 32.3C13.1223 32.818 12.3523 33.126 11.4003 33.126ZM13.4163 30.41V29.514L11.8343 29.85C11.1203 30.004 10.5883 30.228 10.5883 30.886C10.5883 31.46 11.0083 31.782 11.6523 31.782C12.5483 31.782 13.4163 31.306 13.4163 30.41ZM19.947 33.686C19.527 34.806 18.883 35.576 17.357 35.576C17.007 35.576 16.909 35.562 16.671 35.534V34.12C16.895 34.148 17.021 34.162 17.231 34.162C17.791 34.162 18.057 34.008 18.295 33.42L18.575 32.734L15.901 25.65H17.665L19.471 30.802L21.235 25.65H22.971L19.947 33.686ZM25.5581 28.688V33H23.8781V25.65H25.5581V26.434C25.9641 25.944 26.5941 25.51 27.5741 25.51C28.4561 25.51 29.1141 25.902 29.5201 26.532C29.9681 26.056 30.6681 25.51 31.8021 25.51C33.3141 25.51 34.2941 26.574 34.2941 28.156V33H32.6141V28.646C32.6141 27.736 32.2781 27.078 31.3821 27.078C30.6681 27.078 29.9261 27.638 29.9261 28.688V33H28.2461V28.646C28.2461 27.736 27.9101 27.078 27.0141 27.078C26.3001 27.078 25.5581 27.638 25.5581 28.688ZM39.113 33.154C37.013 33.154 35.543 31.6 35.543 29.332C35.543 27.176 36.999 25.51 39.043 25.51C41.171 25.51 42.305 27.12 42.305 29.136V29.696H37.153C37.279 30.956 38.035 31.726 39.113 31.726C39.939 31.726 40.597 31.306 40.821 30.55L42.263 31.096C41.745 32.384 40.583 33.154 39.113 33.154ZM39.029 26.924C38.161 26.924 37.489 27.442 37.237 28.436H40.611C40.597 27.624 40.093 26.924 39.029 26.924ZM43.5656 33V25.65H45.2456V26.434C45.6656 25.944 46.3236 25.51 47.2756 25.51C48.8156 25.51 49.7396 26.574 49.7396 28.156V33H48.0596V28.646C48.0596 27.736 47.6956 27.078 46.7716 27.078C46.0156 27.078 45.2456 27.638 45.2456 28.688V33H43.5656ZM51.6083 31.152V27.078H50.5863V25.65H51.6083V23.494H53.2603V25.65H54.8003V27.078H53.2603V30.886C53.2603 31.544 53.6383 31.614 54.2403 31.614C54.5203 31.614 54.6743 31.6 54.9263 31.572V32.986C54.6183 33.042 54.1983 33.084 53.7643 33.084C52.3643 33.084 51.6083 32.65 51.6083 31.152ZM55.4147 31.6L56.6747 30.592C57.1087 31.306 57.9487 31.782 58.8027 31.782C59.5167 31.782 60.1747 31.53 60.1747 30.872C60.1747 30.242 59.5587 30.172 58.3967 29.934C57.2347 29.696 55.9047 29.402 55.9047 27.834C55.9047 26.49 57.0807 25.51 58.7747 25.51C60.0627 25.51 61.2107 26.084 61.7427 26.896L60.6087 27.918C60.1887 27.26 59.4887 26.882 58.6767 26.882C57.9907 26.882 57.5427 27.19 57.5427 27.68C57.5427 28.212 58.0747 28.31 58.9987 28.506C60.2447 28.772 61.8127 29.038 61.8127 30.718C61.8127 32.202 60.4547 33.154 58.7887 33.154C57.4307 33.154 56.0727 32.608 55.4147 31.6ZM69.9495 33.14C67.5555 33.14 65.9035 31.782 65.9035 29.01V22.948H67.6955V28.954C67.6955 30.788 68.6055 31.558 69.9495 31.558C71.3075 31.558 72.2175 30.788 72.2175 28.954V22.948H74.0095V29.01C74.0095 31.782 72.3575 33.14 69.9495 33.14ZM74.9245 31.6L76.1845 30.592C76.6185 31.306 77.4585 31.782 78.3125 31.782C79.0265 31.782 79.6845 31.53 79.6845 30.872C79.6845 30.242 79.0685 30.172 77.9065 29.934C76.7445 29.696 75.4145 29.402 75.4145 27.834C75.4145 26.49 76.5905 25.51 78.2845 25.51C79.5725 25.51 80.7205 26.084 81.2525 26.896L80.1185 27.918C79.6985 27.26 78.9985 26.882 78.1865 26.882C77.5005 26.882 77.0525 27.19 77.0525 27.68C77.0525 28.212 77.5845 28.31 78.5085 28.506C79.7545 28.772 81.3225 29.038 81.3225 30.718C81.3225 32.202 79.9645 33.154 78.2985 33.154C76.9405 33.154 75.5825 32.608 74.9245 31.6ZM82.5845 24.67V22.948H84.3205V24.67H82.5845ZM84.2925 25.65V33H82.6125V25.65H84.2925ZM86.0578 33V25.65H87.7378V26.434C88.1578 25.944 88.8158 25.51 89.7678 25.51C91.3078 25.51 92.2318 26.574 92.2318 28.156V33H90.5518V28.646C90.5518 27.736 90.1878 27.078 89.2638 27.078C88.5078 27.078 87.7378 27.638 87.7378 28.688V33H86.0578ZM100.484 32.258C100.484 34.428 99.0005 35.674 96.9005 35.674C95.2065 35.674 94.0165 34.96 93.5545 33.532L95.1225 32.972C95.3465 33.798 95.9765 34.316 96.9005 34.316C98.0345 34.316 98.8045 33.756 98.8045 32.412V31.894C98.4125 32.412 97.6705 32.818 96.7325 32.818C94.7165 32.818 93.5125 31.18 93.5125 29.164C93.5125 27.148 94.7165 25.51 96.7325 25.51C97.6565 25.51 98.4125 25.916 98.8045 26.434V25.65H100.484V32.258ZM98.8325 29.094C98.8325 27.75 98.1045 26.98 97.0545 26.98C95.8925 26.98 95.2065 27.792 95.2065 29.164C95.2065 30.522 95.8925 31.348 97.0545 31.348C98.1045 31.348 98.8325 30.578 98.8325 29.262V29.094Z" fill="white"/>
<path d="M37 80L39.8868 75L34.1132 75L37 80ZM36.5 44L36.5 75.5L37.5 75.5L37.5 44L36.5 44Z" fill="#C5CFD8"/>
<path d="M108 115L103 112.113V117.887L108 115ZM72 115.5H103.5V114.5H72V115.5Z" fill="#C5CFD8"/>
<path d="M220 115L215 112.113V117.887L220 115ZM184 115.5H215.5V114.5H184V115.5Z" fill="#C5CFD8"/>
<path d="M341 115L336 112.113V117.887L341 115ZM305 115.5H336.5V114.5H305V115.5Z" fill="#C5CFD8"/>
<circle cx="261" cy="114" r="27.5" stroke="#C5CFD8"/>
<path fill-rule="evenodd" clip-rule="evenodd" d="M259.32 120.801H255.578C254.805 120.801 254.178 121.428 254.178 122.201V122.683C254.178 122.904 254.357 123.083 254.578 123.083C254.799 123.083 254.978 122.904 254.978 122.683V122.201C254.978 121.87 255.247 121.601 255.578 121.601H259.32V120.801Z" fill="white"/>
<rect x="253.555" y="101.701" width="11.0741" height="21.2223" rx="1.5" stroke="#C5CFD8"/>
<path d="M255.047 102.881H263.269" stroke="#C5CFD8" stroke-width="0.6" stroke-linecap="round"/>
<rect x="255.18" y="104.664" width="7.64199" height="5.64769" rx="0.5" stroke="#C5CFD8"/>
<rect x="254.633" y="112.934" width="2.46297" height="1.57408" rx="0.55" fill="white" stroke="#C5CFD8" stroke-width="0.5"/>
<rect x="257.891" y="112.934" width="2.46297" height="1.57408" rx="0.55" fill="white" stroke="#C5CFD8" stroke-width="0.5"/>
<rect x="261.227" y="112.934" width="2.46297" height="1.57408" rx="0.55" fill="white" stroke="#C5CFD8" stroke-width="0.5"/>
<rect x="254.633" y="115.525" width="2.46297" height="1.57408" rx="0.55" fill="white" stroke="#C5CFD8" stroke-width="0.5"/>
<rect x="257.891" y="115.525" width="2.46297" height="1.57408" rx="0.55" fill="white" stroke="#C5CFD8" stroke-width="0.5"/>
<path d="M261.234 117.128V116.098C261.234 115.767 261.503 115.498 261.834 115.498H263.024C263.355 115.498 263.624 115.767 263.624 116.098V116.387" stroke="#C5CFD8" stroke-width="0.5" stroke-linecap="round"/>
<rect x="254.633" y="118.117" width="2.46297" height="1.57408" rx="0.55" fill="white" stroke="#C5CFD8" stroke-width="0.5"/>
<path d="M260.31 118.09H258.459C258.128 118.09 257.859 118.358 257.859 118.69V119.119C257.859 119.451 258.128 119.719 258.459 119.719L258.97 119.719" stroke="#C5CFD8" stroke-width="0.5" stroke-linecap="round"/>
<rect x="261.227" y="118.117" width="2.46297" height="1.57408" rx="0.75" fill="white" stroke="#C5CFD8" stroke-width="0.5"/>
<path d="M253.422 111.868V112.268H253.822V111.868H253.422ZM253.422 103.424H253.822V103.024H253.422V103.424ZM252.416 104.424C252.416 104.092 252.684 103.824 253.016 103.824V103.024C252.242 103.024 251.616 103.651 251.616 104.424H252.416ZM252.416 110.868V104.424H251.616V110.868H252.416ZM253.016 111.468C252.684 111.468 252.416 111.2 252.416 110.868H251.616C251.616 111.641 252.242 112.268 253.016 112.268V111.468ZM253.422 111.468H253.016V112.268H253.422V111.468ZM253.822 111.868V103.424H253.022V111.868H253.822ZM253.016 103.824H253.422V103.024H253.016V103.824Z" fill="#C5CFD8"/>
<path d="M264.766 111.868V112.268H264.366V111.868H264.766ZM264.766 103.424H264.366V103.024H264.766V103.424ZM265.694 104.424C265.694 104.092 265.425 103.824 265.094 103.824V103.024C265.867 103.024 266.494 103.651 266.494 104.424H265.694ZM265.694 110.868V104.424H266.494V110.868H265.694ZM265.094 111.468C265.425 111.468 265.694 111.2 265.694 110.868H266.494C266.494 111.641 265.867 112.268 265.094 112.268V111.468ZM264.766 111.468H265.094V112.268H264.766V111.468ZM264.366 111.868V103.424H265.166V111.868H264.366ZM265.094 103.824H264.766V103.024H265.094V103.824Z" fill="#C5CFD8"/>
<circle cx="263.793" cy="120.83" r="3.62408" fill="white" stroke="#C5CFD8" stroke-width="0.9"/>
<path d="M263.809 122.881C264.143 122.881 264.415 122.61 264.415 122.276C264.415 121.941 264.143 121.67 263.809 121.67C263.474 121.67 263.203 121.941 263.203 122.276C263.203 122.61 263.474 122.881 263.809 122.881Z" fill="#3FAFE9"/>
<path d="M265.26 120.815C265.251 120.805 265.241 120.797 265.232 120.789L265.205 120.763C265.201 120.758 265.196 120.755 265.19 120.75C264.814 120.407 264.32 120.223 263.812 120.235C263.304 120.247 262.819 120.454 262.46 120.814L262.372 120.902L262.251 121.024C262.18 121.095 262.14 121.191 262.141 121.292C262.141 121.393 262.181 121.489 262.252 121.56C262.287 121.596 262.329 121.624 262.375 121.643C262.421 121.662 262.47 121.672 262.52 121.672C262.57 121.672 262.62 121.662 262.666 121.643C262.712 121.624 262.754 121.597 262.789 121.561L262.998 121.352C263.227 121.124 263.537 120.996 263.86 120.996C264.183 120.996 264.493 121.124 264.722 121.352L264.873 121.498C264.944 121.568 265.04 121.608 265.139 121.608C265.239 121.607 265.335 121.568 265.405 121.497C265.44 121.462 265.468 121.421 265.487 121.375C265.506 121.329 265.516 121.28 265.516 121.231C265.516 121.181 265.507 121.133 265.488 121.087C265.469 121.041 265.441 121 265.406 120.965L265.26 120.815Z" fill="#3FAFE9"/>
<path d="M266.288 120.067L266.162 119.941C266.161 119.94 266.161 119.94 266.16 119.939L266.061 119.839C266.043 119.822 266.025 119.807 266.004 119.794C264.728 118.673 262.786 118.708 261.55 119.897C261.544 119.902 261.537 119.906 261.531 119.912L261.304 120.14C261.272 120.172 261.246 120.21 261.229 120.252C261.212 120.294 261.203 120.339 261.203 120.384C261.203 120.43 261.212 120.475 261.23 120.517C261.247 120.559 261.273 120.597 261.305 120.629C261.337 120.661 261.375 120.686 261.417 120.704C261.459 120.722 261.504 120.731 261.55 120.731C261.595 120.731 261.64 120.722 261.682 120.705C261.724 120.687 261.762 120.662 261.794 120.63L262.022 120.403C262.023 120.401 262.024 120.399 262.026 120.398C263.025 119.432 264.611 119.426 265.618 120.378L265.797 120.557C265.862 120.622 265.95 120.658 266.042 120.658C266.134 120.658 266.222 120.621 266.287 120.556C266.352 120.491 266.388 120.403 266.388 120.312C266.389 120.22 266.352 120.132 266.288 120.067Z" fill="#3FAFE9"/>
<path d="M258.979 121.201H256.016" stroke="#C5CFD8" stroke-width="0.8" stroke-linecap="round"/>
<path d="M250.045 161.108V165H248.253V154.948H252.271C254.511 154.948 255.911 155.998 255.911 158.028C255.911 160.03 254.511 161.108 252.271 161.108H250.045ZM250.045 159.568H252.173C253.461 159.568 254.147 159.008 254.147 158.028C254.147 157.034 253.461 156.488 252.173 156.488H250.045V159.568ZM256.649 159.974C256.649 156.922 258.609 154.794 261.325 154.794C264.041 154.794 266.001 156.922 266.001 159.974C266.001 163.026 264.041 165.154 261.325 165.154C258.609 165.154 256.649 163.026 256.649 159.974ZM264.209 159.974C264.209 157.79 263.019 156.376 261.325 156.376C259.631 156.376 258.441 157.79 258.441 159.974C258.441 162.158 259.631 163.572 261.325 163.572C263.019 163.572 264.209 162.158 264.209 159.974ZM266.371 163.04L267.743 161.906C268.443 162.998 269.493 163.628 270.641 163.628C271.775 163.628 272.629 163.11 272.629 162.144C272.629 161.122 271.579 160.982 270.081 160.618C268.569 160.254 266.945 159.806 266.945 157.846C266.945 155.984 268.541 154.794 270.571 154.794C272.293 154.794 273.637 155.606 274.309 156.656L272.993 157.79C272.433 156.922 271.691 156.32 270.515 156.32C269.437 156.32 268.695 156.866 268.695 157.664C268.695 158.546 269.465 158.728 270.823 159.036C272.447 159.4 274.393 159.778 274.393 161.962C274.393 163.936 272.657 165.154 270.585 165.154C268.863 165.154 267.155 164.328 266.371 163.04Z" fill="white"/>
<path d="M10.7465 159.974C10.7465 156.922 12.7065 154.794 15.4225 154.794C18.1385 154.794 20.0985 156.922 20.0985 159.974C20.0985 161.85 19.3565 163.376 18.1525 164.286C18.5585 164.818 19.2445 165.224 20.0425 165.42L19.0065 166.694C18.0825 166.428 17.1445 165.742 16.7245 164.972C16.3185 165.098 15.8845 165.154 15.4225 165.154C12.7065 165.154 10.7465 163.026 10.7465 159.974ZM18.3065 159.974C18.3065 157.79 17.1165 156.376 15.4225 156.376C13.7285 156.376 12.5385 157.79 12.5385 159.974C12.5385 162.158 13.7285 163.572 15.4225 163.572C17.1165 163.572 18.3065 162.158 18.3065 159.974ZM23.2831 161.108V165H21.4911V154.948H25.5091C27.7491 154.948 29.1491 155.998 29.1491 158.028C29.1491 159.61 28.2811 160.618 26.8111 160.968L29.4011 165H27.3571L24.9071 161.108H23.2831ZM23.2831 159.568H25.4111C26.6991 159.568 27.3851 159.008 27.3851 158.028C27.3851 157.034 26.6991 156.488 25.4111 156.488H23.2831V159.568ZM32.5003 163.04L33.8723 161.906C34.5723 162.998 35.6223 163.628 36.7703 163.628C37.9043 163.628 38.7583 163.11 38.7583 162.144C38.7583 161.122 37.7083 160.982 36.2103 160.618C34.6983 160.254 33.0743 159.806 33.0743 157.846C33.0743 155.984 34.6703 154.794 36.7003 154.794C38.4223 154.794 39.7663 155.606 40.4383 156.656L39.1223 157.79C38.5623 156.922 37.8203 156.32 36.6443 156.32C35.5663 156.32 34.8243 156.866 34.8243 157.664C34.8243 158.546 35.5943 158.728 36.9523 159.036C38.5763 159.4 40.5223 159.778 40.5223 161.962C40.5223 163.936 38.7863 165.154 36.7143 165.154C34.9923 165.154 33.2843 164.328 32.5003 163.04ZM43.0648 161.332C43.0648 162.83 43.8488 163.698 44.9968 163.698C45.8928 163.698 46.4388 163.11 46.6488 162.298L48.0908 163.026C47.7128 164.216 46.5928 165.154 44.9968 165.154C42.8968 165.154 41.3848 163.6 41.3848 161.332C41.3848 159.064 42.8968 157.51 44.9968 157.51C46.5788 157.51 47.6708 158.406 48.0628 159.582L46.6488 160.352C46.4388 159.554 45.8928 158.952 44.9968 158.952C43.8488 158.952 43.0648 159.834 43.0648 161.332ZM51.1893 165.126C49.7893 165.126 48.7113 164.272 48.7113 162.956C48.7113 161.556 49.7613 160.94 51.1753 160.646L53.2053 160.226V160.1C53.2053 159.4 52.8413 158.966 51.9453 158.966C51.1473 158.966 50.7273 159.33 50.5313 160.044L48.9493 159.68C49.3133 158.462 50.3913 157.51 52.0153 157.51C53.7793 157.51 54.8433 158.35 54.8433 160.044V163.208C54.8433 163.628 55.0253 163.754 55.4873 163.698V165C54.2693 165.14 53.6253 164.902 53.3733 164.3C52.9113 164.818 52.1413 165.126 51.1893 165.126ZM53.2053 162.41V161.514L51.6233 161.85C50.9093 162.004 50.3773 162.228 50.3773 162.886C50.3773 163.46 50.7973 163.782 51.4413 163.782C52.3373 163.782 53.2053 163.306 53.2053 162.41ZM56.6808 165V157.65H58.3608V158.434C58.7808 157.944 59.4388 157.51 60.3908 157.51C61.9308 157.51 62.8548 158.574 62.8548 160.156V165H61.1748V160.646C61.1748 159.736 60.8108 159.078 59.8868 159.078C59.1308 159.078 58.3608 159.638 58.3608 160.688V165H56.6808Z" fill="white"/>
<circle cx="142" cy="114" r="27.5" stroke="#C5CFD8"/>
<rect x="144.877" y="112.994" width="3.69807" height="5.45624" rx="0.55" transform="rotate(-45.6192 144.877 112.994)" stroke="#C5CFD8" stroke-width="0.5"/>
<path d="M152.157 119.488C152.128 120.3 153.45 120.612 155.248 121.227" stroke="#C5CFD8" stroke-width="0.5" stroke-linecap="round"/>
<path d="M150.034 118.521C149.841 119.681 152.352 120.26 152.545 118.715" stroke="#C5CFD8" stroke-width="0.5" stroke-linecap="round"/>
<path d="M152.345 118.328C150.413 119.101 150.027 118.328 150.027 118.328C150.027 118.328 148.868 117.169 149.061 116.59" stroke="#C5CFD8" stroke-width="0.5" stroke-linecap="round"/>
<path d="M153.312 116.011C153.312 116.011 149.255 113.886 148.868 113.692C148.482 113.499 148.289 114.272 148.482 114.851C148.675 115.431 150.221 116.494 150.993 116.494C151.766 116.494 152.925 119.295 152.925 119.295" stroke="#C5CFD8" stroke-width="0.5" stroke-linecap="round"/>
<path d="M151.375 113.692C153.5 113.499 154.08 114.272 156.977 119.295" stroke="#C5CFD8" stroke-width="0.5" stroke-linecap="round"/>
<path d="M151.386 113.691H151" stroke="#C5CFD8" stroke-width="0.5" stroke-linecap="round"/>
<path d="M149.453 116.203C150.226 116.976 150.033 117.749 151.964 117.555" stroke="#C5CFD8" stroke-width="0.5" stroke-linecap="round"/>
<path fill-rule="evenodd" clip-rule="evenodd" d="M148.823 119.098C149.192 118.845 149.534 118.576 149.849 118.294L150.186 118.663C147.926 120.692 144.367 122 140.364 122C133.535 122 128 118.194 128 113.5C128 108.806 133.535 105 140.364 105C147.192 105 152.727 108.806 152.727 113.5C152.727 113.535 152.727 113.57 152.726 113.604L152.227 113.511C152.227 113.508 152.227 113.504 152.227 113.5C152.227 111.365 150.969 109.377 148.823 107.902C146.679 106.428 143.69 105.5 140.364 105.5C137.038 105.5 134.048 106.428 131.904 107.902C129.758 109.377 128.5 111.365 128.5 113.5C128.5 115.635 129.758 117.623 131.904 119.098C134.048 120.572 137.038 121.5 140.364 121.5C143.69 121.5 146.679 120.572 148.823 119.098Z" fill="#C5CFD8"/>
<path d="M141.885 120.014C141.682 119.954 141.474 119.712 141.429 119.48C141.401 119.329 141.435 119.225 141.651 118.805C142.526 117.112 142.907 115.554 142.907 113.665C142.907 111.838 142.571 110.416 141.734 108.712C141.555 108.347 141.409 108.006 141.409 107.956C141.409 107.774 141.56 107.511 141.724 107.409C141.948 107.269 142.326 107.295 142.508 107.464C142.578 107.529 142.758 107.826 142.909 108.123C143.509 109.298 143.918 110.588 144.121 111.93C144.246 112.761 144.272 114.334 144.17 115.095C143.985 116.497 143.615 117.75 143.021 118.975C142.662 119.715 142.438 120.019 142.25 120.019C142.214 120.019 142.151 120.03 142.115 120.04C142.078 120.051 141.974 120.04 141.885 120.014ZM139.449 118.74C139.137 118.649 138.91 118.263 139.001 117.977C139.022 117.906 139.171 117.586 139.33 117.263C139.999 115.895 140.278 114.431 140.142 112.993C140.03 111.81 139.819 111.065 139.285 109.976C138.928 109.243 138.91 109.131 139.118 108.834C139.316 108.553 139.812 108.509 140.069 108.746C140.249 108.91 140.809 110.08 141.026 110.742C141.74 112.93 141.63 115.283 140.716 117.432C140.244 118.534 139.913 118.876 139.449 118.74ZM136.938 117.448C136.745 117.362 136.578 117.156 136.531 116.95C136.503 116.825 136.552 116.684 136.781 116.221C137.626 114.512 137.633 112.868 136.81 111.197C136.448 110.465 136.44 110.319 136.745 110.03C136.896 109.887 136.961 109.864 137.172 109.864C137.529 109.864 137.714 110.043 138.032 110.697C138.522 111.703 138.722 112.576 138.72 113.693C138.717 114.842 138.53 115.632 138.009 116.692C137.709 117.299 137.56 117.461 137.261 117.5C137.17 117.508 137.024 117.487 136.938 117.448ZM134.593 116.244C134.439 116.182 134.265 115.973 134.213 115.791C134.155 115.588 134.202 115.426 134.431 115.048C134.728 114.561 134.796 114.301 134.796 113.665C134.796 113.029 134.728 112.766 134.431 112.281C134.33 112.117 134.231 111.919 134.207 111.841C134.111 111.521 134.379 111.127 134.739 111.059C135.044 111.002 135.252 111.138 135.533 111.575C136.344 112.842 136.344 114.53 135.533 115.786C135.247 116.226 134.929 116.382 134.593 116.244Z" fill="#3FAFE9"/>
<path d="M119.476 156.516H116.242V165H114.45V156.516H111.216V154.948H119.476V156.516ZM121.039 165.126C119.639 165.126 118.561 164.272 118.561 162.956C118.561 161.556 119.611 160.94 121.025 160.646L123.055 160.226V160.1C123.055 159.4 122.691 158.966 121.795 158.966C120.997 158.966 120.577 159.33 120.381 160.044L118.799 159.68C119.163 158.462 120.241 157.51 121.865 157.51C123.629 157.51 124.693 158.35 124.693 160.044V163.208C124.693 163.628 124.875 163.754 125.337 163.698V165C124.119 165.14 123.475 164.902 123.223 164.3C122.761 164.818 121.991 165.126 121.039 165.126ZM123.055 162.41V161.514L121.473 161.85C120.759 162.004 120.227 162.228 120.227 162.886C120.227 163.46 120.647 163.782 121.291 163.782C122.187 163.782 123.055 163.306 123.055 162.41ZM130.324 165.154C129.372 165.154 128.672 164.776 128.21 164.23V167.52H126.53V157.65H128.21V158.434C128.672 157.888 129.372 157.51 130.324 157.51C132.382 157.51 133.558 159.246 133.558 161.332C133.558 163.418 132.382 165.154 130.324 165.154ZM128.168 161.122V161.556C128.168 162.914 128.952 163.684 129.988 163.684C131.206 163.684 131.864 162.732 131.864 161.332C131.864 159.932 131.206 158.98 129.988 158.98C128.952 158.98 128.168 159.736 128.168 161.122ZM141.115 154.85C141.619 154.85 142.049 154.939 142.403 155.116C142.767 155.284 143.047 155.527 143.243 155.844C143.439 156.161 143.537 156.549 143.537 157.006C143.537 157.594 143.346 158.093 142.963 158.504C142.59 158.915 142.114 159.288 141.535 159.624L144.237 162.228C144.48 161.939 144.676 161.607 144.825 161.234C144.984 160.851 145.115 160.441 145.217 160.002H146.463C146.314 160.599 146.127 161.155 145.903 161.668C145.679 162.181 145.39 162.629 145.035 163.012L147.079 165H145.413L144.195 163.824C143.971 164.02 143.738 164.202 143.495 164.37C143.262 164.529 143.005 164.664 142.725 164.776C142.445 164.888 142.142 164.977 141.815 165.042C141.498 165.107 141.143 165.14 140.751 165.14C140.107 165.14 139.547 165.037 139.071 164.832C138.605 164.617 138.241 164.305 137.979 163.894C137.727 163.483 137.601 162.984 137.601 162.396C137.601 161.92 137.685 161.509 137.853 161.164C138.031 160.819 138.283 160.511 138.609 160.24C138.936 159.969 139.319 159.708 139.757 159.456C139.561 159.232 139.37 158.999 139.183 158.756C138.997 158.513 138.843 158.252 138.721 157.972C138.6 157.683 138.539 157.37 138.539 157.034C138.539 156.577 138.642 156.185 138.847 155.858C139.053 155.531 139.347 155.284 139.729 155.116C140.121 154.939 140.583 154.85 141.115 154.85ZM140.499 160.226C140.163 160.422 139.874 160.623 139.631 160.828C139.398 161.024 139.216 161.243 139.085 161.486C138.955 161.729 138.889 162.018 138.889 162.354C138.889 162.867 139.062 163.278 139.407 163.586C139.753 163.894 140.215 164.048 140.793 164.048C141.391 164.048 141.904 163.95 142.333 163.754C142.763 163.558 143.122 163.325 143.411 163.054L140.499 160.226ZM141.073 155.858C140.681 155.858 140.359 155.961 140.107 156.166C139.865 156.371 139.743 156.656 139.743 157.02C139.743 157.356 139.832 157.669 140.009 157.958C140.187 158.238 140.443 158.551 140.779 158.896C141.33 158.579 141.722 158.28 141.955 158C142.198 157.711 142.319 157.379 142.319 157.006C142.319 156.67 142.207 156.395 141.983 156.18C141.759 155.965 141.456 155.858 141.073 155.858ZM152.742 161.108V165H150.95V154.948H154.968C157.208 154.948 158.608 155.998 158.608 158.028C158.608 160.03 157.208 161.108 154.968 161.108H152.742ZM152.742 159.568H154.87C156.158 159.568 156.844 159.008 156.844 158.028C156.844 157.034 156.158 156.488 154.87 156.488H152.742V159.568ZM161.398 165.126C159.998 165.126 158.92 164.272 158.92 162.956C158.92 161.556 159.97 160.94 161.384 160.646L163.414 160.226V160.1C163.414 159.4 163.05 158.966 162.154 158.966C161.356 158.966 160.936 159.33 160.74 160.044L159.158 159.68C159.522 158.462 160.6 157.51 162.224 157.51C163.988 157.51 165.052 158.35 165.052 160.044V163.208C165.052 163.628 165.234 163.754 165.696 163.698V165C164.478 165.14 163.834 164.902 163.582 164.3C163.12 164.818 162.35 165.126 161.398 165.126ZM163.414 162.41V161.514L161.832 161.85C161.118 162.004 160.586 162.228 160.586 162.886C160.586 163.46 161.006 163.782 161.65 163.782C162.546 163.782 163.414 163.306 163.414 162.41ZM169.945 165.686C169.525 166.806 168.881 167.576 167.355 167.576C167.005 167.576 166.907 167.562 166.669 167.534V166.12C166.893 166.148 167.019 166.162 167.229 166.162C167.789 166.162 168.055 166.008 168.293 165.42L168.573 164.734L165.899 157.65H167.663L169.469 162.802L171.233 157.65H172.969L169.945 165.686Z" fill="white"/>
<circle cx="383" cy="114" r="27.5" stroke="#C5CFD8"/>
<path d="M373.594 123.016L374.184 121.313C374.23 121.182 374.357 121.094 374.5 121.094H386.687C386.83 121.094 386.958 121.182 387.003 121.313L387.594 123.014" stroke="#C5CFD8" stroke-linecap="round" stroke-linejoin="round"/>
<path fill-rule="evenodd" clip-rule="evenodd" d="M374.93 114.057H386.263V121.097H374.93V114.057Z" stroke="#C5CFD8" stroke-linecap="round" stroke-linejoin="round"/>
<path d="M388.263 123.016H372.93" stroke="#C5CFD8" stroke-linecap="round" stroke-linejoin="round"/>
<path d="M376.93 114.057V121.097" stroke="#C5CFD8" stroke-linecap="round" stroke-linejoin="round"/>
<path d="M378.93 114.057V121.097" stroke="#C5CFD8" stroke-linecap="round" stroke-linejoin="round"/>
<path d="M382.266 114.057V121.097" stroke="#C5CFD8" stroke-linecap="round" stroke-linejoin="round"/>
<path d="M384.266 114.057V121.097" stroke="#C5CFD8" stroke-linecap="round" stroke-linejoin="round"/>
<path fill-rule="evenodd" clip-rule="evenodd" d="M387.505 112.385C387.556 112.241 387.493 112.082 387.355 112.006L380.757 108.385C380.654 108.328 380.527 108.328 380.424 108.385L373.824 112.004C373.686 112.08 373.623 112.238 373.673 112.383L374.183 113.837C374.228 113.968 374.355 114.056 374.499 114.056H386.685C386.829 114.056 386.956 113.968 387.001 113.837L387.505 112.385Z" stroke="#C5CFD8" stroke-linecap="round" stroke-linejoin="round"/>
<path d="M387.484 112.137H373.703" stroke="#C5CFD8" stroke-linecap="round" stroke-linejoin="round"/>
<path fill-rule="evenodd" clip-rule="evenodd" d="M385.562 105.911C385.562 103.199 387.761 101 390.473 101C393.185 101 395.384 103.199 395.384 105.911C395.384 108.623 393.185 110.821 390.473 110.821C387.761 110.821 385.562 108.623 385.562 105.911Z" stroke="#C5CFD8"/>
<path d="M387.562 105.355H393.623" stroke="#00BAF2" stroke-linecap="square"/>
<path d="M387.562 106.416H393.623" stroke="#00BAF2" stroke-linecap="square"/>
<path d="M392.409 108.008H391.803L389.378 103.766H388.734V108.008" stroke="#00BAF2" stroke-linecap="square"/>
<path d="M392.453 108.008V103.766" stroke="#00BAF2" stroke-linecap="square"/>
<path d="M390.719 111V116.862C390.719 117.414 390.271 117.862 389.719 117.862H386.602" stroke="#C5CFD8"/>
<path d="M385.656 117.829L387.76 116.306L387.666 119.474L385.656 117.829Z" fill="#C5CFD8"/>
<path d="M340.612 164V153.948H344.602C346.758 153.948 347.906 154.886 347.906 156.594C347.906 157.84 347.178 158.484 346.478 158.764C347.528 159.1 348.228 159.968 348.228 161.2C348.228 162.964 346.926 164 344.854 164H340.612ZM342.334 158.106H344.434C345.582 158.106 346.212 157.658 346.212 156.776C346.212 155.894 345.582 155.46 344.434 155.46H342.334V158.106ZM342.334 159.618V162.488H344.756C345.89 162.488 346.506 161.9 346.506 161.046C346.506 160.206 345.89 159.618 344.756 159.618H342.334ZM351.43 164.126C350.03 164.126 348.952 163.272 348.952 161.956C348.952 160.556 350.002 159.94 351.416 159.646L353.446 159.226V159.1C353.446 158.4 353.082 157.966 352.186 157.966C351.388 157.966 350.968 158.33 350.772 159.044L349.19 158.68C349.554 157.462 350.632 156.51 352.256 156.51C354.02 156.51 355.084 157.35 355.084 159.044V162.208C355.084 162.628 355.266 162.754 355.728 162.698V164C354.51 164.14 353.866 163.902 353.614 163.3C353.152 163.818 352.382 164.126 351.43 164.126ZM353.446 161.41V160.514L351.864 160.85C351.15 161.004 350.618 161.228 350.618 161.886C350.618 162.46 351.038 162.782 351.682 162.782C352.578 162.782 353.446 162.306 353.446 161.41ZM356.921 164V156.65H358.601V157.434C359.021 156.944 359.679 156.51 360.631 156.51C362.171 156.51 363.095 157.574 363.095 159.156V164H361.415V159.646C361.415 158.736 361.051 158.078 360.127 158.078C359.371 158.078 358.601 158.638 358.601 159.688V164H356.921ZM366.49 153.948V159.744L369.318 156.65H371.376L368.604 159.506L371.6 164H369.654L367.456 160.682L366.49 161.662V164H364.81V153.948H366.49ZM382.925 155.516H379.691V164H377.899V155.516H374.665V153.948H382.925V155.516ZM386.865 156.636V158.316C386.655 158.288 386.487 158.274 386.249 158.274C385.185 158.274 384.373 158.96 384.373 160.136V164H382.693V156.65H384.373V157.742C384.695 157.056 385.451 156.608 386.389 156.608C386.585 156.608 386.739 156.622 386.865 156.636ZM389.766 164.126C388.366 164.126 387.288 163.272 387.288 161.956C387.288 160.556 388.338 159.94 389.752 159.646L391.782 159.226V159.1C391.782 158.4 391.418 157.966 390.522 157.966C389.724 157.966 389.304 158.33 389.108 159.044L387.526 158.68C387.89 157.462 388.968 156.51 390.592 156.51C392.356 156.51 393.42 157.35 393.42 159.044V162.208C393.42 162.628 393.602 162.754 394.064 162.698V164C392.846 164.14 392.202 163.902 391.95 163.3C391.488 163.818 390.718 164.126 389.766 164.126ZM391.782 161.41V160.514L390.2 160.85C389.486 161.004 388.954 161.228 388.954 161.886C388.954 162.46 389.374 162.782 390.018 162.782C390.914 162.782 391.782 162.306 391.782 161.41ZM395.257 164V156.65H396.937V157.434C397.357 156.944 398.015 156.51 398.967 156.51C400.507 156.51 401.431 157.574 401.431 159.156V164H399.751V159.646C399.751 158.736 399.387 158.078 398.463 158.078C397.707 158.078 396.937 158.638 396.937 159.688V164H395.257ZM402.376 162.6L403.636 161.592C404.07 162.306 404.91 162.782 405.764 162.782C406.478 162.782 407.136 162.53 407.136 161.872C407.136 161.242 406.52 161.172 405.358 160.934C404.196 160.696 402.866 160.402 402.866 158.834C402.866 157.49 404.042 156.51 405.736 156.51C407.024 156.51 408.172 157.084 408.704 157.896L407.57 158.918C407.15 158.26 406.45 157.882 405.638 157.882C404.952 157.882 404.504 158.19 404.504 158.68C404.504 159.212 405.036 159.31 405.96 159.506C407.206 159.772 408.774 160.038 408.774 161.718C408.774 163.202 407.416 164.154 405.75 164.154C404.392 164.154 403.034 163.608 402.376 162.6ZM413.466 153.808V155.278C413.27 155.264 413.172 155.264 412.962 155.264C412.304 155.264 411.94 155.46 411.94 156.3V156.65H413.438V158.078H411.94V164H410.26V158.078H409.238V156.65H410.26V156.174C410.26 154.648 411.114 153.794 412.766 153.794C413.032 153.794 413.158 153.794 413.466 153.808ZM417.437 164.154C415.337 164.154 413.867 162.6 413.867 160.332C413.867 158.176 415.323 156.51 417.367 156.51C419.495 156.51 420.629 158.12 420.629 160.136V160.696H415.477C415.603 161.956 416.359 162.726 417.437 162.726C418.263 162.726 418.921 162.306 419.145 161.55L420.587 162.096C420.069 163.384 418.907 164.154 417.437 164.154ZM417.353 157.924C416.485 157.924 415.813 158.442 415.561 159.436H418.935C418.921 158.624 418.417 157.924 417.353 157.924ZM426.062 156.636V158.316C425.852 158.288 425.684 158.274 425.446 158.274C424.382 158.274 423.57 158.96 423.57 160.136V164H421.89V156.65H423.57V157.742C423.892 157.056 424.648 156.608 425.586 156.608C425.782 156.608 425.936 156.622 426.062 156.636Z" fill="white"/>
<circle cx="37" cy="114" r="27.5" stroke="#C5CFD8"/>
<path d="M37.5045 119.867H26.9688V103.867H42.9688V114.796" stroke="#C5CFD8" stroke-linecap="square"/>
<path d="M45 118L42.9027 121.249C42.8082 121.394 42.6639 121.485 42.5071 121.498C42.3503 121.511 42.1963 121.445 42.0848 121.317L41 120.058" stroke="#00BAF2" stroke-linecap="round" stroke-linejoin="round"/>
<path fill-rule="evenodd" clip-rule="evenodd" d="M38 120C38 117.239 40.2386 115 43 115C45.7614 115 48 117.239 48 120C48 122.761 45.7614 125 43 125C40.2386 125 38 122.761 38 120Z" stroke="#C5CFD8" stroke-linecap="round" stroke-linejoin="round"/>
<path d="M30.2031 115.887V116.707C30.2031 116.937 30.3897 117.124 30.6198 117.124H31.4402" stroke="#C5CFD8" stroke-linecap="round" stroke-linejoin="round"/>
<path d="M31.4402 107.207H30.6198C30.3897 107.207 30.2031 107.394 30.2031 107.624V108.444" stroke="#C5CFD8" stroke-linecap="round" stroke-linejoin="round"/>
<path d="M39.784 108.444V107.624C39.784 107.394 39.5974 107.207 39.3673 107.207H38.5469" stroke="#C5CFD8" stroke-linecap="round" stroke-linejoin="round"/>
<path fill-rule="evenodd" clip-rule="evenodd" d="M32.2812 109.457H34.5312V111.707H32.2812V109.457Z" stroke="#C5CFD8" stroke-linecap="round" stroke-linejoin="round"/>
<path fill-rule="evenodd" clip-rule="evenodd" d="M36.4531 109.457H38.7031V111.707H36.4531V109.457Z" stroke="#C5CFD8" stroke-linecap="round" stroke-linejoin="round"/>
<path fill-rule="evenodd" clip-rule="evenodd" d="M32.2812 113.623H34.5312V115.873H32.2812V113.623Z" stroke="#C5CFD8" stroke-linecap="round" stroke-linejoin="round"/>
<path d="M36.5 113.498V113.998" stroke="#C5CFD8" stroke-linecap="square"/>
<path d="M36.5 115.498V115.998" stroke="#C5CFD8" stroke-linecap="square"/>
<path d="M38.5 115.498V115.998" stroke="#C5CFD8" stroke-linecap="square"/>
<path d="M38.5 113.498V113.998" stroke="#C5CFD8" stroke-linecap="square"/>
<path d="M37.5 114.498V114.998" stroke="#C5CFD8" stroke-linecap="square"/>
</svg>
