<svg width="704" height="266" viewBox="0 0 704 266" fill="none" xmlns="http://www.w3.org/2000/svg">

<g filter="url(#filter0_d_4716_6838)">
<rect x="16" y="10" width="96" height="96" rx="8" stroke="#C8D0DB"/>
</g>
<path fill-rule="evenodd" clip-rule="evenodd" d="M63.5553 27.7613C61.8138 27.7613 60.402 29.1731 60.402 30.9147C60.402 32.6562 61.8138 34.068 63.5553 34.068C65.2969 34.068 66.7087 32.6562 66.7087 30.9147C66.7087 29.1731 65.2969 27.7613 63.5553 27.7613ZM59.1406 30.9147C59.1406 28.4765 61.1172 26.5 63.5553 26.5C65.9935 26.5 67.97 28.4765 67.97 30.9147C67.97 33.3529 65.9935 35.3294 63.5553 35.3294C61.1172 35.3294 59.1406 33.3529 59.1406 30.9147Z" fill="#223872"/>
<path fill-rule="evenodd" clip-rule="evenodd" d="M60.4158 35.9043C60.0675 35.9043 59.7852 36.1867 59.7852 36.535C59.7852 36.8833 60.0675 37.1656 60.4158 37.1656H65.0027C68.2884 37.1656 71.1237 39.4709 71.7941 42.6877L72.079 44.0552C72.4872 46.0134 70.9924 47.852 68.992 47.852H60.1599V49.1133H68.992C71.7924 49.1133 73.8853 46.5394 73.3139 43.7979L73.0288 42.4303C72.2366 38.6287 68.8859 35.9043 65.0027 35.9043H60.4158Z" fill="#223872"/>
<path d="M55.9981 39.4062C52.2509 46.4842 55.9981 48.566 59.0749 48.4871" stroke="#3FAFE9" stroke-width="1.5"/>
<path d="M56 39.4069L56.4164 38.5742" stroke="#3FAFE9" stroke-width="1.5"/>
<path d="M54.5437 36.9223L58.6508 36.8745L58.3105 40.5895L54.5437 36.9223Z" fill="#3FAFE9" stroke="#3FAFE9"/>
<g filter="url(#filter1_d_4716_6838)">
<rect x="592" y="10" width="96" height="96" rx="8" stroke="#C8D0DB"/>
</g>
<path d="M641.158 39.9514C641.455 40.0786 641.762 40.1658 642.072 40.2136L642.171 41.0313C642.527 41.0692 642.886 41.0647 643.242 41.0176C643.597 40.9701 643.946 40.8807 644.282 40.751L644.184 39.9329C644.476 39.8041 644.752 39.6386 645.006 39.4402L645.626 39.9452C646.183 39.4679 646.629 38.8643 646.931 38.1799L646.311 37.6744C646.43 37.3665 646.514 37.0444 646.56 36.7152L647.335 36.6123C647.406 35.8614 647.313 35.1035 647.063 34.3959L646.293 34.4981C646.171 34.1913 646.013 33.9012 645.824 33.6342L646.304 32.9846C646.078 32.6921 645.821 32.4278 645.538 32.1971C645.255 31.9676 644.948 31.772 644.623 31.6141L644.142 32.2654C643.849 32.1395 643.542 32.0514 643.229 32.0032L643.13 31.1856C642.774 31.1475 642.414 31.1521 642.059 31.1992C641.704 31.2468 641.355 31.3363 641.019 31.466L641.117 32.2837C640.825 32.4124 640.549 32.5779 640.294 32.7766L639.674 32.2714C639.117 32.7484 638.671 33.352 638.369 34.0367L638.99 34.5422C638.869 34.8536 638.786 35.1757 638.74 35.5015L637.965 35.6044C637.895 36.3554 637.988 37.1134 638.238 37.821L639.007 37.7186C639.13 38.0254 639.288 38.3155 639.477 38.5825L638.997 39.2317C639.223 39.5241 639.479 39.7883 639.762 40.0191C640.049 40.2526 640.356 40.4467 640.678 40.6029L641.158 39.9514ZM641.346 37.8745C640.909 37.5081 640.627 36.9758 640.561 36.3928C640.495 35.8098 640.649 35.2228 640.992 34.7588C641.335 34.2947 641.838 33.9909 642.392 33.9129C642.946 33.835 643.507 33.9891 643.954 34.3421C644.401 34.7053 644.691 35.2397 644.762 35.8277C644.833 36.4157 644.678 37.0092 644.332 37.4776C643.987 37.946 643.478 38.251 642.918 38.3254C642.357 38.3999 641.792 38.2377 641.346 37.8745ZM645.605 45.7148C645.741 45.7579 645.879 45.7854 646.015 45.8013L646.16 46.45C646.676 46.4701 647.187 46.3447 647.641 46.0869L647.495 45.4365C647.731 45.2781 647.936 45.0754 648.101 44.8385L648.71 45.0314C648.847 44.8034 648.955 44.5571 649.029 44.2991C649.105 44.0346 649.142 43.7676 649.149 43.5034L648.54 43.3105C648.527 43.0173 648.463 42.7291 648.351 42.4605L648.815 42.0029C648.572 41.5248 648.213 41.1235 647.773 40.8405L647.31 41.2968C647.188 41.2307 647.059 41.1738 646.923 41.1307C646.787 41.0875 646.65 41.0603 646.513 41.0444L646.368 40.3954C645.853 40.3756 645.342 40.501 644.888 40.7586L645.033 41.409C644.798 41.5674 644.593 41.7701 644.428 42.007L643.819 41.814C643.685 42.0381 643.575 42.2818 643.499 42.5463C643.423 42.8108 643.386 43.0782 643.38 43.342L643.988 43.5349C644.001 43.8281 644.065 44.1163 644.178 44.3849L643.714 44.8422C643.956 45.3205 644.316 45.7219 644.756 46.0047L645.218 45.5486C645.342 45.6164 645.472 45.672 645.605 45.7148ZM645.245 43.1002C645.327 42.8164 645.512 42.5783 645.761 42.4382C646.01 42.298 646.302 42.2674 646.572 42.353C646.842 42.4386 647.069 42.6334 647.202 42.8945C647.336 43.1557 647.365 43.4618 647.283 43.7456C647.243 43.8861 647.177 44.0169 647.088 44.1305C647 44.244 646.891 44.3382 646.768 44.4076C646.645 44.477 646.51 44.5202 646.37 44.5349C646.231 44.5495 646.091 44.5352 645.957 44.4928C645.823 44.4504 645.699 44.3808 645.59 44.2879C645.482 44.195 645.393 44.0806 645.327 43.9513C645.26 43.8219 645.219 43.6802 645.205 43.5342C645.191 43.3882 645.205 43.2407 645.245 43.1002Z" fill="#24BAF2"/>
<path d="M638.424 37.7261L638.478 37.9787L637.811 37.9289C637.336 37.8934 636.596 37.8588 635.827 37.8228C635.512 37.808 635.191 37.793 634.882 37.7777C634.355 37.7515 633.861 37.7241 633.492 37.6949C633.308 37.6805 633.146 37.6649 633.023 37.6477C632.963 37.6393 632.9 37.6288 632.844 37.6148C632.817 37.6081 632.778 37.5973 632.736 37.58C632.735 37.5798 632.735 37.5796 632.734 37.5793C632.72 37.5734 632.677 37.5558 632.626 37.5202C631.415 38.6061 630.209 40.3726 629.408 42.2794L629.408 42.2796C628.495 44.4486 628.29 46.3127 628.705 47.5615C628.85 47.9949 629.102 48.451 629.543 48.8038C629.978 49.153 630.638 49.4333 631.657 49.4517L631.657 49.4517C632.115 49.4603 633.737 49.4889 635.407 49.5011H635.414L638.424 37.7261ZM638.424 37.7261C639.559 38.8219 640.668 40.4888 641.421 42.2794L641.421 42.2795C642.333 44.4493 642.538 46.3127 642.123 47.5615L638.424 37.7261ZM639.171 49.4517L639.171 49.4517C640.19 49.4333 640.85 49.153 641.286 48.8038C641.726 48.4511 641.979 47.995 642.123 47.5616L639.171 49.4517ZM639.171 49.4517C638.227 49.4689 636.745 49.4911 635.415 49.5011L639.171 49.4517ZM637.875 34.6514H637.691H633.138H632.954L631.933 30.6547C631.983 30.6732 632.038 30.6994 632.098 30.7349C632.245 30.8216 632.392 30.9412 632.573 31.0904L632.578 31.0949C632.692 31.1898 632.838 31.3102 632.98 31.4061C633.054 31.4555 633.139 31.5069 633.23 31.5472C633.317 31.5856 633.44 31.6283 633.583 31.6283C633.725 31.6283 633.849 31.5858 633.936 31.5474C634.027 31.5071 634.112 31.4557 634.185 31.4062C634.328 31.3102 634.474 31.1898 634.588 31.0949L634.594 31.0904C634.594 31.0903 634.594 31.0902 634.594 31.0901C634.774 30.941 634.921 30.8215 635.068 30.7348C635.21 30.6513 635.319 30.6191 635.414 30.6191C635.51 30.6191 635.619 30.6514 635.761 30.7348C635.908 30.8214 636.054 30.9409 636.234 31.0898L637.875 34.6514ZM637.875 34.6514L638.895 30.6548C638.845 30.6732 638.791 30.6994 638.731 30.7348C638.584 30.8215 638.438 30.9409 638.257 31.0901C638.257 31.0902 638.257 31.0903 638.257 31.0904L638.251 31.0949C638.137 31.1898 637.991 31.3102 637.848 31.4062C637.775 31.4557 637.69 31.5071 637.599 31.5474C637.512 31.5858 637.388 31.6283 637.246 31.6283C637.103 31.6283 636.98 31.5858 636.893 31.5474C636.802 31.5071 636.717 31.4557 636.643 31.4062C636.5 31.3102 636.355 31.1898 636.24 31.0949L636.234 31.0901L637.875 34.6514Z" stroke="#2C007D"/>
<path fill-rule="evenodd" clip-rule="evenodd" d="M638.272 37.7254H632.556C631.7 37.7254 631.004 36.994 631.004 36.0961C631.004 35.1975 631.7 34.4668 632.556 34.4668H638.272C639.128 34.4668 639.824 35.1975 639.824 36.0961C639.824 36.994 639.128 37.7254 638.272 37.7254Z" fill="#2C007D"/>
<path d="M638.795 44.3146H637.799V43.3101H638.795C638.944 43.3101 639.066 43.183 639.066 43.0259C639.066 42.8688 638.944 42.7416 638.795 42.7416H637.799V41.3479C637.799 41.1444 637.761 40.9951 637.686 40.9041C637.614 40.8176 637.52 40.7773 637.389 40.7773C637.264 40.7773 637.174 40.8173 637.103 40.9033C637.029 40.9944 636.991 41.144 636.991 41.348V42.7417H635.118L634.322 41.4769C634.258 41.3699 634.193 41.2632 634.128 41.1567C634.072 41.0653 634.017 40.9909 633.965 40.9353C633.92 40.8861 633.868 40.8481 633.807 40.8188C633.749 40.7913 633.676 40.7774 633.59 40.7774C633.48 40.7774 633.38 40.8091 633.284 40.8743C633.189 40.9387 633.123 41.0184 633.083 41.1178C633.048 41.2123 633.03 41.3571 633.03 41.5441V42.7416H632.044C631.895 42.7417 631.773 42.8689 631.773 43.026C631.773 43.183 631.895 43.3102 632.044 43.3102H633.03V44.3148H632.044C631.895 44.3148 631.773 44.442 631.773 44.5991C631.773 44.7561 631.895 44.8832 632.044 44.8832H633.03V46.4745C633.03 46.6719 633.069 46.8197 633.147 46.9136C633.222 47.0032 633.316 47.0448 633.444 47.0448C633.568 47.0448 633.662 47.003 633.739 46.9133C633.819 46.8214 633.859 46.6736 633.859 46.4745V44.8832H635.553L636.47 46.3594C636.535 46.4576 636.6 46.5551 636.666 46.652C636.725 46.7387 636.789 46.8152 636.858 46.879C636.919 46.9367 636.985 46.979 637.053 47.0048C637.124 47.0315 637.206 47.045 637.297 47.045C637.545 47.045 637.799 46.9653 637.799 46.3742V44.8832H638.795C638.944 44.8832 639.066 44.7559 639.066 44.5989C639.066 44.4419 638.944 44.3146 638.795 44.3146ZM636.991 43.3101V44.3145H636.108L635.476 43.3101H636.991ZM633.859 42.156L634.223 42.7416H633.859V42.156ZM633.859 44.3146V43.3101H634.576L635.2 44.3146H633.859ZM636.991 45.7165L636.466 44.8832H636.991V45.7165Z" fill="#24BAF2"/>

<g filter="url(#filter2_d_4716_6838)">
<rect x="386" y="154" width="96" height="96" rx="8" stroke="#C8D0DB"/>
</g>
<path d="M437.146 177.926L436.565 177.885C436.227 177.861 435.7 177.837 435.15 177.813C434.923 177.803 434.693 177.793 434.47 177.782C434.093 177.764 433.738 177.745 433.471 177.725C433.339 177.715 433.22 177.705 433.128 177.692C433.084 177.686 433.034 177.679 432.988 177.668C432.966 177.662 432.931 177.653 432.893 177.638C432.892 177.638 432.892 177.638 432.891 177.638C432.888 177.637 432.884 177.635 432.878 177.633C432.054 178.36 431.233 179.516 430.683 180.764L430.682 180.764C430.036 182.228 429.908 183.45 430.184 184.241L437.146 177.926ZM437.146 177.926C437.863 178.652 438.551 179.672 439.032 180.764L439.032 180.764C439.679 182.229 439.807 183.45 439.53 184.241C439.435 184.513 439.271 184.795 438.984 185.014C438.699 185.231 438.255 185.417 437.546 185.429L437.546 185.429C436.871 185.44 435.81 185.456 434.858 185.462L437.146 177.926ZM432.168 185.429L432.169 185.429C432.496 185.435 433.657 185.454 434.853 185.462H434.857L432.168 185.429ZM432.168 185.429C431.459 185.417 431.015 185.231 430.731 185.014C430.444 184.795 430.279 184.513 430.184 184.241L429.712 184.406C429.95 185.085 430.567 185.901 432.16 185.929L432.168 185.429ZM433.201 175.332H433.227H436.488H436.515L437.117 173.081C437.075 173.113 437.028 173.149 436.975 173.191C436.975 173.191 436.974 173.191 436.974 173.191L436.969 173.195C436.888 173.259 436.779 173.345 436.671 173.414C436.584 173.47 436.393 173.587 436.169 173.587C435.945 173.587 435.755 173.47 435.668 173.414C435.559 173.345 435.451 173.259 435.37 173.195L435.364 173.191L433.201 175.332ZM433.201 175.332L432.597 173.081C432.64 173.113 432.688 173.149 432.741 173.191L432.746 173.195C432.827 173.259 432.936 173.345 433.044 173.414C433.131 173.47 433.322 173.587 433.546 173.587C433.769 173.587 433.96 173.47 434.047 173.414C434.155 173.345 434.264 173.259 434.345 173.195L434.351 173.191C434.351 173.191 434.351 173.191 434.351 173.191C434.636 172.967 434.754 172.898 434.857 172.898C434.961 172.898 435.079 172.967 435.363 173.191L433.201 175.332Z" stroke="#20336B"/>
<path fill-rule="evenodd" clip-rule="evenodd" d="M436.905 177.588H432.811C432.198 177.588 431.699 177.089 431.699 176.477C431.699 175.864 432.198 175.365 432.811 175.365H436.905C437.519 175.365 438.017 175.864 438.017 176.477C438.017 177.089 437.518 177.588 436.905 177.588Z" fill="#20336B"/>
<path d="M437.275 182.083H436.562V181.398H437.275C437.382 181.398 437.469 181.311 437.469 181.204C437.469 181.097 437.382 181.01 437.275 181.01H436.562V180.059C436.562 179.92 436.535 179.818 436.481 179.756C436.429 179.697 436.362 179.67 436.268 179.67C436.179 179.67 436.114 179.697 436.064 179.756C436.01 179.818 435.983 179.92 435.983 180.059V181.01H434.642L434.072 180.147C434.025 180.074 433.979 180.001 433.932 179.929C433.892 179.866 433.853 179.816 433.816 179.778C433.783 179.744 433.746 179.718 433.703 179.698C433.661 179.679 433.609 179.67 433.547 179.67C433.468 179.67 433.397 179.692 433.328 179.736C433.26 179.78 433.213 179.834 433.184 179.902C433.159 179.967 433.146 180.065 433.146 180.193V181.01H432.44C432.333 181.01 432.246 181.097 432.246 181.204C432.246 181.311 432.333 181.398 432.44 181.398H433.146V182.083H432.44C432.333 182.083 432.246 182.17 432.246 182.277C432.246 182.384 432.333 182.471 432.44 182.471H433.146V183.557C433.146 183.691 433.174 183.792 433.23 183.856C433.284 183.917 433.351 183.946 433.443 183.946C433.532 183.946 433.599 183.917 433.654 183.856C433.711 183.793 433.74 183.693 433.74 183.557V182.471H434.954L435.61 183.478C435.656 183.545 435.703 183.612 435.75 183.678C435.793 183.737 435.839 183.789 435.888 183.833C435.932 183.872 435.979 183.901 436.028 183.918C436.078 183.937 436.137 183.946 436.203 183.946C436.38 183.946 436.562 183.891 436.562 183.488V182.471H437.275C437.382 182.471 437.469 182.384 437.469 182.277C437.469 182.17 437.382 182.083 437.275 182.083ZM435.983 181.398V182.083H435.351L434.898 181.398H435.983ZM433.74 180.61L434.001 181.01H433.74V180.61ZM433.74 182.083V181.398H434.254L434.701 182.083H433.74ZM435.983 183.04L435.608 182.471H435.983V183.04Z" fill="#099ED6"/>
<path d="M421.404 183.117L423.066 180.446L425.135 182.636" stroke="#20336B" stroke-linecap="round" stroke-linejoin="round"/>
<path d="M423.056 181.347C423.918 186.811 428.594 190.858 434.126 190.928C439.658 190.998 444.434 187.07 445.434 181.629" stroke="#20336B" stroke-linecap="round" stroke-linejoin="round"/>
<path d="M446.596 175.32L444.934 177.992L442.865 175.802" stroke="#20336B" stroke-linecap="round" stroke-linejoin="round"/>
<path d="M444.944 177.091C444.082 171.626 439.406 167.579 433.874 167.509C428.342 167.44 423.566 171.367 422.566 176.808" stroke="#20336B" stroke-linecap="round" stroke-linejoin="round"/>
<g filter="url(#filter3_d_4716_6838)">
<rect x="386" y="10" width="96" height="96" rx="8" stroke="#C8D0DB"/>
</g>
<path d="M445.977 43.3075L443.352 36.4488C443.319 36.3632 443.254 36.2938 443.171 36.2554C443.088 36.2169 442.993 36.2125 442.906 36.243L440.141 37.2297C440.096 37.2456 440.055 37.2703 440.021 37.3023C439.986 37.3343 439.958 37.3729 439.939 37.4159C439.919 37.4588 439.908 37.5053 439.907 37.5525C439.906 37.5996 439.914 37.6466 439.932 37.6905L440.172 38.2999L438.285 39.1961L435.187 38.6144C434.886 38.558 434.576 38.5644 434.277 38.6333C433.978 38.7022 433.696 38.832 433.449 39.0147L432.896 39.4253L432.529 39.1614C432.252 38.9633 431.934 38.8308 431.599 38.7739C431.263 38.7171 430.919 38.7374 430.593 38.8333L429.404 39.1872L427.847 38.2563L428.07 37.691C428.088 37.647 428.096 37.6001 428.095 37.5529C428.093 37.5058 428.083 37.4593 428.063 37.4163C428.044 37.3734 428.016 37.3347 427.981 37.3028C427.946 37.2708 427.906 37.2461 427.861 37.2302L425.094 36.243C425.007 36.2122 424.912 36.2165 424.829 36.255C424.745 36.2934 424.68 36.363 424.648 36.4488L422.023 43.3075C421.991 43.392 421.992 43.4857 422.027 43.5692C422.062 43.6527 422.128 43.7195 422.211 43.7556L424.836 44.8867C424.879 44.9054 424.926 44.9152 424.973 44.9156C425.02 44.9159 425.067 44.9068 425.11 44.8887C425.154 44.8707 425.193 44.844 425.226 44.8104C425.259 44.7768 425.285 44.737 425.302 44.6931L425.567 44.0242L427.743 45.2505C427.596 45.4634 427.529 45.7208 427.552 45.9783C427.575 46.2357 427.688 46.4769 427.87 46.66C427.973 46.7627 428.095 46.8441 428.229 46.8995C428.363 46.9549 428.507 46.9833 428.652 46.983H428.68C428.704 47.258 428.831 47.5139 429.035 47.7001C429.239 47.8863 429.505 47.9893 429.781 47.9889H429.81C429.832 48.2474 429.945 48.4896 430.129 48.6728C430.231 48.7755 430.353 48.8569 430.487 48.9123C430.622 48.9678 430.765 48.9961 430.91 48.9958H430.938C430.957 49.2053 431.035 49.4052 431.163 49.5719C431.291 49.7386 431.464 49.8653 431.662 49.9371C431.86 50.0088 432.074 50.0227 432.279 49.977C432.484 49.9313 432.672 49.828 432.821 49.6792L433.239 49.2621L433.804 49.6839C434.044 49.8624 434.339 49.9484 434.637 49.926C434.935 49.9036 435.215 49.7744 435.425 49.5621L435.465 49.5217C435.642 49.3406 435.76 49.1095 435.802 48.8594C436.014 48.9191 436.237 48.9215 436.45 48.8662C436.663 48.8109 436.857 48.7 437.013 48.5449L437.042 48.5158C437.239 48.3189 437.364 48.061 437.395 47.7841C437.608 47.8476 437.835 47.8521 438.05 47.7972C438.266 47.7423 438.462 47.6301 438.619 47.4724L438.639 47.4527C438.831 47.2621 438.954 47.0129 438.989 46.7444C439.179 46.7897 439.377 46.7894 439.567 46.7435C439.756 46.6976 439.932 46.6075 440.08 46.4805C440.228 46.3536 440.344 46.1933 440.419 46.0129C440.493 45.8325 440.523 45.6371 440.508 45.4427C440.502 45.3673 440.489 45.2926 440.469 45.2196L442.512 44.2192L442.7 44.6917C442.717 44.7356 442.743 44.7756 442.776 44.8093C442.809 44.8429 442.848 44.8696 442.892 44.8877C442.935 44.9058 442.982 44.9149 443.029 44.9145C443.076 44.9141 443.123 44.9041 443.166 44.8853L445.791 43.7542C445.873 43.7178 445.938 43.6511 445.973 43.568C446.008 43.4848 446.009 43.3916 445.977 43.3075ZM424.781 44.0978L422.801 43.2438L425.18 37.0211L425.764 37.2288L424.639 40.4266C424.608 40.5146 424.613 40.6114 424.653 40.6956C424.694 40.7798 424.766 40.8446 424.854 40.8756C424.942 40.9067 425.039 40.9016 425.123 40.8613C425.207 40.821 425.272 40.749 425.303 40.661L426.425 37.4664L427.28 37.7716L424.781 44.0978ZM428.938 46.1627C428.862 46.2355 428.76 46.2758 428.655 46.2748C428.55 46.2739 428.449 46.2318 428.375 46.1575C428.3 46.0833 428.257 45.9828 428.256 45.8776C428.255 45.7723 428.295 45.6708 428.367 45.5946L429.117 44.8446C429.173 44.7884 429.245 44.7501 429.323 44.7347C429.401 44.7192 429.482 44.7272 429.556 44.7577C429.629 44.7882 429.692 44.8398 429.737 44.906C429.781 44.9721 429.805 45.0499 429.805 45.1296C429.805 45.1824 429.795 45.2348 429.774 45.2837C429.754 45.3325 429.724 45.3769 429.687 45.4141L428.938 46.1627ZM430.129 47.1077C430.108 47.1283 430.089 47.1503 430.07 47.1724L430.067 47.1681C430.03 47.2069 429.985 47.2379 429.936 47.2593C429.887 47.2807 429.834 47.292 429.78 47.2927C429.727 47.2933 429.673 47.2832 429.624 47.263C429.574 47.2427 429.529 47.2128 429.491 47.1749C429.453 47.137 429.423 47.0919 429.403 47.0422C429.382 46.9925 429.372 46.9393 429.373 46.8857C429.374 46.832 429.385 46.779 429.406 46.7298C429.427 46.6806 429.458 46.6362 429.497 46.5991L430.185 45.9114C430.206 45.8908 430.226 45.8692 430.244 45.8472L430.248 45.8505C430.324 45.7778 430.425 45.7377 430.53 45.7388C430.636 45.74 430.736 45.7822 430.811 45.8566C430.885 45.931 430.927 46.0315 430.929 46.1367C430.93 46.242 430.89 46.3435 430.817 46.4196L430.129 47.1077ZM431.194 48.1727C431.117 48.2415 431.017 48.2783 430.914 48.2756C430.811 48.2729 430.713 48.2308 430.641 48.158C430.568 48.0853 430.525 47.9873 430.523 47.8844C430.52 47.7814 430.556 47.6813 430.625 47.6046L431.375 46.8546C431.411 46.8133 431.456 46.78 431.506 46.7566C431.555 46.7333 431.609 46.7203 431.664 46.7186C431.719 46.7169 431.774 46.7264 431.825 46.7467C431.876 46.7669 431.923 46.7974 431.961 46.8362C432 46.8751 432.031 46.9215 432.051 46.9726C432.071 47.0237 432.081 47.0784 432.079 47.1333C432.078 47.1883 432.065 47.2423 432.041 47.292C432.018 47.3418 431.985 47.3863 431.944 47.4227L431.194 48.1727ZM433.073 48.4286L432.323 49.1786C432.247 49.2513 432.145 49.2914 432.04 49.2903C431.935 49.2891 431.834 49.2469 431.76 49.1725C431.685 49.0981 431.643 48.9976 431.642 48.8924C431.641 48.7872 431.681 48.6856 431.753 48.6096L432.441 47.9219C432.462 47.9013 432.482 47.8797 432.5 47.8577L432.504 47.861C432.58 47.7882 432.681 47.7481 432.787 47.7493C432.892 47.7504 432.992 47.7927 433.067 47.8671C433.141 47.9415 433.184 48.042 433.185 48.1472C433.186 48.2524 433.146 48.3539 433.073 48.43L433.073 48.4286ZM439.652 45.9161C439.559 46.0106 439.433 46.0664 439.3 46.0724C439.168 46.0784 439.038 46.0341 438.936 45.9485L438.662 45.7202C438.643 45.6923 438.62 45.6674 438.593 45.6461L437.961 45.138C437.888 45.0832 437.797 45.0589 437.706 45.0702C437.616 45.0814 437.533 45.1274 437.476 45.1984C437.419 45.2693 437.391 45.3598 437.4 45.4505C437.408 45.5413 437.451 45.6254 437.52 45.685L438.065 46.1252C438.081 46.1461 438.098 46.1654 438.117 46.1828C438.171 46.2308 438.215 46.2894 438.246 46.355C438.277 46.4205 438.293 46.4917 438.296 46.564C438.298 46.6364 438.285 46.7084 438.259 46.7757C438.232 46.843 438.192 46.9041 438.14 46.9553L438.121 46.975C438.032 47.0643 437.914 47.119 437.789 47.1293C437.663 47.1396 437.538 47.1049 437.435 47.0313L436.892 46.6422L436.887 46.638L436.681 46.4913C436.605 46.437 436.511 46.4151 436.419 46.4303C436.327 46.4456 436.245 46.4968 436.191 46.5726C436.136 46.6484 436.115 46.7427 436.13 46.8347C436.145 46.9267 436.196 47.0089 436.272 47.0631L436.481 47.2127C436.543 47.2579 436.595 47.316 436.632 47.383C436.67 47.4501 436.692 47.5244 436.698 47.601C436.704 47.6775 436.693 47.7544 436.666 47.8264C436.64 47.8984 436.598 47.9638 436.543 48.018L436.514 48.0471C436.419 48.1426 436.29 48.1981 436.155 48.2024C436.02 48.2067 435.888 48.1593 435.787 48.07L435.201 47.5544C435.167 47.5195 435.127 47.4919 435.082 47.4734C435.037 47.4549 434.989 47.4459 434.941 47.4469C434.892 47.4479 434.844 47.459 434.8 47.4793C434.756 47.4997 434.717 47.5289 434.685 47.5652C434.653 47.6015 434.628 47.644 434.613 47.6902C434.598 47.7363 434.593 47.785 434.598 47.8333C434.603 47.8815 434.618 47.9282 434.641 47.9705C434.665 48.0128 434.697 48.0497 434.736 48.0789L434.935 48.2552C434.989 48.3029 435.033 48.3612 435.064 48.4265C435.095 48.4918 435.113 48.5628 435.115 48.635C435.118 48.7072 435.106 48.7792 435.079 48.8466C435.053 48.9139 435.014 48.9753 434.963 49.0267L434.923 49.0671C434.833 49.1585 434.712 49.2141 434.584 49.2238C434.456 49.2334 434.328 49.1964 434.225 49.1196L433.719 48.7417C433.826 48.5746 433.886 48.3818 433.893 48.1835C433.899 47.9852 433.853 47.7887 433.758 47.6147C433.662 47.4406 433.522 47.2954 433.351 47.1942C433.181 47.093 432.986 47.0397 432.787 47.0397H432.76C432.735 46.7648 432.608 46.509 432.405 46.3227C432.201 46.1365 431.935 46.0332 431.659 46.0333H431.63C431.605 45.7543 431.474 45.4955 431.264 45.3095C431.055 45.1236 430.782 45.0243 430.502 45.0321C430.48 44.7736 430.367 44.5314 430.183 44.3486C429.976 44.1415 429.694 44.0252 429.401 44.0252C429.108 44.0252 428.827 44.1415 428.619 44.3486L428.241 44.7264L425.827 43.3671L427.584 38.9214L429.175 39.8725C429.217 39.8976 429.263 39.9136 429.312 39.9197C429.36 39.9258 429.409 39.9217 429.456 39.9077L430.793 39.5097C431.016 39.4439 431.252 39.4298 431.481 39.4686C431.711 39.5073 431.929 39.5979 432.118 39.7333L432.303 39.8664L430.423 41.261C430.284 41.3645 430.171 41.499 430.092 41.654C430.014 41.809 429.973 41.98 429.972 42.1537C429.971 42.3274 430.011 42.4988 430.087 42.6545C430.164 42.8102 430.277 42.9458 430.415 43.0506C430.676 43.2467 430.99 43.3593 431.317 43.3736C431.643 43.3879 431.966 43.3032 432.243 43.1308L433.719 42.2022C433.89 42.5444 434.211 43.0094 434.768 43.2958C435.413 43.6277 436.198 43.6361 437.103 43.3211L439.587 45.1103C439.649 45.1554 439.701 45.2135 439.739 45.2806C439.777 45.3477 439.8 45.4221 439.806 45.4989C439.812 45.5756 439.802 45.6528 439.775 45.7251C439.749 45.7974 439.707 45.863 439.652 45.9175V45.9161ZM440.104 44.6149L437.362 42.6414C437.315 42.6073 437.259 42.5855 437.201 42.5781C437.143 42.5708 437.084 42.578 437.03 42.5992C436.247 42.903 435.597 42.9274 435.096 42.6738C434.433 42.3367 434.23 41.5999 434.228 41.5956C434.215 41.542 434.188 41.4924 434.152 41.4508C434.115 41.4091 434.07 41.3767 434.018 41.3562C433.967 41.3356 433.911 41.3275 433.856 41.3324C433.801 41.3374 433.748 41.3553 433.701 41.3847L431.869 42.5336C431.713 42.6309 431.53 42.6785 431.346 42.6701C431.162 42.6617 430.985 42.5978 430.838 42.4867C430.786 42.4479 430.745 42.3976 430.716 42.3399C430.688 42.2821 430.673 42.2185 430.673 42.154C430.674 42.0896 430.689 42.0261 430.718 41.9687C430.747 41.9112 430.789 41.8613 430.841 41.823L433.866 39.5777C434.035 39.4527 434.228 39.364 434.433 39.3169C434.637 39.2698 434.849 39.2654 435.056 39.3039L438.266 39.9067C438.339 39.9207 438.414 39.911 438.481 39.8791L440.429 38.9538L442.251 43.5644L440.104 44.6149ZM443.219 44.0964L440.718 37.7683L441.574 37.4631L442.696 40.6577C442.727 40.7457 442.792 40.8178 442.876 40.858C442.96 40.8983 443.057 40.9034 443.145 40.8724C443.233 40.8413 443.305 40.7765 443.345 40.6923C443.385 40.6081 443.391 40.5113 443.36 40.4233L442.235 37.2255L442.818 37.0178L445.198 43.2405L443.219 44.0964Z" fill="#2C007D"/>
<path d="M434 37.0156C435.089 37.0156 436.154 36.6926 437.06 36.0874C437.966 35.4822 438.672 34.622 439.089 33.6156C439.505 32.6091 439.615 31.5017 439.402 30.4333C439.189 29.3649 438.665 28.3835 437.895 27.6132C437.124 26.8429 436.143 26.3184 435.075 26.1058C434.006 25.8933 432.899 26.0024 431.892 26.4193C430.886 26.8361 430.026 27.5421 429.42 28.4478C428.815 29.3536 428.492 30.4185 428.492 31.5078C428.494 32.9681 429.075 34.3681 430.107 35.4006C431.14 36.4332 432.54 37.014 434 37.0156ZM434 26.7031C434.95 26.7031 435.879 26.9849 436.669 27.5129C437.459 28.0408 438.075 28.7912 438.439 29.6691C438.803 30.5471 438.898 31.5131 438.712 32.4452C438.527 33.3772 438.069 34.2333 437.397 34.9052C436.725 35.5772 435.869 36.0348 434.937 36.2202C434.005 36.4056 433.039 36.3104 432.161 35.9468C431.283 35.5831 430.533 34.9673 430.005 34.1772C429.477 33.387 429.195 32.4581 429.195 31.5078C429.197 30.234 429.703 29.0127 430.604 28.1119C431.505 27.2111 432.726 26.7045 434 26.7031Z" fill="#2C007D"/>
<path d="M434 35.6094C434.811 35.6094 435.604 35.3688 436.279 34.9181C436.953 34.4675 437.479 33.8269 437.789 33.0774C438.1 32.328 438.181 31.5033 438.023 30.7076C437.864 29.912 437.474 29.1812 436.9 28.6076C436.327 28.034 435.596 27.6433 434.8 27.4851C434.005 27.3268 433.18 27.408 432.43 27.7185C431.681 28.0289 431.04 28.5546 430.59 29.2291C430.139 29.9036 429.898 30.6966 429.898 31.5078C429.9 32.5952 430.332 33.6378 431.101 34.4067C431.87 35.1756 432.913 35.6081 434 35.6094ZM434 28.1094C434.672 28.1094 435.329 28.3087 435.888 28.6821C436.447 29.0555 436.883 29.5863 437.14 30.2073C437.397 30.8283 437.464 31.5116 437.333 32.1708C437.202 32.83 436.878 33.4356 436.403 33.9109C435.928 34.3862 435.322 34.7098 434.663 34.841C434.004 34.9721 433.32 34.9048 432.699 34.6476C432.078 34.3903 431.548 33.9548 431.174 33.3959C430.801 32.837 430.602 32.18 430.602 31.5078C430.603 30.6068 430.961 29.743 431.598 29.1059C432.235 28.4687 433.099 28.1104 434 28.1094ZM441.075 31.5078C441.075 31.554 441.084 31.5997 441.102 31.6424C441.12 31.685 441.146 31.7238 441.178 31.7564C441.211 31.7891 441.25 31.8149 441.292 31.8326C441.335 31.8503 441.381 31.8594 441.427 31.8594H443.375C443.468 31.8594 443.558 31.8223 443.624 31.7564C443.69 31.6905 443.727 31.6011 443.727 31.5078C443.727 31.4146 443.69 31.3252 443.624 31.2592C443.558 31.1933 443.468 31.1563 443.375 31.1563H441.427C441.334 31.1563 441.244 31.1933 441.178 31.2592C441.112 31.3252 441.075 31.4146 441.075 31.5078ZM440.697 29.9052C440.759 29.9056 440.821 29.8895 440.875 29.8583L442.335 29C442.416 28.9528 442.475 28.8755 442.499 28.785C442.522 28.6945 442.509 28.5982 442.462 28.5174C442.415 28.4366 442.338 28.3779 442.247 28.3541C442.157 28.3303 442.06 28.3434 441.98 28.3906L440.518 29.2503C440.451 29.2891 440.399 29.349 440.369 29.4208C440.339 29.4926 440.334 29.5721 440.355 29.6471C440.375 29.7221 440.419 29.7882 440.481 29.8351C440.543 29.882 440.619 29.9072 440.697 29.9066V29.9052ZM440.518 33.7653L441.98 34.625C442.02 34.6484 442.064 34.6636 442.11 34.6699C442.156 34.6762 442.202 34.6733 442.247 34.6615C442.292 34.6498 442.334 34.6293 442.371 34.6013C442.408 34.5732 442.439 34.5382 442.462 34.4982C442.485 34.4582 442.501 34.414 442.507 34.3681C442.513 34.3222 442.51 34.2755 442.499 34.2307C442.487 34.1858 442.466 34.1438 442.438 34.1069C442.41 34.07 442.375 34.039 442.335 34.0156L440.875 33.1578C440.835 33.1336 440.791 33.1175 440.745 33.1105C440.698 33.1035 440.651 33.1057 440.606 33.1171C440.561 33.1285 440.518 33.1487 440.481 33.1767C440.444 33.2046 440.412 33.2397 440.389 33.2799C440.365 33.3201 440.35 33.3646 440.343 33.4108C440.337 33.457 440.34 33.504 440.352 33.5491C440.364 33.5941 440.385 33.6363 440.414 33.6732C440.442 33.7101 440.478 33.7409 440.518 33.7639V33.7653ZM424.625 31.8594H426.573C426.666 31.8594 426.756 31.8223 426.822 31.7564C426.888 31.6905 426.925 31.6011 426.925 31.5078C426.925 31.4146 426.888 31.3252 426.822 31.2592C426.756 31.1933 426.666 31.1563 426.573 31.1563H424.625C424.532 31.1563 424.442 31.1933 424.376 31.2592C424.31 31.3252 424.273 31.4146 424.273 31.5078C424.273 31.6011 424.31 31.6905 424.376 31.7564C424.442 31.8223 424.532 31.8594 424.625 31.8594ZM425.665 29L427.125 29.8578C427.165 29.8821 427.209 29.8982 427.255 29.9051C427.302 29.9121 427.349 29.9099 427.394 29.8985C427.439 29.8872 427.482 29.8669 427.519 29.839C427.556 29.811 427.588 29.7759 427.611 29.7357C427.635 29.6955 427.65 29.651 427.657 29.6048C427.663 29.5586 427.66 29.5116 427.648 29.4666C427.636 29.4215 427.615 29.3793 427.586 29.3424C427.558 29.3056 427.522 29.2747 427.482 29.2517L426.02 28.3906C425.98 28.3673 425.936 28.352 425.89 28.3457C425.844 28.3395 425.798 28.3423 425.753 28.3541C425.662 28.3779 425.585 28.4366 425.538 28.5174C425.491 28.5982 425.478 28.6945 425.501 28.785C425.525 28.8755 425.584 28.9528 425.665 29ZM427.125 33.1592L425.665 34.0156C425.584 34.0628 425.525 34.1402 425.501 34.2307C425.478 34.3212 425.491 34.4174 425.538 34.4982C425.585 34.579 425.662 34.6378 425.753 34.6615C425.843 34.6853 425.94 34.6722 426.02 34.625L427.482 33.7667C427.522 33.7437 427.558 33.7129 427.586 33.676C427.615 33.6391 427.636 33.5969 427.648 33.5519C427.66 33.5068 427.663 33.4599 427.657 33.4136C427.65 33.3674 427.635 33.3229 427.611 33.2827C427.588 33.2425 427.556 33.2074 427.519 33.1795C427.482 33.1515 427.439 33.1313 427.394 33.1199C427.349 33.1086 427.302 33.1063 427.255 33.1133C427.209 33.1203 427.165 33.1364 427.125 33.1606V33.1592Z" fill="#00BAF2"/>
<path d="M433.213 33.0375C433.246 33.073 433.286 33.1012 433.33 33.1206C433.374 33.1399 433.422 33.1499 433.471 33.1499C433.519 33.1499 433.567 33.1399 433.611 33.1206C433.655 33.1012 433.695 33.073 433.728 33.0375L436.135 30.4594C436.166 30.4256 436.191 30.3858 436.207 30.3425C436.223 30.2991 436.231 30.2531 436.229 30.2068C436.227 30.1606 436.217 30.1152 436.197 30.0731C436.178 30.031 436.151 29.9931 436.117 29.9616C436.083 29.9301 436.043 29.9055 436 29.8894C435.957 29.8732 435.911 29.8658 435.864 29.8674C435.818 29.8691 435.773 29.8798 435.731 29.899C435.689 29.9182 435.651 29.9456 435.619 29.9794L433.47 32.2819L432.383 31.118C432.32 31.0496 432.232 31.0093 432.138 31.006C432.045 31.0027 431.954 31.0365 431.886 31.1002C431.817 31.1639 431.777 31.2521 431.774 31.3454C431.77 31.4388 431.804 31.5296 431.868 31.598L433.213 33.0375Z" fill="#00BAF2"/>
<defs>
<filter id="filter0_d_4716_6838" x="-26" y="0" width="180" height="180" filterUnits="userSpaceOnUse" color-interpolation-filters="sRGB">
<feFlood flood-opacity="0" result="BackgroundImageFix"/>
<feColorMatrix in="SourceAlpha" type="matrix" values="0 0 0 0 0 0 0 0 0 0 0 0 0 0 0 0 0 0 127 0" result="hardAlpha"/>
<feMorphology radius="12" operator="erode" in="SourceAlpha" result="effect1_dropShadow_4716_6838"/>
<feOffset dy="32"/>
<feGaussianBlur stdDeviation="27"/>
<feColorMatrix type="matrix" values="0 0 0 0 0.0627451 0 0 0 0 0.0980392 0 0 0 0 0.156863 0 0 0 0.18 0"/>
<feBlend mode="normal" in2="BackgroundImageFix" result="effect1_dropShadow_4716_6838"/>
<feBlend mode="normal" in="SourceGraphic" in2="effect1_dropShadow_4716_6838" result="shape"/>
</filter>
<filter id="filter1_d_4716_6838" x="550" y="0" width="180" height="180" filterUnits="userSpaceOnUse" color-interpolation-filters="sRGB">
<feFlood flood-opacity="0" result="BackgroundImageFix"/>
<feColorMatrix in="SourceAlpha" type="matrix" values="0 0 0 0 0 0 0 0 0 0 0 0 0 0 0 0 0 0 127 0" result="hardAlpha"/>
<feMorphology radius="12" operator="erode" in="SourceAlpha" result="effect1_dropShadow_4716_6838"/>
<feOffset dy="32"/>
<feGaussianBlur stdDeviation="27"/>
<feColorMatrix type="matrix" values="0 0 0 0 0.0627451 0 0 0 0 0.0980392 0 0 0 0 0.156863 0 0 0 0.18 0"/>
<feBlend mode="normal" in2="BackgroundImageFix" result="effect1_dropShadow_4716_6838"/>
<feBlend mode="normal" in="SourceGraphic" in2="effect1_dropShadow_4716_6838" result="shape"/>
</filter>
<filter id="filter2_d_4716_6838" x="344" y="144" width="180" height="180" filterUnits="userSpaceOnUse" color-interpolation-filters="sRGB">
<feFlood flood-opacity="0" result="BackgroundImageFix"/>
<feColorMatrix in="SourceAlpha" type="matrix" values="0 0 0 0 0 0 0 0 0 0 0 0 0 0 0 0 0 0 127 0" result="hardAlpha"/>
<feMorphology radius="12" operator="erode" in="SourceAlpha" result="effect1_dropShadow_4716_6838"/>
<feOffset dy="32"/>
<feGaussianBlur stdDeviation="27"/>
<feColorMatrix type="matrix" values="0 0 0 0 0.0627451 0 0 0 0 0.0980392 0 0 0 0 0.156863 0 0 0 0.18 0"/>
<feBlend mode="normal" in2="BackgroundImageFix" result="effect1_dropShadow_4716_6838"/>
<feBlend mode="normal" in="SourceGraphic" in2="effect1_dropShadow_4716_6838" result="shape"/>
</filter>
<filter id="filter3_d_4716_6838" x="344" y="0" width="180" height="180" filterUnits="userSpaceOnUse" color-interpolation-filters="sRGB">
<feFlood flood-opacity="0" result="BackgroundImageFix"/>
<feColorMatrix in="SourceAlpha" type="matrix" values="0 0 0 0 0 0 0 0 0 0 0 0 0 0 0 0 0 0 127 0" result="hardAlpha"/>
<feMorphology radius="12" operator="erode" in="SourceAlpha" result="effect1_dropShadow_4716_6838"/>
<feOffset dy="32"/>
<feGaussianBlur stdDeviation="27"/>
<feColorMatrix type="matrix" values="0 0 0 0 0.0627451 0 0 0 0 0.0980392 0 0 0 0 0.156863 0 0 0 0.18 0"/>
<feBlend mode="normal" in2="BackgroundImageFix" result="effect1_dropShadow_4716_6838"/>
<feBlend mode="normal" in="SourceGraphic" in2="effect1_dropShadow_4716_6838" result="shape"/>
</filter>
<radialGradient id="paint0_radial_4716_6838" cx="0" cy="0" r="1" gradientUnits="userSpaceOnUse" gradientTransform="translate(350.75 128.492) rotate(90) scale(71.5 286.75)">
<stop stop-color="#0CC2FF"/>
<stop offset="1" stop-color="#8CF2B2"/>
</radialGradient>
</defs>
</svg>
