<svg width="704" height="284" viewBox="0 0 704 284" fill="none" xmlns="http://www.w3.org/2000/svg">

<g filter="url(#filter0_d_4716_6488)">
<rect x="592" y="10" width="96" height="96" rx="8" stroke="#C8D0DB"/>
</g>
<path d="M651.429 41.6589C651.34 41.3466 651.167 41.0646 650.929 40.8432C650.691 40.6217 650.398 40.4692 650.08 40.402C649.664 40.3135 649.232 40.3781 648.863 40.5742C649.077 39.2455 648.964 37.871 648.525 36.5898C648.441 36.3449 648.174 36.2148 647.929 36.2986C647.684 36.3826 647.554 36.6493 647.638 36.8941C648.157 38.4072 648.162 40.067 647.653 41.5819L643.917 44.8996C643.689 45.1025 643.436 45.2769 643.165 45.4187C643.242 45.1086 643.235 44.7835 643.145 44.477C643.073 44.2353 642.952 44.0112 642.788 43.8193C642.625 43.6275 642.423 43.472 642.196 43.3629L638.887 41.7779C637.44 41.0849 635.746 41.0048 634.241 41.5576L633.904 41.6811C632.971 39.0435 633.62 36.1183 635.62 34.1189L638.929 30.8096H642.593L645.397 33.6136C645.58 33.7966 645.877 33.7966 646.06 33.6136C646.243 33.4305 646.243 33.1337 646.06 32.9506L643.381 30.2716L644.349 27.4844C644.479 27.1107 644.336 26.7031 644.001 26.493C643.666 26.2829 643.236 26.3316 642.956 26.6112L642.951 26.617C642.757 26.8108 642.441 26.8108 642.248 26.617C641.425 25.7943 640.086 25.7943 639.264 26.617C639.17 26.7109 639.045 26.7625 638.912 26.7625C638.78 26.7625 638.655 26.7108 638.561 26.617C638.281 26.337 637.851 26.2885 637.516 26.4992C637.18 26.7099 637.038 27.1181 637.168 27.4919L638.141 30.2718L634.957 33.456C633.779 34.6345 632.995 36.1203 632.692 37.7528C632.426 39.1844 632.541 40.6442 633.023 42.0046L632.284 42.2759C632.038 41.9562 631.652 41.7496 631.219 41.7496H628.844C628.103 41.7496 627.5 42.3525 627.5 43.0934V48.656C627.5 49.397 628.103 49.9998 628.844 49.9998H641.199C643.139 49.9998 644.975 49.255 646.366 47.9025L650.956 43.4414C651.19 43.2153 651.357 42.9298 651.44 42.6158C651.524 42.3018 651.52 41.971 651.429 41.6589ZM638.912 27.7001C639.295 27.7001 639.656 27.5509 639.927 27.28C640.384 26.8228 641.128 26.8228 641.585 27.28C641.856 27.5509 642.216 27.7001 642.599 27.7001C642.871 27.7001 643.132 27.6249 643.357 27.4843L642.527 29.8721H638.995L638.16 27.4879C638.384 27.6261 638.642 27.7001 638.912 27.7001ZM628.438 48.6561V43.0934C628.438 42.8694 628.62 42.6871 628.844 42.6871H631.219C631.443 42.6871 631.625 42.8694 631.625 43.0934V48.656C631.625 48.8801 631.443 49.0623 631.219 49.0623H628.844C628.62 49.0624 628.438 48.8801 628.438 48.6561ZM650.303 42.7692L645.713 47.2302C644.497 48.4117 642.894 49.0624 641.199 49.0624H632.5C632.541 48.931 632.563 48.7939 632.563 48.6561V43.1725L634.564 42.4378C635.833 41.9716 637.262 42.0392 638.482 42.6235L641.791 44.2086C642.014 44.3155 642.176 44.5051 642.246 44.7425C642.316 44.9798 642.283 45.2268 642.154 45.4378C642.053 45.6023 641.9 45.7282 641.719 45.7955C641.539 45.8627 641.34 45.8674 641.157 45.8088L636.76 44.4107C636.514 44.3323 636.25 44.4686 636.172 44.7154C636.093 44.9621 636.23 45.2258 636.476 45.3042L640.873 46.7022C641.05 46.7586 641.234 46.7874 641.42 46.7874C641.442 46.7874 641.464 46.7861 641.486 46.7853C642.613 46.7691 643.695 46.3506 644.54 45.6007L649.139 41.5162C649.239 41.4274 649.359 41.3634 649.488 41.3292C649.618 41.2949 649.753 41.2915 649.884 41.3191C650.199 41.3859 650.439 41.6101 650.528 41.9188C650.618 42.2273 650.533 42.5453 650.303 42.7692Z" fill="#20336B"/>
<path d="M647.129 35.3281C647.252 35.3281 647.373 35.2784 647.46 35.1908C647.548 35.1027 647.597 34.9836 647.598 34.8594C647.598 34.7361 647.548 34.6156 647.46 34.528C647.372 34.4404 647.253 34.3911 647.129 34.3906C647.006 34.3906 646.885 34.4408 646.797 34.528C646.71 34.6161 646.661 34.7352 646.66 34.8594C646.66 34.9831 646.71 35.1036 646.797 35.1908C646.885 35.2786 647.005 35.328 647.129 35.3281Z" fill="#20336B"/>
<path d="M644.452 37.3357H643.466V36.3885H644.452C644.6 36.3885 644.72 36.2686 644.72 36.1205C644.72 35.9723 644.6 35.8523 644.452 35.8523H643.466V34.538C643.466 34.3462 643.428 34.2054 643.354 34.1196C643.283 34.038 643.189 34 643.06 34C642.936 34 642.847 34.0377 642.777 34.1188C642.703 34.2047 642.666 34.3458 642.666 34.5381V35.8525H640.812L640.023 34.6597C639.96 34.5588 639.895 34.4582 639.831 34.3578C639.775 34.2716 639.721 34.2014 639.67 34.149C639.625 34.1026 639.574 34.0667 639.513 34.0391C639.456 34.0131 639.384 34.0001 639.298 34.0001C639.189 34.0001 639.09 34.03 638.995 34.0914C638.902 34.1522 638.837 34.2273 638.797 34.3211C638.762 34.4102 638.744 34.5468 638.744 34.723V35.8524H637.768C637.62 35.8524 637.5 35.9724 637.5 36.1205C637.5 36.2687 637.62 36.3886 637.768 36.3886H638.744V37.3359H637.768C637.62 37.3359 637.5 37.4559 637.5 37.604C637.5 37.7521 637.62 37.872 637.768 37.872H638.744V39.3726C638.744 39.5588 638.783 39.6982 638.86 39.7867C638.934 39.8712 639.028 39.9104 639.154 39.9104C639.277 39.9104 639.37 39.871 639.446 39.7864C639.525 39.6997 639.565 39.5604 639.565 39.3726V37.872H641.243L642.15 39.2641C642.214 39.3567 642.278 39.4486 642.344 39.54C642.402 39.6218 642.466 39.6939 642.534 39.7541C642.595 39.8085 642.66 39.8484 642.728 39.8727C642.797 39.8979 642.879 39.9106 642.969 39.9106C643.215 39.9106 643.466 39.8354 643.466 39.278V37.872H644.452C644.6 37.872 644.72 37.7519 644.72 37.6039C644.72 37.4558 644.6 37.3357 644.452 37.3357ZM642.666 36.3885V37.3357H641.792L641.166 36.3885H642.666ZM639.565 35.3001L639.925 35.8523H639.565V35.3001ZM639.565 37.3357V36.3885H640.275L640.893 37.3357H639.565ZM642.666 38.6578L642.146 37.872H642.666V38.6578Z" fill="#24BAF2"/>

<g filter="url(#filter1_d_4716_6488)">
<rect x="16" y="172" width="96" height="96" rx="8" stroke="#C8D0DB"/>
</g>
<path fill-rule="evenodd" clip-rule="evenodd" d="M63.5553 189.761C61.8138 189.761 60.402 191.173 60.402 192.915C60.402 194.656 61.8138 196.068 63.5553 196.068C65.2969 196.068 66.7087 194.656 66.7087 192.915C66.7087 191.173 65.2969 189.761 63.5553 189.761ZM59.1406 192.915C59.1406 190.477 61.1172 188.5 63.5553 188.5C65.9935 188.5 67.97 190.477 67.97 192.915C67.97 195.353 65.9935 197.329 63.5553 197.329C61.1172 197.329 59.1406 195.353 59.1406 192.915Z" fill="#223872"/>
<path fill-rule="evenodd" clip-rule="evenodd" d="M60.4158 197.904C60.0675 197.904 59.7852 198.187 59.7852 198.535C59.7852 198.883 60.0675 199.166 60.4158 199.166H65.0027C68.2884 199.166 71.1237 201.471 71.7941 204.688L72.079 206.055C72.4872 208.013 70.9924 209.852 68.992 209.852H60.1599V211.113H68.992C71.7924 211.113 73.8853 208.539 73.3139 205.798L73.0288 204.43C72.2366 200.629 68.8859 197.904 65.0027 197.904H60.4158Z" fill="#223872"/>
<path d="M55.9981 201.406C52.2509 208.484 55.9981 210.566 59.0749 210.487" stroke="#3FAFE9" stroke-width="1.5"/>
<path d="M56 201.407L56.4164 200.574" stroke="#3FAFE9" stroke-width="1.5"/>
<path d="M54.5437 198.922L58.6508 198.874L58.3105 202.59L54.5437 198.922Z" fill="#3FAFE9" stroke="#3FAFE9"/>
<path d="M42.7666 224.047H44.0449L47.3057 232.161L50.5596 224.047H51.8447L47.7979 234H46.7998L42.7666 224.047ZM42.3496 224.047H43.4775L43.6621 230.117V234H42.3496V224.047ZM51.127 224.047H52.2549V234H50.9424V230.117L51.127 224.047ZM54.0459 230.384V230.227C54.0459 229.693 54.1234 229.199 54.2783 228.743C54.4333 228.283 54.6566 227.884 54.9482 227.547C55.2399 227.205 55.5931 226.941 56.0078 226.754C56.4225 226.562 56.8874 226.467 57.4023 226.467C57.9219 226.467 58.389 226.562 58.8037 226.754C59.223 226.941 59.5785 227.205 59.8701 227.547C60.1663 227.884 60.3919 228.283 60.5469 228.743C60.7018 229.199 60.7793 229.693 60.7793 230.227V230.384C60.7793 230.917 60.7018 231.411 60.5469 231.867C60.3919 232.323 60.1663 232.722 59.8701 233.063C59.5785 233.401 59.2253 233.665 58.8105 233.856C58.4004 234.043 57.9355 234.137 57.416 234.137C56.8965 234.137 56.4294 234.043 56.0146 233.856C55.5999 233.665 55.2445 233.401 54.9482 233.063C54.6566 232.722 54.4333 232.323 54.2783 231.867C54.1234 231.411 54.0459 230.917 54.0459 230.384ZM55.3105 230.227V230.384C55.3105 230.753 55.3538 231.102 55.4404 231.43C55.527 231.753 55.6569 232.04 55.8301 232.291C56.0078 232.542 56.2288 232.74 56.4932 232.886C56.7575 233.027 57.0651 233.098 57.416 233.098C57.7624 233.098 58.0654 233.027 58.3252 232.886C58.5895 232.74 58.8083 232.542 58.9814 232.291C59.1546 232.04 59.2845 231.753 59.3711 231.43C59.4622 231.102 59.5078 230.753 59.5078 230.384V230.227C59.5078 229.862 59.4622 229.518 59.3711 229.194C59.2845 228.866 59.1523 228.577 58.9746 228.326C58.8014 228.071 58.5827 227.87 58.3184 227.725C58.0586 227.579 57.7533 227.506 57.4023 227.506C57.056 227.506 56.7507 227.579 56.4863 227.725C56.2266 227.87 56.0078 228.071 55.8301 228.326C55.6569 228.577 55.527 228.866 55.4404 229.194C55.3538 229.518 55.3105 229.862 55.3105 230.227ZM63.6299 228.183V234H62.3652V226.604H63.5615L63.6299 228.183ZM63.3291 230.021L62.8027 230.001C62.8073 229.495 62.8825 229.028 63.0283 228.6C63.1742 228.167 63.3792 227.791 63.6436 227.472C63.9079 227.153 64.2223 226.907 64.5869 226.733C64.9561 226.556 65.3639 226.467 65.8105 226.467C66.1751 226.467 66.5033 226.517 66.7949 226.617C67.0866 226.713 67.335 226.868 67.54 227.082C67.7497 227.296 67.9092 227.574 68.0186 227.916C68.1279 228.253 68.1826 228.666 68.1826 229.153V234H66.9111V229.14C66.9111 228.752 66.8542 228.442 66.7402 228.21C66.6263 227.973 66.46 227.802 66.2412 227.697C66.0225 227.588 65.7536 227.533 65.4346 227.533C65.1201 227.533 64.833 227.599 64.5732 227.731C64.318 227.864 64.097 228.046 63.9102 228.278C63.7279 228.511 63.5843 228.777 63.4795 229.078C63.3792 229.374 63.3291 229.689 63.3291 230.021ZM73.2002 226.604V227.574H69.2012V226.604H73.2002ZM70.5547 224.806H71.8193V232.168C71.8193 232.419 71.8581 232.608 71.9355 232.735C72.013 232.863 72.1133 232.947 72.2363 232.988C72.3594 233.029 72.4915 233.05 72.6328 233.05C72.7376 233.05 72.847 233.041 72.9609 233.022C73.0794 233 73.1683 232.981 73.2275 232.968L73.2344 234C73.1341 234.032 73.002 234.062 72.8379 234.089C72.6784 234.121 72.4847 234.137 72.2568 234.137C71.9469 234.137 71.6621 234.075 71.4023 233.952C71.1426 233.829 70.9352 233.624 70.7803 233.337C70.6299 233.045 70.5547 232.653 70.5547 232.161V224.806ZM75.9482 227.766V234H74.6836V226.604H75.9141L75.9482 227.766ZM78.2588 226.562L78.252 227.738C78.1471 227.715 78.0469 227.702 77.9512 227.697C77.86 227.688 77.7552 227.684 77.6367 227.684C77.3451 227.684 77.0876 227.729 76.8643 227.82C76.641 227.911 76.4518 228.039 76.2969 228.203C76.1419 228.367 76.0189 228.563 75.9277 228.791C75.8411 229.014 75.7842 229.26 75.7568 229.529L75.4014 229.734C75.4014 229.288 75.4447 228.868 75.5312 228.477C75.6224 228.085 75.7614 227.738 75.9482 227.438C76.1351 227.132 76.3721 226.895 76.6592 226.727C76.9508 226.553 77.2972 226.467 77.6982 226.467C77.7894 226.467 77.8942 226.478 78.0127 226.501C78.1312 226.519 78.2132 226.54 78.2588 226.562ZM83.5156 232.735V228.928C83.5156 228.636 83.4564 228.383 83.3379 228.169C83.224 227.95 83.0508 227.782 82.8184 227.663C82.5859 227.545 82.2988 227.485 81.957 227.485C81.638 227.485 81.3577 227.54 81.1162 227.649C80.8792 227.759 80.6924 227.902 80.5557 228.08C80.4235 228.258 80.3574 228.449 80.3574 228.654H79.0928C79.0928 228.39 79.1611 228.128 79.2979 227.868C79.4346 227.608 79.6305 227.374 79.8857 227.164C80.1455 226.95 80.4554 226.781 80.8154 226.658C81.18 226.531 81.5856 226.467 82.0322 226.467C82.57 226.467 83.0439 226.558 83.4541 226.74C83.8688 226.923 84.1924 227.198 84.4248 227.567C84.6618 227.932 84.7803 228.39 84.7803 228.941V232.387C84.7803 232.633 84.8008 232.895 84.8418 233.173C84.8874 233.451 84.9535 233.69 85.04 233.891V234H83.7207C83.6569 233.854 83.6068 233.66 83.5703 233.419C83.5339 233.173 83.5156 232.945 83.5156 232.735ZM83.7344 229.516L83.748 230.404H82.4697C82.1097 230.404 81.7884 230.434 81.5059 230.493C81.2233 230.548 80.9863 230.632 80.7949 230.746C80.6035 230.86 80.4577 231.004 80.3574 231.177C80.2572 231.345 80.207 231.544 80.207 231.771C80.207 232.004 80.2594 232.216 80.3643 232.407C80.4691 232.599 80.6263 232.751 80.8359 232.865C81.0501 232.975 81.3122 233.029 81.6221 233.029C82.0094 233.029 82.3512 232.947 82.6475 232.783C82.9437 232.619 83.1784 232.419 83.3516 232.182C83.5293 231.945 83.625 231.715 83.6387 231.491L84.1787 232.1C84.1468 232.291 84.0602 232.503 83.9189 232.735C83.7777 232.968 83.5885 233.191 83.3516 233.405C83.1191 233.615 82.8411 233.79 82.5176 233.932C82.1986 234.068 81.8385 234.137 81.4375 234.137C80.9362 234.137 80.4964 234.039 80.1182 233.843C79.7445 233.647 79.4528 233.385 79.2432 233.057C79.0381 232.724 78.9355 232.353 78.9355 231.942C78.9355 231.546 79.013 231.197 79.168 230.896C79.3229 230.591 79.5462 230.338 79.8379 230.138C80.1296 229.933 80.4805 229.778 80.8906 229.673C81.3008 229.568 81.7588 229.516 82.2646 229.516H83.7344ZM36.5732 248.835H37.8857C37.8174 249.464 37.6374 250.027 37.3457 250.523C37.054 251.02 36.6416 251.414 36.1084 251.706C35.5752 251.993 34.9098 252.137 34.1123 252.137C33.529 252.137 32.998 252.027 32.5195 251.809C32.0456 251.59 31.6377 251.28 31.2959 250.879C30.9541 250.473 30.6898 249.988 30.5029 249.423C30.3206 248.853 30.2295 248.22 30.2295 247.522V246.531C30.2295 245.834 30.3206 245.203 30.5029 244.638C30.6898 244.068 30.9564 243.58 31.3027 243.175C31.6536 242.769 32.0752 242.457 32.5674 242.238C33.0596 242.02 33.6133 241.91 34.2285 241.91C34.9805 241.91 35.6162 242.051 36.1357 242.334C36.6553 242.617 37.0586 243.008 37.3457 243.51C37.6374 244.007 37.8174 244.583 37.8857 245.239H36.5732C36.5094 244.774 36.391 244.376 36.2178 244.043C36.0446 243.706 35.7985 243.446 35.4795 243.264C35.1605 243.081 34.7435 242.99 34.2285 242.99C33.7865 242.99 33.3968 243.075 33.0596 243.243C32.7269 243.412 32.4466 243.651 32.2188 243.961C31.9954 244.271 31.8268 244.642 31.7129 245.075C31.599 245.508 31.542 245.989 31.542 246.518V247.522C31.542 248.01 31.5921 248.468 31.6924 248.896C31.7972 249.325 31.9544 249.701 32.1641 250.024C32.3737 250.348 32.6403 250.603 32.9639 250.79C33.2874 250.972 33.6702 251.063 34.1123 251.063C34.6729 251.063 35.1195 250.975 35.4521 250.797C35.7848 250.619 36.0355 250.364 36.2041 250.031C36.3773 249.699 36.5003 249.3 36.5732 248.835ZM44.0176 250.291V244.604H45.2891V252H44.0791L44.0176 250.291ZM44.2568 248.732L44.7832 248.719C44.7832 249.211 44.7308 249.667 44.626 250.086C44.5257 250.501 44.3617 250.861 44.1338 251.166C43.9059 251.471 43.6074 251.711 43.2383 251.884C42.8691 252.052 42.4202 252.137 41.8916 252.137C41.5316 252.137 41.2012 252.084 40.9004 251.979C40.6042 251.875 40.349 251.713 40.1348 251.494C39.9206 251.275 39.7542 250.991 39.6357 250.64C39.5218 250.289 39.4648 249.867 39.4648 249.375V244.604H40.7295V249.389C40.7295 249.721 40.766 249.997 40.8389 250.216C40.9163 250.43 41.0189 250.601 41.1465 250.729C41.2786 250.852 41.4245 250.938 41.584 250.988C41.748 251.038 41.9167 251.063 42.0898 251.063C42.6276 251.063 43.0537 250.961 43.3682 250.756C43.6826 250.546 43.9082 250.266 44.0449 249.915C44.1862 249.56 44.2568 249.165 44.2568 248.732ZM51.5234 250.038C51.5234 249.856 51.4824 249.687 51.4004 249.532C51.3229 249.373 51.1611 249.229 50.915 249.102C50.6735 248.969 50.3089 248.855 49.8213 248.76C49.4111 248.673 49.0397 248.571 48.707 248.452C48.3789 248.334 48.0986 248.19 47.8662 248.021C47.6383 247.853 47.4629 247.655 47.3398 247.427C47.2168 247.199 47.1553 246.932 47.1553 246.627C47.1553 246.335 47.2191 246.06 47.3467 245.8C47.4788 245.54 47.6634 245.31 47.9004 245.109C48.1419 244.909 48.4313 244.752 48.7686 244.638C49.1058 244.524 49.4818 244.467 49.8965 244.467C50.4889 244.467 50.9948 244.572 51.4141 244.781C51.8333 244.991 52.1546 245.271 52.3779 245.622C52.6012 245.968 52.7129 246.354 52.7129 246.777H51.4482C51.4482 246.572 51.3867 246.374 51.2637 246.183C51.1452 245.987 50.9697 245.825 50.7373 245.697C50.5094 245.57 50.2292 245.506 49.8965 245.506C49.5456 245.506 49.2607 245.561 49.042 245.67C48.8278 245.775 48.6706 245.909 48.5703 246.073C48.4746 246.237 48.4268 246.41 48.4268 246.593C48.4268 246.729 48.4495 246.853 48.4951 246.962C48.5452 247.067 48.6318 247.165 48.7549 247.256C48.8779 247.342 49.0511 247.424 49.2744 247.502C49.4977 247.579 49.7826 247.657 50.1289 247.734C50.735 247.871 51.234 248.035 51.626 248.227C52.0179 248.418 52.3096 248.653 52.501 248.931C52.6924 249.209 52.7881 249.546 52.7881 249.942C52.7881 250.266 52.7197 250.562 52.583 250.831C52.4508 251.1 52.2572 251.332 52.002 251.528C51.7513 251.72 51.4505 251.87 51.0996 251.979C50.7533 252.084 50.3636 252.137 49.9307 252.137C49.279 252.137 48.7275 252.021 48.2764 251.788C47.8252 251.556 47.4834 251.255 47.251 250.886C47.0186 250.517 46.9023 250.127 46.9023 249.717H48.1738C48.1921 250.063 48.2923 250.339 48.4746 250.544C48.6569 250.744 48.8802 250.888 49.1445 250.975C49.4089 251.057 49.6709 251.098 49.9307 251.098C50.277 251.098 50.5664 251.052 50.7988 250.961C51.0358 250.87 51.2158 250.744 51.3389 250.585C51.4619 250.425 51.5234 250.243 51.5234 250.038ZM57.5459 244.604V245.574H53.5469V244.604H57.5459ZM54.9004 242.806H56.165V250.168C56.165 250.419 56.2038 250.608 56.2812 250.735C56.3587 250.863 56.459 250.947 56.582 250.988C56.7051 251.029 56.8372 251.05 56.9785 251.05C57.0833 251.05 57.1927 251.041 57.3066 251.022C57.4251 251 57.514 250.981 57.5732 250.968L57.5801 252C57.4798 252.032 57.3477 252.062 57.1836 252.089C57.0241 252.121 56.8304 252.137 56.6025 252.137C56.2926 252.137 56.0078 252.075 55.748 251.952C55.4883 251.829 55.2809 251.624 55.126 251.337C54.9756 251.045 54.9004 250.653 54.9004 250.161V242.806ZM58.5576 248.384V248.227C58.5576 247.693 58.6351 247.199 58.79 246.743C58.945 246.283 59.1683 245.884 59.46 245.547C59.7516 245.205 60.1048 244.941 60.5195 244.754C60.9342 244.562 61.3991 244.467 61.9141 244.467C62.4336 244.467 62.9007 244.562 63.3154 244.754C63.7347 244.941 64.0902 245.205 64.3818 245.547C64.6781 245.884 64.9036 246.283 65.0586 246.743C65.2135 247.199 65.291 247.693 65.291 248.227V248.384C65.291 248.917 65.2135 249.411 65.0586 249.867C64.9036 250.323 64.6781 250.722 64.3818 251.063C64.0902 251.401 63.737 251.665 63.3223 251.856C62.9121 252.043 62.4473 252.137 61.9277 252.137C61.4082 252.137 60.9411 252.043 60.5264 251.856C60.1117 251.665 59.7562 251.401 59.46 251.063C59.1683 250.722 58.945 250.323 58.79 249.867C58.6351 249.411 58.5576 248.917 58.5576 248.384ZM59.8223 248.227V248.384C59.8223 248.753 59.8656 249.102 59.9521 249.43C60.0387 249.753 60.1686 250.04 60.3418 250.291C60.5195 250.542 60.7406 250.74 61.0049 250.886C61.2692 251.027 61.5768 251.098 61.9277 251.098C62.2741 251.098 62.5771 251.027 62.8369 250.886C63.1012 250.74 63.32 250.542 63.4932 250.291C63.6663 250.04 63.7962 249.753 63.8828 249.43C63.974 249.102 64.0195 248.753 64.0195 248.384V248.227C64.0195 247.862 63.974 247.518 63.8828 247.194C63.7962 246.866 63.6641 246.577 63.4863 246.326C63.3132 246.071 63.0944 245.87 62.8301 245.725C62.5703 245.579 62.265 245.506 61.9141 245.506C61.5677 245.506 61.2624 245.579 60.998 245.725C60.7383 245.87 60.5195 246.071 60.3418 246.326C60.1686 246.577 60.0387 246.866 59.9521 247.194C59.8656 247.518 59.8223 247.862 59.8223 248.227ZM68.1348 246.073V252H66.8633V244.604H68.0664L68.1348 246.073ZM67.875 248.021L67.2871 248.001C67.2917 247.495 67.3577 247.028 67.4854 246.6C67.613 246.167 67.8021 245.791 68.0527 245.472C68.3034 245.153 68.6156 244.907 68.9893 244.733C69.363 244.556 69.7959 244.467 70.2881 244.467C70.6344 244.467 70.9535 244.517 71.2451 244.617C71.5368 244.713 71.7897 244.866 72.0039 245.075C72.2181 245.285 72.3844 245.554 72.5029 245.882C72.6214 246.21 72.6807 246.606 72.6807 247.071V252H71.416V247.133C71.416 246.745 71.3499 246.436 71.2178 246.203C71.0902 245.971 70.9079 245.802 70.6709 245.697C70.4339 245.588 70.1559 245.533 69.8369 245.533C69.4632 245.533 69.151 245.599 68.9004 245.731C68.6497 245.864 68.4492 246.046 68.2988 246.278C68.1484 246.511 68.0391 246.777 67.9707 247.078C67.9069 247.374 67.875 247.689 67.875 248.021ZM72.667 247.324L71.8193 247.584C71.8239 247.178 71.89 246.789 72.0176 246.415C72.1497 246.041 72.3389 245.709 72.585 245.417C72.8356 245.125 73.1432 244.895 73.5078 244.727C73.8724 244.553 74.2894 244.467 74.7588 244.467C75.1553 244.467 75.5062 244.519 75.8115 244.624C76.1214 244.729 76.3812 244.891 76.5908 245.109C76.805 245.324 76.9668 245.599 77.0762 245.937C77.1855 246.274 77.2402 246.675 77.2402 247.14V252H75.9688V247.126C75.9688 246.711 75.9027 246.39 75.7705 246.162C75.6429 245.93 75.4606 245.768 75.2236 245.677C74.9912 245.581 74.7132 245.533 74.3896 245.533C74.1117 245.533 73.8656 245.581 73.6514 245.677C73.4372 245.772 73.2572 245.905 73.1113 246.073C72.9655 246.237 72.8538 246.426 72.7764 246.641C72.7035 246.855 72.667 247.083 72.667 247.324ZM82.2236 252.137C81.7087 252.137 81.2415 252.05 80.8223 251.877C80.4076 251.699 80.0498 251.451 79.749 251.132C79.4528 250.813 79.2249 250.435 79.0654 249.997C78.9059 249.56 78.8262 249.081 78.8262 248.562V248.274C78.8262 247.673 78.915 247.137 79.0928 246.668C79.2705 246.194 79.512 245.793 79.8174 245.465C80.1227 245.137 80.4691 244.888 80.8564 244.72C81.2438 244.551 81.6449 244.467 82.0596 244.467C82.5882 244.467 83.0439 244.558 83.4268 244.74C83.8141 244.923 84.1309 245.178 84.377 245.506C84.623 245.829 84.8053 246.212 84.9238 246.654C85.0423 247.092 85.1016 247.57 85.1016 248.09V248.657H79.5781V247.625H83.8369V247.529C83.8187 247.201 83.7503 246.882 83.6318 246.572C83.5179 246.262 83.3356 246.007 83.085 245.807C82.8343 245.606 82.4925 245.506 82.0596 245.506C81.7725 245.506 81.5081 245.567 81.2666 245.69C81.0251 245.809 80.8177 245.987 80.6445 246.224C80.4714 246.461 80.3369 246.75 80.2412 247.092C80.1455 247.434 80.0977 247.828 80.0977 248.274V248.562C80.0977 248.912 80.1455 249.243 80.2412 249.553C80.3415 249.858 80.485 250.127 80.6719 250.359C80.8633 250.592 81.0934 250.774 81.3623 250.906C81.6357 251.038 81.9456 251.104 82.292 251.104C82.7386 251.104 83.1169 251.013 83.4268 250.831C83.7367 250.649 84.0078 250.405 84.2402 250.1L85.0059 250.708C84.8464 250.95 84.6436 251.18 84.3975 251.398C84.1514 251.617 83.8483 251.795 83.4883 251.932C83.1328 252.068 82.7113 252.137 82.2236 252.137ZM87.8428 245.766V252H86.5781V244.604H87.8086L87.8428 245.766ZM90.1533 244.562L90.1465 245.738C90.0417 245.715 89.9414 245.702 89.8457 245.697C89.7546 245.688 89.6497 245.684 89.5312 245.684C89.2396 245.684 88.9821 245.729 88.7588 245.82C88.5355 245.911 88.3464 246.039 88.1914 246.203C88.0365 246.367 87.9134 246.563 87.8223 246.791C87.7357 247.014 87.6787 247.26 87.6514 247.529L87.2959 247.734C87.2959 247.288 87.3392 246.868 87.4258 246.477C87.5169 246.085 87.6559 245.738 87.8428 245.438C88.0296 245.132 88.2666 244.895 88.5537 244.727C88.8454 244.553 89.1917 244.467 89.5928 244.467C89.6839 244.467 89.7887 244.478 89.9072 244.501C90.0257 244.519 90.1077 244.54 90.1533 244.562ZM95.6289 250.038C95.6289 249.856 95.5879 249.687 95.5059 249.532C95.4284 249.373 95.2666 249.229 95.0205 249.102C94.779 248.969 94.4144 248.855 93.9268 248.76C93.5166 248.673 93.1452 248.571 92.8125 248.452C92.4844 248.334 92.2041 248.19 91.9717 248.021C91.7438 247.853 91.5684 247.655 91.4453 247.427C91.3223 247.199 91.2607 246.932 91.2607 246.627C91.2607 246.335 91.3245 246.06 91.4521 245.8C91.5843 245.54 91.7689 245.31 92.0059 245.109C92.2474 244.909 92.5368 244.752 92.874 244.638C93.2113 244.524 93.5872 244.467 94.002 244.467C94.5944 244.467 95.1003 244.572 95.5195 244.781C95.9388 244.991 96.2601 245.271 96.4834 245.622C96.7067 245.968 96.8184 246.354 96.8184 246.777H95.5537C95.5537 246.572 95.4922 246.374 95.3691 246.183C95.2507 245.987 95.0752 245.825 94.8428 245.697C94.6149 245.57 94.3346 245.506 94.002 245.506C93.651 245.506 93.3662 245.561 93.1475 245.67C92.9333 245.775 92.776 245.909 92.6758 246.073C92.5801 246.237 92.5322 246.41 92.5322 246.593C92.5322 246.729 92.555 246.853 92.6006 246.962C92.6507 247.067 92.7373 247.165 92.8604 247.256C92.9834 247.342 93.1566 247.424 93.3799 247.502C93.6032 247.579 93.888 247.657 94.2344 247.734C94.8405 247.871 95.3395 248.035 95.7314 248.227C96.1234 248.418 96.415 248.653 96.6064 248.931C96.7979 249.209 96.8936 249.546 96.8936 249.942C96.8936 250.266 96.8252 250.562 96.6885 250.831C96.5563 251.1 96.3626 251.332 96.1074 251.528C95.8568 251.72 95.556 251.87 95.2051 251.979C94.8587 252.084 94.4691 252.137 94.0361 252.137C93.3844 252.137 92.833 252.021 92.3818 251.788C91.9307 251.556 91.5889 251.255 91.3564 250.886C91.124 250.517 91.0078 250.127 91.0078 249.717H92.2793C92.2975 250.063 92.3978 250.339 92.5801 250.544C92.7624 250.744 92.9857 250.888 93.25 250.975C93.5143 251.057 93.7764 251.098 94.0361 251.098C94.3825 251.098 94.6719 251.052 94.9043 250.961C95.1413 250.87 95.3213 250.744 95.4443 250.585C95.5674 250.425 95.6289 250.243 95.6289 250.038Z" fill="#0A2540"/>
<g filter="url(#filter2_d_4716_6488)">
<rect x="160" y="10" width="96" height="96" rx="8" stroke="#C8D0DB"/>
</g>
<g clip-path="url(#clip0_4716_6488)">
<mask id="mask0_4716_6488" style="mask-type:luminance" maskUnits="userSpaceOnUse" x="196" y="20" width="24" height="24">
<path d="M220 20H196V44H220V20Z" fill="white"/>
</mask>
<g mask="url(#mask0_4716_6488)">
<path d="M198.312 29.0003L201.543 25.7695" stroke="#20336B"/>
<path d="M198.312 33.6152L201.543 36.846" stroke="#20336B"/>
<path d="M206.616 36.8465H198.77C198.515 36.8465 198.309 36.6398 198.309 36.3849V26.2311C198.309 25.9762 198.515 25.7695 198.77 25.7695H217.232C217.487 25.7695 217.693 25.9762 217.693 26.2311V35.9234" stroke="#20336B"/>
<path d="M217.696 29.0003L214.465 25.7695" stroke="#20336B"/>
<path d="M203.055 38.9629L203.85 40.0761V42.3838" stroke="#20336B"/>
<path d="M204.769 25.3084C204.769 25.2964 204.769 25.2853 204.769 25.2733C204.769 24.5086 204.149 23.8887 203.385 23.8887C202.62 23.8887 202 24.5086 202 25.2733C202 25.2853 202 25.2964 202 25.3084V25.7699" stroke="#20336B"/>
<path d="M207.539 25.7692V24.3845C207.539 24.3725 207.539 24.3615 207.539 24.3495C207.539 23.5848 206.919 22.9648 206.154 22.9648C205.389 22.9648 204.77 23.5848 204.77 24.3495C204.77 24.3615 204.77 24.3725 204.77 24.3845V25.7692" stroke="#20336B"/>
<path d="M210.308 25.7691V23.0349C210.308 23.0229 210.308 23.0118 210.308 22.9998C210.308 22.2351 209.688 21.6152 208.924 21.6152C208.159 21.6152 207.539 22.2351 207.539 22.9998C207.539 23.0118 207.539 23.0229 207.539 23.0349V25.7691" stroke="#20336B"/>
<path d="M213.078 25.7692V24.3845C213.078 24.3725 213.078 24.3615 213.078 24.3495C213.078 23.5848 212.458 22.9648 211.693 22.9648C210.929 22.9648 210.309 23.5848 210.309 24.3495C210.309 24.3615 210.309 24.3725 210.309 24.3845V25.3076" stroke="#20336B"/>
<path d="M212.156 42.3835V41.4605C212.156 40.8794 212.43 40.3322 212.894 39.9835L215.11 38.322C215.575 37.9733 215.848 37.4261 215.848 36.8451V32.6626C215.848 32.6561 215.844 32.6506 215.844 32.6441C215.812 31.9488 215.269 31.3849 214.575 31.3271C213.882 31.2693 213.253 31.7356 213.107 32.4161C213.065 32.4924 213.034 32.5741 213.014 32.6589L212.737 34.5669C212.657 35.1305 212.321 35.6255 211.826 35.9081L210.31 36.7749C209.737 37.1055 209.385 37.7171 209.387 38.3783V39.6143" stroke="#20336B"/>
<path d="M204.645 30.6562H211.358" stroke="#00BAF2" stroke-linecap="square"/>
<path d="M204.645 32H211.358" stroke="#00BAF2" stroke-linecap="square"/>
<path d="M210.015 34.0132H209.344L206.659 28.6426H205.945V34.0132" stroke="#00BAF2" stroke-linecap="square"/>
<path d="M210.059 34.0132V28.6426" stroke="#00BAF2" stroke-linecap="square"/>
</g>
</g>

<g filter="url(#filter3_d_4716_6488)">
<rect x="386" y="172" width="96" height="96" rx="8" stroke="#C8D0DB"/>
</g>
<path d="M445.977 205.308L443.352 198.449C443.319 198.363 443.254 198.294 443.171 198.255C443.088 198.217 442.993 198.212 442.906 198.243L440.141 199.23C440.096 199.246 440.055 199.27 440.021 199.302C439.986 199.334 439.958 199.373 439.939 199.416C439.919 199.459 439.908 199.505 439.907 199.552C439.906 199.6 439.914 199.647 439.932 199.69L440.172 200.3L438.285 201.196L435.187 200.614C434.886 200.558 434.576 200.564 434.277 200.633C433.978 200.702 433.696 200.832 433.449 201.015L432.896 201.425L432.529 201.161C432.252 200.963 431.934 200.831 431.599 200.774C431.263 200.717 430.919 200.737 430.593 200.833L429.404 201.187L427.847 200.256L428.07 199.691C428.088 199.647 428.096 199.6 428.095 199.553C428.093 199.506 428.083 199.459 428.063 199.416C428.044 199.373 428.016 199.335 427.981 199.303C427.946 199.271 427.906 199.246 427.861 199.23L425.094 198.243C425.007 198.212 424.912 198.217 424.829 198.255C424.745 198.293 424.68 198.363 424.648 198.449L422.023 205.308C421.991 205.392 421.992 205.486 422.027 205.569C422.062 205.653 422.128 205.72 422.211 205.756L424.836 206.887C424.879 206.905 424.926 206.915 424.973 206.916C425.02 206.916 425.067 206.907 425.11 206.889C425.154 206.871 425.193 206.844 425.226 206.81C425.259 206.777 425.285 206.737 425.302 206.693L425.567 206.024L427.743 207.25C427.596 207.463 427.529 207.721 427.552 207.978C427.575 208.236 427.688 208.477 427.87 208.66C427.973 208.763 428.095 208.844 428.229 208.9C428.363 208.955 428.507 208.983 428.652 208.983H428.68C428.704 209.258 428.831 209.514 429.035 209.7C429.239 209.886 429.505 209.989 429.781 209.989H429.81C429.832 210.247 429.945 210.49 430.129 210.673C430.231 210.776 430.353 210.857 430.487 210.912C430.622 210.968 430.765 210.996 430.91 210.996H430.938C430.957 211.205 431.035 211.405 431.163 211.572C431.291 211.739 431.464 211.865 431.662 211.937C431.86 212.009 432.074 212.023 432.279 211.977C432.484 211.931 432.672 211.828 432.821 211.679L433.239 211.262L433.804 211.684C434.044 211.862 434.339 211.948 434.637 211.926C434.935 211.904 435.215 211.774 435.425 211.562L435.465 211.522C435.642 211.341 435.76 211.109 435.802 210.859C436.014 210.919 436.237 210.921 436.45 210.866C436.663 210.811 436.857 210.7 437.013 210.545L437.042 210.516C437.239 210.319 437.364 210.061 437.395 209.784C437.608 209.848 437.835 209.852 438.05 209.797C438.266 209.742 438.462 209.63 438.619 209.472L438.639 209.453C438.831 209.262 438.954 209.013 438.989 208.744C439.179 208.79 439.377 208.789 439.567 208.743C439.756 208.698 439.932 208.608 440.08 208.481C440.228 208.354 440.344 208.193 440.419 208.013C440.493 207.833 440.523 207.637 440.508 207.443C440.502 207.367 440.489 207.293 440.469 207.22L442.512 206.219L442.7 206.692C442.717 206.736 442.743 206.776 442.776 206.809C442.809 206.843 442.848 206.87 442.892 206.888C442.935 206.906 442.982 206.915 443.029 206.914C443.076 206.914 443.123 206.904 443.166 206.885L445.791 205.754C445.873 205.718 445.938 205.651 445.973 205.568C446.008 205.485 446.009 205.392 445.977 205.308ZM424.781 206.098L422.801 205.244L425.18 199.021L425.764 199.229L424.639 202.427C424.608 202.515 424.613 202.611 424.653 202.696C424.694 202.78 424.766 202.845 424.854 202.876C424.942 202.907 425.039 202.902 425.123 202.861C425.207 202.821 425.272 202.749 425.303 202.661L426.425 199.466L427.28 199.772L424.781 206.098ZM428.938 208.163C428.862 208.236 428.76 208.276 428.655 208.275C428.55 208.274 428.449 208.232 428.375 208.158C428.3 208.083 428.257 207.983 428.256 207.878C428.255 207.772 428.295 207.671 428.367 207.595L429.117 206.845C429.173 206.788 429.245 206.75 429.323 206.735C429.401 206.719 429.482 206.727 429.556 206.758C429.629 206.788 429.692 206.84 429.737 206.906C429.781 206.972 429.805 207.05 429.805 207.13C429.805 207.182 429.795 207.235 429.774 207.284C429.754 207.333 429.724 207.377 429.687 207.414L428.938 208.163ZM430.129 209.108C430.108 209.128 430.089 209.15 430.07 209.172L430.067 209.168C430.03 209.207 429.985 209.238 429.936 209.259C429.887 209.281 429.834 209.292 429.78 209.293C429.727 209.293 429.673 209.283 429.624 209.263C429.574 209.243 429.529 209.213 429.491 209.175C429.453 209.137 429.423 209.092 429.403 209.042C429.382 208.993 429.372 208.939 429.373 208.886C429.374 208.832 429.385 208.779 429.406 208.73C429.427 208.681 429.458 208.636 429.497 208.599L430.185 207.911C430.206 207.891 430.226 207.869 430.244 207.847L430.248 207.85C430.324 207.778 430.425 207.738 430.53 207.739C430.636 207.74 430.736 207.782 430.811 207.857C430.885 207.931 430.927 208.032 430.929 208.137C430.93 208.242 430.89 208.343 430.817 208.42L430.129 209.108ZM431.194 210.173C431.117 210.241 431.017 210.278 430.914 210.276C430.811 210.273 430.713 210.231 430.641 210.158C430.568 210.085 430.525 209.987 430.523 209.884C430.52 209.781 430.556 209.681 430.625 209.605L431.375 208.855C431.411 208.813 431.456 208.78 431.506 208.757C431.555 208.733 431.609 208.72 431.664 208.719C431.719 208.717 431.774 208.726 431.825 208.747C431.876 208.767 431.923 208.797 431.961 208.836C432 208.875 432.031 208.921 432.051 208.973C432.071 209.024 432.081 209.078 432.079 209.133C432.078 209.188 432.065 209.242 432.041 209.292C432.018 209.342 431.985 209.386 431.944 209.423L431.194 210.173ZM433.073 210.429L432.323 211.179C432.247 211.251 432.145 211.291 432.04 211.29C431.935 211.289 431.834 211.247 431.76 211.172C431.685 211.098 431.643 210.998 431.642 210.892C431.641 210.787 431.681 210.686 431.753 210.61L432.441 209.922C432.462 209.901 432.482 209.88 432.5 209.858L432.504 209.861C432.58 209.788 432.681 209.748 432.787 209.749C432.892 209.75 432.992 209.793 433.067 209.867C433.141 209.941 433.184 210.042 433.185 210.147C433.186 210.252 433.146 210.354 433.073 210.43L433.073 210.429ZM439.652 207.916C439.559 208.011 439.433 208.066 439.3 208.072C439.168 208.078 439.038 208.034 438.936 207.948L438.662 207.72C438.643 207.692 438.62 207.667 438.593 207.646L437.961 207.138C437.888 207.083 437.797 207.059 437.706 207.07C437.616 207.081 437.533 207.127 437.476 207.198C437.419 207.269 437.391 207.36 437.4 207.451C437.408 207.541 437.451 207.625 437.52 207.685L438.065 208.125C438.081 208.146 438.098 208.165 438.117 208.183C438.171 208.231 438.215 208.289 438.246 208.355C438.277 208.421 438.293 208.492 438.296 208.564C438.298 208.636 438.285 208.708 438.259 208.776C438.232 208.843 438.192 208.904 438.14 208.955L438.121 208.975C438.032 209.064 437.914 209.119 437.789 209.129C437.663 209.14 437.538 209.105 437.435 209.031L436.892 208.642L436.887 208.638L436.681 208.491C436.605 208.437 436.511 208.415 436.419 208.43C436.327 208.446 436.245 208.497 436.191 208.573C436.136 208.648 436.115 208.743 436.13 208.835C436.145 208.927 436.196 209.009 436.272 209.063L436.481 209.213C436.543 209.258 436.595 209.316 436.632 209.383C436.67 209.45 436.692 209.524 436.698 209.601C436.704 209.678 436.693 209.754 436.666 209.826C436.64 209.898 436.598 209.964 436.543 210.018L436.514 210.047C436.419 210.143 436.29 210.198 436.155 210.202C436.02 210.207 435.888 210.159 435.787 210.07L435.201 209.554C435.167 209.519 435.127 209.492 435.082 209.473C435.037 209.455 434.989 209.446 434.941 209.447C434.892 209.448 434.844 209.459 434.8 209.479C434.756 209.5 434.717 209.529 434.685 209.565C434.653 209.601 434.628 209.644 434.613 209.69C434.598 209.736 434.593 209.785 434.598 209.833C434.603 209.881 434.618 209.928 434.641 209.971C434.665 210.013 434.697 210.05 434.736 210.079L434.935 210.255C434.989 210.303 435.033 210.361 435.064 210.427C435.095 210.492 435.113 210.563 435.115 210.635C435.118 210.707 435.106 210.779 435.079 210.847C435.053 210.914 435.014 210.975 434.963 211.027L434.923 211.067C434.833 211.158 434.712 211.214 434.584 211.224C434.456 211.233 434.328 211.196 434.225 211.12L433.719 210.742C433.826 210.575 433.886 210.382 433.893 210.184C433.899 209.985 433.853 209.789 433.758 209.615C433.662 209.441 433.522 209.295 433.351 209.194C433.181 209.093 432.986 209.04 432.787 209.04H432.76C432.735 208.765 432.608 208.509 432.405 208.323C432.201 208.137 431.935 208.033 431.659 208.033H431.63C431.605 207.754 431.474 207.496 431.264 207.31C431.055 207.124 430.782 207.024 430.502 207.032C430.48 206.774 430.367 206.531 430.183 206.349C429.976 206.141 429.694 206.025 429.401 206.025C429.108 206.025 428.827 206.141 428.619 206.349L428.241 206.726L425.827 205.367L427.584 200.921L429.175 201.873C429.217 201.898 429.263 201.914 429.312 201.92C429.36 201.926 429.409 201.922 429.456 201.908L430.793 201.51C431.016 201.444 431.252 201.43 431.481 201.469C431.711 201.507 431.929 201.598 432.118 201.733L432.303 201.866L430.423 203.261C430.284 203.364 430.171 203.499 430.092 203.654C430.014 203.809 429.973 203.98 429.972 204.154C429.971 204.327 430.011 204.499 430.087 204.655C430.164 204.81 430.277 204.946 430.415 205.051C430.676 205.247 430.99 205.359 431.317 205.374C431.643 205.388 431.966 205.303 432.243 205.131L433.719 204.202C433.89 204.544 434.211 205.009 434.768 205.296C435.413 205.628 436.198 205.636 437.103 205.321L439.587 207.11C439.649 207.155 439.701 207.213 439.739 207.281C439.777 207.348 439.8 207.422 439.806 207.499C439.812 207.576 439.802 207.653 439.775 207.725C439.749 207.797 439.707 207.863 439.652 207.918V207.916ZM440.104 206.615L437.362 204.641C437.315 204.607 437.259 204.586 437.201 204.578C437.143 204.571 437.084 204.578 437.03 204.599C436.247 204.903 435.597 204.927 435.096 204.674C434.433 204.337 434.23 203.6 434.228 203.596C434.215 203.542 434.188 203.492 434.152 203.451C434.115 203.409 434.07 203.377 434.018 203.356C433.967 203.336 433.911 203.327 433.856 203.332C433.801 203.337 433.748 203.355 433.701 203.385L431.869 204.534C431.713 204.631 431.53 204.678 431.346 204.67C431.162 204.662 430.985 204.598 430.838 204.487C430.786 204.448 430.745 204.398 430.716 204.34C430.688 204.282 430.673 204.218 430.673 204.154C430.674 204.09 430.689 204.026 430.718 203.969C430.747 203.911 430.789 203.861 430.841 203.823L433.866 201.578C434.035 201.453 434.228 201.364 434.433 201.317C434.637 201.27 434.849 201.265 435.056 201.304L438.266 201.907C438.339 201.921 438.414 201.911 438.481 201.879L440.429 200.954L442.251 205.564L440.104 206.615ZM443.219 206.096L440.718 199.768L441.574 199.463L442.696 202.658C442.727 202.746 442.792 202.818 442.876 202.858C442.96 202.898 443.057 202.903 443.145 202.872C443.233 202.841 443.305 202.777 443.345 202.692C443.385 202.608 443.391 202.511 443.36 202.423L442.235 199.225L442.818 199.018L445.198 205.24L443.219 206.096Z" fill="#2C007D"/>
<path d="M434 199.016C435.089 199.016 436.154 198.693 437.06 198.087C437.966 197.482 438.672 196.622 439.089 195.616C439.505 194.609 439.615 193.502 439.402 192.433C439.189 191.365 438.665 190.383 437.895 189.613C437.124 188.843 436.143 188.318 435.075 188.106C434.006 187.893 432.899 188.002 431.892 188.419C430.886 188.836 430.026 189.542 429.42 190.448C428.815 191.354 428.492 192.418 428.492 193.508C428.494 194.968 429.075 196.368 430.107 197.401C431.14 198.433 432.54 199.014 434 199.016ZM434 188.703C434.95 188.703 435.879 188.985 436.669 189.513C437.459 190.041 438.075 190.791 438.439 191.669C438.803 192.547 438.898 193.513 438.712 194.445C438.527 195.377 438.069 196.233 437.397 196.905C436.725 197.577 435.869 198.035 434.937 198.22C434.005 198.406 433.039 198.31 432.161 197.947C431.283 197.583 430.533 196.967 430.005 196.177C429.477 195.387 429.195 194.458 429.195 193.508C429.197 192.234 429.703 191.013 430.604 190.112C431.505 189.211 432.726 188.704 434 188.703Z" fill="#2C007D"/>
<path d="M434 197.609C434.811 197.609 435.604 197.369 436.279 196.918C436.953 196.467 437.479 195.827 437.789 195.077C438.1 194.328 438.181 193.503 438.023 192.708C437.864 191.912 437.474 191.181 436.9 190.608C436.327 190.034 435.596 189.643 434.8 189.485C434.005 189.327 433.18 189.408 432.43 189.718C431.681 190.029 431.04 190.555 430.59 191.229C430.139 191.904 429.898 192.697 429.898 193.508C429.9 194.595 430.332 195.638 431.101 196.407C431.87 197.176 432.913 197.608 434 197.609ZM434 190.109C434.672 190.109 435.329 190.309 435.888 190.682C436.447 191.056 436.883 191.586 437.14 192.207C437.397 192.828 437.464 193.512 437.333 194.171C437.202 194.83 436.878 195.436 436.403 195.911C435.928 196.386 435.322 196.71 434.663 196.841C434.004 196.972 433.32 196.905 432.699 196.648C432.078 196.39 431.548 195.955 431.174 195.396C430.801 194.837 430.602 194.18 430.602 193.508C430.603 192.607 430.961 191.743 431.598 191.106C432.235 190.469 433.099 190.11 434 190.109ZM441.075 193.508C441.075 193.554 441.084 193.6 441.102 193.642C441.12 193.685 441.146 193.724 441.178 193.756C441.211 193.789 441.25 193.815 441.292 193.833C441.335 193.85 441.381 193.859 441.427 193.859H443.375C443.468 193.859 443.558 193.822 443.624 193.756C443.69 193.69 443.727 193.601 443.727 193.508C443.727 193.415 443.69 193.325 443.624 193.259C443.558 193.193 443.468 193.156 443.375 193.156H441.427C441.334 193.156 441.244 193.193 441.178 193.259C441.112 193.325 441.075 193.415 441.075 193.508ZM440.697 191.905C440.759 191.906 440.821 191.889 440.875 191.858L442.335 191C442.416 190.953 442.475 190.875 442.499 190.785C442.522 190.694 442.509 190.598 442.462 190.517C442.415 190.437 442.338 190.378 442.247 190.354C442.157 190.33 442.06 190.343 441.98 190.391L440.518 191.25C440.451 191.289 440.399 191.349 440.369 191.421C440.339 191.493 440.334 191.572 440.355 191.647C440.375 191.722 440.419 191.788 440.481 191.835C440.543 191.882 440.619 191.907 440.697 191.907V191.905ZM440.518 195.765L441.98 196.625C442.02 196.648 442.064 196.664 442.11 196.67C442.156 196.676 442.202 196.673 442.247 196.662C442.292 196.65 442.334 196.629 442.371 196.601C442.408 196.573 442.439 196.538 442.462 196.498C442.485 196.458 442.501 196.414 442.507 196.368C442.513 196.322 442.51 196.275 442.499 196.231C442.487 196.186 442.466 196.144 442.438 196.107C442.41 196.07 442.375 196.039 442.335 196.016L440.875 195.158C440.835 195.134 440.791 195.117 440.745 195.11C440.698 195.103 440.651 195.106 440.606 195.117C440.561 195.128 440.518 195.149 440.481 195.177C440.444 195.205 440.412 195.24 440.389 195.28C440.365 195.32 440.35 195.365 440.343 195.411C440.337 195.457 440.34 195.504 440.352 195.549C440.364 195.594 440.385 195.636 440.414 195.673C440.442 195.71 440.478 195.741 440.518 195.764V195.765ZM424.625 193.859H426.573C426.666 193.859 426.756 193.822 426.822 193.756C426.888 193.69 426.925 193.601 426.925 193.508C426.925 193.415 426.888 193.325 426.822 193.259C426.756 193.193 426.666 193.156 426.573 193.156H424.625C424.532 193.156 424.442 193.193 424.376 193.259C424.31 193.325 424.273 193.415 424.273 193.508C424.273 193.601 424.31 193.69 424.376 193.756C424.442 193.822 424.532 193.859 424.625 193.859ZM425.665 191L427.125 191.858C427.165 191.882 427.209 191.898 427.255 191.905C427.302 191.912 427.349 191.91 427.394 191.899C427.439 191.887 427.482 191.867 427.519 191.839C427.556 191.811 427.588 191.776 427.611 191.736C427.635 191.696 427.65 191.651 427.657 191.605C427.663 191.559 427.66 191.512 427.648 191.467C427.636 191.422 427.615 191.379 427.586 191.342C427.558 191.306 427.522 191.275 427.482 191.252L426.02 190.391C425.98 190.367 425.936 190.352 425.89 190.346C425.844 190.339 425.798 190.342 425.753 190.354C425.662 190.378 425.585 190.437 425.538 190.517C425.491 190.598 425.478 190.694 425.501 190.785C425.525 190.875 425.584 190.953 425.665 191ZM427.125 195.159L425.665 196.016C425.584 196.063 425.525 196.14 425.501 196.231C425.478 196.321 425.491 196.417 425.538 196.498C425.585 196.579 425.662 196.638 425.753 196.662C425.843 196.685 425.94 196.672 426.02 196.625L427.482 195.767C427.522 195.744 427.558 195.713 427.586 195.676C427.615 195.639 427.636 195.597 427.648 195.552C427.66 195.507 427.663 195.46 427.657 195.414C427.65 195.367 427.635 195.323 427.611 195.283C427.588 195.243 427.556 195.207 427.519 195.179C427.482 195.152 427.439 195.131 427.394 195.12C427.349 195.109 427.302 195.106 427.255 195.113C427.209 195.12 427.165 195.136 427.125 195.161V195.159Z" fill="#00BAF2"/>
<path d="M433.213 195.038C433.246 195.073 433.286 195.101 433.33 195.121C433.374 195.14 433.422 195.15 433.471 195.15C433.519 195.15 433.567 195.14 433.611 195.121C433.655 195.101 433.695 195.073 433.728 195.038L436.135 192.459C436.166 192.426 436.191 192.386 436.207 192.342C436.223 192.299 436.231 192.253 436.229 192.207C436.227 192.161 436.217 192.115 436.197 192.073C436.178 192.031 436.151 191.993 436.117 191.962C436.083 191.93 436.043 191.906 436 191.889C435.957 191.873 435.911 191.866 435.864 191.867C435.818 191.869 435.773 191.88 435.731 191.899C435.689 191.918 435.651 191.946 435.619 191.979L433.47 194.282L432.383 193.118C432.32 193.05 432.232 193.009 432.138 193.006C432.045 193.003 431.954 193.037 431.886 193.1C431.817 193.164 431.777 193.252 431.774 193.345C431.77 193.439 431.804 193.53 431.868 193.598L433.213 195.038Z" fill="#00BAF2"/>

<g filter="url(#filter4_d_4716_6488)">
<rect x="304" y="10" width="96" height="96" rx="8" stroke="#C8D0DB"/>
</g>
<path d="M356.574 49.9974H342.861C342.103 49.9965 341.377 49.6952 340.842 49.1597C340.306 48.6241 340.005 47.898 340.004 47.1406V28.8568C340.005 28.0994 340.306 27.3733 340.842 26.8378C341.377 26.3022 342.103 26.0009 342.861 26H351.694C352.075 26.0003 352.451 26.0762 352.802 26.2233C353.153 26.3704 353.471 26.5859 353.738 26.8571L358.616 31.8502C359.139 32.3844 359.432 33.1028 359.43 33.8506V38.1073C359.43 38.2588 359.37 38.4041 359.263 38.5113C359.156 38.6184 359.011 38.6786 358.859 38.6786C358.707 38.6786 358.562 38.6184 358.455 38.5113C358.348 38.4041 358.288 38.2588 358.288 38.1073V33.8506C358.288 33.402 358.112 32.9713 357.799 32.6507L352.92 27.657C352.76 27.4941 352.569 27.3648 352.359 27.2765C352.148 27.1882 351.922 27.1427 351.694 27.1427H342.861C342.406 27.1427 341.97 27.3233 341.649 27.6448C341.327 27.9662 341.147 28.4022 341.147 28.8568V47.1406C341.147 47.5952 341.327 48.0312 341.649 48.3526C341.97 48.6741 342.406 48.8547 342.861 48.8547H356.574C356.789 48.8555 357.003 48.8138 357.202 48.7318C357.342 48.6742 357.5 48.6746 357.639 48.7329C357.779 48.7913 357.89 48.9028 357.948 49.043C358.006 49.1831 358.005 49.3405 357.947 49.4804C357.889 49.6202 357.777 49.7312 357.637 49.7889C357.3 49.9274 356.938 49.9983 356.574 49.9974Z" fill="#20336B"/>
<path d="M358.623 33.4284H354.858C354.1 33.4275 353.374 33.1262 352.839 32.5906C352.303 32.0551 352.002 31.329 352.001 30.5715V26.7491C352.001 26.5976 352.061 26.4522 352.168 26.3451C352.276 26.2379 352.421 26.1777 352.572 26.1777C352.724 26.1777 352.869 26.2379 352.976 26.3451C353.084 26.4522 353.144 26.5976 353.144 26.7491V30.5715C353.144 31.0262 353.324 31.4621 353.646 31.7836C353.967 32.1051 354.403 32.2857 354.858 32.2857H358.623C358.775 32.2857 358.92 32.3458 359.027 32.453C359.134 32.5602 359.195 32.7055 359.195 32.857C359.195 33.0086 359.134 33.1539 359.027 33.261C358.92 33.3682 358.775 33.4284 358.623 33.4284ZM357.715 49.9146C357.489 49.9149 357.269 49.8483 357.082 49.7232L355.246 48.4993C354.072 47.7181 353.108 46.6584 352.442 45.4145C351.776 44.1706 351.428 42.7813 351.43 41.3704V40.3922C351.431 40.1351 351.518 39.8859 351.678 39.6844C351.837 39.4829 352.06 39.3408 352.31 39.2809C354.007 38.8119 355.621 38.0835 357.096 37.1217C357.28 37.0029 357.495 36.9397 357.715 36.9397C357.934 36.9397 358.149 37.0029 358.334 37.1217C359.808 38.0837 361.422 38.812 363.119 39.2809C363.369 39.3408 363.592 39.4829 363.752 39.6844C363.911 39.8859 363.999 40.1351 364 40.3922V41.3704C364.001 42.7817 363.654 44.1715 362.988 45.4158C362.322 46.6601 361.358 47.7202 360.183 48.5016L358.348 49.7249C358.161 49.8495 357.94 49.9155 357.715 49.9146ZM357.715 38.0816C356.135 39.1121 354.405 39.8912 352.586 40.3911L352.572 41.3704C352.571 42.5935 352.872 43.798 353.449 44.8763C354.027 45.9547 354.862 46.8736 355.88 47.5509L357.715 48.7719L359.549 47.5486C360.568 46.8715 361.402 45.953 361.979 44.8751C362.557 43.7971 362.858 42.5931 362.857 41.3704V40.3922C361.034 39.8927 359.299 39.1134 357.715 38.0822V38.0816Z" fill="#20336B"/>
<path d="M357.146 44.8545C356.995 44.8545 356.85 44.7942 356.742 44.6871L355.6 43.5444C355.496 43.4366 355.438 43.2923 355.439 43.1424C355.441 42.9926 355.501 42.8493 355.607 42.7434C355.713 42.6375 355.856 42.5774 356.006 42.5761C356.156 42.5748 356.3 42.6324 356.408 42.7364L357.146 43.4752L359.028 41.5937C359.136 41.4896 359.28 41.432 359.43 41.4333C359.58 41.4346 359.723 41.4947 359.829 41.6007C359.935 41.7066 359.995 41.8499 359.996 41.9997C359.998 42.1495 359.94 42.2939 359.836 42.4016L357.55 44.6871C357.443 44.7942 357.298 44.8545 357.146 44.8545ZM348.576 31.713H344.005C343.853 31.713 343.708 31.6528 343.601 31.5457C343.494 31.4385 343.434 31.2932 343.434 31.1417C343.434 30.9901 343.494 30.8448 343.601 30.7377C343.708 30.6305 343.853 30.5703 344.005 30.5703H348.576C348.727 30.5703 348.873 30.6305 348.98 30.7377C349.087 30.8448 349.147 30.9901 349.147 31.1417C349.147 31.2932 349.087 31.4385 348.98 31.5457C348.873 31.6528 348.727 31.713 348.576 31.713ZM352.004 35.1413H344.005C343.853 35.1413 343.708 35.0811 343.601 34.9739C343.494 34.8667 343.434 34.7214 343.434 34.5699C343.434 34.4183 343.494 34.273 343.601 34.1659C343.708 34.0587 343.853 33.9985 344.005 33.9985H352.004C352.156 33.9985 352.301 34.0587 352.408 34.1659C352.515 34.273 352.575 34.4183 352.575 34.5699C352.575 34.7214 352.515 34.8667 352.408 34.9739C352.301 35.0811 352.156 35.1413 352.004 35.1413ZM353.147 38.5695H344.005C343.853 38.5695 343.708 38.5093 343.601 38.4021C343.494 38.295 343.434 38.1496 343.434 37.9981C343.434 37.8466 343.494 37.7012 343.601 37.5941C343.708 37.4869 343.853 37.4267 344.005 37.4267H353.147C353.298 37.4267 353.444 37.4869 353.551 37.5941C353.658 37.7012 353.718 37.8466 353.718 37.9981C353.718 38.1496 353.658 38.295 353.551 38.4021C353.444 38.5093 353.298 38.5695 353.147 38.5695ZM349.719 41.9977H344.005C343.853 41.9977 343.708 41.9375 343.601 41.8303C343.494 41.7232 343.434 41.5778 343.434 41.4263C343.434 41.2748 343.494 41.1294 343.601 41.0223C343.708 40.9151 343.853 40.8549 344.005 40.8549H349.719C349.87 40.8549 350.016 40.9151 350.123 41.0223C350.23 41.1294 350.29 41.2748 350.29 41.4263C350.29 41.5778 350.23 41.7232 350.123 41.8303C350.016 41.9375 349.87 41.9977 349.719 41.9977ZM349.719 45.4259H344.005C343.853 45.4259 343.708 45.3657 343.601 45.2585C343.494 45.1514 343.434 45.006 343.434 44.8545C343.434 44.703 343.494 44.5576 343.601 44.4505C343.708 44.3433 343.853 44.2831 344.005 44.2831H349.719C349.87 44.2831 350.016 44.3433 350.123 44.4505C350.23 44.5576 350.29 44.703 350.29 44.8545C350.29 45.006 350.23 45.1514 350.123 45.2585C350.016 45.3657 349.87 45.4259 349.719 45.4259Z" fill="#24BAF2"/>

<g filter="url(#filter5_d_4716_6488)">
<rect x="448" y="10" width="96" height="96" rx="8" stroke="#C8D0DB"/>
</g>
<path d="M505.5 32H502.5C502.367 32 502.24 31.9473 502.146 31.8536C502.053 31.7598 502 31.6326 502 31.5C502 31.3674 502.053 31.2402 502.146 31.1464C502.24 31.0527 502.367 31 502.5 31H505V28.5C505 28.3674 505.053 28.2402 505.146 28.1464C505.24 28.0527 505.367 28 505.5 28C505.633 28 505.76 28.0527 505.854 28.1464C505.947 28.2402 506 28.3674 506 28.5V31.5C506 31.6326 505.947 31.7598 505.854 31.8536C505.76 31.9473 505.633 32 505.5 32Z" fill="#20336B"/>
<path d="M496 50C489.383 50 484 44.617 484 38C484 31.383 489.383 26 496 26C499.8 26 503.409 27.83 505.653 30.895C505.692 30.948 505.72 31.0081 505.735 31.0719C505.751 31.1357 505.754 31.202 505.744 31.2669C505.734 31.3318 505.711 31.3941 505.677 31.4502C505.643 31.5063 505.598 31.5552 505.545 31.594C505.492 31.6328 505.432 31.6608 505.368 31.6764C505.304 31.6919 505.238 31.6948 505.173 31.6848C505.108 31.6747 505.046 31.652 504.99 31.6179C504.934 31.5838 504.885 31.539 504.846 31.486C503.826 30.0978 502.494 28.9686 500.957 28.1894C499.421 27.4102 497.723 27.0028 496 27C489.935 27 485 31.935 485 38C485 44.065 489.935 49 496 49C502.065 49 507 44.065 507 38C507 37.484 506.969 37.017 506.905 36.571C506.895 36.4438 506.933 36.3175 507.013 36.2178C507.092 36.1181 507.207 36.0525 507.333 36.0343C507.459 36.0162 507.588 36.047 507.692 36.1203C507.797 36.1937 507.869 36.3041 507.895 36.429C507.966 36.922 508 37.436 508 38C508 44.617 502.617 50 496 50Z" fill="#20336B"/>
<path d="M496 46.0003C495.933 46.0004 495.867 45.9868 495.806 45.9603C495.568 45.8613 490 43.4543 490 38.5363V34.3573C490 34.1433 490.137 33.9523 490.34 33.8833L495.84 32.0263C495.944 31.9912 496.056 31.9912 496.16 32.0263L501.66 33.8833C501.863 33.9523 502 34.1433 502 34.3573V38.5363C502 43.4543 496.432 45.8613 496.194 45.9613C496.133 45.987 496.067 46.0003 496 46.0003ZM491 34.7163V38.5363C491 42.3213 495.055 44.4943 496 44.9503C496.944 44.4933 501 42.3123 501 38.5363V34.7163L496 33.0283L491 34.7163Z" fill="#24BAF2"/>
<path d="M495.499 41.0002L495.471 40.9992C495.401 40.9952 495.332 40.9765 495.269 40.9443C495.207 40.9121 495.152 40.8671 495.108 40.8122L493.108 38.3122C493.034 38.2079 493.003 38.0793 493.021 37.9528C493.038 37.8262 493.104 37.7112 493.204 37.6314C493.303 37.5515 493.43 37.5128 493.557 37.5232C493.685 37.5336 493.803 37.5923 493.889 37.6872L495.54 39.7512L498.645 36.6462C498.739 36.5551 498.865 36.5047 498.997 36.5059C499.128 36.507 499.253 36.5596 499.346 36.6523C499.438 36.745 499.491 36.8704 499.492 37.0015C499.493 37.1326 499.443 37.2589 499.352 37.3532L495.852 40.8532C495.806 40.8999 495.751 40.937 495.69 40.9623C495.63 40.9875 495.565 41.0004 495.499 41.0002Z" fill="#20336B"/>

<g filter="url(#filter6_d_4716_6488)">
<rect x="592" y="172" width="96" height="96" rx="8" stroke="#C8D0DB"/>
</g>
<path d="M641.158 201.951C641.455 202.079 641.762 202.166 642.072 202.214L642.171 203.031C642.527 203.069 642.886 203.065 643.242 203.018C643.597 202.97 643.946 202.881 644.282 202.751L644.184 201.933C644.476 201.804 644.752 201.639 645.006 201.44L645.626 201.945C646.183 201.468 646.629 200.864 646.931 200.18L646.311 199.674C646.43 199.366 646.514 199.044 646.56 198.715L647.335 198.612C647.406 197.861 647.313 197.104 647.063 196.396L646.293 196.498C646.171 196.191 646.013 195.901 645.824 195.634L646.304 194.985C646.078 194.692 645.821 194.428 645.538 194.197C645.255 193.968 644.948 193.772 644.623 193.614L644.142 194.265C643.849 194.139 643.542 194.051 643.229 194.003L643.13 193.186C642.774 193.148 642.414 193.152 642.059 193.199C641.704 193.247 641.355 193.336 641.019 193.466L641.117 194.284C640.825 194.412 640.549 194.578 640.294 194.777L639.674 194.271C639.117 194.748 638.671 195.352 638.369 196.037L638.99 196.542C638.869 196.854 638.786 197.176 638.74 197.501L637.965 197.604C637.895 198.355 637.988 199.113 638.238 199.821L639.007 199.719C639.13 200.025 639.288 200.316 639.477 200.583L638.997 201.232C639.223 201.524 639.479 201.788 639.762 202.019C640.049 202.253 640.356 202.447 640.678 202.603L641.158 201.951ZM641.346 199.875C640.909 199.508 640.627 198.976 640.561 198.393C640.495 197.81 640.649 197.223 640.992 196.759C641.335 196.295 641.838 195.991 642.392 195.913C642.946 195.835 643.507 195.989 643.954 196.342C644.401 196.705 644.691 197.24 644.762 197.828C644.833 198.416 644.678 199.009 644.332 199.478C643.987 199.946 643.478 200.251 642.918 200.325C642.357 200.4 641.792 200.238 641.346 199.875ZM645.605 207.715C645.741 207.758 645.879 207.785 646.015 207.801L646.16 208.45C646.676 208.47 647.187 208.345 647.641 208.087L647.495 207.437C647.731 207.278 647.936 207.075 648.101 206.838L648.71 207.031C648.847 206.803 648.955 206.557 649.029 206.299C649.105 206.035 649.142 205.768 649.149 205.503L648.54 205.31C648.527 205.017 648.463 204.729 648.351 204.46L648.815 204.003C648.572 203.525 648.213 203.123 647.773 202.841L647.31 203.297C647.188 203.231 647.059 203.174 646.923 203.131C646.787 203.087 646.65 203.06 646.513 203.044L646.368 202.395C645.853 202.376 645.342 202.501 644.888 202.759L645.033 203.409C644.798 203.567 644.593 203.77 644.428 204.007L643.819 203.814C643.685 204.038 643.575 204.282 643.499 204.546C643.423 204.811 643.386 205.078 643.38 205.342L643.988 205.535C644.001 205.828 644.065 206.116 644.178 206.385L643.714 206.842C643.956 207.321 644.316 207.722 644.756 208.005L645.218 207.549C645.342 207.616 645.472 207.672 645.605 207.715ZM645.245 205.1C645.327 204.816 645.512 204.578 645.761 204.438C646.01 204.298 646.302 204.267 646.572 204.353C646.842 204.439 647.069 204.633 647.202 204.895C647.336 205.156 647.365 205.462 647.283 205.746C647.243 205.886 647.177 206.017 647.088 206.13C647 206.244 646.891 206.338 646.768 206.408C646.645 206.477 646.51 206.52 646.37 206.535C646.231 206.549 646.091 206.535 645.957 206.493C645.823 206.45 645.699 206.381 645.59 206.288C645.482 206.195 645.393 206.081 645.327 205.951C645.26 205.822 645.219 205.68 645.205 205.534C645.191 205.388 645.205 205.241 645.245 205.1Z" fill="#24BAF2"/>
<path d="M638.424 199.726L638.478 199.979L637.811 199.929C637.336 199.893 636.596 199.859 635.827 199.823C635.512 199.808 635.191 199.793 634.882 199.778C634.355 199.751 633.861 199.724 633.492 199.695C633.308 199.68 633.146 199.665 633.023 199.648C632.963 199.639 632.9 199.629 632.844 199.615C632.817 199.608 632.778 199.597 632.736 199.58C632.735 199.58 632.735 199.58 632.734 199.579C632.72 199.573 632.677 199.556 632.626 199.52C631.415 200.606 630.209 202.373 629.408 204.279L629.408 204.28C628.495 206.449 628.29 208.313 628.705 209.561C628.85 209.995 629.102 210.451 629.543 210.804C629.978 211.153 630.638 211.433 631.657 211.452L631.657 211.452C632.115 211.46 633.737 211.489 635.407 211.501H635.414L638.424 199.726ZM638.424 199.726C639.559 200.822 640.668 202.489 641.421 204.279L641.421 204.28C642.333 206.449 642.538 208.313 642.123 209.561L638.424 199.726ZM639.171 211.452L639.171 211.452C640.19 211.433 640.85 211.153 641.286 210.804C641.726 210.451 641.979 209.995 642.123 209.562L639.171 211.452ZM639.171 211.452C638.227 211.469 636.745 211.491 635.415 211.501L639.171 211.452ZM637.875 196.651H637.691H633.138H632.954L631.933 192.655C631.983 192.673 632.038 192.699 632.098 192.735C632.245 192.822 632.392 192.941 632.573 193.09L632.578 193.095C632.692 193.19 632.838 193.31 632.98 193.406C633.054 193.456 633.139 193.507 633.23 193.547C633.317 193.586 633.44 193.628 633.583 193.628C633.725 193.628 633.849 193.586 633.936 193.547C634.027 193.507 634.112 193.456 634.185 193.406C634.328 193.31 634.474 193.19 634.588 193.095L634.594 193.09C634.594 193.09 634.594 193.09 634.594 193.09C634.774 192.941 634.921 192.822 635.068 192.735C635.21 192.651 635.319 192.619 635.414 192.619C635.51 192.619 635.619 192.651 635.761 192.735C635.908 192.821 636.054 192.941 636.234 193.09L637.875 196.651ZM637.875 196.651L638.895 192.655C638.845 192.673 638.791 192.699 638.731 192.735C638.584 192.821 638.438 192.941 638.257 193.09C638.257 193.09 638.257 193.09 638.257 193.09L638.251 193.095C638.137 193.19 637.991 193.31 637.848 193.406C637.775 193.456 637.69 193.507 637.599 193.547C637.512 193.586 637.388 193.628 637.246 193.628C637.103 193.628 636.98 193.586 636.893 193.547C636.802 193.507 636.717 193.456 636.643 193.406C636.5 193.31 636.355 193.19 636.24 193.095L636.234 193.09L637.875 196.651Z" stroke="#2C007D"/>
<path fill-rule="evenodd" clip-rule="evenodd" d="M638.272 199.725H632.556C631.7 199.725 631.004 198.994 631.004 198.096C631.004 197.197 631.7 196.467 632.556 196.467H638.272C639.128 196.467 639.824 197.197 639.824 198.096C639.824 198.994 639.128 199.725 638.272 199.725Z" fill="#2C007D"/>
<path d="M638.795 206.315H637.799V205.31H638.795C638.944 205.31 639.066 205.183 639.066 205.026C639.066 204.869 638.944 204.742 638.795 204.742H637.799V203.348C637.799 203.144 637.761 202.995 637.686 202.904C637.614 202.818 637.52 202.777 637.389 202.777C637.264 202.777 637.174 202.817 637.103 202.903C637.029 202.994 636.991 203.144 636.991 203.348V204.742H635.118L634.322 203.477C634.258 203.37 634.193 203.263 634.128 203.157C634.072 203.065 634.017 202.991 633.965 202.935C633.92 202.886 633.868 202.848 633.807 202.819C633.749 202.791 633.676 202.777 633.59 202.777C633.48 202.777 633.38 202.809 633.284 202.874C633.189 202.939 633.123 203.018 633.083 203.118C633.048 203.212 633.03 203.357 633.03 203.544V204.742H632.044C631.895 204.742 631.773 204.869 631.773 205.026C631.773 205.183 631.895 205.31 632.044 205.31H633.03V206.315H632.044C631.895 206.315 631.773 206.442 631.773 206.599C631.773 206.756 631.895 206.883 632.044 206.883H633.03V208.474C633.03 208.672 633.069 208.82 633.147 208.914C633.222 209.003 633.316 209.045 633.444 209.045C633.568 209.045 633.662 209.003 633.739 208.913C633.819 208.821 633.859 208.674 633.859 208.474V206.883H635.553L636.47 208.359C636.535 208.458 636.6 208.555 636.666 208.652C636.725 208.739 636.789 208.815 636.858 208.879C636.919 208.937 636.985 208.979 637.053 209.005C637.124 209.031 637.206 209.045 637.297 209.045C637.545 209.045 637.799 208.965 637.799 208.374V206.883H638.795C638.944 206.883 639.066 206.756 639.066 206.599C639.066 206.442 638.944 206.315 638.795 206.315ZM636.991 205.31V206.315H636.108L635.476 205.31H636.991ZM633.859 204.156L634.223 204.742H633.859V204.156ZM633.859 206.315V205.31H634.576L635.2 206.315H633.859ZM636.991 207.717L636.466 206.883H636.991V207.717Z" fill="#24BAF2"/>

<defs>
<filter id="filter0_d_4716_6488" x="550" y="0" width="180" height="180" filterUnits="userSpaceOnUse" color-interpolation-filters="sRGB">
<feFlood flood-opacity="0" result="BackgroundImageFix"/>
<feColorMatrix in="SourceAlpha" type="matrix" values="0 0 0 0 0 0 0 0 0 0 0 0 0 0 0 0 0 0 127 0" result="hardAlpha"/>
<feMorphology radius="12" operator="erode" in="SourceAlpha" result="effect1_dropShadow_4716_6488"/>
<feOffset dy="32"/>
<feGaussianBlur stdDeviation="27"/>
<feColorMatrix type="matrix" values="0 0 0 0 0.0627451 0 0 0 0 0.0980392 0 0 0 0 0.156863 0 0 0 0.18 0"/>
<feBlend mode="normal" in2="BackgroundImageFix" result="effect1_dropShadow_4716_6488"/>
<feBlend mode="normal" in="SourceGraphic" in2="effect1_dropShadow_4716_6488" result="shape"/>
</filter>
<filter id="filter1_d_4716_6488" x="-26" y="162" width="180" height="180" filterUnits="userSpaceOnUse" color-interpolation-filters="sRGB">
<feFlood flood-opacity="0" result="BackgroundImageFix"/>
<feColorMatrix in="SourceAlpha" type="matrix" values="0 0 0 0 0 0 0 0 0 0 0 0 0 0 0 0 0 0 127 0" result="hardAlpha"/>
<feMorphology radius="12" operator="erode" in="SourceAlpha" result="effect1_dropShadow_4716_6488"/>
<feOffset dy="32"/>
<feGaussianBlur stdDeviation="27"/>
<feColorMatrix type="matrix" values="0 0 0 0 0.0627451 0 0 0 0 0.0980392 0 0 0 0 0.156863 0 0 0 0.18 0"/>
<feBlend mode="normal" in2="BackgroundImageFix" result="effect1_dropShadow_4716_6488"/>
<feBlend mode="normal" in="SourceGraphic" in2="effect1_dropShadow_4716_6488" result="shape"/>
</filter>
<filter id="filter2_d_4716_6488" x="118" y="0" width="180" height="180" filterUnits="userSpaceOnUse" color-interpolation-filters="sRGB">
<feFlood flood-opacity="0" result="BackgroundImageFix"/>
<feColorMatrix in="SourceAlpha" type="matrix" values="0 0 0 0 0 0 0 0 0 0 0 0 0 0 0 0 0 0 127 0" result="hardAlpha"/>
<feMorphology radius="12" operator="erode" in="SourceAlpha" result="effect1_dropShadow_4716_6488"/>
<feOffset dy="32"/>
<feGaussianBlur stdDeviation="27"/>
<feColorMatrix type="matrix" values="0 0 0 0 0.0627451 0 0 0 0 0.0980392 0 0 0 0 0.156863 0 0 0 0.18 0"/>
<feBlend mode="normal" in2="BackgroundImageFix" result="effect1_dropShadow_4716_6488"/>
<feBlend mode="normal" in="SourceGraphic" in2="effect1_dropShadow_4716_6488" result="shape"/>
</filter>
<filter id="filter3_d_4716_6488" x="344" y="162" width="180" height="180" filterUnits="userSpaceOnUse" color-interpolation-filters="sRGB">
<feFlood flood-opacity="0" result="BackgroundImageFix"/>
<feColorMatrix in="SourceAlpha" type="matrix" values="0 0 0 0 0 0 0 0 0 0 0 0 0 0 0 0 0 0 127 0" result="hardAlpha"/>
<feMorphology radius="12" operator="erode" in="SourceAlpha" result="effect1_dropShadow_4716_6488"/>
<feOffset dy="32"/>
<feGaussianBlur stdDeviation="27"/>
<feColorMatrix type="matrix" values="0 0 0 0 0.0627451 0 0 0 0 0.0980392 0 0 0 0 0.156863 0 0 0 0.18 0"/>
<feBlend mode="normal" in2="BackgroundImageFix" result="effect1_dropShadow_4716_6488"/>
<feBlend mode="normal" in="SourceGraphic" in2="effect1_dropShadow_4716_6488" result="shape"/>
</filter>
<filter id="filter4_d_4716_6488" x="262" y="0" width="180" height="180" filterUnits="userSpaceOnUse" color-interpolation-filters="sRGB">
<feFlood flood-opacity="0" result="BackgroundImageFix"/>
<feColorMatrix in="SourceAlpha" type="matrix" values="0 0 0 0 0 0 0 0 0 0 0 0 0 0 0 0 0 0 127 0" result="hardAlpha"/>
<feMorphology radius="12" operator="erode" in="SourceAlpha" result="effect1_dropShadow_4716_6488"/>
<feOffset dy="32"/>
<feGaussianBlur stdDeviation="27"/>
<feColorMatrix type="matrix" values="0 0 0 0 0.0627451 0 0 0 0 0.0980392 0 0 0 0 0.156863 0 0 0 0.18 0"/>
<feBlend mode="normal" in2="BackgroundImageFix" result="effect1_dropShadow_4716_6488"/>
<feBlend mode="normal" in="SourceGraphic" in2="effect1_dropShadow_4716_6488" result="shape"/>
</filter>
<filter id="filter5_d_4716_6488" x="406" y="0" width="180" height="180" filterUnits="userSpaceOnUse" color-interpolation-filters="sRGB">
<feFlood flood-opacity="0" result="BackgroundImageFix"/>
<feColorMatrix in="SourceAlpha" type="matrix" values="0 0 0 0 0 0 0 0 0 0 0 0 0 0 0 0 0 0 127 0" result="hardAlpha"/>
<feMorphology radius="12" operator="erode" in="SourceAlpha" result="effect1_dropShadow_4716_6488"/>
<feOffset dy="32"/>
<feGaussianBlur stdDeviation="27"/>
<feColorMatrix type="matrix" values="0 0 0 0 0.0627451 0 0 0 0 0.0980392 0 0 0 0 0.156863 0 0 0 0.18 0"/>
<feBlend mode="normal" in2="BackgroundImageFix" result="effect1_dropShadow_4716_6488"/>
<feBlend mode="normal" in="SourceGraphic" in2="effect1_dropShadow_4716_6488" result="shape"/>
</filter>
<filter id="filter6_d_4716_6488" x="550" y="162" width="180" height="180" filterUnits="userSpaceOnUse" color-interpolation-filters="sRGB">
<feFlood flood-opacity="0" result="BackgroundImageFix"/>
<feColorMatrix in="SourceAlpha" type="matrix" values="0 0 0 0 0 0 0 0 0 0 0 0 0 0 0 0 0 0 127 0" result="hardAlpha"/>
<feMorphology radius="12" operator="erode" in="SourceAlpha" result="effect1_dropShadow_4716_6488"/>
<feOffset dy="32"/>
<feGaussianBlur stdDeviation="27"/>
<feColorMatrix type="matrix" values="0 0 0 0 0.0627451 0 0 0 0 0.0980392 0 0 0 0 0.156863 0 0 0 0.18 0"/>
<feBlend mode="normal" in2="BackgroundImageFix" result="effect1_dropShadow_4716_6488"/>
<feBlend mode="normal" in="SourceGraphic" in2="effect1_dropShadow_4716_6488" result="shape"/>
</filter>
<radialGradient id="paint0_radial_4716_6488" cx="0" cy="0" r="1" gradientUnits="userSpaceOnUse" gradientTransform="translate(-360.5 126.5) rotate(0.200261) scale(1144.51 5801.24)">
<stop stop-color="#17D92A"/>
<stop offset="1" stop-color="#FFBB08"/>
</radialGradient>
<clipPath id="clip0_4716_6488">
<rect width="24" height="24" fill="white" transform="translate(196 20)"/>
</clipPath>
</defs>
</svg>
