<svg width="704" height="266" viewBox="0 0 704 266" fill="none" xmlns="http://www.w3.org/2000/svg">
<path d="M64.005 105.662V175.867C63.7903 184.085 70.4454 200.412 98.783 199.984C119.591 199.669 286.588 199.72 431.746 199.84C484.275 199.884 533.944 199.936 572.79 199.984L604 199.84C625.5 199.984 637.5 191.54 637.5 179.498C637.5 169.463 637.5 144.802 637.5 106M431.746 154V106" stroke="url(#paint0_radial_4716_6838)" stroke-width="1.5">     
<animate attributeName="stroke-dasharray" from="0, 1000" to="1000, 0" dur="3s" fill="freeze"/>
  </path>
<g filter="url(#filter0_d_4716_6838)">
<rect x="16" y="10" width="96" height="96" rx="8" fill="white"/>
</g>
<path fill-rule="evenodd" clip-rule="evenodd" d="M63.5553 27.7613C61.8138 27.7613 60.402 29.1731 60.402 30.9147C60.402 32.6562 61.8138 34.068 63.5553 34.068C65.2969 34.068 66.7087 32.6562 66.7087 30.9147C66.7087 29.1731 65.2969 27.7613 63.5553 27.7613ZM59.1406 30.9147C59.1406 28.4765 61.1172 26.5 63.5553 26.5C65.9935 26.5 67.97 28.4765 67.97 30.9147C67.97 33.3529 65.9935 35.3294 63.5553 35.3294C61.1172 35.3294 59.1406 33.3529 59.1406 30.9147Z" fill="#223872"/>
<path fill-rule="evenodd" clip-rule="evenodd" d="M60.4158 35.9043C60.0675 35.9043 59.7852 36.1867 59.7852 36.535C59.7852 36.8833 60.0675 37.1656 60.4158 37.1656H65.0027C68.2884 37.1656 71.1237 39.4709 71.7941 42.6877L72.079 44.0552C72.4872 46.0134 70.9924 47.852 68.992 47.852H60.1599V49.1133H68.992C71.7924 49.1133 73.8853 46.5394 73.3139 43.7979L73.0288 42.4303C72.2366 38.6287 68.8859 35.9043 65.0027 35.9043H60.4158Z" fill="#223872"/>
<path d="M55.9981 39.4062C52.2509 46.4842 55.9981 48.566 59.0749 48.4871" stroke="#3FAFE9" stroke-width="1.5"/>
<path d="M56 39.4069L56.4164 38.5742" stroke="#3FAFE9" stroke-width="1.5"/>
<path d="M54.5437 36.9223L58.6508 36.8745L58.3105 40.5895L54.5437 36.9223Z" fill="#3FAFE9" stroke="#3FAFE9"/>
<path d="M42.7666 62.0469H44.0449L47.3057 70.1611L50.5596 62.0469H51.8447L47.7979 72H46.7998L42.7666 62.0469ZM42.3496 62.0469H43.4775L43.6621 68.1172V72H42.3496V62.0469ZM51.127 62.0469H52.2549V72H50.9424V68.1172L51.127 62.0469ZM54.0459 68.3838V68.2266C54.0459 67.6934 54.1234 67.1989 54.2783 66.7432C54.4333 66.2829 54.6566 65.8841 54.9482 65.5469C55.2399 65.2051 55.5931 64.9408 56.0078 64.7539C56.4225 64.5625 56.8874 64.4668 57.4023 64.4668C57.9219 64.4668 58.389 64.5625 58.8037 64.7539C59.223 64.9408 59.5785 65.2051 59.8701 65.5469C60.1663 65.8841 60.3919 66.2829 60.5469 66.7432C60.7018 67.1989 60.7793 67.6934 60.7793 68.2266V68.3838C60.7793 68.917 60.7018 69.4115 60.5469 69.8672C60.3919 70.3229 60.1663 70.7217 59.8701 71.0635C59.5785 71.4007 59.2253 71.665 58.8105 71.8564C58.4004 72.0433 57.9355 72.1367 57.416 72.1367C56.8965 72.1367 56.4294 72.0433 56.0146 71.8564C55.5999 71.665 55.2445 71.4007 54.9482 71.0635C54.6566 70.7217 54.4333 70.3229 54.2783 69.8672C54.1234 69.4115 54.0459 68.917 54.0459 68.3838ZM55.3105 68.2266V68.3838C55.3105 68.7529 55.3538 69.1016 55.4404 69.4297C55.527 69.7533 55.6569 70.0404 55.8301 70.291C56.0078 70.5417 56.2288 70.7399 56.4932 70.8857C56.7575 71.027 57.0651 71.0977 57.416 71.0977C57.7624 71.0977 58.0654 71.027 58.3252 70.8857C58.5895 70.7399 58.8083 70.5417 58.9814 70.291C59.1546 70.0404 59.2845 69.7533 59.3711 69.4297C59.4622 69.1016 59.5078 68.7529 59.5078 68.3838V68.2266C59.5078 67.862 59.4622 67.5179 59.3711 67.1943C59.2845 66.8662 59.1523 66.5768 58.9746 66.3262C58.8014 66.071 58.5827 65.8704 58.3184 65.7246C58.0586 65.5788 57.7533 65.5059 57.4023 65.5059C57.056 65.5059 56.7507 65.5788 56.4863 65.7246C56.2266 65.8704 56.0078 66.071 55.8301 66.3262C55.6569 66.5768 55.527 66.8662 55.4404 67.1943C55.3538 67.5179 55.3105 67.862 55.3105 68.2266ZM63.6299 66.1826V72H62.3652V64.6035H63.5615L63.6299 66.1826ZM63.3291 68.0215L62.8027 68.001C62.8073 67.4951 62.8825 67.028 63.0283 66.5996C63.1742 66.1667 63.3792 65.7907 63.6436 65.4717C63.9079 65.1527 64.2223 64.9066 64.5869 64.7334C64.9561 64.5557 65.3639 64.4668 65.8105 64.4668C66.1751 64.4668 66.5033 64.5169 66.7949 64.6172C67.0866 64.7129 67.335 64.8678 67.54 65.082C67.7497 65.2962 67.9092 65.5742 68.0186 65.916C68.1279 66.2533 68.1826 66.6657 68.1826 67.1533V72H66.9111V67.1396C66.9111 66.7523 66.8542 66.4424 66.7402 66.21C66.6263 65.973 66.46 65.8021 66.2412 65.6973C66.0225 65.5879 65.7536 65.5332 65.4346 65.5332C65.1201 65.5332 64.833 65.5993 64.5732 65.7314C64.318 65.8636 64.097 66.0459 63.9102 66.2783C63.7279 66.5107 63.5843 66.7773 63.4795 67.0781C63.3792 67.3743 63.3291 67.6888 63.3291 68.0215ZM73.2002 64.6035V65.5742H69.2012V64.6035H73.2002ZM70.5547 62.8057H71.8193V70.168C71.8193 70.4186 71.8581 70.6077 71.9355 70.7354C72.013 70.863 72.1133 70.9473 72.2363 70.9883C72.3594 71.0293 72.4915 71.0498 72.6328 71.0498C72.7376 71.0498 72.847 71.0407 72.9609 71.0225C73.0794 70.9997 73.1683 70.9814 73.2275 70.9678L73.2344 72C73.1341 72.0319 73.002 72.0615 72.8379 72.0889C72.6784 72.1208 72.4847 72.1367 72.2568 72.1367C71.9469 72.1367 71.6621 72.0752 71.4023 71.9521C71.1426 71.8291 70.9352 71.624 70.7803 71.3369C70.6299 71.0452 70.5547 70.6533 70.5547 70.1611V62.8057ZM75.9482 65.7656V72H74.6836V64.6035H75.9141L75.9482 65.7656ZM78.2588 64.5625L78.252 65.7383C78.1471 65.7155 78.0469 65.7018 77.9512 65.6973C77.86 65.6882 77.7552 65.6836 77.6367 65.6836C77.3451 65.6836 77.0876 65.7292 76.8643 65.8203C76.641 65.9115 76.4518 66.0391 76.2969 66.2031C76.1419 66.3672 76.0189 66.5632 75.9277 66.791C75.8411 67.0143 75.7842 67.2604 75.7568 67.5293L75.4014 67.7344C75.4014 67.2878 75.4447 66.8685 75.5312 66.4766C75.6224 66.0846 75.7614 65.7383 75.9482 65.4375C76.1351 65.1322 76.3721 64.8952 76.6592 64.7266C76.9508 64.5534 77.2972 64.4668 77.6982 64.4668C77.7894 64.4668 77.8942 64.4782 78.0127 64.501C78.1312 64.5192 78.2132 64.5397 78.2588 64.5625ZM83.5156 70.7354V66.9277C83.5156 66.6361 83.4564 66.3831 83.3379 66.1689C83.224 65.9502 83.0508 65.7816 82.8184 65.6631C82.5859 65.5446 82.2988 65.4854 81.957 65.4854C81.638 65.4854 81.3577 65.54 81.1162 65.6494C80.8792 65.7588 80.6924 65.9023 80.5557 66.0801C80.4235 66.2578 80.3574 66.4492 80.3574 66.6543H79.0928C79.0928 66.39 79.1611 66.1279 79.2979 65.8682C79.4346 65.6084 79.6305 65.3737 79.8857 65.1641C80.1455 64.9499 80.4554 64.7812 80.8154 64.6582C81.18 64.5306 81.5856 64.4668 82.0322 64.4668C82.57 64.4668 83.0439 64.5579 83.4541 64.7402C83.8688 64.9225 84.1924 65.1982 84.4248 65.5674C84.6618 65.932 84.7803 66.39 84.7803 66.9414V70.3867C84.7803 70.6328 84.8008 70.8949 84.8418 71.1729C84.8874 71.4508 84.9535 71.6901 85.04 71.8906V72H83.7207C83.6569 71.8542 83.6068 71.6605 83.5703 71.4189C83.5339 71.1729 83.5156 70.945 83.5156 70.7354ZM83.7344 67.5156L83.748 68.4043H82.4697C82.1097 68.4043 81.7884 68.4339 81.5059 68.4932C81.2233 68.5479 80.9863 68.6322 80.7949 68.7461C80.6035 68.86 80.4577 69.0036 80.3574 69.1768C80.2572 69.3454 80.207 69.5436 80.207 69.7715C80.207 70.0039 80.2594 70.2158 80.3643 70.4072C80.4691 70.5986 80.6263 70.7513 80.8359 70.8652C81.0501 70.9746 81.3122 71.0293 81.6221 71.0293C82.0094 71.0293 82.3512 70.9473 82.6475 70.7832C82.9437 70.6191 83.1784 70.4186 83.3516 70.1816C83.5293 69.9447 83.625 69.7145 83.6387 69.4912L84.1787 70.0996C84.1468 70.291 84.0602 70.5029 83.9189 70.7354C83.7777 70.9678 83.5885 71.1911 83.3516 71.4053C83.1191 71.6149 82.8411 71.7904 82.5176 71.9316C82.1986 72.0684 81.8385 72.1367 81.4375 72.1367C80.9362 72.1367 80.4964 72.0387 80.1182 71.8428C79.7445 71.6468 79.4528 71.3848 79.2432 71.0566C79.0381 70.724 78.9355 70.3525 78.9355 69.9424C78.9355 69.5459 79.013 69.1973 79.168 68.8965C79.3229 68.5911 79.5462 68.3382 79.8379 68.1377C80.1296 67.9326 80.4805 67.7777 80.8906 67.6729C81.3008 67.568 81.7588 67.5156 82.2646 67.5156H83.7344ZM36.5732 86.835H37.8857C37.8174 87.4639 37.6374 88.0267 37.3457 88.5234C37.054 89.0202 36.6416 89.4144 36.1084 89.7061C35.5752 89.9932 34.9098 90.1367 34.1123 90.1367C33.529 90.1367 32.998 90.0273 32.5195 89.8086C32.0456 89.5898 31.6377 89.2799 31.2959 88.8789C30.9541 88.4733 30.6898 87.988 30.5029 87.4229C30.3206 86.8532 30.2295 86.2197 30.2295 85.5225V84.5312C30.2295 83.834 30.3206 83.2028 30.5029 82.6377C30.6898 82.068 30.9564 81.5804 31.3027 81.1748C31.6536 80.7692 32.0752 80.457 32.5674 80.2383C33.0596 80.0195 33.6133 79.9102 34.2285 79.9102C34.9805 79.9102 35.6162 80.0514 36.1357 80.334C36.6553 80.6165 37.0586 81.0085 37.3457 81.5098C37.6374 82.0065 37.8174 82.583 37.8857 83.2393H36.5732C36.5094 82.7744 36.391 82.3757 36.2178 82.043C36.0446 81.7057 35.7985 81.446 35.4795 81.2637C35.1605 81.0814 34.7435 80.9902 34.2285 80.9902C33.7865 80.9902 33.3968 81.0745 33.0596 81.2432C32.7269 81.4118 32.4466 81.651 32.2188 81.9609C31.9954 82.2708 31.8268 82.6423 31.7129 83.0752C31.599 83.5081 31.542 83.9889 31.542 84.5176V85.5225C31.542 86.0101 31.5921 86.4681 31.6924 86.8965C31.7972 87.3249 31.9544 87.7008 32.1641 88.0244C32.3737 88.348 32.6403 88.6032 32.9639 88.79C33.2874 88.9723 33.6702 89.0635 34.1123 89.0635C34.6729 89.0635 35.1195 88.9746 35.4521 88.7969C35.7848 88.6191 36.0355 88.3639 36.2041 88.0312C36.3773 87.6986 36.5003 87.2998 36.5732 86.835ZM44.0176 88.291V82.6035H45.2891V90H44.0791L44.0176 88.291ZM44.2568 86.7324L44.7832 86.7188C44.7832 87.2109 44.7308 87.6667 44.626 88.0859C44.5257 88.5007 44.3617 88.8607 44.1338 89.166C43.9059 89.4714 43.6074 89.7106 43.2383 89.8838C42.8691 90.0524 42.4202 90.1367 41.8916 90.1367C41.5316 90.1367 41.2012 90.0843 40.9004 89.9795C40.6042 89.8747 40.349 89.7129 40.1348 89.4941C39.9206 89.2754 39.7542 88.9906 39.6357 88.6396C39.5218 88.2887 39.4648 87.8672 39.4648 87.375V82.6035H40.7295V87.3887C40.7295 87.7214 40.766 87.9971 40.8389 88.2158C40.9163 88.43 41.0189 88.6009 41.1465 88.7285C41.2786 88.8516 41.4245 88.9382 41.584 88.9883C41.748 89.0384 41.9167 89.0635 42.0898 89.0635C42.6276 89.0635 43.0537 88.9609 43.3682 88.7559C43.6826 88.5462 43.9082 88.266 44.0449 87.915C44.1862 87.5596 44.2568 87.1654 44.2568 86.7324ZM51.5234 88.0381C51.5234 87.8558 51.4824 87.6872 51.4004 87.5322C51.3229 87.3727 51.1611 87.2292 50.915 87.1016C50.6735 86.9694 50.3089 86.8555 49.8213 86.7598C49.4111 86.6732 49.0397 86.5706 48.707 86.4521C48.3789 86.3337 48.0986 86.1901 47.8662 86.0215C47.6383 85.8529 47.4629 85.6546 47.3398 85.4268C47.2168 85.1989 47.1553 84.9323 47.1553 84.627C47.1553 84.3353 47.2191 84.0596 47.3467 83.7998C47.4788 83.54 47.6634 83.3099 47.9004 83.1094C48.1419 82.9089 48.4313 82.7516 48.7686 82.6377C49.1058 82.5238 49.4818 82.4668 49.8965 82.4668C50.4889 82.4668 50.9948 82.5716 51.4141 82.7812C51.8333 82.9909 52.1546 83.2712 52.3779 83.6221C52.6012 83.9684 52.7129 84.3535 52.7129 84.7773H51.4482C51.4482 84.5723 51.3867 84.374 51.2637 84.1826C51.1452 83.9867 50.9697 83.8249 50.7373 83.6973C50.5094 83.5697 50.2292 83.5059 49.8965 83.5059C49.5456 83.5059 49.2607 83.5605 49.042 83.6699C48.8278 83.7747 48.6706 83.9092 48.5703 84.0732C48.4746 84.2373 48.4268 84.4105 48.4268 84.5928C48.4268 84.7295 48.4495 84.8525 48.4951 84.9619C48.5452 85.0667 48.6318 85.1647 48.7549 85.2559C48.8779 85.3424 49.0511 85.4245 49.2744 85.502C49.4977 85.5794 49.7826 85.6569 50.1289 85.7344C50.735 85.8711 51.234 86.0352 51.626 86.2266C52.0179 86.418 52.3096 86.6527 52.501 86.9307C52.6924 87.2087 52.7881 87.5459 52.7881 87.9424C52.7881 88.266 52.7197 88.5622 52.583 88.8311C52.4508 89.0999 52.2572 89.3324 52.002 89.5283C51.7513 89.7197 51.4505 89.8701 51.0996 89.9795C50.7533 90.0843 50.3636 90.1367 49.9307 90.1367C49.279 90.1367 48.7275 90.0205 48.2764 89.7881C47.8252 89.5557 47.4834 89.2549 47.251 88.8857C47.0186 88.5166 46.9023 88.127 46.9023 87.7168H48.1738C48.1921 88.0632 48.2923 88.3389 48.4746 88.5439C48.6569 88.7445 48.8802 88.888 49.1445 88.9746C49.4089 89.0566 49.6709 89.0977 49.9307 89.0977C50.277 89.0977 50.5664 89.0521 50.7988 88.9609C51.0358 88.8698 51.2158 88.7445 51.3389 88.585C51.4619 88.4255 51.5234 88.2432 51.5234 88.0381ZM57.5459 82.6035V83.5742H53.5469V82.6035H57.5459ZM54.9004 80.8057H56.165V88.168C56.165 88.4186 56.2038 88.6077 56.2812 88.7354C56.3587 88.863 56.459 88.9473 56.582 88.9883C56.7051 89.0293 56.8372 89.0498 56.9785 89.0498C57.0833 89.0498 57.1927 89.0407 57.3066 89.0225C57.4251 88.9997 57.514 88.9814 57.5732 88.9678L57.5801 90C57.4798 90.0319 57.3477 90.0615 57.1836 90.0889C57.0241 90.1208 56.8304 90.1367 56.6025 90.1367C56.2926 90.1367 56.0078 90.0752 55.748 89.9521C55.4883 89.8291 55.2809 89.624 55.126 89.3369C54.9756 89.0452 54.9004 88.6533 54.9004 88.1611V80.8057ZM58.5576 86.3838V86.2266C58.5576 85.6934 58.6351 85.1989 58.79 84.7432C58.945 84.2829 59.1683 83.8841 59.46 83.5469C59.7516 83.2051 60.1048 82.9408 60.5195 82.7539C60.9342 82.5625 61.3991 82.4668 61.9141 82.4668C62.4336 82.4668 62.9007 82.5625 63.3154 82.7539C63.7347 82.9408 64.0902 83.2051 64.3818 83.5469C64.6781 83.8841 64.9036 84.2829 65.0586 84.7432C65.2135 85.1989 65.291 85.6934 65.291 86.2266V86.3838C65.291 86.917 65.2135 87.4115 65.0586 87.8672C64.9036 88.3229 64.6781 88.7217 64.3818 89.0635C64.0902 89.4007 63.737 89.665 63.3223 89.8564C62.9121 90.0433 62.4473 90.1367 61.9277 90.1367C61.4082 90.1367 60.9411 90.0433 60.5264 89.8564C60.1117 89.665 59.7562 89.4007 59.46 89.0635C59.1683 88.7217 58.945 88.3229 58.79 87.8672C58.6351 87.4115 58.5576 86.917 58.5576 86.3838ZM59.8223 86.2266V86.3838C59.8223 86.7529 59.8656 87.1016 59.9521 87.4297C60.0387 87.7533 60.1686 88.0404 60.3418 88.291C60.5195 88.5417 60.7406 88.7399 61.0049 88.8857C61.2692 89.027 61.5768 89.0977 61.9277 89.0977C62.2741 89.0977 62.5771 89.027 62.8369 88.8857C63.1012 88.7399 63.32 88.5417 63.4932 88.291C63.6663 88.0404 63.7962 87.7533 63.8828 87.4297C63.974 87.1016 64.0195 86.7529 64.0195 86.3838V86.2266C64.0195 85.862 63.974 85.5179 63.8828 85.1943C63.7962 84.8662 63.6641 84.5768 63.4863 84.3262C63.3132 84.071 63.0944 83.8704 62.8301 83.7246C62.5703 83.5788 62.265 83.5059 61.9141 83.5059C61.5677 83.5059 61.2624 83.5788 60.998 83.7246C60.7383 83.8704 60.5195 84.071 60.3418 84.3262C60.1686 84.5768 60.0387 84.8662 59.9521 85.1943C59.8656 85.5179 59.8223 85.862 59.8223 86.2266ZM68.1348 84.0732V90H66.8633V82.6035H68.0664L68.1348 84.0732ZM67.875 86.0215L67.2871 86.001C67.2917 85.4951 67.3577 85.028 67.4854 84.5996C67.613 84.1667 67.8021 83.7907 68.0527 83.4717C68.3034 83.1527 68.6156 82.9066 68.9893 82.7334C69.363 82.5557 69.7959 82.4668 70.2881 82.4668C70.6344 82.4668 70.9535 82.5169 71.2451 82.6172C71.5368 82.7129 71.7897 82.8656 72.0039 83.0752C72.2181 83.2848 72.3844 83.5537 72.5029 83.8818C72.6214 84.21 72.6807 84.6064 72.6807 85.0713V90H71.416V85.1328C71.416 84.7454 71.3499 84.4355 71.2178 84.2031C71.0902 83.9707 70.9079 83.8021 70.6709 83.6973C70.4339 83.5879 70.1559 83.5332 69.8369 83.5332C69.4632 83.5332 69.151 83.5993 68.9004 83.7314C68.6497 83.8636 68.4492 84.0459 68.2988 84.2783C68.1484 84.5107 68.0391 84.7773 67.9707 85.0781C67.9069 85.3743 67.875 85.6888 67.875 86.0215ZM72.667 85.3242L71.8193 85.584C71.8239 85.1784 71.89 84.7887 72.0176 84.415C72.1497 84.0413 72.3389 83.7087 72.585 83.417C72.8356 83.1253 73.1432 82.8952 73.5078 82.7266C73.8724 82.5534 74.2894 82.4668 74.7588 82.4668C75.1553 82.4668 75.5062 82.5192 75.8115 82.624C76.1214 82.7288 76.3812 82.8906 76.5908 83.1094C76.805 83.3236 76.9668 83.5993 77.0762 83.9365C77.1855 84.2738 77.2402 84.6748 77.2402 85.1396V90H75.9688V85.126C75.9688 84.7113 75.9027 84.39 75.7705 84.1621C75.6429 83.9297 75.4606 83.7679 75.2236 83.6768C74.9912 83.5811 74.7132 83.5332 74.3896 83.5332C74.1117 83.5332 73.8656 83.5811 73.6514 83.6768C73.4372 83.7725 73.2572 83.9046 73.1113 84.0732C72.9655 84.2373 72.8538 84.4264 72.7764 84.6406C72.7035 84.8548 72.667 85.0827 72.667 85.3242ZM82.2236 90.1367C81.7087 90.1367 81.2415 90.0501 80.8223 89.877C80.4076 89.6992 80.0498 89.4508 79.749 89.1318C79.4528 88.8128 79.2249 88.4346 79.0654 87.9971C78.9059 87.5596 78.8262 87.0811 78.8262 86.5615V86.2744C78.8262 85.6729 78.915 85.1374 79.0928 84.668C79.2705 84.194 79.512 83.793 79.8174 83.4648C80.1227 83.1367 80.4691 82.8883 80.8564 82.7197C81.2438 82.5511 81.6449 82.4668 82.0596 82.4668C82.5882 82.4668 83.0439 82.5579 83.4268 82.7402C83.8141 82.9225 84.1309 83.1777 84.377 83.5059C84.623 83.8294 84.8053 84.2122 84.9238 84.6543C85.0423 85.0918 85.1016 85.5703 85.1016 86.0898V86.6572H79.5781V85.625H83.8369V85.5293C83.8187 85.2012 83.7503 84.8822 83.6318 84.5723C83.5179 84.2624 83.3356 84.0072 83.085 83.8066C82.8343 83.6061 82.4925 83.5059 82.0596 83.5059C81.7725 83.5059 81.5081 83.5674 81.2666 83.6904C81.0251 83.8089 80.8177 83.9867 80.6445 84.2236C80.4714 84.4606 80.3369 84.75 80.2412 85.0918C80.1455 85.4336 80.0977 85.8278 80.0977 86.2744V86.5615C80.0977 86.9124 80.1455 87.2428 80.2412 87.5527C80.3415 87.8581 80.485 88.127 80.6719 88.3594C80.8633 88.5918 81.0934 88.7741 81.3623 88.9062C81.6357 89.0384 81.9456 89.1045 82.292 89.1045C82.7386 89.1045 83.1169 89.0133 83.4268 88.8311C83.7367 88.6488 84.0078 88.4049 84.2402 88.0996L85.0059 88.708C84.8464 88.9495 84.6436 89.1797 84.3975 89.3984C84.1514 89.6172 83.8483 89.7949 83.4883 89.9316C83.1328 90.0684 82.7113 90.1367 82.2236 90.1367ZM87.8428 83.7656V90H86.5781V82.6035H87.8086L87.8428 83.7656ZM90.1533 82.5625L90.1465 83.7383C90.0417 83.7155 89.9414 83.7018 89.8457 83.6973C89.7546 83.6882 89.6497 83.6836 89.5312 83.6836C89.2396 83.6836 88.9821 83.7292 88.7588 83.8203C88.5355 83.9115 88.3464 84.0391 88.1914 84.2031C88.0365 84.3672 87.9134 84.5632 87.8223 84.791C87.7357 85.0143 87.6787 85.2604 87.6514 85.5293L87.2959 85.7344C87.2959 85.2878 87.3392 84.8685 87.4258 84.4766C87.5169 84.0846 87.6559 83.7383 87.8428 83.4375C88.0296 83.1322 88.2666 82.8952 88.5537 82.7266C88.8454 82.5534 89.1917 82.4668 89.5928 82.4668C89.6839 82.4668 89.7887 82.4782 89.9072 82.501C90.0257 82.5192 90.1077 82.5397 90.1533 82.5625ZM95.6289 88.0381C95.6289 87.8558 95.5879 87.6872 95.5059 87.5322C95.4284 87.3727 95.2666 87.2292 95.0205 87.1016C94.779 86.9694 94.4144 86.8555 93.9268 86.7598C93.5166 86.6732 93.1452 86.5706 92.8125 86.4521C92.4844 86.3337 92.2041 86.1901 91.9717 86.0215C91.7438 85.8529 91.5684 85.6546 91.4453 85.4268C91.3223 85.1989 91.2607 84.9323 91.2607 84.627C91.2607 84.3353 91.3245 84.0596 91.4521 83.7998C91.5843 83.54 91.7689 83.3099 92.0059 83.1094C92.2474 82.9089 92.5368 82.7516 92.874 82.6377C93.2113 82.5238 93.5872 82.4668 94.002 82.4668C94.5944 82.4668 95.1003 82.5716 95.5195 82.7812C95.9388 82.9909 96.2601 83.2712 96.4834 83.6221C96.7067 83.9684 96.8184 84.3535 96.8184 84.7773H95.5537C95.5537 84.5723 95.4922 84.374 95.3691 84.1826C95.2507 83.9867 95.0752 83.8249 94.8428 83.6973C94.6149 83.5697 94.3346 83.5059 94.002 83.5059C93.651 83.5059 93.3662 83.5605 93.1475 83.6699C92.9333 83.7747 92.776 83.9092 92.6758 84.0732C92.5801 84.2373 92.5322 84.4105 92.5322 84.5928C92.5322 84.7295 92.555 84.8525 92.6006 84.9619C92.6507 85.0667 92.7373 85.1647 92.8604 85.2559C92.9834 85.3424 93.1566 85.4245 93.3799 85.502C93.6032 85.5794 93.888 85.6569 94.2344 85.7344C94.8405 85.8711 95.3395 86.0352 95.7314 86.2266C96.1234 86.418 96.415 86.6527 96.6064 86.9307C96.7979 87.2087 96.8936 87.5459 96.8936 87.9424C96.8936 88.266 96.8252 88.5622 96.6885 88.8311C96.5563 89.0999 96.3626 89.3324 96.1074 89.5283C95.8568 89.7197 95.556 89.8701 95.2051 89.9795C94.8587 90.0843 94.4691 90.1367 94.0361 90.1367C93.3844 90.1367 92.833 90.0205 92.3818 89.7881C91.9307 89.5557 91.5889 89.2549 91.3564 88.8857C91.124 88.5166 91.0078 88.127 91.0078 87.7168H92.2793C92.2975 88.0632 92.3978 88.3389 92.5801 88.5439C92.7624 88.7445 92.9857 88.888 93.25 88.9746C93.5143 89.0566 93.7764 89.0977 94.0361 89.0977C94.3825 89.0977 94.6719 89.0521 94.9043 88.9609C95.1413 88.8698 95.3213 88.7445 95.4443 88.585C95.5674 88.4255 95.6289 88.2432 95.6289 88.0381Z" fill="#0A2540"/>
<g filter="url(#filter1_d_4716_6838)">
<rect x="592" y="10" width="96" height="96" rx="8" fill="white"/>
</g>
<path d="M641.158 39.9514C641.455 40.0786 641.762 40.1658 642.072 40.2136L642.171 41.0313C642.527 41.0692 642.886 41.0647 643.242 41.0176C643.597 40.9701 643.946 40.8807 644.282 40.751L644.184 39.9329C644.476 39.8041 644.752 39.6386 645.006 39.4402L645.626 39.9452C646.183 39.4679 646.629 38.8643 646.931 38.1799L646.311 37.6744C646.43 37.3665 646.514 37.0444 646.56 36.7152L647.335 36.6123C647.406 35.8614 647.313 35.1035 647.063 34.3959L646.293 34.4981C646.171 34.1913 646.013 33.9012 645.824 33.6342L646.304 32.9846C646.078 32.6921 645.821 32.4278 645.538 32.1971C645.255 31.9676 644.948 31.772 644.623 31.6141L644.142 32.2654C643.849 32.1395 643.542 32.0514 643.229 32.0032L643.13 31.1856C642.774 31.1475 642.414 31.1521 642.059 31.1992C641.704 31.2468 641.355 31.3363 641.019 31.466L641.117 32.2837C640.825 32.4124 640.549 32.5779 640.294 32.7766L639.674 32.2714C639.117 32.7484 638.671 33.352 638.369 34.0367L638.99 34.5422C638.869 34.8536 638.786 35.1757 638.74 35.5015L637.965 35.6044C637.895 36.3554 637.988 37.1134 638.238 37.821L639.007 37.7186C639.13 38.0254 639.288 38.3155 639.477 38.5825L638.997 39.2317C639.223 39.5241 639.479 39.7883 639.762 40.0191C640.049 40.2526 640.356 40.4467 640.678 40.6029L641.158 39.9514ZM641.346 37.8745C640.909 37.5081 640.627 36.9758 640.561 36.3928C640.495 35.8098 640.649 35.2228 640.992 34.7588C641.335 34.2947 641.838 33.9909 642.392 33.9129C642.946 33.835 643.507 33.9891 643.954 34.3421C644.401 34.7053 644.691 35.2397 644.762 35.8277C644.833 36.4157 644.678 37.0092 644.332 37.4776C643.987 37.946 643.478 38.251 642.918 38.3254C642.357 38.3999 641.792 38.2377 641.346 37.8745ZM645.605 45.7148C645.741 45.7579 645.879 45.7854 646.015 45.8013L646.16 46.45C646.676 46.4701 647.187 46.3447 647.641 46.0869L647.495 45.4365C647.731 45.2781 647.936 45.0754 648.101 44.8385L648.71 45.0314C648.847 44.8034 648.955 44.5571 649.029 44.2991C649.105 44.0346 649.142 43.7676 649.149 43.5034L648.54 43.3105C648.527 43.0173 648.463 42.7291 648.351 42.4605L648.815 42.0029C648.572 41.5248 648.213 41.1235 647.773 40.8405L647.31 41.2968C647.188 41.2307 647.059 41.1738 646.923 41.1307C646.787 41.0875 646.65 41.0603 646.513 41.0444L646.368 40.3954C645.853 40.3756 645.342 40.501 644.888 40.7586L645.033 41.409C644.798 41.5674 644.593 41.7701 644.428 42.007L643.819 41.814C643.685 42.0381 643.575 42.2818 643.499 42.5463C643.423 42.8108 643.386 43.0782 643.38 43.342L643.988 43.5349C644.001 43.8281 644.065 44.1163 644.178 44.3849L643.714 44.8422C643.956 45.3205 644.316 45.7219 644.756 46.0047L645.218 45.5486C645.342 45.6164 645.472 45.672 645.605 45.7148ZM645.245 43.1002C645.327 42.8164 645.512 42.5783 645.761 42.4382C646.01 42.298 646.302 42.2674 646.572 42.353C646.842 42.4386 647.069 42.6334 647.202 42.8945C647.336 43.1557 647.365 43.4618 647.283 43.7456C647.243 43.8861 647.177 44.0169 647.088 44.1305C647 44.244 646.891 44.3382 646.768 44.4076C646.645 44.477 646.51 44.5202 646.37 44.5349C646.231 44.5495 646.091 44.5352 645.957 44.4928C645.823 44.4504 645.699 44.3808 645.59 44.2879C645.482 44.195 645.393 44.0806 645.327 43.9513C645.26 43.8219 645.219 43.6802 645.205 43.5342C645.191 43.3882 645.205 43.2407 645.245 43.1002Z" fill="#24BAF2"/>
<path d="M638.424 37.7261L638.478 37.9787L637.811 37.9289C637.336 37.8934 636.596 37.8588 635.827 37.8228C635.512 37.808 635.191 37.793 634.882 37.7777C634.355 37.7515 633.861 37.7241 633.492 37.6949C633.308 37.6805 633.146 37.6649 633.023 37.6477C632.963 37.6393 632.9 37.6288 632.844 37.6148C632.817 37.6081 632.778 37.5973 632.736 37.58C632.735 37.5798 632.735 37.5796 632.734 37.5793C632.72 37.5734 632.677 37.5558 632.626 37.5202C631.415 38.6061 630.209 40.3726 629.408 42.2794L629.408 42.2796C628.495 44.4486 628.29 46.3127 628.705 47.5615C628.85 47.9949 629.102 48.451 629.543 48.8038C629.978 49.153 630.638 49.4333 631.657 49.4517L631.657 49.4517C632.115 49.4603 633.737 49.4889 635.407 49.5011H635.414L638.424 37.7261ZM638.424 37.7261C639.559 38.8219 640.668 40.4888 641.421 42.2794L641.421 42.2795C642.333 44.4493 642.538 46.3127 642.123 47.5615L638.424 37.7261ZM639.171 49.4517L639.171 49.4517C640.19 49.4333 640.85 49.153 641.286 48.8038C641.726 48.4511 641.979 47.995 642.123 47.5616L639.171 49.4517ZM639.171 49.4517C638.227 49.4689 636.745 49.4911 635.415 49.5011L639.171 49.4517ZM637.875 34.6514H637.691H633.138H632.954L631.933 30.6547C631.983 30.6732 632.038 30.6994 632.098 30.7349C632.245 30.8216 632.392 30.9412 632.573 31.0904L632.578 31.0949C632.692 31.1898 632.838 31.3102 632.98 31.4061C633.054 31.4555 633.139 31.5069 633.23 31.5472C633.317 31.5856 633.44 31.6283 633.583 31.6283C633.725 31.6283 633.849 31.5858 633.936 31.5474C634.027 31.5071 634.112 31.4557 634.185 31.4062C634.328 31.3102 634.474 31.1898 634.588 31.0949L634.594 31.0904C634.594 31.0903 634.594 31.0902 634.594 31.0901C634.774 30.941 634.921 30.8215 635.068 30.7348C635.21 30.6513 635.319 30.6191 635.414 30.6191C635.51 30.6191 635.619 30.6514 635.761 30.7348C635.908 30.8214 636.054 30.9409 636.234 31.0898L637.875 34.6514ZM637.875 34.6514L638.895 30.6548C638.845 30.6732 638.791 30.6994 638.731 30.7348C638.584 30.8215 638.438 30.9409 638.257 31.0901C638.257 31.0902 638.257 31.0903 638.257 31.0904L638.251 31.0949C638.137 31.1898 637.991 31.3102 637.848 31.4062C637.775 31.4557 637.69 31.5071 637.599 31.5474C637.512 31.5858 637.388 31.6283 637.246 31.6283C637.103 31.6283 636.98 31.5858 636.893 31.5474C636.802 31.5071 636.717 31.4557 636.643 31.4062C636.5 31.3102 636.355 31.1898 636.24 31.0949L636.234 31.0901L637.875 34.6514Z" stroke="#2C007D"/>
<path fill-rule="evenodd" clip-rule="evenodd" d="M638.272 37.7254H632.556C631.7 37.7254 631.004 36.994 631.004 36.0961C631.004 35.1975 631.7 34.4668 632.556 34.4668H638.272C639.128 34.4668 639.824 35.1975 639.824 36.0961C639.824 36.994 639.128 37.7254 638.272 37.7254Z" fill="#2C007D"/>
<path d="M638.795 44.3146H637.799V43.3101H638.795C638.944 43.3101 639.066 43.183 639.066 43.0259C639.066 42.8688 638.944 42.7416 638.795 42.7416H637.799V41.3479C637.799 41.1444 637.761 40.9951 637.686 40.9041C637.614 40.8176 637.52 40.7773 637.389 40.7773C637.264 40.7773 637.174 40.8173 637.103 40.9033C637.029 40.9944 636.991 41.144 636.991 41.348V42.7417H635.118L634.322 41.4769C634.258 41.3699 634.193 41.2632 634.128 41.1567C634.072 41.0653 634.017 40.9909 633.965 40.9353C633.92 40.8861 633.868 40.8481 633.807 40.8188C633.749 40.7913 633.676 40.7774 633.59 40.7774C633.48 40.7774 633.38 40.8091 633.284 40.8743C633.189 40.9387 633.123 41.0184 633.083 41.1178C633.048 41.2123 633.03 41.3571 633.03 41.5441V42.7416H632.044C631.895 42.7417 631.773 42.8689 631.773 43.026C631.773 43.183 631.895 43.3102 632.044 43.3102H633.03V44.3148H632.044C631.895 44.3148 631.773 44.442 631.773 44.5991C631.773 44.7561 631.895 44.8832 632.044 44.8832H633.03V46.4745C633.03 46.6719 633.069 46.8197 633.147 46.9136C633.222 47.0032 633.316 47.0448 633.444 47.0448C633.568 47.0448 633.662 47.003 633.739 46.9133C633.819 46.8214 633.859 46.6736 633.859 46.4745V44.8832H635.553L636.47 46.3594C636.535 46.4576 636.6 46.5551 636.666 46.652C636.725 46.7387 636.789 46.8152 636.858 46.879C636.919 46.9367 636.985 46.979 637.053 47.0048C637.124 47.0315 637.206 47.045 637.297 47.045C637.545 47.045 637.799 46.9653 637.799 46.3742V44.8832H638.795C638.944 44.8832 639.066 44.7559 639.066 44.5989C639.066 44.4419 638.944 44.3146 638.795 44.3146ZM636.991 43.3101V44.3145H636.108L635.476 43.3101H636.991ZM633.859 42.156L634.223 42.7416H633.859V42.156ZM633.859 44.3146V43.3101H634.576L635.2 44.3146H633.859ZM636.991 45.7165L636.466 44.8832H636.991V45.7165Z" fill="#24BAF2"/>
<path d="M615.835 70.9287V72.002H610.858V70.9287H615.835ZM611.118 62.0488V72.002H609.799V62.0488H611.118ZM616.819 68.3857V68.2285C616.819 67.6953 616.897 67.2008 617.052 66.7451C617.207 66.2848 617.43 65.8861 617.722 65.5488C618.013 65.207 618.367 64.9427 618.781 64.7559C619.196 64.5645 619.661 64.4688 620.176 64.4688C620.695 64.4688 621.162 64.5645 621.577 64.7559C621.996 64.9427 622.352 65.207 622.644 65.5488C622.94 65.8861 623.165 66.2848 623.32 66.7451C623.475 67.2008 623.553 67.6953 623.553 68.2285V68.3857C623.553 68.9189 623.475 69.4134 623.32 69.8691C623.165 70.3249 622.94 70.7236 622.644 71.0654C622.352 71.4027 621.999 71.667 621.584 71.8584C621.174 72.0452 620.709 72.1387 620.189 72.1387C619.67 72.1387 619.203 72.0452 618.788 71.8584C618.373 71.667 618.018 71.4027 617.722 71.0654C617.43 70.7236 617.207 70.3249 617.052 69.8691C616.897 69.4134 616.819 68.9189 616.819 68.3857ZM618.084 68.2285V68.3857C618.084 68.7549 618.127 69.1035 618.214 69.4316C618.3 69.7552 618.43 70.0423 618.604 70.293C618.781 70.5436 619.002 70.7419 619.267 70.8877C619.531 71.029 619.839 71.0996 620.189 71.0996C620.536 71.0996 620.839 71.029 621.099 70.8877C621.363 70.7419 621.582 70.5436 621.755 70.293C621.928 70.0423 622.058 69.7552 622.145 69.4316C622.236 69.1035 622.281 68.7549 622.281 68.3857V68.2285C622.281 67.8639 622.236 67.5199 622.145 67.1963C622.058 66.8682 621.926 66.5788 621.748 66.3281C621.575 66.0729 621.356 65.8724 621.092 65.7266C620.832 65.5807 620.527 65.5078 620.176 65.5078C619.829 65.5078 619.524 65.5807 619.26 65.7266C619 65.8724 618.781 66.0729 618.604 66.3281C618.43 66.5788 618.3 66.8682 618.214 67.1963C618.127 67.5199 618.084 67.8639 618.084 68.2285ZM629.5 70.7373V66.9297C629.5 66.638 629.441 66.3851 629.322 66.1709C629.208 65.9521 629.035 65.7835 628.803 65.665C628.57 65.5465 628.283 65.4873 627.941 65.4873C627.622 65.4873 627.342 65.542 627.101 65.6514C626.864 65.7607 626.677 65.9043 626.54 66.082C626.408 66.2598 626.342 66.4512 626.342 66.6562H625.077C625.077 66.3919 625.146 66.1299 625.282 65.8701C625.419 65.6104 625.615 65.3757 625.87 65.166C626.13 64.9518 626.44 64.7832 626.8 64.6602C627.164 64.5326 627.57 64.4688 628.017 64.4688C628.554 64.4688 629.028 64.5599 629.438 64.7422C629.853 64.9245 630.177 65.2002 630.409 65.5693C630.646 65.9339 630.765 66.3919 630.765 66.9434V70.3887C630.765 70.6348 630.785 70.8968 630.826 71.1748C630.872 71.4528 630.938 71.6921 631.024 71.8926V72.002H629.705C629.641 71.8561 629.591 71.6624 629.555 71.4209C629.518 71.1748 629.5 70.9469 629.5 70.7373ZM629.719 67.5176L629.732 68.4062H628.454C628.094 68.4062 627.773 68.4359 627.49 68.4951C627.208 68.5498 626.971 68.6341 626.779 68.748C626.588 68.862 626.442 69.0055 626.342 69.1787C626.242 69.3473 626.191 69.5456 626.191 69.7734C626.191 70.0059 626.244 70.2178 626.349 70.4092C626.453 70.6006 626.611 70.7533 626.82 70.8672C627.035 70.9766 627.297 71.0312 627.606 71.0312C627.994 71.0312 628.336 70.9492 628.632 70.7852C628.928 70.6211 629.163 70.4206 629.336 70.1836C629.514 69.9466 629.609 69.7165 629.623 69.4932L630.163 70.1016C630.131 70.293 630.045 70.5049 629.903 70.7373C629.762 70.9697 629.573 71.193 629.336 71.4072C629.104 71.6169 628.826 71.7923 628.502 71.9336C628.183 72.0703 627.823 72.1387 627.422 72.1387C626.921 72.1387 626.481 72.0407 626.103 71.8447C625.729 71.6488 625.437 71.3867 625.228 71.0586C625.022 70.7259 624.92 70.3545 624.92 69.9443C624.92 69.5479 624.997 69.1992 625.152 68.8984C625.307 68.5931 625.531 68.3402 625.822 68.1396C626.114 67.9346 626.465 67.7796 626.875 67.6748C627.285 67.57 627.743 67.5176 628.249 67.5176H629.719ZM634.019 66.1846V72.002H632.754V64.6055H633.95L634.019 66.1846ZM633.718 68.0234L633.191 68.0029C633.196 67.4971 633.271 67.0299 633.417 66.6016C633.563 66.1686 633.768 65.7926 634.032 65.4736C634.297 65.1546 634.611 64.9085 634.976 64.7354C635.345 64.5576 635.753 64.4688 636.199 64.4688C636.564 64.4688 636.892 64.5189 637.184 64.6191C637.475 64.7148 637.724 64.8698 637.929 65.084C638.138 65.2982 638.298 65.5762 638.407 65.918C638.517 66.2552 638.571 66.6676 638.571 67.1553V72.002H637.3V67.1416C637.3 66.7542 637.243 66.4443 637.129 66.2119C637.015 65.9749 636.849 65.804 636.63 65.6992C636.411 65.5898 636.142 65.5352 635.823 65.5352C635.509 65.5352 635.222 65.6012 634.962 65.7334C634.707 65.8656 634.486 66.0479 634.299 66.2803C634.117 66.5127 633.973 66.7793 633.868 67.0801C633.768 67.3763 633.718 67.6908 633.718 68.0234ZM644.573 62.0488H645.852L649.112 70.1631L652.366 62.0488H653.651L649.604 72.002H648.606L644.573 62.0488ZM644.156 62.0488H645.284L645.469 68.1191V72.002H644.156V62.0488ZM652.934 62.0488H654.062V72.002H652.749V68.1191L652.934 62.0488ZM660.979 64.6055H662.128V71.8447C662.128 72.4964 661.996 73.0524 661.731 73.5127C661.467 73.973 661.098 74.3216 660.624 74.5586C660.155 74.8001 659.612 74.9209 658.997 74.9209C658.742 74.9209 658.441 74.8799 658.095 74.7979C657.753 74.7204 657.416 74.5859 657.083 74.3945C656.755 74.2077 656.479 73.9548 656.256 73.6357L656.919 72.8838C657.229 73.2575 657.552 73.5173 657.89 73.6631C658.231 73.8089 658.569 73.8818 658.901 73.8818C659.302 73.8818 659.649 73.8066 659.94 73.6562C660.232 73.5059 660.458 73.2826 660.617 72.9863C660.781 72.6947 660.863 72.3346 660.863 71.9062V66.2324L660.979 64.6055ZM655.887 68.3857V68.2422C655.887 67.6771 655.953 67.1644 656.085 66.7041C656.222 66.2393 656.415 65.8405 656.666 65.5078C656.921 65.1751 657.229 64.9199 657.589 64.7422C657.949 64.5599 658.354 64.4688 658.806 64.4688C659.271 64.4688 659.676 64.5508 660.022 64.7148C660.373 64.8743 660.67 65.109 660.911 65.4189C661.157 65.7243 661.351 66.0934 661.492 66.5264C661.633 66.9593 661.731 67.4492 661.786 67.9961V68.625C661.736 69.1673 661.638 69.6549 661.492 70.0879C661.351 70.5208 661.157 70.89 660.911 71.1953C660.67 71.5007 660.373 71.7354 660.022 71.8994C659.672 72.0589 659.261 72.1387 658.792 72.1387C658.35 72.1387 657.949 72.0452 657.589 71.8584C657.233 71.6715 656.928 71.4095 656.673 71.0723C656.418 70.735 656.222 70.3385 656.085 69.8828C655.953 69.4225 655.887 68.9235 655.887 68.3857ZM657.151 68.2422V68.3857C657.151 68.7549 657.188 69.1012 657.261 69.4248C657.338 69.7484 657.454 70.0332 657.609 70.2793C657.769 70.5254 657.972 70.7191 658.218 70.8604C658.464 70.9971 658.758 71.0654 659.1 71.0654C659.519 71.0654 659.865 70.9766 660.139 70.7988C660.412 70.6211 660.629 70.3864 660.788 70.0947C660.952 69.8031 661.08 69.4863 661.171 69.1445V67.4971C661.121 67.2464 661.043 67.0049 660.938 66.7725C660.838 66.5355 660.706 66.3258 660.542 66.1436C660.382 65.9567 660.184 65.8086 659.947 65.6992C659.71 65.5898 659.432 65.5352 659.113 65.5352C658.767 65.5352 658.468 65.6081 658.218 65.7539C657.972 65.8952 657.769 66.0911 657.609 66.3418C657.454 66.5879 657.338 66.875 657.261 67.2031C657.188 67.5267 657.151 67.873 657.151 68.2422ZM667.146 64.6055V65.5762H663.146V64.6055H667.146ZM664.5 62.8076H665.765V70.1699C665.765 70.4206 665.803 70.6097 665.881 70.7373C665.958 70.8649 666.059 70.9492 666.182 70.9902C666.305 71.0312 666.437 71.0518 666.578 71.0518C666.683 71.0518 666.792 71.0426 666.906 71.0244C667.025 71.0016 667.114 70.9834 667.173 70.9697L667.18 72.002C667.079 72.0339 666.947 72.0635 666.783 72.0908C666.624 72.1227 666.43 72.1387 666.202 72.1387C665.892 72.1387 665.607 72.0771 665.348 71.9541C665.088 71.8311 664.881 71.626 664.726 71.3389C664.575 71.0472 664.5 70.6553 664.5 70.1631V62.8076ZM668.649 71.332C668.649 71.1178 668.715 70.9378 668.848 70.792C668.984 70.6416 669.18 70.5664 669.436 70.5664C669.691 70.5664 669.884 70.6416 670.017 70.792C670.153 70.9378 670.222 71.1178 670.222 71.332C670.222 71.5417 670.153 71.7194 670.017 71.8652C669.884 72.0111 669.691 72.084 669.436 72.084C669.18 72.084 668.984 72.0111 668.848 71.8652C668.715 71.7194 668.649 71.5417 668.649 71.332ZM623.231 87.4863C623.231 87.2539 623.195 87.0488 623.122 86.8711C623.054 86.6888 622.931 86.5247 622.753 86.3789C622.58 86.2331 622.338 86.0941 622.028 85.9619C621.723 85.8298 621.336 85.6953 620.866 85.5586C620.374 85.4128 619.93 85.251 619.533 85.0732C619.137 84.891 618.797 84.6836 618.515 84.4512C618.232 84.2188 618.016 83.9521 617.865 83.6514C617.715 83.3506 617.64 83.0065 617.64 82.6191C617.64 82.2318 617.719 81.874 617.879 81.5459C618.038 81.2178 618.266 80.9329 618.562 80.6914C618.863 80.4453 619.221 80.2539 619.636 80.1172C620.05 79.9805 620.513 79.9121 621.023 79.9121C621.771 79.9121 622.404 80.0557 622.924 80.3428C623.448 80.6253 623.847 80.9967 624.12 81.457C624.394 81.9128 624.53 82.4004 624.53 82.9199H623.218C623.218 82.5462 623.138 82.2158 622.979 81.9287C622.819 81.637 622.577 81.4092 622.254 81.2451C621.93 81.0765 621.52 80.9922 621.023 80.9922C620.554 80.9922 620.167 81.0628 619.861 81.2041C619.556 81.3454 619.328 81.5368 619.178 81.7783C619.032 82.0199 618.959 82.2956 618.959 82.6055C618.959 82.8151 619.002 83.0065 619.089 83.1797C619.18 83.3483 619.319 83.5055 619.506 83.6514C619.697 83.7972 619.939 83.9316 620.23 84.0547C620.527 84.1777 620.88 84.2962 621.29 84.4102C621.855 84.5697 622.343 84.7474 622.753 84.9434C623.163 85.1393 623.5 85.3604 623.765 85.6064C624.034 85.848 624.232 86.1237 624.359 86.4336C624.492 86.7389 624.558 87.0853 624.558 87.4727C624.558 87.8783 624.476 88.2451 624.312 88.5732C624.147 88.9014 623.913 89.1816 623.607 89.4141C623.302 89.6465 622.935 89.8265 622.507 89.9541C622.083 90.0771 621.609 90.1387 621.085 90.1387C620.625 90.1387 620.171 90.0749 619.725 89.9473C619.283 89.8197 618.879 89.6283 618.515 89.373C618.155 89.1178 617.865 88.8034 617.646 88.4297C617.432 88.0514 617.325 87.6139 617.325 87.1172H618.638C618.638 87.459 618.704 87.7529 618.836 87.999C618.968 88.2406 619.148 88.4411 619.376 88.6006C619.608 88.7601 619.87 88.8786 620.162 88.9561C620.458 89.029 620.766 89.0654 621.085 89.0654C621.545 89.0654 621.935 89.0016 622.254 88.874C622.573 88.7464 622.814 88.5641 622.979 88.3271C623.147 88.0902 623.231 87.8099 623.231 87.4863ZM628.126 89.2363L630.184 82.6055H631.537L628.57 91.1436C628.502 91.3258 628.411 91.5218 628.297 91.7314C628.188 91.9456 628.046 92.1484 627.873 92.3398C627.7 92.5312 627.49 92.6862 627.244 92.8047C627.003 92.9277 626.713 92.9893 626.376 92.9893C626.276 92.9893 626.148 92.9756 625.993 92.9482C625.838 92.9209 625.729 92.8981 625.665 92.8799L625.658 91.8545C625.695 91.859 625.752 91.8636 625.829 91.8682C625.911 91.8773 625.968 91.8818 626 91.8818C626.287 91.8818 626.531 91.8431 626.731 91.7656C626.932 91.6927 627.101 91.5674 627.237 91.3896C627.379 91.2165 627.499 90.9772 627.6 90.6719L628.126 89.2363ZM626.615 82.6055L628.536 88.3477L628.864 89.6807L627.955 90.1455L625.234 82.6055H626.615ZM636.985 88.04C636.985 87.8577 636.944 87.6891 636.862 87.5342C636.785 87.3747 636.623 87.2311 636.377 87.1035C636.135 86.9714 635.771 86.8574 635.283 86.7617C634.873 86.6751 634.502 86.5726 634.169 86.4541C633.841 86.3356 633.561 86.1921 633.328 86.0234C633.1 85.8548 632.925 85.6566 632.802 85.4287C632.679 85.2008 632.617 84.9342 632.617 84.6289C632.617 84.3372 632.681 84.0615 632.809 83.8018C632.941 83.542 633.125 83.3118 633.362 83.1113C633.604 82.9108 633.893 82.7536 634.23 82.6396C634.568 82.5257 634.944 82.4688 635.358 82.4688C635.951 82.4688 636.457 82.5736 636.876 82.7832C637.295 82.9928 637.617 83.2731 637.84 83.624C638.063 83.9704 638.175 84.3555 638.175 84.7793H636.91C636.91 84.5742 636.849 84.376 636.726 84.1846C636.607 83.9886 636.432 83.8268 636.199 83.6992C635.971 83.5716 635.691 83.5078 635.358 83.5078C635.007 83.5078 634.723 83.5625 634.504 83.6719C634.29 83.7767 634.132 83.9111 634.032 84.0752C633.937 84.2393 633.889 84.4124 633.889 84.5947C633.889 84.7314 633.911 84.8545 633.957 84.9639C634.007 85.0687 634.094 85.1667 634.217 85.2578C634.34 85.3444 634.513 85.4264 634.736 85.5039C634.96 85.5814 635.244 85.6589 635.591 85.7363C636.197 85.873 636.696 86.0371 637.088 86.2285C637.48 86.4199 637.771 86.6546 637.963 86.9326C638.154 87.2106 638.25 87.5479 638.25 87.9443C638.25 88.2679 638.182 88.5641 638.045 88.833C637.913 89.1019 637.719 89.3343 637.464 89.5303C637.213 89.7217 636.912 89.8721 636.562 89.9814C636.215 90.0863 635.826 90.1387 635.393 90.1387C634.741 90.1387 634.189 90.0225 633.738 89.79C633.287 89.5576 632.945 89.2568 632.713 88.8877C632.48 88.5186 632.364 88.1289 632.364 87.7188H633.636C633.654 88.0651 633.754 88.3408 633.937 88.5459C634.119 88.7464 634.342 88.89 634.606 88.9766C634.871 89.0586 635.133 89.0996 635.393 89.0996C635.739 89.0996 636.028 89.054 636.261 88.9629C636.498 88.8717 636.678 88.7464 636.801 88.5869C636.924 88.4274 636.985 88.2451 636.985 88.04ZM643.008 82.6055V83.5762H639.009V82.6055H643.008ZM640.362 80.8076H641.627V88.1699C641.627 88.4206 641.666 88.6097 641.743 88.7373C641.821 88.8649 641.921 88.9492 642.044 88.9902C642.167 89.0312 642.299 89.0518 642.44 89.0518C642.545 89.0518 642.655 89.0426 642.769 89.0244C642.887 89.0016 642.976 88.9834 643.035 88.9697L643.042 90.002C642.942 90.0339 642.81 90.0635 642.646 90.0908C642.486 90.1227 642.292 90.1387 642.064 90.1387C641.755 90.1387 641.47 90.0771 641.21 89.9541C640.95 89.8311 640.743 89.626 640.588 89.3389C640.438 89.0472 640.362 88.6553 640.362 88.1631V80.8076ZM647.561 90.1387C647.046 90.1387 646.578 90.0521 646.159 89.8789C645.744 89.7012 645.387 89.4528 645.086 89.1338C644.79 88.8148 644.562 88.4365 644.402 87.999C644.243 87.5615 644.163 87.083 644.163 86.5635V86.2764C644.163 85.6748 644.252 85.1393 644.43 84.6699C644.607 84.196 644.849 83.7949 645.154 83.4668C645.46 83.1387 645.806 82.8903 646.193 82.7217C646.581 82.5531 646.982 82.4688 647.396 82.4688C647.925 82.4688 648.381 82.5599 648.764 82.7422C649.151 82.9245 649.468 83.1797 649.714 83.5078C649.96 83.8314 650.142 84.2142 650.261 84.6562C650.379 85.0938 650.438 85.5723 650.438 86.0918V86.6592H644.915V85.627H649.174V85.5312C649.156 85.2031 649.087 84.8841 648.969 84.5742C648.855 84.2643 648.673 84.0091 648.422 83.8086C648.171 83.6081 647.829 83.5078 647.396 83.5078C647.109 83.5078 646.845 83.5693 646.604 83.6924C646.362 83.8109 646.155 83.9886 645.981 84.2256C645.808 84.4626 645.674 84.752 645.578 85.0938C645.482 85.4355 645.435 85.8298 645.435 86.2764V86.5635C645.435 86.9144 645.482 87.2448 645.578 87.5547C645.678 87.86 645.822 88.1289 646.009 88.3613C646.2 88.5938 646.43 88.776 646.699 88.9082C646.973 89.0404 647.283 89.1064 647.629 89.1064C648.076 89.1064 648.454 89.0153 648.764 88.833C649.074 88.6507 649.345 88.4069 649.577 88.1016L650.343 88.71C650.183 88.9515 649.98 89.1816 649.734 89.4004C649.488 89.6191 649.185 89.7969 648.825 89.9336C648.47 90.0703 648.048 90.1387 647.561 90.1387ZM653.173 84.0752V90.002H651.901V82.6055H653.104L653.173 84.0752ZM652.913 86.0234L652.325 86.0029C652.33 85.4971 652.396 85.0299 652.523 84.6016C652.651 84.1686 652.84 83.7926 653.091 83.4736C653.341 83.1546 653.654 82.9085 654.027 82.7354C654.401 82.5576 654.834 82.4688 655.326 82.4688C655.673 82.4688 655.992 82.5189 656.283 82.6191C656.575 82.7148 656.828 82.8675 657.042 83.0771C657.256 83.2868 657.423 83.5557 657.541 83.8838C657.66 84.2119 657.719 84.6084 657.719 85.0732V90.002H656.454V85.1348C656.454 84.7474 656.388 84.4375 656.256 84.2051C656.128 83.9727 655.946 83.804 655.709 83.6992C655.472 83.5898 655.194 83.5352 654.875 83.5352C654.501 83.5352 654.189 83.6012 653.938 83.7334C653.688 83.8656 653.487 84.0479 653.337 84.2803C653.187 84.5127 653.077 84.7793 653.009 85.0801C652.945 85.3763 652.913 85.6908 652.913 86.0234ZM657.705 85.3262L656.857 85.5859C656.862 85.1803 656.928 84.7907 657.056 84.417C657.188 84.0433 657.377 83.7106 657.623 83.4189C657.874 83.1273 658.181 82.8971 658.546 82.7285C658.91 82.5553 659.327 82.4688 659.797 82.4688C660.193 82.4688 660.544 82.5212 660.85 82.626C661.16 82.7308 661.419 82.8926 661.629 83.1113C661.843 83.3255 662.005 83.6012 662.114 83.9385C662.224 84.2757 662.278 84.6768 662.278 85.1416V90.002H661.007V85.1279C661.007 84.7132 660.941 84.3919 660.809 84.1641C660.681 83.9316 660.499 83.7699 660.262 83.6787C660.029 83.583 659.751 83.5352 659.428 83.5352C659.15 83.5352 658.904 83.583 658.689 83.6787C658.475 83.7744 658.295 83.9066 658.149 84.0752C658.004 84.2393 657.892 84.4284 657.814 84.6426C657.742 84.8568 657.705 85.0846 657.705 85.3262Z" fill="#0A2540"/>
<g filter="url(#filter2_d_4716_6838)">
<rect x="386" y="154" width="96" height="96" rx="8" fill="white"/>
</g>
<path d="M437.146 177.926L436.565 177.885C436.227 177.861 435.7 177.837 435.15 177.813C434.923 177.803 434.693 177.793 434.47 177.782C434.093 177.764 433.738 177.745 433.471 177.725C433.339 177.715 433.22 177.705 433.128 177.692C433.084 177.686 433.034 177.679 432.988 177.668C432.966 177.662 432.931 177.653 432.893 177.638C432.892 177.638 432.892 177.638 432.891 177.638C432.888 177.637 432.884 177.635 432.878 177.633C432.054 178.36 431.233 179.516 430.683 180.764L430.682 180.764C430.036 182.228 429.908 183.45 430.184 184.241L437.146 177.926ZM437.146 177.926C437.863 178.652 438.551 179.672 439.032 180.764L439.032 180.764C439.679 182.229 439.807 183.45 439.53 184.241C439.435 184.513 439.271 184.795 438.984 185.014C438.699 185.231 438.255 185.417 437.546 185.429L437.546 185.429C436.871 185.44 435.81 185.456 434.858 185.462L437.146 177.926ZM432.168 185.429L432.169 185.429C432.496 185.435 433.657 185.454 434.853 185.462H434.857L432.168 185.429ZM432.168 185.429C431.459 185.417 431.015 185.231 430.731 185.014C430.444 184.795 430.279 184.513 430.184 184.241L429.712 184.406C429.95 185.085 430.567 185.901 432.16 185.929L432.168 185.429ZM433.201 175.332H433.227H436.488H436.515L437.117 173.081C437.075 173.113 437.028 173.149 436.975 173.191C436.975 173.191 436.974 173.191 436.974 173.191L436.969 173.195C436.888 173.259 436.779 173.345 436.671 173.414C436.584 173.47 436.393 173.587 436.169 173.587C435.945 173.587 435.755 173.47 435.668 173.414C435.559 173.345 435.451 173.259 435.37 173.195L435.364 173.191L433.201 175.332ZM433.201 175.332L432.597 173.081C432.64 173.113 432.688 173.149 432.741 173.191L432.746 173.195C432.827 173.259 432.936 173.345 433.044 173.414C433.131 173.47 433.322 173.587 433.546 173.587C433.769 173.587 433.96 173.47 434.047 173.414C434.155 173.345 434.264 173.259 434.345 173.195L434.351 173.191C434.351 173.191 434.351 173.191 434.351 173.191C434.636 172.967 434.754 172.898 434.857 172.898C434.961 172.898 435.079 172.967 435.363 173.191L433.201 175.332Z" stroke="#20336B"/>
<path fill-rule="evenodd" clip-rule="evenodd" d="M436.905 177.588H432.811C432.198 177.588 431.699 177.089 431.699 176.477C431.699 175.864 432.198 175.365 432.811 175.365H436.905C437.519 175.365 438.017 175.864 438.017 176.477C438.017 177.089 437.518 177.588 436.905 177.588Z" fill="#20336B"/>
<path d="M437.275 182.083H436.562V181.398H437.275C437.382 181.398 437.469 181.311 437.469 181.204C437.469 181.097 437.382 181.01 437.275 181.01H436.562V180.059C436.562 179.92 436.535 179.818 436.481 179.756C436.429 179.697 436.362 179.67 436.268 179.67C436.179 179.67 436.114 179.697 436.064 179.756C436.01 179.818 435.983 179.92 435.983 180.059V181.01H434.642L434.072 180.147C434.025 180.074 433.979 180.001 433.932 179.929C433.892 179.866 433.853 179.816 433.816 179.778C433.783 179.744 433.746 179.718 433.703 179.698C433.661 179.679 433.609 179.67 433.547 179.67C433.468 179.67 433.397 179.692 433.328 179.736C433.26 179.78 433.213 179.834 433.184 179.902C433.159 179.967 433.146 180.065 433.146 180.193V181.01H432.44C432.333 181.01 432.246 181.097 432.246 181.204C432.246 181.311 432.333 181.398 432.44 181.398H433.146V182.083H432.44C432.333 182.083 432.246 182.17 432.246 182.277C432.246 182.384 432.333 182.471 432.44 182.471H433.146V183.557C433.146 183.691 433.174 183.792 433.23 183.856C433.284 183.917 433.351 183.946 433.443 183.946C433.532 183.946 433.599 183.917 433.654 183.856C433.711 183.793 433.74 183.693 433.74 183.557V182.471H434.954L435.61 183.478C435.656 183.545 435.703 183.612 435.75 183.678C435.793 183.737 435.839 183.789 435.888 183.833C435.932 183.872 435.979 183.901 436.028 183.918C436.078 183.937 436.137 183.946 436.203 183.946C436.38 183.946 436.562 183.891 436.562 183.488V182.471H437.275C437.382 182.471 437.469 182.384 437.469 182.277C437.469 182.17 437.382 182.083 437.275 182.083ZM435.983 181.398V182.083H435.351L434.898 181.398H435.983ZM433.74 180.61L434.001 181.01H433.74V180.61ZM433.74 182.083V181.398H434.254L434.701 182.083H433.74ZM435.983 183.04L435.608 182.471H435.983V183.04Z" fill="#099ED6"/>
<path d="M421.404 183.117L423.066 180.446L425.135 182.636" stroke="#20336B" stroke-linecap="round" stroke-linejoin="round"/>
<path d="M423.056 181.347C423.918 186.811 428.594 190.858 434.126 190.928C439.658 190.998 444.434 187.07 445.434 181.629" stroke="#20336B" stroke-linecap="round" stroke-linejoin="round"/>
<path d="M446.596 175.32L444.934 177.992L442.865 175.802" stroke="#20336B" stroke-linecap="round" stroke-linejoin="round"/>
<path d="M444.944 177.091C444.082 171.626 439.406 167.579 433.874 167.509C428.342 167.44 423.566 171.367 422.566 176.808" stroke="#20336B" stroke-linecap="round" stroke-linejoin="round"/>
<path d="M425.749 215.364V216.438H420.772V215.364H425.749ZM421.032 206.484V216.438H419.713V206.484H421.032ZM426.733 212.821V212.664C426.733 212.131 426.811 211.636 426.966 211.181C427.121 210.72 427.344 210.322 427.636 209.984C427.927 209.643 428.281 209.378 428.695 209.191C429.11 209 429.575 208.904 430.09 208.904C430.609 208.904 431.076 209 431.491 209.191C431.91 209.378 432.266 209.643 432.558 209.984C432.854 210.322 433.079 210.72 433.234 211.181C433.389 211.636 433.467 212.131 433.467 212.664V212.821C433.467 213.354 433.389 213.849 433.234 214.305C433.079 214.76 432.854 215.159 432.558 215.501C432.266 215.838 431.913 216.103 431.498 216.294C431.088 216.481 430.623 216.574 430.104 216.574C429.584 216.574 429.117 216.481 428.702 216.294C428.287 216.103 427.932 215.838 427.636 215.501C427.344 215.159 427.121 214.76 426.966 214.305C426.811 213.849 426.733 213.354 426.733 212.821ZM427.998 212.664V212.821C427.998 213.19 428.041 213.539 428.128 213.867C428.215 214.191 428.344 214.478 428.518 214.729C428.695 214.979 428.916 215.177 429.181 215.323C429.445 215.465 429.753 215.535 430.104 215.535C430.45 215.535 430.753 215.465 431.013 215.323C431.277 215.177 431.496 214.979 431.669 214.729C431.842 214.478 431.972 214.191 432.059 213.867C432.15 213.539 432.195 213.19 432.195 212.821V212.664C432.195 212.299 432.15 211.955 432.059 211.632C431.972 211.304 431.84 211.014 431.662 210.764C431.489 210.508 431.27 210.308 431.006 210.162C430.746 210.016 430.441 209.943 430.09 209.943C429.743 209.943 429.438 210.016 429.174 210.162C428.914 210.308 428.695 210.508 428.518 210.764C428.344 211.014 428.215 211.304 428.128 211.632C428.041 211.955 427.998 212.299 427.998 212.664ZM439.414 215.173V211.365C439.414 211.074 439.355 210.821 439.236 210.606C439.122 210.388 438.949 210.219 438.717 210.101C438.484 209.982 438.197 209.923 437.855 209.923C437.536 209.923 437.256 209.978 437.015 210.087C436.778 210.196 436.591 210.34 436.454 210.518C436.322 210.695 436.256 210.887 436.256 211.092H434.991C434.991 210.827 435.06 210.565 435.196 210.306C435.333 210.046 435.529 209.811 435.784 209.602C436.044 209.387 436.354 209.219 436.714 209.096C437.078 208.968 437.484 208.904 437.931 208.904C438.468 208.904 438.942 208.995 439.353 209.178C439.767 209.36 440.091 209.636 440.323 210.005C440.56 210.369 440.679 210.827 440.679 211.379V214.824C440.679 215.07 440.699 215.332 440.74 215.61C440.786 215.888 440.852 216.128 440.938 216.328V216.438H439.619C439.555 216.292 439.505 216.098 439.469 215.856C439.432 215.61 439.414 215.382 439.414 215.173ZM439.633 211.953L439.646 212.842H438.368C438.008 212.842 437.687 212.871 437.404 212.931C437.122 212.985 436.885 213.07 436.693 213.184C436.502 213.298 436.356 213.441 436.256 213.614C436.156 213.783 436.105 213.981 436.105 214.209C436.105 214.441 436.158 214.653 436.263 214.845C436.368 215.036 436.525 215.189 436.734 215.303C436.949 215.412 437.211 215.467 437.521 215.467C437.908 215.467 438.25 215.385 438.546 215.221C438.842 215.057 439.077 214.856 439.25 214.619C439.428 214.382 439.523 214.152 439.537 213.929L440.077 214.537C440.045 214.729 439.959 214.94 439.817 215.173C439.676 215.405 439.487 215.629 439.25 215.843C439.018 216.052 438.74 216.228 438.416 216.369C438.097 216.506 437.737 216.574 437.336 216.574C436.835 216.574 436.395 216.476 436.017 216.28C435.643 216.084 435.351 215.822 435.142 215.494C434.937 215.161 434.834 214.79 434.834 214.38C434.834 213.983 434.911 213.635 435.066 213.334C435.221 213.029 435.445 212.776 435.736 212.575C436.028 212.37 436.379 212.215 436.789 212.11C437.199 212.006 437.657 211.953 438.163 211.953H439.633ZM443.933 210.62V216.438H442.668V209.041H443.864L443.933 210.62ZM443.632 212.459L443.105 212.438C443.11 211.933 443.185 211.465 443.331 211.037C443.477 210.604 443.682 210.228 443.946 209.909C444.211 209.59 444.525 209.344 444.89 209.171C445.259 208.993 445.667 208.904 446.113 208.904C446.478 208.904 446.806 208.954 447.098 209.055C447.389 209.15 447.638 209.305 447.843 209.52C448.052 209.734 448.212 210.012 448.321 210.354C448.431 210.691 448.485 211.103 448.485 211.591V216.438H447.214V211.577C447.214 211.19 447.157 210.88 447.043 210.647C446.929 210.41 446.763 210.24 446.544 210.135C446.325 210.025 446.056 209.971 445.737 209.971C445.423 209.971 445.136 210.037 444.876 210.169C444.621 210.301 444.4 210.483 444.213 210.716C444.031 210.948 443.887 211.215 443.782 211.516C443.682 211.812 443.632 212.126 443.632 212.459ZM400.121 224.484H403.416C404.163 224.484 404.795 224.598 405.31 224.826C405.829 225.054 406.223 225.391 406.492 225.838C406.766 226.28 406.902 226.825 406.902 227.472C406.902 227.927 406.809 228.344 406.622 228.723C406.44 229.096 406.175 229.415 405.829 229.68C405.487 229.939 405.077 230.133 404.599 230.261L404.229 230.404H401.133L401.119 229.331H403.457C403.931 229.331 404.325 229.249 404.64 229.085C404.954 228.916 405.191 228.691 405.351 228.408C405.51 228.126 405.59 227.813 405.59 227.472C405.59 227.089 405.515 226.754 405.364 226.467C405.214 226.18 404.977 225.959 404.653 225.804C404.334 225.644 403.922 225.564 403.416 225.564H401.44V234.438H400.121V224.484ZM405.938 234.438L403.519 229.926L404.893 229.919L407.347 234.355V234.438H405.938ZM411.626 234.574C411.111 234.574 410.644 234.488 410.225 234.314C409.81 234.137 409.452 233.888 409.151 233.569C408.855 233.25 408.627 232.872 408.468 232.435C408.308 231.997 408.229 231.519 408.229 230.999V230.712C408.229 230.11 408.317 229.575 408.495 229.105C408.673 228.632 408.914 228.23 409.22 227.902C409.525 227.574 409.871 227.326 410.259 227.157C410.646 226.989 411.047 226.904 411.462 226.904C411.991 226.904 412.446 226.995 412.829 227.178C413.216 227.36 413.533 227.615 413.779 227.943C414.025 228.267 414.208 228.65 414.326 229.092C414.445 229.529 414.504 230.008 414.504 230.527V231.095H408.98V230.062H413.239V229.967C413.221 229.639 413.153 229.32 413.034 229.01C412.92 228.7 412.738 228.445 412.487 228.244C412.237 228.044 411.895 227.943 411.462 227.943C411.175 227.943 410.91 228.005 410.669 228.128C410.427 228.246 410.22 228.424 410.047 228.661C409.874 228.898 409.739 229.188 409.644 229.529C409.548 229.871 409.5 230.265 409.5 230.712V230.999C409.5 231.35 409.548 231.68 409.644 231.99C409.744 232.296 409.887 232.564 410.074 232.797C410.266 233.029 410.496 233.212 410.765 233.344C411.038 233.476 411.348 233.542 411.694 233.542C412.141 233.542 412.519 233.451 412.829 233.269C413.139 233.086 413.41 232.842 413.643 232.537L414.408 233.146C414.249 233.387 414.046 233.617 413.8 233.836C413.554 234.055 413.251 234.232 412.891 234.369C412.535 234.506 412.114 234.574 411.626 234.574ZM417.245 228.463V237.281H415.974V227.041H417.136L417.245 228.463ZM422.229 230.678V230.821C422.229 231.359 422.165 231.858 422.037 232.318C421.91 232.774 421.723 233.171 421.477 233.508C421.235 233.845 420.937 234.107 420.581 234.294C420.226 234.481 419.818 234.574 419.357 234.574C418.888 234.574 418.473 234.497 418.113 234.342C417.753 234.187 417.448 233.961 417.197 233.665C416.947 233.369 416.746 233.013 416.596 232.599C416.45 232.184 416.35 231.717 416.295 231.197V230.432C416.35 229.885 416.452 229.395 416.603 228.962C416.753 228.529 416.951 228.16 417.197 227.854C417.448 227.545 417.751 227.31 418.106 227.15C418.462 226.986 418.872 226.904 419.337 226.904C419.802 226.904 420.214 226.995 420.574 227.178C420.934 227.355 421.237 227.611 421.483 227.943C421.729 228.276 421.914 228.675 422.037 229.14C422.165 229.6 422.229 230.113 422.229 230.678ZM420.957 230.821V230.678C420.957 230.309 420.918 229.962 420.841 229.639C420.763 229.311 420.643 229.023 420.479 228.777C420.319 228.527 420.114 228.331 419.863 228.189C419.613 228.044 419.314 227.971 418.968 227.971C418.649 227.971 418.371 228.025 418.134 228.135C417.901 228.244 417.703 228.392 417.539 228.579C417.375 228.761 417.241 228.971 417.136 229.208C417.035 229.44 416.96 229.682 416.91 229.933V231.703C417.001 232.022 417.129 232.323 417.293 232.605C417.457 232.883 417.676 233.109 417.949 233.282C418.223 233.451 418.567 233.535 418.981 233.535C419.323 233.535 419.617 233.465 419.863 233.323C420.114 233.177 420.319 232.979 420.479 232.729C420.643 232.478 420.763 232.191 420.841 231.867C420.918 231.539 420.957 231.19 420.957 230.821ZM428.203 233.173V229.365C428.203 229.074 428.144 228.821 428.025 228.606C427.911 228.388 427.738 228.219 427.506 228.101C427.273 227.982 426.986 227.923 426.645 227.923C426.326 227.923 426.045 227.978 425.804 228.087C425.567 228.196 425.38 228.34 425.243 228.518C425.111 228.695 425.045 228.887 425.045 229.092H423.78C423.78 228.827 423.849 228.565 423.985 228.306C424.122 228.046 424.318 227.811 424.573 227.602C424.833 227.387 425.143 227.219 425.503 227.096C425.868 226.968 426.273 226.904 426.72 226.904C427.257 226.904 427.731 226.995 428.142 227.178C428.556 227.36 428.88 227.636 429.112 228.005C429.349 228.369 429.468 228.827 429.468 229.379V232.824C429.468 233.07 429.488 233.332 429.529 233.61C429.575 233.888 429.641 234.128 429.728 234.328V234.438H428.408C428.344 234.292 428.294 234.098 428.258 233.856C428.221 233.61 428.203 233.382 428.203 233.173ZM428.422 229.953L428.436 230.842H427.157C426.797 230.842 426.476 230.871 426.193 230.931C425.911 230.985 425.674 231.07 425.482 231.184C425.291 231.298 425.145 231.441 425.045 231.614C424.945 231.783 424.895 231.981 424.895 232.209C424.895 232.441 424.947 232.653 425.052 232.845C425.157 233.036 425.314 233.189 425.523 233.303C425.738 233.412 426 233.467 426.31 233.467C426.697 233.467 427.039 233.385 427.335 233.221C427.631 233.057 427.866 232.856 428.039 232.619C428.217 232.382 428.312 232.152 428.326 231.929L428.866 232.537C428.834 232.729 428.748 232.94 428.606 233.173C428.465 233.405 428.276 233.629 428.039 233.843C427.807 234.052 427.529 234.228 427.205 234.369C426.886 234.506 426.526 234.574 426.125 234.574C425.624 234.574 425.184 234.476 424.806 234.28C424.432 234.084 424.14 233.822 423.931 233.494C423.726 233.161 423.623 232.79 423.623 232.38C423.623 231.983 423.701 231.635 423.855 231.334C424.01 231.029 424.234 230.776 424.525 230.575C424.817 230.37 425.168 230.215 425.578 230.11C425.988 230.006 426.446 229.953 426.952 229.953H428.422ZM433.426 233.672L435.483 227.041H436.837L433.87 235.579C433.802 235.761 433.711 235.957 433.597 236.167C433.487 236.381 433.346 236.584 433.173 236.775C433 236.967 432.79 237.122 432.544 237.24C432.302 237.363 432.013 237.425 431.676 237.425C431.576 237.425 431.448 237.411 431.293 237.384C431.138 237.356 431.029 237.334 430.965 237.315L430.958 236.29C430.994 236.295 431.051 236.299 431.129 236.304C431.211 236.313 431.268 236.317 431.3 236.317C431.587 236.317 431.831 236.279 432.031 236.201C432.232 236.128 432.4 236.003 432.537 235.825C432.678 235.652 432.799 235.413 432.899 235.107L433.426 233.672ZM431.915 227.041L433.836 232.783L434.164 234.116L433.255 234.581L430.534 227.041H431.915ZM439.236 228.511V234.438H437.965V227.041H439.168L439.236 228.511ZM438.977 230.459L438.389 230.438C438.393 229.933 438.459 229.465 438.587 229.037C438.715 228.604 438.904 228.228 439.154 227.909C439.405 227.59 439.717 227.344 440.091 227.171C440.465 226.993 440.897 226.904 441.39 226.904C441.736 226.904 442.055 226.954 442.347 227.055C442.638 227.15 442.891 227.303 443.105 227.513C443.32 227.722 443.486 227.991 443.604 228.319C443.723 228.647 443.782 229.044 443.782 229.509V234.438H442.518V229.57C442.518 229.183 442.451 228.873 442.319 228.641C442.192 228.408 442.009 228.24 441.772 228.135C441.535 228.025 441.257 227.971 440.938 227.971C440.565 227.971 440.253 228.037 440.002 228.169C439.751 228.301 439.551 228.483 439.4 228.716C439.25 228.948 439.141 229.215 439.072 229.516C439.008 229.812 438.977 230.126 438.977 230.459ZM443.769 229.762L442.921 230.021C442.925 229.616 442.992 229.226 443.119 228.853C443.251 228.479 443.44 228.146 443.687 227.854C443.937 227.563 444.245 227.333 444.609 227.164C444.974 226.991 445.391 226.904 445.86 226.904C446.257 226.904 446.608 226.957 446.913 227.062C447.223 227.166 447.483 227.328 447.692 227.547C447.907 227.761 448.068 228.037 448.178 228.374C448.287 228.711 448.342 229.112 448.342 229.577V234.438H447.07V229.563C447.07 229.149 447.004 228.827 446.872 228.6C446.744 228.367 446.562 228.205 446.325 228.114C446.093 228.019 445.815 227.971 445.491 227.971C445.213 227.971 444.967 228.019 444.753 228.114C444.539 228.21 444.359 228.342 444.213 228.511C444.067 228.675 443.955 228.864 443.878 229.078C443.805 229.292 443.769 229.52 443.769 229.762ZM453.325 234.574C452.81 234.574 452.343 234.488 451.924 234.314C451.509 234.137 451.151 233.888 450.851 233.569C450.554 233.25 450.326 232.872 450.167 232.435C450.007 231.997 449.928 231.519 449.928 230.999V230.712C449.928 230.11 450.017 229.575 450.194 229.105C450.372 228.632 450.614 228.23 450.919 227.902C451.224 227.574 451.571 227.326 451.958 227.157C452.345 226.989 452.746 226.904 453.161 226.904C453.69 226.904 454.146 226.995 454.528 227.178C454.916 227.36 455.232 227.615 455.479 227.943C455.725 228.267 455.907 228.65 456.025 229.092C456.144 229.529 456.203 230.008 456.203 230.527V231.095H450.68V230.062H454.938V229.967C454.92 229.639 454.852 229.32 454.733 229.01C454.619 228.7 454.437 228.445 454.187 228.244C453.936 228.044 453.594 227.943 453.161 227.943C452.874 227.943 452.61 228.005 452.368 228.128C452.127 228.246 451.919 228.424 451.746 228.661C451.573 228.898 451.438 229.188 451.343 229.529C451.247 229.871 451.199 230.265 451.199 230.712V230.999C451.199 231.35 451.247 231.68 451.343 231.99C451.443 232.296 451.587 232.564 451.773 232.797C451.965 233.029 452.195 233.212 452.464 233.344C452.737 233.476 453.047 233.542 453.394 233.542C453.84 233.542 454.218 233.451 454.528 233.269C454.838 233.086 455.109 232.842 455.342 232.537L456.107 233.146C455.948 233.387 455.745 233.617 455.499 233.836C455.253 234.055 454.95 234.232 454.59 234.369C454.234 234.506 453.813 234.574 453.325 234.574ZM458.944 228.62V234.438H457.68V227.041H458.876L458.944 228.62ZM458.644 230.459L458.117 230.438C458.122 229.933 458.197 229.465 458.343 229.037C458.489 228.604 458.694 228.228 458.958 227.909C459.222 227.59 459.537 227.344 459.901 227.171C460.271 226.993 460.678 226.904 461.125 226.904C461.49 226.904 461.818 226.954 462.109 227.055C462.401 227.15 462.649 227.305 462.854 227.52C463.064 227.734 463.224 228.012 463.333 228.354C463.442 228.691 463.497 229.103 463.497 229.591V234.438H462.226V229.577C462.226 229.19 462.169 228.88 462.055 228.647C461.941 228.41 461.774 228.24 461.556 228.135C461.337 228.025 461.068 227.971 460.749 227.971C460.435 227.971 460.147 228.037 459.888 228.169C459.632 228.301 459.411 228.483 459.225 228.716C459.042 228.948 458.899 229.215 458.794 229.516C458.694 229.812 458.644 230.126 458.644 230.459ZM468.515 227.041V228.012H464.516V227.041H468.515ZM465.869 225.243H467.134V232.605C467.134 232.856 467.173 233.045 467.25 233.173C467.327 233.3 467.428 233.385 467.551 233.426C467.674 233.467 467.806 233.487 467.947 233.487C468.052 233.487 468.161 233.478 468.275 233.46C468.394 233.437 468.483 233.419 468.542 233.405L468.549 234.438C468.449 234.469 468.316 234.499 468.152 234.526C467.993 234.558 467.799 234.574 467.571 234.574C467.261 234.574 466.977 234.513 466.717 234.39C466.457 234.267 466.25 234.062 466.095 233.774C465.944 233.483 465.869 233.091 465.869 232.599V225.243Z" fill="#0A2540"/>
<g filter="url(#filter3_d_4716_6838)">
<rect x="386" y="10" width="96" height="96" rx="8" fill="white"/>
</g>
<path d="M445.977 43.3075L443.352 36.4488C443.319 36.3632 443.254 36.2938 443.171 36.2554C443.088 36.2169 442.993 36.2125 442.906 36.243L440.141 37.2297C440.096 37.2456 440.055 37.2703 440.021 37.3023C439.986 37.3343 439.958 37.3729 439.939 37.4159C439.919 37.4588 439.908 37.5053 439.907 37.5525C439.906 37.5996 439.914 37.6466 439.932 37.6905L440.172 38.2999L438.285 39.1961L435.187 38.6144C434.886 38.558 434.576 38.5644 434.277 38.6333C433.978 38.7022 433.696 38.832 433.449 39.0147L432.896 39.4253L432.529 39.1614C432.252 38.9633 431.934 38.8308 431.599 38.7739C431.263 38.7171 430.919 38.7374 430.593 38.8333L429.404 39.1872L427.847 38.2563L428.07 37.691C428.088 37.647 428.096 37.6001 428.095 37.5529C428.093 37.5058 428.083 37.4593 428.063 37.4163C428.044 37.3734 428.016 37.3347 427.981 37.3028C427.946 37.2708 427.906 37.2461 427.861 37.2302L425.094 36.243C425.007 36.2122 424.912 36.2165 424.829 36.255C424.745 36.2934 424.68 36.363 424.648 36.4488L422.023 43.3075C421.991 43.392 421.992 43.4857 422.027 43.5692C422.062 43.6527 422.128 43.7195 422.211 43.7556L424.836 44.8867C424.879 44.9054 424.926 44.9152 424.973 44.9156C425.02 44.9159 425.067 44.9068 425.11 44.8887C425.154 44.8707 425.193 44.844 425.226 44.8104C425.259 44.7768 425.285 44.737 425.302 44.6931L425.567 44.0242L427.743 45.2505C427.596 45.4634 427.529 45.7208 427.552 45.9783C427.575 46.2357 427.688 46.4769 427.87 46.66C427.973 46.7627 428.095 46.8441 428.229 46.8995C428.363 46.9549 428.507 46.9833 428.652 46.983H428.68C428.704 47.258 428.831 47.5139 429.035 47.7001C429.239 47.8863 429.505 47.9893 429.781 47.9889H429.81C429.832 48.2474 429.945 48.4896 430.129 48.6728C430.231 48.7755 430.353 48.8569 430.487 48.9123C430.622 48.9678 430.765 48.9961 430.91 48.9958H430.938C430.957 49.2053 431.035 49.4052 431.163 49.5719C431.291 49.7386 431.464 49.8653 431.662 49.9371C431.86 50.0088 432.074 50.0227 432.279 49.977C432.484 49.9313 432.672 49.828 432.821 49.6792L433.239 49.2621L433.804 49.6839C434.044 49.8624 434.339 49.9484 434.637 49.926C434.935 49.9036 435.215 49.7744 435.425 49.5621L435.465 49.5217C435.642 49.3406 435.76 49.1095 435.802 48.8594C436.014 48.9191 436.237 48.9215 436.45 48.8662C436.663 48.8109 436.857 48.7 437.013 48.5449L437.042 48.5158C437.239 48.3189 437.364 48.061 437.395 47.7841C437.608 47.8476 437.835 47.8521 438.05 47.7972C438.266 47.7423 438.462 47.6301 438.619 47.4724L438.639 47.4527C438.831 47.2621 438.954 47.0129 438.989 46.7444C439.179 46.7897 439.377 46.7894 439.567 46.7435C439.756 46.6976 439.932 46.6075 440.08 46.4805C440.228 46.3536 440.344 46.1933 440.419 46.0129C440.493 45.8325 440.523 45.6371 440.508 45.4427C440.502 45.3673 440.489 45.2926 440.469 45.2196L442.512 44.2192L442.7 44.6917C442.717 44.7356 442.743 44.7756 442.776 44.8093C442.809 44.8429 442.848 44.8696 442.892 44.8877C442.935 44.9058 442.982 44.9149 443.029 44.9145C443.076 44.9141 443.123 44.9041 443.166 44.8853L445.791 43.7542C445.873 43.7178 445.938 43.6511 445.973 43.568C446.008 43.4848 446.009 43.3916 445.977 43.3075ZM424.781 44.0978L422.801 43.2438L425.18 37.0211L425.764 37.2288L424.639 40.4266C424.608 40.5146 424.613 40.6114 424.653 40.6956C424.694 40.7798 424.766 40.8446 424.854 40.8756C424.942 40.9067 425.039 40.9016 425.123 40.8613C425.207 40.821 425.272 40.749 425.303 40.661L426.425 37.4664L427.28 37.7716L424.781 44.0978ZM428.938 46.1627C428.862 46.2355 428.76 46.2758 428.655 46.2748C428.55 46.2739 428.449 46.2318 428.375 46.1575C428.3 46.0833 428.257 45.9828 428.256 45.8776C428.255 45.7723 428.295 45.6708 428.367 45.5946L429.117 44.8446C429.173 44.7884 429.245 44.7501 429.323 44.7347C429.401 44.7192 429.482 44.7272 429.556 44.7577C429.629 44.7882 429.692 44.8398 429.737 44.906C429.781 44.9721 429.805 45.0499 429.805 45.1296C429.805 45.1824 429.795 45.2348 429.774 45.2837C429.754 45.3325 429.724 45.3769 429.687 45.4141L428.938 46.1627ZM430.129 47.1077C430.108 47.1283 430.089 47.1503 430.07 47.1724L430.067 47.1681C430.03 47.2069 429.985 47.2379 429.936 47.2593C429.887 47.2807 429.834 47.292 429.78 47.2927C429.727 47.2933 429.673 47.2832 429.624 47.263C429.574 47.2427 429.529 47.2128 429.491 47.1749C429.453 47.137 429.423 47.0919 429.403 47.0422C429.382 46.9925 429.372 46.9393 429.373 46.8857C429.374 46.832 429.385 46.779 429.406 46.7298C429.427 46.6806 429.458 46.6362 429.497 46.5991L430.185 45.9114C430.206 45.8908 430.226 45.8692 430.244 45.8472L430.248 45.8505C430.324 45.7778 430.425 45.7377 430.53 45.7388C430.636 45.74 430.736 45.7822 430.811 45.8566C430.885 45.931 430.927 46.0315 430.929 46.1367C430.93 46.242 430.89 46.3435 430.817 46.4196L430.129 47.1077ZM431.194 48.1727C431.117 48.2415 431.017 48.2783 430.914 48.2756C430.811 48.2729 430.713 48.2308 430.641 48.158C430.568 48.0853 430.525 47.9873 430.523 47.8844C430.52 47.7814 430.556 47.6813 430.625 47.6046L431.375 46.8546C431.411 46.8133 431.456 46.78 431.506 46.7566C431.555 46.7333 431.609 46.7203 431.664 46.7186C431.719 46.7169 431.774 46.7264 431.825 46.7467C431.876 46.7669 431.923 46.7974 431.961 46.8362C432 46.8751 432.031 46.9215 432.051 46.9726C432.071 47.0237 432.081 47.0784 432.079 47.1333C432.078 47.1883 432.065 47.2423 432.041 47.292C432.018 47.3418 431.985 47.3863 431.944 47.4227L431.194 48.1727ZM433.073 48.4286L432.323 49.1786C432.247 49.2513 432.145 49.2914 432.04 49.2903C431.935 49.2891 431.834 49.2469 431.76 49.1725C431.685 49.0981 431.643 48.9976 431.642 48.8924C431.641 48.7872 431.681 48.6856 431.753 48.6096L432.441 47.9219C432.462 47.9013 432.482 47.8797 432.5 47.8577L432.504 47.861C432.58 47.7882 432.681 47.7481 432.787 47.7493C432.892 47.7504 432.992 47.7927 433.067 47.8671C433.141 47.9415 433.184 48.042 433.185 48.1472C433.186 48.2524 433.146 48.3539 433.073 48.43L433.073 48.4286ZM439.652 45.9161C439.559 46.0106 439.433 46.0664 439.3 46.0724C439.168 46.0784 439.038 46.0341 438.936 45.9485L438.662 45.7202C438.643 45.6923 438.62 45.6674 438.593 45.6461L437.961 45.138C437.888 45.0832 437.797 45.0589 437.706 45.0702C437.616 45.0814 437.533 45.1274 437.476 45.1984C437.419 45.2693 437.391 45.3598 437.4 45.4505C437.408 45.5413 437.451 45.6254 437.52 45.685L438.065 46.1252C438.081 46.1461 438.098 46.1654 438.117 46.1828C438.171 46.2308 438.215 46.2894 438.246 46.355C438.277 46.4205 438.293 46.4917 438.296 46.564C438.298 46.6364 438.285 46.7084 438.259 46.7757C438.232 46.843 438.192 46.9041 438.14 46.9553L438.121 46.975C438.032 47.0643 437.914 47.119 437.789 47.1293C437.663 47.1396 437.538 47.1049 437.435 47.0313L436.892 46.6422L436.887 46.638L436.681 46.4913C436.605 46.437 436.511 46.4151 436.419 46.4303C436.327 46.4456 436.245 46.4968 436.191 46.5726C436.136 46.6484 436.115 46.7427 436.13 46.8347C436.145 46.9267 436.196 47.0089 436.272 47.0631L436.481 47.2127C436.543 47.2579 436.595 47.316 436.632 47.383C436.67 47.4501 436.692 47.5244 436.698 47.601C436.704 47.6775 436.693 47.7544 436.666 47.8264C436.64 47.8984 436.598 47.9638 436.543 48.018L436.514 48.0471C436.419 48.1426 436.29 48.1981 436.155 48.2024C436.02 48.2067 435.888 48.1593 435.787 48.07L435.201 47.5544C435.167 47.5195 435.127 47.4919 435.082 47.4734C435.037 47.4549 434.989 47.4459 434.941 47.4469C434.892 47.4479 434.844 47.459 434.8 47.4793C434.756 47.4997 434.717 47.5289 434.685 47.5652C434.653 47.6015 434.628 47.644 434.613 47.6902C434.598 47.7363 434.593 47.785 434.598 47.8333C434.603 47.8815 434.618 47.9282 434.641 47.9705C434.665 48.0128 434.697 48.0497 434.736 48.0789L434.935 48.2552C434.989 48.3029 435.033 48.3612 435.064 48.4265C435.095 48.4918 435.113 48.5628 435.115 48.635C435.118 48.7072 435.106 48.7792 435.079 48.8466C435.053 48.9139 435.014 48.9753 434.963 49.0267L434.923 49.0671C434.833 49.1585 434.712 49.2141 434.584 49.2238C434.456 49.2334 434.328 49.1964 434.225 49.1196L433.719 48.7417C433.826 48.5746 433.886 48.3818 433.893 48.1835C433.899 47.9852 433.853 47.7887 433.758 47.6147C433.662 47.4406 433.522 47.2954 433.351 47.1942C433.181 47.093 432.986 47.0397 432.787 47.0397H432.76C432.735 46.7648 432.608 46.509 432.405 46.3227C432.201 46.1365 431.935 46.0332 431.659 46.0333H431.63C431.605 45.7543 431.474 45.4955 431.264 45.3095C431.055 45.1236 430.782 45.0243 430.502 45.0321C430.48 44.7736 430.367 44.5314 430.183 44.3486C429.976 44.1415 429.694 44.0252 429.401 44.0252C429.108 44.0252 428.827 44.1415 428.619 44.3486L428.241 44.7264L425.827 43.3671L427.584 38.9214L429.175 39.8725C429.217 39.8976 429.263 39.9136 429.312 39.9197C429.36 39.9258 429.409 39.9217 429.456 39.9077L430.793 39.5097C431.016 39.4439 431.252 39.4298 431.481 39.4686C431.711 39.5073 431.929 39.5979 432.118 39.7333L432.303 39.8664L430.423 41.261C430.284 41.3645 430.171 41.499 430.092 41.654C430.014 41.809 429.973 41.98 429.972 42.1537C429.971 42.3274 430.011 42.4988 430.087 42.6545C430.164 42.8102 430.277 42.9458 430.415 43.0506C430.676 43.2467 430.99 43.3593 431.317 43.3736C431.643 43.3879 431.966 43.3032 432.243 43.1308L433.719 42.2022C433.89 42.5444 434.211 43.0094 434.768 43.2958C435.413 43.6277 436.198 43.6361 437.103 43.3211L439.587 45.1103C439.649 45.1554 439.701 45.2135 439.739 45.2806C439.777 45.3477 439.8 45.4221 439.806 45.4989C439.812 45.5756 439.802 45.6528 439.775 45.7251C439.749 45.7974 439.707 45.863 439.652 45.9175V45.9161ZM440.104 44.6149L437.362 42.6414C437.315 42.6073 437.259 42.5855 437.201 42.5781C437.143 42.5708 437.084 42.578 437.03 42.5992C436.247 42.903 435.597 42.9274 435.096 42.6738C434.433 42.3367 434.23 41.5999 434.228 41.5956C434.215 41.542 434.188 41.4924 434.152 41.4508C434.115 41.4091 434.07 41.3767 434.018 41.3562C433.967 41.3356 433.911 41.3275 433.856 41.3324C433.801 41.3374 433.748 41.3553 433.701 41.3847L431.869 42.5336C431.713 42.6309 431.53 42.6785 431.346 42.6701C431.162 42.6617 430.985 42.5978 430.838 42.4867C430.786 42.4479 430.745 42.3976 430.716 42.3399C430.688 42.2821 430.673 42.2185 430.673 42.154C430.674 42.0896 430.689 42.0261 430.718 41.9687C430.747 41.9112 430.789 41.8613 430.841 41.823L433.866 39.5777C434.035 39.4527 434.228 39.364 434.433 39.3169C434.637 39.2698 434.849 39.2654 435.056 39.3039L438.266 39.9067C438.339 39.9207 438.414 39.911 438.481 39.8791L440.429 38.9538L442.251 43.5644L440.104 44.6149ZM443.219 44.0964L440.718 37.7683L441.574 37.4631L442.696 40.6577C442.727 40.7457 442.792 40.8178 442.876 40.858C442.96 40.8983 443.057 40.9034 443.145 40.8724C443.233 40.8413 443.305 40.7765 443.345 40.6923C443.385 40.6081 443.391 40.5113 443.36 40.4233L442.235 37.2255L442.818 37.0178L445.198 43.2405L443.219 44.0964Z" fill="#2C007D"/>
<path d="M434 37.0156C435.089 37.0156 436.154 36.6926 437.06 36.0874C437.966 35.4822 438.672 34.622 439.089 33.6156C439.505 32.6091 439.615 31.5017 439.402 30.4333C439.189 29.3649 438.665 28.3835 437.895 27.6132C437.124 26.8429 436.143 26.3184 435.075 26.1058C434.006 25.8933 432.899 26.0024 431.892 26.4193C430.886 26.8361 430.026 27.5421 429.42 28.4478C428.815 29.3536 428.492 30.4185 428.492 31.5078C428.494 32.9681 429.075 34.3681 430.107 35.4006C431.14 36.4332 432.54 37.014 434 37.0156ZM434 26.7031C434.95 26.7031 435.879 26.9849 436.669 27.5129C437.459 28.0408 438.075 28.7912 438.439 29.6691C438.803 30.5471 438.898 31.5131 438.712 32.4452C438.527 33.3772 438.069 34.2333 437.397 34.9052C436.725 35.5772 435.869 36.0348 434.937 36.2202C434.005 36.4056 433.039 36.3104 432.161 35.9468C431.283 35.5831 430.533 34.9673 430.005 34.1772C429.477 33.387 429.195 32.4581 429.195 31.5078C429.197 30.234 429.703 29.0127 430.604 28.1119C431.505 27.2111 432.726 26.7045 434 26.7031Z" fill="#2C007D"/>
<path d="M434 35.6094C434.811 35.6094 435.604 35.3688 436.279 34.9181C436.953 34.4675 437.479 33.8269 437.789 33.0774C438.1 32.328 438.181 31.5033 438.023 30.7076C437.864 29.912 437.474 29.1812 436.9 28.6076C436.327 28.034 435.596 27.6433 434.8 27.4851C434.005 27.3268 433.18 27.408 432.43 27.7185C431.681 28.0289 431.04 28.5546 430.59 29.2291C430.139 29.9036 429.898 30.6966 429.898 31.5078C429.9 32.5952 430.332 33.6378 431.101 34.4067C431.87 35.1756 432.913 35.6081 434 35.6094ZM434 28.1094C434.672 28.1094 435.329 28.3087 435.888 28.6821C436.447 29.0555 436.883 29.5863 437.14 30.2073C437.397 30.8283 437.464 31.5116 437.333 32.1708C437.202 32.83 436.878 33.4356 436.403 33.9109C435.928 34.3862 435.322 34.7098 434.663 34.841C434.004 34.9721 433.32 34.9048 432.699 34.6476C432.078 34.3903 431.548 33.9548 431.174 33.3959C430.801 32.837 430.602 32.18 430.602 31.5078C430.603 30.6068 430.961 29.743 431.598 29.1059C432.235 28.4687 433.099 28.1104 434 28.1094ZM441.075 31.5078C441.075 31.554 441.084 31.5997 441.102 31.6424C441.12 31.685 441.146 31.7238 441.178 31.7564C441.211 31.7891 441.25 31.8149 441.292 31.8326C441.335 31.8503 441.381 31.8594 441.427 31.8594H443.375C443.468 31.8594 443.558 31.8223 443.624 31.7564C443.69 31.6905 443.727 31.6011 443.727 31.5078C443.727 31.4146 443.69 31.3252 443.624 31.2592C443.558 31.1933 443.468 31.1563 443.375 31.1563H441.427C441.334 31.1563 441.244 31.1933 441.178 31.2592C441.112 31.3252 441.075 31.4146 441.075 31.5078ZM440.697 29.9052C440.759 29.9056 440.821 29.8895 440.875 29.8583L442.335 29C442.416 28.9528 442.475 28.8755 442.499 28.785C442.522 28.6945 442.509 28.5982 442.462 28.5174C442.415 28.4366 442.338 28.3779 442.247 28.3541C442.157 28.3303 442.06 28.3434 441.98 28.3906L440.518 29.2503C440.451 29.2891 440.399 29.349 440.369 29.4208C440.339 29.4926 440.334 29.5721 440.355 29.6471C440.375 29.7221 440.419 29.7882 440.481 29.8351C440.543 29.882 440.619 29.9072 440.697 29.9066V29.9052ZM440.518 33.7653L441.98 34.625C442.02 34.6484 442.064 34.6636 442.11 34.6699C442.156 34.6762 442.202 34.6733 442.247 34.6615C442.292 34.6498 442.334 34.6293 442.371 34.6013C442.408 34.5732 442.439 34.5382 442.462 34.4982C442.485 34.4582 442.501 34.414 442.507 34.3681C442.513 34.3222 442.51 34.2755 442.499 34.2307C442.487 34.1858 442.466 34.1438 442.438 34.1069C442.41 34.07 442.375 34.039 442.335 34.0156L440.875 33.1578C440.835 33.1336 440.791 33.1175 440.745 33.1105C440.698 33.1035 440.651 33.1057 440.606 33.1171C440.561 33.1285 440.518 33.1487 440.481 33.1767C440.444 33.2046 440.412 33.2397 440.389 33.2799C440.365 33.3201 440.35 33.3646 440.343 33.4108C440.337 33.457 440.34 33.504 440.352 33.5491C440.364 33.5941 440.385 33.6363 440.414 33.6732C440.442 33.7101 440.478 33.7409 440.518 33.7639V33.7653ZM424.625 31.8594H426.573C426.666 31.8594 426.756 31.8223 426.822 31.7564C426.888 31.6905 426.925 31.6011 426.925 31.5078C426.925 31.4146 426.888 31.3252 426.822 31.2592C426.756 31.1933 426.666 31.1563 426.573 31.1563H424.625C424.532 31.1563 424.442 31.1933 424.376 31.2592C424.31 31.3252 424.273 31.4146 424.273 31.5078C424.273 31.6011 424.31 31.6905 424.376 31.7564C424.442 31.8223 424.532 31.8594 424.625 31.8594ZM425.665 29L427.125 29.8578C427.165 29.8821 427.209 29.8982 427.255 29.9051C427.302 29.9121 427.349 29.9099 427.394 29.8985C427.439 29.8872 427.482 29.8669 427.519 29.839C427.556 29.811 427.588 29.7759 427.611 29.7357C427.635 29.6955 427.65 29.651 427.657 29.6048C427.663 29.5586 427.66 29.5116 427.648 29.4666C427.636 29.4215 427.615 29.3793 427.586 29.3424C427.558 29.3056 427.522 29.2747 427.482 29.2517L426.02 28.3906C425.98 28.3673 425.936 28.352 425.89 28.3457C425.844 28.3395 425.798 28.3423 425.753 28.3541C425.662 28.3779 425.585 28.4366 425.538 28.5174C425.491 28.5982 425.478 28.6945 425.501 28.785C425.525 28.8755 425.584 28.9528 425.665 29ZM427.125 33.1592L425.665 34.0156C425.584 34.0628 425.525 34.1402 425.501 34.2307C425.478 34.3212 425.491 34.4174 425.538 34.4982C425.585 34.579 425.662 34.6378 425.753 34.6615C425.843 34.6853 425.94 34.6722 426.02 34.625L427.482 33.7667C427.522 33.7437 427.558 33.7129 427.586 33.676C427.615 33.6391 427.636 33.5969 427.648 33.5519C427.66 33.5068 427.663 33.4599 427.657 33.4136C427.65 33.3674 427.635 33.3229 427.611 33.2827C427.588 33.2425 427.556 33.2074 427.519 33.1795C427.482 33.1515 427.439 33.1313 427.394 33.1199C427.349 33.1086 427.302 33.1063 427.255 33.1133C427.209 33.1203 427.165 33.1364 427.125 33.1606V33.1592Z" fill="#00BAF2"/>
<path d="M433.213 33.0375C433.246 33.073 433.286 33.1012 433.33 33.1206C433.374 33.1399 433.422 33.1499 433.471 33.1499C433.519 33.1499 433.567 33.1399 433.611 33.1206C433.655 33.1012 433.695 33.073 433.728 33.0375L436.135 30.4594C436.166 30.4256 436.191 30.3858 436.207 30.3425C436.223 30.2991 436.231 30.2531 436.229 30.2068C436.227 30.1606 436.217 30.1152 436.197 30.0731C436.178 30.031 436.151 29.9931 436.117 29.9616C436.083 29.9301 436.043 29.9055 436 29.8894C435.957 29.8732 435.911 29.8658 435.864 29.8674C435.818 29.8691 435.773 29.8798 435.731 29.899C435.689 29.9182 435.651 29.9456 435.619 29.9794L433.47 32.2819L432.383 31.118C432.32 31.0496 432.232 31.0093 432.138 31.006C432.045 31.0027 431.954 31.0365 431.886 31.1002C431.817 31.1639 431.777 31.2521 431.774 31.3454C431.77 31.4388 431.804 31.5296 431.868 31.598L433.213 33.0375Z" fill="#00BAF2"/>
<path d="M416.384 70.9287V72.002H411.407V70.9287H416.384ZM411.667 62.0488V72.002H410.348V62.0488H411.667ZM420.772 72.1387C420.257 72.1387 419.79 72.0521 419.371 71.8789C418.956 71.7012 418.599 71.4528 418.298 71.1338C418.002 70.8148 417.774 70.4365 417.614 69.999C417.455 69.5615 417.375 69.083 417.375 68.5635V68.2764C417.375 67.6748 417.464 67.1393 417.642 66.6699C417.819 66.196 418.061 65.7949 418.366 65.4668C418.672 65.1387 419.018 64.8903 419.405 64.7217C419.793 64.5531 420.194 64.4688 420.608 64.4688C421.137 64.4688 421.593 64.5599 421.976 64.7422C422.363 64.9245 422.68 65.1797 422.926 65.5078C423.172 65.8314 423.354 66.2142 423.473 66.6562C423.591 67.0938 423.65 67.5723 423.65 68.0918V68.6592H418.127V67.627H422.386V67.5312C422.368 67.2031 422.299 66.8841 422.181 66.5742C422.067 66.2643 421.884 66.0091 421.634 65.8086C421.383 65.6081 421.041 65.5078 420.608 65.5078C420.321 65.5078 420.057 65.5693 419.815 65.6924C419.574 65.8109 419.367 65.9886 419.193 66.2256C419.02 66.4626 418.886 66.752 418.79 67.0938C418.694 67.4355 418.646 67.8298 418.646 68.2764V68.5635C418.646 68.9144 418.694 69.2448 418.79 69.5547C418.89 69.86 419.034 70.1289 419.221 70.3613C419.412 70.5938 419.642 70.776 419.911 70.9082C420.185 71.0404 420.494 71.1064 420.841 71.1064C421.287 71.1064 421.666 71.0153 421.976 70.833C422.285 70.6507 422.557 70.4069 422.789 70.1016L423.555 70.71C423.395 70.9515 423.192 71.1816 422.946 71.4004C422.7 71.6191 422.397 71.7969 422.037 71.9336C421.682 72.0703 421.26 72.1387 420.772 72.1387ZM426.392 66.1846V72.002H425.127V64.6055H426.323L426.392 66.1846ZM426.091 68.0234L425.564 68.0029C425.569 67.4971 425.644 67.0299 425.79 66.6016C425.936 66.1686 426.141 65.7926 426.405 65.4736C426.67 65.1546 426.984 64.9085 427.349 64.7354C427.718 64.5576 428.126 64.4688 428.572 64.4688C428.937 64.4688 429.265 64.5189 429.557 64.6191C429.848 64.7148 430.097 64.8698 430.302 65.084C430.511 65.2982 430.671 65.5762 430.78 65.918C430.89 66.2552 430.944 66.6676 430.944 67.1553V72.002H429.673V67.1416C429.673 66.7542 429.616 66.4443 429.502 66.2119C429.388 65.9749 429.222 65.804 429.003 65.6992C428.784 65.5898 428.515 65.5352 428.196 65.5352C427.882 65.5352 427.595 65.6012 427.335 65.7334C427.08 65.8656 426.859 66.0479 426.672 66.2803C426.49 66.5127 426.346 66.7793 426.241 67.0801C426.141 67.3763 426.091 67.6908 426.091 68.0234ZM437.527 70.5664V61.502H438.799V72.002H437.637L437.527 70.5664ZM432.551 68.3857V68.2422C432.551 67.6771 432.619 67.1644 432.756 66.7041C432.897 66.2393 433.095 65.8405 433.351 65.5078C433.61 65.1751 433.918 64.9199 434.273 64.7422C434.633 64.5599 435.035 64.4688 435.477 64.4688C435.941 64.4688 436.347 64.5508 436.693 64.7148C437.044 64.8743 437.34 65.109 437.582 65.4189C437.828 65.7243 438.022 66.0934 438.163 66.5264C438.304 66.9593 438.402 67.4492 438.457 67.9961V68.625C438.407 69.1673 438.309 69.6549 438.163 70.0879C438.022 70.5208 437.828 70.89 437.582 71.1953C437.34 71.5007 437.044 71.7354 436.693 71.8994C436.342 72.0589 435.932 72.1387 435.463 72.1387C435.03 72.1387 434.633 72.0452 434.273 71.8584C433.918 71.6715 433.61 71.4095 433.351 71.0723C433.095 70.735 432.897 70.3385 432.756 69.8828C432.619 69.4225 432.551 68.9235 432.551 68.3857ZM433.822 68.2422V68.3857C433.822 68.7549 433.859 69.1012 433.932 69.4248C434.009 69.7484 434.128 70.0332 434.287 70.2793C434.447 70.5254 434.649 70.7191 434.896 70.8604C435.142 70.9971 435.436 71.0654 435.777 71.0654C436.197 71.0654 436.541 70.9766 436.81 70.7988C437.083 70.6211 437.302 70.3864 437.466 70.0947C437.63 69.8031 437.757 69.4863 437.849 69.1445V67.4971C437.794 67.2464 437.714 67.0049 437.609 66.7725C437.509 66.5355 437.377 66.3258 437.213 66.1436C437.053 65.9567 436.855 65.8086 436.618 65.6992C436.386 65.5898 436.11 65.5352 435.791 65.5352C435.445 65.5352 435.146 65.6081 434.896 65.7539C434.649 65.8952 434.447 66.0911 434.287 66.3418C434.128 66.5879 434.009 66.875 433.932 67.2031C433.859 67.5267 433.822 67.873 433.822 68.2422ZM442.142 64.6055V72.002H440.87V64.6055H442.142ZM440.774 62.6436C440.774 62.4385 440.836 62.2653 440.959 62.124C441.087 61.9827 441.273 61.9121 441.52 61.9121C441.761 61.9121 441.946 61.9827 442.073 62.124C442.205 62.2653 442.271 62.4385 442.271 62.6436C442.271 62.8395 442.205 63.0081 442.073 63.1494C441.946 63.2861 441.761 63.3545 441.52 63.3545C441.273 63.3545 441.087 63.2861 440.959 63.1494C440.836 63.0081 440.774 62.8395 440.774 62.6436ZM445.437 66.1846V72.002H444.172V64.6055H445.368L445.437 66.1846ZM445.136 68.0234L444.609 68.0029C444.614 67.4971 444.689 67.0299 444.835 66.6016C444.981 66.1686 445.186 65.7926 445.45 65.4736C445.715 65.1546 446.029 64.9085 446.394 64.7354C446.763 64.5576 447.171 64.4688 447.617 64.4688C447.982 64.4688 448.31 64.5189 448.602 64.6191C448.893 64.7148 449.142 64.8698 449.347 65.084C449.556 65.2982 449.716 65.5762 449.825 65.918C449.935 66.2552 449.989 66.6676 449.989 67.1553V72.002H448.718V67.1416C448.718 66.7542 448.661 66.4443 448.547 66.2119C448.433 65.9749 448.267 65.804 448.048 65.6992C447.829 65.5898 447.56 65.5352 447.241 65.5352C446.927 65.5352 446.64 65.6012 446.38 65.7334C446.125 65.8656 445.904 66.0479 445.717 66.2803C445.535 66.5127 445.391 66.7793 445.286 67.0801C445.186 67.3763 445.136 67.6908 445.136 68.0234ZM456.702 64.6055H457.851V71.8447C457.851 72.4964 457.718 73.0524 457.454 73.5127C457.19 73.973 456.821 74.3216 456.347 74.5586C455.877 74.8001 455.335 74.9209 454.72 74.9209C454.465 74.9209 454.164 74.8799 453.817 74.7979C453.476 74.7204 453.138 74.5859 452.806 74.3945C452.478 74.2077 452.202 73.9548 451.979 73.6357L452.642 72.8838C452.951 73.2575 453.275 73.5173 453.612 73.6631C453.954 73.8089 454.291 73.8818 454.624 73.8818C455.025 73.8818 455.371 73.8066 455.663 73.6562C455.955 73.5059 456.18 73.2826 456.34 72.9863C456.504 72.6947 456.586 72.3346 456.586 71.9062V66.2324L456.702 64.6055ZM451.609 68.3857V68.2422C451.609 67.6771 451.675 67.1644 451.808 66.7041C451.944 66.2393 452.138 65.8405 452.389 65.5078C452.644 65.1751 452.951 64.9199 453.312 64.7422C453.672 64.5599 454.077 64.4688 454.528 64.4688C454.993 64.4688 455.399 64.5508 455.745 64.7148C456.096 64.8743 456.392 65.109 456.634 65.4189C456.88 65.7243 457.074 66.0934 457.215 66.5264C457.356 66.9593 457.454 67.4492 457.509 67.9961V68.625C457.459 69.1673 457.361 69.6549 457.215 70.0879C457.074 70.5208 456.88 70.89 456.634 71.1953C456.392 71.5007 456.096 71.7354 455.745 71.8994C455.394 72.0589 454.984 72.1387 454.515 72.1387C454.073 72.1387 453.672 72.0452 453.312 71.8584C452.956 71.6715 452.651 71.4095 452.396 71.0723C452.14 70.735 451.944 70.3385 451.808 69.8828C451.675 69.4225 451.609 68.9235 451.609 68.3857ZM452.874 68.2422V68.3857C452.874 68.7549 452.91 69.1012 452.983 69.4248C453.061 69.7484 453.177 70.0332 453.332 70.2793C453.492 70.5254 453.694 70.7191 453.94 70.8604C454.187 70.9971 454.48 71.0654 454.822 71.0654C455.242 71.0654 455.588 70.9766 455.861 70.7988C456.135 70.6211 456.351 70.3864 456.511 70.0947C456.675 69.8031 456.802 69.4863 456.894 69.1445V67.4971C456.843 67.2464 456.766 67.0049 456.661 66.7725C456.561 66.5355 456.429 66.3258 456.265 66.1436C456.105 65.9567 455.907 65.8086 455.67 65.6992C455.433 65.5898 455.155 65.5352 454.836 65.5352C454.49 65.5352 454.191 65.6081 453.94 65.7539C453.694 65.8952 453.492 66.0911 453.332 66.3418C453.177 66.5879 453.061 66.875 452.983 67.2031C452.91 67.5267 452.874 67.873 452.874 68.2422ZM412.241 86.0986H409.582V85.0254H412.241C412.756 85.0254 413.173 84.9434 413.492 84.7793C413.811 84.6152 414.044 84.3874 414.189 84.0957C414.34 83.804 414.415 83.4714 414.415 83.0977C414.415 82.7559 414.34 82.4346 414.189 82.1338C414.044 81.833 413.811 81.5915 413.492 81.4092C413.173 81.2223 412.756 81.1289 412.241 81.1289H409.89V90.002H408.57V80.0488H412.241C412.993 80.0488 413.629 80.1787 414.148 80.4385C414.668 80.6982 415.062 81.0583 415.331 81.5186C415.6 81.9743 415.734 82.4961 415.734 83.084C415.734 83.722 415.6 84.2666 415.331 84.7178C415.062 85.1689 414.668 85.513 414.148 85.75C413.629 85.9824 412.993 86.0986 412.241 86.0986ZM421.49 88.7373V84.9297C421.49 84.638 421.431 84.3851 421.312 84.1709C421.199 83.9521 421.025 83.7835 420.793 83.665C420.561 83.5465 420.273 83.4873 419.932 83.4873C419.613 83.4873 419.332 83.542 419.091 83.6514C418.854 83.7607 418.667 83.9043 418.53 84.082C418.398 84.2598 418.332 84.4512 418.332 84.6562H417.067C417.067 84.3919 417.136 84.1299 417.272 83.8701C417.409 83.6104 417.605 83.3757 417.86 83.166C418.12 82.9518 418.43 82.7832 418.79 82.6602C419.155 82.5326 419.56 82.4688 420.007 82.4688C420.545 82.4688 421.019 82.5599 421.429 82.7422C421.843 82.9245 422.167 83.2002 422.399 83.5693C422.636 83.9339 422.755 84.3919 422.755 84.9434V88.3887C422.755 88.6348 422.775 88.8968 422.816 89.1748C422.862 89.4528 422.928 89.6921 423.015 89.8926V90.002H421.695C421.632 89.8561 421.581 89.6624 421.545 89.4209C421.508 89.1748 421.49 88.9469 421.49 88.7373ZM421.709 85.5176L421.723 86.4062H420.444C420.084 86.4062 419.763 86.4359 419.48 86.4951C419.198 86.5498 418.961 86.6341 418.77 86.748C418.578 86.862 418.432 87.0055 418.332 87.1787C418.232 87.3473 418.182 87.5456 418.182 87.7734C418.182 88.0059 418.234 88.2178 418.339 88.4092C418.444 88.6006 418.601 88.7533 418.811 88.8672C419.025 88.9766 419.287 89.0312 419.597 89.0312C419.984 89.0312 420.326 88.9492 420.622 88.7852C420.918 88.6211 421.153 88.4206 421.326 88.1836C421.504 87.9466 421.6 87.7165 421.613 87.4932L422.153 88.1016C422.121 88.293 422.035 88.5049 421.894 88.7373C421.752 88.9697 421.563 89.193 421.326 89.4072C421.094 89.6169 420.816 89.7923 420.492 89.9336C420.173 90.0703 419.813 90.1387 419.412 90.1387C418.911 90.1387 418.471 90.0407 418.093 89.8447C417.719 89.6488 417.427 89.3867 417.218 89.0586C417.013 88.7259 416.91 88.3545 416.91 87.9443C416.91 87.5479 416.988 87.1992 417.143 86.8984C417.298 86.5931 417.521 86.3402 417.812 86.1396C418.104 85.9346 418.455 85.7796 418.865 85.6748C419.275 85.57 419.733 85.5176 420.239 85.5176H421.709ZM426.009 83.7676V90.002H424.744V82.6055H425.975L426.009 83.7676ZM428.319 82.5645L428.312 83.7402C428.208 83.7174 428.107 83.7038 428.012 83.6992C427.921 83.6901 427.816 83.6855 427.697 83.6855C427.406 83.6855 427.148 83.7311 426.925 83.8223C426.701 83.9134 426.512 84.041 426.357 84.2051C426.202 84.3691 426.079 84.5651 425.988 84.793C425.902 85.0163 425.845 85.2624 425.817 85.5312L425.462 85.7363C425.462 85.2897 425.505 84.8704 425.592 84.4785C425.683 84.0866 425.822 83.7402 426.009 83.4395C426.196 83.1341 426.433 82.8971 426.72 82.7285C427.011 82.5553 427.358 82.4688 427.759 82.4688C427.85 82.4688 427.955 82.4801 428.073 82.5029C428.192 82.5212 428.274 82.5417 428.319 82.5645ZM432.927 82.6055V83.5762H428.928V82.6055H432.927ZM430.281 80.8076H431.546V88.1699C431.546 88.4206 431.585 88.6097 431.662 88.7373C431.74 88.8649 431.84 88.9492 431.963 88.9902C432.086 89.0312 432.218 89.0518 432.359 89.0518C432.464 89.0518 432.574 89.0426 432.688 89.0244C432.806 89.0016 432.895 88.9834 432.954 88.9697L432.961 90.002C432.861 90.0339 432.729 90.0635 432.564 90.0908C432.405 90.1227 432.211 90.1387 431.983 90.1387C431.674 90.1387 431.389 90.0771 431.129 89.9541C430.869 89.8311 430.662 89.626 430.507 89.3389C430.356 89.0472 430.281 88.6553 430.281 88.1631V80.8076ZM435.675 84.1846V90.002H434.41V82.6055H435.606L435.675 84.1846ZM435.374 86.0234L434.848 86.0029C434.852 85.4971 434.927 85.0299 435.073 84.6016C435.219 84.1686 435.424 83.7926 435.688 83.4736C435.953 83.1546 436.267 82.9085 436.632 82.7354C437.001 82.5576 437.409 82.4688 437.855 82.4688C438.22 82.4688 438.548 82.5189 438.84 82.6191C439.132 82.7148 439.38 82.8698 439.585 83.084C439.795 83.2982 439.954 83.5762 440.063 83.918C440.173 84.2552 440.228 84.6676 440.228 85.1553V90.002H438.956V85.1416C438.956 84.7542 438.899 84.4443 438.785 84.2119C438.671 83.9749 438.505 83.804 438.286 83.6992C438.067 83.5898 437.799 83.5352 437.479 83.5352C437.165 83.5352 436.878 83.6012 436.618 83.7334C436.363 83.8656 436.142 84.0479 435.955 84.2803C435.773 84.5127 435.629 84.7793 435.524 85.0801C435.424 85.3763 435.374 85.6908 435.374 86.0234ZM445.218 90.1387C444.703 90.1387 444.236 90.0521 443.816 89.8789C443.402 89.7012 443.044 89.4528 442.743 89.1338C442.447 88.8148 442.219 88.4365 442.06 87.999C441.9 87.5615 441.82 87.083 441.82 86.5635V86.2764C441.82 85.6748 441.909 85.1393 442.087 84.6699C442.265 84.196 442.506 83.7949 442.812 83.4668C443.117 83.1387 443.463 82.8903 443.851 82.7217C444.238 82.5531 444.639 82.4688 445.054 82.4688C445.582 82.4688 446.038 82.5599 446.421 82.7422C446.808 82.9245 447.125 83.1797 447.371 83.5078C447.617 83.8314 447.799 84.2142 447.918 84.6562C448.036 85.0938 448.096 85.5723 448.096 86.0918V86.6592H442.572V85.627H446.831V85.5312C446.813 85.2031 446.744 84.8841 446.626 84.5742C446.512 84.2643 446.33 84.0091 446.079 83.8086C445.828 83.6081 445.487 83.5078 445.054 83.5078C444.767 83.5078 444.502 83.5693 444.261 83.6924C444.019 83.8109 443.812 83.9886 443.639 84.2256C443.465 84.4626 443.331 84.752 443.235 85.0938C443.14 85.4355 443.092 85.8298 443.092 86.2764V86.5635C443.092 86.9144 443.14 87.2448 443.235 87.5547C443.336 87.86 443.479 88.1289 443.666 88.3613C443.857 88.5938 444.088 88.776 444.356 88.9082C444.63 89.0404 444.94 89.1064 445.286 89.1064C445.733 89.1064 446.111 89.0153 446.421 88.833C446.731 88.6507 447.002 88.4069 447.234 88.1016L448 88.71C447.84 88.9515 447.638 89.1816 447.392 89.4004C447.146 89.6191 446.842 89.7969 446.482 89.9336C446.127 90.0703 445.705 90.1387 445.218 90.1387ZM450.837 83.7676V90.002H449.572V82.6055H450.803L450.837 83.7676ZM453.147 82.5645L453.141 83.7402C453.036 83.7174 452.936 83.7038 452.84 83.6992C452.749 83.6901 452.644 83.6855 452.525 83.6855C452.234 83.6855 451.976 83.7311 451.753 83.8223C451.53 83.9134 451.34 84.041 451.186 84.2051C451.031 84.3691 450.908 84.5651 450.816 84.793C450.73 85.0163 450.673 85.2624 450.646 85.5312L450.29 85.7363C450.29 85.2897 450.333 84.8704 450.42 84.4785C450.511 84.0866 450.65 83.7402 450.837 83.4395C451.024 83.1341 451.261 82.8971 451.548 82.7285C451.84 82.5553 452.186 82.4688 452.587 82.4688C452.678 82.4688 452.783 82.4801 452.901 82.5029C453.02 82.5212 453.102 82.5417 453.147 82.5645ZM458.623 88.04C458.623 87.8577 458.582 87.6891 458.5 87.5342C458.423 87.3747 458.261 87.2311 458.015 87.1035C457.773 86.9714 457.409 86.8574 456.921 86.7617C456.511 86.6751 456.139 86.5726 455.807 86.4541C455.479 86.3356 455.198 86.1921 454.966 86.0234C454.738 85.8548 454.562 85.6566 454.439 85.4287C454.316 85.2008 454.255 84.9342 454.255 84.6289C454.255 84.3372 454.319 84.0615 454.446 83.8018C454.578 83.542 454.763 83.3118 455 83.1113C455.242 82.9108 455.531 82.7536 455.868 82.6396C456.205 82.5257 456.581 82.4688 456.996 82.4688C457.589 82.4688 458.094 82.5736 458.514 82.7832C458.933 82.9928 459.254 83.2731 459.478 83.624C459.701 83.9704 459.812 84.3555 459.812 84.7793H458.548C458.548 84.5742 458.486 84.376 458.363 84.1846C458.245 83.9886 458.069 83.8268 457.837 83.6992C457.609 83.5716 457.329 83.5078 456.996 83.5078C456.645 83.5078 456.36 83.5625 456.142 83.6719C455.927 83.7767 455.77 83.9111 455.67 84.0752C455.574 84.2393 455.526 84.4124 455.526 84.5947C455.526 84.7314 455.549 84.8545 455.595 84.9639C455.645 85.0687 455.731 85.1667 455.854 85.2578C455.978 85.3444 456.151 85.4264 456.374 85.5039C456.597 85.5814 456.882 85.6589 457.229 85.7363C457.835 85.873 458.334 86.0371 458.726 86.2285C459.118 86.4199 459.409 86.6546 459.601 86.9326C459.792 87.2106 459.888 87.5479 459.888 87.9443C459.888 88.2679 459.819 88.5641 459.683 88.833C459.55 89.1019 459.357 89.3343 459.102 89.5303C458.851 89.7217 458.55 89.8721 458.199 89.9814C457.853 90.0863 457.463 90.1387 457.03 90.1387C456.379 90.1387 455.827 90.0225 455.376 89.79C454.925 89.5576 454.583 89.2568 454.351 88.8877C454.118 88.5186 454.002 88.1289 454.002 87.7188H455.273C455.292 88.0651 455.392 88.3408 455.574 88.5459C455.757 88.7464 455.98 88.89 456.244 88.9766C456.508 89.0586 456.771 89.0996 457.03 89.0996C457.377 89.0996 457.666 89.054 457.898 88.9629C458.135 88.8717 458.315 88.7464 458.438 88.5869C458.562 88.4274 458.623 88.2451 458.623 88.04Z" fill="#0A2540"/>
<defs>
<filter id="filter0_d_4716_6838" x="-26" y="0" width="180" height="180" filterUnits="userSpaceOnUse" color-interpolation-filters="sRGB">
<feFlood flood-opacity="0" result="BackgroundImageFix"/>
<feColorMatrix in="SourceAlpha" type="matrix" values="0 0 0 0 0 0 0 0 0 0 0 0 0 0 0 0 0 0 127 0" result="hardAlpha"/>
<feMorphology radius="12" operator="erode" in="SourceAlpha" result="effect1_dropShadow_4716_6838"/>
<feOffset dy="32"/>
<feGaussianBlur stdDeviation="27"/>
<feColorMatrix type="matrix" values="0 0 0 0 0.0627451 0 0 0 0 0.0980392 0 0 0 0 0.156863 0 0 0 0.18 0"/>
<feBlend mode="normal" in2="BackgroundImageFix" result="effect1_dropShadow_4716_6838"/>
<feBlend mode="normal" in="SourceGraphic" in2="effect1_dropShadow_4716_6838" result="shape"/>
</filter>
<filter id="filter1_d_4716_6838" x="550" y="0" width="180" height="180" filterUnits="userSpaceOnUse" color-interpolation-filters="sRGB">
<feFlood flood-opacity="0" result="BackgroundImageFix"/>
<feColorMatrix in="SourceAlpha" type="matrix" values="0 0 0 0 0 0 0 0 0 0 0 0 0 0 0 0 0 0 127 0" result="hardAlpha"/>
<feMorphology radius="12" operator="erode" in="SourceAlpha" result="effect1_dropShadow_4716_6838"/>
<feOffset dy="32"/>
<feGaussianBlur stdDeviation="27"/>
<feColorMatrix type="matrix" values="0 0 0 0 0.0627451 0 0 0 0 0.0980392 0 0 0 0 0.156863 0 0 0 0.18 0"/>
<feBlend mode="normal" in2="BackgroundImageFix" result="effect1_dropShadow_4716_6838"/>
<feBlend mode="normal" in="SourceGraphic" in2="effect1_dropShadow_4716_6838" result="shape"/>
</filter>
<filter id="filter2_d_4716_6838" x="344" y="144" width="180" height="180" filterUnits="userSpaceOnUse" color-interpolation-filters="sRGB">
<feFlood flood-opacity="0" result="BackgroundImageFix"/>
<feColorMatrix in="SourceAlpha" type="matrix" values="0 0 0 0 0 0 0 0 0 0 0 0 0 0 0 0 0 0 127 0" result="hardAlpha"/>
<feMorphology radius="12" operator="erode" in="SourceAlpha" result="effect1_dropShadow_4716_6838"/>
<feOffset dy="32"/>
<feGaussianBlur stdDeviation="27"/>
<feColorMatrix type="matrix" values="0 0 0 0 0.0627451 0 0 0 0 0.0980392 0 0 0 0 0.156863 0 0 0 0.18 0"/>
<feBlend mode="normal" in2="BackgroundImageFix" result="effect1_dropShadow_4716_6838"/>
<feBlend mode="normal" in="SourceGraphic" in2="effect1_dropShadow_4716_6838" result="shape"/>
</filter>
<filter id="filter3_d_4716_6838" x="344" y="0" width="180" height="180" filterUnits="userSpaceOnUse" color-interpolation-filters="sRGB">
<feFlood flood-opacity="0" result="BackgroundImageFix"/>
<feColorMatrix in="SourceAlpha" type="matrix" values="0 0 0 0 0 0 0 0 0 0 0 0 0 0 0 0 0 0 127 0" result="hardAlpha"/>
<feMorphology radius="12" operator="erode" in="SourceAlpha" result="effect1_dropShadow_4716_6838"/>
<feOffset dy="32"/>
<feGaussianBlur stdDeviation="27"/>
<feColorMatrix type="matrix" values="0 0 0 0 0.0627451 0 0 0 0 0.0980392 0 0 0 0 0.156863 0 0 0 0.18 0"/>
<feBlend mode="normal" in2="BackgroundImageFix" result="effect1_dropShadow_4716_6838"/>
<feBlend mode="normal" in="SourceGraphic" in2="effect1_dropShadow_4716_6838" result="shape"/>
</filter>
<radialGradient id="paint0_radial_4716_6838" cx="0" cy="0" r="1" gradientUnits="userSpaceOnUse" gradientTransform="translate(350.75 128.492) rotate(90) scale(71.5 286.75)">
<stop stop-color="#0CC2FF"/>
<stop offset="1" stop-color="#8CF2B2"/>
</radialGradient>
</defs>
</svg>
