<svg width="704" height="328" viewBox="0 0 704 328" fill="none" xmlns="http://www.w3.org/2000/svg">
<!-- <path d="M110 57H125.496H186.979C194.476 57 205.973 62.9348 205.973 73.4348C205.973 80.7391 206 204.609 206 270.5C205.833 274.913 206.5 288 225.968 288C242.363 288 493.06 288 616.359 288C630.5 288 639 278.413 639 267C639 255.29 639.185 207.599 638.852 182.235C638.852 176.12 638.852 126.243 638.852 100.826"
 stroke="url(#paint0_radial_4716_6491)" 
 stroke-width="1.5"

>     
    <animate attributeName="stroke-dasharray" from="0, 1000" to="1000, 0" dur="3s" fill="freeze"/>
  </path> -->
<g filter="url(#filter0_d_4716_6491)">
<rect x="16" y="10" width="96" height="96" rx="8" stroke="#C8D0DB"/>
</g>
<path fill-rule="evenodd" clip-rule="evenodd" d="M63.5553 27.7613C61.8138 27.7613 60.402 29.1731 60.402 30.9147C60.402 32.6562 61.8138 34.068 63.5553 34.068C65.2969 34.068 66.7087 32.6562 66.7087 30.9147C66.7087 29.1731 65.2969 27.7613 63.5553 27.7613ZM59.1406 30.9147C59.1406 28.4765 61.1172 26.5 63.5553 26.5C65.9935 26.5 67.97 28.4765 67.97 30.9147C67.97 33.3529 65.9935 35.3294 63.5553 35.3294C61.1172 35.3294 59.1406 33.3529 59.1406 30.9147Z" fill="#223872"/>
<path fill-rule="evenodd" clip-rule="evenodd" d="M60.4158 35.9043C60.0675 35.9043 59.7852 36.1867 59.7852 36.535C59.7852 36.8833 60.0675 37.1656 60.4158 37.1656H65.0027C68.2884 37.1656 71.1237 39.4709 71.7941 42.6877L72.079 44.0552C72.4872 46.0134 70.9924 47.852 68.992 47.852H60.1599V49.1133H68.992C71.7924 49.1133 73.8853 46.5394 73.3139 43.7979L73.0288 42.4303C72.2366 38.6287 68.8859 35.9043 65.0027 35.9043H60.4158Z" fill="#223872"/>
<path d="M55.9981 39.4062C52.2509 46.4842 55.9981 48.566 59.0749 48.4871" stroke="#3FAFE9" stroke-width="1.5"/>
<path d="M56 39.4069L56.4164 38.5742" stroke="#3FAFE9" stroke-width="1.5"/>
<path d="M54.5437 36.9223L58.6508 36.8745L58.3105 40.5895L54.5437 36.9223Z" fill="#3FAFE9" stroke="#3FAFE9"/>
<!-- <path d="M42.7666 62.0469H44.0449L47.3057 70.1611L50.5596 62.0469H51.8447L47.7979 72H46.7998L42.7666 62.0469ZM42.3496 62.0469H43.4775L43.6621 68.1172V72H42.3496V62.0469ZM51.127 62.0469H52.2549V72H50.9424V68.1172L51.127 62.0469ZM54.0459 68.3838V68.2266C54.0459 67.6934 54.1234 67.1989 54.2783 66.7432C54.4333 66.2829 54.6566 65.8841 54.9482 65.5469C55.2399 65.2051 55.5931 64.9408 56.0078 64.7539C56.4225 64.5625 56.8874 64.4668 57.4023 64.4668C57.9219 64.4668 58.389 64.5625 58.8037 64.7539C59.223 64.9408 59.5785 65.2051 59.8701 65.5469C60.1663 65.8841 60.3919 66.2829 60.5469 66.7432C60.7018 67.1989 60.7793 67.6934 60.7793 68.2266V68.3838C60.7793 68.917 60.7018 69.4115 60.5469 69.8672C60.3919 70.3229 60.1663 70.7217 59.8701 71.0635C59.5785 71.4007 59.2253 71.665 58.8105 71.8564C58.4004 72.0433 57.9355 72.1367 57.416 72.1367C56.8965 72.1367 56.4294 72.0433 56.0146 71.8564C55.5999 71.665 55.2445 71.4007 54.9482 71.0635C54.6566 70.7217 54.4333 70.3229 54.2783 69.8672C54.1234 69.4115 54.0459 68.917 54.0459 68.3838ZM55.3105 68.2266V68.3838C55.3105 68.7529 55.3538 69.1016 55.4404 69.4297C55.527 69.7533 55.6569 70.0404 55.8301 70.291C56.0078 70.5417 56.2288 70.7399 56.4932 70.8857C56.7575 71.027 57.0651 71.0977 57.416 71.0977C57.7624 71.0977 58.0654 71.027 58.3252 70.8857C58.5895 70.7399 58.8083 70.5417 58.9814 70.291C59.1546 70.0404 59.2845 69.7533 59.3711 69.4297C59.4622 69.1016 59.5078 68.7529 59.5078 68.3838V68.2266C59.5078 67.862 59.4622 67.5179 59.3711 67.1943C59.2845 66.8662 59.1523 66.5768 58.9746 66.3262C58.8014 66.071 58.5827 65.8704 58.3184 65.7246C58.0586 65.5788 57.7533 65.5059 57.4023 65.5059C57.056 65.5059 56.7507 65.5788 56.4863 65.7246C56.2266 65.8704 56.0078 66.071 55.8301 66.3262C55.6569 66.5768 55.527 66.8662 55.4404 67.1943C55.3538 67.5179 55.3105 67.862 55.3105 68.2266ZM63.6299 66.1826V72H62.3652V64.6035H63.5615L63.6299 66.1826ZM63.3291 68.0215L62.8027 68.001C62.8073 67.4951 62.8825 67.028 63.0283 66.5996C63.1742 66.1667 63.3792 65.7907 63.6436 65.4717C63.9079 65.1527 64.2223 64.9066 64.5869 64.7334C64.9561 64.5557 65.3639 64.4668 65.8105 64.4668C66.1751 64.4668 66.5033 64.5169 66.7949 64.6172C67.0866 64.7129 67.335 64.8678 67.54 65.082C67.7497 65.2962 67.9092 65.5742 68.0186 65.916C68.1279 66.2533 68.1826 66.6657 68.1826 67.1533V72H66.9111V67.1396C66.9111 66.7523 66.8542 66.4424 66.7402 66.21C66.6263 65.973 66.46 65.8021 66.2412 65.6973C66.0225 65.5879 65.7536 65.5332 65.4346 65.5332C65.1201 65.5332 64.833 65.5993 64.5732 65.7314C64.318 65.8636 64.097 66.0459 63.9102 66.2783C63.7279 66.5107 63.5843 66.7773 63.4795 67.0781C63.3792 67.3743 63.3291 67.6888 63.3291 68.0215ZM73.2002 64.6035V65.5742H69.2012V64.6035H73.2002ZM70.5547 62.8057H71.8193V70.168C71.8193 70.4186 71.8581 70.6077 71.9355 70.7354C72.013 70.863 72.1133 70.9473 72.2363 70.9883C72.3594 71.0293 72.4915 71.0498 72.6328 71.0498C72.7376 71.0498 72.847 71.0407 72.9609 71.0225C73.0794 70.9997 73.1683 70.9814 73.2275 70.9678L73.2344 72C73.1341 72.0319 73.002 72.0615 72.8379 72.0889C72.6784 72.1208 72.4847 72.1367 72.2568 72.1367C71.9469 72.1367 71.6621 72.0752 71.4023 71.9521C71.1426 71.8291 70.9352 71.624 70.7803 71.3369C70.6299 71.0452 70.5547 70.6533 70.5547 70.1611V62.8057ZM75.9482 65.7656V72H74.6836V64.6035H75.9141L75.9482 65.7656ZM78.2588 64.5625L78.252 65.7383C78.1471 65.7155 78.0469 65.7018 77.9512 65.6973C77.86 65.6882 77.7552 65.6836 77.6367 65.6836C77.3451 65.6836 77.0876 65.7292 76.8643 65.8203C76.641 65.9115 76.4518 66.0391 76.2969 66.2031C76.1419 66.3672 76.0189 66.5632 75.9277 66.791C75.8411 67.0143 75.7842 67.2604 75.7568 67.5293L75.4014 67.7344C75.4014 67.2878 75.4447 66.8685 75.5312 66.4766C75.6224 66.0846 75.7614 65.7383 75.9482 65.4375C76.1351 65.1322 76.3721 64.8952 76.6592 64.7266C76.9508 64.5534 77.2972 64.4668 77.6982 64.4668C77.7894 64.4668 77.8942 64.4782 78.0127 64.501C78.1312 64.5192 78.2132 64.5397 78.2588 64.5625ZM83.5156 70.7354V66.9277C83.5156 66.6361 83.4564 66.3831 83.3379 66.1689C83.224 65.9502 83.0508 65.7816 82.8184 65.6631C82.5859 65.5446 82.2988 65.4854 81.957 65.4854C81.638 65.4854 81.3577 65.54 81.1162 65.6494C80.8792 65.7588 80.6924 65.9023 80.5557 66.0801C80.4235 66.2578 80.3574 66.4492 80.3574 66.6543H79.0928C79.0928 66.39 79.1611 66.1279 79.2979 65.8682C79.4346 65.6084 79.6305 65.3737 79.8857 65.1641C80.1455 64.9499 80.4554 64.7812 80.8154 64.6582C81.18 64.5306 81.5856 64.4668 82.0322 64.4668C82.57 64.4668 83.0439 64.5579 83.4541 64.7402C83.8688 64.9225 84.1924 65.1982 84.4248 65.5674C84.6618 65.932 84.7803 66.39 84.7803 66.9414V70.3867C84.7803 70.6328 84.8008 70.8949 84.8418 71.1729C84.8874 71.4508 84.9535 71.6901 85.04 71.8906V72H83.7207C83.6569 71.8542 83.6068 71.6605 83.5703 71.4189C83.5339 71.1729 83.5156 70.945 83.5156 70.7354ZM83.7344 67.5156L83.748 68.4043H82.4697C82.1097 68.4043 81.7884 68.4339 81.5059 68.4932C81.2233 68.5479 80.9863 68.6322 80.7949 68.7461C80.6035 68.86 80.4577 69.0036 80.3574 69.1768C80.2572 69.3454 80.207 69.5436 80.207 69.7715C80.207 70.0039 80.2594 70.2158 80.3643 70.4072C80.4691 70.5986 80.6263 70.7513 80.8359 70.8652C81.0501 70.9746 81.3122 71.0293 81.6221 71.0293C82.0094 71.0293 82.3512 70.9473 82.6475 70.7832C82.9437 70.6191 83.1784 70.4186 83.3516 70.1816C83.5293 69.9447 83.625 69.7145 83.6387 69.4912L84.1787 70.0996C84.1468 70.291 84.0602 70.5029 83.9189 70.7354C83.7777 70.9678 83.5885 71.1911 83.3516 71.4053C83.1191 71.6149 82.8411 71.7904 82.5176 71.9316C82.1986 72.0684 81.8385 72.1367 81.4375 72.1367C80.9362 72.1367 80.4964 72.0387 80.1182 71.8428C79.7445 71.6468 79.4528 71.3848 79.2432 71.0566C79.0381 70.724 78.9355 70.3525 78.9355 69.9424C78.9355 69.5459 79.013 69.1973 79.168 68.8965C79.3229 68.5911 79.5462 68.3382 79.8379 68.1377C80.1296 67.9326 80.4805 67.7777 80.8906 67.6729C81.3008 67.568 81.7588 67.5156 82.2646 67.5156H83.7344ZM36.5732 86.835H37.8857C37.8174 87.4639 37.6374 88.0267 37.3457 88.5234C37.054 89.0202 36.6416 89.4144 36.1084 89.7061C35.5752 89.9932 34.9098 90.1367 34.1123 90.1367C33.529 90.1367 32.998 90.0273 32.5195 89.8086C32.0456 89.5898 31.6377 89.2799 31.2959 88.8789C30.9541 88.4733 30.6898 87.988 30.5029 87.4229C30.3206 86.8532 30.2295 86.2197 30.2295 85.5225V84.5312C30.2295 83.834 30.3206 83.2028 30.5029 82.6377C30.6898 82.068 30.9564 81.5804 31.3027 81.1748C31.6536 80.7692 32.0752 80.457 32.5674 80.2383C33.0596 80.0195 33.6133 79.9102 34.2285 79.9102C34.9805 79.9102 35.6162 80.0514 36.1357 80.334C36.6553 80.6165 37.0586 81.0085 37.3457 81.5098C37.6374 82.0065 37.8174 82.583 37.8857 83.2393H36.5732C36.5094 82.7744 36.391 82.3757 36.2178 82.043C36.0446 81.7057 35.7985 81.446 35.4795 81.2637C35.1605 81.0814 34.7435 80.9902 34.2285 80.9902C33.7865 80.9902 33.3968 81.0745 33.0596 81.2432C32.7269 81.4118 32.4466 81.651 32.2188 81.9609C31.9954 82.2708 31.8268 82.6423 31.7129 83.0752C31.599 83.5081 31.542 83.9889 31.542 84.5176V85.5225C31.542 86.0101 31.5921 86.4681 31.6924 86.8965C31.7972 87.3249 31.9544 87.7008 32.1641 88.0244C32.3737 88.348 32.6403 88.6032 32.9639 88.79C33.2874 88.9723 33.6702 89.0635 34.1123 89.0635C34.6729 89.0635 35.1195 88.9746 35.4521 88.7969C35.7848 88.6191 36.0355 88.3639 36.2041 88.0312C36.3773 87.6986 36.5003 87.2998 36.5732 86.835ZM44.0176 88.291V82.6035H45.2891V90H44.0791L44.0176 88.291ZM44.2568 86.7324L44.7832 86.7188C44.7832 87.2109 44.7308 87.6667 44.626 88.0859C44.5257 88.5007 44.3617 88.8607 44.1338 89.166C43.9059 89.4714 43.6074 89.7106 43.2383 89.8838C42.8691 90.0524 42.4202 90.1367 41.8916 90.1367C41.5316 90.1367 41.2012 90.0843 40.9004 89.9795C40.6042 89.8747 40.349 89.7129 40.1348 89.4941C39.9206 89.2754 39.7542 88.9906 39.6357 88.6396C39.5218 88.2887 39.4648 87.8672 39.4648 87.375V82.6035H40.7295V87.3887C40.7295 87.7214 40.766 87.9971 40.8389 88.2158C40.9163 88.43 41.0189 88.6009 41.1465 88.7285C41.2786 88.8516 41.4245 88.9382 41.584 88.9883C41.748 89.0384 41.9167 89.0635 42.0898 89.0635C42.6276 89.0635 43.0537 88.9609 43.3682 88.7559C43.6826 88.5462 43.9082 88.266 44.0449 87.915C44.1862 87.5596 44.2568 87.1654 44.2568 86.7324ZM51.5234 88.0381C51.5234 87.8558 51.4824 87.6872 51.4004 87.5322C51.3229 87.3727 51.1611 87.2292 50.915 87.1016C50.6735 86.9694 50.3089 86.8555 49.8213 86.7598C49.4111 86.6732 49.0397 86.5706 48.707 86.4521C48.3789 86.3337 48.0986 86.1901 47.8662 86.0215C47.6383 85.8529 47.4629 85.6546 47.3398 85.4268C47.2168 85.1989 47.1553 84.9323 47.1553 84.627C47.1553 84.3353 47.2191 84.0596 47.3467 83.7998C47.4788 83.54 47.6634 83.3099 47.9004 83.1094C48.1419 82.9089 48.4313 82.7516 48.7686 82.6377C49.1058 82.5238 49.4818 82.4668 49.8965 82.4668C50.4889 82.4668 50.9948 82.5716 51.4141 82.7812C51.8333 82.9909 52.1546 83.2712 52.3779 83.6221C52.6012 83.9684 52.7129 84.3535 52.7129 84.7773H51.4482C51.4482 84.5723 51.3867 84.374 51.2637 84.1826C51.1452 83.9867 50.9697 83.8249 50.7373 83.6973C50.5094 83.5697 50.2292 83.5059 49.8965 83.5059C49.5456 83.5059 49.2607 83.5605 49.042 83.6699C48.8278 83.7747 48.6706 83.9092 48.5703 84.0732C48.4746 84.2373 48.4268 84.4105 48.4268 84.5928C48.4268 84.7295 48.4495 84.8525 48.4951 84.9619C48.5452 85.0667 48.6318 85.1647 48.7549 85.2559C48.8779 85.3424 49.0511 85.4245 49.2744 85.502C49.4977 85.5794 49.7826 85.6569 50.1289 85.7344C50.735 85.8711 51.234 86.0352 51.626 86.2266C52.0179 86.418 52.3096 86.6527 52.501 86.9307C52.6924 87.2087 52.7881 87.5459 52.7881 87.9424C52.7881 88.266 52.7197 88.5622 52.583 88.8311C52.4508 89.0999 52.2572 89.3324 52.002 89.5283C51.7513 89.7197 51.4505 89.8701 51.0996 89.9795C50.7533 90.0843 50.3636 90.1367 49.9307 90.1367C49.279 90.1367 48.7275 90.0205 48.2764 89.7881C47.8252 89.5557 47.4834 89.2549 47.251 88.8857C47.0186 88.5166 46.9023 88.127 46.9023 87.7168H48.1738C48.1921 88.0632 48.2923 88.3389 48.4746 88.5439C48.6569 88.7445 48.8802 88.888 49.1445 88.9746C49.4089 89.0566 49.6709 89.0977 49.9307 89.0977C50.277 89.0977 50.5664 89.0521 50.7988 88.9609C51.0358 88.8698 51.2158 88.7445 51.3389 88.585C51.4619 88.4255 51.5234 88.2432 51.5234 88.0381ZM57.5459 82.6035V83.5742H53.5469V82.6035H57.5459ZM54.9004 80.8057H56.165V88.168C56.165 88.4186 56.2038 88.6077 56.2812 88.7354C56.3587 88.863 56.459 88.9473 56.582 88.9883C56.7051 89.0293 56.8372 89.0498 56.9785 89.0498C57.0833 89.0498 57.1927 89.0407 57.3066 89.0225C57.4251 88.9997 57.514 88.9814 57.5732 88.9678L57.5801 90C57.4798 90.0319 57.3477 90.0615 57.1836 90.0889C57.0241 90.1208 56.8304 90.1367 56.6025 90.1367C56.2926 90.1367 56.0078 90.0752 55.748 89.9521C55.4883 89.8291 55.2809 89.624 55.126 89.3369C54.9756 89.0452 54.9004 88.6533 54.9004 88.1611V80.8057ZM58.5576 86.3838V86.2266C58.5576 85.6934 58.6351 85.1989 58.79 84.7432C58.945 84.2829 59.1683 83.8841 59.46 83.5469C59.7516 83.2051 60.1048 82.9408 60.5195 82.7539C60.9342 82.5625 61.3991 82.4668 61.9141 82.4668C62.4336 82.4668 62.9007 82.5625 63.3154 82.7539C63.7347 82.9408 64.0902 83.2051 64.3818 83.5469C64.6781 83.8841 64.9036 84.2829 65.0586 84.7432C65.2135 85.1989 65.291 85.6934 65.291 86.2266V86.3838C65.291 86.917 65.2135 87.4115 65.0586 87.8672C64.9036 88.3229 64.6781 88.7217 64.3818 89.0635C64.0902 89.4007 63.737 89.665 63.3223 89.8564C62.9121 90.0433 62.4473 90.1367 61.9277 90.1367C61.4082 90.1367 60.9411 90.0433 60.5264 89.8564C60.1117 89.665 59.7562 89.4007 59.46 89.0635C59.1683 88.7217 58.945 88.3229 58.79 87.8672C58.6351 87.4115 58.5576 86.917 58.5576 86.3838ZM59.8223 86.2266V86.3838C59.8223 86.7529 59.8656 87.1016 59.9521 87.4297C60.0387 87.7533 60.1686 88.0404 60.3418 88.291C60.5195 88.5417 60.7406 88.7399 61.0049 88.8857C61.2692 89.027 61.5768 89.0977 61.9277 89.0977C62.2741 89.0977 62.5771 89.027 62.8369 88.8857C63.1012 88.7399 63.32 88.5417 63.4932 88.291C63.6663 88.0404 63.7962 87.7533 63.8828 87.4297C63.974 87.1016 64.0195 86.7529 64.0195 86.3838V86.2266C64.0195 85.862 63.974 85.5179 63.8828 85.1943C63.7962 84.8662 63.6641 84.5768 63.4863 84.3262C63.3132 84.071 63.0944 83.8704 62.8301 83.7246C62.5703 83.5788 62.265 83.5059 61.9141 83.5059C61.5677 83.5059 61.2624 83.5788 60.998 83.7246C60.7383 83.8704 60.5195 84.071 60.3418 84.3262C60.1686 84.5768 60.0387 84.8662 59.9521 85.1943C59.8656 85.5179 59.8223 85.862 59.8223 86.2266ZM68.1348 84.0732V90H66.8633V82.6035H68.0664L68.1348 84.0732ZM67.875 86.0215L67.2871 86.001C67.2917 85.4951 67.3577 85.028 67.4854 84.5996C67.613 84.1667 67.8021 83.7907 68.0527 83.4717C68.3034 83.1527 68.6156 82.9066 68.9893 82.7334C69.363 82.5557 69.7959 82.4668 70.2881 82.4668C70.6344 82.4668 70.9535 82.5169 71.2451 82.6172C71.5368 82.7129 71.7897 82.8656 72.0039 83.0752C72.2181 83.2848 72.3844 83.5537 72.5029 83.8818C72.6214 84.21 72.6807 84.6064 72.6807 85.0713V90H71.416V85.1328C71.416 84.7454 71.3499 84.4355 71.2178 84.2031C71.0902 83.9707 70.9079 83.8021 70.6709 83.6973C70.4339 83.5879 70.1559 83.5332 69.8369 83.5332C69.4632 83.5332 69.151 83.5993 68.9004 83.7314C68.6497 83.8636 68.4492 84.0459 68.2988 84.2783C68.1484 84.5107 68.0391 84.7773 67.9707 85.0781C67.9069 85.3743 67.875 85.6888 67.875 86.0215ZM72.667 85.3242L71.8193 85.584C71.8239 85.1784 71.89 84.7887 72.0176 84.415C72.1497 84.0413 72.3389 83.7087 72.585 83.417C72.8356 83.1253 73.1432 82.8952 73.5078 82.7266C73.8724 82.5534 74.2894 82.4668 74.7588 82.4668C75.1553 82.4668 75.5062 82.5192 75.8115 82.624C76.1214 82.7288 76.3812 82.8906 76.5908 83.1094C76.805 83.3236 76.9668 83.5993 77.0762 83.9365C77.1855 84.2738 77.2402 84.6748 77.2402 85.1396V90H75.9688V85.126C75.9688 84.7113 75.9027 84.39 75.7705 84.1621C75.6429 83.9297 75.4606 83.7679 75.2236 83.6768C74.9912 83.5811 74.7132 83.5332 74.3896 83.5332C74.1117 83.5332 73.8656 83.5811 73.6514 83.6768C73.4372 83.7725 73.2572 83.9046 73.1113 84.0732C72.9655 84.2373 72.8538 84.4264 72.7764 84.6406C72.7035 84.8548 72.667 85.0827 72.667 85.3242ZM82.2236 90.1367C81.7087 90.1367 81.2415 90.0501 80.8223 89.877C80.4076 89.6992 80.0498 89.4508 79.749 89.1318C79.4528 88.8128 79.2249 88.4346 79.0654 87.9971C78.9059 87.5596 78.8262 87.0811 78.8262 86.5615V86.2744C78.8262 85.6729 78.915 85.1374 79.0928 84.668C79.2705 84.194 79.512 83.793 79.8174 83.4648C80.1227 83.1367 80.4691 82.8883 80.8564 82.7197C81.2438 82.5511 81.6449 82.4668 82.0596 82.4668C82.5882 82.4668 83.0439 82.5579 83.4268 82.7402C83.8141 82.9225 84.1309 83.1777 84.377 83.5059C84.623 83.8294 84.8053 84.2122 84.9238 84.6543C85.0423 85.0918 85.1016 85.5703 85.1016 86.0898V86.6572H79.5781V85.625H83.8369V85.5293C83.8187 85.2012 83.7503 84.8822 83.6318 84.5723C83.5179 84.2624 83.3356 84.0072 83.085 83.8066C82.8343 83.6061 82.4925 83.5059 82.0596 83.5059C81.7725 83.5059 81.5081 83.5674 81.2666 83.6904C81.0251 83.8089 80.8177 83.9867 80.6445 84.2236C80.4714 84.4606 80.3369 84.75 80.2412 85.0918C80.1455 85.4336 80.0977 85.8278 80.0977 86.2744V86.5615C80.0977 86.9124 80.1455 87.2428 80.2412 87.5527C80.3415 87.8581 80.485 88.127 80.6719 88.3594C80.8633 88.5918 81.0934 88.7741 81.3623 88.9062C81.6357 89.0384 81.9456 89.1045 82.292 89.1045C82.7386 89.1045 83.1169 89.0133 83.4268 88.8311C83.7367 88.6488 84.0078 88.4049 84.2402 88.0996L85.0059 88.708C84.8464 88.9495 84.6436 89.1797 84.3975 89.3984C84.1514 89.6172 83.8483 89.7949 83.4883 89.9316C83.1328 90.0684 82.7113 90.1367 82.2236 90.1367ZM87.8428 83.7656V90H86.5781V82.6035H87.8086L87.8428 83.7656ZM90.1533 82.5625L90.1465 83.7383C90.0417 83.7155 89.9414 83.7018 89.8457 83.6973C89.7546 83.6882 89.6497 83.6836 89.5312 83.6836C89.2396 83.6836 88.9821 83.7292 88.7588 83.8203C88.5355 83.9115 88.3464 84.0391 88.1914 84.2031C88.0365 84.3672 87.9134 84.5632 87.8223 84.791C87.7357 85.0143 87.6787 85.2604 87.6514 85.5293L87.2959 85.7344C87.2959 85.2878 87.3392 84.8685 87.4258 84.4766C87.5169 84.0846 87.6559 83.7383 87.8428 83.4375C88.0296 83.1322 88.2666 82.8952 88.5537 82.7266C88.8454 82.5534 89.1917 82.4668 89.5928 82.4668C89.6839 82.4668 89.7887 82.4782 89.9072 82.501C90.0257 82.5192 90.1077 82.5397 90.1533 82.5625ZM95.6289 88.0381C95.6289 87.8558 95.5879 87.6872 95.5059 87.5322C95.4284 87.3727 95.2666 87.2292 95.0205 87.1016C94.779 86.9694 94.4144 86.8555 93.9268 86.7598C93.5166 86.6732 93.1452 86.5706 92.8125 86.4521C92.4844 86.3337 92.2041 86.1901 91.9717 86.0215C91.7438 85.8529 91.5684 85.6546 91.4453 85.4268C91.3223 85.1989 91.2607 84.9323 91.2607 84.627C91.2607 84.3353 91.3245 84.0596 91.4521 83.7998C91.5843 83.54 91.7689 83.3099 92.0059 83.1094C92.2474 82.9089 92.5368 82.7516 92.874 82.6377C93.2113 82.5238 93.5872 82.4668 94.002 82.4668C94.5944 82.4668 95.1003 82.5716 95.5195 82.7812C95.9388 82.9909 96.2601 83.2712 96.4834 83.6221C96.7067 83.9684 96.8184 84.3535 96.8184 84.7773H95.5537C95.5537 84.5723 95.4922 84.374 95.3691 84.1826C95.2507 83.9867 95.0752 83.8249 94.8428 83.6973C94.6149 83.5697 94.3346 83.5059 94.002 83.5059C93.651 83.5059 93.3662 83.5605 93.1475 83.6699C92.9333 83.7747 92.776 83.9092 92.6758 84.0732C92.5801 84.2373 92.5322 84.4105 92.5322 84.5928C92.5322 84.7295 92.555 84.8525 92.6006 84.9619C92.6507 85.0667 92.7373 85.1647 92.8604 85.2559C92.9834 85.3424 93.1566 85.4245 93.3799 85.502C93.6032 85.5794 93.888 85.6569 94.2344 85.7344C94.8405 85.8711 95.3395 86.0352 95.7314 86.2266C96.1234 86.418 96.415 86.6527 96.6064 86.9307C96.7979 87.2087 96.8936 87.5459 96.8936 87.9424C96.8936 88.266 96.8252 88.5622 96.6885 88.8311C96.5563 89.0999 96.3626 89.3324 96.1074 89.5283C95.8568 89.7197 95.556 89.8701 95.2051 89.9795C94.8587 90.0843 94.4691 90.1367 94.0361 90.1367C93.3844 90.1367 92.833 90.0205 92.3818 89.7881C91.9307 89.5557 91.5889 89.2549 91.3564 88.8857C91.124 88.5166 91.0078 88.127 91.0078 87.7168H92.2793C92.2975 88.0632 92.3978 88.3389 92.5801 88.5439C92.7624 88.7445 92.9857 88.888 93.25 88.9746C93.5143 89.0566 93.7764 89.0977 94.0361 89.0977C94.3825 89.0977 94.6719 89.0521 94.9043 88.9609C95.1413 88.8698 95.3213 88.7445 95.4443 88.585C95.5674 88.4255 95.6289 88.2432 95.6289 88.0381Z" fill="#0A2540"/> -->
<g filter="url(#filter1_d_4716_6491)">
<rect x="160" y="90" width="96" height="96" rx="8" stroke="#C8D0DB"/>
</g>
<mask id="mask0_4716_6491" style="mask-type:luminance" maskUnits="userSpaceOnUse" x="196" y="100" width="24" height="24">
<path d="M220 100H196V124H220V100Z" stroke="#fff"/>
</mask>
<g >
<path d="M215.5 100.5H202.5C201.119 100.5 200 101.62 200 103V119.636C200 121.124 199.299 122.525 198.109 123.418L198 123.5H211L211.109 123.418C212.299 122.525 213 121.124 213 119.636V103.143C212.972 101.825 213.936 100.695 215.242 100.513C215.946 100.44 216.648 100.669 217.174 101.143C217.7 101.618 218 102.292 218 103V106.5C218 107.053 217.552 107.5 217 107.5H213" stroke="#20336B" stroke-linecap="round" stroke-linejoin="round"/>
<path d="M202.5 104.5H205" stroke="#00BAF2" stroke-linecap="round" stroke-linejoin="round"/>
<path d="M204.5 107.5H210" stroke="#00BAF2" stroke-linecap="round" stroke-linejoin="round"/>
<path d="M202.5 110.5H210" stroke="#00BAF2" stroke-linecap="round" stroke-linejoin="round"/>
<path d="M202.5 113.5H210" stroke="#00BAF2" stroke-linecap="round" stroke-linejoin="round"/>
<path d="M202.5 116.5H207" stroke="#00BAF2" stroke-linecap="round" stroke-linejoin="round"/>
<path d="M202.5 116.5H210" stroke="#00BAF2" stroke-linecap="round" stroke-linejoin="round"/>
<path d="M202.5 119.5H207" stroke="#00BAF2" stroke-linecap="round" stroke-linejoin="round"/>
</g>
<!-- <path d="M199.749 144.927V146H194.772V144.927H199.749ZM195.032 136.047V146H193.713V136.047H195.032ZM200.733 142.384V142.227C200.733 141.693 200.811 141.199 200.966 140.743C201.121 140.283 201.344 139.884 201.636 139.547C201.927 139.205 202.281 138.941 202.695 138.754C203.11 138.562 203.575 138.467 204.09 138.467C204.609 138.467 205.076 138.562 205.491 138.754C205.91 138.941 206.266 139.205 206.558 139.547C206.854 139.884 207.079 140.283 207.234 140.743C207.389 141.199 207.467 141.693 207.467 142.227V142.384C207.467 142.917 207.389 143.411 207.234 143.867C207.079 144.323 206.854 144.722 206.558 145.063C206.266 145.401 205.913 145.665 205.498 145.856C205.088 146.043 204.623 146.137 204.104 146.137C203.584 146.137 203.117 146.043 202.702 145.856C202.287 145.665 201.932 145.401 201.636 145.063C201.344 144.722 201.121 144.323 200.966 143.867C200.811 143.411 200.733 142.917 200.733 142.384ZM201.998 142.227V142.384C201.998 142.753 202.041 143.102 202.128 143.43C202.215 143.753 202.344 144.04 202.518 144.291C202.695 144.542 202.916 144.74 203.181 144.886C203.445 145.027 203.753 145.098 204.104 145.098C204.45 145.098 204.753 145.027 205.013 144.886C205.277 144.74 205.496 144.542 205.669 144.291C205.842 144.04 205.972 143.753 206.059 143.43C206.15 143.102 206.195 142.753 206.195 142.384V142.227C206.195 141.862 206.15 141.518 206.059 141.194C205.972 140.866 205.84 140.577 205.662 140.326C205.489 140.071 205.27 139.87 205.006 139.725C204.746 139.579 204.441 139.506 204.09 139.506C203.743 139.506 203.438 139.579 203.174 139.725C202.914 139.87 202.695 140.071 202.518 140.326C202.344 140.577 202.215 140.866 202.128 141.194C202.041 141.518 201.998 141.862 201.998 142.227ZM213.414 144.735V140.928C213.414 140.636 213.355 140.383 213.236 140.169C213.122 139.95 212.949 139.782 212.717 139.663C212.484 139.545 212.197 139.485 211.855 139.485C211.536 139.485 211.256 139.54 211.015 139.649C210.778 139.759 210.591 139.902 210.454 140.08C210.322 140.258 210.256 140.449 210.256 140.654H208.991C208.991 140.39 209.06 140.128 209.196 139.868C209.333 139.608 209.529 139.374 209.784 139.164C210.044 138.95 210.354 138.781 210.714 138.658C211.078 138.531 211.484 138.467 211.931 138.467C212.468 138.467 212.942 138.558 213.353 138.74C213.767 138.923 214.091 139.198 214.323 139.567C214.56 139.932 214.679 140.39 214.679 140.941V144.387C214.679 144.633 214.699 144.895 214.74 145.173C214.786 145.451 214.852 145.69 214.938 145.891V146H213.619C213.555 145.854 213.505 145.66 213.469 145.419C213.432 145.173 213.414 144.945 213.414 144.735ZM213.633 141.516L213.646 142.404H212.368C212.008 142.404 211.687 142.434 211.404 142.493C211.122 142.548 210.885 142.632 210.693 142.746C210.502 142.86 210.356 143.004 210.256 143.177C210.156 143.345 210.105 143.544 210.105 143.771C210.105 144.004 210.158 144.216 210.263 144.407C210.368 144.599 210.525 144.751 210.734 144.865C210.949 144.975 211.211 145.029 211.521 145.029C211.908 145.029 212.25 144.947 212.546 144.783C212.842 144.619 213.077 144.419 213.25 144.182C213.428 143.945 213.523 143.715 213.537 143.491L214.077 144.1C214.045 144.291 213.959 144.503 213.817 144.735C213.676 144.968 213.487 145.191 213.25 145.405C213.018 145.615 212.74 145.79 212.416 145.932C212.097 146.068 211.737 146.137 211.336 146.137C210.835 146.137 210.395 146.039 210.017 145.843C209.643 145.647 209.351 145.385 209.142 145.057C208.937 144.724 208.834 144.353 208.834 143.942C208.834 143.546 208.911 143.197 209.066 142.896C209.221 142.591 209.445 142.338 209.736 142.138C210.028 141.933 210.379 141.778 210.789 141.673C211.199 141.568 211.657 141.516 212.163 141.516H213.633ZM217.933 140.183V146H216.668V138.604H217.864L217.933 140.183ZM217.632 142.021L217.105 142.001C217.11 141.495 217.185 141.028 217.331 140.6C217.477 140.167 217.682 139.791 217.946 139.472C218.211 139.153 218.525 138.907 218.89 138.733C219.259 138.556 219.667 138.467 220.113 138.467C220.478 138.467 220.806 138.517 221.098 138.617C221.389 138.713 221.638 138.868 221.843 139.082C222.052 139.296 222.212 139.574 222.321 139.916C222.431 140.253 222.485 140.666 222.485 141.153V146H221.214V141.14C221.214 140.752 221.157 140.442 221.043 140.21C220.929 139.973 220.763 139.802 220.544 139.697C220.325 139.588 220.056 139.533 219.737 139.533C219.423 139.533 219.136 139.599 218.876 139.731C218.621 139.864 218.4 140.046 218.213 140.278C218.031 140.511 217.887 140.777 217.782 141.078C217.682 141.374 217.632 141.689 217.632 142.021ZM182.194 161.484C182.194 161.252 182.158 161.047 182.085 160.869C182.017 160.687 181.894 160.523 181.716 160.377C181.543 160.231 181.301 160.092 180.991 159.96C180.686 159.828 180.299 159.693 179.829 159.557C179.337 159.411 178.893 159.249 178.496 159.071C178.1 158.889 177.76 158.682 177.478 158.449C177.195 158.217 176.979 157.95 176.828 157.649C176.678 157.349 176.603 157.005 176.603 156.617C176.603 156.23 176.682 155.872 176.842 155.544C177.001 155.216 177.229 154.931 177.525 154.689C177.826 154.443 178.184 154.252 178.599 154.115C179.013 153.979 179.476 153.91 179.986 153.91C180.734 153.91 181.367 154.054 181.887 154.341C182.411 154.623 182.81 154.995 183.083 155.455C183.356 155.911 183.493 156.398 183.493 156.918H182.181C182.181 156.544 182.101 156.214 181.941 155.927C181.782 155.635 181.54 155.407 181.217 155.243C180.893 155.075 180.483 154.99 179.986 154.99C179.517 154.99 179.13 155.061 178.824 155.202C178.519 155.343 178.291 155.535 178.141 155.776C177.995 156.018 177.922 156.294 177.922 156.604C177.922 156.813 177.965 157.005 178.052 157.178C178.143 157.346 178.282 157.504 178.469 157.649C178.66 157.795 178.902 157.93 179.193 158.053C179.49 158.176 179.843 158.294 180.253 158.408C180.818 158.568 181.306 158.745 181.716 158.941C182.126 159.137 182.463 159.358 182.728 159.604C182.996 159.846 183.195 160.122 183.322 160.432C183.454 160.737 183.521 161.083 183.521 161.471C183.521 161.876 183.438 162.243 183.274 162.571C183.11 162.899 182.876 163.18 182.57 163.412C182.265 163.645 181.898 163.825 181.47 163.952C181.046 164.075 180.572 164.137 180.048 164.137C179.588 164.137 179.134 164.073 178.688 163.945C178.245 163.818 177.842 163.626 177.478 163.371C177.118 163.116 176.828 162.801 176.609 162.428C176.395 162.049 176.288 161.612 176.288 161.115H177.601C177.601 161.457 177.667 161.751 177.799 161.997C177.931 162.239 178.111 162.439 178.339 162.599C178.571 162.758 178.833 162.877 179.125 162.954C179.421 163.027 179.729 163.063 180.048 163.063C180.508 163.063 180.898 163 181.217 162.872C181.536 162.744 181.777 162.562 181.941 162.325C182.11 162.088 182.194 161.808 182.194 161.484ZM188.107 156.604V157.574H184.108V156.604H188.107ZM185.462 154.806H186.727V162.168C186.727 162.419 186.765 162.608 186.843 162.735C186.92 162.863 187.021 162.947 187.144 162.988C187.267 163.029 187.399 163.05 187.54 163.05C187.645 163.05 187.754 163.041 187.868 163.022C187.987 163 188.076 162.981 188.135 162.968L188.142 164C188.041 164.032 187.909 164.062 187.745 164.089C187.586 164.121 187.392 164.137 187.164 164.137C186.854 164.137 186.569 164.075 186.31 163.952C186.05 163.829 185.842 163.624 185.688 163.337C185.537 163.045 185.462 162.653 185.462 162.161V154.806ZM193.952 162.735V158.928C193.952 158.636 193.893 158.383 193.774 158.169C193.66 157.95 193.487 157.782 193.255 157.663C193.022 157.545 192.735 157.485 192.394 157.485C192.075 157.485 191.794 157.54 191.553 157.649C191.316 157.759 191.129 157.902 190.992 158.08C190.86 158.258 190.794 158.449 190.794 158.654H189.529C189.529 158.39 189.598 158.128 189.734 157.868C189.871 157.608 190.067 157.374 190.322 157.164C190.582 156.95 190.892 156.781 191.252 156.658C191.617 156.531 192.022 156.467 192.469 156.467C193.007 156.467 193.48 156.558 193.891 156.74C194.305 156.923 194.629 157.198 194.861 157.567C195.098 157.932 195.217 158.39 195.217 158.941V162.387C195.217 162.633 195.237 162.895 195.278 163.173C195.324 163.451 195.39 163.69 195.477 163.891V164H194.157C194.093 163.854 194.043 163.66 194.007 163.419C193.97 163.173 193.952 162.945 193.952 162.735ZM194.171 159.516L194.185 160.404H192.906C192.546 160.404 192.225 160.434 191.942 160.493C191.66 160.548 191.423 160.632 191.231 160.746C191.04 160.86 190.894 161.004 190.794 161.177C190.694 161.345 190.644 161.544 190.644 161.771C190.644 162.004 190.696 162.216 190.801 162.407C190.906 162.599 191.063 162.751 191.272 162.865C191.487 162.975 191.749 163.029 192.059 163.029C192.446 163.029 192.788 162.947 193.084 162.783C193.38 162.619 193.615 162.419 193.788 162.182C193.966 161.945 194.062 161.715 194.075 161.491L194.615 162.1C194.583 162.291 194.497 162.503 194.355 162.735C194.214 162.968 194.025 163.191 193.788 163.405C193.556 163.615 193.278 163.79 192.954 163.932C192.635 164.068 192.275 164.137 191.874 164.137C191.373 164.137 190.933 164.039 190.555 163.843C190.181 163.647 189.889 163.385 189.68 163.057C189.475 162.724 189.372 162.353 189.372 161.942C189.372 161.546 189.45 161.197 189.604 160.896C189.759 160.591 189.983 160.338 190.274 160.138C190.566 159.933 190.917 159.778 191.327 159.673C191.737 159.568 192.195 159.516 192.701 159.516H194.171ZM200.303 156.604V157.574H196.304V156.604H200.303ZM197.657 154.806H198.922V162.168C198.922 162.419 198.961 162.608 199.038 162.735C199.116 162.863 199.216 162.947 199.339 162.988C199.462 163.029 199.594 163.05 199.735 163.05C199.84 163.05 199.95 163.041 200.063 163.022C200.182 163 200.271 162.981 200.33 162.968L200.337 164C200.237 164.032 200.104 164.062 199.94 164.089C199.781 164.121 199.587 164.137 199.359 164.137C199.049 164.137 198.765 164.075 198.505 163.952C198.245 163.829 198.038 163.624 197.883 163.337C197.732 163.045 197.657 162.653 197.657 162.161V154.806ZM204.855 164.137C204.34 164.137 203.873 164.05 203.454 163.877C203.039 163.699 202.682 163.451 202.381 163.132C202.085 162.813 201.857 162.435 201.697 161.997C201.538 161.56 201.458 161.081 201.458 160.562V160.274C201.458 159.673 201.547 159.137 201.725 158.668C201.902 158.194 202.144 157.793 202.449 157.465C202.755 157.137 203.101 156.888 203.488 156.72C203.876 156.551 204.277 156.467 204.691 156.467C205.22 156.467 205.676 156.558 206.059 156.74C206.446 156.923 206.763 157.178 207.009 157.506C207.255 157.829 207.437 158.212 207.556 158.654C207.674 159.092 207.733 159.57 207.733 160.09V160.657H202.21V159.625H206.469V159.529C206.451 159.201 206.382 158.882 206.264 158.572C206.15 158.262 205.967 158.007 205.717 157.807C205.466 157.606 205.124 157.506 204.691 157.506C204.404 157.506 204.14 157.567 203.898 157.69C203.657 157.809 203.45 157.987 203.276 158.224C203.103 158.461 202.969 158.75 202.873 159.092C202.777 159.434 202.729 159.828 202.729 160.274V160.562C202.729 160.912 202.777 161.243 202.873 161.553C202.973 161.858 203.117 162.127 203.304 162.359C203.495 162.592 203.725 162.774 203.994 162.906C204.268 163.038 204.577 163.104 204.924 163.104C205.37 163.104 205.749 163.013 206.059 162.831C206.368 162.649 206.64 162.405 206.872 162.1L207.638 162.708C207.478 162.95 207.275 163.18 207.029 163.398C206.783 163.617 206.48 163.795 206.12 163.932C205.765 164.068 205.343 164.137 204.855 164.137ZM210.468 158.073V164H209.196V156.604H210.399L210.468 158.073ZM210.208 160.021L209.62 160.001C209.625 159.495 209.691 159.028 209.818 158.6C209.946 158.167 210.135 157.791 210.386 157.472C210.636 157.153 210.949 156.907 211.322 156.733C211.696 156.556 212.129 156.467 212.621 156.467C212.967 156.467 213.286 156.517 213.578 156.617C213.87 156.713 214.123 156.866 214.337 157.075C214.551 157.285 214.717 157.554 214.836 157.882C214.954 158.21 215.014 158.606 215.014 159.071V164H213.749V159.133C213.749 158.745 213.683 158.436 213.551 158.203C213.423 157.971 213.241 157.802 213.004 157.697C212.767 157.588 212.489 157.533 212.17 157.533C211.796 157.533 211.484 157.599 211.233 157.731C210.983 157.864 210.782 158.046 210.632 158.278C210.481 158.511 210.372 158.777 210.304 159.078C210.24 159.374 210.208 159.689 210.208 160.021ZM215 159.324L214.152 159.584C214.157 159.178 214.223 158.789 214.351 158.415C214.483 158.041 214.672 157.709 214.918 157.417C215.169 157.125 215.476 156.895 215.841 156.727C216.205 156.553 216.622 156.467 217.092 156.467C217.488 156.467 217.839 156.519 218.145 156.624C218.454 156.729 218.714 156.891 218.924 157.109C219.138 157.324 219.3 157.599 219.409 157.937C219.519 158.274 219.573 158.675 219.573 159.14V164H218.302V159.126C218.302 158.711 218.236 158.39 218.104 158.162C217.976 157.93 217.794 157.768 217.557 157.677C217.324 157.581 217.046 157.533 216.723 157.533C216.445 157.533 216.199 157.581 215.984 157.677C215.77 157.772 215.59 157.905 215.444 158.073C215.299 158.237 215.187 158.426 215.109 158.641C215.036 158.855 215 159.083 215 159.324ZM224.557 164.137C224.042 164.137 223.575 164.05 223.155 163.877C222.741 163.699 222.383 163.451 222.082 163.132C221.786 162.813 221.558 162.435 221.398 161.997C221.239 161.56 221.159 161.081 221.159 160.562V160.274C221.159 159.673 221.248 159.137 221.426 158.668C221.604 158.194 221.845 157.793 222.15 157.465C222.456 157.137 222.802 156.888 223.189 156.72C223.577 156.551 223.978 156.467 224.393 156.467C224.921 156.467 225.377 156.558 225.76 156.74C226.147 156.923 226.464 157.178 226.71 157.506C226.956 157.829 227.138 158.212 227.257 158.654C227.375 159.092 227.435 159.57 227.435 160.09V160.657H221.911V159.625H226.17V159.529C226.152 159.201 226.083 158.882 225.965 158.572C225.851 158.262 225.669 158.007 225.418 157.807C225.167 157.606 224.826 157.506 224.393 157.506C224.105 157.506 223.841 157.567 223.6 157.69C223.358 157.809 223.151 157.987 222.978 158.224C222.804 158.461 222.67 158.75 222.574 159.092C222.479 159.434 222.431 159.828 222.431 160.274V160.562C222.431 160.912 222.479 161.243 222.574 161.553C222.674 161.858 222.818 162.127 223.005 162.359C223.196 162.592 223.426 162.774 223.695 162.906C223.969 163.038 224.279 163.104 224.625 163.104C225.072 163.104 225.45 163.013 225.76 162.831C226.07 162.649 226.341 162.405 226.573 162.1L227.339 162.708C227.179 162.95 226.977 163.18 226.73 163.398C226.484 163.617 226.181 163.795 225.821 163.932C225.466 164.068 225.044 164.137 224.557 164.137ZM230.176 158.183V164H228.911V156.604H230.107L230.176 158.183ZM229.875 160.021L229.349 160.001C229.353 159.495 229.428 159.028 229.574 158.6C229.72 158.167 229.925 157.791 230.189 157.472C230.454 157.153 230.768 156.907 231.133 156.733C231.502 156.556 231.91 156.467 232.356 156.467C232.721 156.467 233.049 156.517 233.341 156.617C233.632 156.713 233.881 156.868 234.086 157.082C234.296 157.296 234.455 157.574 234.564 157.916C234.674 158.253 234.729 158.666 234.729 159.153V164H233.457V159.14C233.457 158.752 233.4 158.442 233.286 158.21C233.172 157.973 233.006 157.802 232.787 157.697C232.568 157.588 232.299 157.533 231.98 157.533C231.666 157.533 231.379 157.599 231.119 157.731C230.864 157.864 230.643 158.046 230.456 158.278C230.274 158.511 230.13 158.777 230.025 159.078C229.925 159.374 229.875 159.689 229.875 160.021ZM239.746 156.604V157.574H235.747V156.604H239.746ZM237.101 154.806H238.365V162.168C238.365 162.419 238.404 162.608 238.481 162.735C238.559 162.863 238.659 162.947 238.782 162.988C238.905 163.029 239.037 163.05 239.179 163.05C239.284 163.05 239.393 163.041 239.507 163.022C239.625 163 239.714 162.981 239.773 162.968L239.78 164C239.68 164.032 239.548 164.062 239.384 164.089C239.224 164.121 239.031 164.137 238.803 164.137C238.493 164.137 238.208 164.075 237.948 163.952C237.688 163.829 237.481 163.624 237.326 163.337C237.176 163.045 237.101 162.653 237.101 162.161V154.806Z" fill="#0A2540"/> -->
<g filter="url(#filter2_d_4716_6491)">
<rect x="592" y="10" width="96" height="96" rx="8" stroke="#C8D0DB"/>
</g>
<path d="M644.601 41.1609L644.447 41.3574L644.601 41.1609C644.423 41.0209 644.205 40.9441 643.979 40.9437H643.979H643.873C643.568 40.9419 643.272 40.8278 643.039 40.6196C642.806 40.4113 642.65 40.1222 642.602 39.8032C642.602 39.803 642.602 39.8028 642.602 39.8026L642.342 37.9995L642.311 37.7852H642.095H638.013H637.797L637.766 37.9995L637.506 39.8026C637.506 39.8028 637.506 39.803 637.506 39.8032C637.458 40.1222 637.302 40.4113 637.069 40.6196C636.836 40.8278 636.54 40.9419 636.236 40.9437L636.13 40.9437L636.129 40.9437C635.903 40.9441 635.685 41.0209 635.507 41.1609C635.329 41.3008 635.202 41.4958 635.142 41.7152L635.057 42.0306H635.384H644.725H645.051L644.966 41.7152C644.907 41.4958 644.779 41.3008 644.601 41.1609Z" stroke="#20336B" stroke-width="0.5"/>
<rect x="627.974" y="20.4" width="24.0516" height="17.5503" rx="1.6" stroke="#20336B" stroke-width="0.8"/>
<path d="M640.055 37.3061C640.414 37.3061 640.704 37.0154 640.704 36.6569C640.704 36.2984 640.414 36.0078 640.055 36.0078C639.697 36.0078 639.406 36.2984 639.406 36.6569C639.406 37.0154 639.697 37.3061 640.055 37.3061Z" fill="white"/>
<path d="M649.463 21.6246H649.463C649.82 21.625 650.163 21.7672 650.416 22.0198C650.668 22.2725 650.811 22.6151 650.811 22.9724V22.9725V34.3663V34.3664C650.811 34.7238 650.668 35.0663 650.416 35.319C650.163 35.5717 649.82 35.7138 649.463 35.7142H649.463H630.654H630.654C630.297 35.7138 629.954 35.5717 629.701 35.319C629.449 35.0663 629.307 34.7238 629.306 34.3664L629.306 34.3663L629.306 22.9725V22.9724C629.307 22.6151 629.449 22.2725 629.701 22.0198C629.954 21.7672 630.297 21.625 630.654 21.6246L630.654 21.6246L636.887 21.6246C636.969 21.6246 637.047 21.6571 637.105 21.7148C637.162 21.7726 637.195 21.8509 637.195 21.9326C637.195 22.0143 637.162 22.0926 637.105 22.1504C637.047 22.2081 636.969 22.2406 636.887 22.2406H630.654C630.46 22.2406 630.274 22.3177 630.137 22.455C629.999 22.5922 629.922 22.7784 629.922 22.9725V34.3663C629.922 34.5605 629.999 34.7466 630.137 34.8839C630.274 35.0212 630.46 35.0983 630.654 35.0983H649.463C649.657 35.0983 649.843 35.0212 649.981 34.8839C650.118 34.7466 650.195 34.5605 650.195 34.3663V22.9725C650.195 22.7784 650.118 22.5922 649.981 22.455C649.843 22.3177 649.657 22.2406 649.463 22.2406H640.579C640.497 22.2406 640.419 22.2081 640.361 22.1504C640.303 22.0926 640.271 22.0143 640.271 21.9326C640.271 21.8509 640.303 21.7726 640.361 21.7148M649.463 21.6246L640.361 21.7148C640.361 21.7148 640.361 21.7148 640.361 21.7148M649.463 21.6246H640.579M649.463 21.6246H640.579M640.361 21.7148C640.419 21.6571 640.497 21.6246 640.579 21.6246M640.361 21.7148L640.579 21.6246" fill="white" stroke="white" stroke-width="0.2"/>
<path d="M637.821 22.2406H639.589C639.671 22.2406 639.749 22.2081 639.807 22.1504C639.865 22.0926 639.897 22.0143 639.897 21.9326C639.897 21.8509 639.865 21.7726 639.807 21.7148C639.749 21.6571 639.671 21.6246 639.589 21.6246H637.821C637.74 21.6246 637.661 21.6571 637.603 21.7148C637.546 21.7726 637.513 21.8509 637.513 21.9326C637.513 22.0143 637.546 22.0926 637.603 22.1504C637.661 22.2081 637.74 22.2406 637.821 22.2406Z" fill="white" stroke="white" stroke-width="0.2"/>
<path d="M635.328 24.3699H635.328C634.476 24.3699 633.643 24.6226 632.935 25.0959C632.226 25.5693 631.674 26.2421 631.348 27.0292C631.022 27.8164 630.937 28.6826 631.103 29.5182C631.269 30.3538 631.68 31.1214 632.282 31.7239C632.885 32.3264 633.652 32.7366 634.488 32.9029C635.323 33.0691 636.19 32.9838 636.977 32.6577C637.764 32.3317 638.437 31.7795 638.91 31.0711C639.383 30.3627 639.636 29.5298 639.636 28.6778V28.6777C639.635 27.5356 639.18 26.4407 638.373 25.6331C637.565 24.8255 636.47 24.3712 635.328 24.3699ZM631.537 28.6779L631.537 28.6778C631.538 27.708 631.91 26.7752 632.577 26.071C633.231 25.3796 634.122 24.96 635.07 24.8941V28.6362L633.894 32.1878C633.205 31.9074 632.614 31.4299 632.194 30.8146C631.765 30.1849 631.536 29.4401 631.537 28.6779ZM635.328 32.4695C635.01 32.4695 634.693 32.4294 634.384 32.35L635.514 28.9358H639.111C639.045 29.8843 638.626 30.7743 637.934 31.429C637.23 32.0959 636.298 32.4681 635.328 32.4695ZM635.586 28.4198V24.8941C636.5 24.9576 637.36 25.3491 638.008 25.9974C638.657 26.6458 639.048 27.5063 639.111 28.4198H635.586ZM640.573 32.7802H648.789C648.857 32.7802 648.923 32.753 648.971 32.7046C649.02 32.6562 649.047 32.5906 649.047 32.5222C649.047 32.4537 649.02 32.3881 648.971 32.3397C648.923 32.2914 648.857 32.2642 648.789 32.2642H647.903V28.7938C647.903 28.7254 647.876 28.6598 647.827 28.6114C647.779 28.563 647.713 28.5359 647.645 28.5359H646.241C646.172 28.5359 646.107 28.563 646.058 28.6114C646.01 28.6598 645.983 28.7254 645.983 28.7938V32.2642H645.615V26.09C645.615 26.0216 645.588 25.956 645.539 25.9076C645.491 25.8592 645.425 25.8321 645.357 25.8321H643.953C643.885 25.8321 643.819 25.8592 643.771 25.9076C643.722 25.956 643.695 26.0216 643.695 26.09V32.2642H643.327V27.7539C643.327 27.6855 643.3 27.6199 643.252 27.5715C643.203 27.5231 643.138 27.4959 643.069 27.4959H641.665C641.597 27.4959 641.531 27.5231 641.483 27.5715C641.434 27.6199 641.407 27.6855 641.407 27.7539V32.2642H640.831V24.8176C640.831 24.7492 640.804 24.6835 640.756 24.6352C640.707 24.5868 640.642 24.5596 640.573 24.5596C640.505 24.5596 640.439 24.5868 640.391 24.6352C640.343 24.6835 640.315 24.7492 640.315 24.8176V32.5222C640.315 32.5906 640.343 32.6562 640.391 32.7046C640.439 32.753 640.505 32.7802 640.573 32.7802ZM646.499 29.0518H647.387V32.2642H646.499V29.0518ZM644.211 26.348H645.099V32.2642H644.211V26.348ZM641.923 28.0119H642.811V32.2642H641.923V28.0119Z" fill="#3FAFE9" stroke="#3FAFE9" stroke-width="0.1"/>
<!-- <path d="M615.835 63.1572V64.2305H610.858V63.1572H615.835ZM611.118 54.2773V64.2305H609.799V54.2773H611.118ZM616.819 60.6143V60.457C616.819 59.9238 616.897 59.4294 617.052 58.9736C617.207 58.5133 617.43 58.1146 617.722 57.7773C618.013 57.4355 618.367 57.1712 618.781 56.9844C619.196 56.793 619.661 56.6973 620.176 56.6973C620.695 56.6973 621.162 56.793 621.577 56.9844C621.996 57.1712 622.352 57.4355 622.644 57.7773C622.94 58.1146 623.165 58.5133 623.32 58.9736C623.475 59.4294 623.553 59.9238 623.553 60.457V60.6143C623.553 61.1475 623.475 61.6419 623.32 62.0977C623.165 62.5534 622.94 62.9521 622.644 63.2939C622.352 63.6312 621.999 63.8955 621.584 64.0869C621.174 64.2738 620.709 64.3672 620.189 64.3672C619.67 64.3672 619.203 64.2738 618.788 64.0869C618.373 63.8955 618.018 63.6312 617.722 63.2939C617.43 62.9521 617.207 62.5534 617.052 62.0977C616.897 61.6419 616.819 61.1475 616.819 60.6143ZM618.084 60.457V60.6143C618.084 60.9834 618.127 61.332 618.214 61.6602C618.3 61.9837 618.43 62.2708 618.604 62.5215C618.781 62.7721 619.002 62.9704 619.267 63.1162C619.531 63.2575 619.839 63.3281 620.189 63.3281C620.536 63.3281 620.839 63.2575 621.099 63.1162C621.363 62.9704 621.582 62.7721 621.755 62.5215C621.928 62.2708 622.058 61.9837 622.145 61.6602C622.236 61.332 622.281 60.9834 622.281 60.6143V60.457C622.281 60.0924 622.236 59.7484 622.145 59.4248C622.058 59.0967 621.926 58.8073 621.748 58.5566C621.575 58.3014 621.356 58.1009 621.092 57.9551C620.832 57.8092 620.527 57.7363 620.176 57.7363C619.829 57.7363 619.524 57.8092 619.26 57.9551C619 58.1009 618.781 58.3014 618.604 58.5566C618.43 58.8073 618.3 59.0967 618.214 59.4248C618.127 59.7484 618.084 60.0924 618.084 60.457ZM629.5 62.9658V59.1582C629.5 58.8665 629.441 58.6136 629.322 58.3994C629.208 58.1807 629.035 58.012 628.803 57.8936C628.57 57.7751 628.283 57.7158 627.941 57.7158C627.622 57.7158 627.342 57.7705 627.101 57.8799C626.864 57.9893 626.677 58.1328 626.54 58.3105C626.408 58.4883 626.342 58.6797 626.342 58.8848H625.077C625.077 58.6204 625.146 58.3584 625.282 58.0986C625.419 57.8389 625.615 57.6042 625.87 57.3945C626.13 57.1803 626.44 57.0117 626.8 56.8887C627.164 56.7611 627.57 56.6973 628.017 56.6973C628.554 56.6973 629.028 56.7884 629.438 56.9707C629.853 57.153 630.177 57.4287 630.409 57.7979C630.646 58.1624 630.765 58.6204 630.765 59.1719V62.6172C630.765 62.8633 630.785 63.1253 630.826 63.4033C630.872 63.6813 630.938 63.9206 631.024 64.1211V64.2305H629.705C629.641 64.0846 629.591 63.891 629.555 63.6494C629.518 63.4033 629.5 63.1755 629.5 62.9658ZM629.719 59.7461L629.732 60.6348H628.454C628.094 60.6348 627.773 60.6644 627.49 60.7236C627.208 60.7783 626.971 60.8626 626.779 60.9766C626.588 61.0905 626.442 61.234 626.342 61.4072C626.242 61.5758 626.191 61.7741 626.191 62.002C626.191 62.2344 626.244 62.4463 626.349 62.6377C626.453 62.8291 626.611 62.9818 626.82 63.0957C627.035 63.2051 627.297 63.2598 627.606 63.2598C627.994 63.2598 628.336 63.1777 628.632 63.0137C628.928 62.8496 629.163 62.6491 629.336 62.4121C629.514 62.1751 629.609 61.945 629.623 61.7217L630.163 62.3301C630.131 62.5215 630.045 62.7334 629.903 62.9658C629.762 63.1982 629.573 63.4215 629.336 63.6357C629.104 63.8454 628.826 64.0208 628.502 64.1621C628.183 64.2988 627.823 64.3672 627.422 64.3672C626.921 64.3672 626.481 64.2692 626.103 64.0732C625.729 63.8773 625.437 63.6152 625.228 63.2871C625.022 62.9544 624.92 62.583 624.92 62.1729C624.92 61.7764 624.997 61.4277 625.152 61.127C625.307 60.8216 625.531 60.5687 625.822 60.3682C626.114 60.1631 626.465 60.0081 626.875 59.9033C627.285 59.7985 627.743 59.7461 628.249 59.7461H629.719ZM634.019 58.4131V64.2305H632.754V56.834H633.95L634.019 58.4131ZM633.718 60.252L633.191 60.2314C633.196 59.7256 633.271 59.2585 633.417 58.8301C633.563 58.3971 633.768 58.0212 634.032 57.7021C634.297 57.3831 634.611 57.137 634.976 56.9639C635.345 56.7861 635.753 56.6973 636.199 56.6973C636.564 56.6973 636.892 56.7474 637.184 56.8477C637.475 56.9434 637.724 57.0983 637.929 57.3125C638.138 57.5267 638.298 57.8047 638.407 58.1465C638.517 58.4837 638.571 58.8962 638.571 59.3838V64.2305H637.3V59.3701C637.3 58.9827 637.243 58.6729 637.129 58.4404C637.015 58.2035 636.849 58.0326 636.63 57.9277C636.411 57.8184 636.142 57.7637 635.823 57.7637C635.509 57.7637 635.222 57.8298 634.962 57.9619C634.707 58.0941 634.486 58.2764 634.299 58.5088C634.117 58.7412 633.973 59.0078 633.868 59.3086C633.768 59.6048 633.718 59.9193 633.718 60.252ZM644.573 54.2773H645.852L649.112 62.3916L652.366 54.2773H653.651L649.604 64.2305H648.606L644.573 54.2773ZM644.156 54.2773H645.284L645.469 60.3477V64.2305H644.156V54.2773ZM652.934 54.2773H654.062V64.2305H652.749V60.3477L652.934 54.2773ZM660.979 56.834H662.128V64.0732C662.128 64.7249 661.996 65.2809 661.731 65.7412C661.467 66.2015 661.098 66.5501 660.624 66.7871C660.155 67.0286 659.612 67.1494 658.997 67.1494C658.742 67.1494 658.441 67.1084 658.095 67.0264C657.753 66.9489 657.416 66.8145 657.083 66.623C656.755 66.4362 656.479 66.1833 656.256 65.8643L656.919 65.1123C657.229 65.486 657.552 65.7458 657.89 65.8916C658.231 66.0374 658.569 66.1104 658.901 66.1104C659.302 66.1104 659.649 66.0352 659.94 65.8848C660.232 65.7344 660.458 65.5111 660.617 65.2148C660.781 64.9232 660.863 64.5632 660.863 64.1348V58.4609L660.979 56.834ZM655.887 60.6143V60.4707C655.887 59.9056 655.953 59.3929 656.085 58.9326C656.222 58.4678 656.415 58.069 656.666 57.7363C656.921 57.4036 657.229 57.1484 657.589 56.9707C657.949 56.7884 658.354 56.6973 658.806 56.6973C659.271 56.6973 659.676 56.7793 660.022 56.9434C660.373 57.1029 660.67 57.3376 660.911 57.6475C661.157 57.9528 661.351 58.3219 661.492 58.7549C661.633 59.1878 661.731 59.6777 661.786 60.2246V60.8535C661.736 61.3958 661.638 61.8835 661.492 62.3164C661.351 62.7493 661.157 63.1185 660.911 63.4238C660.67 63.7292 660.373 63.9639 660.022 64.1279C659.672 64.2874 659.261 64.3672 658.792 64.3672C658.35 64.3672 657.949 64.2738 657.589 64.0869C657.233 63.9001 656.928 63.638 656.673 63.3008C656.418 62.9635 656.222 62.5671 656.085 62.1113C655.953 61.651 655.887 61.152 655.887 60.6143ZM657.151 60.4707V60.6143C657.151 60.9834 657.188 61.3298 657.261 61.6533C657.338 61.9769 657.454 62.2617 657.609 62.5078C657.769 62.7539 657.972 62.9476 658.218 63.0889C658.464 63.2256 658.758 63.2939 659.1 63.2939C659.519 63.2939 659.865 63.2051 660.139 63.0273C660.412 62.8496 660.629 62.6149 660.788 62.3232C660.952 62.0316 661.08 61.7148 661.171 61.373V59.7256C661.121 59.4749 661.043 59.2334 660.938 59.001C660.838 58.764 660.706 58.5544 660.542 58.3721C660.382 58.1852 660.184 58.0371 659.947 57.9277C659.71 57.8184 659.432 57.7637 659.113 57.7637C658.767 57.7637 658.468 57.8366 658.218 57.9824C657.972 58.1237 657.769 58.3197 657.609 58.5703C657.454 58.8164 657.338 59.1035 657.261 59.4316C657.188 59.7552 657.151 60.1016 657.151 60.4707ZM667.146 56.834V57.8047H663.146V56.834H667.146ZM664.5 55.0361H665.765V62.3984C665.765 62.6491 665.803 62.8382 665.881 62.9658C665.958 63.0934 666.059 63.1777 666.182 63.2188C666.305 63.2598 666.437 63.2803 666.578 63.2803C666.683 63.2803 666.792 63.2712 666.906 63.2529C667.025 63.2301 667.114 63.2119 667.173 63.1982L667.18 64.2305C667.079 64.2624 666.947 64.292 666.783 64.3193C666.624 64.3512 666.43 64.3672 666.202 64.3672C665.892 64.3672 665.607 64.3057 665.348 64.1826C665.088 64.0596 664.881 63.8545 664.726 63.5674C664.575 63.2757 664.5 62.8838 664.5 62.3916V55.0361ZM668.649 63.5605C668.649 63.3464 668.715 63.1663 668.848 63.0205C668.984 62.8701 669.18 62.7949 669.436 62.7949C669.691 62.7949 669.884 62.8701 670.017 63.0205C670.153 63.1663 670.222 63.3464 670.222 63.5605C670.222 63.7702 670.153 63.9479 670.017 64.0938C669.884 64.2396 669.691 64.3125 669.436 64.3125C669.18 64.3125 668.984 64.2396 668.848 64.0938C668.715 63.9479 668.649 63.7702 668.649 63.5605ZM620.073 79.7148C620.073 79.4824 620.037 79.2773 619.964 79.0996C619.896 78.9173 619.772 78.7533 619.595 78.6074C619.422 78.4616 619.18 78.3226 618.87 78.1904C618.565 78.0583 618.177 77.9238 617.708 77.7871C617.216 77.6413 616.771 77.4795 616.375 77.3018C615.979 77.1195 615.639 76.9121 615.356 76.6797C615.074 76.4473 614.857 76.1807 614.707 75.8799C614.557 75.5791 614.481 75.235 614.481 74.8477C614.481 74.4603 614.561 74.1025 614.721 73.7744C614.88 73.4463 615.108 73.1615 615.404 72.9199C615.705 72.6738 616.063 72.4824 616.478 72.3457C616.892 72.209 617.355 72.1406 617.865 72.1406C618.613 72.1406 619.246 72.2842 619.766 72.5713C620.29 72.8538 620.688 73.2253 620.962 73.6855C621.235 74.1413 621.372 74.6289 621.372 75.1484H620.06C620.06 74.7747 619.98 74.4443 619.82 74.1572C619.661 73.8656 619.419 73.6377 619.096 73.4736C618.772 73.305 618.362 73.2207 617.865 73.2207C617.396 73.2207 617.008 73.2913 616.703 73.4326C616.398 73.5739 616.17 73.7653 616.02 74.0068C615.874 74.2484 615.801 74.5241 615.801 74.834C615.801 75.0436 615.844 75.235 615.931 75.4082C616.022 75.5768 616.161 75.734 616.348 75.8799C616.539 76.0257 616.781 76.1602 617.072 76.2832C617.368 76.4062 617.722 76.5247 618.132 76.6387C618.697 76.7982 619.185 76.9759 619.595 77.1719C620.005 77.3678 620.342 77.5889 620.606 77.835C620.875 78.0765 621.074 78.3522 621.201 78.6621C621.333 78.9674 621.399 79.3138 621.399 79.7012C621.399 80.1068 621.317 80.4736 621.153 80.8018C620.989 81.1299 620.755 81.4102 620.449 81.6426C620.144 81.875 619.777 82.055 619.349 82.1826C618.925 82.3057 618.451 82.3672 617.927 82.3672C617.466 82.3672 617.013 82.3034 616.566 82.1758C616.124 82.0482 615.721 81.8568 615.356 81.6016C614.996 81.3464 614.707 81.0319 614.488 80.6582C614.274 80.2799 614.167 79.8424 614.167 79.3457H615.479C615.479 79.6875 615.546 79.9814 615.678 80.2275C615.81 80.4691 615.99 80.6696 616.218 80.8291C616.45 80.9886 616.712 81.1071 617.004 81.1846C617.3 81.2575 617.608 81.2939 617.927 81.2939C618.387 81.2939 618.777 81.2301 619.096 81.1025C619.415 80.9749 619.656 80.7926 619.82 80.5557C619.989 80.3187 620.073 80.0384 620.073 79.7148ZM625.959 82.3672C625.444 82.3672 624.977 82.2806 624.558 82.1074C624.143 81.9297 623.785 81.6813 623.484 81.3623C623.188 81.0433 622.96 80.665 622.801 80.2275C622.641 79.79 622.562 79.3115 622.562 78.792V78.5049C622.562 77.9033 622.65 77.3678 622.828 76.8984C623.006 76.4245 623.247 76.0234 623.553 75.6953C623.858 75.3672 624.204 75.1188 624.592 74.9502C624.979 74.7816 625.38 74.6973 625.795 74.6973C626.324 74.6973 626.779 74.7884 627.162 74.9707C627.549 75.153 627.866 75.4082 628.112 75.7363C628.358 76.0599 628.541 76.4427 628.659 76.8848C628.778 77.3223 628.837 77.8008 628.837 78.3203V78.8877H623.313V77.8555H627.572V77.7598C627.554 77.4316 627.486 77.1126 627.367 76.8027C627.253 76.4928 627.071 76.2376 626.82 76.0371C626.57 75.8366 626.228 75.7363 625.795 75.7363C625.508 75.7363 625.243 75.7979 625.002 75.9209C624.76 76.0394 624.553 76.2171 624.38 76.4541C624.207 76.6911 624.072 76.9805 623.977 77.3223C623.881 77.6641 623.833 78.0583 623.833 78.5049V78.792C623.833 79.1429 623.881 79.4733 623.977 79.7832C624.077 80.0885 624.22 80.3574 624.407 80.5898C624.599 80.8223 624.829 81.0046 625.098 81.1367C625.371 81.2689 625.681 81.335 626.027 81.335C626.474 81.335 626.852 81.2438 627.162 81.0615C627.472 80.8792 627.743 80.6354 627.976 80.3301L628.741 80.9385C628.582 81.18 628.379 81.4102 628.133 81.6289C627.887 81.8477 627.584 82.0254 627.224 82.1621C626.868 82.2988 626.447 82.3672 625.959 82.3672ZM631.578 75.9961V82.2305H630.313V74.834H631.544L631.578 75.9961ZM633.889 74.793L633.882 75.9688C633.777 75.946 633.677 75.9323 633.581 75.9277C633.49 75.9186 633.385 75.9141 633.267 75.9141C632.975 75.9141 632.717 75.9596 632.494 76.0508C632.271 76.1419 632.082 76.2695 631.927 76.4336C631.772 76.5977 631.649 76.7936 631.558 77.0215C631.471 77.2448 631.414 77.4909 631.387 77.7598L631.031 77.9648C631.031 77.5182 631.075 77.099 631.161 76.707C631.252 76.3151 631.391 75.9688 631.578 75.668C631.765 75.3626 632.002 75.1257 632.289 74.957C632.581 74.7839 632.927 74.6973 633.328 74.6973C633.419 74.6973 633.524 74.7087 633.643 74.7314C633.761 74.7497 633.843 74.7702 633.889 74.793ZM637.43 81.0889L639.453 74.834H640.745L638.086 82.2305H637.238L637.43 81.0889ZM635.741 74.834L637.826 81.123L637.97 82.2305H637.122L634.442 74.834H635.741ZM643.336 74.834V82.2305H642.064V74.834H643.336ZM641.969 72.8721C641.969 72.667 642.03 72.4938 642.153 72.3525C642.281 72.2113 642.468 72.1406 642.714 72.1406C642.955 72.1406 643.14 72.2113 643.268 72.3525C643.4 72.4938 643.466 72.667 643.466 72.8721C643.466 73.068 643.4 73.2367 643.268 73.3779C643.14 73.5146 642.955 73.583 642.714 73.583C642.468 73.583 642.281 73.5146 642.153 73.3779C642.03 73.2367 641.969 73.068 641.969 72.8721ZM648.326 81.3281C648.627 81.3281 648.905 81.2666 649.16 81.1436C649.415 81.0205 649.625 80.8519 649.789 80.6377C649.953 80.4189 650.047 80.1706 650.069 79.8926H651.272C651.25 80.3301 651.102 80.738 650.828 81.1162C650.559 81.4899 650.206 81.793 649.769 82.0254C649.331 82.2533 648.85 82.3672 648.326 82.3672C647.77 82.3672 647.285 82.2692 646.87 82.0732C646.46 81.8773 646.118 81.6084 645.845 81.2666C645.576 80.9248 645.373 80.5329 645.236 80.0908C645.104 79.6442 645.038 79.1725 645.038 78.6758V78.3887C645.038 77.8919 645.104 77.4225 645.236 76.9805C645.373 76.5339 645.576 76.1396 645.845 75.7979C646.118 75.4561 646.46 75.1872 646.87 74.9912C647.285 74.7952 647.77 74.6973 648.326 74.6973C648.905 74.6973 649.411 74.8158 649.844 75.0527C650.277 75.2852 650.616 75.6042 650.862 76.0098C651.113 76.4108 651.25 76.8665 651.272 77.377H650.069C650.047 77.0716 649.96 76.7959 649.81 76.5498C649.664 76.3037 649.463 76.1077 649.208 75.9619C648.957 75.8115 648.663 75.7363 648.326 75.7363C647.939 75.7363 647.613 75.8138 647.349 75.9688C647.089 76.1191 646.882 76.3242 646.727 76.584C646.576 76.8392 646.467 77.124 646.398 77.4385C646.335 77.7484 646.303 78.0651 646.303 78.3887V78.6758C646.303 78.9993 646.335 79.3184 646.398 79.6328C646.462 79.9473 646.569 80.2321 646.72 80.4873C646.875 80.7425 647.082 80.9476 647.342 81.1025C647.606 81.2529 647.934 81.3281 648.326 81.3281ZM655.764 82.3672C655.249 82.3672 654.782 82.2806 654.362 82.1074C653.948 81.9297 653.59 81.6813 653.289 81.3623C652.993 81.0433 652.765 80.665 652.605 80.2275C652.446 79.79 652.366 79.3115 652.366 78.792V78.5049C652.366 77.9033 652.455 77.3678 652.633 76.8984C652.811 76.4245 653.052 76.0234 653.357 75.6953C653.663 75.3672 654.009 75.1188 654.396 74.9502C654.784 74.7816 655.185 74.6973 655.6 74.6973C656.128 74.6973 656.584 74.7884 656.967 74.9707C657.354 75.153 657.671 75.4082 657.917 75.7363C658.163 76.0599 658.345 76.4427 658.464 76.8848C658.582 77.3223 658.642 77.8008 658.642 78.3203V78.8877H653.118V77.8555H657.377V77.7598C657.359 77.4316 657.29 77.1126 657.172 76.8027C657.058 76.4928 656.876 76.2376 656.625 76.0371C656.374 75.8366 656.033 75.7363 655.6 75.7363C655.312 75.7363 655.048 75.7979 654.807 75.9209C654.565 76.0394 654.358 76.2171 654.185 76.4541C654.011 76.6911 653.877 76.9805 653.781 77.3223C653.686 77.6641 653.638 78.0583 653.638 78.5049V78.792C653.638 79.1429 653.686 79.4733 653.781 79.7832C653.882 80.0885 654.025 80.3574 654.212 80.5898C654.403 80.8223 654.633 81.0046 654.902 81.1367C655.176 81.2689 655.486 81.335 655.832 81.335C656.279 81.335 656.657 81.2438 656.967 81.0615C657.277 80.8792 657.548 80.6354 657.78 80.3301L658.546 80.9385C658.386 81.18 658.184 81.4102 657.938 81.6289C657.691 81.8477 657.388 82.0254 657.028 82.1621C656.673 82.2988 656.251 82.3672 655.764 82.3672ZM664.425 80.2686C664.425 80.0863 664.384 79.9176 664.302 79.7627C664.224 79.6032 664.062 79.4596 663.816 79.332C663.575 79.1999 663.21 79.0859 662.723 78.9902C662.312 78.9036 661.941 78.8011 661.608 78.6826C661.28 78.5641 661 78.4206 660.768 78.252C660.54 78.0833 660.364 77.8851 660.241 77.6572C660.118 77.4294 660.057 77.1628 660.057 76.8574C660.057 76.5658 660.12 76.29 660.248 76.0303C660.38 75.7705 660.565 75.5404 660.802 75.3398C661.043 75.1393 661.333 74.9821 661.67 74.8682C662.007 74.7542 662.383 74.6973 662.798 74.6973C663.39 74.6973 663.896 74.8021 664.315 75.0117C664.735 75.2214 665.056 75.5016 665.279 75.8525C665.503 76.1989 665.614 76.584 665.614 77.0078H664.35C664.35 76.8027 664.288 76.6045 664.165 76.4131C664.047 76.2171 663.871 76.0553 663.639 75.9277C663.411 75.8001 663.131 75.7363 662.798 75.7363C662.447 75.7363 662.162 75.791 661.943 75.9004C661.729 76.0052 661.572 76.1396 661.472 76.3037C661.376 76.4678 661.328 76.641 661.328 76.8232C661.328 76.96 661.351 77.083 661.396 77.1924C661.447 77.2972 661.533 77.3952 661.656 77.4863C661.779 77.5729 661.952 77.6549 662.176 77.7324C662.399 77.8099 662.684 77.8874 663.03 77.9648C663.636 78.1016 664.135 78.2656 664.527 78.457C664.919 78.6484 665.211 78.8831 665.402 79.1611C665.594 79.4391 665.689 79.7764 665.689 80.1729C665.689 80.4964 665.621 80.7926 665.484 81.0615C665.352 81.3304 665.159 81.5628 664.903 81.7588C664.653 81.9502 664.352 82.1006 664.001 82.21C663.655 82.3148 663.265 82.3672 662.832 82.3672C662.18 82.3672 661.629 82.251 661.178 82.0186C660.727 81.7861 660.385 81.4854 660.152 81.1162C659.92 80.7471 659.804 80.3574 659.804 79.9473H661.075C661.093 80.2936 661.194 80.5693 661.376 80.7744C661.558 80.9749 661.782 81.1185 662.046 81.2051C662.31 81.2871 662.572 81.3281 662.832 81.3281C663.178 81.3281 663.468 81.2826 663.7 81.1914C663.937 81.1003 664.117 80.9749 664.24 80.8154C664.363 80.6559 664.425 80.4736 664.425 80.2686Z" fill="#0A2540"/> -->
<defs>
<filter id="filter0_d_4716_6491" x="-26" y="0" width="180" height="180" filterUnits="userSpaceOnUse" color-interpolation-filters="sRGB">
<feFlood flood-opacity="0" result="BackgroundImageFix"/>
<feColorMatrix in="SourceAlpha" type="matrix" values="0 0 0 0 0 0 0 0 0 0 0 0 0 0 0 0 0 0 127 0" result="hardAlpha"/>
<feMorphology radius="12" operator="erode" in="SourceAlpha" result="effect1_dropShadow_4716_6491"/>
<feOffset dy="32"/>
<feGaussianBlur stdDeviation="27"/>
<feColorMatrix type="matrix" values="0 0 0 0 0.0627451 0 0 0 0 0.0980392 0 0 0 0 0.156863 0 0 0 0.18 0"/>
<feBlend mode="normal" in2="BackgroundImageFix" result="effect1_dropShadow_4716_6491"/>
<feBlend mode="normal" in="SourceGraphic" in2="effect1_dropShadow_4716_6491" result="shape"/>
</filter>
<filter id="filter1_d_4716_6491" x="118" y="80" width="180" height="180" filterUnits="userSpaceOnUse" color-interpolation-filters="sRGB">
<feFlood flood-opacity="0" result="BackgroundImageFix"/>
<feColorMatrix in="SourceAlpha" type="matrix" values="0 0 0 0 0 0 0 0 0 0 0 0 0 0 0 0 0 0 127 0" result="hardAlpha"/>
<feMorphology radius="12" operator="erode" in="SourceAlpha" result="effect1_dropShadow_4716_6491"/>
<feOffset dy="32"/>
<feGaussianBlur stdDeviation="27"/>
<feColorMatrix type="matrix" values="0 0 0 0 0.0627451 0 0 0 0 0.0980392 0 0 0 0 0.156863 0 0 0 0.18 0"/>
<feBlend mode="normal" in2="BackgroundImageFix" result="effect1_dropShadow_4716_6491"/>
<feBlend mode="normal" in="SourceGraphic" in2="effect1_dropShadow_4716_6491" result="shape"/>
</filter>
<filter id="filter2_d_4716_6491" x="550" y="0" width="180" height="180" filterUnits="userSpaceOnUse" color-interpolation-filters="sRGB">
<feFlood flood-opacity="0" result="BackgroundImageFix"/>
<feColorMatrix in="SourceAlpha" type="matrix" values="0 0 0 0 0 0 0 0 0 0 0 0 0 0 0 0 0 0 127 0" result="hardAlpha"/>
<feMorphology radius="12" operator="erode" in="SourceAlpha" result="effect1_dropShadow_4716_6491"/>
<feOffset dy="32"/>
<feGaussianBlur stdDeviation="27"/>
<feColorMatrix type="matrix" values="0 0 0 0 0.0627451 0 0 0 0 0.0980392 0 0 0 0 0.156863 0 0 0 0.18 0"/>
<feBlend mode="normal" in2="BackgroundImageFix" result="effect1_dropShadow_4716_6491"/>
<feBlend mode="normal" in="SourceGraphic" in2="effect1_dropShadow_4716_6491" result="shape"/>
</filter>
<radialGradient id="paint0_radial_4716_6491" cx="0" cy="0" r="1" gradientUnits="userSpaceOnUse" gradientTransform="translate(-23.463 122.58) rotate(9.00593) scale(649.326 669.33)">
<stop stop-color="#17D92A"/>
<stop offset="1" stop-color="#635BFF"/>
</radialGradient>
</defs>
</svg>
