<svg width="425" height="191" viewBox="0 0 425 191" fill="none" xmlns="http://www.w3.org/2000/svg">
<path d="M0.952 15V4.948H2.744V13.432H7.476V15H0.952ZM15.0509 11.332C15.0509 13.614 13.5809 15.154 11.5089 15.154C9.43688 15.154 7.96688 13.614 7.96688 11.332C7.96688 9.05 9.43688 7.51 11.5089 7.51C13.5809 7.51 15.0509 9.05 15.0509 11.332ZM9.66088 11.332C9.66088 12.83 10.3749 13.74 11.5089 13.74C12.6429 13.74 13.3569 12.83 13.3569 11.332C13.3569 9.834 12.6429 8.924 11.5089 8.924C10.3749 8.924 9.66088 9.834 9.66088 11.332ZM18.3046 15.126C16.9046 15.126 15.8266 14.272 15.8266 12.956C15.8266 11.556 16.8766 10.94 18.2906 10.646L20.3206 10.226V10.1C20.3206 9.4 19.9566 8.966 19.0606 8.966C18.2626 8.966 17.8426 9.33 17.6466 10.044L16.0646 9.68C16.4286 8.462 17.5066 7.51 19.1306 7.51C20.8946 7.51 21.9586 8.35 21.9586 10.044V13.208C21.9586 13.628 22.1406 13.754 22.6026 13.698V15C21.3846 15.14 20.7406 14.902 20.4886 14.3C20.0266 14.818 19.2566 15.126 18.3046 15.126ZM20.3206 12.41V11.514L18.7386 11.85C18.0246 12.004 17.4926 12.228 17.4926 12.886C17.4926 13.46 17.9126 13.782 18.5566 13.782C19.4526 13.782 20.3206 13.306 20.3206 12.41ZM23.7961 15V7.65H25.4761V8.434C25.8961 7.944 26.5541 7.51 27.5061 7.51C29.0461 7.51 29.9701 8.574 29.9701 10.156V15H28.2901V10.646C28.2901 9.736 27.9261 9.078 27.0021 9.078C26.2461 9.078 25.4761 9.638 25.4761 10.688V15H23.7961ZM38.3635 15.154C37.4115 15.154 36.7115 14.776 36.2495 14.23V17.52H34.5695V7.65H36.2495V8.434C36.7115 7.888 37.4115 7.51 38.3635 7.51C40.4215 7.51 41.5975 9.246 41.5975 11.332C41.5975 13.418 40.4215 15.154 38.3635 15.154ZM36.2075 11.122V11.556C36.2075 12.914 36.9915 13.684 38.0275 13.684C39.2455 13.684 39.9035 12.732 39.9035 11.332C39.9035 9.932 39.2455 8.98 38.0275 8.98C36.9915 8.98 36.2075 9.736 36.2075 11.122ZM47.0677 7.636V9.316C46.8577 9.288 46.6897 9.274 46.4517 9.274C45.3877 9.274 44.5757 9.96 44.5757 11.136V15H42.8957V7.65H44.5757V8.742C44.8977 8.056 45.6537 7.608 46.5917 7.608C46.7877 7.608 46.9417 7.622 47.0677 7.636ZM54.4942 11.332C54.4942 13.614 53.0242 15.154 50.9522 15.154C48.8802 15.154 47.4102 13.614 47.4102 11.332C47.4102 9.05 48.8802 7.51 50.9522 7.51C53.0242 7.51 54.4942 9.05 54.4942 11.332ZM49.1042 11.332C49.1042 12.83 49.8182 13.74 50.9522 13.74C52.0862 13.74 52.8002 12.83 52.8002 11.332C52.8002 9.834 52.0862 8.924 50.9522 8.924C49.8182 8.924 49.1042 9.834 49.1042 11.332ZM58.5739 15.154C56.5159 15.154 55.3399 13.418 55.3399 11.332C55.3399 9.246 56.5159 7.51 58.5739 7.51C59.5259 7.51 60.2259 7.888 60.6879 8.434V4.948H62.3679V15H60.6879V14.23C60.2259 14.776 59.5259 15.154 58.5739 15.154ZM60.7299 11.122C60.7299 9.736 59.9459 8.98 58.9099 8.98C57.6919 8.98 57.0339 9.932 57.0339 11.332C57.0339 12.732 57.6919 13.684 58.9099 13.684C59.9459 13.684 60.7299 12.914 60.7299 11.556V11.122ZM70.2461 7.65V15H68.5661V14.216C68.1461 14.706 67.5161 15.154 66.5641 15.154C65.0241 15.154 64.0721 14.104 64.0721 12.522V7.65H65.7521V12.158C65.7521 13.054 66.1441 13.628 67.0541 13.628C67.8101 13.628 68.5661 13.068 68.5661 12.018V7.65H70.2461ZM73.2348 11.332C73.2348 12.83 74.0188 13.698 75.1668 13.698C76.0628 13.698 76.6088 13.11 76.8188 12.298L78.2608 13.026C77.8828 14.216 76.7628 15.154 75.1668 15.154C73.0668 15.154 71.5548 13.6 71.5548 11.332C71.5548 9.064 73.0668 7.51 75.1668 7.51C76.7488 7.51 77.8408 8.406 78.2328 9.582L76.8188 10.352C76.6088 9.554 76.0628 8.952 75.1668 8.952C74.0188 8.952 73.2348 9.834 73.2348 11.332ZM79.4305 13.152V9.078H78.4085V7.65H79.4305V5.494H81.0825V7.65H82.6225V9.078H81.0825V12.886C81.0825 13.544 81.4605 13.614 82.0625 13.614C82.3425 13.614 82.4965 13.6 82.7485 13.572V14.986C82.4405 15.042 82.0205 15.084 81.5865 15.084C80.1865 15.084 79.4305 14.65 79.4305 13.152ZM83.237 13.6L84.497 12.592C84.931 13.306 85.771 13.782 86.625 13.782C87.339 13.782 87.997 13.53 87.997 12.872C87.997 12.242 87.381 12.172 86.219 11.934C85.057 11.696 83.727 11.402 83.727 9.834C83.727 8.49 84.903 7.51 86.597 7.51C87.885 7.51 89.033 8.084 89.565 8.896L88.431 9.918C88.011 9.26 87.311 8.882 86.499 8.882C85.813 8.882 85.365 9.19 85.365 9.68C85.365 10.212 85.897 10.31 86.821 10.506C88.067 10.772 89.635 11.038 89.635 12.718C89.635 14.202 88.277 15.154 86.611 15.154C85.253 15.154 83.895 14.608 83.237 13.6ZM4.256 22.85C4.76 22.85 5.18933 22.9387 5.544 23.116C5.908 23.284 6.188 23.5267 6.384 23.844C6.58 24.1613 6.678 24.5487 6.678 25.006C6.678 25.594 6.48667 26.0933 6.104 26.504C5.73067 26.9147 5.25467 27.288 4.676 27.624L7.378 30.228C7.62067 29.9387 7.81667 29.6073 7.966 29.234C8.12467 28.8513 8.25533 28.4407 8.358 28.002H9.604C9.45467 28.5993 9.268 29.1547 9.044 29.668C8.82 30.1813 8.53067 30.6293 8.176 31.012L10.22 33H8.554L7.336 31.824C7.112 32.02 6.87867 32.202 6.636 32.37C6.40267 32.5287 6.146 32.664 5.866 32.776C5.586 32.888 5.28267 32.9767 4.956 33.042C4.63867 33.1073 4.284 33.14 3.892 33.14C3.248 33.14 2.688 33.0373 2.212 32.832C1.74533 32.6173 1.38133 32.3047 1.12 31.894C0.868 31.4833 0.742 30.984 0.742 30.396C0.742 29.92 0.826 29.5093 0.994 29.164C1.17133 28.8187 1.42333 28.5107 1.75 28.24C2.07667 27.9693 2.45933 27.708 2.898 27.456C2.702 27.232 2.51067 26.9987 2.324 26.756C2.13733 26.5133 1.98333 26.252 1.862 25.972C1.74067 25.6827 1.68 25.37 1.68 25.034C1.68 24.5767 1.78267 24.1847 1.988 23.858C2.19333 23.5313 2.48733 23.284 2.87 23.116C3.262 22.9387 3.724 22.85 4.256 22.85ZM3.64 28.226C3.304 28.422 3.01467 28.6227 2.772 28.828C2.53867 29.024 2.35667 29.2433 2.226 29.486C2.09533 29.7287 2.03 30.018 2.03 30.354C2.03 30.8673 2.20267 31.278 2.548 31.586C2.89333 31.894 3.35533 32.048 3.934 32.048C4.53133 32.048 5.04467 31.95 5.474 31.754C5.90333 31.558 6.26267 31.3247 6.552 31.054L3.64 28.226ZM4.214 23.858C3.822 23.858 3.5 23.9607 3.248 24.166C3.00533 24.3713 2.884 24.656 2.884 25.02C2.884 25.356 2.97267 25.6687 3.15 25.958C3.32733 26.238 3.584 26.5507 3.92 26.896C4.47067 26.5787 4.86267 26.28 5.096 26C5.33867 25.7107 5.46 25.3793 5.46 25.006C5.46 24.67 5.348 24.3947 5.124 24.18C4.9 23.9653 4.59667 23.858 4.214 23.858ZM13.0687 31.04L14.4407 29.906C15.1407 30.998 16.1907 31.628 17.3387 31.628C18.4727 31.628 19.3267 31.11 19.3267 30.144C19.3267 29.122 18.2767 28.982 16.7787 28.618C15.2667 28.254 13.6427 27.806 13.6427 25.846C13.6427 23.984 15.2387 22.794 17.2687 22.794C18.9907 22.794 20.3347 23.606 21.0067 24.656L19.6907 25.79C19.1307 24.922 18.3887 24.32 17.2127 24.32C16.1347 24.32 15.3927 24.866 15.3927 25.664C15.3927 26.546 16.1627 26.728 17.5207 27.036C19.1447 27.4 21.0907 27.778 21.0907 29.962C21.0907 31.936 19.3547 33.154 17.2827 33.154C15.5607 33.154 13.8527 32.328 13.0687 31.04ZM25.5232 33.154C23.4232 33.154 21.9532 31.6 21.9532 29.332C21.9532 27.176 23.4092 25.51 25.4532 25.51C27.5812 25.51 28.7152 27.12 28.7152 29.136V29.696H23.5632C23.6892 30.956 24.4452 31.726 25.5232 31.726C26.3492 31.726 27.0072 31.306 27.2312 30.55L28.6732 31.096C28.1552 32.384 26.9932 33.154 25.5232 33.154ZM25.4392 26.924C24.5712 26.924 23.8992 27.442 23.6472 28.436H27.0212C27.0072 27.624 26.5032 26.924 25.4392 26.924ZM34.1478 25.636V27.316C33.9378 27.288 33.7698 27.274 33.5318 27.274C32.4678 27.274 31.6558 27.96 31.6558 29.136V33H29.9758V25.65H31.6558V26.742C31.9778 26.056 32.7338 25.608 33.6718 25.608C33.8678 25.608 34.0218 25.622 34.1478 25.636ZM38.9725 33H37.2785L34.5905 25.65H36.3545L38.1465 30.984L39.9245 25.65H41.6605L38.9725 33ZM42.5395 24.67V22.948H44.2755V24.67H42.5395ZM44.2475 25.65V33H42.5675V25.65H44.2475ZM47.2309 29.332C47.2309 30.83 48.0149 31.698 49.1629 31.698C50.0589 31.698 50.6049 31.11 50.8149 30.298L52.2569 31.026C51.8789 32.216 50.7589 33.154 49.1629 33.154C47.0629 33.154 45.5509 31.6 45.5509 29.332C45.5509 27.064 47.0629 25.51 49.1629 25.51C50.7449 25.51 51.8369 26.406 52.2289 27.582L50.8149 28.352C50.6049 27.554 50.0589 26.952 49.1629 26.952C48.0149 26.952 47.2309 27.834 47.2309 29.332ZM56.3806 33.154C54.2806 33.154 52.8106 31.6 52.8106 29.332C52.8106 27.176 54.2666 25.51 56.3106 25.51C58.4386 25.51 59.5726 27.12 59.5726 29.136V29.696H54.4206C54.5466 30.956 55.3026 31.726 56.3806 31.726C57.2066 31.726 57.8646 31.306 58.0886 30.55L59.5306 31.096C59.0126 32.384 57.8506 33.154 56.3806 33.154ZM56.2966 26.924C55.4286 26.924 54.7566 27.442 54.5046 28.436H57.8786C57.8646 27.624 57.3606 26.924 56.2966 26.924ZM60.0632 31.6L61.3232 30.592C61.7572 31.306 62.5972 31.782 63.4512 31.782C64.1652 31.782 64.8232 31.53 64.8232 30.872C64.8232 30.242 64.2072 30.172 63.0452 29.934C61.8832 29.696 60.5532 29.402 60.5532 27.834C60.5532 26.49 61.7292 25.51 63.4232 25.51C64.7112 25.51 65.8592 26.084 66.3912 26.896L65.2572 27.918C64.8372 27.26 64.1372 26.882 63.3252 26.882C62.6392 26.882 62.1912 27.19 62.1912 27.68C62.1912 28.212 62.7232 28.31 63.6472 28.506C64.8932 28.772 66.4612 29.038 66.4612 30.718C66.4612 32.202 65.1032 33.154 63.4372 33.154C62.0792 33.154 60.7212 32.608 60.0632 31.6Z" fill="#0A2540"/>
<path d="M37 83L39.8868 78L34.1132 78L37 83ZM36.5 47L36.5 78.5L37.5 78.5L37.5 47L36.5 47Z" fill="#4ABCEB"/>
<path d="M105 120L100 117.113V122.887L105 120ZM69 120.5H100.5V119.5H69V120.5Z" fill="#4ABCEB"/>
<path d="M217 120L212 117.113V122.887L217 120ZM181 120.5H212.5V119.5H181V120.5Z" fill="#4ABCEB"/>
<path d="M338 120L333 117.113V122.887L338 120ZM302 120.5H333.5V119.5H302V120.5Z" fill="#4ABCEB"/>
<circle cx="258" cy="119" r="27.5" stroke="#4ABCEB"/>
<path d="M261.146 116.926L260.565 116.885C260.227 116.861 259.7 116.837 259.15 116.813C258.923 116.803 258.693 116.793 258.47 116.782C258.093 116.764 257.738 116.745 257.471 116.725C257.339 116.715 257.22 116.705 257.128 116.692C257.084 116.686 257.034 116.679 256.988 116.668C256.966 116.662 256.931 116.653 256.893 116.638C256.892 116.638 256.892 116.638 256.891 116.638C256.888 116.637 256.884 116.635 256.878 116.633C256.054 117.36 255.233 118.516 254.683 119.764L254.682 119.764C254.036 121.228 253.908 122.45 254.184 123.241L261.146 116.926ZM261.146 116.926C261.863 117.652 262.551 118.672 263.032 119.764L263.032 119.764C263.679 121.229 263.807 122.45 263.53 123.241C263.435 123.513 263.271 123.795 262.984 124.014C262.699 124.231 262.255 124.417 261.546 124.429L261.546 124.429C260.871 124.44 259.81 124.456 258.858 124.462L261.146 116.926ZM256.168 124.429L256.169 124.429C256.496 124.435 257.657 124.454 258.853 124.462H258.857L256.168 124.429ZM256.168 124.429C255.459 124.417 255.015 124.231 254.731 124.014C254.444 123.795 254.279 123.513 254.184 123.241L253.712 123.406C253.95 124.085 254.567 124.901 256.16 124.929L256.168 124.429ZM257.201 114.332H257.227H260.488H260.515L261.117 112.081C261.075 112.113 261.028 112.149 260.975 112.191C260.975 112.191 260.974 112.191 260.974 112.191L260.969 112.195C260.888 112.259 260.779 112.345 260.671 112.414C260.584 112.47 260.393 112.587 260.169 112.587C259.945 112.587 259.755 112.47 259.668 112.414C259.559 112.345 259.451 112.259 259.37 112.195L259.364 112.191L257.201 114.332ZM257.201 114.332L256.597 112.081C256.64 112.113 256.688 112.149 256.741 112.191L256.746 112.195C256.827 112.259 256.936 112.345 257.044 112.414C257.131 112.47 257.322 112.587 257.546 112.587C257.769 112.587 257.96 112.47 258.047 112.414C258.155 112.345 258.264 112.259 258.345 112.195L258.351 112.191C258.351 112.191 258.351 112.191 258.351 112.191C258.636 111.967 258.754 111.898 258.857 111.898C258.961 111.898 259.079 111.967 259.363 112.191L257.201 114.332Z" stroke="#20336B"/>
<path fill-rule="evenodd" clip-rule="evenodd" d="M260.909 116.588H256.815C256.202 116.588 255.703 116.089 255.703 115.477C255.703 114.864 256.202 114.365 256.815 114.365H260.909C261.522 114.365 262.021 114.864 262.021 115.477C262.021 116.089 261.522 116.588 260.909 116.588Z" fill="#20336B"/>
<path d="M261.279 121.083H260.566V120.398H261.279C261.386 120.398 261.473 120.311 261.473 120.204C261.473 120.097 261.386 120.01 261.279 120.01H260.566V119.059C260.566 118.92 260.539 118.818 260.485 118.756C260.433 118.697 260.366 118.67 260.272 118.67C260.183 118.67 260.118 118.697 260.068 118.756C260.014 118.818 259.987 118.92 259.987 119.059V120.01H258.646L258.076 119.147C258.029 119.074 257.983 119.001 257.936 118.929C257.896 118.866 257.857 118.816 257.82 118.778C257.787 118.744 257.75 118.718 257.706 118.698C257.665 118.679 257.613 118.67 257.551 118.67C257.472 118.67 257.4 118.692 257.332 118.736C257.264 118.78 257.217 118.834 257.188 118.902C257.163 118.967 257.15 119.065 257.15 119.193V120.01H256.444C256.337 120.01 256.25 120.097 256.25 120.204C256.25 120.311 256.337 120.398 256.444 120.398H257.15V121.083H256.444C256.337 121.083 256.25 121.17 256.25 121.277C256.25 121.384 256.337 121.471 256.444 121.471H257.15V122.557C257.15 122.691 257.178 122.792 257.234 122.856C257.287 122.917 257.355 122.946 257.447 122.946C257.535 122.946 257.603 122.917 257.658 122.856C257.715 122.793 257.744 122.693 257.744 122.557V121.471H258.958L259.614 122.478C259.66 122.545 259.707 122.612 259.754 122.678C259.797 122.737 259.843 122.789 259.892 122.833C259.936 122.872 259.983 122.901 260.032 122.918C260.082 122.937 260.141 122.946 260.207 122.946C260.384 122.946 260.566 122.891 260.566 122.488V121.471H261.279C261.386 121.471 261.473 121.384 261.473 121.277C261.473 121.17 261.386 121.083 261.279 121.083ZM259.987 120.398V121.083H259.355L258.902 120.398H259.987ZM257.744 119.61L258.004 120.01H257.744V119.61ZM257.744 121.083V120.398H258.258L258.704 121.083H257.744ZM259.987 122.04L259.611 121.471H259.987V122.04Z" fill="#099ED6"/>
<path d="M245.4 122.111L247.062 119.44L249.131 121.63" stroke="#20336B" stroke-linecap="round" stroke-linejoin="round"/>
<path d="M247.048 120.339C247.911 125.804 252.586 129.851 258.118 129.92C263.65 129.99 268.426 126.062 269.426 120.621" stroke="#20336B" stroke-linecap="round" stroke-linejoin="round"/>
<path d="M270.592 114.32L268.93 116.992L266.861 114.802" stroke="#20336B" stroke-linecap="round" stroke-linejoin="round"/>
<path d="M268.944 116.093C268.082 110.628 263.406 106.581 257.874 106.511C252.342 106.441 247.566 110.369 246.566 115.81" stroke="#20336B" stroke-linecap="round" stroke-linejoin="round"/>
<path d="M243.551 170V159.948H245.343V168.432H250.075V170H243.551ZM257.65 166.332C257.65 168.614 256.18 170.154 254.108 170.154C252.036 170.154 250.566 168.614 250.566 166.332C250.566 164.05 252.036 162.51 254.108 162.51C256.18 162.51 257.65 164.05 257.65 166.332ZM252.26 166.332C252.26 167.83 252.974 168.74 254.108 168.74C255.242 168.74 255.956 167.83 255.956 166.332C255.956 164.834 255.242 163.924 254.108 163.924C252.974 163.924 252.26 164.834 252.26 166.332ZM260.903 170.126C259.503 170.126 258.425 169.272 258.425 167.956C258.425 166.556 259.475 165.94 260.889 165.646L262.919 165.226V165.1C262.919 164.4 262.555 163.966 261.659 163.966C260.861 163.966 260.441 164.33 260.245 165.044L258.663 164.68C259.027 163.462 260.105 162.51 261.729 162.51C263.493 162.51 264.557 163.35 264.557 165.044V168.208C264.557 168.628 264.739 168.754 265.201 168.698V170C263.983 170.14 263.339 169.902 263.087 169.3C262.625 169.818 261.855 170.126 260.903 170.126ZM262.919 167.41V166.514L261.337 166.85C260.623 167.004 260.091 167.228 260.091 167.886C260.091 168.46 260.511 168.782 261.155 168.782C262.051 168.782 262.919 168.306 262.919 167.41ZM266.395 170V162.65H268.075V163.434C268.495 162.944 269.153 162.51 270.105 162.51C271.645 162.51 272.569 163.574 272.569 165.156V170H270.889V165.646C270.889 164.736 270.525 164.078 269.601 164.078C268.845 164.078 268.075 164.638 268.075 165.688V170H266.395ZM221.472 184.108V188H219.68V177.948H223.698C225.938 177.948 227.338 178.998 227.338 181.028C227.338 182.61 226.47 183.618 225 183.968L227.59 188H225.546L223.096 184.108H221.472ZM221.472 182.568H223.6C224.888 182.568 225.574 182.008 225.574 181.028C225.574 180.034 224.888 179.488 223.6 179.488H221.472V182.568ZM231.727 188.154C229.627 188.154 228.157 186.6 228.157 184.332C228.157 182.176 229.613 180.51 231.657 180.51C233.785 180.51 234.919 182.12 234.919 184.136V184.696H229.767C229.893 185.956 230.649 186.726 231.727 186.726C232.553 186.726 233.211 186.306 233.435 185.55L234.877 186.096C234.359 187.384 233.197 188.154 231.727 188.154ZM231.643 181.924C230.775 181.924 230.103 182.442 229.851 183.436H233.225C233.211 182.624 232.707 181.924 231.643 181.924ZM239.974 188.154C239.022 188.154 238.322 187.776 237.86 187.23V190.52H236.18V180.65H237.86V181.434C238.322 180.888 239.022 180.51 239.974 180.51C242.032 180.51 243.208 182.246 243.208 184.332C243.208 186.418 242.032 188.154 239.974 188.154ZM237.818 184.122V184.556C237.818 185.914 238.602 186.684 239.638 186.684C240.856 186.684 241.514 185.732 241.514 184.332C241.514 182.932 240.856 181.98 239.638 181.98C238.602 181.98 237.818 182.736 237.818 184.122ZM246.452 188.126C245.052 188.126 243.974 187.272 243.974 185.956C243.974 184.556 245.024 183.94 246.438 183.646L248.468 183.226V183.1C248.468 182.4 248.104 181.966 247.208 181.966C246.41 181.966 245.99 182.33 245.794 183.044L244.212 182.68C244.576 181.462 245.654 180.51 247.278 180.51C249.042 180.51 250.106 181.35 250.106 183.044V186.208C250.106 186.628 250.288 186.754 250.75 186.698V188C249.532 188.14 248.888 187.902 248.636 187.3C248.174 187.818 247.404 188.126 246.452 188.126ZM248.468 185.41V184.514L246.886 184.85C246.172 185.004 245.64 185.228 245.64 185.886C245.64 186.46 246.06 186.782 246.704 186.782C247.6 186.782 248.468 186.306 248.468 185.41ZM254.999 188.686C254.579 189.806 253.935 190.576 252.409 190.576C252.059 190.576 251.961 190.562 251.723 190.534V189.12C251.947 189.148 252.073 189.162 252.283 189.162C252.843 189.162 253.109 189.008 253.347 188.42L253.627 187.734L250.953 180.65H252.717L254.523 185.802L256.287 180.65H258.023L254.999 188.686ZM260.61 183.688V188H258.93V180.65H260.61V181.434C261.016 180.944 261.646 180.51 262.626 180.51C263.508 180.51 264.166 180.902 264.572 181.532C265.02 181.056 265.72 180.51 266.854 180.51C268.366 180.51 269.346 181.574 269.346 183.156V188H267.666V183.646C267.666 182.736 267.33 182.078 266.434 182.078C265.72 182.078 264.978 182.638 264.978 183.688V188H263.298V183.646C263.298 182.736 262.962 182.078 262.066 182.078C261.352 182.078 260.61 182.638 260.61 183.688ZM274.165 188.154C272.065 188.154 270.595 186.6 270.595 184.332C270.595 182.176 272.051 180.51 274.095 180.51C276.223 180.51 277.357 182.12 277.357 184.136V184.696H272.205C272.331 185.956 273.087 186.726 274.165 186.726C274.991 186.726 275.649 186.306 275.873 185.55L277.315 186.096C276.797 187.384 275.635 188.154 274.165 188.154ZM274.081 181.924C273.213 181.924 272.541 182.442 272.289 183.436H275.663C275.649 182.624 275.145 181.924 274.081 181.924ZM278.617 188V180.65H280.297V181.434C280.717 180.944 281.375 180.51 282.327 180.51C283.867 180.51 284.791 181.574 284.791 183.156V188H283.111V183.646C283.111 182.736 282.747 182.078 281.823 182.078C281.067 182.078 280.297 182.638 280.297 183.688V188H278.617ZM286.66 186.152V182.078H285.638V180.65H286.66V178.494H288.312V180.65H289.852V182.078H288.312V185.886C288.312 186.544 288.69 186.614 289.292 186.614C289.572 186.614 289.726 186.6 289.978 186.572V187.986C289.67 188.042 289.25 188.084 288.816 188.084C287.416 188.084 286.66 187.65 286.66 186.152ZM290.466 186.6L291.726 185.592C292.16 186.306 293 186.782 293.854 186.782C294.568 186.782 295.226 186.53 295.226 185.872C295.226 185.242 294.61 185.172 293.448 184.934C292.286 184.696 290.956 184.402 290.956 182.834C290.956 181.49 292.132 180.51 293.826 180.51C295.114 180.51 296.262 181.084 296.794 181.896L295.66 182.918C295.24 182.26 294.54 181.882 293.728 181.882C293.042 181.882 292.594 182.19 292.594 182.68C292.594 183.212 293.126 183.31 294.05 183.506C295.296 183.772 296.864 184.038 296.864 185.718C296.864 187.202 295.506 188.154 293.84 188.154C292.482 188.154 291.124 187.608 290.466 186.6Z" fill="#0A2540"/>
<circle cx="144" cy="119" r="27.5" stroke="#4ABCEB"/>
<path d="M155.929 122.659C155.84 122.347 155.667 122.065 155.429 121.843C155.191 121.622 154.898 121.469 154.58 121.402C154.164 121.314 153.732 121.378 153.363 121.574C153.577 120.245 153.464 118.871 153.025 117.59C152.941 117.345 152.674 117.215 152.429 117.299C152.184 117.383 152.054 117.649 152.138 117.894C152.657 119.407 152.662 121.067 152.153 122.582L148.417 125.9C148.189 126.103 147.936 126.277 147.665 126.419C147.742 126.109 147.735 125.784 147.645 125.477C147.573 125.235 147.452 125.011 147.288 124.819C147.125 124.627 146.923 124.472 146.696 124.363L143.387 122.778C141.94 122.085 140.246 122.005 138.741 122.558L138.404 122.681C137.471 120.043 138.12 117.118 140.12 115.119L143.429 111.81H147.093L149.897 114.614C150.08 114.797 150.377 114.797 150.56 114.614C150.743 114.431 150.743 114.134 150.56 113.951L147.881 111.272L148.849 108.484C148.979 108.111 148.836 107.703 148.501 107.493C148.166 107.283 147.736 107.332 147.456 107.611L147.451 107.617C147.257 107.811 146.941 107.811 146.748 107.617C145.925 106.794 144.586 106.794 143.764 107.617C143.67 107.711 143.545 107.763 143.412 107.763C143.28 107.763 143.155 107.711 143.061 107.617C142.781 107.337 142.351 107.289 142.016 107.499C141.68 107.71 141.538 108.118 141.668 108.492L142.641 111.272L139.457 114.456C138.279 115.635 137.495 117.12 137.192 118.753C136.926 120.184 137.041 121.644 137.523 123.005L136.784 123.276C136.538 122.956 136.152 122.75 135.719 122.75H133.344C132.603 122.75 132 123.352 132 124.093V129.656C132 130.397 132.603 131 133.344 131H145.699C147.639 131 149.475 130.255 150.866 128.902L155.456 124.441C155.69 124.215 155.857 123.93 155.94 123.616C156.024 123.302 156.02 122.971 155.929 122.659ZM143.412 108.7C143.795 108.7 144.156 108.551 144.427 108.28C144.884 107.823 145.628 107.823 146.085 108.28C146.356 108.551 146.716 108.7 147.099 108.7C147.371 108.7 147.632 108.625 147.857 108.484L147.027 110.872H143.495L142.66 108.488C142.884 108.626 143.142 108.7 143.412 108.7ZM132.938 129.656V124.093C132.938 123.869 133.12 123.687 133.344 123.687H135.719C135.943 123.687 136.125 123.869 136.125 124.093V129.656C136.125 129.88 135.943 130.062 135.719 130.062H133.344C133.12 130.062 132.938 129.88 132.938 129.656ZM154.803 123.769L150.213 128.23C148.997 129.412 147.394 130.062 145.699 130.062H137C137.041 129.931 137.063 129.794 137.063 129.656V124.173L139.064 123.438C140.333 122.972 141.762 123.039 142.982 123.624L146.291 125.209C146.514 125.315 146.676 125.505 146.746 125.742C146.816 125.98 146.783 126.227 146.654 126.438C146.553 126.602 146.4 126.728 146.219 126.795C146.039 126.863 145.84 126.867 145.657 126.809L141.26 125.411C141.014 125.332 140.75 125.469 140.672 125.715C140.593 125.962 140.73 126.226 140.976 126.304L145.373 127.702C145.55 127.759 145.734 127.787 145.92 127.787C145.942 127.787 145.964 127.786 145.986 127.785C147.113 127.769 148.195 127.351 149.04 126.601L153.639 122.516C153.739 122.427 153.859 122.363 153.988 122.329C154.118 122.295 154.253 122.291 154.384 122.319C154.699 122.386 154.939 122.61 155.028 122.919C155.118 123.227 155.033 123.545 154.803 123.769Z" fill="#20336B"/>
<path d="M151.633 116.328C151.756 116.328 151.877 116.278 151.964 116.191C152.052 116.103 152.101 115.984 152.102 115.859C152.102 115.736 152.051 115.616 151.964 115.528C151.876 115.44 151.757 115.391 151.633 115.391C151.509 115.391 151.389 115.441 151.301 115.528C151.214 115.616 151.165 115.735 151.164 115.859C151.164 115.983 151.214 116.104 151.301 116.191C151.389 116.279 151.509 116.328 151.633 116.328Z" fill="#20336B"/>
<path d="M148.952 118.336H147.966V117.389H148.952C149.1 117.389 149.22 117.269 149.22 117.12C149.22 116.972 149.1 116.852 148.952 116.852H147.966V115.538C147.966 115.346 147.928 115.205 147.854 115.12C147.783 115.038 147.689 115 147.56 115C147.436 115 147.347 115.038 147.277 115.119C147.203 115.205 147.166 115.346 147.166 115.538V116.852H145.312L144.523 115.66C144.46 115.559 144.395 115.458 144.331 115.358C144.275 115.272 144.221 115.201 144.17 115.149C144.125 115.103 144.074 115.067 144.013 115.039C143.956 115.013 143.884 115 143.798 115C143.689 115 143.59 115.03 143.495 115.091C143.402 115.152 143.337 115.227 143.297 115.321C143.262 115.41 143.244 115.547 143.244 115.723V116.852H142.268C142.12 116.852 142 116.972 142 117.121C142 117.269 142.12 117.389 142.268 117.389H143.244V118.336H142.268C142.12 118.336 142 118.456 142 118.604C142 118.752 142.12 118.872 142.268 118.872H143.244V120.373C143.244 120.559 143.283 120.698 143.36 120.787C143.434 120.871 143.528 120.91 143.654 120.91C143.777 120.91 143.87 120.871 143.946 120.786C144.025 120.7 144.065 120.56 144.065 120.373V118.872H145.743L146.65 120.264C146.714 120.357 146.778 120.449 146.844 120.54C146.902 120.622 146.966 120.694 147.034 120.754C147.095 120.809 147.16 120.848 147.228 120.873C147.297 120.898 147.379 120.911 147.469 120.911C147.715 120.911 147.966 120.835 147.966 120.278V118.872H148.952C149.1 118.872 149.22 118.752 149.22 118.604C149.22 118.456 149.1 118.336 148.952 118.336ZM147.166 117.389V118.336H146.292L145.666 117.389H147.166ZM144.065 116.3L144.425 116.852H144.065V116.3ZM144.065 118.336V117.389H144.775L145.393 118.336H144.065ZM147.166 119.658L146.646 118.872H147.166V119.658Z" fill="#24BAF2"/>
<path d="M108.258 159.948V170H106.466V159.948H108.258ZM110.087 170V162.65H111.767V163.434C112.187 162.944 112.845 162.51 113.797 162.51C115.337 162.51 116.261 163.574 116.261 165.156V170H114.581V165.646C114.581 164.736 114.217 164.078 113.293 164.078C112.537 164.078 111.767 164.638 111.767 165.688V170H110.087ZM117.206 168.6L118.466 167.592C118.9 168.306 119.74 168.782 120.594 168.782C121.308 168.782 121.966 168.53 121.966 167.872C121.966 167.242 121.35 167.172 120.188 166.934C119.026 166.696 117.696 166.402 117.696 164.834C117.696 163.49 118.872 162.51 120.566 162.51C121.854 162.51 123.002 163.084 123.534 163.896L122.4 164.918C121.98 164.26 121.28 163.882 120.468 163.882C119.782 163.882 119.334 164.19 119.334 164.68C119.334 165.212 119.866 165.31 120.79 165.506C122.036 165.772 123.604 166.038 123.604 167.718C123.604 169.202 122.246 170.154 120.58 170.154C119.222 170.154 117.864 169.608 117.206 168.6ZM125.048 168.152V164.078H124.026V162.65H125.048V160.494H126.7V162.65H128.24V164.078H126.7V167.886C126.7 168.544 127.078 168.614 127.68 168.614C127.96 168.614 128.114 168.6 128.366 168.572V169.986C128.058 170.042 127.638 170.084 127.204 170.084C125.804 170.084 125.048 169.65 125.048 168.152ZM131.57 170.126C130.17 170.126 129.092 169.272 129.092 167.956C129.092 166.556 130.142 165.94 131.556 165.646L133.586 165.226V165.1C133.586 164.4 133.222 163.966 132.326 163.966C131.528 163.966 131.108 164.33 130.912 165.044L129.33 164.68C129.694 163.462 130.772 162.51 132.396 162.51C134.16 162.51 135.224 163.35 135.224 165.044V168.208C135.224 168.628 135.406 168.754 135.868 168.698V170C134.65 170.14 134.006 169.902 133.754 169.3C133.292 169.818 132.522 170.126 131.57 170.126ZM133.586 167.41V166.514L132.004 166.85C131.29 167.004 130.758 167.228 130.758 167.886C130.758 168.46 131.178 168.782 131.822 168.782C132.718 168.782 133.586 168.306 133.586 167.41ZM137.062 170V162.65H138.742V163.434C139.162 162.944 139.82 162.51 140.772 162.51C142.312 162.51 143.236 163.574 143.236 165.156V170H141.556V165.646C141.556 164.736 141.192 164.078 140.268 164.078C139.512 164.078 138.742 164.638 138.742 165.688V170H137.062ZM145.104 168.152V164.078H144.082V162.65H145.104V160.494H146.756V162.65H148.296V164.078H146.756V167.886C146.756 168.544 147.134 168.614 147.736 168.614C148.016 168.614 148.17 168.6 148.422 168.572V169.986C148.114 170.042 147.694 170.084 147.26 170.084C145.86 170.084 145.104 169.65 145.104 168.152ZM152.636 170V159.948H154.428V168.432H159.16V170H152.636ZM166.734 166.332C166.734 168.614 165.264 170.154 163.192 170.154C161.12 170.154 159.65 168.614 159.65 166.332C159.65 164.05 161.12 162.51 163.192 162.51C165.264 162.51 166.734 164.05 166.734 166.332ZM161.344 166.332C161.344 167.83 162.058 168.74 163.192 168.74C164.326 168.74 165.04 167.83 165.04 166.332C165.04 164.834 164.326 163.924 163.192 163.924C162.058 163.924 161.344 164.834 161.344 166.332ZM169.988 170.126C168.588 170.126 167.51 169.272 167.51 167.956C167.51 166.556 168.56 165.94 169.974 165.646L172.004 165.226V165.1C172.004 164.4 171.64 163.966 170.744 163.966C169.946 163.966 169.526 164.33 169.33 165.044L167.748 164.68C168.112 163.462 169.19 162.51 170.814 162.51C172.578 162.51 173.642 163.35 173.642 165.044V168.208C173.642 168.628 173.824 168.754 174.286 168.698V170C173.068 170.14 172.424 169.902 172.172 169.3C171.71 169.818 170.94 170.126 169.988 170.126ZM172.004 167.41V166.514L170.422 166.85C169.708 167.004 169.176 167.228 169.176 167.886C169.176 168.46 169.596 168.782 170.24 168.782C171.136 168.782 172.004 168.306 172.004 167.41ZM175.48 170V162.65H177.16V163.434C177.58 162.944 178.238 162.51 179.19 162.51C180.73 162.51 181.654 163.574 181.654 165.156V170H179.974V165.646C179.974 164.736 179.61 164.078 178.686 164.078C177.93 164.078 177.16 164.638 177.16 165.688V170H175.48ZM98.9461 188V177.948H102.306C105.428 177.948 107.36 179.908 107.36 182.974C107.36 186.04 105.428 188 102.306 188H98.9461ZM100.696 186.46H102.306C104.378 186.46 105.596 185.088 105.596 182.974C105.596 180.846 104.378 179.488 102.292 179.488H100.696V186.46ZM108.665 179.67V177.948H110.401V179.67H108.665ZM110.373 180.65V188H108.693V180.65H110.373ZM111.368 186.6L112.628 185.592C113.062 186.306 113.902 186.782 114.756 186.782C115.47 186.782 116.128 186.53 116.128 185.872C116.128 185.242 115.512 185.172 114.35 184.934C113.188 184.696 111.858 184.402 111.858 182.834C111.858 181.49 113.034 180.51 114.728 180.51C116.016 180.51 117.164 181.084 117.696 181.896L116.562 182.918C116.142 182.26 115.442 181.882 114.63 181.882C113.944 181.882 113.496 182.19 113.496 182.68C113.496 183.212 114.028 183.31 114.952 183.506C116.198 183.772 117.766 184.038 117.766 185.718C117.766 187.202 116.408 188.154 114.742 188.154C113.384 188.154 112.026 187.608 111.368 186.6ZM122.85 188.154C121.898 188.154 121.198 187.776 120.736 187.23V188H119.056V177.948H120.736V181.434C121.198 180.888 121.898 180.51 122.85 180.51C124.908 180.51 126.084 182.246 126.084 184.332C126.084 186.418 124.908 188.154 122.85 188.154ZM120.694 184.122V184.556C120.694 185.914 121.478 186.684 122.514 186.684C123.732 186.684 124.39 185.732 124.39 184.332C124.39 182.932 123.732 181.98 122.514 181.98C121.478 181.98 120.694 182.736 120.694 184.122ZM133.5 180.65V188H131.82V187.216C131.4 187.706 130.77 188.154 129.818 188.154C128.278 188.154 127.326 187.104 127.326 185.522V180.65H129.006V185.158C129.006 186.054 129.398 186.628 130.308 186.628C131.064 186.628 131.82 186.068 131.82 185.018V180.65H133.5ZM139.443 180.636V182.316C139.233 182.288 139.065 182.274 138.827 182.274C137.763 182.274 136.951 182.96 136.951 184.136V188H135.271V180.65H136.951V181.742C137.273 181.056 138.029 180.608 138.967 180.608C139.163 180.608 139.317 180.622 139.443 180.636ZM139.696 186.6L140.956 185.592C141.39 186.306 142.23 186.782 143.084 186.782C143.798 186.782 144.456 186.53 144.456 185.872C144.456 185.242 143.84 185.172 142.678 184.934C141.516 184.696 140.186 184.402 140.186 182.834C140.186 181.49 141.362 180.51 143.056 180.51C144.344 180.51 145.492 181.084 146.024 181.896L144.89 182.918C144.47 182.26 143.77 181.882 142.958 181.882C142.272 181.882 141.824 182.19 141.824 182.68C141.824 183.212 142.356 183.31 143.28 183.506C144.526 183.772 146.094 184.038 146.094 185.718C146.094 187.202 144.736 188.154 143.07 188.154C141.712 188.154 140.354 187.608 139.696 186.6ZM150.492 188.154C148.392 188.154 146.922 186.6 146.922 184.332C146.922 182.176 148.378 180.51 150.422 180.51C152.55 180.51 153.684 182.12 153.684 184.136V184.696H148.532C148.658 185.956 149.414 186.726 150.492 186.726C151.318 186.726 151.976 186.306 152.2 185.55L153.642 186.096C153.124 187.384 151.962 188.154 150.492 188.154ZM150.408 181.924C149.54 181.924 148.868 182.442 148.616 183.436H151.99C151.976 182.624 151.472 181.924 150.408 181.924ZM156.625 183.688V188H154.945V180.65H156.625V181.434C157.031 180.944 157.66 180.51 158.641 180.51C159.523 180.51 160.181 180.902 160.587 181.532C161.035 181.056 161.735 180.51 162.869 180.51C164.381 180.51 165.361 181.574 165.361 183.156V188H163.681V183.646C163.681 182.736 163.345 182.078 162.449 182.078C161.735 182.078 160.993 182.638 160.993 183.688V188H159.313V183.646C159.313 182.736 158.977 182.078 158.081 182.078C157.367 182.078 156.625 182.638 156.625 183.688ZM170.179 188.154C168.079 188.154 166.609 186.6 166.609 184.332C166.609 182.176 168.065 180.51 170.109 180.51C172.237 180.51 173.371 182.12 173.371 184.136V184.696H168.219C168.345 185.956 169.101 186.726 170.179 186.726C171.005 186.726 171.663 186.306 171.887 185.55L173.329 186.096C172.811 187.384 171.649 188.154 170.179 188.154ZM170.095 181.924C169.227 181.924 168.555 182.442 168.303 183.436H171.677C171.663 182.624 171.159 181.924 170.095 181.924ZM174.632 188V180.65H176.312V181.434C176.732 180.944 177.39 180.51 178.342 180.51C179.882 180.51 180.806 181.574 180.806 183.156V188H179.126V183.646C179.126 182.736 178.762 182.078 177.838 182.078C177.082 182.078 176.312 182.638 176.312 183.688V188H174.632ZM182.675 186.152V182.078H181.653V180.65H182.675V178.494H184.327V180.65H185.867V182.078H184.327V185.886C184.327 186.544 184.705 186.614 185.307 186.614C185.587 186.614 185.741 186.6 185.993 186.572V187.986C185.685 188.042 185.265 188.084 184.831 188.084C183.431 188.084 182.675 187.65 182.675 186.152Z" fill="#0A2540"/>
<circle cx="380" cy="119" r="27.5" stroke="#4ABCEB"/>
<mask id="mask0_3183_2817" style="mask-type:luminance" maskUnits="userSpaceOnUse" x="367" y="107" width="24" height="24">
<path d="M391 107H367V131H391V107Z" fill="white"/>
</mask>
<g mask="url(#mask0_3183_2817)">
<path d="M386.5 107.5H373.5C372.119 107.5 371 108.62 371 110V126.636C371 128.124 370.299 129.525 369.109 130.418L369 130.5H382L382.109 130.418C383.299 129.525 384 128.124 384 126.636V110.143C383.972 108.825 384.936 107.695 386.242 107.513C386.946 107.44 387.648 107.669 388.174 108.143C388.7 108.618 389 109.292 389 110V113.5C389 114.053 388.552 114.5 388 114.5H384" stroke="#20336B" stroke-linecap="round" stroke-linejoin="round"/>
<path d="M373.5 111.5H376" stroke="#00BAF2" stroke-linecap="round" stroke-linejoin="round"/>
<path d="M375.5 114.5H381" stroke="#00BAF2" stroke-linecap="round" stroke-linejoin="round"/>
<path d="M373.5 117.5H381" stroke="#00BAF2" stroke-linecap="round" stroke-linejoin="round"/>
<path d="M373.5 120.5H381" stroke="#00BAF2" stroke-linecap="round" stroke-linejoin="round"/>
<path d="M373.5 123.5H378" stroke="#00BAF2" stroke-linecap="round" stroke-linejoin="round"/>
<path d="M373.5 123.5H381" stroke="#00BAF2" stroke-linecap="round" stroke-linejoin="round"/>
<path d="M373.5 126.5H378" stroke="#00BAF2" stroke-linecap="round" stroke-linejoin="round"/>
</g>
<path d="M337.845 169V158.948H339.637V167.432H344.369V169H337.845ZM351.943 165.332C351.943 167.614 350.473 169.154 348.401 169.154C346.329 169.154 344.859 167.614 344.859 165.332C344.859 163.05 346.329 161.51 348.401 161.51C350.473 161.51 351.943 163.05 351.943 165.332ZM346.553 165.332C346.553 166.83 347.267 167.74 348.401 167.74C349.535 167.74 350.249 166.83 350.249 165.332C350.249 163.834 349.535 162.924 348.401 162.924C347.267 162.924 346.553 163.834 346.553 165.332ZM355.197 169.126C353.797 169.126 352.719 168.272 352.719 166.956C352.719 165.556 353.769 164.94 355.183 164.646L357.213 164.226V164.1C357.213 163.4 356.849 162.966 355.953 162.966C355.155 162.966 354.735 163.33 354.539 164.044L352.957 163.68C353.321 162.462 354.399 161.51 356.023 161.51C357.787 161.51 358.851 162.35 358.851 164.044V167.208C358.851 167.628 359.033 167.754 359.495 167.698V169C358.277 169.14 357.633 168.902 357.381 168.3C356.919 168.818 356.149 169.126 355.197 169.126ZM357.213 166.41V165.514L355.631 165.85C354.917 166.004 354.385 166.228 354.385 166.886C354.385 167.46 354.805 167.782 355.449 167.782C356.345 167.782 357.213 167.306 357.213 166.41ZM360.689 169V161.65H362.369V162.434C362.789 161.944 363.447 161.51 364.399 161.51C365.939 161.51 366.863 162.574 366.863 164.156V169H365.183V164.646C365.183 163.736 364.819 163.078 363.895 163.078C363.139 163.078 362.369 163.638 362.369 164.688V169H360.689ZM374.528 158.948H376.558L380.366 169H378.56L377.692 166.704H373.352L372.498 169H370.72L374.528 158.948ZM375.508 160.936L373.94 165.136H377.104L375.508 160.936ZM382.25 165.332C382.25 166.83 383.034 167.698 384.182 167.698C385.078 167.698 385.624 167.11 385.834 166.298L387.276 167.026C386.898 168.216 385.778 169.154 384.182 169.154C382.082 169.154 380.57 167.6 380.57 165.332C380.57 163.064 382.082 161.51 384.182 161.51C385.764 161.51 386.856 162.406 387.248 163.582L385.834 164.352C385.624 163.554 385.078 162.952 384.182 162.952C383.034 162.952 382.25 163.834 382.25 165.332ZM389.51 165.332C389.51 166.83 390.294 167.698 391.442 167.698C392.338 167.698 392.884 167.11 393.094 166.298L394.536 167.026C394.158 168.216 393.038 169.154 391.442 169.154C389.342 169.154 387.83 167.6 387.83 165.332C387.83 163.064 389.342 161.51 391.442 161.51C393.024 161.51 394.116 162.406 394.508 163.582L393.094 164.352C392.884 163.554 392.338 162.952 391.442 162.952C390.294 162.952 389.51 163.834 389.51 165.332ZM402.174 165.332C402.174 167.614 400.704 169.154 398.632 169.154C396.56 169.154 395.09 167.614 395.09 165.332C395.09 163.05 396.56 161.51 398.632 161.51C400.704 161.51 402.174 163.05 402.174 165.332ZM396.784 165.332C396.784 166.83 397.498 167.74 398.632 167.74C399.766 167.74 400.48 166.83 400.48 165.332C400.48 163.834 399.766 162.924 398.632 162.924C397.498 162.924 396.784 163.834 396.784 165.332ZM409.6 161.65V169H407.92V168.216C407.5 168.706 406.87 169.154 405.918 169.154C404.378 169.154 403.426 168.104 403.426 166.522V161.65H405.106V166.158C405.106 167.054 405.498 167.628 406.408 167.628C407.164 167.628 407.92 167.068 407.92 166.018V161.65H409.6ZM411.37 169V161.65H413.05V162.434C413.47 161.944 414.128 161.51 415.08 161.51C416.62 161.51 417.544 162.574 417.544 164.156V169H415.864V164.646C415.864 163.736 415.5 163.078 414.576 163.078C413.82 163.078 413.05 163.638 413.05 164.688V169H411.37ZM419.413 167.152V163.078H418.391V161.65H419.413V159.494H421.065V161.65H422.605V163.078H421.065V166.886C421.065 167.544 421.443 167.614 422.045 167.614C422.325 167.614 422.479 167.6 422.731 167.572V168.986C422.423 169.042 422.003 169.084 421.569 169.084C420.169 169.084 419.413 168.65 419.413 167.152ZM347.384 183.04L348.756 181.906C349.456 182.998 350.506 183.628 351.654 183.628C352.788 183.628 353.642 183.11 353.642 182.144C353.642 181.122 352.592 180.982 351.094 180.618C349.582 180.254 347.958 179.806 347.958 177.846C347.958 175.984 349.554 174.794 351.584 174.794C353.306 174.794 354.65 175.606 355.322 176.656L354.006 177.79C353.446 176.922 352.704 176.32 351.528 176.32C350.45 176.32 349.708 176.866 349.708 177.664C349.708 178.546 350.478 178.728 351.836 179.036C353.46 179.4 355.406 179.778 355.406 181.962C355.406 183.936 353.67 185.154 351.598 185.154C349.876 185.154 348.168 184.328 347.384 183.04ZM356.885 183.152V179.078H355.863V177.65H356.885V175.494H358.537V177.65H360.077V179.078H358.537V182.886C358.537 183.544 358.915 183.614 359.517 183.614C359.797 183.614 359.951 183.6 360.203 183.572V184.986C359.895 185.042 359.475 185.084 359.041 185.084C357.641 185.084 356.885 184.65 356.885 183.152ZM363.407 185.126C362.007 185.126 360.929 184.272 360.929 182.956C360.929 181.556 361.979 180.94 363.393 180.646L365.423 180.226V180.1C365.423 179.4 365.059 178.966 364.163 178.966C363.365 178.966 362.945 179.33 362.749 180.044L361.167 179.68C361.531 178.462 362.609 177.51 364.233 177.51C365.997 177.51 367.061 178.35 367.061 180.044V183.208C367.061 183.628 367.243 183.754 367.705 183.698V185C366.487 185.14 365.843 184.902 365.591 184.3C365.129 184.818 364.359 185.126 363.407 185.126ZM365.423 182.41V181.514L363.841 181.85C363.127 182.004 362.595 182.228 362.595 182.886C362.595 183.46 363.015 183.782 363.659 183.782C364.555 183.782 365.423 183.306 365.423 182.41ZM369.053 183.152V179.078H368.031V177.65H369.053V175.494H370.705V177.65H372.245V179.078H370.705V182.886C370.705 183.544 371.083 183.614 371.685 183.614C371.965 183.614 372.119 183.6 372.371 183.572V184.986C372.063 185.042 371.643 185.084 371.209 185.084C369.809 185.084 369.053 184.65 369.053 183.152ZM376.669 185.154C374.569 185.154 373.099 183.6 373.099 181.332C373.099 179.176 374.555 177.51 376.599 177.51C378.727 177.51 379.861 179.12 379.861 181.136V181.696H374.709C374.835 182.956 375.591 183.726 376.669 183.726C377.495 183.726 378.153 183.306 378.377 182.55L379.819 183.096C379.301 184.384 378.139 185.154 376.669 185.154ZM376.585 178.924C375.717 178.924 375.045 179.442 374.793 180.436H378.167C378.153 179.624 377.649 178.924 376.585 178.924ZM382.801 180.688V185H381.121V177.65H382.801V178.434C383.207 177.944 383.837 177.51 384.817 177.51C385.699 177.51 386.357 177.902 386.763 178.532C387.211 178.056 387.911 177.51 389.045 177.51C390.557 177.51 391.537 178.574 391.537 180.156V185H389.857V180.646C389.857 179.736 389.521 179.078 388.625 179.078C387.911 179.078 387.169 179.638 387.169 180.688V185H385.489V180.646C385.489 179.736 385.153 179.078 384.257 179.078C383.543 179.078 382.801 179.638 382.801 180.688ZM396.356 185.154C394.256 185.154 392.786 183.6 392.786 181.332C392.786 179.176 394.242 177.51 396.286 177.51C398.414 177.51 399.548 179.12 399.548 181.136V181.696H394.396C394.522 182.956 395.278 183.726 396.356 183.726C397.182 183.726 397.84 183.306 398.064 182.55L399.506 183.096C398.988 184.384 397.826 185.154 396.356 185.154ZM396.272 178.924C395.404 178.924 394.732 179.442 394.48 180.436H397.854C397.84 179.624 397.336 178.924 396.272 178.924ZM400.809 185V177.65H402.489V178.434C402.909 177.944 403.567 177.51 404.519 177.51C406.059 177.51 406.983 178.574 406.983 180.156V185H405.303V180.646C405.303 179.736 404.939 179.078 404.015 179.078C403.259 179.078 402.489 179.638 402.489 180.688V185H400.809ZM408.851 183.152V179.078H407.829V177.65H408.851V175.494H410.503V177.65H412.043V179.078H410.503V182.886C410.503 183.544 410.881 183.614 411.483 183.614C411.763 183.614 411.917 183.6 412.169 183.572V184.986C411.861 185.042 411.441 185.084 411.007 185.084C409.607 185.084 408.851 184.65 408.851 183.152Z" fill="#0A2540"/>
<circle cx="34" cy="119" r="27.5" stroke="#4ABCEB"/>
<g clip-path="url(#clip0_3183_2817)">
<mask id="mask1_3183_2817" style="mask-type:luminance" maskUnits="userSpaceOnUse" x="22" y="107" width="24" height="24">
<path d="M46 107H22V131H46V107Z" fill="white"/>
</mask>
<g mask="url(#mask1_3183_2817)">
<path d="M24.3125 116L27.5433 112.77" stroke="#20336B"/>
<path d="M24.3125 120.615L27.5433 123.846" stroke="#20336B"/>
<path d="M32.6163 123.846H24.7701C24.5152 123.846 24.3086 123.64 24.3086 123.385V113.231C24.3086 112.976 24.5152 112.77 24.7701 112.77H43.2317C43.4865 112.77 43.6932 112.976 43.6932 113.231V122.923" stroke="#20336B"/>
<path d="M43.6956 116L40.4648 112.77" stroke="#20336B"/>
<path d="M29.0547 125.963L29.8504 127.076V129.384" stroke="#20336B"/>
<path d="M30.7692 112.308C30.7692 112.296 30.7692 112.285 30.7692 112.273C30.7692 111.509 30.1493 110.889 29.3846 110.889C28.6199 110.889 28 111.509 28 112.273C28 112.285 28 112.296 28 112.308V112.77" stroke="#20336B"/>
<path d="M33.5388 112.769V111.385C33.5388 111.373 33.5388 111.361 33.5388 111.349C33.5388 110.585 32.9189 109.965 32.1541 109.965C31.3894 109.965 30.7695 110.585 30.7695 111.349C30.7695 111.361 30.7695 111.373 30.7695 111.385V112.769" stroke="#20336B"/>
<path d="M36.3083 112.769V110.035C36.3083 110.023 36.3083 110.012 36.3083 110C36.3083 109.235 35.6884 108.615 34.9237 108.615C34.159 108.615 33.5391 109.235 33.5391 110C33.5391 110.012 33.5391 110.023 33.5391 110.035V112.769" stroke="#20336B"/>
<path d="M39.0778 112.769V111.385C39.0778 111.373 39.0778 111.361 39.0778 111.349C39.0778 110.585 38.4579 109.965 37.6932 109.965C36.9285 109.965 36.3086 110.585 36.3086 111.349C36.3086 111.361 36.3086 111.373 36.3086 111.385V112.308" stroke="#20336B"/>
<path d="M38.156 129.384V128.46C38.156 127.879 38.4296 127.332 38.8944 126.984L41.1098 125.322C41.5747 124.973 41.8483 124.426 41.8483 123.845V119.663C41.8483 119.656 41.8436 119.651 41.8436 119.644C41.8121 118.949 41.2691 118.385 40.5754 118.327C39.8816 118.269 39.2529 118.736 39.1067 119.416C39.0649 119.492 39.0339 119.574 39.0144 119.659L38.7375 121.567C38.6569 122.131 38.3207 122.625 37.8264 122.908L36.3098 123.775C35.7372 124.105 35.3851 124.717 35.3867 125.378V126.614" stroke="#20336B"/>
<path d="M30.6445 117.656H37.3578" stroke="#00BAF2" stroke-linecap="square"/>
<path d="M30.6445 119H37.3578" stroke="#00BAF2" stroke-linecap="square"/>
<path d="M36.0152 121.013H35.3439L32.6586 115.643H31.9453V121.013" stroke="#00BAF2" stroke-linecap="square"/>
<path d="M36.0586 121.013V115.643" stroke="#00BAF2" stroke-linecap="square"/>
</g>
</g>
<path d="M19.5506 170V159.948H21.3426V168.432H26.0746V170H19.5506ZM33.6495 166.332C33.6495 168.614 32.1795 170.154 30.1075 170.154C28.0355 170.154 26.5655 168.614 26.5655 166.332C26.5655 164.05 28.0355 162.51 30.1075 162.51C32.1795 162.51 33.6495 164.05 33.6495 166.332ZM28.2595 166.332C28.2595 167.83 28.9735 168.74 30.1075 168.74C31.2415 168.74 31.9555 167.83 31.9555 166.332C31.9555 164.834 31.2415 163.924 30.1075 163.924C28.9735 163.924 28.2595 164.834 28.2595 166.332ZM36.9032 170.126C35.5032 170.126 34.4252 169.272 34.4252 167.956C34.4252 166.556 35.4752 165.94 36.8892 165.646L38.9192 165.226V165.1C38.9192 164.4 38.5552 163.966 37.6592 163.966C36.8612 163.966 36.4412 164.33 36.2452 165.044L34.6632 164.68C35.0272 163.462 36.1052 162.51 37.7292 162.51C39.4932 162.51 40.5572 163.35 40.5572 165.044V168.208C40.5572 168.628 40.7392 168.754 41.2012 168.698V170C39.9832 170.14 39.3392 169.902 39.0872 169.3C38.6252 169.818 37.8552 170.126 36.9032 170.126ZM38.9192 167.41V166.514L37.3372 166.85C36.6232 167.004 36.0912 167.228 36.0912 167.886C36.0912 168.46 36.5112 168.782 37.1552 168.782C38.0512 168.782 38.9192 168.306 38.9192 167.41ZM42.3947 170V162.65H44.0747V163.434C44.4947 162.944 45.1527 162.51 46.1047 162.51C47.6447 162.51 48.5687 163.574 48.5687 165.156V170H46.8887V165.646C46.8887 164.736 46.5247 164.078 45.6007 164.078C44.8447 164.078 44.0747 164.638 44.0747 165.688V170H42.3947ZM21.4815 184.332C21.4815 186.614 20.0115 188.154 17.9395 188.154C15.8675 188.154 14.3975 186.614 14.3975 184.332C14.3975 182.05 15.8675 180.51 17.9395 180.51C20.0115 180.51 21.4815 182.05 21.4815 184.332ZM16.0915 184.332C16.0915 185.83 16.8055 186.74 17.9395 186.74C19.0735 186.74 19.7875 185.83 19.7875 184.332C19.7875 182.834 19.0735 181.924 17.9395 181.924C16.8055 181.924 16.0915 182.834 16.0915 184.332ZM26.1912 177.808V179.278C25.9952 179.264 25.8972 179.264 25.6872 179.264C25.0292 179.264 24.6652 179.46 24.6652 180.3V180.65H26.1632V182.078H24.6652V188H22.9852V182.078H21.9632V180.65H22.9852V180.174C22.9852 178.648 23.8392 177.794 25.4912 177.794C25.7572 177.794 25.8832 177.794 26.1912 177.808ZM30.7303 177.808V179.278C30.5343 179.264 30.4363 179.264 30.2263 179.264C29.5683 179.264 29.2043 179.46 29.2043 180.3V180.65H30.7023V182.078H29.2043V188H27.5243V182.078H26.5023V180.65H27.5243V180.174C27.5243 178.648 28.3783 177.794 30.0303 177.794C30.2963 177.794 30.4223 177.794 30.7303 177.808ZM34.7019 188.154C32.6019 188.154 31.1319 186.6 31.1319 184.332C31.1319 182.176 32.5879 180.51 34.6319 180.51C36.7599 180.51 37.8939 182.12 37.8939 184.136V184.696H32.7419C32.8679 185.956 33.6239 186.726 34.7019 186.726C35.5279 186.726 36.1859 186.306 36.4099 185.55L37.8519 186.096C37.3339 187.384 36.1719 188.154 34.7019 188.154ZM34.6179 181.924C33.7499 181.924 33.0779 182.442 32.8259 183.436H36.1999C36.1859 182.624 35.6819 181.924 34.6179 181.924ZM43.3265 180.636V182.316C43.1165 182.288 42.9485 182.274 42.7105 182.274C41.6465 182.274 40.8345 182.96 40.8345 184.136V188H39.1545V180.65H40.8345V181.742C41.1565 181.056 41.9125 180.608 42.8505 180.608C43.0465 180.608 43.2005 180.622 43.3265 180.636ZM43.5798 186.6L44.8398 185.592C45.2738 186.306 46.1138 186.782 46.9678 186.782C47.6818 186.782 48.3398 186.53 48.3398 185.872C48.3398 185.242 47.7238 185.172 46.5618 184.934C45.3998 184.696 44.0698 184.402 44.0698 182.834C44.0698 181.49 45.2458 180.51 46.9398 180.51C48.2278 180.51 49.3758 181.084 49.9078 181.896L48.7738 182.918C48.3538 182.26 47.6538 181.882 46.8418 181.882C46.1558 181.882 45.7078 182.19 45.7078 182.68C45.7078 183.212 46.2398 183.31 47.1638 183.506C48.4098 183.772 49.9778 184.038 49.9778 185.718C49.9778 187.202 48.6198 188.154 46.9538 188.154C45.5958 188.154 44.2378 187.608 43.5798 186.6Z" fill="#0A2540"/>
<defs>
<clipPath id="clip0_3183_2817">
<rect width="24" height="24" fill="white" transform="translate(22 107)"/>
</clipPath>
</defs>
</svg>
