<svg width="620" height="100" viewBox="0 0 620 100" fill="none" xmlns="http://www.w3.org/2000/svg">
<g clip-path="url(#clip0_3458_8661)">
<rect width="464" height="84" fill="white"/>
<mask id="path-1-inside-1_3458_8661" fill="white">
<path d="M0 0H464V36H0V0Z"/>
</mask>
<path d="M464 35H0V37H464V35Z" fill="#C7D1DA" mask="url(#path-1-inside-1_3458_8661)"/>
<path d="M133.036 21V11.004H135.5L138.258 18.83H138.286L140.974 11.004H143.41V21H141.744V13.286H141.716L138.944 21H137.502L134.73 13.286H134.702V21H133.036ZM151.847 17.794H146.527C146.527 18.4007 146.686 18.9 147.003 19.292C147.349 19.7213 147.839 19.936 148.473 19.936C149.369 19.936 149.957 19.5347 150.237 18.732H151.749C151.581 19.5067 151.194 20.1133 150.587 20.552C149.99 20.9813 149.285 21.196 148.473 21.196C147.363 21.196 146.495 20.846 145.869 20.146C145.244 19.446 144.931 18.5267 144.931 17.388C144.931 16.324 145.244 15.428 145.869 14.7C146.532 13.944 147.386 13.566 148.431 13.566C149.449 13.566 150.284 13.9393 150.937 14.686C151.563 15.386 151.875 16.2447 151.875 17.262C151.875 17.4393 151.866 17.6167 151.847 17.794ZM146.527 16.744H150.251C150.223 16.212 150.041 15.7593 149.705 15.386C149.379 15.0127 148.954 14.826 148.431 14.826C147.89 14.826 147.442 15.008 147.087 15.372C146.733 15.736 146.546 16.1933 146.527 16.744ZM153.061 21V13.762H154.559V15.162H154.587C154.68 14.7607 154.937 14.3967 155.357 14.07C155.777 13.734 156.225 13.566 156.701 13.566C156.822 13.566 157.023 13.58 157.303 13.608V15.148C156.929 15.1013 156.701 15.078 156.617 15.078C156.047 15.078 155.585 15.2927 155.231 15.722C154.848 16.17 154.657 16.7813 154.657 17.556V21H153.061ZM164.465 16.184H162.869C162.738 15.2787 162.187 14.826 161.217 14.826C160.685 14.826 160.251 14.9893 159.915 15.316C159.457 15.764 159.229 16.478 159.229 17.458C159.229 18.1393 159.373 18.704 159.663 19.152C160.008 19.6747 160.503 19.936 161.147 19.936C161.613 19.936 161.996 19.7913 162.295 19.502C162.603 19.2033 162.794 18.7973 162.869 18.284H164.465C164.157 20.2253 163.051 21.196 161.147 21.196C160.045 21.196 159.177 20.8367 158.543 20.118C157.936 19.446 157.633 18.5593 157.633 17.458C157.633 16.31 157.931 15.386 158.529 14.686C159.163 13.9393 160.055 13.566 161.203 13.566C162.089 13.566 162.822 13.7807 163.401 14.21C164.035 14.6767 164.39 15.3347 164.465 16.184ZM165.762 21V11.004H167.358V14.714H167.386C167.591 14.378 167.885 14.1027 168.268 13.888C168.66 13.6733 169.089 13.566 169.556 13.566C170.359 13.566 170.984 13.776 171.432 14.196C171.889 14.616 172.118 15.2273 172.118 16.03V21H170.522V16.45C170.522 15.3673 170.051 14.826 169.108 14.826C168.585 14.826 168.161 15.008 167.834 15.372C167.517 15.736 167.358 16.1887 167.358 16.73V21H165.762ZM178.267 18.564V17.374C178.062 17.5047 177.763 17.6027 177.371 17.668C177.016 17.7147 176.662 17.7613 176.307 17.808C175.439 17.9573 175.005 18.3587 175.005 19.012C175.005 19.3293 175.182 19.572 175.537 19.74C175.808 19.8707 176.12 19.936 176.475 19.936C176.904 19.936 177.292 19.8333 177.637 19.628C178.057 19.376 178.267 19.0213 178.267 18.564ZM179.863 15.666V19.39C179.863 19.754 179.989 19.936 180.241 19.936C180.39 19.936 180.521 19.9267 180.633 19.908V21.014C180.288 21.1353 179.952 21.196 179.625 21.196C178.916 21.196 178.505 20.902 178.393 20.314C177.796 20.902 176.96 21.196 175.887 21.196C175.187 21.196 174.613 21.0187 174.165 20.664C173.661 20.2813 173.409 19.754 173.409 19.082C173.409 18.2793 173.708 17.7007 174.305 17.346C174.669 17.1313 175.299 16.9587 176.195 16.828C177.203 16.6787 177.707 16.604 177.707 16.604C178.146 16.4733 178.365 16.2073 178.365 15.806C178.365 15.1527 177.866 14.826 176.867 14.826C175.868 14.826 175.336 15.2087 175.271 15.974H173.675C173.768 14.3687 174.865 13.566 176.965 13.566C177.758 13.566 178.416 13.7247 178.939 14.042C179.555 14.4153 179.863 14.9567 179.863 15.666ZM181.58 21V13.762H183.092V14.826L183.12 14.854C183.634 13.9953 184.385 13.566 185.374 13.566C186.177 13.566 186.802 13.776 187.25 14.196C187.708 14.616 187.936 15.2273 187.936 16.03V21H186.34V16.45C186.34 15.3673 185.869 14.826 184.926 14.826C184.404 14.826 183.979 15.008 183.652 15.372C183.335 15.736 183.176 16.1887 183.176 16.73V21H181.58ZM188.891 14.952V13.762H190.095V11.592H191.691V13.762H193.133V14.952H191.691V18.816C191.691 19.1893 191.729 19.4367 191.803 19.558C191.906 19.726 192.125 19.81 192.461 19.81C192.76 19.81 192.984 19.7913 193.133 19.754V20.986C192.433 21.042 192.088 21.07 192.097 21.07C191.313 21.07 190.772 20.9113 190.473 20.594C190.221 20.3327 190.095 19.8753 190.095 19.222V14.952H188.891ZM200.152 16.45V19.572H203.246C204.366 19.572 204.926 19.0447 204.926 17.99C204.926 16.9633 204.366 16.45 203.246 16.45H200.152ZM198.402 21V11.004H203.26C204.184 11.004 204.907 11.214 205.43 11.634C205.962 12.054 206.228 12.67 206.228 13.482C206.228 14.49 205.752 15.1993 204.8 15.61V15.638C206.051 15.9087 206.676 16.7673 206.676 18.214C206.676 19.0447 206.387 19.7027 205.808 20.188C205.164 20.7293 204.226 21 202.994 21H198.402ZM200.152 12.432V15.19H203.008C203.437 15.19 203.787 15.0687 204.058 14.826C204.338 14.5833 204.478 14.2427 204.478 13.804C204.478 12.8893 203.988 12.432 203.008 12.432H200.152ZM214.391 13.762V21H212.823V19.992H212.795C212.599 20.3467 212.305 20.636 211.913 20.86C211.531 21.084 211.139 21.196 210.737 21.196C208.936 21.196 208.035 20.2487 208.035 18.354V13.762H209.631V18.2C209.631 19.3573 210.093 19.936 211.017 19.936C212.203 19.936 212.795 19.278 212.795 17.962V13.762H214.391ZM215.682 18.676H217.278C217.353 19.516 217.899 19.936 218.916 19.936C220.018 19.936 220.554 19.6187 220.526 18.984C220.508 18.536 220.088 18.214 219.266 18.018C217.894 17.682 217.152 17.486 217.04 17.43C216.238 17.0753 215.836 16.478 215.836 15.638C215.836 14.9193 216.177 14.378 216.858 14.014C217.4 13.7153 218.067 13.566 218.86 13.566C219.672 13.566 220.34 13.734 220.862 14.07C221.45 14.462 221.791 15.036 221.884 15.792H220.218C220.097 15.148 219.607 14.826 218.748 14.826C217.871 14.826 217.432 15.0733 217.432 15.568C217.432 15.904 217.68 16.1607 218.174 16.338C218.268 16.3753 218.804 16.506 219.784 16.73C220.512 16.898 221.049 17.1033 221.394 17.346C221.88 17.7007 222.122 18.2 222.122 18.844C222.122 19.6373 221.772 20.244 221.072 20.664C220.484 21.0187 219.756 21.196 218.888 21.196C217.936 21.196 217.18 20.9907 216.62 20.58C216.004 20.132 215.692 19.4973 215.682 18.676ZM223.376 21V13.762H224.972V21H223.376ZM223.376 12.516V11.004H224.972V12.516H223.376ZM226.711 21V13.762H228.223V14.826L228.251 14.854C228.764 13.9953 229.516 13.566 230.505 13.566C231.308 13.566 231.933 13.776 232.381 14.196C232.838 14.616 233.067 15.2273 233.067 16.03V21H231.471V16.45C231.471 15.3673 231 14.826 230.057 14.826C229.534 14.826 229.11 15.008 228.783 15.372C228.466 15.736 228.307 16.1887 228.307 16.73V21H226.711ZM241.316 17.794H235.996C235.996 18.4007 236.155 18.9 236.472 19.292C236.817 19.7213 237.307 19.936 237.942 19.936C238.838 19.936 239.426 19.5347 239.706 18.732H241.218C241.05 19.5067 240.663 20.1133 240.056 20.552C239.459 20.9813 238.754 21.196 237.942 21.196C236.831 21.196 235.963 20.846 235.338 20.146C234.713 19.446 234.4 18.5267 234.4 17.388C234.4 16.324 234.713 15.428 235.338 14.7C236.001 13.944 236.855 13.566 237.9 13.566C238.917 13.566 239.753 13.9393 240.406 14.686C241.031 15.386 241.344 16.2447 241.344 17.262C241.344 17.4393 241.335 17.6167 241.316 17.794ZM235.996 16.744H239.72C239.692 16.212 239.51 15.7593 239.174 15.386C238.847 15.0127 238.423 14.826 237.9 14.826C237.359 14.826 236.911 15.008 236.556 15.372C236.201 15.736 236.015 16.1933 235.996 16.744ZM242.137 18.676H243.733C243.808 19.516 244.354 19.936 245.371 19.936C246.473 19.936 247.009 19.6187 246.981 18.984C246.963 18.536 246.543 18.214 245.721 18.018C244.349 17.682 243.607 17.486 243.495 17.43C242.693 17.0753 242.291 16.478 242.291 15.638C242.291 14.9193 242.632 14.378 243.313 14.014C243.855 13.7153 244.522 13.566 245.315 13.566C246.127 13.566 246.795 13.734 247.317 14.07C247.905 14.462 248.246 15.036 248.339 15.792H246.673C246.552 15.148 246.062 14.826 245.203 14.826C244.326 14.826 243.887 15.0733 243.887 15.568C243.887 15.904 244.135 16.1607 244.629 16.338C244.723 16.3753 245.259 16.506 246.239 16.73C246.967 16.898 247.504 17.1033 247.849 17.346C248.335 17.7007 248.577 18.2 248.577 18.844C248.577 19.6373 248.227 20.244 247.527 20.664C246.939 21.0187 246.211 21.196 245.343 21.196C244.391 21.196 243.635 20.9907 243.075 20.58C242.459 20.132 242.147 19.4973 242.137 18.676ZM249.397 18.676H250.993C251.068 19.516 251.614 19.936 252.631 19.936C253.733 19.936 254.269 19.6187 254.241 18.984C254.223 18.536 253.803 18.214 252.981 18.018C251.609 17.682 250.867 17.486 250.755 17.43C249.953 17.0753 249.551 16.478 249.551 15.638C249.551 14.9193 249.892 14.378 250.573 14.014C251.115 13.7153 251.782 13.566 252.575 13.566C253.387 13.566 254.055 13.734 254.577 14.07C255.165 14.462 255.506 15.036 255.599 15.792H253.933C253.812 15.148 253.322 14.826 252.463 14.826C251.586 14.826 251.147 15.0733 251.147 15.568C251.147 15.904 251.395 16.1607 251.889 16.338C251.983 16.3753 252.519 16.506 253.499 16.73C254.227 16.898 254.764 17.1033 255.109 17.346C255.595 17.7007 255.837 18.2 255.837 18.844C255.837 19.6373 255.487 20.244 254.787 20.664C254.199 21.0187 253.471 21.196 252.603 21.196C251.651 21.196 250.895 20.9907 250.335 20.58C249.719 20.132 249.407 19.4973 249.397 18.676ZM269.667 14.182H267.917C267.581 12.8567 266.751 12.194 265.425 12.194C264.427 12.194 263.652 12.5907 263.101 13.384C262.625 14.0747 262.387 14.9473 262.387 16.002C262.387 17.0567 262.625 17.9293 263.101 18.62C263.652 19.4133 264.427 19.81 265.425 19.81C266.172 19.81 266.774 19.5533 267.231 19.04C267.651 18.5733 267.899 17.9573 267.973 17.192H269.681C269.607 18.396 269.177 19.3713 268.393 20.118C267.619 20.8647 266.629 21.238 265.425 21.238C263.969 21.238 262.798 20.72 261.911 19.684C261.062 18.704 260.637 17.4767 260.637 16.002C260.637 14.518 261.062 13.286 261.911 12.306C262.798 11.2793 263.969 10.766 265.425 10.766C266.573 10.766 267.535 11.0647 268.309 11.662C269.112 12.2873 269.565 13.1273 269.667 14.182ZM275.515 18.564V17.374C275.31 17.5047 275.011 17.6027 274.619 17.668C274.264 17.7147 273.91 17.7613 273.555 17.808C272.687 17.9573 272.253 18.3587 272.253 19.012C272.253 19.3293 272.43 19.572 272.785 19.74C273.056 19.8707 273.368 19.936 273.723 19.936C274.152 19.936 274.54 19.8333 274.885 19.628C275.305 19.376 275.515 19.0213 275.515 18.564ZM277.111 15.666V19.39C277.111 19.754 277.237 19.936 277.489 19.936C277.638 19.936 277.769 19.9267 277.881 19.908V21.014C277.536 21.1353 277.2 21.196 276.873 21.196C276.164 21.196 275.753 20.902 275.641 20.314C275.044 20.902 274.208 21.196 273.135 21.196C272.435 21.196 271.861 21.0187 271.413 20.664C270.909 20.2813 270.657 19.754 270.657 19.082C270.657 18.2793 270.956 17.7007 271.553 17.346C271.917 17.1313 272.547 16.9587 273.443 16.828C274.451 16.6787 274.955 16.604 274.955 16.604C275.394 16.4733 275.613 16.2073 275.613 15.806C275.613 15.1527 275.114 14.826 274.115 14.826C273.116 14.826 272.584 15.2087 272.519 15.974H270.923C271.016 14.3687 272.113 13.566 274.213 13.566C275.006 13.566 275.664 13.7247 276.187 14.042C276.803 14.4153 277.111 14.9567 277.111 15.666ZM278.1 14.952V13.762H279.304V11.592H280.9V13.762H282.342V14.952H280.9V18.816C280.9 19.1893 280.938 19.4367 281.012 19.558C281.115 19.726 281.334 19.81 281.67 19.81C281.969 19.81 282.193 19.7913 282.342 19.754V20.986C281.642 21.042 281.297 21.07 281.306 21.07C280.522 21.07 279.981 20.9113 279.682 20.594C279.43 20.3327 279.304 19.8753 279.304 19.222V14.952H278.1ZM290.056 17.794H284.736C284.736 18.4007 284.895 18.9 285.212 19.292C285.558 19.7213 286.048 19.936 286.682 19.936C287.578 19.936 288.166 19.5347 288.446 18.732H289.958C289.79 19.5067 289.403 20.1133 288.796 20.552C288.199 20.9813 287.494 21.196 286.682 21.196C285.572 21.196 284.704 20.846 284.078 20.146C283.453 19.446 283.14 18.5267 283.14 17.388C283.14 16.324 283.453 15.428 284.078 14.7C284.741 13.944 285.595 13.566 286.64 13.566C287.658 13.566 288.493 13.9393 289.146 14.686C289.772 15.386 290.084 16.2447 290.084 17.262C290.084 17.4393 290.075 17.6167 290.056 17.794ZM284.736 16.744H288.46C288.432 16.212 288.25 15.7593 287.914 15.386C287.588 15.0127 287.163 14.826 286.64 14.826C286.099 14.826 285.651 15.008 285.296 15.372C284.942 15.736 284.755 16.1933 284.736 16.744ZM294.42 19.74C295.073 19.74 295.572 19.474 295.918 18.942C296.216 18.4847 296.366 17.9107 296.366 17.22C296.366 16.5387 296.216 15.9833 295.918 15.554C295.572 15.0687 295.073 14.826 294.42 14.826C293.766 14.826 293.272 15.0967 292.936 15.638C292.656 16.086 292.516 16.6553 292.516 17.346C292.516 17.9993 292.665 18.5453 292.964 18.984C293.309 19.488 293.794 19.74 294.42 19.74ZM297.962 13.762V20.622C297.962 22.7873 296.776 23.87 294.406 23.87C293.566 23.87 292.861 23.7067 292.292 23.38C291.61 22.988 291.237 22.4 291.172 21.616H292.768C292.917 22.3253 293.496 22.68 294.504 22.68C295.745 22.68 296.366 22.064 296.366 20.832V19.726H296.338C295.862 20.5753 295.138 21 294.168 21C293.076 21 292.25 20.622 291.69 19.866C291.176 19.2033 290.92 18.312 290.92 17.192C290.92 16.1747 291.209 15.3253 291.788 14.644C292.394 13.9253 293.197 13.566 294.196 13.566C295.232 13.566 295.946 13.9627 296.338 14.756H296.366V13.762H297.962ZM302.887 19.936C303.559 19.936 304.081 19.6653 304.455 19.124C304.781 18.6573 304.945 18.074 304.945 17.374C304.945 16.6833 304.781 16.1047 304.455 15.638C304.081 15.0967 303.559 14.826 302.887 14.826C302.215 14.826 301.692 15.0967 301.319 15.638C300.992 16.1047 300.829 16.6833 300.829 17.374C300.829 18.074 300.992 18.6573 301.319 19.124C301.692 19.6653 302.215 19.936 302.887 19.936ZM302.887 21.196C301.748 21.196 300.847 20.8367 300.185 20.118C299.55 19.4273 299.233 18.5127 299.233 17.374C299.233 16.2447 299.555 15.33 300.199 14.63C300.852 13.9207 301.748 13.566 302.887 13.566C304.025 13.566 304.926 13.9253 305.589 14.644C306.223 15.3347 306.541 16.2447 306.541 17.374C306.541 18.5127 306.223 19.4273 305.589 20.118C304.926 20.8367 304.025 21.196 302.887 21.196ZM307.867 21V13.762H309.365V15.162H309.393C309.487 14.7607 309.743 14.3967 310.163 14.07C310.583 13.734 311.031 13.566 311.507 13.566C311.629 13.566 311.829 13.58 312.109 13.608V15.148C311.736 15.1013 311.507 15.078 311.423 15.078C310.854 15.078 310.392 15.2927 310.037 15.722C309.655 16.17 309.463 16.7813 309.463 17.556V21H307.867ZM312.831 21V13.762H314.427V21H312.831ZM312.831 12.516V11.004H314.427V12.516H312.831ZM322.732 17.794H317.412C317.412 18.4007 317.571 18.9 317.888 19.292C318.234 19.7213 318.724 19.936 319.358 19.936C320.254 19.936 320.842 19.5347 321.122 18.732H322.634C322.466 19.5067 322.079 20.1133 321.472 20.552C320.875 20.9813 320.17 21.196 319.358 21.196C318.248 21.196 317.38 20.846 316.754 20.146C316.129 19.446 315.816 18.5267 315.816 17.388C315.816 16.324 316.129 15.428 316.754 14.7C317.417 13.944 318.271 13.566 319.316 13.566C320.334 13.566 321.169 13.9393 321.822 14.686C322.448 15.386 322.76 16.2447 322.76 17.262C322.76 17.4393 322.751 17.6167 322.732 17.794ZM317.412 16.744H321.136C321.108 16.212 320.926 15.7593 320.59 15.386C320.264 15.0127 319.839 14.826 319.316 14.826C318.775 14.826 318.327 15.008 317.972 15.372C317.618 15.736 317.431 16.1933 317.412 16.744ZM323.553 18.676H325.149C325.224 19.516 325.77 19.936 326.787 19.936C327.889 19.936 328.425 19.6187 328.397 18.984C328.379 18.536 327.959 18.214 327.137 18.018C325.765 17.682 325.023 17.486 324.911 17.43C324.109 17.0753 323.707 16.478 323.707 15.638C323.707 14.9193 324.048 14.378 324.729 14.014C325.271 13.7153 325.938 13.566 326.731 13.566C327.543 13.566 328.211 13.734 328.733 14.07C329.321 14.462 329.662 15.036 329.755 15.792H328.089C327.968 15.148 327.478 14.826 326.619 14.826C325.742 14.826 325.303 15.0733 325.303 15.568C325.303 15.904 325.551 16.1607 326.045 16.338C326.139 16.3753 326.675 16.506 327.655 16.73C328.383 16.898 328.92 17.1033 329.265 17.346C329.751 17.7007 329.993 18.2 329.993 18.844C329.993 19.6373 329.643 20.244 328.943 20.664C328.355 21.0187 327.627 21.196 326.759 21.196C325.807 21.196 325.051 20.9907 324.491 20.58C323.875 20.132 323.563 19.4973 323.553 18.676Z" fill="#20336B"/>
<mask id="path-4-inside-2_3458_8661" fill="white">
<path d="M0 36H464V84H0V36Z"/>
</mask>
<path d="M464 83H0V85H464V83Z" fill="#C7D1DA" mask="url(#path-4-inside-2_3458_8661)"/>
<path d="M201.201 65V55.6943H205.327C206.157 55.6943 206.787 55.779 207.219 55.9482C207.65 56.1133 207.995 56.4074 208.253 56.8306C208.512 57.2537 208.641 57.7214 208.641 58.2334C208.641 58.8936 208.427 59.45 208 59.9028C207.572 60.3556 206.912 60.6434 206.019 60.7661C206.345 60.9227 206.592 61.0771 206.762 61.2295C207.121 61.5596 207.462 61.9722 207.784 62.4673L209.402 65H207.854L206.622 63.064C206.262 62.5054 205.966 62.078 205.733 61.7817C205.501 61.4855 205.291 61.2782 205.105 61.1597C204.923 61.0412 204.737 60.9587 204.546 60.9121C204.407 60.8825 204.178 60.8677 203.861 60.8677H202.433V65H201.201ZM202.433 59.8013H205.08C205.642 59.8013 206.083 59.7441 206.4 59.6299C206.717 59.5114 206.958 59.3252 207.124 59.0713C207.289 58.8132 207.371 58.5339 207.371 58.2334C207.371 57.7933 207.21 57.4315 206.889 57.1479C206.571 56.8644 206.068 56.7227 205.378 56.7227H202.433V59.8013ZM215.045 62.8291L216.226 62.9751C216.04 63.6649 215.695 64.2002 215.191 64.5811C214.688 64.9619 214.045 65.1523 213.262 65.1523C212.276 65.1523 211.493 64.8498 210.913 64.2446C210.338 63.6353 210.05 62.7826 210.05 61.6865C210.05 60.5524 210.342 59.6722 210.926 59.0459C211.51 58.4196 212.267 58.1064 213.198 58.1064C214.1 58.1064 214.836 58.4132 215.407 59.0269C215.979 59.6405 216.264 60.5037 216.264 61.6167C216.264 61.6844 216.262 61.786 216.258 61.9214H211.23C211.273 62.6619 211.482 63.229 211.859 63.6226C212.236 64.0161 212.705 64.2129 213.268 64.2129C213.687 64.2129 214.045 64.1029 214.341 63.8828C214.637 63.6628 214.872 63.3115 215.045 62.8291ZM211.294 60.9819H215.058C215.007 60.4149 214.863 59.9896 214.626 59.7061C214.263 59.266 213.791 59.0459 213.211 59.0459C212.686 59.0459 212.244 59.2215 211.884 59.5728C211.529 59.924 211.332 60.3937 211.294 60.9819ZM217.21 62.9878L218.34 62.8101C218.403 63.2629 218.579 63.6099 218.867 63.8511C219.159 64.0923 219.565 64.2129 220.085 64.2129C220.61 64.2129 221 64.1071 221.253 63.8955C221.507 63.6797 221.634 63.4279 221.634 63.1401C221.634 62.882 221.522 62.6789 221.298 62.5308C221.141 62.4292 220.752 62.3001 220.13 62.1436C219.292 61.932 218.71 61.75 218.384 61.5977C218.063 61.4411 217.817 61.2274 217.648 60.9565C217.483 60.6815 217.4 60.3789 217.4 60.0488C217.4 59.7484 217.468 59.4712 217.604 59.2173C217.743 58.9591 217.931 58.7454 218.168 58.5762C218.346 58.445 218.587 58.335 218.892 58.2461C219.201 58.153 219.531 58.1064 219.882 58.1064C220.411 58.1064 220.875 58.1826 221.272 58.335C221.674 58.4873 221.971 58.6947 222.161 58.957C222.352 59.2152 222.483 59.5622 222.555 59.998L221.438 60.1504C221.387 59.8034 221.239 59.5326 220.993 59.3379C220.752 59.1432 220.409 59.0459 219.965 59.0459C219.44 59.0459 219.066 59.1326 218.841 59.3062C218.617 59.4797 218.505 59.6828 218.505 59.9155C218.505 60.0636 218.551 60.1969 218.645 60.3154C218.738 60.4382 218.884 60.5397 219.083 60.6201C219.197 60.6624 219.533 60.7598 220.092 60.9121C220.9 61.1279 221.463 61.3057 221.78 61.4453C222.102 61.5807 222.354 61.7796 222.536 62.042C222.718 62.3044 222.809 62.6302 222.809 63.0195C222.809 63.4004 222.696 63.7601 222.472 64.0986C222.252 64.4329 221.933 64.6932 221.514 64.8794C221.095 65.0614 220.621 65.1523 220.092 65.1523C219.216 65.1523 218.547 64.9704 218.086 64.6064C217.629 64.2425 217.337 63.703 217.21 62.9878ZM226.662 63.978L226.827 64.9873C226.505 65.055 226.217 65.0889 225.963 65.0889C225.549 65.0889 225.227 65.0233 224.999 64.8921C224.77 64.7609 224.609 64.5895 224.516 64.3779C224.423 64.1621 224.376 63.7114 224.376 63.0259V59.1475H223.539V58.2588H224.376V56.5894L225.513 55.9038V58.2588H226.662V59.1475H225.513V63.0894C225.513 63.4152 225.532 63.6247 225.57 63.7178C225.612 63.8109 225.678 63.8849 225.767 63.9399C225.86 63.995 225.991 64.0225 226.16 64.0225C226.287 64.0225 226.454 64.0076 226.662 63.978ZM232.184 64.1685C231.761 64.5282 231.353 64.7821 230.959 64.9302C230.57 65.0783 230.151 65.1523 229.702 65.1523C228.962 65.1523 228.392 64.9725 227.995 64.6128C227.597 64.2489 227.398 63.7855 227.398 63.2227C227.398 62.8926 227.472 62.5921 227.62 62.3213C227.772 62.0462 227.969 61.8262 228.21 61.6611C228.456 61.4961 228.731 61.3713 229.036 61.2866C229.26 61.2274 229.598 61.1702 230.051 61.1152C230.974 61.0052 231.653 60.874 232.089 60.7217C232.093 60.5651 232.095 60.4657 232.095 60.4233C232.095 59.9578 231.987 59.6299 231.771 59.4395C231.479 59.1813 231.046 59.0522 230.47 59.0522C229.933 59.0522 229.535 59.1475 229.277 59.3379C229.023 59.5241 228.835 59.8563 228.712 60.3345L227.595 60.1821C227.696 59.7039 227.863 59.3188 228.096 59.0269C228.329 58.7306 228.665 58.5042 229.105 58.3477C229.546 58.1868 230.056 58.1064 230.635 58.1064C231.211 58.1064 231.678 58.1742 232.038 58.3096C232.398 58.445 232.662 58.6164 232.832 58.8237C233.001 59.0269 233.119 59.285 233.187 59.5981C233.225 59.7928 233.244 60.144 233.244 60.6519V62.1753C233.244 63.2375 233.267 63.9103 233.314 64.1938C233.365 64.4731 233.462 64.7419 233.606 65H232.413C232.294 64.763 232.218 64.4858 232.184 64.1685ZM232.089 61.6167C231.674 61.786 231.052 61.9299 230.223 62.0483C229.753 62.116 229.421 62.1922 229.226 62.2769C229.031 62.3615 228.881 62.4863 228.775 62.6514C228.67 62.8122 228.617 62.992 228.617 63.1909C228.617 63.4956 228.731 63.7495 228.959 63.9526C229.192 64.1558 229.531 64.2573 229.975 64.2573C230.415 64.2573 230.807 64.1621 231.149 63.9717C231.492 63.777 231.744 63.5125 231.905 63.1782C232.028 62.9201 232.089 62.5392 232.089 62.0356V61.6167ZM239.439 65V64.0098C238.915 64.7715 238.202 65.1523 237.3 65.1523C236.903 65.1523 236.53 65.0762 236.183 64.9238C235.84 64.7715 235.584 64.5811 235.415 64.3525C235.25 64.1198 235.134 63.8363 235.066 63.502C235.019 63.2777 234.996 62.9222 234.996 62.4355V58.2588H236.139V61.9976C236.139 62.5942 236.162 62.9963 236.208 63.2036C236.28 63.5041 236.433 63.741 236.666 63.9146C236.898 64.0838 237.186 64.1685 237.529 64.1685C237.872 64.1685 238.193 64.0817 238.494 63.9082C238.794 63.7305 239.006 63.4914 239.128 63.1909C239.255 62.8862 239.319 62.4461 239.319 61.8706V58.2588H240.461V65H239.439ZM242.245 65V58.2588H243.273V59.2808C243.536 58.8026 243.777 58.4873 243.997 58.335C244.221 58.1826 244.467 58.1064 244.733 58.1064C245.118 58.1064 245.51 58.2292 245.908 58.4746L245.514 59.5347C245.235 59.3696 244.956 59.2871 244.676 59.2871C244.427 59.2871 244.202 59.3633 244.003 59.5156C243.805 59.6637 243.663 59.8711 243.578 60.1377C243.451 60.5439 243.388 60.9883 243.388 61.4707V65H242.245ZM250.986 64.1685C250.563 64.5282 250.154 64.7821 249.761 64.9302C249.371 65.0783 248.952 65.1523 248.504 65.1523C247.763 65.1523 247.194 64.9725 246.796 64.6128C246.399 64.2489 246.2 63.7855 246.2 63.2227C246.2 62.8926 246.274 62.5921 246.422 62.3213C246.574 62.0462 246.771 61.8262 247.012 61.6611C247.258 61.4961 247.533 61.3713 247.837 61.2866C248.062 61.2274 248.4 61.1702 248.853 61.1152C249.776 61.0052 250.455 60.874 250.891 60.7217C250.895 60.5651 250.897 60.4657 250.897 60.4233C250.897 59.9578 250.789 59.6299 250.573 59.4395C250.281 59.1813 249.847 59.0522 249.272 59.0522C248.735 59.0522 248.337 59.1475 248.079 59.3379C247.825 59.5241 247.636 59.8563 247.514 60.3345L246.396 60.1821C246.498 59.7039 246.665 59.3188 246.898 59.0269C247.131 58.7306 247.467 58.5042 247.907 58.3477C248.347 58.1868 248.857 58.1064 249.437 58.1064C250.013 58.1064 250.48 58.1742 250.84 58.3096C251.2 58.445 251.464 58.6164 251.633 58.8237C251.803 59.0269 251.921 59.285 251.989 59.5981C252.027 59.7928 252.046 60.144 252.046 60.6519V62.1753C252.046 63.2375 252.069 63.9103 252.116 64.1938C252.167 64.4731 252.264 64.7419 252.408 65H251.214C251.096 64.763 251.02 64.4858 250.986 64.1685ZM250.891 61.6167C250.476 61.786 249.854 61.9299 249.024 62.0483C248.555 62.116 248.222 62.1922 248.028 62.2769C247.833 62.3615 247.683 62.4863 247.577 62.6514C247.471 62.8122 247.418 62.992 247.418 63.1909C247.418 63.4956 247.533 63.7495 247.761 63.9526C247.994 64.1558 248.333 64.2573 248.777 64.2573C249.217 64.2573 249.608 64.1621 249.951 63.9717C250.294 63.777 250.546 63.5125 250.707 63.1782C250.829 62.9201 250.891 62.5392 250.891 62.0356V61.6167ZM253.823 65V58.2588H254.852V59.2173C255.347 58.4767 256.062 58.1064 256.997 58.1064C257.403 58.1064 257.776 58.1805 258.114 58.3286C258.457 58.4725 258.713 58.6629 258.882 58.8999C259.052 59.1369 259.17 59.4183 259.238 59.7441C259.28 59.9557 259.301 60.326 259.301 60.855V65H258.159V60.8994C258.159 60.4339 258.114 60.0869 258.025 59.8584C257.937 59.6257 257.778 59.4416 257.549 59.3062C257.325 59.1665 257.061 59.0967 256.756 59.0967C256.269 59.0967 255.848 59.2511 255.493 59.5601C255.141 59.869 254.966 60.4551 254.966 61.3184V65H253.823ZM263.554 63.978L263.719 64.9873C263.398 65.055 263.11 65.0889 262.856 65.0889C262.441 65.0889 262.12 65.0233 261.891 64.8921C261.663 64.7609 261.502 64.5895 261.409 64.3779C261.316 64.1621 261.269 63.7114 261.269 63.0259V59.1475H260.431V58.2588H261.269V56.5894L262.405 55.9038V58.2588H263.554V59.1475H262.405V63.0894C262.405 63.4152 262.424 63.6247 262.462 63.7178C262.505 63.8109 262.57 63.8849 262.659 63.9399C262.752 63.995 262.883 64.0225 263.053 64.0225C263.18 64.0225 263.347 64.0076 263.554 63.978Z" fill="#0A2540"/>
</g>
<path d="M464 41.5H524" stroke="white"/>
<g filter="url(#filter0_d_3458_8661)">
<rect x="524" y="2" width="80" height="80" rx="40" fill="white"/>
<path d="M568.339 29.6309C568.739 29.6358 569.137 29.5605 569.508 29.4094C569.879 29.2583 570.215 29.0344 570.499 28.7509L573.329 25.9209C573.515 25.7335 573.619 25.4801 573.619 25.2159C573.619 24.9517 573.515 24.6983 573.329 24.5109C573.236 24.4172 573.125 24.3428 573.003 24.292C572.881 24.2412 572.751 24.2151 572.619 24.2151C572.487 24.2151 572.356 24.2412 572.234 24.292C572.112 24.3428 572.001 24.4172 571.909 24.5109L569.049 27.3309C568.956 27.4246 568.845 27.499 568.723 27.5498C568.601 27.6005 568.471 27.6267 568.339 27.6267C568.207 27.6267 568.076 27.6005 567.954 27.5498C567.832 27.499 567.721 27.4246 567.629 27.3309L571.169 23.8009C571.262 23.7077 571.336 23.597 571.386 23.4751C571.437 23.3533 571.463 23.2227 571.463 23.0909C571.463 22.959 571.437 22.8285 571.386 22.7066C571.336 22.5848 571.262 22.4741 571.169 22.3809C571.075 22.2877 570.965 22.2137 570.843 22.1632C570.721 22.1128 570.59 22.0868 570.459 22.0868C570.327 22.0868 570.196 22.1128 570.074 22.1632C569.952 22.2137 569.842 22.2877 569.749 22.3809L566.219 25.9209C566.032 25.7335 565.928 25.4801 565.928 25.2159C565.928 24.9517 566.032 24.6983 566.219 24.5109L569.049 21.6809C569.142 21.5877 569.216 21.477 569.266 21.3551C569.317 21.2333 569.343 21.1027 569.343 20.9709C569.343 20.839 569.317 20.7085 569.266 20.5866C569.216 20.4648 569.142 20.3541 569.049 20.2609C568.955 20.1677 568.845 20.0937 568.723 20.0432C568.601 19.9928 568.47 19.9668 568.339 19.9668C568.207 19.9668 568.076 19.9928 567.954 20.0432C567.832 20.0937 567.722 20.1677 567.629 20.2609L564.799 23.0909C564.237 23.6534 563.921 24.4159 563.921 25.2109C563.921 26.0059 564.237 26.7684 564.799 27.3309L563.499 28.6209L555.229 20.3209L555.129 20.2609C555.077 20.2163 555.02 20.1792 554.959 20.1509L554.779 20.0809L554.659 20.0009H554.389C554.329 19.9914 554.268 19.9914 554.209 20.0009C554.148 20.0229 554.091 20.0532 554.039 20.0909L553.879 20.1909H553.809L553.749 20.2909C553.706 20.3437 553.669 20.4006 553.639 20.4609C553.609 20.5219 553.586 20.5855 553.569 20.6509C553.569 20.6509 553.569 20.7209 553.569 20.7609C553.326 22.4523 553.481 24.177 554.02 25.7982C554.56 27.4194 555.47 28.8926 556.679 30.1009L559.319 32.7309L553.909 38.1309C553.815 38.2239 553.74 38.3345 553.69 38.4563C553.639 38.5782 553.613 38.7089 553.613 38.8409C553.613 38.9729 553.639 39.1036 553.69 39.2255C553.74 39.3473 553.815 39.4579 553.909 39.5509C554.002 39.6436 554.113 39.7169 554.235 39.7667C554.356 39.8164 554.487 39.8417 554.619 39.8409C554.75 39.8417 554.881 39.8164 555.002 39.7667C555.124 39.7169 555.235 39.6436 555.329 39.5509L561.399 33.5709L564.229 30.7409L566.229 28.7409C566.787 29.3049 567.545 29.6249 568.339 29.6309ZM560.689 31.4509L558.059 28.8109C556.617 27.3496 555.714 25.4422 555.499 23.4009L562.109 30.0009L560.689 31.4509ZM566.929 32.0209C566.74 31.8313 566.484 31.7242 566.217 31.7233C565.95 31.7223 565.693 31.8276 565.504 32.0159C565.314 32.2042 565.207 32.4601 565.206 32.7274C565.205 32.9946 565.31 33.2513 565.499 33.4409L571.799 39.7409C571.99 39.9147 572.24 40.0079 572.499 40.0009C572.63 40.0016 572.761 39.9764 572.882 39.9267C573.004 39.8769 573.115 39.8036 573.209 39.7109C573.302 39.6179 573.377 39.5073 573.427 39.3855C573.478 39.2636 573.504 39.1329 573.504 39.0009C573.504 38.8689 573.478 38.7382 573.427 38.6163C573.377 38.4945 573.302 38.3839 573.209 38.2909L566.929 32.0209Z" fill="#20336B"/>
<path d="M545.966 62H543.888L543.901 60.9268H545.966C546.677 60.9268 547.269 60.7786 547.743 60.4824C548.217 60.1816 548.573 59.7624 548.81 59.2246C549.051 58.6823 549.172 58.0488 549.172 57.3242V56.7158C549.172 56.1462 549.104 55.6403 548.967 55.1982C548.83 54.7516 548.63 54.3757 548.365 54.0703C548.101 53.7604 547.777 53.5257 547.395 53.3662C547.016 53.2067 546.581 53.127 546.089 53.127H543.847V52.0469H546.089C546.741 52.0469 547.335 52.1562 547.873 52.375C548.411 52.5892 548.873 52.9014 549.261 53.3115C549.653 53.7171 549.953 54.2093 550.163 54.7881C550.373 55.3623 550.478 56.0094 550.478 56.7295V57.3242C550.478 58.0443 550.373 58.6937 550.163 59.2725C549.953 59.8467 549.65 60.3366 549.254 60.7422C548.862 61.1478 548.388 61.46 547.832 61.6787C547.281 61.8929 546.659 62 545.966 62ZM544.592 52.0469V62H543.272V52.0469H544.592ZM553.643 54.6035V62H552.371V54.6035H553.643ZM552.275 52.6416C552.275 52.4365 552.337 52.2633 552.46 52.1221C552.588 51.9808 552.774 51.9102 553.021 51.9102C553.262 51.9102 553.447 51.9808 553.574 52.1221C553.706 52.2633 553.772 52.4365 553.772 52.6416C553.772 52.8376 553.706 53.0062 553.574 53.1475C553.447 53.2842 553.262 53.3525 553.021 53.3525C552.774 53.3525 552.588 53.2842 552.46 53.1475C552.337 53.0062 552.275 52.8376 552.275 52.6416ZM556.938 56.1826V62H555.673V54.6035H556.869L556.938 56.1826ZM556.637 58.0215L556.11 58.001C556.115 57.4951 556.19 57.028 556.336 56.5996C556.482 56.1667 556.687 55.7907 556.951 55.4717C557.215 55.1527 557.53 54.9066 557.895 54.7334C558.264 54.5557 558.672 54.4668 559.118 54.4668C559.483 54.4668 559.811 54.5169 560.103 54.6172C560.394 54.7129 560.643 54.8678 560.848 55.082C561.057 55.2962 561.217 55.5742 561.326 55.916C561.436 56.2533 561.49 56.6657 561.49 57.1533V62H560.219V57.1396C560.219 56.7523 560.162 56.4424 560.048 56.21C559.934 55.973 559.768 55.8021 559.549 55.6973C559.33 55.5879 559.061 55.5332 558.742 55.5332C558.428 55.5332 558.141 55.5993 557.881 55.7314C557.626 55.8636 557.405 56.0459 557.218 56.2783C557.035 56.5107 556.892 56.7773 556.787 57.0781C556.687 57.3743 556.637 57.6888 556.637 58.0215ZM566.48 62.1367C565.965 62.1367 565.498 62.0501 565.079 61.877C564.664 61.6992 564.307 61.4508 564.006 61.1318C563.71 60.8128 563.482 60.4346 563.322 59.9971C563.163 59.5596 563.083 59.0811 563.083 58.5615V58.2744C563.083 57.6729 563.172 57.1374 563.35 56.668C563.527 56.194 563.769 55.793 564.074 55.4648C564.38 55.1367 564.726 54.8883 565.113 54.7197C565.501 54.5511 565.902 54.4668 566.316 54.4668C566.845 54.4668 567.301 54.5579 567.684 54.7402C568.071 54.9225 568.388 55.1777 568.634 55.5059C568.88 55.8294 569.062 56.2122 569.181 56.6543C569.299 57.0918 569.358 57.5703 569.358 58.0898V58.6572H563.835V57.625H568.094V57.5293C568.076 57.2012 568.007 56.8822 567.889 56.5723C567.775 56.2624 567.592 56.0072 567.342 55.8066C567.091 55.6061 566.749 55.5059 566.316 55.5059C566.029 55.5059 565.765 55.5674 565.523 55.6904C565.282 55.8089 565.075 55.9867 564.901 56.2236C564.728 56.4606 564.594 56.75 564.498 57.0918C564.402 57.4336 564.354 57.8278 564.354 58.2744V58.5615C564.354 58.9124 564.402 59.2428 564.498 59.5527C564.598 59.8581 564.742 60.127 564.929 60.3594C565.12 60.5918 565.35 60.7741 565.619 60.9062C565.893 61.0384 566.202 61.1045 566.549 61.1045C566.995 61.1045 567.374 61.0133 567.684 60.8311C567.993 60.6488 568.265 60.4049 568.497 60.0996L569.263 60.708C569.103 60.9495 568.9 61.1797 568.654 61.3984C568.408 61.6172 568.105 61.7949 567.745 61.9316C567.39 62.0684 566.968 62.1367 566.48 62.1367ZM573.467 57.249V58.2881H570.131V57.249H573.467ZM576.078 54.6035V62H574.807V54.6035H576.078ZM574.711 52.6416C574.711 52.4365 574.772 52.2633 574.896 52.1221C575.023 51.9808 575.21 51.9102 575.456 51.9102C575.698 51.9102 575.882 51.9808 576.01 52.1221C576.142 52.2633 576.208 52.4365 576.208 52.6416C576.208 52.8376 576.142 53.0062 576.01 53.1475C575.882 53.2842 575.698 53.3525 575.456 53.3525C575.21 53.3525 575.023 53.2842 574.896 53.1475C574.772 53.0062 574.711 52.8376 574.711 52.6416ZM579.373 56.1826V62H578.108V54.6035H579.305L579.373 56.1826ZM579.072 58.0215L578.546 58.001C578.55 57.4951 578.626 57.028 578.771 56.5996C578.917 56.1667 579.122 55.7907 579.387 55.4717C579.651 55.1527 579.965 54.9066 580.33 54.7334C580.699 54.5557 581.107 54.4668 581.554 54.4668C581.918 54.4668 582.246 54.5169 582.538 54.6172C582.83 54.7129 583.078 54.8678 583.283 55.082C583.493 55.2962 583.652 55.5742 583.762 55.916C583.871 56.2533 583.926 56.6657 583.926 57.1533V62H582.654V57.1396C582.654 56.7523 582.597 56.4424 582.483 56.21C582.369 55.973 582.203 55.8021 581.984 55.6973C581.766 55.5879 581.497 55.5332 581.178 55.5332C580.863 55.5332 580.576 55.5993 580.316 55.7314C580.061 55.8636 579.84 56.0459 579.653 56.2783C579.471 56.5107 579.327 56.7773 579.223 57.0781C579.122 57.3743 579.072 57.6888 579.072 58.0215Z" fill="#0A2540"/>
</g>
<defs>
<filter id="filter0_d_3458_8661" x="494" y="2" width="140" height="142" filterUnits="userSpaceOnUse" color-interpolation-filters="sRGB">
<feFlood flood-opacity="0" result="BackgroundImageFix"/>
<feColorMatrix in="SourceAlpha" type="matrix" values="0 0 0 0 0 0 0 0 0 0 0 0 0 0 0 0 0 0 127 0" result="hardAlpha"/>
<feMorphology radius="12" operator="erode" in="SourceAlpha" result="effect1_dropShadow_3458_8661"/>
<feOffset dy="32"/>
<feGaussianBlur stdDeviation="21"/>
<feComposite in2="hardAlpha" operator="out"/>
<feColorMatrix type="matrix" values="0 0 0 0 0.0627451 0 0 0 0 0.0980392 0 0 0 0 0.156863 0 0 0 0.18 0"/>
<feBlend mode="normal" in2="BackgroundImageFix" result="effect1_dropShadow_3458_8661"/>
<feBlend mode="normal" in="SourceGraphic" in2="effect1_dropShadow_3458_8661" result="shape"/>
</filter>
<clipPath id="clip0_3458_8661">
<rect width="464" height="84" fill="white"/>
</clipPath>
</defs>
</svg>
