<svg width="672" height="286" viewBox="0 0 672 286" fill="none" xmlns="http://www.w3.org/2000/svg">
<rect x="0.5" y="190.5" width="95" height="95" rx="7.5" stroke="#C8D0DB"/>
<path fill-rule="evenodd" clip-rule="evenodd" d="M48.083 222.642C45.4707 222.642 43.3529 224.76 43.3529 227.372C43.3529 229.984 45.4707 232.102 48.083 232.102C50.6953 232.102 52.813 229.984 52.813 227.372C52.813 224.76 50.6953 222.642 48.083 222.642ZM41.4609 227.372C41.4609 223.715 44.4258 220.75 48.083 220.75C51.7403 220.75 54.705 223.715 54.705 227.372C54.705 231.029 51.7403 233.994 48.083 233.994C44.4258 233.994 41.4609 231.029 41.4609 227.372Z" fill="#C8D0DB"/>
<path fill-rule="evenodd" clip-rule="evenodd" d="M43.3805 234.859C42.8581 234.859 42.4345 235.283 42.4345 235.805C42.4345 236.328 42.8581 236.751 43.3805 236.751H50.2608C55.1895 236.751 59.4423 240.209 60.4479 245.034L60.8753 247.086C61.4876 250.023 59.2454 252.781 56.2448 252.781H42.9964V254.673H56.2448C60.4455 254.673 63.5847 250.812 62.7276 246.7L62.3 244.648C61.1116 238.946 56.0857 234.859 50.2608 234.859H43.3805Z" fill="#C8D0DB"/>
<path d="M36.7452 240.109C31.1244 250.726 36.7452 253.849 41.3604 253.731" stroke="#C8D0DB" stroke-width="1.5"/>
<path d="M36.7461 240.108L37.3706 238.859" stroke="#C8D0DB" stroke-width="1.5"/>
<path d="M34.5676 236.384L40.7281 236.313L40.2176 241.885L34.5676 236.384Z" fill="#C8D0DB" stroke="#C8D0DB"/>
<rect x="144.5" y="70.5" width="95" height="95" rx="7.5" stroke="#C8D0DB"/>
<path fill-rule="evenodd" clip-rule="evenodd" d="M192.244 117.431C190.506 117.431 188.94 116.385 188.276 114.78C187.611 113.175 187.978 111.327 189.206 110.098C190.434 108.87 192.281 108.502 193.886 109.167C195.491 109.832 196.537 111.398 196.537 113.136C196.535 115.507 194.614 117.428 192.244 117.431ZM192.244 110.079C191.007 110.079 189.892 110.823 189.419 111.966C188.946 113.108 189.208 114.424 190.082 115.298C190.956 116.173 192.271 116.434 193.413 115.961C194.555 115.487 195.3 114.372 195.3 113.136C195.298 111.448 193.931 110.081 192.244 110.079ZM199.099 126.631H185.388L184.77 126.012C184.77 123.341 186.194 120.873 188.507 119.537C190.819 118.202 193.668 118.202 195.98 119.537C198.293 120.873 199.717 123.341 199.717 126.012L199.099 126.631ZM186.037 125.393H198.451C198.137 122.199 195.452 119.764 192.244 119.764C189.035 119.764 186.35 122.199 186.037 125.393Z" fill="#C8D0DB"/>
<path d="M202.828 95C204.102 95 205.134 96.0326 205.134 97.3068V138.693C205.134 139.967 204.102 141 202.828 141H181.307C180.033 141 179 139.967 179 138.693V97.3068C179 96.0326 180.033 95 181.307 95H202.828Z" stroke="#C8D0DB" stroke-linecap="round" stroke-linejoin="round"/>
<path d="M180.156 103.168H203.224" stroke="#C8D0DB" stroke-linecap="square"/>
<path d="M181.305 132.004H204.373" stroke="#C8D0DB" stroke-linecap="square"/>
<path d="M196.298 98.0938C196.936 98.0938 197.452 98.6101 197.452 99.2471C197.452 99.8842 196.936 100.401 196.298 100.401H187.071C186.434 100.401 185.918 99.8842 185.918 99.2471C185.918 98.6101 186.434 98.0938 187.071 98.0938H196.298Z" fill="#C8D0DB"/>
<g filter="url(#filter0_d_3287_7843)">
<path fill-rule="evenodd" clip-rule="evenodd" d="M190.535 136.619C190.535 135.345 191.568 134.312 192.842 134.312C194.116 134.312 195.149 135.345 195.149 136.619C195.149 137.893 194.116 138.926 192.842 138.926C191.568 138.926 190.535 137.893 190.535 136.619Z" stroke="#C8D0DB" stroke-width="0.6"/>
</g>
<rect x="288.5" y="0.5" width="95" height="95" rx="7.5" stroke="#C8D0DB"/>
<rect x="319.254" y="38.4688" width="31.3438" height="24.875" rx="1.5" stroke="#C8D0DB"/>
<path d="M328.102 38.6875L339.135 31.7914C339.385 31.6352 339.716 31.7281 339.847 31.9918L341.039 34.375" stroke="#C8D0DB"/>
<path d="M332.414 38.6875L344.142 33.1684C344.406 33.044 344.721 33.1717 344.823 33.4452L346.789 38.6875" stroke="#C8D0DB"/>
<mask id="path-18-inside-1_3287_7843" fill="white">
<path d="M338.883 48.5938C338.883 47.4892 339.778 46.5938 340.883 46.5938H352.758C353.034 46.5938 353.258 46.8176 353.258 47.0938V54.7188C353.258 54.9949 353.034 55.2188 352.758 55.2188H340.883C339.778 55.2188 338.883 54.3233 338.883 53.2188V48.5938Z"/>
</mask>
<path d="M338.883 48.5938C338.883 47.4892 339.778 46.5938 340.883 46.5938H352.758C353.034 46.5938 353.258 46.8176 353.258 47.0938V54.7188C353.258 54.9949 353.034 55.2188 352.758 55.2188H340.883C339.778 55.2188 338.883 54.3233 338.883 53.2188V48.5938Z" stroke="#C8D0DB" stroke-width="2" mask="url(#path-18-inside-1_3287_7843)"/>
<circle cx="343.547" cy="50.8359" r="1.44687" stroke="#C8D0DB" stroke-width="0.7"/>
<rect x="341.465" y="35.668" width="2.875" height="1.4375" rx="0.3" fill="#C8D0DB"/>
<path d="M350.375 44.4375H352.231C352.397 44.4375 352.531 44.5718 352.531 44.7375V47.3125" stroke="#C8D0DB"/>
<path d="M329.177 53.8267L329.337 53.1011L330.371 52.9481L330.18 53.8267H329.177Z" fill="#C8D0DB" stroke="#C8D0DB"/>
<path d="M334.706 53.8137L335.014 52.3093L336.024 52.1897L335.647 53.8137H334.706Z" fill="#C8D0DB" stroke="#C8D0DB"/>
<mask id="path-24-inside-2_3287_7843" fill="white">
<path d="M323.082 54.2532L325.265 53.5156L325.106 54.3146H323.082V54.2532Z"/>
</mask>
<path d="M323.082 54.2532L325.265 53.5156L325.106 54.3146H323.082V54.2532Z" fill="#C8D0DB"/>
<path d="M323.082 54.2532L322.762 53.3058L322.082 53.5355V54.2532H323.082ZM325.265 53.5156L326.246 53.7113L326.584 52.0144L324.945 52.5682L325.265 53.5156ZM325.106 54.3146V55.3146H325.926L326.086 54.5103L325.106 54.3146ZM323.082 54.3146H322.082V55.3146H323.082V54.3146ZM323.402 55.2006L325.585 54.463L324.945 52.5682L322.762 53.3058L323.402 55.2006ZM324.284 53.3199L324.125 54.1189L326.086 54.5103L326.246 53.7113L324.284 53.3199ZM325.106 53.3146H323.082V55.3146H325.106V53.3146ZM324.082 54.3146V54.2532H322.082V54.3146H324.082Z" fill="#C8D0DB" mask="url(#path-24-inside-2_3287_7843)"/>
<mask id="mask0_3287_7843" style="mask-type:luminance" maskUnits="userSpaceOnUse" x="323" y="45" width="15" height="10">
<path d="M336.664 51.633C335.959 51.7076 335.269 51.7858 334.594 51.8678L335.241 48.8251C335.31 48.5251 335.344 48.2539 335.344 48.0117C335.344 47.147 334.822 46.7147 333.776 46.7147H332.207L331.005 52.3598C330.278 52.4735 329.58 52.5928 328.911 52.7176L330.188 46.7147H327.222C326.867 46.7147 326.654 46.8875 326.585 47.2332L325.249 53.5521C324.426 53.784 323.696 54.0328 323.074 54.297L324.689 46.7147C324.803 46.1724 324.998 45.7768 325.274 45.528C325.55 45.2802 325.981 45.1562 326.567 45.1562H334.31C335.264 45.1562 336.026 45.3468 336.595 45.7279C337.165 46.1081 337.449 46.6965 337.449 47.4932C337.449 47.8277 337.426 48.0927 337.379 48.2884L336.664 51.633Z" fill="white"/>
<path d="M336.664 51.633C335.959 51.7076 335.269 51.7858 334.594 51.8678L335.241 48.8251C335.31 48.5251 335.344 48.2539 335.344 48.0117C335.344 47.147 334.822 46.7147 333.776 46.7147H332.207L331.005 52.3598C330.278 52.4735 329.58 52.5928 328.911 52.7176L330.188 46.7147H327.222C326.867 46.7147 326.654 46.8875 326.585 47.2332L325.249 53.5521C324.426 53.784 323.696 54.0328 323.074 54.297L324.689 46.7147C324.803 46.1724 324.998 45.7768 325.274 45.528C325.55 45.2802 325.981 45.1562 326.567 45.1562H334.31C335.264 45.1562 336.026 45.3468 336.595 45.7279C337.165 46.1081 337.449 46.6965 337.449 47.4932C337.449 47.8277 337.426 48.0927 337.379 48.2884L336.664 51.633Z" stroke="white"/>
</mask>
<g mask="url(#mask0_3287_7843)">
<path d="M383.903 60.486H320.98V42.9453H383.903V60.486Z" fill="#C8D0DB"/>
<path d="M383.903 60.486H320.98V42.9453H383.903V60.486Z" stroke="#C8D0DB"/>
</g>
<rect x="432.5" y="190.5" width="95" height="95" rx="7.5" stroke="#C8D0DB"/>
<path d="M499.561 235.675L495.117 231.211L492.538 235.893" stroke="#C8D0DB" stroke-linecap="round" stroke-linejoin="round"/>
<path d="M459.891 239.64L464.905 244.797L467.403 240.082" stroke="#C8D0DB" stroke-linecap="round" stroke-linejoin="round"/>
<path d="M495.099 231.204C498.416 238.56 495.948 247.236 489.255 251.744C482.563 256.252 473.595 255.279 468.025 249.44" stroke="#C8D0DB" stroke-linecap="round" stroke-linejoin="round"/>
<path d="M464.903 244.797C461.587 237.446 464.049 228.777 470.732 224.265C477.415 219.754 486.376 220.712 491.954 226.536" stroke="#C8D0DB" stroke-linecap="round" stroke-linejoin="round"/>
<path d="M470.863 236.168H489.122" stroke="#C8D0DB" stroke-linecap="square"/>
<path d="M470.863 239.82H489.122" stroke="#C8D0DB" stroke-linecap="square"/>
<path d="M485.472 245.299H483.646L476.342 230.691H474.402V245.299" stroke="#C8D0DB" stroke-linecap="square"/>
<path d="M485.582 245.299V230.691" stroke="#C8D0DB" stroke-linecap="square"/>
<rect x="576.5" y="70.5" width="95" height="95" rx="7.5" stroke="#C8D0DB"/>
<path fill-rule="evenodd" clip-rule="evenodd" d="M624.083 102.642C621.471 102.642 619.353 104.76 619.353 107.372C619.353 109.984 621.471 112.102 624.083 112.102C626.695 112.102 628.813 109.984 628.813 107.372C628.813 104.76 626.695 102.642 624.083 102.642ZM617.461 107.372C617.461 103.715 620.426 100.75 624.083 100.75C627.74 100.75 630.705 103.715 630.705 107.372C630.705 111.029 627.74 113.994 624.083 113.994C620.426 113.994 617.461 111.029 617.461 107.372Z" fill="#C8D0DB"/>
<path fill-rule="evenodd" clip-rule="evenodd" d="M619.381 114.859C618.858 114.859 618.435 115.283 618.435 115.805C618.435 116.328 618.858 116.751 619.381 116.751H626.261C631.189 116.751 635.442 120.209 636.448 125.034L636.875 127.086C637.488 130.023 635.245 132.781 632.245 132.781H618.996V134.673H632.245C636.445 134.673 639.585 130.812 638.728 126.7L638.3 124.648C637.112 118.946 632.086 114.859 626.261 114.859H619.381Z" fill="#C8D0DB"/>
<path d="M612.745 120.109C607.124 130.726 612.745 133.849 617.36 133.731" stroke="#C8D0DB" stroke-width="1.5"/>
<path d="M612.746 120.108L613.371 118.859" stroke="#C8D0DB" stroke-width="1.5"/>
<path d="M610.568 116.384L616.728 116.313L616.218 121.885L610.568 116.384Z" fill="#C8D0DB" stroke="#C8D0DB"/>
<defs>
<filter id="filter0_d_3287_7843" x="186.234" y="132.012" width="13.2148" height="13.2148" filterUnits="userSpaceOnUse" color-interpolation-filters="sRGB">
<feFlood flood-opacity="0" result="BackgroundImageFix"/>
<feColorMatrix in="SourceAlpha" type="matrix" values="0 0 0 0 0 0 0 0 0 0 0 0 0 0 0 0 0 0 127 0" result="hardAlpha"/>
<feOffset dy="2"/>
<feGaussianBlur stdDeviation="2"/>
<feColorMatrix type="matrix" values="0 0 0 0 0.392157 0 0 0 0 0.392157 0 0 0 0 0.392157 0 0 0 0.498039 0"/>
<feBlend mode="normal" in2="BackgroundImageFix" result="effect1_dropShadow_3287_7843"/>
<feBlend mode="normal" in="SourceGraphic" in2="effect1_dropShadow_3287_7843" result="shape"/>
</filter>
</defs>
</svg>
