<svg width="672" height="456" viewBox="0 0 672 456" fill="none" xmlns="http://www.w3.org/2000/svg">
<rect x="432.5" y="190.5" width="95" height="95" rx="7.5" stroke="#C8D0DB"/>
<path d="M499.561 235.675L495.117 231.211L492.538 235.893" stroke="#C8D0DB" stroke-linecap="round" stroke-linejoin="round"/>
<path d="M459.891 239.64L464.905 244.797L467.403 240.082" stroke="#C8D0DB" stroke-linecap="round" stroke-linejoin="round"/>
<path d="M495.099 231.204C498.416 238.56 495.948 247.236 489.255 251.744C482.563 256.252 473.595 255.279 468.025 249.44" stroke="#C8D0DB" stroke-linecap="round" stroke-linejoin="round"/>
<path d="M464.903 244.797C461.587 237.446 464.049 228.777 470.732 224.265C477.415 219.754 486.376 220.712 491.954 226.536" stroke="#C8D0DB" stroke-linecap="round" stroke-linejoin="round"/>
<path d="M470.863 236.168H489.122" stroke="#C8D0DB" stroke-linecap="square"/>
<path d="M470.863 239.82H489.122" stroke="#C8D0DB" stroke-linecap="square"/>
<path d="M485.472 245.299H483.646L476.342 230.691H474.402V245.299" stroke="#C8D0DB" stroke-linecap="square"/>
<path d="M485.582 245.299V230.691" stroke="#C8D0DB" stroke-linecap="square"/>
<rect x="576.5" y="310.5" width="95" height="95" rx="7.5" stroke="#C8D0DB"/>
<path d="M612.137 352.555C614.706 354.413 616.327 354.786 619.548 354.217C619.977 356.389 620.366 357.162 621.195 358.135C619.416 358.701 618.469 359.338 616.842 360.865C615.439 359.329 614.616 358.424 612.96 356.591C611.074 358.516 609.885 359.769 607.549 362.29C607.252 356.775 608.243 354.632 612.137 352.555Z" stroke="#C8D0DB"/>
<circle cx="627.913" cy="352.866" r="6.925" stroke="#C8D0DB"/>
<mask id="path-13-inside-1_3288_7973" fill="white">
<path fill-rule="evenodd" clip-rule="evenodd" d="M622.392 346.308C620.689 347.742 619.592 349.883 619.547 352.282C618.691 352.771 617.697 353.05 616.637 353.05C613.414 353.05 610.801 350.464 610.801 347.275C610.801 344.086 613.414 341.5 616.637 341.5C619.528 341.5 621.927 343.579 622.392 346.308Z"/>
</mask>
<path d="M619.547 352.282L620.043 353.151L620.536 352.869L620.547 352.301L619.547 352.282ZM622.392 346.308L623.036 347.073L623.474 346.704L623.378 346.14L622.392 346.308ZM620.547 352.301C620.586 350.201 621.545 348.329 623.036 347.073L621.748 345.543C619.832 347.156 618.598 349.565 618.547 352.263L620.547 352.301ZM619.052 351.413C618.343 351.818 617.519 352.05 616.637 352.05V354.05C617.875 354.05 619.039 353.723 620.043 353.151L619.052 351.413ZM616.637 352.05C613.956 352.05 611.801 349.902 611.801 347.275H609.801C609.801 351.027 612.872 354.05 616.637 354.05V352.05ZM611.801 347.275C611.801 344.648 613.956 342.5 616.637 342.5V340.5C612.872 340.5 609.801 343.523 609.801 347.275H611.801ZM616.637 342.5C619.04 342.5 621.023 344.227 621.406 346.476L623.378 346.14C622.831 342.931 620.016 340.5 616.637 340.5V342.5Z" fill="#C8D0DB" mask="url(#path-13-inside-1_3288_7973)"/>
<path d="M634.423 359.154C628.968 362.951 626.014 362.869 620.913 359.154C619.332 360.038 618.562 360.587 617.595 361.747C618.692 363.074 619.188 363.6 619.965 364.34C618.301 364.269 617.422 364.272 615.936 364.34C615.1 369.29 617.139 370.506 620.913 372.59C628.16 371.372 631.915 371.705 638.097 374.004C639.176 373.79 639.713 373.52 640.467 372.59C640.74 365.308 639.363 362.407 634.423 359.154Z" stroke="#C8D0DB"/>
<path d="M608.16 362.95L613.11 358L617.235 362.95H614.76C614.195 369.211 616.482 370.925 620.535 373.675C614.59 372.121 611.52 371.223 610.635 362.95H608.16Z" fill="#C8D0DB" stroke="#C8D0DB" stroke-width="0.2"/>
<rect x="288.5" y="0.5" width="95" height="95" rx="7.5" stroke="#C8D0DB"/>
<rect x="319.254" y="38.4688" width="31.3438" height="24.875" rx="1.5" stroke="#C8D0DB"/>
<path d="M328.102 38.6875L339.135 31.7914C339.385 31.6352 339.716 31.7281 339.847 31.9918L341.039 34.375" stroke="#C8D0DB"/>
<path d="M332.414 38.6875L344.142 33.1684C344.406 33.044 344.721 33.1717 344.823 33.4452L346.789 38.6875" stroke="#C8D0DB"/>
<mask id="path-21-inside-2_3288_7973" fill="white">
<path d="M338.883 48.5938C338.883 47.4892 339.778 46.5938 340.883 46.5938H352.758C353.034 46.5938 353.258 46.8176 353.258 47.0938V54.7188C353.258 54.9949 353.034 55.2188 352.758 55.2188H340.883C339.778 55.2188 338.883 54.3233 338.883 53.2188V48.5938Z"/>
</mask>
<path d="M338.883 48.5938C338.883 47.4892 339.778 46.5938 340.883 46.5938H352.758C353.034 46.5938 353.258 46.8176 353.258 47.0938V54.7188C353.258 54.9949 353.034 55.2188 352.758 55.2188H340.883C339.778 55.2188 338.883 54.3233 338.883 53.2188V48.5938Z" stroke="#C8D0DB" stroke-width="2" mask="url(#path-21-inside-2_3288_7973)"/>
<circle cx="343.547" cy="50.8359" r="1.44687" stroke="#C8D0DB" stroke-width="0.7"/>
<rect x="341.465" y="35.668" width="2.875" height="1.4375" rx="0.3" fill="#C8D0DB"/>
<path d="M350.375 44.4375H352.231C352.397 44.4375 352.531 44.5718 352.531 44.7375V47.3125" stroke="#C8D0DB"/>
<path d="M329.177 53.8267L329.337 53.1011L330.371 52.9481L330.18 53.8267H329.177Z" fill="#C8D0DB" stroke="#C8D0DB"/>
<path d="M334.706 53.8137L335.014 52.3093L336.024 52.1897L335.647 53.8137H334.706Z" fill="#C8D0DB" stroke="#C8D0DB"/>
<mask id="path-27-inside-3_3288_7973" fill="white">
<path d="M323.082 54.2532L325.265 53.5156L325.106 54.3146H323.082V54.2532Z"/>
</mask>
<path d="M323.082 54.2532L325.265 53.5156L325.106 54.3146H323.082V54.2532Z" fill="#C8D0DB"/>
<path d="M323.082 54.2532L322.762 53.3058L322.082 53.5355V54.2532H323.082ZM325.265 53.5156L326.246 53.7113L326.584 52.0144L324.945 52.5682L325.265 53.5156ZM325.106 54.3146V55.3146H325.926L326.086 54.5103L325.106 54.3146ZM323.082 54.3146H322.082V55.3146H323.082V54.3146ZM323.402 55.2006L325.585 54.463L324.945 52.5682L322.762 53.3058L323.402 55.2006ZM324.284 53.3199L324.125 54.1189L326.086 54.5103L326.246 53.7113L324.284 53.3199ZM325.106 53.3146H323.082V55.3146H325.106V53.3146ZM324.082 54.3146V54.2532H322.082V54.3146H324.082Z" fill="#C8D0DB" mask="url(#path-27-inside-3_3288_7973)"/>
<mask id="mask0_3288_7973" style="mask-type:luminance" maskUnits="userSpaceOnUse" x="323" y="45" width="15" height="10">
<path d="M336.664 51.633C335.959 51.7076 335.269 51.7858 334.594 51.8678L335.241 48.8251C335.31 48.5251 335.344 48.2539 335.344 48.0117C335.344 47.147 334.822 46.7147 333.776 46.7147H332.207L331.005 52.3598C330.278 52.4735 329.58 52.5928 328.911 52.7176L330.188 46.7147H327.222C326.867 46.7147 326.654 46.8875 326.585 47.2332L325.249 53.5521C324.426 53.784 323.696 54.0328 323.074 54.297L324.689 46.7147C324.803 46.1724 324.998 45.7768 325.274 45.528C325.55 45.2802 325.981 45.1562 326.567 45.1562H334.31C335.264 45.1562 336.026 45.3468 336.595 45.7279C337.165 46.1081 337.449 46.6965 337.449 47.4932C337.449 47.8277 337.426 48.0927 337.379 48.2884L336.664 51.633Z" fill="white"/>
<path d="M336.664 51.633C335.959 51.7076 335.269 51.7858 334.594 51.8678L335.241 48.8251C335.31 48.5251 335.344 48.2539 335.344 48.0117C335.344 47.147 334.822 46.7147 333.776 46.7147H332.207L331.005 52.3598C330.278 52.4735 329.58 52.5928 328.911 52.7176L330.188 46.7147H327.222C326.867 46.7147 326.654 46.8875 326.585 47.2332L325.249 53.5521C324.426 53.784 323.696 54.0328 323.074 54.297L324.689 46.7147C324.803 46.1724 324.998 45.7768 325.274 45.528C325.55 45.2802 325.981 45.1562 326.567 45.1562H334.31C335.264 45.1562 336.026 45.3468 336.595 45.7279C337.165 46.1081 337.449 46.6965 337.449 47.4932C337.449 47.8277 337.426 48.0927 337.379 48.2884L336.664 51.633Z" stroke="white"/>
</mask>
<g mask="url(#mask0_3288_7973)">
<path d="M383.903 60.486H320.98V42.9453H383.903V60.486Z" fill="#C8D0DB"/>
<path d="M383.903 60.486H320.98V42.9453H383.903V60.486Z" stroke="#C8D0DB"/>
</g>
<rect x="288.5" y="360.5" width="95" height="95" rx="7.5" stroke="#C8D0DB"/>
<path d="M319.281 423.747L320.248 420.957L320.944 419.628C320.997 419.526 321.147 419.457 321.316 419.457H335.679C335.848 419.457 337.498 419.463 337.498 419.463" stroke="#C8D0DB" stroke-linecap="round" stroke-linejoin="round"/>
<path fill-rule="evenodd" clip-rule="evenodd" d="M323.25 403.625H332.25V419.465H323.25V403.625Z" stroke="#C8D0DB" stroke-linecap="round" stroke-linejoin="round"/>
<path d="M341.25 423.781H318.75" stroke="#C8D0DB" stroke-linecap="round" stroke-linejoin="round"/>
<path d="M327.758 403.625V419.465" stroke="#C8D0DB" stroke-linecap="round" stroke-linejoin="round"/>
<path d="M332.258 403.625V419.465" stroke="#C8D0DB" stroke-linecap="round" stroke-linejoin="round"/>
<path d="M339.758 403.625V411.125" stroke="#C8D0DB" stroke-linecap="round" stroke-linejoin="round"/>
<path d="M344.258 403.625V408.75" stroke="#C8D0DB" stroke-linecap="round" stroke-linejoin="round"/>
<path d="M348 404.559V409.809" stroke="#C8D0DB" stroke-linecap="round" stroke-linejoin="round"/>
<path fill-rule="evenodd" clip-rule="evenodd" d="M351.559 399.864C351.672 399.538 351.53 399.181 351.22 399.011L336.376 390.862C336.144 390.733 335.858 390.733 335.626 390.862L320.776 399.005C320.466 399.176 320.324 399.532 320.437 399.858L321.583 403.131C321.685 403.425 321.971 403.623 322.294 403.623H349.714C350.037 403.623 350.323 403.425 350.425 403.131L351.559 399.864Z" stroke="#C8D0DB" stroke-linecap="round" stroke-linejoin="round"/>
<path d="M351.499 399.305H320.492" stroke="#C8D0DB" stroke-linecap="round" stroke-linejoin="round"/>
<path fill-rule="evenodd" clip-rule="evenodd" d="M346.445 416.734L346.48 416.769C346.788 417.077 347.287 417.077 347.594 416.769L349.156 415.207C349.615 414.745 349.615 413.999 349.156 413.537L348.463 412.845C348.001 412.385 347.255 412.385 346.793 412.845L345.231 414.406C344.923 414.713 344.923 415.212 345.231 415.519L345.266 415.554L346.445 416.734Z" stroke="#C8D0DB" stroke-linecap="round" stroke-linejoin="round"/>
<path fill-rule="evenodd" clip-rule="evenodd" d="M343.555 417.266L343.52 417.231C343.213 416.923 342.714 416.923 342.406 417.231L340.845 418.793C340.385 419.255 340.385 420.001 340.845 420.463L341.537 421.155C341.999 421.615 342.746 421.615 343.208 421.155L344.769 419.594C344.917 419.447 345 419.246 345 419.037C345 418.829 344.917 418.628 344.769 418.481L344.734 418.446L343.555 417.266Z" stroke="#C8D0DB" stroke-linecap="round" stroke-linejoin="round"/>
<path d="M343.5 418.5L346.5 415.5" stroke="#C8D0DB" stroke-linecap="round" stroke-linejoin="round"/>
<path fill-rule="evenodd" clip-rule="evenodd" d="M337.5 417C337.5 412.858 340.858 409.5 345 409.5C349.142 409.5 352.5 412.858 352.5 417C352.5 421.142 349.142 424.5 345 424.5C340.858 424.5 337.5 421.142 337.5 417Z" stroke="#C8D0DB" stroke-linecap="round" stroke-linejoin="round"/>
<rect x="0.5" y="190.5" width="95" height="95" rx="7.5" stroke="#C8D0DB"/>
<path fill-rule="evenodd" clip-rule="evenodd" d="M48.083 222.642C45.4707 222.642 43.3529 224.76 43.3529 227.372C43.3529 229.984 45.4707 232.102 48.083 232.102C50.6953 232.102 52.813 229.984 52.813 227.372C52.813 224.76 50.6953 222.642 48.083 222.642ZM41.4609 227.372C41.4609 223.715 44.4258 220.75 48.083 220.75C51.7403 220.75 54.705 223.715 54.705 227.372C54.705 231.029 51.7403 233.994 48.083 233.994C44.4258 233.994 41.4609 231.029 41.4609 227.372Z" fill="#C8D0DB"/>
<path fill-rule="evenodd" clip-rule="evenodd" d="M43.3805 234.859C42.8581 234.859 42.4345 235.283 42.4345 235.805C42.4345 236.328 42.8581 236.751 43.3805 236.751H50.2608C55.1895 236.751 59.4423 240.209 60.4479 245.034L60.8753 247.086C61.4876 250.023 59.2454 252.781 56.2448 252.781H42.9964V254.673H56.2448C60.4455 254.673 63.5847 250.812 62.7276 246.7L62.3 244.648C61.1116 238.946 56.0857 234.859 50.2608 234.859H43.3805Z" fill="#C8D0DB"/>
<path d="M36.7452 240.109C31.1244 250.726 36.7452 253.849 41.3604 253.731" stroke="#C8D0DB" stroke-width="1.5"/>
<path d="M36.7461 240.108L37.3706 238.859" stroke="#C8D0DB" stroke-width="1.5"/>
<path d="M34.5676 236.384L40.7281 236.313L40.2176 241.885L34.5676 236.384Z" fill="#C8D0DB" stroke="#C8D0DB"/>
<rect x="144.5" y="310.5" width="95" height="95" rx="7.5" stroke="#C8D0DB"/>
<path d="M171.199 380.029L172.381 376.621C172.471 376.36 172.726 376.184 173.013 376.184H197.386C197.673 376.184 197.927 376.36 198.018 376.621L199.199 380.024" stroke="#C8D0DB" stroke-linecap="round" stroke-linejoin="round"/>
<path fill-rule="evenodd" clip-rule="evenodd" d="M173.859 362.109H196.526V376.189H173.859V362.109Z" stroke="#C8D0DB" stroke-linecap="round" stroke-linejoin="round"/>
<path d="M200.526 380.031H169.859" stroke="#C8D0DB" stroke-linecap="round" stroke-linejoin="round"/>
<path d="M177.859 362.109V376.189" stroke="#C8D0DB" stroke-linecap="round" stroke-linejoin="round"/>
<path d="M181.859 362.109V376.189" stroke="#C8D0DB" stroke-linecap="round" stroke-linejoin="round"/>
<path d="M188.531 362.109V376.189" stroke="#C8D0DB" stroke-linecap="round" stroke-linejoin="round"/>
<path d="M192.531 362.109V376.189" stroke="#C8D0DB" stroke-linecap="round" stroke-linejoin="round"/>
<path fill-rule="evenodd" clip-rule="evenodd" d="M199.022 358.767C199.123 358.477 198.997 358.16 198.721 358.009L185.526 350.765C185.32 350.651 185.066 350.651 184.86 350.765L171.66 358.004C171.384 358.155 171.258 358.472 171.358 358.762L172.377 361.671C172.468 361.932 172.722 362.109 173.009 362.109H197.382C197.669 362.109 197.924 361.932 198.014 361.671L199.022 358.767Z" stroke="#C8D0DB" stroke-linecap="round" stroke-linejoin="round"/>
<path d="M198.968 358.27H171.406" stroke="#C8D0DB" stroke-linecap="round" stroke-linejoin="round"/>
<path fill-rule="evenodd" clip-rule="evenodd" d="M195.125 345.821C195.125 340.397 199.522 336 204.946 336C210.37 336 214.768 340.397 214.768 345.821C214.768 351.245 210.37 355.643 204.946 355.643C199.522 355.643 195.125 351.245 195.125 345.821Z" stroke="#C8D0DB"/>
<path d="M199.125 344.711H211.246" stroke="#C8D0DB" stroke-linecap="square"/>
<path d="M199.125 346.836H211.246" stroke="#C8D0DB" stroke-linecap="square"/>
<path d="M208.817 350.016H207.605L202.757 341.531H201.469V350.016" stroke="#C8D0DB" stroke-linecap="square"/>
<path d="M208.895 350.016V341.531" stroke="#C8D0DB" stroke-linecap="square"/>
<path d="M205.438 356V368.724C205.438 369.276 204.99 369.724 204.437 369.724H197.203" stroke="#C8D0DB"/>
<path d="M195.311 369.658L199.52 366.612L199.333 372.948L195.311 369.658Z" fill="#C8D0DB"/>
</svg>
