<svg width="672" height="456" viewBox="0 0 672 456" fill="none" xmlns="http://www.w3.org/2000/svg">
<rect x="432.5" y="190.5" width="95" height="95" rx="7.5" stroke="#C8D0DB"/>
<path d="M499.561 235.675L495.117 231.211L492.538 235.893" stroke="#C8D0DB" stroke-linecap="round" stroke-linejoin="round"/>
<path d="M459.891 239.64L464.905 244.797L467.403 240.082" stroke="#C8D0DB" stroke-linecap="round" stroke-linejoin="round"/>
<path d="M495.099 231.204C498.416 238.56 495.948 247.236 489.255 251.744C482.563 256.252 473.595 255.279 468.025 249.44" stroke="#C8D0DB" stroke-linecap="round" stroke-linejoin="round"/>
<path d="M464.903 244.797C461.587 237.446 464.049 228.777 470.732 224.265C477.415 219.754 486.376 220.712 491.954 226.536" stroke="#C8D0DB" stroke-linecap="round" stroke-linejoin="round"/>
<path d="M470.863 236.168H489.122" stroke="#C8D0DB" stroke-linecap="square"/>
<path d="M470.863 239.82H489.122" stroke="#C8D0DB" stroke-linecap="square"/>
<path d="M485.472 245.299H483.646L476.342 230.691H474.402V245.299" stroke="#C8D0DB" stroke-linecap="square"/>
<path d="M485.582 245.299V230.691" stroke="#C8D0DB" stroke-linecap="square"/>
<rect x="576.5" y="190.5" width="95" height="95" rx="7.5" stroke="#C8D0DB"/>
<mask id="path-11-outside-1_3289_8325" maskUnits="userSpaceOnUse" x="604.012" y="220.359" width="17" height="16" fill="black">
<rect fill="white" x="604.012" y="220.359" width="17" height="16"/>
<path fill-rule="evenodd" clip-rule="evenodd" d="M615.401 231.197C615.463 231.273 615.545 231.33 615.638 231.362C617.699 232.112 620.393 233.399 620.754 236.047H619.686C619.406 234.505 618.014 233.349 615.279 232.353C615.007 232.255 614.766 232.083 614.584 231.858C614.401 231.633 614.284 231.362 614.245 231.075C614.205 230.791 614.244 230.501 614.358 230.238C614.471 229.974 614.654 229.747 614.887 229.58C615.464 229.167 616.048 227.66 616.048 227.163V225.735C616.062 224.893 615.751 224.079 615.18 223.461C614.609 222.843 613.821 222.468 612.981 222.416C612.558 222.403 612.136 222.475 611.74 222.628C611.345 222.781 610.985 223.012 610.68 223.308C610.376 223.603 610.134 223.956 609.969 224.346C609.804 224.737 609.719 225.156 609.719 225.58V227.163C609.719 227.66 610.302 229.167 610.879 229.581C611.113 229.747 611.296 229.975 611.41 230.238C611.524 230.501 611.563 230.791 611.524 231.075C611.484 231.362 611.367 231.633 611.185 231.859C611.002 232.084 610.762 232.255 610.489 232.354C607.75 233.349 606.36 234.505 606.081 236.047H605.013C605.374 233.399 608.067 232.112 610.127 231.362C610.22 231.33 610.301 231.273 610.363 231.197C610.425 231.12 610.465 231.029 610.477 230.931C610.492 230.837 610.48 230.741 610.443 230.654C610.405 230.567 610.344 230.492 610.267 230.437C609.397 229.813 608.664 227.982 608.664 227.163V225.58C608.664 225.015 608.777 224.456 608.997 223.935C609.218 223.415 609.54 222.944 609.946 222.55C610.351 222.157 610.832 221.849 611.359 221.645C611.886 221.44 612.448 221.344 613.013 221.361C614.127 221.424 615.173 221.913 615.935 222.728C616.697 223.542 617.115 224.62 617.102 225.735V227.163C617.102 227.982 616.369 229.813 615.498 230.437C615.42 230.492 615.359 230.567 615.322 230.654C615.285 230.741 615.273 230.837 615.287 230.931C615.3 231.029 615.339 231.12 615.401 231.197Z"/>
</mask>
<path fill-rule="evenodd" clip-rule="evenodd" d="M615.401 231.197C615.463 231.273 615.545 231.33 615.638 231.362C617.699 232.112 620.393 233.399 620.754 236.047H619.686C619.406 234.505 618.014 233.349 615.279 232.353C615.007 232.255 614.766 232.083 614.584 231.858C614.401 231.633 614.284 231.362 614.245 231.075C614.205 230.791 614.244 230.501 614.358 230.238C614.471 229.974 614.654 229.747 614.887 229.58C615.464 229.167 616.048 227.66 616.048 227.163V225.735C616.062 224.893 615.751 224.079 615.18 223.461C614.609 222.843 613.821 222.468 612.981 222.416C612.558 222.403 612.136 222.475 611.74 222.628C611.345 222.781 610.985 223.012 610.68 223.308C610.376 223.603 610.134 223.956 609.969 224.346C609.804 224.737 609.719 225.156 609.719 225.58V227.163C609.719 227.66 610.302 229.167 610.879 229.581C611.113 229.747 611.296 229.975 611.41 230.238C611.524 230.501 611.563 230.791 611.524 231.075C611.484 231.362 611.367 231.633 611.185 231.859C611.002 232.084 610.762 232.255 610.489 232.354C607.75 233.349 606.36 234.505 606.081 236.047H605.013C605.374 233.399 608.067 232.112 610.127 231.362C610.22 231.33 610.301 231.273 610.363 231.197C610.425 231.12 610.465 231.029 610.477 230.931C610.492 230.837 610.48 230.741 610.443 230.654C610.405 230.567 610.344 230.492 610.267 230.437C609.397 229.813 608.664 227.982 608.664 227.163V225.58C608.664 225.015 608.777 224.456 608.997 223.935C609.218 223.415 609.54 222.944 609.946 222.55C610.351 222.157 610.832 221.849 611.359 221.645C611.886 221.44 612.448 221.344 613.013 221.361C614.127 221.424 615.173 221.913 615.935 222.728C616.697 223.542 617.115 224.62 617.102 225.735V227.163C617.102 227.982 616.369 229.813 615.498 230.437C615.42 230.492 615.359 230.567 615.322 230.654C615.285 230.741 615.273 230.837 615.287 230.931C615.3 231.029 615.339 231.12 615.401 231.197Z" fill="#C8D0DB"/>
<path d="M615.638 231.362L615.706 231.174L615.703 231.173L615.638 231.362ZM615.401 231.197L615.556 231.07L615.556 231.07L615.401 231.197ZM620.754 236.047V236.247H620.983L620.952 236.02L620.754 236.047ZM619.686 236.047L619.489 236.083L619.519 236.247H619.686V236.047ZM615.279 232.353L615.348 232.165L615.347 232.165L615.279 232.353ZM614.584 231.858L614.428 231.984H614.428L614.584 231.858ZM614.245 231.075L614.443 231.047L614.443 231.047L614.245 231.075ZM614.358 230.238L614.541 230.317H614.541L614.358 230.238ZM614.887 229.58L615.004 229.743L615.004 229.743L614.887 229.58ZM616.048 225.735L615.848 225.732V225.735H616.048ZM615.18 223.461L615.033 223.596L615.18 223.461ZM612.981 222.416L612.994 222.216L612.988 222.216L612.981 222.416ZM611.74 222.628L611.668 222.442L611.668 222.442L611.74 222.628ZM610.68 223.308L610.82 223.451V223.451L610.68 223.308ZM609.719 225.58H609.919V225.58L609.719 225.58ZM610.879 229.581L610.763 229.743L610.763 229.743L610.879 229.581ZM611.41 230.238L611.594 230.159L611.41 230.238ZM611.524 231.075L611.326 231.048L611.326 231.048L611.524 231.075ZM611.185 231.859L611.34 231.984L611.185 231.859ZM610.489 232.354L610.421 232.165L610.421 232.166L610.489 232.354ZM606.081 236.047V236.247H606.248L606.277 236.083L606.081 236.047ZM605.013 236.047L604.815 236.02L604.784 236.247H605.013V236.047ZM610.127 231.362L610.061 231.173L610.058 231.174L610.127 231.362ZM610.363 231.197L610.208 231.07L610.208 231.07L610.363 231.197ZM610.477 230.931L610.28 230.901L610.279 230.906L610.477 230.931ZM610.443 230.654L610.627 230.575L610.627 230.575L610.443 230.654ZM610.267 230.437L610.15 230.6L610.152 230.601L610.267 230.437ZM608.664 225.58H608.864V225.58L608.664 225.58ZM608.997 223.935L609.182 224.013V224.013L608.997 223.935ZM609.946 222.55L610.085 222.694L609.946 222.55ZM611.359 221.645L611.286 221.458V221.458L611.359 221.645ZM613.013 221.361L613.024 221.162L613.019 221.161L613.013 221.361ZM615.935 222.728L616.081 222.591V222.591L615.935 222.728ZM617.102 225.735L616.902 225.733V225.735H617.102ZM615.498 230.437L615.613 230.601L615.615 230.6L615.498 230.437ZM615.322 230.654L615.138 230.576L615.138 230.576L615.322 230.654ZM615.287 230.931L615.486 230.906L615.485 230.901L615.287 230.931ZM615.703 231.173C615.646 231.153 615.595 231.118 615.556 231.07L615.246 231.323C615.332 231.428 615.445 231.507 615.573 231.551L615.703 231.173ZM620.952 236.02C620.762 234.628 619.959 233.601 618.955 232.834C617.954 232.069 616.742 231.551 615.706 231.174L615.569 231.55C616.595 231.923 617.761 232.424 618.712 233.152C619.661 233.877 620.385 234.818 620.555 236.074L620.952 236.02ZM619.686 236.247H620.754V235.847H619.686V236.247ZM615.211 232.541C617.937 233.533 619.23 234.655 619.489 236.083L619.883 236.011C619.582 234.355 618.092 233.164 615.348 232.165L615.211 232.541ZM614.428 231.984C614.634 232.238 614.904 232.43 615.211 232.541L615.347 232.165C615.109 232.079 614.899 231.929 614.739 231.732L614.428 231.984ZM614.046 231.102C614.091 231.425 614.223 231.73 614.428 231.984L614.739 231.732C614.58 231.535 614.477 231.298 614.443 231.047L614.046 231.102ZM614.174 230.159C614.046 230.456 614.002 230.782 614.046 231.102L614.443 231.047C614.408 230.799 614.442 230.547 614.541 230.317L614.174 230.159ZM614.771 229.417C614.508 229.605 614.302 229.862 614.174 230.159L614.541 230.317C614.64 230.087 614.8 229.888 615.004 229.743L614.771 229.417ZM615.848 227.163C615.848 227.258 615.818 227.423 615.756 227.636C615.695 227.844 615.607 228.084 615.501 228.322C615.395 228.56 615.273 228.792 615.145 228.988C615.014 229.187 614.886 229.335 614.771 229.418L615.004 229.743C615.177 229.618 615.338 229.423 615.479 229.208C615.623 228.989 615.754 228.737 615.867 228.484C615.979 228.232 616.073 227.975 616.139 227.748C616.204 227.526 616.248 227.316 616.248 227.163H615.848ZM615.848 225.735V227.163H616.248V225.735H615.848ZM615.033 223.596C615.569 224.177 615.861 224.942 615.848 225.732L616.248 225.738C616.263 224.845 615.933 223.981 615.327 223.325L615.033 223.596ZM612.969 222.616C613.758 222.665 614.497 223.016 615.033 223.596L615.327 223.325C614.721 222.669 613.885 222.272 612.994 222.217L612.969 222.616ZM611.813 222.815C612.183 222.671 612.578 222.604 612.975 222.616L612.988 222.216C612.537 222.202 612.088 222.279 611.668 222.442L611.813 222.815ZM610.82 223.451C611.105 223.175 611.442 222.958 611.813 222.815L611.668 222.442C611.248 222.605 610.865 222.85 610.541 223.164L610.82 223.451ZM610.153 224.424C610.308 224.059 610.534 223.728 610.82 223.451L610.541 223.164C610.218 223.478 609.96 223.853 609.785 224.269L610.153 224.424ZM609.919 225.58C609.919 225.183 609.998 224.79 610.153 224.424L609.785 224.269C609.609 224.684 609.519 225.13 609.519 225.581L609.919 225.58ZM609.919 227.163V225.58H609.519V227.163H609.919ZM610.996 229.418C610.881 229.336 610.752 229.187 610.622 228.988C610.493 228.792 610.371 228.56 610.266 228.322C610.16 228.084 610.072 227.844 610.011 227.636C609.949 227.423 609.919 227.258 609.919 227.163H609.519C609.519 227.316 609.562 227.526 609.627 227.748C609.694 227.975 609.788 228.232 609.9 228.484C610.012 228.737 610.144 228.989 610.287 229.208C610.429 229.423 610.589 229.619 610.763 229.743L610.996 229.418ZM611.594 230.159C611.466 229.862 611.259 229.606 610.995 229.418L610.763 229.743C610.967 229.889 611.127 230.087 611.226 230.317L611.594 230.159ZM611.722 231.103C611.766 230.782 611.722 230.456 611.594 230.159L611.226 230.317C611.326 230.547 611.36 230.8 611.326 231.048L611.722 231.103ZM611.34 231.984C611.545 231.731 611.678 231.426 611.722 231.102L611.326 231.048C611.291 231.299 611.189 231.536 611.029 231.733L611.34 231.984ZM610.557 232.542C610.864 232.431 611.135 232.238 611.34 231.984L611.029 231.733C610.87 231.93 610.66 232.079 610.421 232.165L610.557 232.542ZM606.277 236.083C606.536 234.655 607.828 233.533 610.557 232.542L610.421 232.166C607.672 233.164 606.184 234.355 605.884 236.011L606.277 236.083ZM605.013 236.247H606.081V235.847H605.013V236.247ZM610.058 231.174C609.023 231.551 607.812 232.069 606.811 232.834C605.808 233.601 605.004 234.628 604.815 236.02L605.211 236.074C605.382 234.818 606.106 233.877 607.054 233.152C608.006 232.424 609.171 231.923 610.195 231.55L610.058 231.174ZM610.208 231.07C610.17 231.118 610.119 231.153 610.061 231.173L610.192 231.551C610.32 231.507 610.433 231.428 610.519 231.323L610.208 231.07ZM610.279 230.906C610.271 230.966 610.247 231.023 610.208 231.07L610.519 231.323C610.604 231.218 610.658 231.091 610.676 230.957L610.279 230.906ZM610.259 230.733C610.281 230.785 610.289 230.844 610.28 230.901L610.675 230.962C610.695 230.831 610.678 230.697 610.627 230.575L610.259 230.733ZM610.152 230.601C610.199 230.634 610.236 230.68 610.259 230.733L610.627 230.575C610.575 230.454 610.49 230.349 610.381 230.273L610.152 230.601ZM608.464 227.163C608.464 227.614 608.661 228.308 608.958 228.956C609.254 229.604 609.672 230.257 610.15 230.6L610.383 230.275C609.992 229.994 609.609 229.419 609.321 228.79C609.034 228.162 608.864 227.53 608.864 227.163H608.464ZM608.464 225.58V227.163H608.864V225.58H608.464ZM608.813 223.857C608.583 224.403 608.464 224.989 608.464 225.581L608.864 225.58C608.864 225.042 608.972 224.509 609.182 224.013L608.813 223.857ZM609.806 222.407C609.381 222.819 609.044 223.312 608.813 223.857L609.182 224.013C609.391 223.517 609.698 223.069 610.085 222.694L609.806 222.407ZM611.286 221.458C610.734 221.672 610.231 221.995 609.806 222.407L610.085 222.694C610.471 222.319 610.929 222.026 611.431 221.831L611.286 221.458ZM613.019 221.161C612.428 221.143 611.838 221.244 611.286 221.458L611.431 221.831C611.933 221.636 612.469 221.545 613.007 221.561L613.019 221.161ZM616.081 222.591C615.284 221.739 614.189 221.227 613.024 221.162L613.002 221.561C614.064 221.62 615.062 222.087 615.789 222.864L616.081 222.591ZM617.302 225.737C617.316 224.57 616.878 223.444 616.081 222.591L615.789 222.864C616.516 223.641 616.914 224.669 616.902 225.733L617.302 225.737ZM617.302 227.163V225.735H616.902V227.163H617.302ZM615.615 230.6C616.093 230.257 616.512 229.604 616.809 228.956C617.106 228.308 617.302 227.614 617.302 227.163H616.902C616.902 227.53 616.733 228.162 616.445 228.79C616.157 229.418 615.774 229.993 615.382 230.274L615.615 230.6ZM615.506 230.733C615.529 230.68 615.566 230.634 615.613 230.601L615.383 230.273C615.275 230.349 615.19 230.454 615.138 230.576L615.506 230.733ZM615.485 230.901C615.476 230.844 615.483 230.786 615.506 230.733L615.138 230.576C615.086 230.697 615.069 230.831 615.089 230.962L615.485 230.901ZM615.556 231.07C615.518 231.023 615.493 230.966 615.486 230.906L615.089 230.957C615.106 231.091 615.161 231.218 615.246 231.323L615.556 231.07Z" fill="#C8D0DB" mask="url(#path-11-outside-1_3289_8325)"/>
<path d="M605.543 236.172C610.88 239.538 614.216 239.538 620.22 236.172" stroke="#C8D0DB" stroke-linecap="round"/>
<path fill-rule="evenodd" clip-rule="evenodd" d="M623.462 233.141C623.077 233.141 622.842 232.711 623.025 232.372C623.849 230.849 624.316 229.105 624.316 227.252C624.316 221.299 619.49 216.473 613.537 216.473C607.584 216.473 602.758 221.299 602.758 227.252C602.758 229.105 603.225 230.849 604.049 232.372C604.232 232.711 603.997 233.141 603.612 233.141C603.44 233.141 603.279 233.049 603.196 232.897C602.279 231.221 601.758 229.297 601.758 227.252C601.758 220.746 607.032 215.473 613.537 215.473C620.043 215.473 625.316 220.746 625.316 227.252C625.316 229.297 624.795 231.221 623.878 232.897C623.795 233.049 623.635 233.141 623.462 233.141Z" fill="#C8D0DB"/>
<mask id="path-15-outside-2_3289_8325" maskUnits="userSpaceOnUse" x="624.93" y="240.977" width="17" height="16" fill="black">
<rect fill="white" x="624.93" y="240.977" width="17" height="16"/>
<path fill-rule="evenodd" clip-rule="evenodd" d="M636.319 251.814C636.381 251.89 636.463 251.947 636.556 251.979C638.617 252.729 641.311 254.016 641.672 256.664H640.604C640.324 255.123 638.932 253.966 636.197 252.97C635.925 252.872 635.684 252.701 635.502 252.475C635.319 252.25 635.202 251.979 635.163 251.692C635.123 251.408 635.162 251.118 635.276 250.855C635.389 250.591 635.572 250.364 635.805 250.197C636.382 249.784 636.966 248.278 636.966 247.78V246.352C636.98 245.511 636.669 244.696 636.098 244.078C635.527 243.46 634.739 243.086 633.899 243.033C633.476 243.02 633.054 243.092 632.658 243.245C632.263 243.399 631.903 243.63 631.598 243.925C631.294 244.22 631.052 244.573 630.887 244.964C630.722 245.354 630.637 245.774 630.637 246.198V247.78C630.637 248.278 631.22 249.784 631.797 250.198C632.031 250.364 632.214 250.592 632.328 250.855C632.442 251.119 632.481 251.408 632.442 251.692C632.402 251.98 632.285 252.251 632.103 252.476C631.92 252.701 631.68 252.872 631.407 252.971C628.668 253.966 627.278 255.123 626.999 256.664H625.931C626.292 254.016 628.985 252.729 631.045 251.979C631.137 251.947 631.219 251.89 631.281 251.814C631.343 251.738 631.383 251.646 631.395 251.548C631.41 251.455 631.398 251.359 631.361 251.271C631.323 251.184 631.262 251.109 631.184 251.054C630.315 250.43 629.582 248.599 629.582 247.78V246.198C629.582 245.632 629.695 245.073 629.915 244.553C630.135 244.032 630.458 243.561 630.864 243.167C631.269 242.774 631.75 242.466 632.277 242.262C632.804 242.057 633.366 241.961 633.931 241.979C635.045 242.041 636.091 242.53 636.853 243.345C637.615 244.16 638.033 245.237 638.02 246.352V247.78C638.02 248.599 637.287 250.43 636.416 251.054C636.338 251.109 636.277 251.184 636.24 251.271C636.203 251.359 636.191 251.455 636.205 251.548C636.218 251.646 636.257 251.738 636.319 251.814Z"/>
</mask>
<path fill-rule="evenodd" clip-rule="evenodd" d="M636.319 251.814C636.381 251.89 636.463 251.947 636.556 251.979C638.617 252.729 641.311 254.016 641.672 256.664H640.604C640.324 255.123 638.932 253.966 636.197 252.97C635.925 252.872 635.684 252.701 635.502 252.475C635.319 252.25 635.202 251.979 635.163 251.692C635.123 251.408 635.162 251.118 635.276 250.855C635.389 250.591 635.572 250.364 635.805 250.197C636.382 249.784 636.966 248.278 636.966 247.78V246.352C636.98 245.511 636.669 244.696 636.098 244.078C635.527 243.46 634.739 243.086 633.899 243.033C633.476 243.02 633.054 243.092 632.658 243.245C632.263 243.399 631.903 243.63 631.598 243.925C631.294 244.22 631.052 244.573 630.887 244.964C630.722 245.354 630.637 245.774 630.637 246.198V247.78C630.637 248.278 631.22 249.784 631.797 250.198C632.031 250.364 632.214 250.592 632.328 250.855C632.442 251.119 632.481 251.408 632.442 251.692C632.402 251.98 632.285 252.251 632.103 252.476C631.92 252.701 631.68 252.872 631.407 252.971C628.668 253.966 627.278 255.123 626.999 256.664H625.931C626.292 254.016 628.985 252.729 631.045 251.979C631.137 251.947 631.219 251.89 631.281 251.814C631.343 251.738 631.383 251.646 631.395 251.548C631.41 251.455 631.398 251.359 631.361 251.271C631.323 251.184 631.262 251.109 631.184 251.054C630.315 250.43 629.582 248.599 629.582 247.78V246.198C629.582 245.632 629.695 245.073 629.915 244.553C630.135 244.032 630.458 243.561 630.864 243.167C631.269 242.774 631.75 242.466 632.277 242.262C632.804 242.057 633.366 241.961 633.931 241.979C635.045 242.041 636.091 242.53 636.853 243.345C637.615 244.16 638.033 245.237 638.02 246.352V247.78C638.02 248.599 637.287 250.43 636.416 251.054C636.338 251.109 636.277 251.184 636.24 251.271C636.203 251.359 636.191 251.455 636.205 251.548C636.218 251.646 636.257 251.738 636.319 251.814Z" fill="#C8D0DB"/>
<path d="M636.556 251.979L636.624 251.791L636.621 251.79L636.556 251.979ZM636.319 251.814L636.474 251.688L636.474 251.688L636.319 251.814ZM641.672 256.664V256.864H641.901L641.87 256.637L641.672 256.664ZM640.604 256.664L640.407 256.7L640.437 256.864H640.604V256.664ZM636.197 252.97L636.266 252.782L636.265 252.782L636.197 252.97ZM635.502 252.475L635.346 252.601H635.346L635.502 252.475ZM635.163 251.692L635.361 251.665L635.361 251.664L635.163 251.692ZM635.276 250.855L635.459 250.934H635.459L635.276 250.855ZM635.805 250.197L635.922 250.36L635.922 250.36L635.805 250.197ZM636.966 246.352L636.766 246.349V246.352H636.966ZM636.098 244.078L635.951 244.214L636.098 244.078ZM633.899 243.033L633.912 242.834L633.906 242.833L633.899 243.033ZM632.658 243.245L632.586 243.059L632.586 243.059L632.658 243.245ZM631.598 243.925L631.738 244.068V244.068L631.598 243.925ZM630.637 246.198H630.837V246.198L630.637 246.198ZM631.797 250.198L631.681 250.36L631.681 250.361L631.797 250.198ZM632.328 250.855L632.512 250.776L632.328 250.855ZM632.442 251.692L632.244 251.665L632.244 251.665L632.442 251.692ZM632.103 252.476L632.258 252.602L632.103 252.476ZM631.407 252.971L631.339 252.783L631.339 252.783L631.407 252.971ZM626.999 256.664V256.864H627.166L627.195 256.7L626.999 256.664ZM625.931 256.664L625.733 256.637L625.702 256.864H625.931V256.664ZM631.045 251.979L630.979 251.79L630.976 251.791L631.045 251.979ZM631.281 251.814L631.126 251.688L631.126 251.688L631.281 251.814ZM631.395 251.548L631.198 251.518L631.197 251.523L631.395 251.548ZM631.361 251.271L631.545 251.193L631.545 251.193L631.361 251.271ZM631.184 251.054L631.068 251.217L631.07 251.218L631.184 251.054ZM629.582 246.198H629.782V246.198L629.582 246.198ZM629.915 244.553L630.1 244.63V244.63L629.915 244.553ZM630.864 243.167L631.003 243.311L630.864 243.167ZM632.277 242.262L632.204 242.075V242.075L632.277 242.262ZM633.931 241.979L633.942 241.779L633.937 241.779L633.931 241.979ZM636.853 243.345L636.999 243.208V243.208L636.853 243.345ZM638.02 246.352L637.82 246.35V246.352H638.02ZM636.416 251.054L636.531 251.218L636.533 251.217L636.416 251.054ZM636.24 251.271L636.056 251.193L636.056 251.193L636.24 251.271ZM636.205 251.548L636.404 251.523L636.403 251.518L636.205 251.548ZM636.621 251.79C636.564 251.77 636.513 251.735 636.474 251.688L636.164 251.94C636.249 252.045 636.363 252.124 636.49 252.168L636.621 251.79ZM641.87 256.637C641.68 255.245 640.877 254.218 639.873 253.451C638.872 252.686 637.66 252.168 636.624 251.791L636.487 252.167C637.513 252.54 638.678 253.041 639.63 253.769C640.579 254.494 641.302 255.435 641.473 256.691L641.87 256.637ZM640.604 256.864H641.672V256.464H640.604V256.864ZM636.129 253.158C638.855 254.15 640.148 255.273 640.407 256.7L640.801 256.628C640.5 254.973 639.01 253.781 636.266 252.782L636.129 253.158ZM635.346 252.601C635.551 252.855 635.822 253.048 636.129 253.158L636.265 252.782C636.027 252.696 635.816 252.546 635.657 252.349L635.346 252.601ZM634.964 251.719C635.009 252.042 635.141 252.347 635.346 252.601L635.657 252.349C635.498 252.153 635.395 251.916 635.361 251.665L634.964 251.719ZM635.092 250.776C634.964 251.073 634.92 251.399 634.964 251.719L635.361 251.664C635.326 251.416 635.36 251.164 635.459 250.934L635.092 250.776ZM635.689 250.035C635.426 250.223 635.22 250.479 635.092 250.776L635.459 250.934C635.558 250.704 635.718 250.506 635.922 250.36L635.689 250.035ZM636.766 247.78C636.766 247.875 636.736 248.04 636.674 248.253C636.613 248.462 636.525 248.701 636.419 248.939C636.313 249.177 636.191 249.41 636.063 249.605C635.932 249.804 635.804 249.952 635.689 250.035L635.922 250.36C636.095 250.235 636.256 250.04 636.397 249.825C636.54 249.606 636.672 249.354 636.785 249.101C636.897 248.849 636.991 248.592 637.057 248.366C637.122 248.143 637.166 247.934 637.166 247.78H636.766ZM636.766 246.352V247.78H637.166V246.352H636.766ZM635.951 244.214C636.487 244.794 636.779 245.559 636.766 246.349L637.166 246.356C637.181 245.463 636.851 244.598 636.245 243.942L635.951 244.214ZM633.887 243.233C634.676 243.282 635.415 243.633 635.951 244.214L636.245 243.942C635.639 243.286 634.803 242.889 633.912 242.834L633.887 243.233ZM632.731 243.432C633.101 243.288 633.496 243.221 633.893 243.233L633.906 242.833C633.455 242.819 633.006 242.896 632.586 243.059L632.731 243.432ZM631.738 244.068C632.023 243.792 632.36 243.575 632.731 243.432L632.586 243.059C632.166 243.222 631.783 243.467 631.459 243.781L631.738 244.068ZM631.071 245.041C631.226 244.676 631.452 244.345 631.738 244.068L631.459 243.781C631.135 244.095 630.878 244.471 630.703 244.886L631.071 245.041ZM630.837 246.198C630.837 245.8 630.916 245.407 631.071 245.041L630.703 244.886C630.527 245.301 630.437 245.747 630.437 246.198L630.837 246.198ZM630.837 247.78V246.198H630.437V247.78H630.837ZM631.914 250.035C631.799 249.953 631.67 249.805 631.54 249.606C631.411 249.41 631.289 249.177 631.184 248.939C631.078 248.701 630.99 248.462 630.929 248.253C630.867 248.04 630.837 247.875 630.837 247.78H630.437C630.437 247.934 630.48 248.143 630.545 248.366C630.612 248.592 630.706 248.849 630.818 249.101C630.93 249.354 631.062 249.607 631.205 249.825C631.347 250.04 631.507 250.236 631.681 250.36L631.914 250.035ZM632.512 250.776C632.384 250.479 632.177 250.223 631.913 250.035L631.681 250.361C631.885 250.506 632.045 250.704 632.144 250.934L632.512 250.776ZM632.64 251.72C632.684 251.399 632.64 251.073 632.512 250.776L632.144 250.934C632.244 251.164 632.278 251.417 632.244 251.665L632.64 251.72ZM632.258 252.602C632.463 252.348 632.595 252.043 632.64 251.72L632.244 251.665C632.209 251.916 632.107 252.153 631.947 252.35L632.258 252.602ZM631.475 253.159C631.782 253.048 632.053 252.855 632.258 252.602L631.947 252.35C631.788 252.547 631.577 252.697 631.339 252.783L631.475 253.159ZM627.195 256.7C627.454 255.273 628.745 254.15 631.475 253.159L631.339 252.783C628.59 253.781 627.102 254.973 626.802 256.628L627.195 256.7ZM625.931 256.864H626.999V256.464H625.931V256.864ZM630.976 251.791C629.941 252.168 628.73 252.686 627.729 253.451C626.726 254.218 625.922 255.245 625.733 256.637L626.129 256.691C626.3 255.435 627.024 254.494 627.972 253.769C628.924 253.041 630.089 252.54 631.113 252.167L630.976 251.791ZM631.126 251.688C631.088 251.735 631.037 251.77 630.979 251.79L631.11 252.168C631.238 252.124 631.351 252.045 631.437 251.94L631.126 251.688ZM631.197 251.523C631.189 251.583 631.165 251.64 631.126 251.688L631.437 251.94C631.522 251.835 631.576 251.708 631.594 251.574L631.197 251.523ZM631.177 251.35C631.199 251.403 631.207 251.461 631.198 251.518L631.593 251.579C631.613 251.448 631.596 251.314 631.545 251.193L631.177 251.35ZM631.07 251.218C631.117 251.251 631.154 251.297 631.177 251.35L631.545 251.193C631.493 251.071 631.408 250.966 631.299 250.89L631.07 251.218ZM629.382 247.78C629.382 248.232 629.579 248.925 629.876 249.574C630.172 250.221 630.59 250.874 631.068 251.217L631.301 250.892C630.91 250.611 630.527 250.036 630.239 249.407C629.952 248.779 629.782 248.147 629.782 247.78H629.382ZM629.382 246.198V247.78H629.782V246.198H629.382ZM629.731 244.475C629.501 245.02 629.382 245.606 629.382 246.198L629.782 246.198C629.782 245.659 629.89 245.126 630.1 244.63L629.731 244.475ZM630.724 243.024C630.299 243.436 629.962 243.929 629.731 244.475L630.1 244.63C630.309 244.135 630.616 243.686 631.003 243.311L630.724 243.024ZM632.204 242.075C631.652 242.289 631.149 242.612 630.724 243.024L631.003 243.311C631.389 242.936 631.847 242.643 632.349 242.448L632.204 242.075ZM633.937 241.779C633.346 241.76 632.756 241.861 632.204 242.075L632.349 242.448C632.851 242.254 633.387 242.162 633.925 242.178L633.937 241.779ZM636.999 243.208C636.202 242.356 635.107 241.844 633.942 241.779L633.92 242.178C634.982 242.238 635.98 242.704 636.707 243.482L636.999 243.208ZM638.22 246.354C638.234 245.188 637.796 244.061 636.999 243.208L636.707 243.482C637.434 244.259 637.832 245.286 637.82 246.35L638.22 246.354ZM638.22 247.78V246.352H637.82V247.78H638.22ZM636.533 251.217C637.011 250.874 637.43 250.221 637.727 249.574C638.024 248.925 638.22 248.232 638.22 247.78H637.82C637.82 248.147 637.65 248.779 637.363 249.407C637.075 250.036 636.692 250.611 636.3 250.892L636.533 251.217ZM636.424 251.35C636.447 251.297 636.484 251.251 636.531 251.218L636.301 250.89C636.193 250.966 636.108 251.071 636.056 251.193L636.424 251.35ZM636.403 251.518C636.394 251.461 636.401 251.403 636.424 251.35L636.056 251.193C636.004 251.314 635.987 251.448 636.007 251.579L636.403 251.518ZM636.474 251.688C636.436 251.64 636.411 251.583 636.403 251.523L636.007 251.574C636.024 251.708 636.079 251.835 636.164 251.94L636.474 251.688Z" fill="#C8D0DB" mask="url(#path-15-outside-2_3289_8325)"/>
<path d="M626.461 256.789C631.798 260.155 635.134 260.155 641.138 256.789" stroke="#C8D0DB" stroke-linecap="round"/>
<path fill-rule="evenodd" clip-rule="evenodd" d="M644.384 253.754C643.999 253.754 643.764 253.324 643.947 252.986C644.771 251.462 645.238 249.718 645.238 247.865C645.238 241.912 640.412 237.086 634.459 237.086C628.506 237.086 623.68 241.912 623.68 247.865C623.68 249.718 624.147 251.462 624.971 252.986C625.154 253.324 624.919 253.754 624.534 253.754C624.361 253.754 624.201 253.662 624.118 253.511C623.201 251.834 622.68 249.911 622.68 247.865C622.68 241.36 627.953 236.086 634.459 236.086C640.964 236.086 646.238 241.36 646.238 247.865C646.238 249.911 645.717 251.834 644.8 253.511C644.717 253.662 644.556 253.754 644.384 253.754Z" fill="#C8D0DB"/>
<path d="M610.119 247.134L610.119 247.134L608.347 241.344L610.119 247.134ZM610.119 247.134C610.248 247.555 610.694 247.793 611.115 247.664L610.119 247.134ZM608.876 240.347L608.876 240.347C609.298 240.218 609.744 240.455 609.873 240.877L609.873 240.877L611.645 246.667C611.756 247.03 611.596 247.411 611.28 247.592L608.876 240.347ZM608.876 240.347C608.455 240.476 608.218 240.922 608.347 241.344L608.876 240.347Z" fill="#C8D0DB" stroke="#C8D0DB" stroke-width="0.2"/>
<path d="M605.074 245.907L605.074 245.907C604.759 246.088 604.349 246.035 604.091 245.757L604.091 245.757C603.792 245.433 603.811 244.928 604.135 244.629M605.074 245.907L609.651 241.696C609.975 241.397 609.994 240.892 609.695 240.569L609.695 240.569C609.395 240.245 608.89 240.226 608.567 240.525L608.567 240.525L604.135 244.629M605.074 245.907C605.126 245.877 605.175 245.841 605.219 245.8C605.219 245.8 605.219 245.8 605.219 245.8L609.651 241.696L605.074 245.907ZM604.135 244.629L604.203 244.702M604.135 244.629L604.135 244.629L604.203 244.702M604.203 244.702C603.92 244.964 603.903 245.406 604.165 245.689L604.203 244.702Z" fill="#C8D0DB" stroke="#C8D0DB" stroke-width="0.2"/>
<path d="M606.981 245.95L606.98 245.95C606.318 248.449 606.662 251.059 607.95 253.301C610.623 257.955 616.574 259.572 621.216 256.906C621.598 256.687 621.73 256.199 621.511 255.817C621.291 255.434 620.803 255.302 620.421 255.522C616.543 257.75 611.569 256.397 609.334 252.506C608.257 250.631 607.969 248.449 608.523 246.362L609.816 241.553L609.816 241.553C609.93 241.127 609.678 240.689 609.252 240.575C608.827 240.46 608.389 240.712 608.274 241.138L608.274 241.138L606.981 245.95Z" fill="#C8D0DB" stroke="#C8D0DB" stroke-width="0.2"/>
<path d="M636.777 228.059L636.777 228.059L639.19 233.613L636.777 228.059ZM636.777 228.059C636.601 227.655 636.131 227.47 635.727 227.645L636.777 228.059ZM638.776 234.663L638.776 234.663C638.372 234.839 637.902 234.653 637.726 234.249L637.726 234.249L635.313 228.696C635.161 228.347 635.278 227.951 635.571 227.735L638.776 234.663ZM638.776 234.663C639.18 234.487 639.366 234.017 639.19 233.613L638.776 234.663Z" fill="#C8D0DB" stroke="#C8D0DB" stroke-width="0.2"/>
<path d="M641.926 228.71L641.926 228.71C641.878 228.745 641.833 228.787 641.794 228.832L637.853 233.409C637.853 233.409 637.853 233.409 637.853 233.409C637.565 233.743 637.603 234.247 637.937 234.535L637.937 234.535C638.271 234.823 638.775 234.785 639.062 234.451L639.062 234.451L643.004 229.874C643.004 229.874 643.004 229.874 643.004 229.874C643.291 229.54 643.254 229.036 642.92 228.748L642.92 228.748C642.632 228.501 642.219 228.494 641.926 228.71Z" fill="#C8D0DB" stroke="#C8D0DB" stroke-width="0.2"/>
<path d="M640.021 228.881L640.021 228.881C640.397 226.324 639.761 223.768 638.229 221.686C635.048 217.363 628.953 216.427 624.64 219.6C624.285 219.861 624.209 220.36 624.47 220.716C624.732 221.071 625.231 221.147 625.586 220.885C629.189 218.235 634.284 219.018 636.943 222.632C638.224 224.373 638.756 226.51 638.442 228.646L637.699 233.57L637.699 233.57C637.633 234.006 637.933 234.412 638.369 234.478C638.805 234.544 639.212 234.244 639.278 233.808L639.278 233.808L640.021 228.881Z" fill="#C8D0DB" stroke="#C8D0DB" stroke-width="0.2"/>
<rect x="288.5" y="0.5" width="95" height="95" rx="7.5" stroke="#C8D0DB"/>
<rect x="319.254" y="38.4688" width="31.3438" height="24.875" rx="1.5" stroke="#C8D0DB"/>
<path d="M328.102 38.6875L339.135 31.7914C339.385 31.6352 339.716 31.7281 339.847 31.9918L341.039 34.375" stroke="#C8D0DB"/>
<path d="M332.414 38.6875L344.142 33.1684C344.406 33.044 344.721 33.1717 344.823 33.4452L346.789 38.6875" stroke="#C8D0DB"/>
<mask id="path-29-inside-3_3289_8325" fill="white">
<path d="M338.883 48.5938C338.883 47.4892 339.778 46.5938 340.883 46.5938H352.758C353.034 46.5938 353.258 46.8176 353.258 47.0938V54.7188C353.258 54.9949 353.034 55.2188 352.758 55.2188H340.883C339.778 55.2188 338.883 54.3233 338.883 53.2188V48.5938Z"/>
</mask>
<path d="M338.883 48.5938C338.883 47.4892 339.778 46.5938 340.883 46.5938H352.758C353.034 46.5938 353.258 46.8176 353.258 47.0938V54.7188C353.258 54.9949 353.034 55.2188 352.758 55.2188H340.883C339.778 55.2188 338.883 54.3233 338.883 53.2188V48.5938Z" stroke="#C8D0DB" stroke-width="2" mask="url(#path-29-inside-3_3289_8325)"/>
<circle cx="343.547" cy="50.8359" r="1.44687" stroke="#C8D0DB" stroke-width="0.7"/>
<rect x="341.465" y="35.668" width="2.875" height="1.4375" rx="0.3" fill="#C8D0DB"/>
<path d="M350.375 44.4375H352.231C352.397 44.4375 352.531 44.5718 352.531 44.7375V47.3125" stroke="#C8D0DB"/>
<path d="M329.177 53.8267L329.337 53.1011L330.371 52.9481L330.18 53.8267H329.177Z" fill="#C8D0DB" stroke="#C8D0DB"/>
<path d="M334.706 53.8137L335.014 52.3093L336.024 52.1897L335.647 53.8137H334.706Z" fill="#C8D0DB" stroke="#C8D0DB"/>
<mask id="path-35-inside-4_3289_8325" fill="white">
<path d="M323.082 54.2532L325.265 53.5156L325.106 54.3146H323.082V54.2532Z"/>
</mask>
<path d="M323.082 54.2532L325.265 53.5156L325.106 54.3146H323.082V54.2532Z" fill="#C8D0DB"/>
<path d="M323.082 54.2532L322.762 53.3058L322.082 53.5355V54.2532H323.082ZM325.265 53.5156L326.246 53.7113L326.584 52.0144L324.945 52.5682L325.265 53.5156ZM325.106 54.3146V55.3146H325.926L326.086 54.5103L325.106 54.3146ZM323.082 54.3146H322.082V55.3146H323.082V54.3146ZM323.402 55.2006L325.585 54.463L324.945 52.5682L322.762 53.3058L323.402 55.2006ZM324.284 53.3199L324.125 54.1189L326.086 54.5103L326.246 53.7113L324.284 53.3199ZM325.106 53.3146H323.082V55.3146H325.106V53.3146ZM324.082 54.3146V54.2532H322.082V54.3146H324.082Z" fill="#C8D0DB" mask="url(#path-35-inside-4_3289_8325)"/>
<mask id="mask0_3289_8325" style="mask-type:luminance" maskUnits="userSpaceOnUse" x="323" y="45" width="15" height="10">
<path d="M336.664 51.633C335.959 51.7076 335.269 51.7858 334.594 51.8678L335.241 48.8251C335.31 48.5251 335.344 48.2539 335.344 48.0117C335.344 47.147 334.822 46.7147 333.776 46.7147H332.207L331.005 52.3598C330.278 52.4735 329.58 52.5928 328.911 52.7176L330.188 46.7147H327.222C326.867 46.7147 326.654 46.8875 326.585 47.2332L325.249 53.5521C324.426 53.784 323.696 54.0328 323.074 54.297L324.689 46.7147C324.803 46.1724 324.998 45.7768 325.274 45.528C325.55 45.2802 325.981 45.1562 326.567 45.1562H334.31C335.264 45.1562 336.026 45.3468 336.595 45.7279C337.165 46.1081 337.449 46.6965 337.449 47.4932C337.449 47.8277 337.426 48.0927 337.379 48.2884L336.664 51.633Z" fill="white"/>
<path d="M336.664 51.633C335.959 51.7076 335.269 51.7858 334.594 51.8678L335.241 48.8251C335.31 48.5251 335.344 48.2539 335.344 48.0117C335.344 47.147 334.822 46.7147 333.776 46.7147H332.207L331.005 52.3598C330.278 52.4735 329.58 52.5928 328.911 52.7176L330.188 46.7147H327.222C326.867 46.7147 326.654 46.8875 326.585 47.2332L325.249 53.5521C324.426 53.784 323.696 54.0328 323.074 54.297L324.689 46.7147C324.803 46.1724 324.998 45.7768 325.274 45.528C325.55 45.2802 325.981 45.1562 326.567 45.1562H334.31C335.264 45.1562 336.026 45.3468 336.595 45.7279C337.165 46.1081 337.449 46.6965 337.449 47.4932C337.449 47.8277 337.426 48.0927 337.379 48.2884L336.664 51.633Z" stroke="white"/>
</mask>
<g mask="url(#mask0_3289_8325)">
<path d="M383.903 60.486H320.98V42.9453H383.903V60.486Z" fill="#C8D0DB"/>
<path d="M383.903 60.486H320.98V42.9453H383.903V60.486Z" stroke="#C8D0DB"/>
</g>
<rect x="288.5" y="120.5" width="95" height="95" rx="7.5" stroke="#C8D0DB"/>
<path d="M323.478 171.094C323.911 171.094 324.261 171.444 324.261 171.876V182.833C324.261 183.265 323.911 183.615 323.478 183.615H318.783C318.35 183.615 318 183.265 318 182.833V171.876C318 171.444 318.35 171.094 318.783 171.094H323.478Z" stroke="#C8D0DB"/>
<path d="M324.262 181.368C340.697 186.846 335.218 186.846 354.001 177.455C352.92 175.999 351.044 175.373 349.305 175.89L342.55 178.03" stroke="#C8D0DB"/>
<path d="M324.262 172.656H328.957C332.64 172.656 335.218 175.787 336.001 175.787H341.479C343.044 175.787 343.044 178.917 341.479 178.917H332.87" stroke="#C8D0DB"/>
<path d="M345.155 160.916H343.612V159.434H345.155C345.386 159.434 345.574 159.246 345.574 159.014C345.574 158.782 345.386 158.595 345.155 158.595H343.612V156.537C343.612 156.237 343.553 156.017 343.436 155.882C343.324 155.755 343.178 155.695 342.976 155.695C342.783 155.695 342.642 155.754 342.533 155.881C342.417 156.016 342.359 156.236 342.359 156.538V158.595H339.457L338.223 156.728C338.123 156.57 338.023 156.412 337.922 156.255C337.835 156.12 337.75 156.011 337.67 155.929C337.6 155.856 337.519 155.8 337.425 155.757C337.336 155.716 337.222 155.695 337.088 155.695C336.918 155.695 336.763 155.742 336.614 155.838C336.467 155.933 336.366 156.051 336.304 156.198C336.249 156.337 336.22 156.551 336.22 156.827V158.595H334.693C334.461 158.595 334.273 158.783 334.273 159.014C334.273 159.246 334.461 159.434 334.693 159.434H336.22V160.917H334.693C334.461 160.917 334.273 161.105 334.273 161.336C334.273 161.568 334.461 161.756 334.693 161.756H336.22V164.105C336.22 164.396 336.282 164.614 336.403 164.753C336.518 164.885 336.664 164.946 336.863 164.946C337.055 164.946 337.2 164.885 337.32 164.752C337.443 164.617 337.506 164.399 337.506 164.105V161.756H340.131L341.552 163.935C341.652 164.08 341.753 164.224 341.855 164.367C341.947 164.495 342.047 164.607 342.152 164.702C342.248 164.787 342.35 164.849 342.456 164.887C342.565 164.927 342.692 164.947 342.834 164.947C343.218 164.947 343.612 164.829 343.612 163.957V161.756H345.155C345.386 161.756 345.574 161.568 345.574 161.336C345.574 161.104 345.386 160.916 345.155 160.916ZM342.359 159.434V160.916H340.991L340.012 159.434H342.359ZM337.506 157.73L338.069 158.595H337.506V157.73ZM337.506 160.916V159.434H338.617L339.584 160.916H337.506ZM342.359 162.986L341.546 161.756H342.359V162.986Z" fill="#C8D0DB"/>
<circle cx="339.915" cy="160.391" r="8.8913" stroke="#C8D0DB"/>
<rect x="288.5" y="240.5" width="95" height="95" rx="7.5" stroke="#C8D0DB"/>
<path fill-rule="evenodd" clip-rule="evenodd" d="M324.32 275H352C352.553 275 353 275.448 353 276V295.04C353 295.592 352.553 296.04 352 296.04H335.056C334.983 296.381 334.892 296.715 334.784 297.04H352C353.105 297.04 354 296.145 354 295.04V276C354 274.895 353.105 274 352 274H324.32C323.216 274 322.32 274.895 322.32 276V285.98C322.641 285.783 322.975 285.606 323.32 285.453V276C323.32 275.448 323.768 275 324.32 275Z" fill="#C8D0DB"/>
<rect x="326.641" y="278.32" width="17.28" height="1.44" rx="0.72" fill="#C8D0DB"/>
<rect x="326.641" y="281.199" width="17.28" height="1.44" rx="0.72" fill="#C8D0DB"/>
<circle cx="326.64" cy="294.16" r="8.14" stroke="#C8D0DB"/>
<mask id="path-50-inside-5_3289_8325" fill="white">
<path fill-rule="evenodd" clip-rule="evenodd" d="M325.021 292.07L326.494 290.407C327.043 289.787 327.991 289.73 328.612 290.279L330.175 291.665C330.795 292.214 330.853 293.162 330.303 293.782L328.91 295.354L329.675 295.999L331.052 294.445C331.967 293.412 331.872 291.832 330.838 290.916L329.275 289.531C328.241 288.615 326.661 288.711 325.746 289.744L324.256 291.425L325.021 292.07ZM324.006 293.215L323.242 292.57L322.009 293.961C321.094 294.994 321.189 296.574 322.223 297.49L323.787 298.875C324.82 299.791 326.4 299.696 327.316 298.662L328.661 297.144L327.896 296.499L326.567 297.999C326.018 298.619 325.07 298.676 324.45 298.127L322.886 296.741C322.266 296.192 322.209 295.244 322.758 294.624L324.006 293.215Z"/>
</mask>
<path d="M326.494 290.407L327.243 291.07V291.07L326.494 290.407ZM325.021 292.07L324.375 292.834L325.122 293.464L325.769 292.733L325.021 292.07ZM328.612 290.279L327.948 291.028V291.028L328.612 290.279ZM330.175 291.665L329.512 292.413L330.175 291.665ZM330.303 293.782L329.555 293.119L330.303 293.782ZM328.91 295.354L328.162 294.691L327.483 295.458L328.265 296.118L328.91 295.354ZM329.675 295.999L329.03 296.763L329.776 297.393L330.423 296.663L329.675 295.999ZM331.052 294.445L331.8 295.108L331.8 295.108L331.052 294.445ZM330.838 290.916L331.502 290.168L331.502 290.168L330.838 290.916ZM329.275 289.531L328.612 290.279V290.279L329.275 289.531ZM325.746 289.744L326.494 290.407V290.407L325.746 289.744ZM324.256 291.425L323.508 290.762L322.829 291.528L323.611 292.189L324.256 291.425ZM324.006 293.215L324.755 293.878L325.434 293.112L324.651 292.451L324.006 293.215ZM323.242 292.57L323.887 291.806L323.141 291.176L322.494 291.907L323.242 292.57ZM322.009 293.961L321.261 293.298H321.261L322.009 293.961ZM322.223 297.49L321.56 298.238H321.56L322.223 297.49ZM323.787 298.875L324.45 298.127H324.45L323.787 298.875ZM327.316 298.662L328.064 299.325L328.064 299.325L327.316 298.662ZM328.661 297.144L329.409 297.807L330.088 297.041L329.306 296.38L328.661 297.144ZM327.896 296.499L328.541 295.735L327.795 295.105L327.148 295.836L327.896 296.499ZM326.567 297.999L325.819 297.336V297.336L326.567 297.999ZM324.45 298.127L323.787 298.875L323.787 298.875L324.45 298.127ZM322.886 296.741L323.549 295.993L322.886 296.741ZM322.758 294.624L323.506 295.287L322.758 294.624ZM325.746 289.744L324.272 291.407L325.769 292.733L327.243 291.07L325.746 289.744ZM329.275 289.531C328.241 288.615 326.661 288.711 325.746 289.744L327.243 291.07C327.426 290.864 327.742 290.845 327.948 291.028L329.275 289.531ZM330.838 290.916L329.275 289.531L327.948 291.028L329.512 292.413L330.838 290.916ZM331.052 294.445C331.967 293.412 331.872 291.832 330.838 290.916L329.512 292.413C329.719 292.596 329.738 292.912 329.555 293.119L331.052 294.445ZM329.659 296.017L331.052 294.445L329.555 293.119L328.162 294.691L329.659 296.017ZM328.265 296.118L329.03 296.763L330.32 295.235L329.556 294.59L328.265 296.118ZM330.423 296.663L331.8 295.108L330.303 293.782L328.926 295.336L330.423 296.663ZM331.8 295.108C333.082 293.662 332.948 291.45 331.502 290.168L330.175 291.665C330.795 292.214 330.853 293.162 330.303 293.782L331.8 295.108ZM331.502 290.168L329.938 288.782L328.612 290.279L330.175 291.665L331.502 290.168ZM329.938 288.782C328.491 287.5 326.279 287.634 324.997 289.081L326.494 290.407C327.043 289.787 327.991 289.73 328.612 290.279L329.938 288.782ZM324.997 289.081L323.508 290.762L325.005 292.088L326.494 290.407L324.997 289.081ZM323.611 292.189L324.375 292.834L325.666 291.306L324.901 290.661L323.611 292.189ZM324.651 292.451L323.887 291.806L322.597 293.334L323.361 293.979L324.651 292.451ZM322.494 291.907L321.261 293.298L322.758 294.624L323.99 293.233L322.494 291.907ZM321.261 293.298C319.979 294.744 320.113 296.957 321.56 298.238L322.886 296.741C322.266 296.192 322.209 295.244 322.758 294.624L321.261 293.298ZM321.56 298.238L323.123 299.624L324.45 298.127L322.886 296.741L321.56 298.238ZM323.123 299.624C324.57 300.906 326.782 300.772 328.064 299.325L326.567 297.999C326.018 298.619 325.07 298.676 324.45 298.127L323.123 299.624ZM328.064 299.325L329.409 297.807L327.912 296.481L326.567 297.999L328.064 299.325ZM329.306 296.38L328.541 295.735L327.251 297.263L328.015 297.908L329.306 296.38ZM327.316 298.662L328.645 297.162L327.148 295.836L325.819 297.336L327.316 298.662ZM323.787 298.875C324.82 299.791 326.4 299.696 327.316 298.662L325.819 297.336C325.636 297.542 325.32 297.562 325.113 297.378L323.787 298.875ZM322.223 297.49L323.787 298.875L325.113 297.378L323.549 295.993L322.223 297.49ZM322.009 293.961C321.094 294.994 321.189 296.574 322.223 297.49L323.549 295.993C323.342 295.81 323.323 295.494 323.506 295.287L322.009 293.961ZM323.258 292.552L322.009 293.961L323.506 295.287L324.755 293.878L323.258 292.552Z" fill="#C8D0DB" mask="url(#path-50-inside-5_3289_8325)"/>
<rect x="328.035" y="291.863" width="1.32923" height="5.31692" rx="0.5" transform="rotate(43.9974 328.035 291.863)" fill="#C8D0DB"/>
<circle cx="343.202" cy="290.561" r="3.1" stroke="#C8D0DB"/>
<circle cx="346.08" cy="290.561" r="3.1" stroke="#C8D0DB"/>
<rect x="288.5" y="360.5" width="95" height="95" rx="7.5" stroke="#C8D0DB"/>
<path d="M319.281 423.747L320.248 420.957L320.944 419.628C320.997 419.526 321.147 419.457 321.316 419.457H335.679C335.848 419.457 337.498 419.463 337.498 419.463" stroke="#C8D0DB" stroke-linecap="round" stroke-linejoin="round"/>
<path fill-rule="evenodd" clip-rule="evenodd" d="M323.25 403.625H332.25V419.465H323.25V403.625Z" stroke="#C8D0DB" stroke-linecap="round" stroke-linejoin="round"/>
<path d="M341.25 423.781H318.75" stroke="#C8D0DB" stroke-linecap="round" stroke-linejoin="round"/>
<path d="M327.758 403.625V419.465" stroke="#C8D0DB" stroke-linecap="round" stroke-linejoin="round"/>
<path d="M332.258 403.625V419.465" stroke="#C8D0DB" stroke-linecap="round" stroke-linejoin="round"/>
<path d="M339.758 403.625V411.125" stroke="#C8D0DB" stroke-linecap="round" stroke-linejoin="round"/>
<path d="M344.258 403.625V408.75" stroke="#C8D0DB" stroke-linecap="round" stroke-linejoin="round"/>
<path d="M348 404.559V409.809" stroke="#C8D0DB" stroke-linecap="round" stroke-linejoin="round"/>
<path fill-rule="evenodd" clip-rule="evenodd" d="M351.559 399.864C351.672 399.538 351.53 399.181 351.22 399.011L336.376 390.862C336.144 390.733 335.858 390.733 335.626 390.862L320.776 399.005C320.466 399.176 320.324 399.532 320.437 399.858L321.583 403.131C321.685 403.425 321.971 403.623 322.294 403.623H349.714C350.037 403.623 350.323 403.425 350.425 403.131L351.559 399.864Z" stroke="#C8D0DB" stroke-linecap="round" stroke-linejoin="round"/>
<path d="M351.499 399.305H320.492" stroke="#C8D0DB" stroke-linecap="round" stroke-linejoin="round"/>
<path fill-rule="evenodd" clip-rule="evenodd" d="M346.445 416.734L346.48 416.769C346.788 417.077 347.287 417.077 347.594 416.769L349.156 415.207C349.615 414.745 349.615 413.999 349.156 413.537L348.463 412.845C348.001 412.385 347.255 412.385 346.793 412.845L345.231 414.406C344.923 414.713 344.923 415.212 345.231 415.519L345.266 415.554L346.445 416.734Z" stroke="#C8D0DB" stroke-linecap="round" stroke-linejoin="round"/>
<path fill-rule="evenodd" clip-rule="evenodd" d="M343.555 417.266L343.52 417.231C343.213 416.923 342.714 416.923 342.406 417.231L340.845 418.793C340.385 419.255 340.385 420.001 340.845 420.463L341.537 421.155C341.999 421.615 342.746 421.615 343.208 421.155L344.769 419.594C344.917 419.447 345 419.246 345 419.037C345 418.829 344.917 418.628 344.769 418.481L344.734 418.446L343.555 417.266Z" stroke="#C8D0DB" stroke-linecap="round" stroke-linejoin="round"/>
<path d="M343.5 418.5L346.5 415.5" stroke="#C8D0DB" stroke-linecap="round" stroke-linejoin="round"/>
<path fill-rule="evenodd" clip-rule="evenodd" d="M337.5 417C337.5 412.858 340.858 409.5 345 409.5C349.142 409.5 352.5 412.858 352.5 417C352.5 421.142 349.142 424.5 345 424.5C340.858 424.5 337.5 421.142 337.5 417Z" stroke="#C8D0DB" stroke-linecap="round" stroke-linejoin="round"/>
<rect x="0.5" y="190.5" width="95" height="95" rx="7.5" stroke="#C8D0DB"/>
<path fill-rule="evenodd" clip-rule="evenodd" d="M48.083 222.642C45.4707 222.642 43.3529 224.76 43.3529 227.372C43.3529 229.984 45.4707 232.102 48.083 232.102C50.6953 232.102 52.813 229.984 52.813 227.372C52.813 224.76 50.6953 222.642 48.083 222.642ZM41.4609 227.372C41.4609 223.715 44.4258 220.75 48.083 220.75C51.7403 220.75 54.705 223.715 54.705 227.372C54.705 231.029 51.7403 233.994 48.083 233.994C44.4258 233.994 41.4609 231.029 41.4609 227.372Z" fill="#C8D0DB"/>
<path fill-rule="evenodd" clip-rule="evenodd" d="M43.3805 234.859C42.8581 234.859 42.4345 235.283 42.4345 235.805C42.4345 236.328 42.8581 236.751 43.3805 236.751H50.2608C55.1895 236.751 59.4423 240.209 60.4479 245.034L60.8753 247.086C61.4876 250.023 59.2454 252.781 56.2448 252.781H42.9964V254.673H56.2448C60.4455 254.673 63.5847 250.812 62.7276 246.7L62.3 244.648C61.1116 238.946 56.0857 234.859 50.2608 234.859H43.3805Z" fill="#C8D0DB"/>
<path d="M36.7452 240.109C31.1244 250.726 36.7452 253.849 41.3604 253.731" stroke="#C8D0DB" stroke-width="1.5"/>
<path d="M36.7461 240.108L37.3706 238.859" stroke="#C8D0DB" stroke-width="1.5"/>
<path d="M34.5676 236.384L40.7281 236.313L40.2176 241.885L34.5676 236.384Z" fill="#C8D0DB" stroke="#C8D0DB"/>
<rect x="144.5" y="190.5" width="95" height="95" rx="7.5" stroke="#C8D0DB"/>
<path fill-rule="evenodd" clip-rule="evenodd" d="M190.727 244.946H169H173.024L173.147 220H190.479L190.727 245.751V244.946Z" stroke="#C8D0DB" stroke-linecap="square"/>
<path fill-rule="evenodd" clip-rule="evenodd" d="M176.109 226.602H178.74V229.232H176.109V226.602Z" stroke="#C8D0DB" stroke-linecap="round" stroke-linejoin="round"/>
<path fill-rule="evenodd" clip-rule="evenodd" d="M184.875 226.602H187.506V229.232H184.875V226.602Z" stroke="#C8D0DB" stroke-linecap="round" stroke-linejoin="round"/>
<path fill-rule="evenodd" clip-rule="evenodd" d="M176.109 235.371H178.74V238.002H176.109V235.371Z" stroke="#C8D0DB" stroke-linecap="round" stroke-linejoin="round"/>
<path d="M184.875 235.371V238.002H187.506V235.371H186.629" stroke="#C8D0DB" stroke-linecap="round" stroke-linejoin="round"/>
<path d="M180.492 228.794V226.602H183.123" stroke="#C8D0DB" stroke-linecap="round" stroke-linejoin="round"/>
<path d="M183.125 228.355V231.425" stroke="#C8D0DB" stroke-linecap="round" stroke-linejoin="round"/>
<path d="M176.109 233.614H180.494V231.422" stroke="#C8D0DB" stroke-linecap="round" stroke-linejoin="round"/>
<path d="M180.492 235.371V238.002H183.123" stroke="#C8D0DB" stroke-linecap="round" stroke-linejoin="round"/>
<path d="M182.25 235.371H183.127" stroke="#C8D0DB" stroke-linecap="round" stroke-linejoin="round"/>
<path d="M176.109 230.984H178.74" stroke="#C8D0DB" stroke-linecap="round" stroke-linejoin="round"/>
<path d="M187.506 230.984H184.875V231.861" stroke="#C8D0DB" stroke-linecap="round" stroke-linejoin="round"/>
<path d="M182.25 233.617H187.512" stroke="#C8D0DB" stroke-linecap="round" stroke-linejoin="round"/>
<path d="M214.133 256.002L210.817 251.359V245.39C210.873 243.032 208.057 240.929 205.512 238.758" stroke="#C8D0DB" stroke-linecap="round" stroke-linejoin="round"/>
<path d="M205.916 248.043L202.348 244.371C201.539 243.824 200.479 243.824 199.671 244.371C199.406 244.635 199.258 244.993 199.258 245.366C199.258 245.74 199.406 246.097 199.671 246.361L203.901 250.696V252.685C203.901 253.96 205.971 256.002 205.971 256.002" stroke="#C8D0DB" stroke-linecap="round" stroke-linejoin="round"/>
<path d="M200.772 249.368H191.357C190.957 249.368 190.633 249.071 190.633 248.705V226.155C190.633 225.789 190.957 225.492 191.357 225.492H204.393C204.793 225.492 205.117 225.789 205.117 226.155V242.736" stroke="#C8D0DB" stroke-linecap="round" stroke-linejoin="round"/>
<path fill-rule="evenodd" clip-rule="evenodd" d="M193.863 232.836H195.652V234.624H193.863V232.836Z" stroke="#C8D0DB" stroke-linecap="round" stroke-linejoin="round"/>
<path fill-rule="evenodd" clip-rule="evenodd" d="M193.863 239.094H195.652V240.882H193.863V239.094Z" stroke="#C8D0DB" stroke-linecap="round" stroke-linejoin="round"/>
<path fill-rule="evenodd" clip-rule="evenodd" d="M200.121 232.836H201.909V234.624H200.121V232.836Z" stroke="#C8D0DB" stroke-linecap="round" stroke-linejoin="round"/>
<path d="M193.863 237.309H197.44V238.203" stroke="#C8D0DB" stroke-linecap="round" stroke-linejoin="round"/>
<path d="M199.223 238.203V240.885H201.905V238.203H201.011" stroke="#C8D0DB" stroke-linecap="round" stroke-linejoin="round"/>
<path d="M197.445 239.988V240.882" stroke="#C8D0DB" stroke-linecap="round" stroke-linejoin="round"/>
<path d="M197.445 232.836V235.518H198.339" stroke="#C8D0DB" stroke-linecap="round" stroke-linejoin="round"/>
<path d="M200.121 236.414H201.909" stroke="#C8D0DB" stroke-linecap="round" stroke-linejoin="round"/>
</svg>
